999
Inkscape export via OpenSCAD DXF Export
  0
SECTION
  2
HEADER
  9
$ACADVER
  1
AC1014
  9
$HANDSEED
  5
FFFF
  9
$MEASUREMENT
 70
     1
  0
ENDSEC
  0
SECTION
  2
TABLES
  0
TABLE
  2
VPORT
  5
8
330
0
100
AcDbSymbolTable
 70
     4
  0
VPORT
  5
2E
330
8
100
AcDbSymbolTableRecord
100
AcDbViewportTableRecord
  2
*ACTIVE
 70
     0
 10
0.0
 20
0.0
 11
1.0
 21
1.0
 12
210.0
 22
148.5
 13
0.0
 23
0.0
 14
10.0
 24
10.0
 15
10.0
 25
10.0
 16
0.0
 26
0.0
 36
1.0
 17
0.0
 27
0.0
 37
0.0
 40
341.0
 41
1.24
 42
50.0
 43
0.0
 44
0.0
 50
0.0
 51
0.0
 71
     0
 72
   100
 73
     1
 74
     3
 75
     0
 76
     0
 77
     0
 78
     0
  0
ENDTAB
  0
TABLE
  2
LTYPE
  5
5
330
0
100
AcDbSymbolTable
 70
     1
  0
LTYPE
  5
14
330
5
100
AcDbSymbolTableRecord
100
AcDbLinetypeTableRecord
  2
BYBLOCK
 70
     0
  3

 72
    65
 73
     0
 40
0.0
  0
LTYPE
  5
15
330
5
100
AcDbSymbolTableRecord
100
AcDbLinetypeTableRecord
  2
BYLAYER
 70
     0
  3

 72
    65
 73
     0
 40
0.0
  0
LTYPE
  5
16
330
5
100
AcDbSymbolTableRecord
100
AcDbLinetypeTableRecord
  2
CONTINUOUS
 70
     0
  3
Solid line
 72
    65
 73
     0
 40
0.0
  0
ENDTAB
  0
TABLE
0
TABLE
2
LAYER
5
2
330
0
100
AcDbSymbolTable
70
1
0
LAYER
5
10
330
2
100
AcDbSymbolTableRecord
100
AcDbLayerTableRecord
2
Layer_1
70
0
62
7
6
CONTINUOUS
0
ENDTAB
0
ENDSEC
  0
ENDTAB
  0
TABLE
  2
STYLE
  5
3
330
0
100
AcDbSymbolTable
 70
     1
  0
STYLE
  5
11
330
3
100
AcDbSymbolTableRecord
100
AcDbTextStyleTableRecord
  2
STANDARD
 70
     0
 40
0.0
 41
1.0
 50
0.0
 71
     0
 42
2.5
  3
txt
  4

  0
ENDTAB
  0
TABLE
  2
VIEW
  5
6
330
0
100
AcDbSymbolTable
 70
     0
  0
ENDTAB
  0
TABLE
  2
UCS
  5
7
330
0
100
AcDbSymbolTable
 70
     0
  0
ENDTAB
  0
TABLE
  2
APPID
  5
9
330
0
100
AcDbSymbolTable
 70
     2
  0
APPID
  5
12
330
9
100
AcDbSymbolTableRecord
100
AcDbRegAppTableRecord
  2
ACAD
 70
     0
  0
ENDTAB
  0
TABLE
  2
DIMSTYLE
  5
A
330
0
100
AcDbSymbolTable
 70
     1
  0
DIMSTYLE
105
27
330
A
100
AcDbSymbolTableRecord
100
AcDbDimStyleTableRecord
  2
ISO-25
 70
     0
  3

  4

  5

  6

  7

 40
1.0
 41
2.5
 42
0.625
 43
3.75
 44
1.25
 45
0.0
 46
0.0
 47
0.0
 48
0.0
140
2.5
141
2.5
142
0.0
143
0.03937007874016
144
1.0
145
0.0
146
1.0
147
0.625
 71
     0
 72
     0
 73
     0
 74
     0
 75
     0
 76
     0
 77
     1
 78
     8
170
     0
171
     3
172
     1
173
     0
174
     0
175
     0
176
     0
177
     0
178
     0
270
     2
271
     2
272
     2
273
     2
274
     3
340
11
275
     0
280
     0
281
     0
282
     0
283
     0
284
     8
285
     0
286
     0
287
     3
288
     0
  0
ENDTAB
  0
TABLE
  2
BLOCK_RECORD
  5
1
330
0
100
AcDbSymbolTable
 70
     1
  0
BLOCK_RECORD
  5
1F
330
1
100
AcDbSymbolTableRecord
100
AcDbBlockTableRecord
  2
*MODEL_SPACE
  0
BLOCK_RECORD
  5
1B
330
1
100
AcDbSymbolTableRecord
100
AcDbBlockTableRecord
  2
*PAPER_SPACE
  0
ENDTAB
  0
ENDSEC
  0
SECTION
  2
BLOCKS
  0
BLOCK
  5
20
330
1F
100
AcDbEntity
  8
0
100
AcDbBlockBegin
  2
*MODEL_SPACE
 70
     0
 10
0.0
 20
0.0
 30
0.0
  3
*MODEL_SPACE
  1

  0
ENDBLK
  5
21
330
1F
100
AcDbEntity
  8
0
100
AcDbBlockEnd
  0
BLOCK
  5
1C
330
1B
100
AcDbEntity
 67
     1
  8
0
100
AcDbBlockBegin
  2
*PAPER_SPACE
  1

  0
ENDBLK
  5
1D
330
1B
100
AcDbEntity
 67
     1
  8
0
100
AcDbBlockEnd
  0
ENDSEC
  0
SECTION
  2
ENTITIES
0
DIMENSION
5
83
100
AcDbEntity
62
256
370
-1
6
ByLayer
1
total_width
3
Standard
70
0
71
5
72
1
41
1.0
100
AcDbAlignedDimension
13
0.318343
23
0.000000
33
0.0
14
228.918344
24
0.000000
34
0.0
50
0.000000
100
AcDbRotatedDimension
0
DIMENSION
5
83
100
AcDbEntity
62
256
370
-1
6
ByLayer
1
total_height
3
Standard
70
0
71
5
72
1
41
1.0
100
AcDbAlignedDimension
13
0.000000
23
0.091972
33
0.0
14
0.000000
24
24.371902
34
0.0
50
90.000000
100
AcDbRotatedDimension
0
DIMENSION
8
Layer_1
5
83
100
AcDbEntity
62
256
370
-1
6
ByLayer
1
Layer_1_width
3
Standard
70
0
71
5
72
1
41
1.0
100
AcDbAlignedDimension
13
0.318343
23
0.000000
33
0.0
14
228.918344
24
0.000000
34
0.0
50
0.000000
100
AcDbRotatedDimension
0
DIMENSION
8
Layer_1
5
83
100
AcDbEntity
62
256
370
-1
6
ByLayer
1
Layer_1_height
3
Standard
70
0
71
5
72
1
41
1.0
100
AcDbAlignedDimension
13
0.000000
23
0.091972
33
0.0
14
0.000000
24
24.371902
34
0.0
50
90.000000
100
AcDbRotatedDimension
0
LWPOLYLINE
100
AcDbPolyline
8
Layer_1
90
32
70
0
10
59.867233
20
24.371902
30
0.0
10
59.867233
20
21.399749
30
0.0
10
59.867233
20
18.436416
30
0.0
10
63.677233
20
18.436416
30
0.0
10
67.487233
20
18.436416
30
0.0
10
67.487233
20
12.377458
30
0.0
10
67.487233
20
6.318499
30
0.0
10
63.606677
20
6.239124
30
0.0
10
59.726122
20
6.159749
30
0.0
10
59.646747
20
3.496277
30
0.0
10
59.708483
20
0.462388
30
0.0
10
60.915459
20
0.276639
30
0.0
10
65.196486
20
0.174169
30
0.0
10
88.010080
20
0.162527
30
0.0
10
116.170566
20
0.233083
30
0.0
10
116.170566
20
5.454194
30
0.0
10
116.170566
20
10.675305
30
0.0
10
109.538344
20
10.675305
30
0.0
10
102.906122
20
10.675305
30
0.0
10
102.826747
20
8.488083
30
0.0
10
102.738552
20
6.300861
30
0.0
10
93.442858
20
6.300861
30
0.0
10
84.138344
20
6.300861
30
0.0
10
84.138344
20
12.368638
30
0.0
10
84.138344
20
18.436416
30
0.0
10
88.098274
20
18.436416
30
0.0
10
92.058205
20
18.436416
30
0.0
10
91.978830
20
21.329194
30
0.0
10
91.899455
20
24.221972
30
0.0
10
75.883344
20
24.292527
30
0.0
10
59.867233
20
24.371902
30
0.0
10
59.867233
20
24.371902
30
0.0
0
LWPOLYLINE
100
AcDbPolyline
8
Layer_1
90
34
70
0
10
20.453135
20
24.363083
30
0.0
10
13.900288
20
15.190861
30
0.0
10
7.347441
20
6.018638
30
0.0
10
3.837302
20
6.018638
30
0.0
10
0.318343
20
6.018638
30
0.0
10
0.318343
20
3.055305
30
0.0
10
0.318343
20
0.091972
30
0.0
10
12.180496
20
0.091972
30
0.0
10
24.042649
20
0.091972
30
0.0
10
23.963274
20
2.984749
30
0.0
10
23.883899
20
5.877527
30
0.0
10
20.708899
20
5.956902
30
0.0
10
17.542718
20
6.036277
30
0.0
10
18.451121
20
7.438569
30
0.0
10
19.368343
20
8.832041
30
0.0
10
24.342510
20
8.832041
30
0.0
10
29.316677
20
8.840861
30
0.0
10
30.189802
20
7.500305
30
0.0
10
31.062927
20
6.159749
30
0.0
10
28.249524
20
6.080374
30
0.0
10
25.436121
20
6.000999
30
0.0
10
25.436121
20
3.046486
30
0.0
10
25.436121
20
0.091972
30
0.0
10
41.805011
20
0.091972
30
0.0
10
58.173899
20
0.091972
30
0.0
10
58.173899
20
2.905374
30
0.0
10
58.173899
20
5.718777
30
0.0
10
54.302163
20
5.798152
30
0.0
10
50.439247
20
5.877527
30
0.0
10
43.692372
20
15.120305
30
0.0
10
36.954316
20
24.363083
30
0.0
10
28.708136
20
24.363083
30
0.0
10
20.453135
20
24.363083
30
0.0
10
20.453135
20
24.363083
30
0.0
0
LWPOLYLINE
100
AcDbPolyline
8
Layer_1
90
44
70
0
10
116.858483
20
24.363083
30
0.0
10
116.937858
20
21.329194
30
0.0
10
117.017233
20
18.295305
30
0.0
10
120.897788
20
18.215930
30
0.0
10
124.778344
20
18.136555
30
0.0
10
124.778344
20
12.086416
30
0.0
10
124.778344
20
6.036277
30
0.0
10
120.897788
20
5.956902
30
0.0
10
117.017233
20
5.877527
30
0.0
10
116.937858
20
3.363986
30
0.0
10
116.999594
20
0.462388
30
0.0
10
118.200700
20
0.275973
30
0.0
10
122.471501
20
0.173549
30
0.0
10
145.301191
20
0.162527
30
0.0
10
173.461677
20
0.233083
30
0.0
10
173.461677
20
5.454194
30
0.0
10
173.461677
20
10.675305
30
0.0
10
167.111677
20
10.675305
30
0.0
10
160.761677
20
10.675305
30
0.0
10
160.682302
20
8.346972
30
0.0
10
160.594108
20
6.018638
30
0.0
10
151.157302
20
6.018638
30
0.0
10
141.711677
20
6.018638
30
0.0
10
141.711677
20
7.703152
30
0.0
10
141.711677
20
9.396486
30
0.0
10
147.144455
20
9.467041
30
0.0
10
152.577233
20
9.546416
30
0.0
10
152.656608
20
12.298083
30
0.0
10
152.735983
20
15.049749
30
0.0
10
147.223830
20
15.049749
30
0.0
10
141.711677
20
15.049749
30
0.0
10
141.711677
20
16.601972
30
0.0
10
141.711677
20
18.154194
30
0.0
10
151.166122
20
18.154194
30
0.0
10
160.620566
20
18.154194
30
0.0
10
160.620566
20
16.037527
30
0.0
10
160.620566
20
13.920861
30
0.0
10
166.547233
20
13.920861
30
0.0
10
172.473899
20
13.920861
30
0.0
10
172.473899
20
19.141972
30
0.0
10
172.473899
20
24.363083
30
0.0
10
144.666191
20
24.363083
30
0.0
10
116.858483
20
24.363083
30
0.0
10
116.858483
20
24.363083
30
0.0
0
LWPOLYLINE
100
AcDbPolyline
8
Layer_1
90
66
70
0
10
174.731677
20
24.363083
30
0.0
10
174.731677
20
21.399749
30
0.0
10
174.731677
20
18.436416
30
0.0
10
178.559316
20
18.436416
30
0.0
10
182.386955
20
18.436416
30
0.0
10
185.773622
20
15.843499
30
0.0
10
189.160288
20
13.259402
30
0.0
10
185.694247
20
9.784541
30
0.0
10
182.237024
20
6.318499
30
0.0
10
178.409386
20
6.239124
30
0.0
10
174.590566
20
6.159749
30
0.0
10
174.511191
20
3.496277
30
0.0
10
174.572927
20
0.462388
30
0.0
10
175.065473
20
0.277750
30
0.0
10
176.624524
20
0.164504
30
0.0
10
184.468344
20
0.091972
30
0.0
10
194.222649
20
0.091972
30
0.0
10
194.143274
20
3.125861
30
0.0
10
194.063899
20
6.159749
30
0.0
10
192.255913
20
6.300861
30
0.0
10
190.447927
20
6.441972
30
0.0
10
192.326469
20
8.091208
30
0.0
10
193.763312
20
9.215093
30
0.0
10
194.566608
20
9.599333
30
0.0
10
197.009594
20
7.879541
30
0.0
10
199.099802
20
6.300861
30
0.0
10
197.362372
20
6.300861
30
0.0
10
195.616122
20
6.300861
30
0.0
10
195.616122
20
3.196416
30
0.0
10
195.616122
20
0.091972
30
0.0
10
212.196677
20
0.162527
30
0.0
10
228.777233
20
0.233083
30
0.0
10
228.777233
20
3.196416
30
0.0
10
228.777233
20
6.159749
30
0.0
10
223.979455
20
6.300861
30
0.0
10
219.181677
20
6.441972
30
0.0
10
216.156608
20
8.805583
30
0.0
10
214.057548
20
10.539832
30
0.0
10
213.263830
20
11.389680
30
0.0
10
217.752927
20
15.023291
30
0.0
10
222.100913
20
18.436416
30
0.0
10
225.505219
20
18.436416
30
0.0
10
228.918344
20
18.436416
30
0.0
10
228.918344
20
21.399749
30
0.0
10
228.918344
20
24.363083
30
0.0
10
218.617233
20
24.363083
30
0.0
10
208.316122
20
24.363083
30
0.0
10
208.316122
20
21.399749
30
0.0
10
208.316122
20
18.436416
30
0.0
10
210.344594
20
18.436416
30
0.0
10
212.381886
20
18.436416
30
0.0
10
210.723830
20
16.954749
30
0.0
10
209.144044
20
15.557460
30
0.0
10
208.609448
20
15.198962
30
0.0
10
208.138438
20
15.060069
30
0.0
10
207.651054
20
15.135411
30
0.0
10
207.067334
20
15.419619
30
0.0
10
205.291052
20
16.593152
30
0.0
10
202.530566
20
18.436416
30
0.0
10
204.717788
20
18.436416
30
0.0
10
206.905011
20
18.436416
30
0.0
10
206.905011
20
21.399749
30
0.0
10
206.905011
20
24.363083
30
0.0
10
190.818344
20
24.363083
30
0.0
10
174.731677
20
24.363083
30
0.0
10
174.731677
20
24.363083
30
0.0
0
LWPOLYLINE
100
AcDbPolyline
8
Layer_1
90
13
70
0
10
24.474802
20
15.349611
30
0.0
10
24.972967
20
14.969447
30
0.0
10
25.647788
20
14.009055
30
0.0
10
26.953066
20
12.015861
30
0.0
10
26.917573
20
11.845729
30
0.0
10
26.518009
20
11.737241
30
0.0
10
24.307232
20
11.663083
30
0.0
10
21.449732
20
11.663083
30
0.0
10
22.631538
20
13.356416
30
0.0
10
23.677275
20
14.794810
30
0.0
10
24.333691
20
15.340791
30
0.0
10
24.474802
20
15.349611
30
0.0
10
24.474802
20
15.349611
30
0.0
  0
ENDSEC
  0
SECTION
  2
OBJECTS
  0
DICTIONARY
  5
C
330
0
100
AcDbDictionary
  3
ACAD_GROUP
350
D
  3
ACAD_MLINESTYLE
350
17
  0
DICTIONARY
  5
D
330
C
100
AcDbDictionary
  0
DICTIONARY
  5
1A
330
C
100
AcDbDictionary
  0
DICTIONARY
  5
17
330
C
100
AcDbDictionary
  3
STANDARD
350
18
  0
DICTIONARY
  5
19
330
C
100
AcDbDictionary
  0
ENDSEC
  0
EOF
