999
Inkscape export via OpenSCAD DXF Export
  0
SECTION
  2
HEADER
  9
$ACADVER
  1
AC1014
  9
$HANDSEED
  5
FFFF
  9
$MEASUREMENT
 70
     1
  0
ENDSEC
  0
SECTION
  2
TABLES
  0
TABLE
  2
VPORT
  5
8
330
0
100
AcDbSymbolTable
 70
     4
  0
VPORT
  5
2E
330
8
100
AcDbSymbolTableRecord
100
AcDbViewportTableRecord
  2
*ACTIVE
 70
     0
 10
0.0
 20
0.0
 11
1.0
 21
1.0
 12
210.0
 22
148.5
 13
0.0
 23
0.0
 14
10.0
 24
10.0
 15
10.0
 25
10.0
 16
0.0
 26
0.0
 36
1.0
 17
0.0
 27
0.0
 37
0.0
 40
341.0
 41
1.24
 42
50.0
 43
0.0
 44
0.0
 50
0.0
 51
0.0
 71
     0
 72
   100
 73
     1
 74
     3
 75
     0
 76
     0
 77
     0
 78
     0
  0
ENDTAB
  0
TABLE
  2
LTYPE
  5
5
330
0
100
AcDbSymbolTable
 70
     1
  0
LTYPE
  5
14
330
5
100
AcDbSymbolTableRecord
100
AcDbLinetypeTableRecord
  2
BYBLOCK
 70
     0
  3

 72
    65
 73
     0
 40
0.0
  0
LTYPE
  5
15
330
5
100
AcDbSymbolTableRecord
100
AcDbLinetypeTableRecord
  2
BYLAYER
 70
     0
  3

 72
    65
 73
     0
 40
0.0
  0
LTYPE
  5
16
330
5
100
AcDbSymbolTableRecord
100
AcDbLinetypeTableRecord
  2
CONTINUOUS
 70
     0
  3
Solid line
 72
    65
 73
     0
 40
0.0
  0
ENDTAB
  0
TABLE
0
TABLE
2
LAYER
5
2
330
0
100
AcDbSymbolTable
70
1
0
LAYER
5
10
330
2
100
AcDbSymbolTableRecord
100
AcDbLayerTableRecord
2
Layer_1
70
0
62
7
6
CONTINUOUS
0
ENDTAB
0
ENDSEC
  0
ENDTAB
  0
TABLE
  2
STYLE
  5
3
330
0
100
AcDbSymbolTable
 70
     1
  0
STYLE
  5
11
330
3
100
AcDbSymbolTableRecord
100
AcDbTextStyleTableRecord
  2
STANDARD
 70
     0
 40
0.0
 41
1.0
 50
0.0
 71
     0
 42
2.5
  3
txt
  4

  0
ENDTAB
  0
TABLE
  2
VIEW
  5
6
330
0
100
AcDbSymbolTable
 70
     0
  0
ENDTAB
  0
TABLE
  2
UCS
  5
7
330
0
100
AcDbSymbolTable
 70
     0
  0
ENDTAB
  0
TABLE
  2
APPID
  5
9
330
0
100
AcDbSymbolTable
 70
     2
  0
APPID
  5
12
330
9
100
AcDbSymbolTableRecord
100
AcDbRegAppTableRecord
  2
ACAD
 70
     0
  0
ENDTAB
  0
TABLE
  2
DIMSTYLE
  5
A
330
0
100
AcDbSymbolTable
 70
     1
  0
DIMSTYLE
105
27
330
A
100
AcDbSymbolTableRecord
100
AcDbDimStyleTableRecord
  2
ISO-25
 70
     0
  3

  4

  5

  6

  7

 40
1.0
 41
2.5
 42
0.625
 43
3.75
 44
1.25
 45
0.0
 46
0.0
 47
0.0
 48
0.0
140
2.5
141
2.5
142
0.0
143
0.03937007874016
144
1.0
145
0.0
146
1.0
147
0.625
 71
     0
 72
     0
 73
     0
 74
     0
 75
     0
 76
     0
 77
     1
 78
     8
170
     0
171
     3
172
     1
173
     0
174
     0
175
     0
176
     0
177
     0
178
     0
270
     2
271
     2
272
     2
273
     2
274
     3
340
11
275
     0
280
     0
281
     0
282
     0
283
     0
284
     8
285
     0
286
     0
287
     3
288
     0
  0
ENDTAB
  0
TABLE
  2
BLOCK_RECORD
  5
1
330
0
100
AcDbSymbolTable
 70
     1
  0
BLOCK_RECORD
  5
1F
330
1
100
AcDbSymbolTableRecord
100
AcDbBlockTableRecord
  2
*MODEL_SPACE
  0
BLOCK_RECORD
  5
1B
330
1
100
AcDbSymbolTableRecord
100
AcDbBlockTableRecord
  2
*PAPER_SPACE
  0
ENDTAB
  0
ENDSEC
  0
SECTION
  2
BLOCKS
  0
BLOCK
  5
20
330
1F
100
AcDbEntity
  8
0
100
AcDbBlockBegin
  2
*MODEL_SPACE
 70
     0
 10
0.0
 20
0.0
 30
0.0
  3
*MODEL_SPACE
  1

  0
ENDBLK
  5
21
330
1F
100
AcDbEntity
  8
0
100
AcDbBlockEnd
  0
BLOCK
  5
1C
330
1B
100
AcDbEntity
 67
     1
  8
0
100
AcDbBlockBegin
  2
*PAPER_SPACE
  1

  0
ENDBLK
  5
1D
330
1B
100
AcDbEntity
 67
     1
  8
0
100
AcDbBlockEnd
  0
ENDSEC
  0
SECTION
  2
ENTITIES
0
DIMENSION
5
83
100
AcDbEntity
62
256
370
-1
6
ByLayer
1
total_width
3
Standard
70
0
71
5
72
1
41
1.0
100
AcDbAlignedDimension
13
0.148746
23
0.000000
33
0.0
14
265.147778
24
0.000000
34
0.0
50
0.000000
100
AcDbRotatedDimension
0
DIMENSION
5
83
100
AcDbEntity
62
256
370
-1
6
ByLayer
1
total_height
3
Standard
70
0
71
5
72
1
41
1.0
100
AcDbAlignedDimension
13
0.000000
23
0.093270
33
0.0
14
0.000000
24
24.368929
34
0.0
50
90.000000
100
AcDbRotatedDimension
0
DIMENSION
8
Layer_1
5
83
100
AcDbEntity
62
256
370
-1
6
ByLayer
1
Layer_1_width
3
Standard
70
0
71
5
72
1
41
1.0
100
AcDbAlignedDimension
13
0.148746
23
0.000000
33
0.0
14
265.147778
24
0.000000
34
0.0
50
0.000000
100
AcDbRotatedDimension
0
DIMENSION
8
Layer_1
5
83
100
AcDbEntity
62
256
370
-1
6
ByLayer
1
Layer_1_height
3
Standard
70
0
71
5
72
1
41
1.0
100
AcDbAlignedDimension
13
0.000000
23
0.093270
33
0.0
14
0.000000
24
24.368929
34
0.0
50
90.000000
100
AcDbRotatedDimension
0
LWPOLYLINE
100
AcDbPolyline
8
Layer_1
90
82
70
0
10
19.473333
20
0.287752
30
0.0
10
15.245530
20
0.786553
30
0.0
10
11.308877
20
1.595572
30
0.0
10
7.890823
20
2.656966
30
0.0
10
5.218814
20
3.912890
30
0.0
10
3.769830
20
4.865765
30
0.0
10
2.638490
20
5.818692
30
0.0
10
1.731286
20
6.863299
30
0.0
10
0.954712
20
8.091211
30
0.0
10
0.294717
20
9.689607
30
0.0
10
0.148746
20
11.805492
30
0.0
10
0.314030
20
13.808004
30
0.0
10
0.862918
20
15.550838
30
0.0
10
1.860397
20
17.175517
30
0.0
10
3.371453
20
18.823561
30
0.0
10
5.064538
20
20.210125
30
0.0
10
7.025670
20
21.394758
30
0.0
10
9.256737
20
22.377949
30
0.0
10
11.759625
20
23.160184
30
0.0
10
14.536221
20
23.741951
30
0.0
10
17.588411
20
24.123737
30
0.0
10
20.918082
20
24.306030
30
0.0
10
24.527120
20
24.289317
30
0.0
10
27.884014
20
24.099364
30
0.0
10
30.611990
20
23.730658
30
0.0
10
32.957731
20
23.136380
30
0.0
10
35.167923
20
22.269707
30
0.0
10
36.660907
20
21.586196
30
0.0
10
36.848054
20
22.834177
30
0.0
10
37.035201
20
24.082158
30
0.0
10
42.788710
20
24.082158
30
0.0
10
48.542222
20
24.082158
30
0.0
10
48.542222
20
18.861048
30
0.0
10
48.542222
20
13.639937
30
0.0
10
43.044703
20
13.639937
30
0.0
10
37.547180
20
13.639937
30
0.0
10
36.353253
20
14.935194
30
0.0
10
34.681113
20
16.394450
30
0.0
10
32.737091
20
17.407795
30
0.0
10
30.454661
20
18.000510
30
0.0
10
27.767297
20
18.197874
30
0.0
10
24.947655
20
17.955130
30
0.0
10
23.727504
20
17.648905
30
0.0
10
22.640529
20
17.222653
30
0.0
10
21.691774
20
16.678777
30
0.0
10
20.886288
20
16.019682
30
0.0
10
20.229116
20
15.247774
30
0.0
10
19.725305
20
14.365457
30
0.0
10
19.353893
20
13.332357
30
0.0
10
19.230224
20
12.370067
30
0.0
10
19.354315
20
11.412704
30
0.0
10
19.726180
20
10.394381
30
0.0
10
20.731151
20
8.869330
30
0.0
10
22.184996
20
7.687404
30
0.0
10
24.108389
20
6.836156
30
0.0
10
26.522008
20
6.303137
30
0.0
10
28.378120
20
6.164907
30
0.0
10
30.306120
20
6.245408
30
0.0
10
32.233974
20
6.523200
30
0.0
10
34.089652
20
6.976844
30
0.0
10
35.801122
20
7.584902
30
0.0
10
37.296351
20
8.325934
30
0.0
10
38.503309
20
9.178500
30
0.0
10
39.349962
20
10.121163
30
0.0
10
39.685464
20
10.521483
30
0.0
10
40.307140
20
10.728535
30
0.0
10
44.174283
20
10.817714
30
0.0
10
47.487917
20
10.742099
30
0.0
10
48.283356
20
10.644538
30
0.0
10
48.542222
20
10.504441
30
0.0
10
47.648317
20
8.514032
30
0.0
10
46.621372
20
6.938107
30
0.0
10
45.305399
20
5.513994
30
0.0
10
43.708712
20
4.245953
30
0.0
10
41.839626
20
3.138245
30
0.0
10
39.706454
20
2.195130
30
0.0
10
37.317512
20
1.420868
30
0.0
10
34.681113
20
0.819721
30
0.0
10
31.805572
20
0.395948
30
0.0
10
25.844528
20
0.151448
30
0.0
10
19.473333
20
0.287752
30
0.0
10
19.473333
20
0.287752
30
0.0
0
LWPOLYLINE
100
AcDbPolyline
8
Layer_1
90
28
70
0
10
50.074342
20
0.467219
30
0.0
10
50.012645
20
3.501108
30
0.0
10
50.094444
20
6.161048
30
0.0
10
53.975000
20
6.239568
30
0.0
10
57.855556
20
6.318087
30
0.0
10
57.855556
20
12.377901
30
0.0
10
57.855556
20
18.437714
30
0.0
10
53.894572
20
18.437714
30
0.0
10
49.933586
20
18.437714
30
0.0
10
50.014017
20
21.330492
30
0.0
10
50.094444
20
24.223269
30
0.0
10
66.533889
20
24.296099
30
0.0
10
82.973333
20
24.368929
30
0.0
10
82.973333
20
21.403322
30
0.0
10
82.973333
20
18.437714
30
0.0
10
79.022222
20
18.437714
30
0.0
10
75.071111
20
18.437714
30
0.0
10
75.071111
20
12.228825
30
0.0
10
75.071111
20
6.019937
30
0.0
10
79.022222
20
6.019937
30
0.0
10
82.973333
20
6.019937
30
0.0
10
82.973333
20
3.056603
30
0.0
10
82.973333
20
0.093270
30
0.0
10
66.595588
20
0.093270
30
0.0
10
53.377643
20
0.166055
30
0.0
10
50.829655
20
0.280326
30
0.0
10
50.074342
20
0.467219
30
0.0
10
50.074342
20
0.467219
30
0.0
0
LWPOLYLINE
100
AcDbPolyline
8
Layer_1
90
47
70
0
10
84.290371
20
0.281418
30
0.0
10
84.118980
20
1.262773
30
0.0
10
84.102262
20
3.115479
30
0.0
10
84.217228
20
4.971673
30
0.0
10
84.440889
20
5.963492
30
0.0
10
85.589474
20
6.218374
30
0.0
10
88.392000
20
6.302159
30
0.0
10
92.004444
20
6.302159
30
0.0
10
92.004444
20
12.369937
30
0.0
10
92.004444
20
18.437714
30
0.0
10
88.194444
20
18.437714
30
0.0
10
84.384444
20
18.437714
30
0.0
10
84.384444
20
21.401048
30
0.0
10
84.384444
20
24.364380
30
0.0
10
99.467230
20
24.364380
30
0.0
10
114.550018
20
24.364380
30
0.0
10
122.879804
20
17.308825
30
0.0
10
131.362574
20
10.253270
30
0.0
10
131.515556
20
14.345492
30
0.0
10
131.515556
20
18.437714
30
0.0
10
127.564444
20
18.437714
30
0.0
10
123.613333
20
18.437714
30
0.0
10
123.613333
20
21.401048
30
0.0
10
123.613333
20
24.364380
30
0.0
10
135.748889
20
24.364380
30
0.0
10
147.884444
20
24.364380
30
0.0
10
147.884444
20
21.409239
30
0.0
10
147.884444
20
18.454097
30
0.0
10
144.145000
20
18.375350
30
0.0
10
140.405556
20
18.296603
30
0.0
10
140.331091
20
9.194937
30
0.0
10
140.256624
20
0.093270
30
0.0
10
129.695835
20
0.093270
30
0.0
10
119.135045
20
0.093270
30
0.0
10
110.579188
20
7.330853
30
0.0
10
101.388333
20
15.141160
30
0.0
10
100.753333
20
15.713883
30
0.0
10
100.753333
20
11.015770
30
0.0
10
100.753333
20
6.317656
30
0.0
10
104.775000
20
6.239352
30
0.0
10
108.796667
20
6.161048
30
0.0
10
108.876770
20
3.127159
30
0.0
10
108.956873
20
0.093270
30
0.0
10
96.717697
20
0.093270
30
0.0
10
88.018509
20
0.148538
30
0.0
10
84.290371
20
0.281418
30
0.0
10
84.290371
20
0.281418
30
0.0
0
LWPOLYLINE
100
AcDbPolyline
8
Layer_1
90
48
70
0
10
148.902417
20
0.539685
30
0.0
10
148.731111
20
2.915492
30
0.0
10
148.763497
20
4.612867
30
0.0
10
148.888454
20
5.117213
30
0.0
10
149.161008
20
5.443405
30
0.0
10
149.637476
20
5.629997
30
0.0
10
150.374175
20
5.715543
30
0.0
10
152.853528
20
5.737714
30
0.0
10
156.633333
20
5.737714
30
0.0
10
156.633333
20
12.220861
30
0.0
10
156.633333
20
18.704008
30
0.0
10
152.752778
20
18.782528
30
0.0
10
148.872222
20
18.861048
30
0.0
10
148.872222
20
21.542159
30
0.0
10
148.872222
20
24.223269
30
0.0
10
167.640000
20
24.297214
30
0.0
10
184.088364
20
24.277462
30
0.0
10
187.401030
20
24.120788
30
0.0
10
189.653333
20
23.818057
30
0.0
10
192.789962
20
23.194187
30
0.0
10
195.645132
20
22.442300
30
0.0
10
198.206584
20
21.568503
30
0.0
10
200.462056
20
20.578907
30
0.0
10
202.399289
20
19.479618
30
0.0
10
204.006022
20
18.276746
30
0.0
10
205.269993
20
16.976399
30
0.0
10
206.178943
20
15.584685
30
0.0
10
206.717646
20
13.998220
30
0.0
10
206.902203
20
12.192418
30
0.0
10
206.731855
20
10.361625
30
0.0
10
206.205839
20
8.700190
30
0.0
10
205.454373
20
7.434441
30
0.0
10
204.420090
20
6.241212
30
0.0
10
203.118377
20
5.129443
30
0.0
10
201.564623
20
4.108077
30
0.0
10
199.774215
20
3.186056
30
0.0
10
197.762540
20
2.372322
30
0.0
10
195.544986
20
1.675818
30
0.0
10
193.136941
20
1.105486
30
0.0
10
189.829530
20
0.582802
30
0.0
10
185.388723
20
0.278332
30
0.0
10
178.367141
20
0.135608
30
0.0
10
167.317406
20
0.098161
30
0.0
10
152.025680
20
0.166987
30
0.0
10
149.541419
20
0.301004
30
0.0
10
149.066060
20
0.405468
30
0.0
10
148.902406
20
0.539685
30
0.0
10
148.902417
20
0.539685
30
0.0
0
LWPOLYLINE
100
AcDbPolyline
8
Layer_1
90
25
70
0
10
180.740564
20
6.031146
30
0.0
10
182.339857
20
6.350066
30
0.0
10
183.760824
20
6.807614
30
0.0
10
185.000157
20
7.386628
30
0.0
10
186.054549
20
8.069949
30
0.0
10
186.920693
20
8.840417
30
0.0
10
187.595281
20
9.680870
30
0.0
10
188.075006
20
10.574148
30
0.0
10
188.356561
20
11.503092
30
0.0
10
188.436639
20
12.450540
30
0.0
10
188.311932
20
13.399332
30
0.0
10
187.979133
20
14.332309
30
0.0
10
187.434934
20
15.232309
30
0.0
10
186.676029
20
16.082172
30
0.0
10
185.699110
20
16.864737
30
0.0
10
184.500870
20
17.562845
30
0.0
10
183.078001
20
18.159335
30
0.0
10
181.002074
20
18.612279
30
0.0
10
177.383717
20
18.719937
30
0.0
10
173.284444
20
18.719937
30
0.0
10
173.284444
20
12.228825
30
0.0
10
173.284444
20
5.737714
30
0.0
10
176.036111
20
5.743305
30
0.0
10
180.740564
20
6.031147
30
0.0
10
180.740564
20
6.031146
30
0.0
0
LWPOLYLINE
100
AcDbPolyline
8
Layer_1
90
44
70
0
10
208.683310
20
0.467019
30
0.0
10
208.621088
20
3.361161
30
0.0
10
208.703333
20
5.878825
30
0.0
10
212.583889
20
5.957345
30
0.0
10
216.464444
20
6.035865
30
0.0
10
216.464444
20
12.087714
30
0.0
10
216.464444
20
18.139564
30
0.0
10
212.583889
20
18.218083
30
0.0
10
208.703333
20
18.296603
30
0.0
10
208.623230
20
21.330492
30
0.0
10
208.543127
20
24.364380
30
0.0
10
236.351564
20
24.364380
30
0.0
10
264.160000
20
24.364380
30
0.0
10
264.160000
20
19.143270
30
0.0
10
264.160000
20
13.922159
30
0.0
10
258.233333
20
13.922159
30
0.0
10
252.306667
20
13.922159
30
0.0
10
252.306667
20
16.038825
30
0.0
10
252.306667
20
18.155492
30
0.0
10
242.852222
20
18.155492
30
0.0
10
233.397778
20
18.155492
30
0.0
10
233.397778
20
16.603270
30
0.0
10
233.397778
20
15.051048
30
0.0
10
238.911330
20
15.051048
30
0.0
10
244.424883
20
15.051048
30
0.0
10
244.344108
20
12.299381
30
0.0
10
244.263333
20
9.547714
30
0.0
10
238.830556
20
9.471065
30
0.0
10
233.397778
20
9.394415
30
0.0
10
233.397778
20
7.707176
30
0.0
10
233.397778
20
6.019937
30
0.0
10
242.840809
20
6.019937
30
0.0
10
252.283841
20
6.019937
30
0.0
10
252.365809
20
8.348270
30
0.0
10
252.447778
20
10.676603
30
0.0
10
258.797778
20
10.676603
30
0.0
10
265.147778
20
10.676603
30
0.0
10
265.147778
20
5.455492
30
0.0
10
265.147778
20
0.234381
30
0.0
10
236.987777
20
0.162461
30
0.0
10
214.156652
20
0.175832
30
0.0
10
209.884864
20
0.279870
30
0.0
10
208.683310
20
0.467019
30
0.0
10
208.683310
20
0.467019
30
0.0
  0
ENDSEC
  0
SECTION
  2
OBJECTS
  0
DICTIONARY
  5
C
330
0
100
AcDbDictionary
  3
ACAD_GROUP
350
D
  3
ACAD_MLINESTYLE
350
17
  0
DICTIONARY
  5
D
330
C
100
AcDbDictionary
  0
DICTIONARY
  5
1A
330
C
100
AcDbDictionary
  0
DICTIONARY
  5
17
330
C
100
AcDbDictionary
  3
STANDARD
350
18
  0
DICTIONARY
  5
19
330
C
100
AcDbDictionary
  0
ENDSEC
  0
EOF
