solid OpenSCAD_Model
  facet normal 1 0 1.22461e-016
    outer loop
      vertex 47 -39 9.75
      vertex 47 -133 9.75
      vertex 47 -133 8.25
    endloop
  endfacet
  facet normal 1 0 1.22461e-016
    outer loop
      vertex 47 -39 8.25
      vertex 47 -39 9.75
      vertex 47 -133 8.25
    endloop
  endfacet
  facet normal 0 -1 0
    outer loop
      vertex 47 -133 8.25
      vertex 47 -133 9.75
      vertex -47 -133 9.75
    endloop
  endfacet
  facet normal 0 -1 0
    outer loop
      vertex -47 -133 8.25
      vertex 47 -133 8.25
      vertex -47 -133 9.75
    endloop
  endfacet
  facet normal -1.22461e-016 0 1
    outer loop
      vertex -47 -133 9.75
      vertex 47 -133 9.75
      vertex 47 -39 9.75
    endloop
  endfacet
  facet normal -1.22461e-016 0 1
    outer loop
      vertex -47 -39 9.75
      vertex -47 -133 9.75
      vertex 47 -39 9.75
    endloop
  endfacet
  facet normal 0 1 0
    outer loop
      vertex 47 -39 9.75
      vertex 47 -39 8.25
      vertex -47 -39 9.75
    endloop
  endfacet
  facet normal 0 1 0
    outer loop
      vertex -47 -39 9.75
      vertex 47 -39 8.25
      vertex -47 -39 8.25
    endloop
  endfacet
  facet normal 1.22461e-016 0 -1
    outer loop
      vertex -45 -41 8.25
      vertex -47 -133 8.25
      vertex -47 -39 8.25
    endloop
  endfacet
  facet normal 1.22461e-016 0 -1
    outer loop
      vertex 47 -133 8.25
      vertex -47 -133 8.25
      vertex 45 -131 8.25
    endloop
  endfacet
  facet normal 1.22461e-016 0 -1
    outer loop
      vertex 47 -133 8.25
      vertex 45 -131 8.25
      vertex 47 -39 8.25
    endloop
  endfacet
  facet normal 1.22461e-016 0 -1
    outer loop
      vertex 45 -131 8.25
      vertex 45 -97.25 8.25
      vertex 47 -39 8.25
    endloop
  endfacet
  facet normal 1.22461e-016 0 -1
    outer loop
      vertex 45 -41 8.25
      vertex 47 -39 8.25
      vertex 45 -74.75 8.25
    endloop
  endfacet
  facet normal 1.22461e-016 0 -1
    outer loop
      vertex 45 -74.75 8.25
      vertex 43.5 -97.25 8.25
      vertex 43.5 -74.75 8.25
    endloop
  endfacet
  facet normal 1.22461e-016 0 -1
    outer loop
      vertex -1.5 -130.5 8.25
      vertex -10.875 -131 8.25
      vertex -1.5 -129 8.25
    endloop
  endfacet
  facet normal 1.22461e-016 0 -1
    outer loop
      vertex 10.875 -131 8.25
      vertex -47 -133 8.25
      vertex 1.5 -130.5 8.25
    endloop
  endfacet
  facet normal 1.22461e-016 0 -1
    outer loop
      vertex 45 -131 8.25
      vertex -47 -133 8.25
      vertex 10.875 -131 8.25
    endloop
  endfacet
  facet normal 1.22461e-016 0 -1
    outer loop
      vertex 45 -97.25 8.25
      vertex 43.5 -97.25 8.25
      vertex 45 -74.75 8.25
    endloop
  endfacet
  facet normal 1.22461e-016 0 -1
    outer loop
      vertex 45 -97.25 8.25
      vertex 45 -74.75 8.25
      vertex 47 -39 8.25
    endloop
  endfacet
  facet normal 1.22461e-016 0 -1
    outer loop
      vertex 47 -39 8.25
      vertex 45 -41 8.25
      vertex -47 -39 8.25
    endloop
  endfacet
  facet normal 1.22461e-016 0 -1
    outer loop
      vertex 45 -41 8.25
      vertex 10.875 -41 8.25
      vertex -47 -39 8.25
    endloop
  endfacet
  facet normal 1.22461e-016 0 -1
    outer loop
      vertex -43.5 -97.25 8.25
      vertex 10.875 -41 8.25
      vertex 10.875 -42.5 8.25
    endloop
  endfacet
  facet normal 1.22461e-016 0 -1
    outer loop
      vertex -43.5 -129.5 8.25
      vertex 43.5 -42.5 8.25
      vertex 43.5 -74.75 8.25
    endloop
  endfacet
  facet normal 1.22461e-016 0 -1
    outer loop
      vertex 10.875 -41 8.25
      vertex 1.5 -43 8.25
      vertex 1.5 -41.5 8.25
    endloop
  endfacet
  facet normal 1.22461e-016 0 -1
    outer loop
      vertex 10.875 -41 8.25
      vertex 1.5 -41.5 8.25
      vertex -47 -39 8.25
    endloop
  endfacet
  facet normal 1.22461e-016 0 -1
    outer loop
      vertex 1.5 -41.5 8.25
      vertex -1.5 -41.5 8.25
      vertex -47 -39 8.25
    endloop
  endfacet
  facet normal 1.22461e-016 0 -1
    outer loop
      vertex 1.5 -129 8.25
      vertex 10.875 -129.5 8.25
      vertex 1.5 -130.5 8.25
    endloop
  endfacet
  facet normal 1.22461e-016 0 -1
    outer loop
      vertex -45 -41 8.25
      vertex -47 -39 8.25
      vertex -10.875 -41 8.25
    endloop
  endfacet
  facet normal 1.22461e-016 0 -1
    outer loop
      vertex -1.5 -43 8.25
      vertex -10.875 -41 8.25
      vertex -1.5 -41.5 8.25
    endloop
  endfacet
  facet normal 1.22461e-016 0 -1
    outer loop
      vertex -43.5 -129.5 8.25
      vertex 43.5 -74.75 8.25
      vertex 43.5 -97.25 8.25
    endloop
  endfacet
  facet normal 1.22461e-016 0 -1
    outer loop
      vertex 10.875 -131 8.25
      vertex 1.5 -130.5 8.25
      vertex 10.875 -129.5 8.25
    endloop
  endfacet
  facet normal 1.22461e-016 0 -1
    outer loop
      vertex -43.5 -97.25 8.25
      vertex 1.5 -43 8.25
      vertex 10.875 -41 8.25
    endloop
  endfacet
  facet normal 1.22461e-016 0 -1
    outer loop
      vertex 1.5 -130.5 8.25
      vertex -47 -133 8.25
      vertex -1.5 -130.5 8.25
    endloop
  endfacet
  facet normal 1.22461e-016 0 -1
    outer loop
      vertex -10.875 -129.5 8.25
      vertex -1.5 -129 8.25
      vertex -10.875 -131 8.25
    endloop
  endfacet
  facet normal 1.22461e-016 0 -1
    outer loop
      vertex -10.875 -41 8.25
      vertex -1.5 -43 8.25
      vertex -10.875 -42.5 8.25
    endloop
  endfacet
  facet normal 1.22461e-016 0 -1
    outer loop
      vertex -1.5 -41.5 8.25
      vertex -10.875 -41 8.25
      vertex -47 -39 8.25
    endloop
  endfacet
  facet normal 1.22461e-016 0 -1
    outer loop
      vertex -45 -74.75 8.25
      vertex -47 -133 8.25
      vertex -45 -41 8.25
    endloop
  endfacet
  facet normal 1.22461e-016 0 -1
    outer loop
      vertex -43.5 -42.5 8.25
      vertex -10.875 -42.5 8.25
      vertex -43.5 -74.75 8.25
    endloop
  endfacet
  facet normal 1.22461e-016 0 -1
    outer loop
      vertex -45 -97.25 8.25
      vertex -47 -133 8.25
      vertex -45 -74.75 8.25
    endloop
  endfacet
  facet normal 1.22461e-016 0 -1
    outer loop
      vertex -43.5 -97.25 8.25
      vertex -1.5 -43 8.25
      vertex 1.5 -43 8.25
    endloop
  endfacet
  facet normal 1.22461e-016 0 -1
    outer loop
      vertex -10.875 -131 8.25
      vertex -47 -133 8.25
      vertex -45 -131 8.25
    endloop
  endfacet
  facet normal 1.22461e-016 0 -1
    outer loop
      vertex -1.5 -130.5 8.25
      vertex -47 -133 8.25
      vertex -10.875 -131 8.25
    endloop
  endfacet
  facet normal 1.22461e-016 0 -1
    outer loop
      vertex -43.5 -129.5 8.25
      vertex 43.5 -97.25 8.25
      vertex -10.875 -129.5 8.25
    endloop
  endfacet
  facet normal 1.22461e-016 0 -1
    outer loop
      vertex -43.5 -97.25 8.25
      vertex -10.875 -42.5 8.25
      vertex -1.5 -43 8.25
    endloop
  endfacet
  facet normal 1.22461e-016 0 -1
    outer loop
      vertex 43.5 -42.5 8.25
      vertex -43.5 -129.5 8.25
      vertex 10.875 -42.5 8.25
    endloop
  endfacet
  facet normal 1.22461e-016 0 -1
    outer loop
      vertex -45 -97.25 8.25
      vertex -43.5 -74.75 8.25
      vertex -43.5 -97.25 8.25
    endloop
  endfacet
  facet normal 1.22461e-016 0 -1
    outer loop
      vertex -10.875 -42.5 8.25
      vertex -43.5 -97.25 8.25
      vertex -43.5 -74.75 8.25
    endloop
  endfacet
  facet normal 1.22461e-016 0 -1
    outer loop
      vertex -45 -131 8.25
      vertex -47 -133 8.25
      vertex -45 -97.25 8.25
    endloop
  endfacet
  facet normal 1.22461e-016 0 -1
    outer loop
      vertex -43.5 -74.75 8.25
      vertex -45 -97.25 8.25
      vertex -45 -74.75 8.25
    endloop
  endfacet
  facet normal 1.22461e-016 0 -1
    outer loop
      vertex -43.5 -97.25 8.25
      vertex 10.875 -42.5 8.25
      vertex -43.5 -129.5 8.25
    endloop
  endfacet
  facet normal 1.22461e-016 0 -1
    outer loop
      vertex 43.5 -129.5 8.25
      vertex 10.875 -129.5 8.25
      vertex 1.5 -129 8.25
    endloop
  endfacet
  facet normal 1.22461e-016 0 -1
    outer loop
      vertex -1.5 -129 8.25
      vertex -10.875 -129.5 8.25
      vertex 43.5 -97.25 8.25
    endloop
  endfacet
  facet normal 1.22461e-016 0 -1
    outer loop
      vertex 1.5 -129 8.25
      vertex -1.5 -129 8.25
      vertex 43.5 -97.25 8.25
    endloop
  endfacet
  facet normal 1.22461e-016 0 -1
    outer loop
      vertex 43.5 -129.5 8.25
      vertex 1.5 -129 8.25
      vertex 43.5 -97.25 8.25
    endloop
  endfacet
  facet normal -1 0 -1.22461e-016
    outer loop
      vertex -47 -133 9.75
      vertex -47 -39 9.75
      vertex -47 -133 8.25
    endloop
  endfacet
  facet normal -1 0 -1.22461e-016
    outer loop
      vertex -47 -133 8.25
      vertex -47 -39 9.75
      vertex -47 -39 8.25
    endloop
  endfacet
  facet normal 1 0 1.22461e-016
    outer loop
      vertex 45 -97.25 8.25
      vertex 45 -131 8.25
      vertex 45 -131 -9.75
    endloop
  endfacet
  facet normal 1 0 1.22461e-016
    outer loop
      vertex 45 -119.75 -9.75
      vertex 45 -97.25 8.25
      vertex 45 -131 -9.75
    endloop
  endfacet
  facet normal 0 -1 0
    outer loop
      vertex 45 -131 -9.75
      vertex 45 -131 8.25
      vertex 10.875 -131 8.25
    endloop
  endfacet
  facet normal 0 -1 0
    outer loop
      vertex 32.625 -131 -9.75
      vertex 45 -131 -9.75
      vertex 10.875 -131 8.25
    endloop
  endfacet
  facet normal -0.637568 -1.71062e-016 -0.770394
    outer loop
      vertex 10.875 -129.5 8.25
      vertex 32.625 -129.5 -9.75
      vertex 10.875 -131 8.25
    endloop
  endfacet
  facet normal -0.637568 -1.71062e-016 -0.770394
    outer loop
      vertex 10.875 -131 8.25
      vertex 32.625 -129.5 -9.75
      vertex 32.625 -131 -9.75
    endloop
  endfacet
  facet normal 0 1 0
    outer loop
      vertex 32.625 -129.5 -9.75
      vertex 10.875 -129.5 8.25
      vertex 43.5 -129.5 -9.75
    endloop
  endfacet
  facet normal 0 1 0
    outer loop
      vertex 43.5 -129.5 -9.75
      vertex 10.875 -129.5 8.25
      vertex 43.5 -129.5 8.25
    endloop
  endfacet
  facet normal -1 0 -1.22461e-016
    outer loop
      vertex 43.5 -119.75 -9.75
      vertex 43.5 -129.5 -9.75
      vertex 43.5 -97.25 8.25
    endloop
  endfacet
  facet normal -1 0 -1.22461e-016
    outer loop
      vertex 43.5 -97.25 8.25
      vertex 43.5 -129.5 -9.75
      vertex 43.5 -129.5 8.25
    endloop
  endfacet
  facet normal -2.16472e-016 0.624695 -0.780869
    outer loop
      vertex 43.5 -97.25 8.25
      vertex 45 -97.25 8.25
      vertex 43.5 -119.75 -9.75
    endloop
  endfacet
  facet normal -2.16472e-016 0.624695 -0.780869
    outer loop
      vertex 43.5 -119.75 -9.75
      vertex 45 -97.25 8.25
      vertex 45 -119.75 -9.75
    endloop
  endfacet
  facet normal 1 0 1.22461e-016
    outer loop
      vertex 45 -41 8.25
      vertex 45 -74.75 8.25
      vertex 45 -52.25 -9.75
    endloop
  endfacet
  facet normal 1 0 1.22461e-016
    outer loop
      vertex 45 -41 -9.75
      vertex 45 -41 8.25
      vertex 45 -52.25 -9.75
    endloop
  endfacet
  facet normal 6.09481e-017 -0.624695 -0.780869
    outer loop
      vertex 43.5 -52.25 -9.75
      vertex 45 -52.25 -9.75
      vertex 43.5 -74.75 8.25
    endloop
  endfacet
  facet normal 6.09481e-017 -0.624695 -0.780869
    outer loop
      vertex 43.5 -74.75 8.25
      vertex 45 -52.25 -9.75
      vertex 45 -74.75 8.25
    endloop
  endfacet
  facet normal -1 0 -1.22461e-016
    outer loop
      vertex 43.5 -42.5 -9.75
      vertex 43.5 -52.25 -9.75
      vertex 43.5 -42.5 8.25
    endloop
  endfacet
  facet normal -1 0 -1.22461e-016
    outer loop
      vertex 43.5 -42.5 8.25
      vertex 43.5 -52.25 -9.75
      vertex 43.5 -74.75 8.25
    endloop
  endfacet
  facet normal 0 -1 0
    outer loop
      vertex 10.875 -42.5 8.25
      vertex 32.625 -42.5 -9.75
      vertex 43.5 -42.5 -9.75
    endloop
  endfacet
  facet normal 0 -1 0
    outer loop
      vertex 43.5 -42.5 8.25
      vertex 10.875 -42.5 8.25
      vertex 43.5 -42.5 -9.75
    endloop
  endfacet
  facet normal -0.637568 -1.71062e-016 -0.770394
    outer loop
      vertex 10.875 -41 8.25
      vertex 32.625 -41 -9.75
      vertex 10.875 -42.5 8.25
    endloop
  endfacet
  facet normal -0.637568 -1.71062e-016 -0.770394
    outer loop
      vertex 10.875 -42.5 8.25
      vertex 32.625 -41 -9.75
      vertex 32.625 -42.5 -9.75
    endloop
  endfacet
  facet normal 0 1 0
    outer loop
      vertex 45 -41 8.25
      vertex 45 -41 -9.75
      vertex 10.875 -41 8.25
    endloop
  endfacet
  facet normal 0 1 0
    outer loop
      vertex 10.875 -41 8.25
      vertex 45 -41 -9.75
      vertex 32.625 -41 -9.75
    endloop
  endfacet
  facet normal 1.22461e-016 -1 1.49966e-032
    outer loop
      vertex 1.5 -43 4.5
      vertex 1.5 -43 8.25
      vertex -1.5 -43 8.25
    endloop
  endfacet
  facet normal 1.22461e-016 -1 1.49966e-032
    outer loop
      vertex -1.5 -43 4.5
      vertex 1.5 -43 4.5
      vertex -1.5 -43 8.25
    endloop
  endfacet
  facet normal 1 1.22461e-016 1.22461e-016
    outer loop
      vertex 1.5 -41.5 8.25
      vertex 1.5 -43 8.25
      vertex 1.5 -43 4.5
    endloop
  endfacet
  facet normal 1 1.22461e-016 1.22461e-016
    outer loop
      vertex 1.5 -41.5 6
      vertex 1.5 -41.5 8.25
      vertex 1.5 -43 4.5
    endloop
  endfacet
  facet normal 1 1.22461e-016 1.22461e-016
    outer loop
      vertex 1.5 -41.5 4.5
      vertex 1.5 -41.5 6
      vertex 1.5 -43 4.5
    endloop
  endfacet
  facet normal -1 -1.22461e-016 -1.22461e-016
    outer loop
      vertex -1.5 -43 8.25
      vertex -1.5 -41.5 8.25
      vertex -1.5 -43 4.5
    endloop
  endfacet
  facet normal -1 -1.22461e-016 -1.22461e-016
    outer loop
      vertex -1.5 -43 4.5
      vertex -1.5 -41.5 8.25
      vertex -1.5 -41.5 4.5
    endloop
  endfacet
  facet normal -1.22461e-016 1 -1.49966e-032
    outer loop
      vertex 1.5 -41.5 8.25
      vertex 0.75 -41.5 7.29904
      vertex -1.5 -41.5 8.25
    endloop
  endfacet
  facet normal -1.22461e-016 1 -1.49966e-032
    outer loop
      vertex 1.5 -41.5 8.25
      vertex 1.5 -41.5 6
      vertex 0.75 -41.5 7.29904
    endloop
  endfacet
  facet normal -1.22461e-016 1 -1.49966e-032
    outer loop
      vertex 0.75 -41.5 4.70096
      vertex 1.5 -41.5 6
      vertex 1.5 -41.5 4.5
    endloop
  endfacet
  facet normal -1.22461e-016 1 -1.49966e-032
    outer loop
      vertex -1.5 -41.5 8.25
      vertex -0.606763 -41.5 7.29904
      vertex -1.21352 -41.5 6
    endloop
  endfacet
  facet normal -1.22461e-016 1 -1.49966e-032
    outer loop
      vertex -1.21352 -41.5 6
      vertex -1.5 -41.5 4.5
      vertex -1.5 -41.5 8.25
    endloop
  endfacet
  facet normal -1.22461e-016 1 -1.49966e-032
    outer loop
      vertex -0.606763 -41.5 4.70096
      vertex 0.75 -41.5 4.70096
      vertex 1.5 -41.5 4.5
    endloop
  endfacet
  facet normal -1.22461e-016 1 -1.49966e-032
    outer loop
      vertex -0.606763 -41.5 4.70096
      vertex 1.5 -41.5 4.5
      vertex -1.5 -41.5 4.5
    endloop
  endfacet
  facet normal -1.22461e-016 1 -1.49966e-032
    outer loop
      vertex -0.606763 -41.5 4.70096
      vertex -1.5 -41.5 4.5
      vertex -1.21352 -41.5 6
    endloop
  endfacet
  facet normal -1.22461e-016 1 -1.49966e-032
    outer loop
      vertex -0.606763 -41.5 7.29904
      vertex -1.5 -41.5 8.25
      vertex 0.75 -41.5 7.29904
    endloop
  endfacet
  facet normal 1 0 1.22461e-016
    outer loop
      vertex 1.5 -129 8.25
      vertex 1.5 -130.5 8.25
      vertex 1.5 -130.5 4.5
    endloop
  endfacet
  facet normal 1 0 1.22461e-016
    outer loop
      vertex 1.5 -129 4.5
      vertex 1.5 -129 8.25
      vertex 1.5 -130.5 4.5
    endloop
  endfacet
  facet normal 0 -1 0
    outer loop
      vertex 0.606763 -130.5 7.29904
      vertex 1.5 -130.5 8.25
      vertex -1.5 -130.5 8.25
    endloop
  endfacet
  facet normal 0 -1 0
    outer loop
      vertex -1.5 -130.5 6
      vertex -0.75 -130.5 7.29904
      vertex -1.5 -130.5 8.25
    endloop
  endfacet
  facet normal 0 -1 0
    outer loop
      vertex 1.21353 -130.5 6
      vertex 1.5 -130.5 8.25
      vertex 0.606763 -130.5 7.29904
    endloop
  endfacet
  facet normal 0 -1 0
    outer loop
      vertex 1.5 -130.5 4.5
      vertex 1.5 -130.5 8.25
      vertex 1.21353 -130.5 6
    endloop
  endfacet
  facet normal 0 -1 0
    outer loop
      vertex -1.5 -130.5 4.5
      vertex -0.75 -130.5 4.70096
      vertex -1.5 -130.5 6
    endloop
  endfacet
  facet normal 0 -1 0
    outer loop
      vertex -0.75 -130.5 4.70096
      vertex 1.5 -130.5 4.5
      vertex 0.606763 -130.5 4.70096
    endloop
  endfacet
  facet normal 0 -1 0
    outer loop
      vertex -1.5 -130.5 4.5
      vertex 1.5 -130.5 4.5
      vertex -0.75 -130.5 4.70096
    endloop
  endfacet
  facet normal 0 -1 0
    outer loop
      vertex -0.75 -130.5 7.29904
      vertex 0.606763 -130.5 7.29904
      vertex -1.5 -130.5 8.25
    endloop
  endfacet
  facet normal 0 -1 0
    outer loop
      vertex 1.21353 -130.5 6
      vertex 0.606763 -130.5 4.70096
      vertex 1.5 -130.5 4.5
    endloop
  endfacet
  facet normal -1 0 -1.22461e-016
    outer loop
      vertex -1.5 -130.5 8.25
      vertex -1.5 -129 8.25
      vertex -1.5 -130.5 6
    endloop
  endfacet
  facet normal -1 0 -1.22461e-016
    outer loop
      vertex -1.5 -130.5 6
      vertex -1.5 -129 8.25
      vertex -1.5 -129 4.5
    endloop
  endfacet
  facet normal -1 0 -1.22461e-016
    outer loop
      vertex -1.5 -130.5 6
      vertex -1.5 -129 4.5
      vertex -1.5 -130.5 4.5
    endloop
  endfacet
  facet normal 0 1 0
    outer loop
      vertex 1.5 -129 8.25
      vertex 1.5 -129 4.5
      vertex -1.5 -129 8.25
    endloop
  endfacet
  facet normal 0 1 0
    outer loop
      vertex -1.5 -129 8.25
      vertex 1.5 -129 4.5
      vertex -1.5 -129 4.5
    endloop
  endfacet
  facet normal 0.637568 -1.71062e-016 -0.770394
    outer loop
      vertex -32.625 -42.5 -9.75
      vertex -32.625 -41 -9.75
      vertex -10.875 -42.5 8.25
    endloop
  endfacet
  facet normal 0.637568 -1.71062e-016 -0.770394
    outer loop
      vertex -10.875 -42.5 8.25
      vertex -32.625 -41 -9.75
      vertex -10.875 -41 8.25
    endloop
  endfacet
  facet normal 0 -1 0
    outer loop
      vertex -43.5 -42.5 8.25
      vertex -43.5 -42.5 -9.75
      vertex -32.625 -42.5 -9.75
    endloop
  endfacet
  facet normal 0 -1 0
    outer loop
      vertex -10.875 -42.5 8.25
      vertex -43.5 -42.5 8.25
      vertex -32.625 -42.5 -9.75
    endloop
  endfacet
  facet normal 1 0 1.22461e-016
    outer loop
      vertex -43.5 -52.25 -9.75
      vertex -43.5 -42.5 -9.75
      vertex -43.5 -42.5 8.25
    endloop
  endfacet
  facet normal 1 0 1.22461e-016
    outer loop
      vertex -43.5 -74.75 8.25
      vertex -43.5 -52.25 -9.75
      vertex -43.5 -42.5 8.25
    endloop
  endfacet
  facet normal 6.09481e-017 -0.624695 -0.780869
    outer loop
      vertex -45 -52.25 -9.75
      vertex -43.5 -52.25 -9.75
      vertex -45 -74.75 8.25
    endloop
  endfacet
  facet normal 6.09481e-017 -0.624695 -0.780869
    outer loop
      vertex -45 -74.75 8.25
      vertex -43.5 -52.25 -9.75
      vertex -43.5 -74.75 8.25
    endloop
  endfacet
  facet normal -1 0 -1.22461e-016
    outer loop
      vertex -45 -74.75 8.25
      vertex -45 -41 8.25
      vertex -45 -52.25 -9.75
    endloop
  endfacet
  facet normal -1 0 -1.22461e-016
    outer loop
      vertex -45 -52.25 -9.75
      vertex -45 -41 8.25
      vertex -45 -41 -9.75
    endloop
  endfacet
  facet normal 0 1 0
    outer loop
      vertex -10.875 -41 8.25
      vertex -32.625 -41 -9.75
      vertex -45 -41 8.25
    endloop
  endfacet
  facet normal 0 1 0
    outer loop
      vertex -45 -41 8.25
      vertex -32.625 -41 -9.75
      vertex -45 -41 -9.75
    endloop
  endfacet
  facet normal 0.637568 -1.71062e-016 -0.770394
    outer loop
      vertex -32.625 -131 -9.75
      vertex -32.625 -129.5 -9.75
      vertex -10.875 -131 8.25
    endloop
  endfacet
  facet normal 0.637568 -1.71062e-016 -0.770394
    outer loop
      vertex -10.875 -131 8.25
      vertex -32.625 -129.5 -9.75
      vertex -10.875 -129.5 8.25
    endloop
  endfacet
  facet normal 0 -1 0
    outer loop
      vertex -32.625 -131 -9.75
      vertex -10.875 -131 8.25
      vertex -45 -131 8.25
    endloop
  endfacet
  facet normal 0 -1 0
    outer loop
      vertex -45 -131 -9.75
      vertex -32.625 -131 -9.75
      vertex -45 -131 8.25
    endloop
  endfacet
  facet normal -1 0 -1.22461e-016
    outer loop
      vertex -45 -131 8.25
      vertex -45 -97.25 8.25
      vertex -45 -131 -9.75
    endloop
  endfacet
  facet normal -1 0 -1.22461e-016
    outer loop
      vertex -45 -131 -9.75
      vertex -45 -97.25 8.25
      vertex -45 -119.75 -9.75
    endloop
  endfacet
  facet normal -2.16472e-016 0.624695 -0.780869
    outer loop
      vertex -45 -97.25 8.25
      vertex -43.5 -97.25 8.25
      vertex -45 -119.75 -9.75
    endloop
  endfacet
  facet normal -2.16472e-016 0.624695 -0.780869
    outer loop
      vertex -45 -119.75 -9.75
      vertex -43.5 -97.25 8.25
      vertex -43.5 -119.75 -9.75
    endloop
  endfacet
  facet normal 1 0 1.22461e-016
    outer loop
      vertex -43.5 -129.5 -9.75
      vertex -43.5 -119.75 -9.75
      vertex -43.5 -97.25 8.25
    endloop
  endfacet
  facet normal 1 0 1.22461e-016
    outer loop
      vertex -43.5 -129.5 8.25
      vertex -43.5 -129.5 -9.75
      vertex -43.5 -97.25 8.25
    endloop
  endfacet
  facet normal 0 1 0
    outer loop
      vertex -43.5 -129.5 -9.75
      vertex -43.5 -129.5 8.25
      vertex -32.625 -129.5 -9.75
    endloop
  endfacet
  facet normal 0 1 0
    outer loop
      vertex -32.625 -129.5 -9.75
      vertex -43.5 -129.5 8.25
      vertex -10.875 -129.5 8.25
    endloop
  endfacet
  facet normal 1.22461e-016 0 -1
    outer loop
      vertex 43.5 -119.75 -9.75
      vertex 45 -119.75 -9.75
      vertex 43.5 -129.5 -9.75
    endloop
  endfacet
  facet normal 1.22461e-016 0 -1
    outer loop
      vertex 45 -131 -9.75
      vertex 32.625 -131 -9.75
      vertex 43.5 -129.5 -9.75
    endloop
  endfacet
  facet normal 1.22461e-016 0 -1
    outer loop
      vertex 45 -131 -9.75
      vertex 43.5 -129.5 -9.75
      vertex 45 -119.75 -9.75
    endloop
  endfacet
  facet normal 1.22461e-016 0 -1
    outer loop
      vertex 43.5 -129.5 -9.75
      vertex 32.625 -131 -9.75
      vertex 32.625 -129.5 -9.75
    endloop
  endfacet
  facet normal 1.22461e-016 0 -1
    outer loop
      vertex 45 -52.25 -9.75
      vertex 43.5 -52.25 -9.75
      vertex 45 -41 -9.75
    endloop
  endfacet
  facet normal 1.22461e-016 0 -1
    outer loop
      vertex 45 -41 -9.75
      vertex 43.5 -52.25 -9.75
      vertex 43.5 -42.5 -9.75
    endloop
  endfacet
  facet normal 1.22461e-016 0 -1
    outer loop
      vertex 45 -41 -9.75
      vertex 43.5 -42.5 -9.75
      vertex 32.625 -42.5 -9.75
    endloop
  endfacet
  facet normal 1.22461e-016 0 -1
    outer loop
      vertex 45 -41 -9.75
      vertex 32.625 -42.5 -9.75
      vertex 32.625 -41 -9.75
    endloop
  endfacet
  facet normal 1.22461e-016 0 -1
    outer loop
      vertex 1.5 -43 4.5
      vertex -1.5 -43 4.5
      vertex 1.5 -41.5 4.5
    endloop
  endfacet
  facet normal 1.22461e-016 0 -1
    outer loop
      vertex 1.5 -41.5 4.5
      vertex -1.5 -43 4.5
      vertex -1.5 -41.5 4.5
    endloop
  endfacet
  facet normal 0.733 0.532556 -0.423197
    outer loop
      vertex 0.463525 -40.0734 6
      vertex 1.5 -41.5 6
      vertex 0.231763 -40.7867 4.70096
    endloop
  endfacet
  facet normal 0.733 0.532555 -0.423198
    outer loop
      vertex 0.231763 -40.7867 4.70096
      vertex 1.5 -41.5 6
      vertex 0.75 -41.5 4.70096
    endloop
  endfacet
  facet normal 0.733 0.532556 0.423198
    outer loop
      vertex 0.75 -41.5 7.29904
      vertex 1.5 -41.5 6
      vertex 0.463525 -40.0734 6
    endloop
  endfacet
  facet normal 1.22461e-016 0 -1
    outer loop
      vertex 0.75 -41.5 4.70096
      vertex -0.606763 -41.5 4.70096
      vertex 0.231763 -40.7867 4.70096
    endloop
  endfacet
  facet normal 1.22461e-016 0 -1
    outer loop
      vertex 0.231763 -40.7867 4.70096
      vertex -0.606763 -41.5 4.70096
      vertex -0.606763 -41.0592 4.70096
    endloop
  endfacet
  facet normal -0.906038 -1.10954e-016 -0.423197
    outer loop
      vertex -0.606763 -41.5 4.70096
      vertex -1.21352 -41.5 6
      vertex -0.606763 -41.0592 4.70096
    endloop
  endfacet
  facet normal -0.906038 -1.10954e-016 -0.423197
    outer loop
      vertex -0.606763 -41.0592 4.70096
      vertex -1.21352 -41.5 6
      vertex -1.21352 -40.6183 6
    endloop
  endfacet
  facet normal -0.906038 -1.10954e-016 0.423197
    outer loop
      vertex -0.606763 -41.5 7.29904
      vertex -0.606763 -41.0592 7.29904
      vertex -1.21352 -41.5 6
    endloop
  endfacet
  facet normal -0.906038 -1.10954e-016 0.423197
    outer loop
      vertex -1.21352 -41.5 6
      vertex -0.606763 -41.0592 7.29904
      vertex -1.21352 -40.6183 6
    endloop
  endfacet
  facet normal -1.22461e-016 0 1
    outer loop
      vertex -0.606763 -41.5 7.29904
      vertex 0.75 -41.5 7.29904
      vertex 0.231763 -40.7867 7.29904
    endloop
  endfacet
  facet normal -1.22461e-016 0 1
    outer loop
      vertex -0.606763 -41.0592 7.29904
      vertex -0.606763 -41.5 7.29904
      vertex 0.231763 -40.7867 7.29904
    endloop
  endfacet
  facet normal 0.733 0.532555 0.423197
    outer loop
      vertex 0.231763 -40.7867 7.29904
      vertex 0.75 -41.5 7.29904
      vertex 0.463525 -40.0734 6
    endloop
  endfacet
  facet normal 1.22461e-016 0 -1
    outer loop
      vertex 1.5 -130.5 4.5
      vertex -1.5 -130.5 4.5
      vertex 1.5 -129 4.5
    endloop
  endfacet
  facet normal 1.22461e-016 0 -1
    outer loop
      vertex 1.5 -129 4.5
      vertex -1.5 -130.5 4.5
      vertex -1.5 -129 4.5
    endloop
  endfacet
  facet normal -0.733 -0.532556 -0.423197
    outer loop
      vertex -1.5 -130.5 6
      vertex -0.231763 -131.213 4.70096
      vertex -0.463525 -131.927 6
    endloop
  endfacet
  facet normal -0.733 -0.532555 -0.423198
    outer loop
      vertex -0.75 -130.5 4.70096
      vertex -0.231763 -131.213 4.70096
      vertex -1.5 -130.5 6
    endloop
  endfacet
  facet normal -0.733 -0.532556 0.423198
    outer loop
      vertex -1.5 -130.5 6
      vertex -0.463525 -131.927 6
      vertex -0.75 -130.5 7.29904
    endloop
  endfacet
  facet normal 1.22461e-016 0 -1
    outer loop
      vertex 0.606763 -130.941 4.70096
      vertex -0.231763 -131.213 4.70096
      vertex 0.606763 -130.5 4.70096
    endloop
  endfacet
  facet normal 1.22461e-016 0 -1
    outer loop
      vertex 0.606763 -130.5 4.70096
      vertex -0.231763 -131.213 4.70096
      vertex -0.75 -130.5 4.70096
    endloop
  endfacet
  facet normal 0.906038 0 -0.423197
    outer loop
      vertex 1.21353 -130.5 6
      vertex 1.21353 -131.382 6
      vertex 0.606763 -130.941 4.70096
    endloop
  endfacet
  facet normal 0.906038 0 -0.423197
    outer loop
      vertex 0.606763 -130.5 4.70096
      vertex 1.21353 -130.5 6
      vertex 0.606763 -130.941 4.70096
    endloop
  endfacet
  facet normal 0.906038 0 0.423197
    outer loop
      vertex 0.606763 -130.941 7.29904
      vertex 1.21353 -131.382 6
      vertex 1.21353 -130.5 6
    endloop
  endfacet
  facet normal 0.906038 0 0.423197
    outer loop
      vertex 0.606763 -130.5 7.29904
      vertex 0.606763 -130.941 7.29904
      vertex 1.21353 -130.5 6
    endloop
  endfacet
  facet normal -1.22461e-016 0 1
    outer loop
      vertex -0.231763 -131.213 7.29904
      vertex 0.606763 -130.941 7.29904
      vertex 0.606763 -130.5 7.29904
    endloop
  endfacet
  facet normal -1.22461e-016 0 1
    outer loop
      vertex -0.75 -130.5 7.29904
      vertex -0.231763 -131.213 7.29904
      vertex 0.606763 -130.5 7.29904
    endloop
  endfacet
  facet normal -0.733 -0.532555 0.423197
    outer loop
      vertex -0.463525 -131.927 6
      vertex -0.231763 -131.213 7.29904
      vertex -0.75 -130.5 7.29904
    endloop
  endfacet
  facet normal 1.22461e-016 0 -1
    outer loop
      vertex -32.625 -41 -9.75
      vertex -32.625 -42.5 -9.75
      vertex -45 -41 -9.75
    endloop
  endfacet
  facet normal 1.22461e-016 0 -1
    outer loop
      vertex -45 -41 -9.75
      vertex -32.625 -42.5 -9.75
      vertex -43.5 -42.5 -9.75
    endloop
  endfacet
  facet normal 1.22461e-016 0 -1
    outer loop
      vertex -45 -41 -9.75
      vertex -43.5 -42.5 -9.75
      vertex -43.5 -52.25 -9.75
    endloop
  endfacet
  facet normal 1.22461e-016 0 -1
    outer loop
      vertex -45 -41 -9.75
      vertex -43.5 -52.25 -9.75
      vertex -45 -52.25 -9.75
    endloop
  endfacet
  facet normal 1.22461e-016 0 -1
    outer loop
      vertex -32.625 -129.5 -9.75
      vertex -32.625 -131 -9.75
      vertex -43.5 -129.5 -9.75
    endloop
  endfacet
  facet normal 1.22461e-016 0 -1
    outer loop
      vertex -43.5 -129.5 -9.75
      vertex -32.625 -131 -9.75
      vertex -45 -131 -9.75
    endloop
  endfacet
  facet normal 1.22461e-016 0 -1
    outer loop
      vertex -43.5 -129.5 -9.75
      vertex -45 -131 -9.75
      vertex -45 -119.75 -9.75
    endloop
  endfacet
  facet normal 1.22461e-016 0 -1
    outer loop
      vertex -43.5 -129.5 -9.75
      vertex -45 -119.75 -9.75
      vertex -43.5 -119.75 -9.75
    endloop
  endfacet
  facet normal -0.279981 0.861693 0.423198
    outer loop
      vertex 0.231763 -40.7867 7.29904
      vertex 0.463525 -40.0734 6
      vertex -1.21352 -40.6183 6
    endloop
  endfacet
  facet normal -0.279981 0.861693 -0.423198
    outer loop
      vertex -1.21352 -40.6183 6
      vertex 0.463525 -40.0734 6
      vertex -0.606763 -41.0592 4.70096
    endloop
  endfacet
  facet normal -0.27998 0.861693 -0.423198
    outer loop
      vertex -0.606763 -41.0592 4.70096
      vertex 0.463525 -40.0734 6
      vertex 0.231763 -40.7867 4.70096
    endloop
  endfacet
  facet normal -0.27998 0.861693 0.423197
    outer loop
      vertex -0.606763 -41.0592 7.29904
      vertex 0.231763 -40.7867 7.29904
      vertex -1.21352 -40.6183 6
    endloop
  endfacet
  facet normal 0.279981 -0.861693 0.423198
    outer loop
      vertex -0.463525 -131.927 6
      vertex 1.21353 -131.382 6
      vertex -0.231763 -131.213 7.29904
    endloop
  endfacet
  facet normal 0.279981 -0.861693 -0.423198
    outer loop
      vertex 0.606763 -130.941 4.70096
      vertex 1.21353 -131.382 6
      vertex -0.463525 -131.927 6
    endloop
  endfacet
  facet normal 0.27998 -0.861693 -0.423198
    outer loop
      vertex -0.231763 -131.213 4.70096
      vertex 0.606763 -130.941 4.70096
      vertex -0.463525 -131.927 6
    endloop
  endfacet
  facet normal 0.27998 -0.861693 0.423197
    outer loop
      vertex -0.231763 -131.213 7.29904
      vertex 1.21353 -131.382 6
      vertex 0.606763 -130.941 7.29904
    endloop
  endfacet
endsolid OpenSCAD_Model
