999
Inkscape export via OpenSCAD DXF Export
  0
SECTION
  2
HEADER
  9
$ACADVER
  1
AC1014
  9
$HANDSEED
  5
FFFF
  9
$MEASUREMENT
 70
     1
  0
ENDSEC
  0
SECTION
  2
TABLES
  0
TABLE
  2
VPORT
  5
8
330
0
100
AcDbSymbolTable
 70
     4
  0
VPORT
  5
2E
330
8
100
AcDbSymbolTableRecord
100
AcDbViewportTableRecord
  2
*ACTIVE
 70
     0
 10
0.0
 20
0.0
 11
1.0
 21
1.0
 12
210.0
 22
148.5
 13
0.0
 23
0.0
 14
10.0
 24
10.0
 15
10.0
 25
10.0
 16
0.0
 26
0.0
 36
1.0
 17
0.0
 27
0.0
 37
0.0
 40
341.0
 41
1.24
 42
50.0
 43
0.0
 44
0.0
 50
0.0
 51
0.0
 71
     0
 72
   100
 73
     1
 74
     3
 75
     0
 76
     0
 77
     0
 78
     0
  0
ENDTAB
  0
TABLE
  2
LTYPE
  5
5
330
0
100
AcDbSymbolTable
 70
     1
  0
LTYPE
  5
14
330
5
100
AcDbSymbolTableRecord
100
AcDbLinetypeTableRecord
  2
BYBLOCK
 70
     0
  3

 72
    65
 73
     0
 40
0.0
  0
LTYPE
  5
15
330
5
100
AcDbSymbolTableRecord
100
AcDbLinetypeTableRecord
  2
BYLAYER
 70
     0
  3

 72
    65
 73
     0
 40
0.0
  0
LTYPE
  5
16
330
5
100
AcDbSymbolTableRecord
100
AcDbLinetypeTableRecord
  2
CONTINUOUS
 70
     0
  3
Solid line
 72
    65
 73
     0
 40
0.0
  0
ENDTAB
  0
TABLE
0
TABLE
2
LAYER
5
2
330
0
100
AcDbSymbolTable
70
1
0
LAYER
5
10
330
2
100
AcDbSymbolTableRecord
100
AcDbLayerTableRecord
2
Layer_1
70
0
62
7
6
CONTINUOUS
0
ENDTAB
0
ENDSEC
  0
ENDTAB
  0
TABLE
  2
STYLE
  5
3
330
0
100
AcDbSymbolTable
 70
     1
  0
STYLE
  5
11
330
3
100
AcDbSymbolTableRecord
100
AcDbTextStyleTableRecord
  2
STANDARD
 70
     0
 40
0.0
 41
1.0
 50
0.0
 71
     0
 42
2.5
  3
txt
  4

  0
ENDTAB
  0
TABLE
  2
VIEW
  5
6
330
0
100
AcDbSymbolTable
 70
     0
  0
ENDTAB
  0
TABLE
  2
UCS
  5
7
330
0
100
AcDbSymbolTable
 70
     0
  0
ENDTAB
  0
TABLE
  2
APPID
  5
9
330
0
100
AcDbSymbolTable
 70
     2
  0
APPID
  5
12
330
9
100
AcDbSymbolTableRecord
100
AcDbRegAppTableRecord
  2
ACAD
 70
     0
  0
ENDTAB
  0
TABLE
  2
DIMSTYLE
  5
A
330
0
100
AcDbSymbolTable
 70
     1
  0
DIMSTYLE
105
27
330
A
100
AcDbSymbolTableRecord
100
AcDbDimStyleTableRecord
  2
ISO-25
 70
     0
  3

  4

  5

  6

  7

 40
1.0
 41
2.5
 42
0.625
 43
3.75
 44
1.25
 45
0.0
 46
0.0
 47
0.0
 48
0.0
140
2.5
141
2.5
142
0.0
143
0.03937007874016
144
1.0
145
0.0
146
1.0
147
0.625
 71
     0
 72
     0
 73
     0
 74
     0
 75
     0
 76
     0
 77
     1
 78
     8
170
     0
171
     3
172
     1
173
     0
174
     0
175
     0
176
     0
177
     0
178
     0
270
     2
271
     2
272
     2
273
     2
274
     3
340
11
275
     0
280
     0
281
     0
282
     0
283
     0
284
     8
285
     0
286
     0
287
     3
288
     0
  0
ENDTAB
  0
TABLE
  2
BLOCK_RECORD
  5
1
330
0
100
AcDbSymbolTable
 70
     1
  0
BLOCK_RECORD
  5
1F
330
1
100
AcDbSymbolTableRecord
100
AcDbBlockTableRecord
  2
*MODEL_SPACE
  0
BLOCK_RECORD
  5
1B
330
1
100
AcDbSymbolTableRecord
100
AcDbBlockTableRecord
  2
*PAPER_SPACE
  0
ENDTAB
  0
ENDSEC
  0
SECTION
  2
BLOCKS
  0
BLOCK
  5
20
330
1F
100
AcDbEntity
  8
0
100
AcDbBlockBegin
  2
*MODEL_SPACE
 70
     0
 10
0.0
 20
0.0
 30
0.0
  3
*MODEL_SPACE
  1

  0
ENDBLK
  5
21
330
1F
100
AcDbEntity
  8
0
100
AcDbBlockEnd
  0
BLOCK
  5
1C
330
1B
100
AcDbEntity
 67
     1
  8
0
100
AcDbBlockBegin
  2
*PAPER_SPACE
  1

  0
ENDBLK
  5
1D
330
1B
100
AcDbEntity
 67
     1
  8
0
100
AcDbBlockEnd
  0
ENDSEC
  0
SECTION
  2
ENTITIES
0
DIMENSION
5
83
100
AcDbEntity
62
256
370
-1
6
ByLayer
1
total_width
3
Standard
70
0
71
5
72
1
41
1.0
100
AcDbAlignedDimension
13
0.319667
23
0.000000
33
0.0
14
377.825254
24
0.000000
34
0.0
50
0.000000
100
AcDbRotatedDimension
0
DIMENSION
5
83
100
AcDbEntity
62
256
370
-1
6
ByLayer
1
total_height
3
Standard
70
0
71
5
72
1
41
1.0
100
AcDbAlignedDimension
13
0.000000
23
0.378839
33
0.0
14
0.000000
24
117.390610
34
0.0
50
90.000000
100
AcDbRotatedDimension
0
DIMENSION
8
Layer_1
5
83
100
AcDbEntity
62
256
370
-1
6
ByLayer
1
Layer_1_width
3
Standard
70
0
71
5
72
1
41
1.0
100
AcDbAlignedDimension
13
0.319667
23
0.000000
33
0.0
14
377.825254
24
0.000000
34
0.0
50
0.000000
100
AcDbRotatedDimension
0
DIMENSION
8
Layer_1
5
83
100
AcDbEntity
62
256
370
-1
6
ByLayer
1
Layer_1_height
3
Standard
70
0
71
5
72
1
41
1.0
100
AcDbAlignedDimension
13
0.000000
23
0.378839
33
0.0
14
0.000000
24
117.390610
34
0.0
50
90.000000
100
AcDbRotatedDimension
0
LWPOLYLINE
100
AcDbPolyline
8
Layer_1
90
115
70
0
10
265.621711
20
0.864100
30
0.0
10
263.758094
20
1.461021
30
0.0
10
262.178772
20
2.146991
30
0.0
10
260.070220
20
3.564275
30
0.0
10
257.058076
20
5.944831
30
0.0
10
253.503253
20
8.990442
30
0.0
10
249.766667
20
12.402891
30
0.0
10
244.542728
20
17.125346
30
0.0
10
243.693230
20
17.721984
30
0.0
10
242.849394
20
17.025010
30
0.0
10
240.270715
20
15.026475
30
0.0
10
237.690901
20
13.295196
30
0.0
10
235.090021
20
11.822969
30
0.0
10
232.448141
20
10.601588
30
0.0
10
229.745330
20
9.622849
30
0.0
10
226.961655
20
8.878546
30
0.0
10
224.077184
20
8.360475
30
0.0
10
221.071985
20
8.060430
30
0.0
10
218.071306
20
8.043274
30
0.0
10
214.613431
20
8.605658
30
0.0
10
211.482131
20
9.350768
30
0.0
10
208.991036
20
10.122253
30
0.0
10
207.415775
20
10.819660
30
0.0
10
205.864268
20
11.675659
30
0.0
10
202.881049
20
13.822693
30
0.0
10
200.138440
20
16.481882
30
0.0
10
197.733505
20
19.571750
30
0.0
10
196.497920
20
21.506442
30
0.0
10
195.612457
20
23.221341
30
0.0
10
194.868235
20
25.188371
30
0.0
10
194.056373
20
27.879455
30
0.0
10
192.901589
20
32.194871
30
0.0
10
192.241497
20
35.541249
30
0.0
10
191.972786
20
38.634922
30
0.0
10
191.992143
20
42.192222
30
0.0
10
192.247772
20
46.142489
30
0.0
10
192.758478
20
49.616316
30
0.0
10
193.545749
20
52.722648
30
0.0
10
194.631076
20
55.570433
30
0.0
10
195.660910
20
57.855556
30
0.0
10
197.001373
20
57.855556
30
0.0
10
197.887479
20
57.901551
30
0.0
10
198.385930
20
58.171951
30
0.0
10
198.654866
20
58.865377
30
0.0
10
198.852429
20
60.180451
30
0.0
10
199.358950
20
62.200188
30
0.0
10
200.366824
20
65.223044
30
0.0
10
201.581518
20
68.424213
30
0.0
10
202.708499
20
70.978889
30
0.0
10
204.619235
20
74.196859
30
0.0
10
206.997751
20
77.219154
30
0.0
10
209.791865
20
79.987358
30
0.0
10
212.949395
20
82.443055
30
0.0
10
216.195041
20
84.681102
30
0.0
10
217.427095
20
85.423056
30
0.0
10
218.866726
20
86.085056
30
0.0
10
222.270080
20
87.145919
30
0.0
10
226.207833
20
87.817149
30
0.0
10
230.482716
20
88.052199
30
0.0
10
233.826133
20
87.871682
30
0.0
10
236.989199
20
87.325397
30
0.0
10
239.978798
20
86.409635
30
0.0
10
242.801812
20
85.120690
30
0.0
10
245.465125
20
83.454854
30
0.0
10
247.975619
20
81.408420
30
0.0
10
250.340177
20
78.977682
30
0.0
10
252.565682
20
76.158931
30
0.0
10
253.606543
20
74.538423
30
0.0
10
254.592979
20
72.674338
30
0.0
10
256.345632
20
68.381039
30
0.0
10
257.709755
20
63.610234
30
0.0
10
258.571464
20
58.693121
30
0.0
10
258.714289
20
55.222421
30
0.0
10
258.600609
20
50.521135
30
0.0
10
258.284029
20
45.767268
30
0.0
10
257.818156
20
42.138823
30
0.0
10
256.871259
20
38.562240
30
0.0
10
255.467206
20
34.616439
30
0.0
10
253.933145
20
31.129068
30
0.0
10
252.596221
20
28.927778
30
0.0
10
251.629209
20
27.622638
30
0.0
10
251.159270
20
26.881940
30
0.0
10
254.484635
20
24.225092
30
0.0
10
264.724475
20
16.282785
30
0.0
10
268.661247
20
13.409153
30
0.0
10
271.338847
20
11.619041
30
0.0
10
273.217853
20
10.657566
30
0.0
10
273.967476
20
10.486201
30
0.0
10
274.824063
20
10.442222
30
0.0
10
276.351540
20
10.442222
30
0.0
10
278.656903
20
12.810716
30
0.0
10
280.820358
20
14.829725
30
0.0
10
281.619958
20
15.311891
30
0.0
10
282.490136
20
15.632938
30
0.0
10
284.648938
20
16.086667
30
0.0
10
285.618400
20
15.907771
30
0.0
10
286.686650
20
15.441067
30
0.0
10
287.661549
20
14.791530
30
0.0
10
288.350960
20
14.064132
30
0.0
10
288.766598
20
13.301806
30
0.0
10
289.003534
20
12.539807
30
0.0
10
289.060165
20
11.772317
30
0.0
10
288.934888
20
10.993519
30
0.0
10
288.626100
20
10.197595
30
0.0
10
288.132199
20
9.378729
30
0.0
10
286.582640
20
7.648897
30
0.0
10
284.717355
20
6.163012
30
0.0
10
282.150855
20
4.428156
30
0.0
10
279.441851
20
2.800445
30
0.0
10
277.149052
20
1.635997
30
0.0
10
274.487002
20
0.797442
30
0.0
10
271.522589
20
0.378839
30
0.0
10
268.489572
20
0.395840
30
0.0
10
265.621711
20
0.864100
30
0.0
10
265.621711
20
0.864100
30
0.0
0
LWPOLYLINE
100
AcDbPolyline
8
Layer_1
90
26
70
0
10
230.434444
20
18.451672
30
0.0
10
234.580636
20
19.683334
30
0.0
10
237.386014
20
20.772501
30
0.0
10
238.902352
20
21.743860
30
0.0
10
239.193311
20
22.193075
30
0.0
10
239.181426
20
22.622095
30
0.0
10
238.540574
20
23.340968
30
0.0
10
237.303913
20
24.193748
30
0.0
10
235.832921
20
24.963784
30
0.0
10
234.489080
20
25.434425
30
0.0
10
233.049806
20
25.607882
30
0.0
10
231.591850
20
25.523183
30
0.0
10
230.132930
20
25.188924
30
0.0
10
228.690762
20
24.613701
30
0.0
10
227.283062
20
23.806112
30
0.0
10
225.927547
20
22.774753
30
0.0
10
224.641933
20
21.528219
30
0.0
10
223.443935
20
20.075107
30
0.0
10
222.632569
20
18.820301
30
0.0
10
222.572794
20
18.504017
30
0.0
10
222.710440
20
18.315539
30
0.0
10
223.954314
20
18.114740
30
0.0
10
226.215024
20
18.080343
30
0.0
10
228.654443
20
18.197578
30
0.0
10
230.434444
20
18.451672
30
0.0
10
230.434444
20
18.451672
30
0.0
0
LWPOLYLINE
100
AcDbPolyline
8
Layer_1
90
112
70
0
10
220.415556
20
18.706928
30
0.0
10
220.158417
20
19.114828
30
0.0
10
219.540193
20
19.586502
30
0.0
10
218.951319
20
20.082053
30
0.0
10
218.813201
20
20.780180
30
0.0
10
219.152518
20
21.925309
30
0.0
10
219.995950
20
23.761864
30
0.0
10
220.669694
20
25.018828
30
0.0
10
221.420957
20
26.102420
30
0.0
10
223.796860
20
28.558117
30
0.0
10
224.970409
20
29.453113
30
0.0
10
226.553587
20
30.393199
30
0.0
10
228.321407
20
31.257246
30
0.0
10
230.048881
20
31.924123
30
0.0
10
231.280713
20
32.276406
30
0.0
10
232.500824
20
32.480070
30
0.0
10
236.361111
20
32.596571
30
0.0
10
240.594444
20
32.596667
30
0.0
10
243.632220
20
31.224779
30
0.0
10
246.194951
20
30.171598
30
0.0
10
246.772583
20
30.083736
30
0.0
10
247.113851
20
30.221261
30
0.0
10
247.671823
20
30.911741
30
0.0
10
248.343224
20
32.095649
30
0.0
10
249.830539
20
35.448153
30
0.0
10
251.184245
20
39.287576
30
0.0
10
252.012791
20
42.622721
30
0.0
10
252.225539
20
45.132412
30
0.0
10
252.330918
20
48.640292
30
0.0
10
252.315174
20
52.080198
30
0.0
10
252.164554
20
54.385966
30
0.0
10
251.734709
20
56.584537
30
0.0
10
251.151507
20
58.667514
30
0.0
10
250.355685
20
60.816778
30
0.0
10
249.287978
20
63.214210
30
0.0
10
247.087450
20
67.317151
30
0.0
10
245.973337
20
68.953951
30
0.0
10
244.817333
20
70.349691
30
0.0
10
243.594944
20
71.530909
30
0.0
10
242.281674
20
72.524146
30
0.0
10
240.853029
20
73.355940
30
0.0
10
239.284516
20
74.052831
30
0.0
10
234.916113
20
75.669898
30
0.0
10
232.523436
20
76.209700
30
0.0
10
230.480759
20
76.420641
30
0.0
10
228.418156
20
76.468938
30
0.0
10
226.350634
20
76.357138
30
0.0
10
224.293198
20
76.087786
30
0.0
10
222.260855
20
75.663426
30
0.0
10
220.268611
20
75.086604
30
0.0
10
218.331472
20
74.359866
30
0.0
10
216.464444
20
73.485756
30
0.0
10
214.863578
20
72.550249
30
0.0
10
213.325957
20
71.440407
30
0.0
10
211.862518
20
70.168486
30
0.0
10
210.484202
20
68.746744
30
0.0
10
209.201945
20
67.187434
30
0.0
10
208.026687
20
65.502814
30
0.0
10
206.969366
20
63.705140
30
0.0
10
206.040919
20
61.806667
30
0.0
10
205.086243
20
59.443419
30
0.0
10
204.467503
20
57.300403
30
0.0
10
204.098946
20
54.990901
30
0.0
10
203.894823
20
52.128194
30
0.0
10
203.847423
20
48.320941
30
0.0
10
204.331745
20
45.296667
30
0.0
10
204.958086
20
42.862473
30
0.0
10
205.699831
20
40.801677
30
0.0
10
206.590801
20
39.077274
30
0.0
10
207.664816
20
37.652257
30
0.0
10
208.955696
20
36.489620
30
0.0
10
210.497262
20
35.552357
30
0.0
10
212.323334
20
34.803461
30
0.0
10
214.467734
20
34.205926
30
0.0
10
215.357819
20
33.824031
30
0.0
10
216.030912
20
33.163080
30
0.0
10
216.456871
20
32.265804
30
0.0
10
216.605556
20
31.174938
30
0.0
10
216.488552
20
30.111323
30
0.0
10
216.092835
20
29.435401
30
0.0
10
215.351346
20
29.086755
30
0.0
10
214.197026
20
29.004968
30
0.0
10
211.811817
20
29.237698
30
0.0
10
209.566390
20
29.808501
30
0.0
10
207.534207
20
30.692394
30
0.0
10
205.788734
20
31.864393
30
0.0
10
204.871654
20
32.784408
30
0.0
10
203.918675
20
34.030999
30
0.0
10
202.024244
20
37.268034
30
0.0
10
200.343876
20
41.103751
30
0.0
10
199.116010
20
45.066402
30
0.0
10
198.660587
20
46.648874
30
0.0
10
198.244243
20
47.606402
30
0.0
10
198.038653
20
47.817922
30
0.0
10
197.919938
20
47.720589
30
0.0
10
197.846752
20
46.277042
30
0.0
10
197.958290
20
43.451819
30
0.0
10
198.330188
20
40.768782
30
0.0
10
198.975881
20
38.197356
30
0.0
10
199.908804
20
35.706969
30
0.0
10
201.142392
20
33.267046
30
0.0
10
202.690079
20
30.847013
30
0.0
10
204.565301
20
28.416296
30
0.0
10
206.781493
20
25.944322
30
0.0
10
209.659599
20
23.343906
30
0.0
10
212.872730
20
21.110812
30
0.0
10
216.059434
20
19.464161
30
0.0
10
217.529923
20
18.929227
30
0.0
10
218.858262
20
18.623074
30
0.0
10
220.345000
20
18.379654
30
0.0
10
220.415556
20
18.706928
30
0.0
10
220.415556
20
18.706928
30
0.0
0
LWPOLYLINE
100
AcDbPolyline
8
Layer_1
90
255
70
0
10
21.448889
20
11.098846
30
0.0
10
18.753551
20
11.990581
30
0.0
10
15.975902
20
13.352597
30
0.0
10
13.212293
20
15.102940
30
0.0
10
10.559071
20
17.159654
30
0.0
10
8.112587
20
19.440783
30
0.0
10
5.969190
20
21.864373
30
0.0
10
4.225228
20
24.348467
30
0.0
10
2.977052
20
26.811111
30
0.0
10
2.141131
20
29.121937
30
0.0
10
1.461978
20
31.473658
30
0.0
10
0.939924
20
33.863447
30
0.0
10
0.575300
20
36.288477
30
0.0
10
0.368438
20
38.745919
30
0.0
10
0.319667
20
41.232946
30
0.0
10
0.429320
20
43.746730
30
0.0
10
0.697726
20
46.284444
30
0.0
10
1.121826
20
48.960565
30
0.0
10
1.642215
20
51.127490
30
0.0
10
2.392441
20
53.234423
30
0.0
10
3.506052
20
55.730569
30
0.0
10
4.566860
20
57.876641
30
0.0
10
5.610928
20
59.670561
30
0.0
10
8.841169
20
64.064444
30
0.0
10
10.704861
20
66.253887
30
0.0
10
12.690197
20
68.228244
30
0.0
10
14.765807
20
69.967833
30
0.0
10
16.900321
20
71.452966
30
0.0
10
19.062367
20
72.663959
30
0.0
10
21.220576
20
73.581127
30
0.0
10
23.343577
20
74.184784
30
0.0
10
25.400000
20
74.455246
30
0.0
10
28.118796
20
74.442620
30
0.0
10
30.978144
20
74.179157
30
0.0
10
33.725397
20
73.698395
30
0.0
10
36.107912
20
73.033870
30
0.0
10
39.097442
20
71.838690
30
0.0
10
42.251169
20
70.365121
30
0.0
10
44.912679
20
68.940325
30
0.0
10
46.425556
20
67.891465
30
0.0
10
50.194357
20
64.492914
30
0.0
10
52.823574
20
62.090978
30
0.0
10
55.041461
20
59.846608
30
0.0
10
57.991725
20
56.585556
30
0.0
10
59.017016
20
55.456667
30
0.0
10
58.864153
20
56.303333
30
0.0
10
57.597150
20
66.270586
30
0.0
10
56.049139
20
79.868889
30
0.0
10
55.506818
20
86.376816
30
0.0
10
55.169745
20
92.710200
30
0.0
10
54.978839
20
98.919289
30
0.0
10
55.948806
20
100.330200
30
0.0
10
57.056988
20
101.597464
30
0.0
10
58.476168
20
102.541501
30
0.0
10
59.957280
20
103.159961
30
0.0
10
60.497095
20
103.176231
30
0.0
10
61.128591
20
103.039538
30
0.0
10
62.184528
20
102.555349
30
0.0
10
63.185571
20
101.815815
30
0.0
10
66.544191
20
98.357036
30
0.0
10
70.437316
20
93.779709
30
0.0
10
75.530945
20
87.261559
30
0.0
10
82.491078
20
77.980311
30
0.0
10
87.518979
20
71.418645
30
0.0
10
87.884773
20
84.737222
30
0.0
10
88.187236
20
97.702268
30
0.0
10
88.676603
20
106.923594
30
0.0
10
88.999989
20
110.238963
30
0.0
10
89.380435
20
112.748726
30
0.0
10
89.821387
20
114.496322
30
0.0
10
90.326289
20
115.525193
30
0.0
10
91.209584
20
116.191179
30
0.0
10
92.603345
20
116.807221
30
0.0
10
94.330856
20
117.390610
30
0.0
10
95.687374
20
116.807052
30
0.0
10
96.718325
20
116.220969
30
0.0
10
97.601316
20
115.325336
30
0.0
10
98.488461
20
113.922650
30
0.0
10
99.531873
20
111.815409
30
0.0
10
102.895837
20
104.015945
30
0.0
10
107.287991
20
93.274444
30
0.0
10
110.104415
20
86.418264
30
0.0
10
112.447819
20
81.213846
30
0.0
10
114.485985
20
77.312504
30
0.0
10
116.386697
20
74.365556
30
0.0
10
118.280650
20
71.910376
30
0.0
10
119.651560
20
70.366932
30
0.0
10
121.724486
20
68.727297
30
0.0
10
124.530053
20
66.734876
30
0.0
10
127.145486
20
65.020628
30
0.0
10
128.648008
20
64.215510
30
0.0
10
129.577888
20
63.858613
30
0.0
10
130.306244
20
63.271703
30
0.0
10
130.781258
20
62.512736
30
0.0
10
130.951111
20
61.639667
30
0.0
10
130.951111
20
60.599046
30
0.0
10
127.776111
20
60.746680
30
0.0
10
125.097558
20
60.990444
30
0.0
10
122.374071
20
61.447990
30
0.0
10
119.857885
20
62.067469
30
0.0
10
117.801240
20
62.797032
30
0.0
10
115.833295
20
63.819274
30
0.0
10
113.826499
20
65.161097
30
0.0
10
111.826234
20
66.788870
30
0.0
10
109.877880
20
68.668962
30
0.0
10
108.440452
20
70.230160
30
0.0
10
107.392130
20
71.621628
30
0.0
10
106.354986
20
73.421747
30
0.0
10
104.951093
20
76.208898
30
0.0
10
101.002581
20
84.666667
30
0.0
10
98.865256
20
89.393342
30
0.0
10
96.625603
20
93.979738
30
0.0
10
94.749596
20
97.507205
30
0.0
10
93.703208
20
99.057094
30
0.0
10
93.376156
20
99.191857
30
0.0
10
93.137098
20
99.142682
30
0.0
10
92.654560
20
98.298303
30
0.0
10
92.408940
20
97.169783
30
0.0
10
92.272865
20
94.401648
30
0.0
10
92.217771
20
79.022222
30
0.0
10
92.328729
20
62.977684
30
0.0
10
92.508013
20
59.446482
30
0.0
10
92.829276
20
56.743854
30
0.0
10
93.415556
20
51.721583
30
0.0
10
93.231384
20
50.838626
30
0.0
10
92.737636
20
50.094371
30
0.0
10
92.022458
20
49.580548
30
0.0
10
91.173997
20
49.388889
30
0.0
10
90.688552
20
49.449445
30
0.0
10
90.271228
20
49.697362
30
0.0
10
89.194956
20
51.152778
30
0.0
10
85.169900
20
57.493487
30
0.0
10
78.790799
20
67.213121
30
0.0
10
73.236667
20
75.238630
30
0.0
10
71.150313
20
77.830714
30
0.0
10
68.372953
20
81.008303
30
0.0
10
65.638479
20
83.955845
30
0.0
10
63.680783
20
85.857788
30
0.0
10
62.478413
20
86.665791
30
0.0
10
61.349707
20
86.978177
30
0.0
10
60.254444
20
87.065556
30
0.0
10
60.362883
20
82.980493
30
0.0
10
60.511243
20
79.845153
30
0.0
10
60.715660
20
78.043467
30
0.0
10
60.960000
20
75.444203
30
0.0
10
61.087827
20
73.603705
30
0.0
10
61.395153
20
71.632341
30
0.0
10
62.390014
20
64.064444
30
0.0
10
63.332969
20
56.209382
30
0.0
10
64.370678
20
50.658889
30
0.0
10
64.750147
20
48.703012
30
0.0
10
64.909133
20
47.171082
30
0.0
10
65.211306
20
45.420154
30
0.0
10
65.934979
20
42.937749
30
0.0
10
66.663274
20
40.439637
30
0.0
10
66.947728
20
38.700137
30
0.0
10
67.098344
20
37.458713
30
0.0
10
67.476085
20
36.207296
30
0.0
10
67.876103
20
34.976451
30
0.0
10
68.004939
20
33.838804
30
0.0
10
67.863104
20
32.876913
30
0.0
10
67.451108
20
32.173333
30
0.0
10
66.630994
20
31.632582
30
0.0
10
66.217511
20
31.604545
30
0.0
10
65.780466
20
31.749003
30
0.0
10
64.771854
20
32.588221
30
0.0
10
63.477490
20
34.215860
30
0.0
10
60.119672
20
38.241111
30
0.0
10
57.808029
20
40.922222
30
0.0
10
54.544143
20
45.023183
30
0.0
10
50.150068
20
49.916371
30
0.0
10
46.242501
20
53.578131
30
0.0
10
42.254804
20
56.623928
30
0.0
10
38.001238
20
59.180014
30
0.0
10
33.296067
20
61.372640
30
0.0
10
31.501101
20
61.990734
30
0.0
10
29.518764
20
62.462835
30
0.0
10
27.417996
20
62.785930
30
0.0
10
25.267736
20
62.957006
30
0.0
10
23.136926
20
62.973048
30
0.0
10
21.094504
20
62.831045
30
0.0
10
19.209412
20
62.527982
30
0.0
10
17.550589
20
62.060847
30
0.0
10
15.892805
20
61.310069
30
0.0
10
14.188194
20
60.264620
30
0.0
10
12.499593
20
58.985973
30
0.0
10
10.889838
20
57.535601
30
0.0
10
9.421767
20
55.974977
30
0.0
10
8.158217
20
54.365572
30
0.0
10
7.162025
20
52.768861
30
0.0
10
6.496027
20
51.246315
30
0.0
10
5.585144
20
49.210654
30
0.0
10
5.000723
20
47.768644
30
0.0
10
4.635049
20
45.812943
30
0.0
10
4.492131
20
43.378157
30
0.0
10
4.575978
20
40.498889
30
0.0
10
4.796012
20
38.251447
30
0.0
10
5.166841
20
36.144551
30
0.0
10
5.703666
20
34.142516
30
0.0
10
6.421689
20
32.209654
30
0.0
10
7.336112
20
30.310281
30
0.0
10
8.462135
20
28.408709
30
0.0
10
9.814960
20
26.469253
30
0.0
10
11.409789
20
24.456226
30
0.0
10
12.768842
20
23.019603
30
0.0
10
14.352742
20
21.682232
30
0.0
10
16.129938
20
20.460129
30
0.0
10
18.068881
20
19.369306
30
0.0
10
20.138021
20
18.425778
30
0.0
10
22.305805
20
17.645558
30
0.0
10
24.540686
20
17.044661
30
0.0
10
26.811111
20
16.639100
30
0.0
10
29.721593
20
16.491899
30
0.0
10
32.857232
20
16.730479
30
0.0
10
35.861528
20
17.307484
30
0.0
10
38.377983
20
18.175560
30
0.0
10
40.063354
20
19.189942
30
0.0
10
42.036757
20
20.732355
30
0.0
10
44.019237
20
22.564815
30
0.0
10
45.731839
20
24.449337
30
0.0
10
47.461456
20
26.805509
30
0.0
10
48.406416
20
28.789320
30
0.0
10
48.619415
20
29.754678
30
0.0
10
48.677969
20
30.762653
30
0.0
10
48.387367
20
33.087392
30
0.0
10
48.067375
20
35.134586
30
0.0
10
48.206485
20
35.582568
30
0.0
10
48.567374
20
36.010105
30
0.0
10
49.308346
20
36.532892
30
0.0
10
50.292178
20
36.688889
30
0.0
10
50.890781
20
36.641401
30
0.0
10
51.401831
20
36.461687
30
0.0
10
52.586103
20
35.482084
30
0.0
10
53.758561
20
34.129046
30
0.0
10
54.511780
20
32.766036
30
0.0
10
54.913066
20
31.223671
30
0.0
10
55.029729
20
29.332563
30
0.0
10
54.942308
20
27.682878
30
0.0
10
54.685230
20
26.068037
30
0.0
10
54.258716
20
24.488536
30
0.0
10
53.662986
20
22.944869
30
0.0
10
52.898262
20
21.437531
30
0.0
10
51.964764
20
19.967016
30
0.0
10
50.862712
20
18.533818
30
0.0
10
49.592329
20
17.138433
30
0.0
10
47.536172
20
15.212673
30
0.0
10
45.531578
20
13.694110
30
0.0
10
43.460388
20
12.504225
30
0.0
10
41.204444
20
11.564499
30
0.0
10
38.523333
20
10.620358
30
0.0
10
31.326667
20
10.537879
30
0.0
10
24.815468
20
10.565596
30
0.0
10
23.102845
20
10.748372
30
0.0
10
21.448889
20
11.098846
30
0.0
10
21.448889
20
11.098846
30
0.0
0
LWPOLYLINE
100
AcDbPolyline
8
Layer_1
90
91
70
0
10
295.359667
20
24.140812
30
0.0
10
295.056956
20
24.505234
30
0.0
10
294.901380
20
25.321327
30
0.0
10
294.885054
20
30.171043
30
0.0
10
294.864617
20
34.200857
30
0.0
10
294.705306
20
35.942976
30
0.0
10
294.277778
20
35.705615
30
0.0
10
293.608675
20
34.913214
30
0.0
10
293.007412
20
34.224114
30
0.0
10
292.084146
20
33.483060
30
0.0
10
288.564659
20
31.344994
30
0.0
10
283.862688
20
28.871576
30
0.0
10
279.847191
20
27.202714
30
0.0
10
276.274235
20
26.254275
30
0.0
10
272.899889
20
25.942123
30
0.0
10
271.119679
20
26.020569
30
0.0
10
269.579725
20
26.285470
30
0.0
10
268.271241
20
26.743665
30
0.0
10
267.185442
20
27.401990
30
0.0
10
266.313544
20
28.267283
30
0.0
10
265.646762
20
29.346380
30
0.0
10
265.176312
20
30.646117
30
0.0
10
264.893408
20
32.173333
30
0.0
10
264.840067
20
33.126155
30
0.0
10
264.975724
20
34.144357
30
0.0
10
266.129327
20
37.816528
30
0.0
10
267.130323
20
41.020334
30
0.0
10
267.546667
20
42.978327
30
0.0
10
267.413884
20
43.945907
30
0.0
10
267.053970
20
44.971099
30
0.0
10
266.524579
20
45.925565
30
0.0
10
265.883365
20
46.680964
30
0.0
10
265.508921
20
47.262183
30
0.0
10
265.299696
20
48.039176
30
0.0
10
265.290652
20
48.770366
30
0.0
10
265.516749
20
49.214179
30
0.0
10
271.777928
20
49.408721
30
0.0
10
277.084307
20
49.372744
30
0.0
10
277.920371
20
49.191906
30
0.0
10
278.319718
20
48.834500
30
0.0
10
278.768181
20
48.157396
30
0.0
10
279.081686
20
47.386644
30
0.0
10
279.259757
20
46.502192
30
0.0
10
279.301916
20
45.483988
30
0.0
10
278.976594
20
42.966117
30
0.0
10
278.101905
20
39.672613
30
0.0
10
277.410760
20
37.124650
30
0.0
10
277.007621
20
34.948908
30
0.0
10
276.908276
20
33.266603
30
0.0
10
277.128512
20
32.198951
30
0.0
10
277.361954
20
31.859359
30
0.0
10
277.692784
20
31.683267
30
0.0
10
279.210623
20
31.681380
30
0.0
10
280.658248
20
31.900315
30
0.0
10
282.251003
20
32.398938
30
0.0
10
284.127951
20
33.230565
30
0.0
10
286.428152
20
34.448513
30
0.0
10
290.029868
20
36.638970
30
0.0
10
293.070901
20
39.159347
30
0.0
10
294.772561
20
40.797203
30
0.0
10
295.753501
20
42.093497
30
0.0
10
296.205793
20
43.396581
30
0.0
10
296.321508
20
45.054805
30
0.0
10
296.424184
20
46.694265
30
0.0
10
296.566003
20
47.068613
30
0.0
10
296.789433
20
47.245738
30
0.0
10
300.976623
20
47.599696
30
0.0
10
304.183556
20
47.672127
30
0.0
10
304.712431
20
47.533825
30
0.0
10
304.923134
20
47.243207
30
0.0
10
305.063155
20
44.704924
30
0.0
10
305.097321
20
39.354122
30
0.0
10
305.143958
20
32.961556
30
0.0
10
305.308189
20
31.850836
30
0.0
10
305.621464
20
31.281706
30
0.0
10
305.977669
20
30.915804
30
0.0
10
306.421705
20
30.667699
30
0.0
10
307.950503
20
30.378606
30
0.0
10
309.242247
20
30.189918
30
0.0
10
309.930221
20
29.917658
30
0.0
10
310.097644
20
29.494138
30
0.0
10
309.827732
20
28.851668
30
0.0
10
309.277597
20
28.202096
30
0.0
10
308.415955
20
27.549495
30
0.0
10
305.928889
20
26.344987
30
0.0
10
301.877250
20
24.789686
30
0.0
10
299.714949
20
24.076185
30
0.0
10
297.860374
20
23.725472
30
0.0
10
296.384842
20
23.744647
30
0.0
10
295.359667
20
24.140812
30
0.0
10
295.359667
20
24.140812
30
0.0
0
LWPOLYLINE
100
AcDbPolyline
8
Layer_1
90
46
70
0
10
324.306099
20
30.165017
30
0.0
10
323.905656
20
30.696869
30
0.0
10
323.733340
20
31.235170
30
0.0
10
323.794254
20
31.732439
30
0.0
10
324.093501
20
32.141194
30
0.0
10
324.483279
20
32.970790
30
0.0
10
324.681585
20
34.387638
30
0.0
10
324.663235
20
35.971764
30
0.0
10
324.403043
20
37.303196
30
0.0
10
323.598388
20
40.032620
30
0.0
10
323.019815
20
42.952151
30
0.0
10
322.658457
20
44.102825
30
0.0
10
321.959129
20
45.053263
30
0.0
10
320.975643
20
45.750771
30
0.0
10
319.761814
20
46.142653
30
0.0
10
318.781860
20
46.451799
30
0.0
10
318.273966
20
47.036871
30
0.0
10
318.134217
20
47.745862
30
0.0
10
318.432790
20
48.476715
30
0.0
10
319.243814
20
49.335646
30
0.0
10
320.641416
20
50.428866
30
0.0
10
325.420228
20
53.988705
30
0.0
10
328.045293
20
55.826544
30
0.0
10
328.765245
20
56.088514
30
0.0
10
329.458038
20
56.105371
30
0.0
10
330.588451
20
56.021111
30
0.0
10
330.925480
20
54.045556
30
0.0
10
332.427351
20
47.541838
30
0.0
10
334.009548
20
41.880564
30
0.0
10
334.520420
20
41.139117
30
0.0
10
335.505721
20
40.822880
30
0.0
10
336.134320
20
40.695187
30
0.0
10
336.498533
20
40.501781
30
0.0
10
336.697049
20
40.146427
30
0.0
10
336.828553
20
39.532887
30
0.0
10
336.876154
20
38.588604
30
0.0
10
336.723962
20
37.879139
30
0.0
10
335.819420
20
36.817269
30
0.0
10
334.054443
20
35.109409
30
0.0
10
329.818210
20
31.490364
30
0.0
10
327.802148
20
30.119899
30
0.0
10
327.060159
20
29.832319
30
0.0
10
326.278212
20
29.699926
30
0.0
10
325.051893
20
29.707163
30
0.0
10
324.306099
20
30.165017
30
0.0
10
324.306099
20
30.165017
30
0.0
0
LWPOLYLINE
100
AcDbPolyline
8
Layer_1
90
98
70
0
10
350.872778
20
29.924350
30
0.0
10
350.375044
20
30.327941
30
0.0
10
350.237778
20
31.121099
30
0.0
10
350.380992
20
31.873879
30
0.0
10
350.923754
20
32.671021
30
0.0
10
352.035741
20
33.699751
30
0.0
10
353.886629
20
35.147292
30
0.0
10
355.965020
20
36.851264
30
0.0
10
358.112590
20
38.852105
30
0.0
10
362.272217
20
43.338893
30
0.0
10
364.112751
20
45.622084
30
0.0
10
365.679416
20
47.796637
30
0.0
10
366.886452
20
49.761175
30
0.0
10
367.648095
20
51.414322
30
0.0
10
368.206691
20
53.226736
30
0.0
10
368.462796
20
54.645317
30
0.0
10
368.425442
20
55.775229
30
0.0
10
368.103658
20
56.721635
30
0.0
10
367.454078
20
57.562749
30
0.0
10
366.351086
20
57.946372
30
0.0
10
365.253531
20
58.047413
30
0.0
10
364.432794
20
57.880848
30
0.0
10
363.023348
20
57.573333
30
0.0
10
361.157890
20
57.117368
30
0.0
10
357.704277
20
56.021111
30
0.0
10
353.350668
20
54.686319
30
0.0
10
351.936445
20
54.506680
30
0.0
10
350.197081
20
54.481242
30
0.0
10
347.615426
20
54.598588
30
0.0
10
345.811881
20
54.968456
30
0.0
10
344.600489
20
55.656073
30
0.0
10
343.795294
20
56.726667
30
0.0
10
343.274918
20
58.168157
30
0.0
10
343.268046
20
60.254444
30
0.0
10
343.677197
20
63.068742
30
0.0
10
344.117825
20
64.478146
30
0.0
10
344.766642
20
65.995074
30
0.0
10
346.841306
20
69.669564
30
0.0
10
350.206112
20
74.728332
30
0.0
10
352.560091
20
77.775259
30
0.0
10
355.253971
20
80.698163
30
0.0
10
357.898538
20
83.108227
30
0.0
10
360.104577
20
84.616634
30
0.0
10
361.469518
20
85.240687
30
0.0
10
362.393988
20
85.457804
30
0.0
10
363.099146
20
85.272271
30
0.0
10
363.806147
20
84.688375
30
0.0
10
364.243491
20
84.196708
30
0.0
10
364.492801
20
83.713674
30
0.0
10
364.631111
20
82.145299
30
0.0
10
364.498572
20
80.677580
30
0.0
10
364.095305
20
79.325847
30
0.0
10
363.412840
20
78.069757
30
0.0
10
362.442704
20
76.888964
30
0.0
10
361.424756
20
75.840830
30
0.0
10
358.943656
20
76.001575
30
0.0
10
356.462528
20
76.162321
30
0.0
10
355.204861
20
75.122826
30
0.0
10
354.209090
20
74.195627
30
0.0
10
353.238812
20
73.066830
30
0.0
10
351.186637
20
69.962906
30
0.0
10
350.425928
20
68.359431
30
0.0
10
350.237778
20
66.803180
30
0.0
10
350.325804
20
65.642052
30
0.0
10
350.678803
20
64.956337
30
0.0
10
351.430153
20
64.622945
30
0.0
10
352.713234
20
64.518791
30
0.0
10
354.404549
20
64.739747
30
0.0
10
356.749576
20
65.548854
30
0.0
10
360.074281
20
67.080698
30
0.0
10
364.704630
20
69.469866
30
0.0
10
368.973580
20
71.593937
30
0.0
10
370.250315
20
72.021087
30
0.0
10
371.483834
20
72.241063
30
0.0
10
373.032057
20
72.365452
30
0.0
10
374.324110
20
72.300765
30
0.0
10
375.380143
20
72.030385
30
0.0
10
376.220306
20
71.537696
30
0.0
10
376.864748
20
70.806079
30
0.0
10
377.333620
20
69.818917
30
0.0
10
377.647072
20
68.559593
30
0.0
10
377.825254
20
67.011491
30
0.0
10
377.787754
20
64.916587
30
0.0
10
377.196745
20
62.495935
30
0.0
10
374.954271
20
56.507156
30
0.0
10
373.557735
20
53.305684
30
0.0
10
372.324997
20
50.800000
30
0.0
10
370.674094
20
48.082189
30
0.0
10
368.632418
20
45.212208
30
0.0
10
366.298588
20
42.296249
30
0.0
10
363.771222
20
39.440506
30
0.0
10
361.148940
20
36.751171
30
0.0
10
358.530360
20
34.334435
30
0.0
10
356.014101
20
32.296492
30
0.0
10
353.698782
20
30.743533
30
0.0
10
351.653376
20
29.651223
30
0.0
10
350.872778
20
29.924350
30
0.0
10
350.872778
20
29.924350
30
0.0
0
LWPOLYLINE
100
AcDbPolyline
8
Layer_1
90
84
70
0
10
179.493333
20
54.998293
30
0.0
10
177.310392
20
55.837421
30
0.0
10
175.931035
20
56.203158
30
0.0
10
173.500392
20
56.604927
30
0.0
10
171.143628
20
56.965346
30
0.0
10
169.671237
20
57.334735
30
0.0
10
168.815851
20
57.810127
30
0.0
10
168.310106
20
58.488552
30
0.0
10
168.027666
20
59.289250
30
0.0
10
168.427174
20
59.930465
30
0.0
10
169.433923
20
61.258402
30
0.0
10
170.014691
20
62.899378
30
0.0
10
170.642554
20
65.675204
30
0.0
10
171.153344
20
68.743306
30
0.0
10
171.382890
20
71.261111
30
0.0
10
171.268396
20
73.436971
30
0.0
10
170.518904
20
75.274729
30
0.0
10
169.615556
20
77.169800
30
0.0
10
169.832239
20
77.421622
30
0.0
10
170.424437
20
77.710740
30
0.0
10
172.388253
20
78.314172
30
0.0
10
174.812765
20
78.806713
30
0.0
10
177.003730
20
79.014978
30
0.0
10
178.130735
20
78.934343
30
0.0
10
178.904010
20
78.669477
30
0.0
10
179.351387
20
78.203716
30
0.0
10
179.500702
20
77.520396
30
0.0
10
178.875298
20
74.450033
30
0.0
10
178.492461
20
72.651763
30
0.0
10
178.460598
20
71.776440
30
0.0
10
178.837893
20
71.764194
30
0.0
10
179.438780
20
72.040835
30
0.0
10
181.886229
20
73.377698
30
0.0
10
184.382612
20
74.363968
30
0.0
10
186.680793
20
74.920139
30
0.0
10
188.533636
20
74.966706
30
0.0
10
189.790633
20
74.656517
30
0.0
10
190.815893
20
74.100372
30
0.0
10
191.715252
20
73.219234
30
0.0
10
192.594540
20
71.934070
30
0.0
10
193.480950
20
70.149139
30
0.0
10
193.690031
20
68.424374
30
0.0
10
193.545068
20
66.781585
30
0.0
10
192.790070
20
65.381378
30
0.0
10
191.767119
20
64.146383
30
0.0
10
190.506268
20
62.989664
30
0.0
10
189.193007
20
62.061459
30
0.0
10
188.012824
20
61.512007
30
0.0
10
186.656128
20
61.321554
30
0.0
10
184.855556
20
61.294326
30
0.0
10
182.738889
20
61.383333
30
0.0
10
182.647539
20
62.339607
30
0.0
10
182.723471
20
63.962384
30
0.0
10
182.854693
20
64.310300
30
0.0
10
183.085117
20
64.512325
30
0.0
10
184.169391
20
64.628889
30
0.0
10
185.824463
20
64.871561
30
0.0
10
186.437711
20
65.160340
30
0.0
10
186.896780
20
65.547803
30
0.0
10
187.193181
20
66.024241
30
0.0
10
187.318425
20
66.579948
30
0.0
10
187.264021
20
67.205215
30
0.0
10
187.021481
20
67.890334
30
0.0
10
186.395706
20
68.679738
30
0.0
10
185.439052
20
69.166875
30
0.0
10
184.192906
20
69.339354
30
0.0
10
182.698652
20
69.184780
30
0.0
10
181.145760
20
68.706134
30
0.0
10
179.372368
20
67.942584
30
0.0
10
177.876088
20
67.133472
30
0.0
10
177.154530
20
66.518141
30
0.0
10
176.796044
20
63.401479
30
0.0
10
176.785911
20
60.258796
30
0.0
10
176.991129
20
59.839414
30
0.0
10
177.459175
20
59.423223
30
0.0
10
179.646292
20
58.280514
30
0.0
10
181.584396
20
57.277083
30
0.0
10
182.486960
20
56.608382
30
0.0
10
182.497960
20
56.019028
30
0.0
10
182.257729
20
55.312826
30
0.0
10
181.878012
20
54.723323
30
0.0
10
181.470551
20
54.484067
30
0.0
10
179.493333
20
54.998293
30
0.0
10
179.493333
20
54.998293
30
0.0
0
LWPOLYLINE
100
AcDbPolyline
8
Layer_1
90
63
70
0
10
152.435162
20
59.760556
30
0.0
10
152.122127
20
60.113274
30
0.0
10
151.932571
20
60.652034
30
0.0
10
151.768897
20
63.053790
30
0.0
10
151.632255
20
65.094707
30
0.0
10
151.398486
20
65.951145
30
0.0
10
150.654631
20
65.605249
30
0.0
10
149.281820
20
64.635990
30
0.0
10
147.248062
20
63.220301
30
0.0
10
145.554728
20
62.455840
30
0.0
10
144.671328
20
62.043913
30
0.0
10
143.848569
20
61.821333
30
0.0
10
141.152513
20
61.745286
30
0.0
10
139.093832
20
61.857483
30
0.0
10
137.677883
20
62.189376
30
0.0
10
136.597634
20
62.864874
30
0.0
10
135.546050
20
64.007887
30
0.0
10
134.671229
20
65.255475
30
0.0
10
134.128284
20
66.498325
30
0.0
10
133.851042
20
67.954161
30
0.0
10
133.773333
20
69.840712
30
0.0
10
133.793758
20
71.357522
30
0.0
10
133.921658
20
72.330316
30
0.0
10
134.256975
20
73.144688
30
0.0
10
134.899648
20
74.186232
30
0.0
10
135.960841
20
75.642389
30
0.0
10
137.266228
20
77.135294
30
0.0
10
140.356597
20
80.022079
30
0.0
10
143.664774
20
82.428049
30
0.0
10
145.242422
20
83.319937
30
0.0
10
146.684780
20
83.934670
30
0.0
10
148.553133
20
84.445038
30
0.0
10
150.449720
20
84.730160
30
0.0
10
152.341008
20
84.794774
30
0.0
10
154.193460
20
84.643620
30
0.0
10
155.973541
20
84.281436
30
0.0
10
157.647717
20
83.712963
30
0.0
10
159.182452
20
82.942938
30
0.0
10
160.544211
20
81.976101
30
0.0
10
161.199250
20
81.264364
30
0.0
10
161.381344
20
80.581232
30
0.0
10
161.084988
20
79.858989
30
0.0
10
160.304675
20
79.029918
30
0.0
10
159.178236
20
78.034444
30
0.0
10
158.736625
20
73.457221
30
0.0
10
158.381395
20
67.530554
30
0.0
10
158.467778
20
66.181111
30
0.0
10
159.920889
20
66.003749
30
0.0
10
161.608145
20
65.641776
30
0.0
10
161.915110
20
65.349797
30
0.0
10
161.995556
20
64.914938
30
0.0
10
161.809386
20
64.387280
30
0.0
10
161.271528
20
63.842325
30
0.0
10
160.412959
20
63.304099
30
0.0
10
159.264655
20
62.796632
30
0.0
10
156.590544
20
61.430609
30
0.0
10
155.378216
20
60.607127
30
0.0
10
154.543481
20
59.872372
30
0.0
10
154.049878
20
59.452411
30
0.0
10
153.540569
20
59.294138
30
0.0
10
153.005636
20
59.397028
30
0.0
10
152.435162
20
59.760556
30
0.0
10
152.435162
20
59.760556
30
0.0
0
LWPOLYLINE
100
AcDbPolyline
8
Layer_1
90
30
70
0
10
147.595449
20
67.779121
30
0.0
10
148.687099
20
68.267293
30
0.0
10
149.763315
20
69.080796
30
0.0
10
150.782253
20
70.181401
30
0.0
10
151.702067
20
71.530879
30
0.0
10
152.350244
20
73.064672
30
0.0
10
152.606186
20
75.299062
30
0.0
10
152.613135
20
77.516867
30
0.0
10
152.430708
20
78.128955
30
0.0
10
152.075936
20
78.722375
30
0.0
10
151.389482
20
79.457544
30
0.0
10
150.485820
20
79.911178
30
0.0
10
149.283506
20
80.108451
30
0.0
10
147.701096
20
80.074533
30
0.0
10
145.958425
20
79.745369
30
0.0
10
144.194770
20
78.845461
30
0.0
10
142.782463
20
77.807107
30
0.0
10
141.542734
20
76.588825
30
0.0
10
140.611393
20
75.344655
30
0.0
10
140.124253
20
74.228635
30
0.0
10
140.084787
20
72.783617
30
0.0
10
140.454023
20
71.166798
30
0.0
10
141.132640
20
69.673021
30
0.0
10
142.021314
20
68.597128
30
0.0
10
142.902026
20
68.070135
30
0.0
10
144.023766
20
67.621053
30
0.0
10
145.116174
20
67.339141
30
0.0
10
145.908889
20
67.313658
30
0.0
10
147.595449
20
67.779121
30
0.0
10
147.595449
20
67.779121
30
0.0
0
LWPOLYLINE
100
AcDbPolyline
8
Layer_1
90
26
70
0
10
319.536657
20
60.183313
30
0.0
10
319.096310
20
60.962518
30
0.0
10
318.871381
20
61.997408
30
0.0
10
318.883170
20
63.076683
30
0.0
10
319.152976
20
63.989043
30
0.0
10
319.869641
20
64.896293
30
0.0
10
320.993999
20
65.882027
30
0.0
10
322.279315
20
66.755843
30
0.0
10
323.478850
20
67.327334
30
0.0
10
324.864536
20
67.662718
30
0.0
10
326.242560
20
67.781007
30
0.0
10
327.450584
20
67.681051
30
0.0
10
328.326270
20
67.361697
30
0.0
10
328.725861
20
66.979557
30
0.0
10
329.006348
20
66.457015
30
0.0
10
329.212607
20
65.122168
30
0.0
10
328.950241
20
63.620039
30
0.0
10
328.224444
20
62.213510
30
0.0
10
326.283518
20
60.688333
30
0.0
10
325.408611
20
60.177133
30
0.0
10
324.634073
20
59.869892
30
0.0
10
322.473518
20
59.608695
30
0.0
10
320.426740
20
59.611900
30
0.0
10
319.948285
20
59.804827
30
0.0
10
319.536657
20
60.183313
30
0.0
10
319.536657
20
60.183313
30
0.0
  0
ENDSEC
  0
SECTION
  2
OBJECTS
  0
DICTIONARY
  5
C
330
0
100
AcDbDictionary
  3
ACAD_GROUP
350
D
  3
ACAD_MLINESTYLE
350
17
  0
DICTIONARY
  5
D
330
C
100
AcDbDictionary
  0
DICTIONARY
  5
1A
330
C
100
AcDbDictionary
  0
DICTIONARY
  5
17
330
C
100
AcDbDictionary
  3
STANDARD
350
18
  0
DICTIONARY
  5
19
330
C
100
AcDbDictionary
  0
ENDSEC
  0
EOF
