999
Inkscape export via OpenSCAD DXF Export
  0
SECTION
  2
HEADER
  9
$ACADVER
  1
AC1014
  9
$HANDSEED
  5
FFFF
  9
$MEASUREMENT
 70
     1
  0
ENDSEC
  0
SECTION
  2
TABLES
  0
TABLE
  2
VPORT
  5
8
330
0
100
AcDbSymbolTable
 70
     4
  0
VPORT
  5
2E
330
8
100
AcDbSymbolTableRecord
100
AcDbViewportTableRecord
  2
*ACTIVE
 70
     0
 10
0.0
 20
0.0
 11
1.0
 21
1.0
 12
210.0
 22
148.5
 13
0.0
 23
0.0
 14
10.0
 24
10.0
 15
10.0
 25
10.0
 16
0.0
 26
0.0
 36
1.0
 17
0.0
 27
0.0
 37
0.0
 40
341.0
 41
1.24
 42
50.0
 43
0.0
 44
0.0
 50
0.0
 51
0.0
 71
     0
 72
   100
 73
     1
 74
     3
 75
     0
 76
     0
 77
     0
 78
     0
  0
ENDTAB
  0
TABLE
  2
LTYPE
  5
5
330
0
100
AcDbSymbolTable
 70
     1
  0
LTYPE
  5
14
330
5
100
AcDbSymbolTableRecord
100
AcDbLinetypeTableRecord
  2
BYBLOCK
 70
     0
  3

 72
    65
 73
     0
 40
0.0
  0
LTYPE
  5
15
330
5
100
AcDbSymbolTableRecord
100
AcDbLinetypeTableRecord
  2
BYLAYER
 70
     0
  3

 72
    65
 73
     0
 40
0.0
  0
LTYPE
  5
16
330
5
100
AcDbSymbolTableRecord
100
AcDbLinetypeTableRecord
  2
CONTINUOUS
 70
     0
  3
Solid line
 72
    65
 73
     0
 40
0.0
  0
ENDTAB
  0
TABLE
0
TABLE
2
LAYER
5
2
330
0
100
AcDbSymbolTable
70
1
0
LAYER
5
10
330
2
100
AcDbSymbolTableRecord
100
AcDbLayerTableRecord
2
Layer_1
70
0
62
7
6
CONTINUOUS
0
ENDTAB
0
ENDSEC
  0
ENDTAB
  0
TABLE
  2
STYLE
  5
3
330
0
100
AcDbSymbolTable
 70
     1
  0
STYLE
  5
11
330
3
100
AcDbSymbolTableRecord
100
AcDbTextStyleTableRecord
  2
STANDARD
 70
     0
 40
0.0
 41
1.0
 50
0.0
 71
     0
 42
2.5
  3
txt
  4

  0
ENDTAB
  0
TABLE
  2
VIEW
  5
6
330
0
100
AcDbSymbolTable
 70
     0
  0
ENDTAB
  0
TABLE
  2
UCS
  5
7
330
0
100
AcDbSymbolTable
 70
     0
  0
ENDTAB
  0
TABLE
  2
APPID
  5
9
330
0
100
AcDbSymbolTable
 70
     2
  0
APPID
  5
12
330
9
100
AcDbSymbolTableRecord
100
AcDbRegAppTableRecord
  2
ACAD
 70
     0
  0
ENDTAB
  0
TABLE
  2
DIMSTYLE
  5
A
330
0
100
AcDbSymbolTable
 70
     1
  0
DIMSTYLE
105
27
330
A
100
AcDbSymbolTableRecord
100
AcDbDimStyleTableRecord
  2
ISO-25
 70
     0
  3

  4

  5

  6

  7

 40
1.0
 41
2.5
 42
0.625
 43
3.75
 44
1.25
 45
0.0
 46
0.0
 47
0.0
 48
0.0
140
2.5
141
2.5
142
0.0
143
0.03937007874016
144
1.0
145
0.0
146
1.0
147
0.625
 71
     0
 72
     0
 73
     0
 74
     0
 75
     0
 76
     0
 77
     1
 78
     8
170
     0
171
     3
172
     1
173
     0
174
     0
175
     0
176
     0
177
     0
178
     0
270
     2
271
     2
272
     2
273
     2
274
     3
340
11
275
     0
280
     0
281
     0
282
     0
283
     0
284
     8
285
     0
286
     0
287
     3
288
     0
  0
ENDTAB
  0
TABLE
  2
BLOCK_RECORD
  5
1
330
0
100
AcDbSymbolTable
 70
     1
  0
BLOCK_RECORD
  5
1F
330
1
100
AcDbSymbolTableRecord
100
AcDbBlockTableRecord
  2
*MODEL_SPACE
  0
BLOCK_RECORD
  5
1B
330
1
100
AcDbSymbolTableRecord
100
AcDbBlockTableRecord
  2
*PAPER_SPACE
  0
ENDTAB
  0
ENDSEC
  0
SECTION
  2
BLOCKS
  0
BLOCK
  5
20
330
1F
100
AcDbEntity
  8
0
100
AcDbBlockBegin
  2
*MODEL_SPACE
 70
     0
 10
0.0
 20
0.0
 30
0.0
  3
*MODEL_SPACE
  1

  0
ENDBLK
  5
21
330
1F
100
AcDbEntity
  8
0
100
AcDbBlockEnd
  0
BLOCK
  5
1C
330
1B
100
AcDbEntity
 67
     1
  8
0
100
AcDbBlockBegin
  2
*PAPER_SPACE
  1

  0
ENDBLK
  5
1D
330
1B
100
AcDbEntity
 67
     1
  8
0
100
AcDbBlockEnd
  0
ENDSEC
  0
SECTION
  2
ENTITIES
0
DIMENSION
5
83
100
AcDbEntity
62
256
370
-1
6
ByLayer
1
total_width
3
Standard
70
0
71
5
72
1
41
1.0
100
AcDbAlignedDimension
13
-0.052955
23
0.000000
33
0.0
14
157.889027
24
0.000000
34
0.0
50
0.000000
100
AcDbRotatedDimension
0
DIMENSION
5
83
100
AcDbEntity
62
256
370
-1
6
ByLayer
1
total_height
3
Standard
70
0
71
5
72
1
41
1.0
100
AcDbAlignedDimension
13
0.000000
23
-0.035642
33
0.0
14
0.000000
24
137.180735
34
0.0
50
90.000000
100
AcDbRotatedDimension
0
DIMENSION
8
Layer_1
5
83
100
AcDbEntity
62
256
370
-1
6
ByLayer
1
Layer_1_width
3
Standard
70
0
71
5
72
1
41
1.0
100
AcDbAlignedDimension
13
-0.052955
23
0.000000
33
0.0
14
157.889027
24
0.000000
34
0.0
50
0.000000
100
AcDbRotatedDimension
0
DIMENSION
8
Layer_1
5
83
100
AcDbEntity
62
256
370
-1
6
ByLayer
1
Layer_1_height
3
Standard
70
0
71
5
72
1
41
1.0
100
AcDbAlignedDimension
13
0.000000
23
-0.035642
33
0.0
14
0.000000
24
137.180735
34
0.0
50
90.000000
100
AcDbRotatedDimension
0
LWPOLYLINE
100
AcDbPolyline
8
Layer_1
90
1179
70
0
10
0.142449
20
1.481667
30
0.0
10
0.398914
20
2.754024
30
0.0
10
0.834475
20
4.040806
30
0.0
10
1.448915
20
5.341687
30
0.0
10
2.242016
20
6.656340
30
0.0
10
4.363327
20
9.325655
30
0.0
10
7.196667
20
12.046142
30
0.0
10
10.064179
20
14.717192
30
0.0
10
12.679322
20
17.482292
30
0.0
10
14.520509
20
19.752134
30
0.0
10
14.987874
20
20.517174
30
0.0
10
15.066154
20
20.937409
30
0.0
10
15.010555
20
21.111176
30
0.0
10
15.162316
20
21.073567
30
0.0
10
15.616732
20
21.160808
30
0.0
10
16.205776
20
21.660014
30
0.0
10
16.715844
20
22.341691
30
0.0
10
16.933333
20
22.976343
30
0.0
10
16.657523
20
23.569429
30
0.0
10
15.733889
20
24.137304
30
0.0
10
15.048683
20
24.483327
30
0.0
10
14.681331
20
24.826103
30
0.0
10
14.518078
20
25.351819
30
0.0
10
14.445174
20
26.246667
30
0.0
10
14.555361
20
28.610701
30
0.0
10
15.010776
20
31.579024
30
0.0
10
15.681773
20
34.476513
30
0.0
10
16.438710
20
36.628045
30
0.0
10
17.757817
20
38.791091
30
0.0
10
19.390352
20
40.510437
30
0.0
10
21.332522
20
41.782911
30
0.0
10
23.580537
20
42.605339
30
0.0
10
24.744771
20
43.111145
30
0.0
10
25.937599
20
43.928050
30
0.0
10
29.280423
20
46.260470
30
0.0
10
31.041665
20
47.493467
30
0.0
10
32.285584
20
48.640836
30
0.0
10
33.161111
20
49.727228
30
0.0
10
33.168449
20
55.273059
30
0.0
10
33.175787
20
60.818889
30
0.0
10
34.226788
20
63.016881
30
0.0
10
35.277778
20
65.667563
30
0.0
10
35.671566
20
66.440146
30
0.0
10
36.618333
20
67.661934
30
0.0
10
38.295159
20
69.628478
30
0.0
10
39.153459
20
70.889460
30
0.0
10
39.467391
20
71.999374
30
0.0
10
39.511111
20
73.512720
30
0.0
10
39.420107
20
75.267890
30
0.0
10
39.178952
20
76.137048
30
0.0
10
38.939203
20
76.891689
30
0.0
10
38.829220
20
78.239603
30
0.0
10
38.990440
20
79.996934
30
0.0
10
39.848618
20
81.703333
30
0.0
10
40.628039
20
83.147508
30
0.0
10
41.143757
20
84.489344
30
0.0
10
41.383163
20
85.686448
30
0.0
10
41.333649
20
86.696429
30
0.0
10
40.293891
20
89.371322
30
0.0
10
39.703815
20
90.937192
30
0.0
10
39.597919
20
92.367721
30
0.0
10
40.011967
20
94.020763
30
0.0
10
40.981720
20
96.254175
30
0.0
10
43.025131
20
101.176667
30
0.0
10
44.353122
20
104.342173
30
0.0
10
45.009664
20
105.851407
30
0.0
10
45.635387
20
108.030650
30
0.0
10
46.140559
20
110.510244
30
0.0
10
46.435450
20
112.920531
30
0.0
10
46.594493
20
114.689775
30
0.0
10
47.087098
20
116.103743
30
0.0
10
48.418124
20
118.109028
30
0.0
10
51.092430
20
121.652225
30
0.0
10
52.504636
20
123.691949
30
0.0
10
53.627356
20
125.603336
30
0.0
10
54.908831
20
127.937157
30
0.0
10
56.122603
20
129.649393
30
0.0
10
57.392104
20
130.886651
30
0.0
10
58.840765
20
131.795534
30
0.0
10
63.209119
20
133.752583
30
0.0
10
66.322222
20
134.820164
30
0.0
10
67.310000
20
134.946218
30
0.0
10
67.905811
20
133.160331
30
0.0
10
69.272285
20
129.618623
30
0.0
10
69.910837
20
128.329583
30
0.0
10
70.442277
20
127.533288
30
0.0
10
72.037222
20
126.399788
30
0.0
10
72.809830
20
125.863958
30
0.0
10
73.095556
20
125.335487
30
0.0
10
73.219783
20
124.798098
30
0.0
10
73.532807
20
124.432288
30
0.0
10
73.945136
20
124.299563
30
0.0
10
74.367280
20
124.461431
30
0.0
10
75.334970
20
125.571244
30
0.0
10
76.501843
20
127.269969
30
0.0
10
77.485178
20
128.955273
30
0.0
10
77.902254
20
130.024825
30
0.0
10
78.216822
20
131.159674
30
0.0
10
78.960588
20
132.785556
30
0.0
10
80.010000
20
134.761111
30
0.0
10
83.356315
20
135.970923
30
0.0
10
86.702629
20
137.180735
30
0.0
10
88.039171
20
135.930558
30
0.0
10
89.172912
20
134.952016
30
0.0
10
90.183869
20
134.292718
30
0.0
10
91.220558
20
133.874512
30
0.0
10
92.431495
20
133.619245
30
0.0
10
93.206848
20
133.458389
30
0.0
10
93.842425
20
133.185199
30
0.0
10
95.265627
20
131.969152
30
0.0
10
97.224982
20
130.126597
30
0.0
10
98.661872
20
129.263845
30
0.0
10
99.111622
20
128.981801
30
0.0
10
99.518664
20
128.511369
30
0.0
10
100.447622
20
126.649601
30
0.0
10
101.672825
20
124.342999
30
0.0
10
103.513297
20
121.899062
30
0.0
10
105.153562
20
120.083024
30
0.0
10
106.131789
20
119.233737
30
0.0
10
107.011341
20
118.583914
30
0.0
10
108.352392
20
117.225448
30
0.0
10
109.806971
20
115.537524
30
0.0
10
111.027108
20
113.899324
30
0.0
10
111.922336
20
112.412109
30
0.0
10
112.591698
20
110.921485
30
0.0
10
113.120522
20
109.198614
30
0.0
10
113.594131
20
107.014653
30
0.0
10
114.094841
20
104.385976
30
0.0
10
116.172976
20
102.122475
30
0.0
10
118.251111
20
99.858974
30
0.0
10
118.251111
20
95.986541
30
0.0
10
118.351946
20
92.530862
30
0.0
10
118.562988
20
91.777902
30
0.0
10
118.956667
20
91.157778
30
0.0
10
119.662222
20
89.856465
30
0.0
10
119.909189
20
89.417406
30
0.0
10
121.010308
20
87.609865
30
0.0
10
122.520007
20
84.313387
30
0.0
10
123.310782
20
82.071631
30
0.0
10
123.944065
20
79.730680
30
0.0
10
124.396034
20
77.393236
30
0.0
10
124.642866
20
75.162001
30
0.0
10
124.825512
20
72.289560
30
0.0
10
125.842200
20
71.629603
30
0.0
10
126.409093
20
71.229634
30
0.0
10
126.701913
20
70.864021
30
0.0
10
126.795852
20
70.364588
30
0.0
10
126.766100
20
69.563158
30
0.0
10
126.551315
20
67.768327
30
0.0
10
126.181175
20
65.980127
30
0.0
10
125.730906
20
64.498384
30
0.0
10
125.275732
20
63.622922
30
0.0
10
124.898941
20
62.943228
30
0.0
10
124.742222
20
62.127240
30
0.0
10
124.630099
20
61.258534
30
0.0
10
124.360525
20
60.452096
30
0.0
10
123.502081
20
57.750673
30
0.0
10
123.043214
20
56.167011
30
0.0
10
122.484351
20
54.783904
30
0.0
10
121.793796
20
53.534570
30
0.0
10
120.939851
20
52.352222
30
0.0
10
119.577186
20
50.348004
30
0.0
10
118.979033
20
49.484020
30
0.0
10
118.173647
20
48.635962
30
0.0
10
116.347265
20
46.529783
30
0.0
10
115.386770
20
45.405809
30
0.0
10
114.303993
20
44.486141
30
0.0
10
113.160566
20
43.626940
30
0.0
10
112.189012
20
42.655097
30
0.0
10
111.325174
20
41.496130
30
0.0
10
110.504899
20
40.075556
30
0.0
10
108.397568
20
36.708472
30
0.0
10
107.766813
20
35.823420
30
0.0
10
107.420491
20
35.135582
30
0.0
10
107.274427
20
34.401954
30
0.0
10
107.244444
20
33.379534
30
0.0
10
107.366787
20
31.794252
30
0.0
10
107.567490
20
31.329064
30
0.0
10
107.903679
20
30.923998
30
0.0
10
108.646863
20
30.418203
30
0.0
10
109.863719
20
29.915382
30
0.0
10
113.735556
20
28.912758
30
0.0
10
115.170711
20
28.481634
30
0.0
10
116.197798
20
27.756162
30
0.0
10
117.013767
20
26.527525
30
0.0
10
117.815569
20
24.586906
30
0.0
10
118.636169
20
22.330066
30
0.0
10
122.606418
20
19.144590
30
0.0
10
128.693333
20
13.958624
30
0.0
10
132.669695
20
10.622682
30
0.0
10
134.571501
20
9.270654
30
0.0
10
136.031111
20
8.419586
30
0.0
10
138.210905
20
7.694527
30
0.0
10
140.224753
20
7.337778
30
0.0
10
140.747468
20
7.163380
30
0.0
10
141.278695
20
6.744084
30
0.0
10
142.226004
20
5.904023
30
0.0
10
143.357863
20
5.291704
30
0.0
10
144.713520
20
4.891145
30
0.0
10
146.332222
20
4.686365
30
0.0
10
148.215621
20
4.442478
30
0.0
10
150.095751
20
3.966237
30
0.0
10
151.880301
20
3.286753
30
0.0
10
153.476963
20
2.433139
30
0.0
10
154.622306
20
1.852541
30
0.0
10
155.665517
20
1.538481
30
0.0
10
157.103676
20
1.101468
30
0.0
10
157.605107
20
0.753953
30
0.0
10
157.889027
20
0.358848
30
0.0
10
155.998936
20
0.187315
30
0.0
10
150.883812
20
0.064296
30
0.0
10
135.210746
20
-0.035642
30
0.0
10
119.334389
20
0.060148
30
0.0
10
113.965150
20
0.181790
30
0.0
10
111.719298
20
0.352781
30
0.0
10
111.215756
20
0.564447
30
0.0
10
110.994052
20
0.352781
30
0.0
10
110.614675
20
0.184506
30
0.0
10
109.506682
20
0.075811
30
0.0
10
104.411492
20
0.000003
30
0.0
10
97.956689
20
0.000003
30
0.0
10
97.771777
20
0.985655
30
0.0
10
97.699548
20
1.827477
30
0.0
10
97.785549
20
2.467322
30
0.0
10
98.339663
20
4.928964
30
0.0
10
99.124383
20
9.454447
30
0.0
10
99.375289
20
11.982774
30
0.0
10
99.350438
20
15.639892
30
0.0
10
99.520957
20
16.442365
30
0.0
10
100.040110
20
17.207557
30
0.0
10
100.543822
20
17.949857
30
0.0
10
100.753331
20
18.689151
30
0.0
10
100.856959
20
19.244640
30
0.0
10
101.106108
20
19.545035
30
0.0
10
101.281719
20
19.765645
30
0.0
10
101.090789
20
20.116403
30
0.0
10
100.605318
20
20.517300
30
0.0
10
99.897305
20
20.888322
30
0.0
10
99.269670
20
21.299066
30
0.0
10
99.055676
20
21.835909
30
0.0
10
98.999546
20
22.231981
30
0.0
10
98.790684
20
22.024557
30
0.0
10
98.481886
20
21.770374
30
0.0
10
97.996671
20
22.095113
30
0.0
10
97.435528
20
22.473610
30
0.0
10
96.933512
20
22.535545
30
0.0
10
96.484682
20
22.279708
30
0.0
10
96.083100
20
21.704887
30
0.0
10
95.831830
20
21.062011
30
0.0
10
95.823154
20
20.674773
30
0.0
10
96.021511
20
20.625086
30
0.0
10
96.391341
20
20.994864
30
0.0
10
96.828709
20
21.381244
30
0.0
10
97.497155
20
21.058468
30
0.0
10
98.159652
20
20.455812
30
0.0
10
98.153759
20
20.166597
30
0.0
10
97.957990
20
19.789391
30
0.0
10
97.477712
20
19.529389
30
0.0
10
96.410089
20
19.595016
30
0.0
10
95.591248
20
19.642445
30
0.0
10
95.132721
20
19.535919
30
0.0
10
95.128688
20
19.337522
30
0.0
10
95.673331
20
19.109340
30
0.0
10
95.968348
20
18.970602
30
0.0
10
96.139396
20
18.672754
30
0.0
10
96.237775
20
17.156122
30
0.0
10
96.083181
20
15.441192
30
0.0
10
95.403162
20
14.034462
30
0.0
10
94.941612
20
13.157537
30
0.0
10
94.830385
20
12.619323
30
0.0
10
95.052209
20
12.519461
30
0.0
10
95.589812
20
12.957596
30
0.0
10
96.747098
20
13.736016
30
0.0
10
97.993223
20
14.111114
30
0.0
10
98.141353
20
14.056531
30
0.0
10
98.111734
20
13.906031
30
0.0
10
97.615779
20
13.396766
30
0.0
10
95.552762
20
12.101607
30
0.0
10
94.284457
20
11.535452
30
0.0
10
93.466947
20
11.337161
30
0.0
10
92.941779
20
11.502892
30
0.0
10
92.550499
20
12.028802
30
0.0
10
91.920385
20
12.759157
30
0.0
10
90.749659
20
13.700467
30
0.0
10
87.284712
20
15.853949
30
0.0
10
85.424842
20
16.929834
30
0.0
10
84.148956
20
17.843286
30
0.0
10
83.343543
20
18.690318
30
0.0
10
82.895090
20
19.566946
30
0.0
10
82.527167
20
20.422848
30
0.0
10
82.188647
20
20.799793
30
0.0
10
81.940688
20
20.671818
30
0.0
10
81.844444
20
20.012962
30
0.0
10
81.717734
20
19.224246
30
0.0
10
81.413090
20
18.617802
30
0.0
10
81.173383
20
18.126880
30
0.0
10
81.246648
20
17.451935
30
0.0
10
81.659135
20
16.505344
30
0.0
10
82.437091
20
15.199481
30
0.0
10
83.143911
20
14.314637
30
0.0
10
83.955629
20
13.656089
30
0.0
10
84.793542
20
13.273509
30
0.0
10
85.578947
20
13.216568
30
0.0
10
86.102693
20
13.126329
30
0.0
10
86.727520
20
12.805838
30
0.0
10
87.253329
20
12.384160
30
0.0
10
87.480021
20
11.990361
30
0.0
10
88.868919
20
9.998498
30
0.0
10
90.071107
20
8.358781
30
0.0
10
91.023564
20
6.811515
30
0.0
10
91.500137
20
5.841106
30
0.0
10
91.575874
20
5.104902
30
0.0
10
91.160395
20
4.154126
30
0.0
10
90.163320
20
2.540000
30
0.0
10
89.010572
20
0.493889
30
0.0
10
88.891330
20
0.340244
30
0.0
10
88.569655
20
0.222137
30
0.0
10
86.793984
20
0.073983
30
0.0
10
75.038196
20
0.000000
30
0.0
10
64.071978
20
0.072354
30
0.0
10
61.872782
20
0.180617
30
0.0
10
61.243430
20
0.352778
30
0.0
10
62.088889
20
1.975556
30
0.0
10
62.685495
20
3.014218
30
0.0
10
62.934348
20
3.728023
30
0.0
10
63.147695
20
4.265837
30
0.0
10
63.659069
20
4.881372
30
0.0
10
64.096767
20
5.359740
30
0.0
10
64.236418
20
6.072401
30
0.0
10
63.597056
20
10.371667
30
0.0
10
63.570159
20
11.128448
30
0.0
10
63.728285
20
11.257387
30
0.0
10
64.033567
20
11.288889
30
0.0
10
64.427464
20
11.385037
30
0.0
10
64.605083
20
11.710055
30
0.0
10
64.346178
20
13.266146
30
0.0
10
64.204580
20
14.029403
30
0.0
10
64.346178
20
14.346134
30
0.0
10
64.628330
20
14.621133
30
0.0
10
64.540715
20
15.089311
30
0.0
10
64.111681
20
15.691916
30
0.0
10
63.369574
20
16.370198
30
0.0
10
62.552195
20
17.086397
30
0.0
10
62.183389
20
17.666626
30
0.0
10
62.228616
20
18.233315
30
0.0
10
62.653333
20
18.908889
30
0.0
10
63.083374
20
19.621861
30
0.0
10
63.132619
20
20.319182
30
0.0
10
62.765832
20
21.172970
30
0.0
10
61.947778
20
22.355342
30
0.0
10
61.056452
20
23.643947
30
0.0
10
60.696879
20
24.369629
30
0.0
10
60.797394
20
24.419071
30
0.0
10
61.012245
20
24.081816
30
0.0
10
61.448562
20
23.610781
30
0.0
10
62.258394
20
23.517372
30
0.0
10
63.006172
20
23.658826
30
0.0
10
63.091826
20
23.837269
30
0.0
10
63.039481
20
24.130000
30
0.0
10
62.292789
20
25.325919
30
0.0
10
61.757844
20
25.754976
30
0.0
10
61.337450
20
25.644142
30
0.0
10
61.038289
20
25.517347
30
0.0
10
60.960000
20
25.916608
30
0.0
10
61.222690
20
27.150610
30
0.0
10
61.651399
20
28.575000
30
0.0
10
61.773418
20
28.981470
30
0.0
10
61.968729
20
29.216569
30
0.0
10
62.856265
20
29.351111
30
0.0
10
63.593055
20
29.280556
30
0.0
10
63.672340
20
29.182689
30
0.0
10
63.578497
20
29.034497
30
0.0
10
63.415590
20
28.723013
30
0.0
10
63.411709
20
28.362388
30
0.0
10
63.544947
20
28.064192
30
0.0
10
63.793398
20
27.940000
30
0.0
10
64.012547
20
28.111988
30
0.0
10
64.212236
20
28.525490
30
0.0
10
64.688030
20
29.090398
30
0.0
10
65.571807
20
29.626351
30
0.0
10
67.329929
20
30.599611
30
0.0
10
67.620404
20
31.000020
30
0.0
10
67.561141
20
31.380560
30
0.0
10
67.386496
20
31.581175
30
0.0
10
67.132095
20
31.618539
30
0.0
10
66.040000
20
31.151768
30
0.0
10
65.049924
20
30.578962
30
0.0
10
65.157386
20
30.495982
30
0.0
10
65.616667
20
30.468113
30
0.0
10
66.214451
20
30.402445
30
0.0
10
65.898889
20
30.197778
30
0.0
10
64.676107
20
29.942366
30
0.0
10
64.269901
20
30.006219
30
0.0
10
64.205556
20
30.197778
30
0.0
10
64.171166
20
30.397097
30
0.0
10
63.843549
20
30.480000
30
0.0
10
63.348108
20
30.755393
30
0.0
10
62.949204
20
31.679444
30
0.0
10
62.631713
20
32.425483
30
0.0
10
62.156485
20
33.160018
30
0.0
10
60.959060
20
34.410953
30
0.0
10
59.809411
20
35.064997
30
0.0
10
59.393902
20
35.053419
30
0.0
10
59.160018
20
34.754899
30
0.0
10
58.849832
20
33.247558
30
0.0
10
58.862307
20
32.375933
30
0.0
10
58.977340
20
32.217394
30
0.0
10
59.158394
20
32.264440
30
0.0
10
59.699045
20
33.037495
30
0.0
10
60.209554
20
33.686544
30
0.0
10
60.765057
20
33.832341
30
0.0
10
61.304566
20
33.486053
30
0.0
10
61.767096
20
32.658846
30
0.0
10
62.026027
20
31.584393
30
0.0
10
61.872491
20
30.815022
30
0.0
10
61.307246
20
30.352031
30
0.0
10
60.331051
20
30.196722
30
0.0
10
59.260090
20
30.050476
30
0.0
10
58.274510
20
29.654784
30
0.0
10
57.486649
20
29.071682
30
0.0
10
57.008841
20
28.363204
30
0.0
10
56.596842
20
27.797390
30
0.0
10
55.745874
20
27.657778
30
0.0
10
54.923548
20
27.777195
30
0.0
10
54.784689
20
27.985875
30
0.0
10
54.751111
20
28.346677
30
0.0
10
54.679355
20
28.868064
30
0.0
10
54.503594
20
29.168379
30
0.0
10
54.283095
20
29.198241
30
0.0
10
54.077122
20
28.908268
30
0.0
10
53.875445
20
28.648813
30
0.0
10
53.627449
20
28.642327
30
0.0
10
53.473780
20
28.642572
30
0.0
10
53.514538
20
28.377992
30
0.0
10
53.464991
20
28.032694
30
0.0
10
52.822407
20
27.940000
30
0.0
10
52.228080
20
27.889881
30
0.0
10
51.879732
20
27.738122
30
0.0
10
51.775025
20
27.482621
30
0.0
10
51.911620
20
27.121276
30
0.0
10
52.215222
20
26.898545
30
0.0
10
52.721109
20
27.064194
30
0.0
10
53.421532
20
27.284093
30
0.0
10
54.288555
20
27.375556
30
0.0
10
55.156542
20
27.221125
30
0.0
10
55.664202
20
26.593808
30
0.0
10
55.909734
20
25.871136
30
0.0
10
55.614316
20
25.369687
30
0.0
10
54.680556
20
24.749181
30
0.0
10
54.312524
20
24.397954
30
0.0
10
54.186667
20
23.713657
30
0.0
10
54.012715
20
22.926930
30
0.0
10
53.514580
20
22.271894
30
0.0
10
52.961217
20
21.495032
30
0.0
10
52.659732
20
20.309803
30
0.0
10
52.455622
20
19.290417
30
0.0
10
52.221534
20
18.774218
30
0.0
10
51.707249
20
18.796316
30
0.0
10
50.829478
20
19.071136
30
0.0
10
49.644876
20
19.382830
30
0.0
10
48.242161
20
19.044071
30
0.0
10
46.955534
20
18.728528
30
0.0
10
46.118613
20
18.868799
30
0.0
10
45.719725
20
19.141712
30
0.0
10
45.627695
20
19.565071
30
0.0
10
45.861400
20
20.292162
30
0.0
10
46.439717
20
21.476273
30
0.0
10
46.707445
20
22.166216
30
0.0
10
46.724884
20
22.691148
30
0.0
10
46.498351
20
23.025130
30
0.0
10
46.034161
20
23.142222
30
0.0
10
44.994080
20
23.347679
30
0.0
10
44.697129
20
23.580291
30
0.0
10
44.591111
20
23.877973
30
0.0
10
44.736191
20
24.156895
30
0.0
10
45.085000
20
24.275432
30
0.0
10
45.638509
20
24.357828
30
0.0
10
46.014537
20
24.580366
30
0.0
10
46.193175
20
24.922770
30
0.0
10
46.154515
20
25.364765
30
0.0
10
45.800191
20
25.835345
30
0.0
10
45.012082
20
25.964444
30
0.0
10
44.257218
20
26.042040
30
0.0
10
43.924468
20
26.253283
30
0.0
10
44.027976
20
26.565858
30
0.0
10
44.581882
20
26.947450
30
0.0
10
45.259355
20
27.474842
30
0.0
10
45.437778
20
28.239398
30
0.0
10
45.529039
20
28.895357
30
0.0
10
45.974011
20
28.801766
30
0.0
10
46.432199
20
28.669681
30
0.0
10
46.679567
20
28.956028
30
0.0
10
46.824111
20
29.669655
30
0.0
10
46.837463
20
30.539307
30
0.0
10
46.732347
20
31.334162
30
0.0
10
46.521489
20
31.823400
30
0.0
10
46.467653
20
32.242992
30
0.0
10
46.869561
20
32.723885
30
0.0
10
47.549700
20
33.121894
30
0.0
10
48.330556
20
33.292833
30
0.0
10
48.953187
20
33.421753
30
0.0
10
49.063776
20
33.756084
30
0.0
10
48.677822
20
34.249249
30
0.0
10
47.810824
20
34.854670
30
0.0
10
46.793851
20
35.585569
30
0.0
10
46.657356
20
35.883960
30
0.0
10
46.700313
20
36.222043
30
0.0
10
46.937823
20
37.535556
30
0.0
10
47.006125
20
37.915315
30
0.0
10
47.200930
20
38.139682
30
0.0
10
48.330556
20
38.327130
30
0.0
10
49.570045
20
38.593748
30
0.0
10
49.665011
20
38.818060
30
0.0
10
49.388889
20
39.087778
30
0.0
10
49.189569
20
39.582902
30
0.0
10
49.106667
20
40.528373
30
0.0
10
48.957479
20
41.676004
30
0.0
10
48.401111
20
42.500101
30
0.0
10
47.695556
20
43.333938
30
0.0
10
48.648911
20
43.462222
30
0.0
10
49.478145
20
43.313279
30
0.0
10
50.026449
20
42.827222
30
0.0
10
50.473223
20
42.344623
30
0.0
10
51.048649
20
42.729853
30
0.0
10
51.489375
20
43.183845
30
0.0
10
51.600560
20
43.495842
30
0.0
10
51.371443
20
43.714249
30
0.0
10
50.791260
20
43.887475
30
0.0
10
49.935855
20
44.075353
30
0.0
10
51.073482
20
44.899447
30
0.0
10
51.876933
20
45.597409
30
0.0
10
52.211111
20
46.118249
30
0.0
10
52.265966
20
46.296299
30
0.0
10
52.445715
20
46.394122
30
0.0
10
53.271005
20
46.370793
30
0.0
10
54.113669
20
46.387896
30
0.0
10
54.752093
20
46.702780
30
0.0
10
55.201490
20
47.328602
30
0.0
10
55.477077
20
48.278519
30
0.0
10
55.534070
20
48.899563
30
0.0
10
55.486430
20
48.975742
30
0.0
10
55.389094
20
48.888331
30
0.0
10
55.078360
20
48.723560
30
0.0
10
54.616037
20
49.099998
30
0.0
10
54.118779
20
49.505190
30
0.0
10
53.649036
20
49.677388
30
0.0
10
53.451885
20
49.799351
30
0.0
10
53.879854
20
50.207161
30
0.0
10
54.560817
20
50.730658
30
0.0
10
53.268318
20
52.388107
30
0.0
10
52.365277
20
53.715959
30
0.0
10
51.772529
20
54.979852
30
0.0
10
51.495658
20
56.164070
30
0.0
10
51.540246
20
57.252895
30
0.0
10
51.665543
20
57.726838
30
0.0
10
51.855062
20
57.994244
30
0.0
10
52.740278
20
58.141630
30
0.0
10
53.978500
20
58.195451
30
0.0
10
54.639379
20
58.433992
30
0.0
10
54.873031
20
58.990714
30
0.0
10
54.829575
20
59.999081
30
0.0
10
54.672143
20
61.524444
30
0.0
10
55.682749
20
61.524444
30
0.0
10
56.396096
20
61.585524
30
0.0
10
56.795132
20
61.758094
30
0.0
10
56.862902
20
62.026151
30
0.0
10
56.582448
20
62.373691
30
0.0
10
56.282187
20
62.766497
30
0.0
10
56.181629
20
63.276103
30
0.0
10
56.280775
20
63.895473
30
0.0
10
56.579626
20
64.617575
30
0.0
10
56.843660
20
65.423598
30
0.0
10
56.718982
20
66.226337
30
0.0
10
56.640315
20
67.369582
30
0.0
10
57.108451
20
69.449871
30
0.0
10
57.588753
20
71.533899
30
0.0
10
57.567519
20
72.038533
30
0.0
10
57.392426
20
72.396590
30
0.0
10
57.121497
20
72.947338
30
0.0
10
57.008810
20
73.534770
30
0.0
10
56.839290
20
74.183602
30
0.0
10
56.431722
20
74.881971
30
0.0
10
56.038020
20
75.714977
30
0.0
10
55.824378
20
76.957073
30
0.0
10
55.794675
20
78.562846
30
0.0
10
55.952794
20
80.486879
30
0.0
10
56.026759
20
81.861818
30
0.0
10
55.883298
20
82.128095
30
0.0
10
55.587273
20
82.271085
30
0.0
10
55.233832
20
82.490859
30
0.0
10
55.240823
20
82.781987
30
0.0
10
55.738810
20
84.663387
30
0.0
10
56.079820
20
85.910766
30
0.0
10
56.298828
20
86.191932
30
0.0
10
56.585477
20
86.313558
30
0.0
10
57.389624
20
86.641206
30
0.0
10
57.542098
20
87.027746
30
0.0
10
57.394643
20
87.509317
30
0.0
10
57.006018
20
87.981391
30
0.0
10
56.434982
20
88.339442
30
0.0
10
55.838079
20
88.727969
30
0.0
10
55.597778
20
89.178401
30
0.0
10
55.781729
20
89.848907
30
0.0
10
56.259198
20
90.484896
30
0.0
10
56.918612
20
90.975778
30
0.0
10
57.648396
20
91.210960
30
0.0
10
58.362840
20
91.417704
30
0.0
10
58.674750
20
91.768632
30
0.0
10
58.547105
20
92.122197
30
0.0
10
57.942884
20
92.336857
30
0.0
10
57.325253
20
92.563671
30
0.0
10
57.073985
20
93.018906
30
0.0
10
57.196635
20
93.639376
30
0.0
10
57.700757
20
94.361895
30
0.0
10
58.262244
20
95.246084
30
0.0
10
58.601943
20
96.288420
30
0.0
10
58.868822
20
97.193428
30
0.0
10
59.308721
20
97.578113
30
0.0
10
59.659013
20
97.706520
30
0.0
10
59.840872
20
98.054138
30
0.0
10
59.956672
20
100.612222
30
0.0
10
60.127168
20
102.680802
30
0.0
10
60.365870
20
103.367769
30
0.0
10
60.764409
20
104.069444
30
0.0
10
61.516969
20
105.000685
30
0.0
10
62.233539
20
105.268889
30
0.0
10
62.695133
20
105.187308
30
0.0
10
62.894880
20
104.946892
30
0.0
10
62.831384
20
104.554128
30
0.0
10
62.503248
20
104.015503
30
0.0
10
62.223844
20
103.518168
30
0.0
10
62.104320
20
103.019513
30
0.0
10
62.150409
20
102.591871
30
0.0
10
62.367846
20
102.307573
30
0.0
10
62.855975
20
102.418096
30
0.0
10
63.637837
20
102.925917
30
0.0
10
64.443561
20
103.773650
30
0.0
10
64.628880
20
104.812160
30
0.0
10
64.628889
20
105.907654
30
0.0
10
65.757778
20
105.756239
30
0.0
10
66.467384
20
105.706589
30
0.0
10
66.820895
20
105.796401
30
0.0
10
66.819236
20
106.026517
30
0.0
10
66.463333
20
106.397778
30
0.0
10
66.115460
20
106.846989
30
0.0
10
66.041589
20
107.306644
30
0.0
10
66.226497
20
107.664644
30
0.0
10
66.654962
20
107.808889
30
0.0
10
68.197143
20
108.144175
30
0.0
10
69.061904
20
108.335652
30
0.0
10
69.769403
20
108.165031
30
0.0
10
71.486773
20
107.464987
30
0.0
10
73.333838
20
106.987950
30
0.0
10
75.371240
20
106.722326
30
0.0
10
77.659622
20
106.656522
30
0.0
10
80.054795
20
106.607132
30
0.0
10
81.122455
20
106.424374
30
0.0
10
82.221489
20
105.695085
30
0.0
10
83.594265
20
105.268897
30
0.0
10
84.112935
20
105.514537
30
0.0
10
84.609237
20
106.113780
30
0.0
10
85.065278
20
106.696049
30
0.0
10
85.651741
20
106.924399
30
0.0
10
86.498011
20
106.809034
30
0.0
10
87.733477
20
106.360158
30
0.0
10
88.547167
20
105.998813
30
0.0
10
88.979915
20
105.688799
30
0.0
10
89.151630
20
105.289384
30
0.0
10
89.182222
20
104.659839
30
0.0
10
89.315339
20
103.718188
30
0.0
10
89.887778
20
103.293342
30
0.0
10
90.360175
20
103.097416
30
0.0
10
90.541990
20
102.868299
30
0.0
10
90.138834
20
101.604417
30
0.0
10
89.851386
20
100.500997
30
0.0
10
89.850600
20
99.500955
30
0.0
10
90.110753
20
98.775428
30
0.0
10
90.606121
20
98.495556
30
0.0
10
90.995729
20
98.578458
30
0.0
10
91.157778
20
98.777778
30
0.0
10
91.295053
20
99.034892
30
0.0
10
91.663223
20
99.015536
30
0.0
10
92.830309
20
98.232767
30
0.0
10
93.492779
20
97.431082
30
0.0
10
93.586927
20
96.694487
30
0.0
10
93.680268
20
95.931931
30
0.0
10
94.278933
20
95.052275
30
0.0
10
94.860045
20
94.260741
30
0.0
10
95.104382
20
93.665283
30
0.0
10
95.274547
20
93.131099
30
0.0
10
95.677259
20
92.486886
30
0.0
10
97.072574
20
90.097604
30
0.0
10
98.338648
20
88.066443
30
0.0
10
98.675681
20
87.368813
30
0.0
10
98.777778
20
85.904502
30
0.0
10
98.884325
20
84.379770
30
0.0
10
99.056394
20
84.004074
30
0.0
10
99.342222
20
83.754505
30
0.0
10
99.747274
20
83.322638
30
0.0
10
99.887641
20
82.780088
30
0.0
10
99.761664
20
82.250637
30
0.0
10
99.367679
20
81.858067
30
0.0
10
99.044808
20
81.499301
30
0.0
10
98.969898
20
81.024677
30
0.0
10
99.126698
20
80.610564
30
0.0
10
99.498957
20
80.433333
30
0.0
10
99.821754
20
80.074261
30
0.0
10
100.057314
20
79.092778
30
0.0
10
100.346306
20
77.505531
30
0.0
10
100.774615
20
75.998120
30
0.0
10
102.160629
20
72.894396
30
0.0
10
103.293333
20
70.449220
30
0.0
10
103.401602
20
69.994374
30
0.0
10
103.719481
20
69.726762
30
0.0
10
104.236582
20
69.650661
30
0.0
10
104.942516
20
69.770346
30
0.0
10
105.732223
20
70.065039
30
0.0
10
106.181790
20
70.375306
30
0.0
10
106.372455
20
70.882923
30
0.0
10
106.366143
20
71.427790
30
0.0
10
106.180541
20
71.914811
30
0.0
10
105.833333
20
72.248889
30
0.0
10
105.396985
20
72.723545
30
0.0
10
105.268889
20
73.613484
30
0.0
10
105.347409
20
74.414889
30
0.0
10
105.597693
20
74.954123
30
0.0
10
106.041825
20
75.258000
30
0.0
10
106.701889
20
75.353333
30
0.0
10
107.455878
20
75.473740
30
0.0
10
107.851562
20
75.816776
30
0.0
10
107.875941
20
76.355163
30
0.0
10
107.516016
20
77.061624
30
0.0
10
107.043529
20
77.977952
30
0.0
10
107.252666
20
79.047128
30
0.0
10
107.648916
20
79.868730
30
0.0
10
108.106089
20
80.151111
30
0.0
10
108.501961
20
80.282613
30
0.0
10
108.766951
20
80.598778
30
0.0
10
108.699060
20
81.016864
30
0.0
10
108.087298
20
81.367828
30
0.0
10
107.392871
20
81.803368
30
0.0
10
107.310707
20
82.684050
30
0.0
10
107.254818
20
83.518484
30
0.0
10
107.065221
20
83.688577
30
0.0
10
106.725703
20
83.772330
30
0.0
10
106.224436
20
83.978897
30
0.0
10
106.238325
20
84.552951
30
0.0
10
106.240322
20
85.153958
30
0.0
10
105.733365
20
85.497690
30
0.0
10
105.157359
20
85.943157
30
0.0
10
104.735551
20
86.674300
30
0.0
10
104.008801
20
88.042380
30
0.0
10
103.665808
20
88.709680
30
0.0
10
103.411813
20
89.683483
30
0.0
10
103.343490
20
90.647798
30
0.0
10
103.451919
20
90.827399
30
0.0
10
103.670667
20
90.875556
30
0.0
10
104.076844
20
90.709750
30
0.0
10
104.422222
20
90.311111
30
0.0
10
104.793918
20
89.905236
30
0.0
10
105.254231
20
89.764718
30
0.0
10
105.684691
20
89.891399
30
0.0
10
105.966827
20
90.287122
30
0.0
10
106.054838
20
90.970159
30
0.0
10
105.931699
20
91.616328
30
0.0
10
105.643990
20
92.097783
30
0.0
10
105.238293
20
92.286678
30
0.0
10
104.853766
20
92.368634
30
0.0
10
104.730645
20
92.616402
30
0.0
10
105.268889
20
93.620779
30
0.0
10
105.667528
20
94.303984
30
0.0
10
105.833333
20
94.938926
30
0.0
10
106.011218
20
95.449301
30
0.0
10
106.468333
20
95.818088
30
0.0
10
106.785913
20
96.014212
30
0.0
10
106.993767
20
96.308627
30
0.0
10
107.189352
20
97.437234
30
0.0
10
107.348436
20
98.438793
30
0.0
10
107.650325
20
98.777789
30
0.0
10
108.027526
20
98.952869
30
0.0
10
108.165619
20
99.388384
30
0.0
10
108.060193
20
99.949741
30
0.0
10
107.706837
20
100.502353
30
0.0
10
106.653981
20
101.807948
30
0.0
10
106.117415
20
102.764178
30
0.0
10
106.962222
20
103.109900
30
0.0
10
107.602685
20
103.325357
30
0.0
10
107.781171
20
103.571488
30
0.0
10
107.512638
20
103.773798
30
0.0
10
106.812046
20
103.857789
30
0.0
10
105.804484
20
103.984617
30
0.0
10
104.781866
20
104.289544
30
0.0
10
103.876543
20
104.580129
30
0.0
10
103.665525
20
104.505455
30
0.0
10
103.503586
20
104.283617
30
0.0
10
103.244407
20
104.007341
30
0.0
10
102.993453
20
104.031166
30
0.0
10
102.803891
20
104.317642
30
0.0
10
102.728889
20
104.829316
30
0.0
10
102.879205
20
105.356867
30
0.0
10
103.316732
20
105.639023
30
0.0
10
103.763668
20
105.934258
30
0.0
10
103.817338
20
106.624433
30
0.0
10
103.871015
20
107.350728
30
0.0
10
104.122573
20
107.929022
30
0.0
10
104.347502
20
108.347019
30
0.0
10
103.930724
20
108.554726
30
0.0
10
103.443648
20
108.914010
30
0.0
10
103.159453
20
109.704074
30
0.0
10
102.654755
20
111.209408
30
0.0
10
102.481089
20
111.769017
30
0.0
10
102.674059
20
112.457944
30
0.0
10
102.922559
20
113.319094
30
0.0
10
102.999061
20
114.285908
30
0.0
10
102.905596
20
115.140330
30
0.0
10
102.644194
20
115.664308
30
0.0
10
101.484145
20
117.744975
30
0.0
10
100.488244
20
119.443778
30
0.0
10
99.362728
20
120.450434
30
0.0
10
98.773754
20
120.681781
30
0.0
10
98.179243
20
120.725181
30
0.0
10
97.588150
20
120.575664
30
0.0
10
97.009433
20
120.228260
30
0.0
10
96.486909
20
119.711349
30
0.0
10
96.265612
20
119.258640
30
0.0
10
96.356874
20
118.937565
30
0.0
10
96.772027
20
118.815556
30
0.0
10
97.122581
20
118.691403
30
0.0
10
97.442849
20
118.401823
30
0.0
10
97.630944
20
118.071132
30
0.0
10
97.584977
20
117.823647
30
0.0
10
95.673243
20
116.836428
30
0.0
10
94.538121
20
116.437505
30
0.0
10
93.717779
20
116.275556
30
0.0
10
92.745509
20
116.275556
30
0.0
10
93.537984
20
117.102722
30
0.0
10
93.969868
20
117.603758
30
0.0
10
94.192882
20
118.085047
30
0.0
10
94.212404
20
119.783939
30
0.0
10
93.949688
20
121.506187
30
0.0
10
93.634392
20
122.075574
30
0.0
10
93.102842
20
122.696216
30
0.0
10
91.241434
20
124.983259
30
0.0
10
90.757949
20
125.863942
30
0.0
10
90.593333
20
126.537678
30
0.0
10
90.477807
20
127.129195
30
0.0
10
90.171224
20
127.638075
30
0.0
10
89.733577
20
127.994559
30
0.0
10
89.224860
20
128.128889
30
0.0
10
88.645948
20
128.262087
30
0.0
10
88.089813
20
128.607552
30
0.0
10
87.654397
20
129.084091
30
0.0
10
87.437637
20
129.610511
30
0.0
10
87.336936
20
129.936421
30
0.0
10
87.102181
20
130.158096
30
0.0
10
85.966385
20
130.437141
30
0.0
10
84.645541
20
130.759165
30
0.0
10
83.409719
20
131.257261
30
0.0
10
82.320173
20
131.669053
30
0.0
10
81.431293
20
131.649903
30
0.0
10
80.757456
20
131.204089
30
0.0
10
80.313039
20
130.335890
30
0.0
10
79.865376
20
129.345714
30
0.0
10
79.214624
20
128.376913
30
0.0
10
76.282169
20
124.696261
30
0.0
10
74.460820
20
122.154038
30
0.0
10
73.794292
20
121.182917
30
0.0
10
73.500083
20
121.166766
30
0.0
10
73.066947
20
121.370866
30
0.0
10
72.034988
20
122.037144
30
0.0
10
71.097005
20
122.869300
30
0.0
10
70.289003
20
123.830356
30
0.0
10
69.646986
20
124.883333
30
0.0
10
68.662980
20
126.463686
30
0.0
10
68.228230
20
126.865028
30
0.0
10
67.837758
20
127.000000
30
0.0
10
67.592480
20
126.801163
30
0.0
10
67.634556
20
126.153333
30
0.0
10
67.652579
20
125.434727
30
0.0
10
66.972840
20
125.306667
30
0.0
10
66.206553
20
125.484064
30
0.0
10
65.556491
20
125.979820
30
0.0
10
65.207500
20
126.330063
30
0.0
10
64.865007
20
126.503160
30
0.0
10
63.750579
20
126.429769
30
0.0
10
62.858650
20
126.182519
30
0.0
10
62.428278
20
125.901502
30
0.0
10
61.825101
20
124.977125
30
0.0
10
61.261951
20
124.513080
30
0.0
10
60.429047
20
124.728350
30
0.0
10
59.607242
20
124.954355
30
0.0
10
59.047798
20
124.659174
30
0.0
10
58.378872
20
124.321777
30
0.0
10
57.454038
20
124.128063
30
0.0
10
56.723895
20
123.977741
30
0.0
10
56.282283
20
123.719188
30
0.0
10
56.203561
20
123.430593
30
0.0
10
56.562086
20
123.190148
30
0.0
10
57.389856
20
122.914502
30
0.0
10
57.697235
20
122.714916
30
0.0
10
57.513462
20
122.491272
30
0.0
10
56.867778
20
122.143452
30
0.0
10
54.327778
20
120.402545
30
0.0
10
51.918805
20
118.733124
30
0.0
10
51.102781
20
118.197737
30
0.0
10
50.542108
20
117.620752
30
0.0
10
50.347029
20
117.008999
30
0.0
10
50.904973
20
116.376164
30
0.0
10
51.425215
20
115.813569
30
0.0
10
51.615190
20
115.317511
30
0.0
10
51.473831
20
114.907899
30
0.0
10
51.000067
20
114.604638
30
0.0
10
49.977734
20
113.906067
30
0.0
10
49.598168
20
113.586324
30
0.0
10
49.213222
20
113.453333
30
0.0
10
48.938648
20
113.292245
30
0.0
10
48.824444
20
112.904946
30
0.0
10
47.997943
20
109.871058
30
0.0
10
46.715604
20
105.127778
30
0.0
10
46.000089
20
102.135993
30
0.0
10
45.359328
20
100.559706
30
0.0
10
45.271001
20
100.159918
30
0.0
10
45.418194
20
99.661037
30
0.0
10
45.698466
20
98.990261
30
0.0
10
45.685438
20
98.542010
30
0.0
10
45.367296
20
98.291346
30
0.0
10
44.732222
20
98.213333
30
0.0
10
44.034604
20
98.130431
30
0.0
10
43.744444
20
97.931111
30
0.0
10
43.827347
20
97.731792
30
0.0
10
44.026667
20
97.648889
30
0.0
10
44.212029
20
97.569766
30
0.0
10
44.315531
20
97.354483
30
0.0
10
44.301080
20
96.647951
30
0.0
10
44.031553
20
95.794326
30
0.0
10
43.555192
20
95.058639
30
0.0
10
42.988334
20
94.317089
30
0.0
10
43.022731
20
94.065375
30
0.0
10
43.239588
20
93.773196
30
0.0
10
43.674873
20
93.146331
30
0.0
10
43.854299
20
92.519916
30
0.0
10
43.781707
20
91.847258
30
0.0
10
43.460935
20
91.081665
30
0.0
10
43.027951
20
90.162630
30
0.0
10
42.906051
20
89.583323
30
0.0
10
43.097192
20
89.319909
30
0.0
10
43.603333
20
89.348553
30
0.0
10
44.195830
20
89.356686
30
0.0
10
44.308889
20
88.648373
30
0.0
10
44.436190
20
87.929393
30
0.0
10
45.014444
20
87.771111
30
0.0
10
45.528881
20
87.613279
30
0.0
10
45.729545
20
87.231960
30
0.0
10
45.604162
20
86.765418
30
0.0
10
45.140454
20
86.351917
30
0.0
10
44.469746
20
85.800010
30
0.0
10
43.938910
20
84.979650
30
0.0
10
43.589552
20
83.977011
30
0.0
10
43.463278
20
82.878264
30
0.0
10
43.332043
20
81.676092
30
0.0
10
43.079576
20
81.405628
30
0.0
10
42.623099
20
81.196459
30
0.0
10
41.864505
20
80.738353
30
0.0
10
41.551913
20
80.207940
30
0.0
10
41.711275
20
79.769338
30
0.0
10
42.368543
20
79.586667
30
0.0
10
43.015831
20
79.682830
30
0.0
10
43.590488
20
79.984245
30
0.0
10
44.118345
20
80.510299
30
0.0
10
44.625235
20
81.280378
30
0.0
10
45.263961
20
82.148040
30
0.0
10
45.913080
20
82.408889
30
0.0
10
46.388032
20
82.298506
30
0.0
10
46.540062
20
81.951533
30
0.0
10
46.368690
20
81.344228
30
0.0
10
45.873436
20
80.452855
30
0.0
10
45.139339
20
79.578922
30
0.0
10
44.321214
20
79.166040
30
0.0
10
43.678348
20
78.897083
30
0.0
10
43.462222
20
78.469594
30
0.0
10
43.230944
20
78.009596
30
0.0
10
42.644311
20
77.623021
30
0.0
10
41.998497
20
77.178336
30
0.0
10
41.682918
20
76.530448
30
0.0
10
41.354810
20
75.202028
30
0.0
10
41.418589
20
74.506010
30
0.0
10
42.033980
20
73.540445
30
0.0
10
42.615893
20
72.729280
30
0.0
10
42.850308
20
72.138003
30
0.0
10
42.750604
20
71.660474
30
0.0
10
42.330158
20
71.190556
30
0.0
10
40.213492
20
69.171098
30
0.0
10
39.224720
20
68.085834
30
0.0
10
38.739392
20
67.197779
30
0.0
10
38.710120
20
66.346793
30
0.0
10
39.089516
20
65.372739
30
0.0
10
39.418134
20
64.628258
30
0.0
10
39.480071
20
64.136625
30
0.0
10
39.268987
20
63.865419
30
0.0
10
38.778544
20
63.782222
30
0.0
10
38.079864
20
63.649689
30
0.0
10
37.300984
20
63.328527
30
0.0
10
36.667914
20
62.933395
30
0.0
10
36.406667
20
62.578948
30
0.0
10
37.182778
20
61.660938
30
0.0
10
38.104972
20
61.117424
30
0.0
10
39.440556
20
60.968918
30
0.0
10
40.486983
20
60.907725
30
0.0
10
40.922222
20
60.773129
30
0.0
10
40.236795
20
59.416662
30
0.0
10
39.781081
20
58.432693
30
0.0
10
39.809138
20
57.839644
30
0.0
10
40.038784
20
57.262264
30
0.0
10
39.948220
20
56.667819
30
0.0
10
39.501941
20
55.970905
30
0.0
10
38.664444
20
55.086120
30
0.0
10
37.559066
20
53.840930
30
0.0
10
37.325801
20
53.359580
30
0.0
10
37.257654
20
52.897995
30
0.0
10
37.329577
20
52.140116
30
0.0
10
37.541406
20
51.661455
30
0.0
10
37.901331
20
51.452156
30
0.0
10
38.417542
20
51.502364
30
0.0
10
38.894905
20
51.575026
30
0.0
10
38.311667
20
50.956698
30
0.0
10
37.760622
20
50.227169
30
0.0
10
37.535556
20
49.518578
30
0.0
10
37.418385
20
49.001790
30
0.0
10
37.076944
20
48.824444
30
0.0
10
36.747148
20
48.644310
30
0.0
10
36.796399
20
47.934121
30
0.0
10
37.325565
20
46.617475
30
0.0
10
37.510548
20
46.440240
30
0.0
10
37.638016
20
46.468947
30
0.0
10
37.817778
20
47.274074
30
0.0
10
37.997699
20
47.993801
30
0.0
10
38.271626
20
48.419252
30
0.0
10
38.572050
20
48.491883
30
0.0
10
38.831461
20
48.153148
30
0.0
10
38.824194
20
47.593779
30
0.0
10
38.571765
20
46.861180
30
0.0
10
38.286543
20
46.103994
30
0.0
10
38.589320
20
45.756435
30
0.0
10
38.865969
20
45.443665
30
0.0
10
38.845911
20
45.017825
30
0.0
10
38.508029
20
44.666649
30
0.0
10
37.743977
20
44.709605
30
0.0
10
36.164441
20
44.882903
30
0.0
10
35.438074
20
45.092707
30
0.0
10
34.626327
20
45.608796
30
0.0
10
33.753778
20
46.342997
30
0.0
10
33.387507
20
45.285045
30
0.0
10
32.703841
20
43.844659
30
0.0
10
32.527929
20
43.547538
30
0.0
10
32.703276
20
43.462222
30
0.0
10
33.022951
20
43.329777
30
0.0
10
32.923611
20
42.975609
30
0.0
10
32.448261
20
42.464473
30
0.0
10
31.639908
20
41.861122
30
0.0
10
30.565621
20
40.990987
30
0.0
10
30.070380
20
40.170614
30
0.0
10
29.701418
20
39.303532
30
0.0
10
29.209229
20
38.969382
30
0.0
10
28.664521
20
39.176805
30
0.0
10
28.138002
20
39.934444
30
0.0
10
27.736597
20
40.632062
30
0.0
10
27.432976
20
40.922222
30
0.0
10
26.387831
20
40.075556
30
0.0
10
25.529672
20
39.413350
30
0.0
10
24.549781
20
39.228889
30
0.0
10
23.605083
20
39.062964
30
0.0
10
22.850530
20
38.513196
30
0.0
10
22.470158
20
38.084128
30
0.0
10
22.328403
20
37.764213
30
0.0
10
22.706931
20
36.815655
30
0.0
10
23.188509
20
36.019654
30
0.0
10
23.649644
20
35.529832
30
0.0
10
24.187285
20
35.273789
30
0.0
10
24.898380
20
35.179127
30
0.0
10
25.642466
20
35.255339
30
0.0
10
25.823333
20
35.701111
30
0.0
10
25.768953
20
35.990837
30
0.0
10
25.567595
20
36.186319
30
0.0
10
24.494640
20
36.418322
30
0.0
10
22.973832
20
36.763206
30
0.0
10
23.057374
20
37.000567
30
0.0
10
23.592222
20
37.253098
30
0.0
10
25.231961
20
37.535556
30
0.0
10
26.028827
20
37.684525
30
0.0
10
26.477537
20
38.241111
30
0.0
10
26.891552
20
38.771841
30
0.0
10
27.493960
20
38.946667
30
0.0
10
28.075923
20
38.850688
30
0.0
10
28.375629
20
38.597826
30
0.0
10
28.367896
20
38.240696
30
0.0
10
28.027539
20
37.831911
30
0.0
10
27.627577
20
37.378121
30
0.0
10
27.360835
20
36.812141
30
0.0
10
27.209431
20
35.568045
30
0.0
10
27.538165
20
34.548484
30
0.0
10
27.871595
20
34.263174
30
0.0
10
28.311873
20
34.202319
30
0.0
10
28.639607
20
34.293634
30
0.0
10
28.817203
20
34.517548
30
0.0
10
28.866293
20
35.771667
30
0.0
10
28.804805
20
37.253333
30
0.0
10
29.680597
20
37.253333
30
0.0
10
30.499752
20
37.433408
30
0.0
10
31.210273
20
37.958889
30
0.0
10
31.803104
20
38.473896
30
0.0
10
32.307818
20
38.624621
30
0.0
10
32.750388
20
38.409294
30
0.0
10
33.156785
20
37.826143
30
0.0
10
33.955521
20
36.841847
30
0.0
10
34.421127
20
36.525501
30
0.0
10
34.835891
20
36.406667
30
0.0
10
34.978113
20
36.711273
30
0.0
10
34.965617
20
37.465895
30
0.0
10
34.564083
20
39.370000
30
0.0
10
34.153803
20
40.946689
30
0.0
10
34.170902
20
42.147334
30
0.0
10
34.601678
20
42.911813
30
0.0
10
34.967912
20
43.111701
30
0.0
10
35.432427
20
43.180000
30
0.0
10
36.170475
20
43.096476
30
0.0
10
36.533549
20
42.838392
30
0.0
10
36.527375
20
42.394484
30
0.0
10
36.157682
20
41.753485
30
0.0
10
35.560000
20
40.792538
30
0.0
10
35.689347
20
40.641976
30
0.0
10
35.999000
20
40.655725
30
0.0
10
36.688889
20
41.063333
30
0.0
10
37.114213
20
41.427699
30
0.0
10
37.468440
20
41.417357
30
0.0
10
37.745657
20
41.035975
30
0.0
10
37.939949
20
40.287222
30
0.0
10
37.969683
20
39.161399
30
0.0
10
37.734908
20
38.788981
30
0.0
10
37.270464
20
38.361668
30
0.0
10
36.736490
20
37.810224
30
0.0
10
36.452112
20
37.295016
30
0.0
10
36.438170
20
36.880963
30
0.0
10
36.715505
20
36.632981
30
0.0
10
36.958631
20
35.192587
30
0.0
10
37.068283
20
31.035571
30
0.0
10
37.112222
20
25.541111
30
0.0
10
35.656596
20
22.577778
30
0.0
10
34.515228
20
19.940705
30
0.0
10
33.908184
20
17.858359
30
0.0
10
33.494256
20
16.298873
30
0.0
10
32.894366
20
15.041180
30
0.0
10
32.356746
20
14.044946
30
0.0
10
32.179228
20
13.193396
30
0.0
10
32.361692
20
12.523632
30
0.0
10
32.904018
20
12.072758
30
0.0
10
33.715929
20
11.914692
30
0.0
10
34.809018
20
12.361816
30
0.0
10
36.178423
20
12.852909
30
0.0
10
38.085900
20
12.983007
30
0.0
10
39.628612
20
13.052958
30
0.0
10
39.906031
20
13.146912
30
0.0
10
39.885267
20
13.285411
30
0.0
10
39.808006
20
13.515727
30
0.0
10
39.907220
20
13.899302
30
0.0
10
40.676105
20
15.226925
30
0.0
10
41.621159
20
16.582669
30
0.0
10
42.229933
20
17.213725
30
0.0
10
42.675013
20
17.225342
30
0.0
10
43.128986
20
16.722770
30
0.0
10
45.500767
20
12.461968
30
0.0
10
48.150410
20
6.773333
30
0.0
10
49.323956
20
4.149549
30
0.0
10
50.249596
20
2.398889
30
0.0
10
51.332618
20
0.635000
30
0.0
10
51.666538
20
0.000000
30
0.0
10
25.806791
20
0.000000
30
0.0
10
-0.052955
20
0.000000
30
0.0
10
0.142460
20
1.481667
30
0.0
10
0.142449
20
1.481667
30
0.0
0
LWPOLYLINE
100
AcDbPolyline
8
Layer_1
90
10
70
0
10
104.790847
20
1.591587
30
0.0
10
104.898839
20
1.817662
30
0.0
10
104.810346
20
2.009334
30
0.0
10
104.582814
20
2.112928
30
0.0
10
104.273694
20
2.074768
30
0.0
10
104.028111
20
1.888712
30
0.0
10
104.017166
20
1.663762
30
0.0
10
104.376933
20
1.421000
30
0.0
10
104.790847
20
1.591587
30
0.0
10
104.790847
20
1.591587
30
0.0
0
LWPOLYLINE
100
AcDbPolyline
8
Layer_1
90
13
70
0
10
110.459805
20
3.268639
30
0.0
10
110.607784
20
4.013641
30
0.0
10
110.484490
20
4.181095
30
0.0
10
110.224435
20
4.233333
30
0.0
10
109.882682
20
4.161471
30
0.0
10
109.667834
20
3.961507
30
0.0
10
109.593330
20
3.656879
30
0.0
10
109.672611
20
3.271023
30
0.0
10
109.857552
20
2.948383
30
0.0
10
110.066401
20
2.840404
30
0.0
10
110.275153
20
2.947169
30
0.0
10
110.459805
20
3.268766
30
0.0
10
110.459805
20
3.268639
30
0.0
0
LWPOLYLINE
100
AcDbPolyline
8
Layer_1
90
8
70
0
10
64.770000
20
3.951111
30
0.0
10
64.471121
20
4.233333
30
0.0
10
64.346667
20
3.951111
30
0.0
10
64.434462
20
3.751792
30
0.0
10
64.645546
20
3.668889
30
0.0
10
64.805391
20
3.751792
30
0.0
10
64.770000
20
3.951111
30
0.0
10
64.770000
20
3.951111
30
0.0
0
LWPOLYLINE
100
AcDbPolyline
8
Layer_1
90
13
70
0
10
105.833333
20
11.474487
30
0.0
10
105.744209
20
12.232531
30
0.0
10
105.579693
20
12.272965
30
0.0
10
105.288001
20
12.145786
30
0.0
10
104.838174
20
11.768034
30
0.0
10
104.573966
20
11.268535
30
0.0
10
104.524419
20
10.742237
30
0.0
10
104.718572
20
10.284087
30
0.0
10
105.109436
20
10.044845
30
0.0
10
105.468559
20
10.209458
30
0.0
10
105.731379
20
10.708986
30
0.0
10
105.833333
20
11.474487
30
0.0
10
105.833333
20
11.474487
30
0.0
0
LWPOLYLINE
100
AcDbPolyline
8
Layer_1
90
22
70
0
10
78.009948
20
18.562379
30
0.0
10
76.576829
20
21.670999
30
0.0
10
76.249791
20
22.030789
30
0.0
10
76.308252
20
21.385502
30
0.0
10
76.661659
20
18.968260
30
0.0
10
76.963964
20
17.483664
30
0.0
10
77.276765
20
17.063512
30
0.0
10
77.793294
20
16.662600
30
0.0
10
78.626600
20
15.879191
30
0.0
10
76.579899
20
17.207114
30
0.0
10
75.360660
20
18.054481
30
0.0
10
74.695377
20
18.326386
30
0.0
10
74.567610
20
18.246424
30
0.0
10
74.574900
20
18.022457
30
0.0
10
74.990079
20
17.142319
30
0.0
10
75.556525
20
16.471052
30
0.0
10
76.344930
20
15.968533
30
0.0
10
77.290721
20
15.664786
30
0.0
10
78.329322
20
15.589831
30
0.0
10
79.188646
20
15.629788
30
0.0
10
78.009948
20
18.562379
30
0.0
10
78.009948
20
18.562379
30
0.0
0
LWPOLYLINE
100
AcDbPolyline
8
Layer_1
90
26
70
0
10
81.112541
20
20.159387
30
0.0
10
81.727113
20
21.462795
30
0.0
10
82.175607
20
22.840498
30
0.0
10
82.509275
20
23.850869
30
0.0
10
82.847778
20
24.271111
30
0.0
10
83.153792
20
24.450374
30
0.0
10
83.335901
20
24.857192
30
0.0
10
83.348759
20
25.295107
30
0.0
10
83.147024
20
25.567660
30
0.0
10
82.584249
20
25.549376
30
0.0
10
81.862294
20
25.304237
30
0.0
10
81.307027
20
24.978020
30
0.0
10
81.193735
20
24.830061
30
0.0
10
81.244316
20
24.716497
30
0.0
10
81.468837
20
24.292469
30
0.0
10
81.562222
20
23.548899
30
0.0
10
81.430153
20
22.729261
30
0.0
10
81.175519
20
22.604236
30
0.0
10
80.715556
20
22.577778
30
0.0
10
80.242247
20
22.551440
30
0.0
10
79.989567
20
22.407590
30
0.0
10
79.872741
20
21.378333
30
0.0
10
80.016253
20
19.726033
30
0.0
10
80.298321
20
18.908889
30
0.0
10
81.112541
20
20.159387
30
0.0
10
81.112541
20
20.159387
30
0.0
0
LWPOLYLINE
100
AcDbPolyline
8
Layer_1
90
36
70
0
10
74.374843
20
21.266040
30
0.0
10
74.051672
20
22.872306
30
0.0
10
73.684037
20
23.820450
30
0.0
10
73.126470
20
24.162411
30
0.0
10
72.407730
20
24.218775
30
0.0
10
71.729528
20
24.011354
30
0.0
10
71.293575
20
23.561960
30
0.0
10
70.395355
20
22.504784
30
0.0
10
69.776432
20
22.161706
30
0.0
10
69.289800
20
22.472737
30
0.0
10
69.025225
20
23.025544
30
0.0
10
69.006553
20
23.754577
30
0.0
10
69.207585
20
24.454539
30
0.0
10
69.602124
20
24.920135
30
0.0
10
69.881470
20
25.152937
30
0.0
10
69.983019
20
25.402721
30
0.0
10
69.742002
20
25.877160
30
0.0
10
69.057622
20
26.191299
30
0.0
10
68.108432
20
26.192985
30
0.0
10
67.854133
20
26.085073
30
0.0
10
67.698488
20
25.850643
30
0.0
10
67.607804
20
24.791241
30
0.0
10
67.738845
20
23.696339
30
0.0
10
68.117287
20
22.797612
30
0.0
10
68.764480
20
22.061018
30
0.0
10
69.701774
20
21.452518
30
0.0
10
70.914083
20
20.915105
30
0.0
10
71.053431
20
20.968040
30
0.0
10
70.943445
20
21.224017
30
0.0
10
70.978011
20
21.287117
30
0.0
10
71.220541
20
21.212253
30
0.0
10
72.107290
20
20.770973
30
0.0
10
73.932144
20
19.578543
30
0.0
10
74.505876
20
19.191111
30
0.0
10
74.374843
20
21.266040
30
0.0
10
74.374843
20
21.266040
30
0.0
0
LWPOLYLINE
100
AcDbPolyline
8
Layer_1
90
8
70
0
10
50.235556
20
21.555445
30
0.0
10
49.812222
20
22.013333
30
0.0
10
49.470538
20
22.208591
30
0.0
10
49.388889
20
21.906778
30
0.0
10
49.513243
20
21.583394
30
0.0
10
49.812222
20
21.448889
30
0.0
10
50.235556
20
21.555445
30
0.0
10
50.235556
20
21.555445
30
0.0
0
LWPOLYLINE
100
AcDbPolyline
8
Layer_1
90
10
70
0
10
101.882222
20
22.843343
30
0.0
10
101.799319
20
23.281456
30
0.0
10
101.600000
20
23.565556
30
0.0
10
101.398864
20
23.482361
30
0.0
10
101.317778
20
23.017768
30
0.0
10
101.400681
20
22.507706
30
0.0
10
101.600000
20
22.295556
30
0.0
10
101.799319
20
22.456468
30
0.0
10
101.882222
20
22.843343
30
0.0
10
101.882222
20
22.843343
30
0.0
0
LWPOLYLINE
100
AcDbPolyline
8
Layer_1
90
49
70
0
10
75.917778
20
24.911154
30
0.0
10
75.177311
20
26.358667
30
0.0
10
74.599785
20
27.430863
30
0.0
10
74.650405
20
27.844087
30
0.0
10
74.895089
20
28.409313
30
0.0
10
75.353333
20
29.803036
30
0.0
10
75.494333
20
30.065537
30
0.0
10
75.935316
20
30.056768
30
0.0
10
77.825126
20
29.199053
30
0.0
10
79.026918
20
28.541554
30
0.0
10
79.447904
20
29.355652
30
0.0
10
79.868889
20
30.293079
30
0.0
10
79.053001
20
30.896854
30
0.0
10
77.232044
20
31.908599
30
0.0
10
75.346082
20
32.836441
30
0.0
10
74.335177
20
33.188506
30
0.0
10
74.067644
20
32.929484
30
0.0
10
73.956333
20
32.474747
30
0.0
10
74.006508
20
31.911903
30
0.0
10
74.223431
20
31.328558
30
0.0
10
74.405911
20
30.748688
30
0.0
10
74.311539
20
30.299460
30
0.0
10
73.979184
20
30.044969
30
0.0
10
73.447712
20
30.049312
30
0.0
10
71.535037
20
30.432797
30
0.0
10
71.202898
20
30.351767
30
0.0
10
71.120000
20
30.091944
30
0.0
10
71.332332
20
29.738498
30
0.0
10
72.037222
20
29.629013
30
0.0
10
73.147194
20
29.468678
30
0.0
10
73.437249
20
29.282413
30
0.0
10
73.549998
20
29.033395
30
0.0
10
73.241518
20
28.371039
30
0.0
10
72.217641
20
27.529488
30
0.0
10
71.565695
20
27.014873
30
0.0
10
71.301954
20
26.608812
30
0.0
10
71.432569
20
26.342383
30
0.0
10
71.963695
20
26.246667
30
0.0
10
72.376371
20
26.414098
30
0.0
10
72.582038
20
26.881667
30
0.0
10
72.799579
20
27.420691
30
0.0
10
73.192104
20
27.443830
30
0.0
10
73.712314
20
26.974221
30
0.0
10
74.312913
20
26.035000
30
0.0
10
74.872103
20
25.164009
30
0.0
10
75.389505
20
24.641884
30
0.0
10
75.769828
20
24.535356
30
0.0
10
75.917778
20
24.911154
30
0.0
10
75.917778
20
24.911154
30
0.0
0
LWPOLYLINE
100
AcDbPolyline
8
Layer_1
90
8
70
0
10
81.421111
20
27.657778
30
0.0
10
80.964467
20
27.940000
30
0.0
10
80.816384
20
27.857097
30
0.0
10
80.856667
20
27.657778
30
0.0
10
81.313311
20
27.375556
30
0.0
10
81.461394
20
27.458458
30
0.0
10
81.421111
20
27.657778
30
0.0
10
81.421111
20
27.657778
30
0.0
0
LWPOLYLINE
100
AcDbPolyline
8
Layer_1
90
7
70
0
10
55.399285
20
30.875692
30
0.0
10
54.802111
20
31.467620
30
0.0
10
55.092590
20
30.779622
30
0.0
10
55.678840
20
30.197778
30
0.0
10
55.690609
20
30.396916
30
0.0
10
55.399285
20
30.875692
30
0.0
10
55.399285
20
30.875692
30
0.0
0
LWPOLYLINE
100
AcDbPolyline
8
Layer_1
90
107
70
0
10
71.684444
20
33.386889
30
0.0
10
71.751967
20
34.421254
30
0.0
10
71.977784
20
35.091059
30
0.0
10
72.396772
20
35.452057
30
0.0
10
73.043804
20
35.560000
30
0.0
10
73.553230
20
35.449286
30
0.0
10
73.588369
20
35.034344
30
0.0
10
73.553345
20
34.759742
30
0.0
10
73.675298
20
34.619338
30
0.0
10
74.654735
20
34.644378
30
0.0
10
75.672951
20
34.652808
30
0.0
10
75.901578
20
34.500279
30
0.0
10
76.038337
20
34.213642
30
0.0
10
76.199760
20
33.928311
30
0.0
10
76.512229
20
33.723351
30
0.0
10
77.831834
20
33.451975
30
0.0
10
79.162959
20
33.191287
30
0.0
10
80.097246
20
32.838700
30
0.0
10
80.732914
20
32.565883
30
0.0
10
81.344957
20
32.523834
30
0.0
10
81.826804
20
32.699532
30
0.0
10
82.071882
20
33.079958
30
0.0
10
81.841971
20
33.643069
30
0.0
10
81.032056
20
34.349958
30
0.0
10
80.234930
20
35.029826
30
0.0
10
79.666941
20
35.770517
30
0.0
10
79.375249
20
36.491827
30
0.0
10
79.407015
20
37.113554
30
0.0
10
79.358275
20
37.535718
30
0.0
10
79.054615
20
38.048854
30
0.0
10
78.627929
20
38.482063
30
0.0
10
78.210111
20
38.664444
30
0.0
10
77.628078
20
38.261552
30
0.0
10
77.418861
20
38.078716
30
0.0
10
77.171867
20
38.054993
30
0.0
10
76.284136
20
38.543775
30
0.0
10
75.026119
20
39.228889
30
0.0
10
73.654392
20
39.937984
30
0.0
10
72.807667
20
40.627814
30
0.0
10
72.522244
20
41.278539
30
0.0
10
72.441391
20
41.694037
30
0.0
10
72.145019
20
42.101762
30
0.0
10
70.506641
20
43.292703
30
0.0
10
69.874190
20
43.636896
30
0.0
10
69.904556
20
43.198280
30
0.0
10
69.883398
20
42.725807
30
0.0
10
69.292049
20
42.615556
30
0.0
10
68.676148
20
42.751792
30
0.0
10
68.379552
20
43.180000
30
0.0
10
68.205484
20
43.568372
30
0.0
10
67.991468
20
43.729755
30
0.0
10
67.809940
20
43.649324
30
0.0
10
67.733333
20
43.312255
30
0.0
10
67.608979
20
42.959300
30
0.0
10
67.310000
20
42.717616
30
0.0
10
66.932989
20
42.508518
30
0.0
10
66.925451
20
42.344074
30
0.0
10
67.858282
20
42.277882
30
0.0
10
68.671880
20
42.262182
30
0.0
10
68.769687
20
42.052695
30
0.0
10
68.750411
20
41.645786
30
0.0
10
68.351972
20
40.577762
30
0.0
10
68.118748
20
40.363657
30
0.0
10
68.015556
20
40.583556
30
0.0
10
67.934725
20
40.822739
30
0.0
10
67.740389
20
40.922222
30
0.0
10
67.593444
20
40.677992
30
0.0
10
67.634556
20
40.075556
30
0.0
10
67.708381
20
39.600597
30
0.0
10
67.641048
20
39.347630
30
0.0
10
66.812098
20
39.228889
30
0.0
10
66.027301
20
39.083480
30
0.0
10
65.247095
20
38.737732
30
0.0
10
64.708240
20
38.327363
30
0.0
10
64.647499
20
37.988090
30
0.0
10
65.026033
20
37.975046
30
0.0
10
65.711835
20
38.169048
30
0.0
10
66.552305
20
38.368126
30
0.0
10
67.202375
20
38.144580
30
0.0
10
67.607557
20
37.923126
30
0.0
10
67.886961
20
37.941378
30
0.0
10
68.534153
20
38.994057
30
0.0
10
69.023204
20
39.734361
30
0.0
10
69.525304
20
39.987404
30
0.0
10
70.068461
20
39.753705
30
0.0
10
70.680684
20
39.033783
30
0.0
10
71.413119
20
37.958883
30
0.0
10
70.490447
20
37.190364
30
0.0
10
69.693732
20
36.645368
30
0.0
10
69.073889
20
36.414253
30
0.0
10
68.725080
20
36.293406
30
0.0
10
68.580000
20
36.013523
30
0.0
10
68.685804
20
35.716513
30
0.0
10
68.981661
20
35.483826
30
0.0
10
70.014194
20
35.277772
30
0.0
10
70.281165
20
35.197175
30
0.0
10
70.467975
20
34.982456
30
0.0
10
70.605125
20
34.313095
30
0.0
10
70.433672
20
33.594568
30
0.0
10
69.961647
20
33.151753
30
0.0
10
69.565147
20
32.917136
30
0.0
10
70.173314
20
32.447811
30
0.0
10
70.963101
20
32.007500
30
0.0
10
71.421033
20
31.981705
30
0.0
10
71.632888
20
32.423733
30
0.0
10
71.684444
20
33.386889
30
0.0
10
71.684444
20
33.386889
30
0.0
0
LWPOLYLINE
100
AcDbPolyline
8
Layer_1
90
12
70
0
10
34.385549
20
33.418486
30
0.0
10
34.284590
20
34.665099
30
0.0
10
34.082045
20
35.242632
30
0.0
10
33.843841
20
34.779785
30
0.0
10
33.441135
20
34.239766
30
0.0
10
32.815908
20
33.838888
30
0.0
10
32.032222
20
33.537093
30
0.0
10
32.878889
20
33.161661
30
0.0
10
33.969041
20
32.875905
30
0.0
10
34.240983
20
33.040156
30
0.0
10
34.385549
20
33.418486
30
0.0
10
34.385549
20
33.418486
30
0.0
0
LWPOLYLINE
100
AcDbPolyline
8
Layer_1
90
16
70
0
10
64.290222
20
34.487556
30
0.0
10
64.628889
20
35.287263
30
0.0
10
64.313364
20
35.914923
30
0.0
10
63.591194
20
36.860894
30
0.0
10
62.798988
20
37.723233
30
0.0
10
62.273352
20
38.100000
30
0.0
10
62.088889
20
37.309778
30
0.0
10
62.006891
20
36.669685
30
0.0
10
61.809746
20
36.240412
30
0.0
10
61.810367
20
35.802779
30
0.0
10
62.358281
20
35.055079
30
0.0
10
62.955342
20
34.482374
30
0.0
10
63.450158
20
34.204580
30
0.0
10
63.882021
20
34.210154
30
0.0
10
64.290222
20
34.487556
30
0.0
10
64.290222
20
34.487556
30
0.0
0
LWPOLYLINE
100
AcDbPolyline
8
Layer_1
90
11
70
0
10
82.126667
20
36.376472
30
0.0
10
82.040456
20
36.700161
30
0.0
10
81.812532
20
36.980840
30
0.0
10
81.115806
20
37.253333
30
0.0
10
80.997937
20
37.130799
30
0.0
10
81.010646
20
36.837204
30
0.0
10
81.336444
20
36.180889
30
0.0
10
81.915495
20
35.865275
30
0.0
10
82.072172
20
36.018786
30
0.0
10
82.126667
20
36.376472
30
0.0
10
82.126667
20
36.376472
30
0.0
0
LWPOLYLINE
100
AcDbPolyline
8
Layer_1
90
19
70
0
10
64.277020
20
39.863889
30
0.0
10
64.631657
20
40.738593
30
0.0
10
64.763719
20
41.451690
30
0.0
10
64.673759
20
42.019982
30
0.0
10
64.362327
20
42.460271
30
0.0
10
63.810920
20
42.772701
30
0.0
10
63.238002
20
42.763087
30
0.0
10
62.840507
20
42.517968
30
0.0
10
62.667426
20
42.186188
30
0.0
10
62.739300
20
41.894307
30
0.0
10
63.076667
20
41.768889
30
0.0
10
63.275104
20
41.702743
30
0.0
10
63.405926
20
41.486666
30
0.0
10
63.500000
20
40.498889
30
0.0
10
63.553712
20
39.675336
30
0.0
10
63.707984
20
39.289375
30
0.0
10
63.952518
20
39.349421
30
0.0
10
64.277020
20
39.863889
30
0.0
10
64.277020
20
39.863889
30
0.0
0
LWPOLYLINE
100
AcDbPolyline
8
Layer_1
90
11
70
0
10
29.351111
20
42.051111
30
0.0
10
29.158973
20
42.582670
30
0.0
10
28.955216
20
42.605699
30
0.0
10
28.712039
20
42.446852
30
0.0
10
28.632521
20
42.201441
30
0.0
10
28.701815
20
41.881975
30
0.0
10
28.872983
20
41.604902
30
0.0
10
29.099084
20
41.486667
30
0.0
10
29.277078
20
41.652472
30
0.0
10
29.351111
20
42.051111
30
0.0
10
29.351111
20
42.051111
30
0.0
0
LWPOLYLINE
100
AcDbPolyline
8
Layer_1
90
68
70
0
10
79.437797
20
48.165783
30
0.0
10
80.307008
20
48.431643
30
0.0
10
81.615088
20
48.542222
30
0.0
10
82.990582
20
48.651872
30
0.0
10
83.326479
20
48.830090
30
0.0
10
83.548742
20
49.127153
30
0.0
10
83.780634
20
49.914330
30
0.0
10
83.894039
20
51.000566
30
0.0
10
83.875544
20
52.079836
30
0.0
10
83.711737
20
52.846111
30
0.0
10
83.631892
20
53.229067
30
0.0
10
83.930916
20
53.340000
30
0.0
10
84.251221
20
53.422903
30
0.0
10
84.384444
20
53.622222
30
0.0
10
84.455000
20
54.071794
30
0.0
10
84.165115
20
54.317022
30
0.0
10
83.374543
20
54.634148
30
0.0
10
81.632778
20
55.029083
30
0.0
10
81.184309
20
54.944922
30
0.0
10
80.997778
20
54.736709
30
0.0
10
80.671364
20
54.321578
30
0.0
10
79.790998
20
53.981967
30
0.0
10
78.504990
20
53.756558
30
0.0
10
76.961650
20
53.684032
30
0.0
10
75.104057
20
53.795125
30
0.0
10
74.839178
20
53.987438
30
0.0
10
74.788889
20
54.339744
30
0.0
10
74.927560
20
54.840155
30
0.0
10
75.260962
20
55.154096
30
0.0
10
75.549615
20
55.377218
30
0.0
10
75.119851
20
55.764738
30
0.0
10
74.542642
20
56.298907
30
0.0
10
74.531917
20
56.688832
30
0.0
10
75.081877
20
56.927747
30
0.0
10
76.186721
20
57.008889
30
0.0
10
77.705386
20
57.122599
30
0.0
10
78.861711
20
57.447348
30
0.0
10
79.600003
20
57.958561
30
0.0
10
79.864568
20
58.631667
30
0.0
10
79.652942
20
58.778014
30
0.0
10
79.089397
20
58.888125
30
0.0
10
77.358690
20
58.993524
30
0.0
10
75.576725
20
58.935633
30
0.0
10
74.647778
20
58.702222
30
0.0
10
74.341220
20
58.476386
30
0.0
10
73.817030
20
58.449520
30
0.0
10
72.078582
20
58.996958
30
0.0
10
70.679620
20
59.417890
30
0.0
10
69.162408
20
59.490503
30
0.0
10
67.918448
20
59.365819
30
0.0
10
67.945961
20
59.244100
30
0.0
10
68.315191
20
59.033568
30
0.0
10
68.837580
20
58.606165
30
0.0
10
69.391168
20
57.861738
30
0.0
10
70.512751
20
55.547441
30
0.0
10
70.925807
20
54.950246
30
0.0
10
71.598626
20
54.700774
30
0.0
10
72.262505
20
54.452766
30
0.0
10
72.481200
20
53.655733
30
0.0
10
73.044307
20
52.359514
30
0.0
10
74.276242
20
50.609830
30
0.0
10
75.745522
20
48.951123
30
0.0
10
77.020666
20
47.927839
30
0.0
10
77.659120
20
47.667386
30
0.0
10
78.212337
20
47.614077
30
0.0
10
78.774002
20
47.777136
30
0.0
10
79.437797
20
48.165783
30
0.0
10
79.437797
20
48.165783
30
0.0
0
LWPOLYLINE
100
AcDbPolyline
8
Layer_1
90
14
70
0
10
89.045409
20
62.102433
30
0.0
10
89.076492
20
62.581179
30
0.0
10
88.911361
20
63.032662
30
0.0
10
88.603200
20
63.368422
30
0.0
10
88.205189
20
63.500000
30
0.0
10
87.867412
20
63.284232
30
0.0
10
87.542776
20
62.781744
30
0.0
10
87.338262
20
62.209764
30
0.0
10
87.360847
20
61.785517
30
0.0
10
87.728679
20
61.538514
30
0.0
10
88.248686
20
61.530941
30
0.0
10
88.745915
20
61.729885
30
0.0
10
89.045409
20
62.102433
30
0.0
10
89.045409
20
62.102433
30
0.0
0
LWPOLYLINE
100
AcDbPolyline
8
Layer_1
90
135
70
0
10
79.705079
20
62.403677
30
0.0
10
80.260855
20
63.017218
30
0.0
10
80.379789
20
63.595757
30
0.0
10
80.072181
20
64.081217
30
0.0
10
79.348327
20
64.415523
30
0.0
10
78.465263
20
64.508034
30
0.0
10
77.735478
20
64.220536
30
0.0
10
77.107972
20
63.917525
30
0.0
10
76.455548
20
63.811412
30
0.0
10
75.782058
20
63.900116
30
0.0
10
75.091351
20
64.181556
30
0.0
10
73.673691
20
65.314322
30
0.0
10
72.233375
20
67.193064
30
0.0
10
71.331472
20
68.598559
30
0.0
10
70.590735
20
68.116374
30
0.0
10
70.439024
20
68.066675
30
0.0
10
70.573526
20
68.287808
30
0.0
10
71.572337
20
69.377094
30
0.0
10
73.477337
20
71.120000
30
0.0
10
73.660000
20
70.120978
30
0.0
10
73.812953
20
69.100828
30
0.0
10
74.212978
20
68.074683
30
0.0
10
74.771827
20
67.216009
30
0.0
10
75.401252
20
66.698272
30
0.0
10
76.063658
20
66.544842
30
0.0
10
76.734456
20
66.648567
30
0.0
10
77.410019
20
66.898489
30
0.0
10
77.210629
20
70.999756
30
0.0
10
77.134991
20
74.614704
30
0.0
10
77.251352
20
75.648770
30
0.0
10
77.489256
20
76.540193
30
0.0
10
77.843511
20
78.372452
30
0.0
10
77.823466
20
81.393572
30
0.0
10
77.796543
20
84.367357
30
0.0
10
77.927747
20
85.161595
30
0.0
10
78.179800
20
85.795556
30
0.0
10
78.763863
20
86.763374
30
0.0
10
79.435126
20
87.356053
30
0.0
10
80.380986
20
87.679787
30
0.0
10
81.788841
20
87.840775
30
0.0
10
83.756207
20
88.136921
30
0.0
10
85.369061
20
89.026390
30
0.0
10
86.570701
20
89.961804
30
0.0
10
87.326464
20
90.741525
30
0.0
10
87.867624
20
91.947469
30
0.0
10
88.368846
20
93.637255
30
0.0
10
88.700333
20
95.289893
30
0.0
10
88.732289
20
96.384392
30
0.0
10
88.041043
20
97.461582
30
0.0
10
86.665960
20
99.002586
30
0.0
10
85.162528
20
100.433831
30
0.0
10
84.086232
20
101.181741
30
0.0
10
83.742771
20
101.358013
30
0.0
10
83.600951
20
101.681938
30
0.0
10
83.872917
20
103.251183
30
0.0
10
83.233836
20
103.775586
30
0.0
10
81.421111
20
104.588039
30
0.0
10
79.920531
20
105.148817
30
0.0
10
78.824762
20
105.425152
30
0.0
10
77.651335
20
105.489475
30
0.0
10
75.917778
20
105.414216
30
0.0
10
73.015991
20
105.091552
30
0.0
10
70.322694
20
104.234020
30
0.0
10
68.230967
20
103.305917
30
0.0
10
67.703561
20
102.936462
30
0.0
10
67.451994
20
102.590100
30
0.0
10
67.055182
20
102.090112
30
0.0
10
66.401425
20
101.799286
30
0.0
10
65.373693
20
101.244125
30
0.0
10
64.042203
20
100.136813
30
0.0
10
62.582441
20
98.411696
30
0.0
10
61.399809
20
95.976832
30
0.0
10
60.472649
20
93.529403
30
0.0
10
59.872850
20
91.376446
30
0.0
10
59.523553
20
89.164481
30
0.0
10
59.347899
20
86.540030
30
0.0
10
59.332528
20
84.278497
30
0.0
10
59.521462
20
83.309981
30
0.0
10
59.696717
20
83.305987
30
0.0
10
59.928056
20
83.619708
30
0.0
10
60.565665
20
85.192904
30
0.0
10
61.306628
20
87.082926
30
0.0
10
63.267192
20
87.390645
30
0.0
10
64.991891
20
87.414162
30
0.0
10
66.408260
20
86.977883
30
0.0
10
67.941170
20
86.510955
30
0.0
10
69.775897
20
86.207030
30
0.0
10
71.592931
20
85.903633
30
0.0
10
72.883889
20
85.338920
30
0.0
10
73.535113
20
84.874122
30
0.0
10
73.880879
20
84.375582
30
0.0
10
74.023043
20
83.571339
30
0.0
10
74.063462
20
82.189433
30
0.0
10
74.054997
20
81.322985
30
0.0
10
73.927795
20
80.815756
30
0.0
10
73.573533
20
80.477545
30
0.0
10
72.883889
20
80.118148
30
0.0
10
72.024659
20
79.568586
30
0.0
10
71.677502
20
79.067601
30
0.0
10
71.478137
20
78.632744
30
0.0
10
70.925533
20
78.214251
30
0.0
10
68.955576
20
77.477630
30
0.0
10
66.157568
20
76.960288
30
0.0
10
62.921444
20
76.764777
30
0.0
10
61.114527
20
76.714231
30
0.0
10
60.097429
20
76.489060
30
0.0
10
59.649199
20
75.978331
30
0.0
10
59.548889
20
75.071111
30
0.0
10
59.624341
20
74.334432
30
0.0
10
59.849397
20
73.804804
30
0.0
10
60.222109
20
73.484996
30
0.0
10
60.740527
20
73.377778
30
0.0
10
61.454240
20
73.054858
30
0.0
10
62.447972
20
72.278477
30
0.0
10
63.646993
20
71.400400
30
0.0
10
64.854796
20
70.852654
30
0.0
10
66.215268
20
70.209118
30
0.0
10
67.818130
20
69.042105
30
0.0
10
68.807657
20
68.174308
30
0.0
10
69.339785
20
67.557602
30
0.0
10
69.570021
20
66.940264
30
0.0
10
69.653875
20
66.070573
30
0.0
10
69.620977
20
64.895483
30
0.0
10
69.410636
20
64.186240
30
0.0
10
69.206910
20
63.753055
30
0.0
10
69.271743
20
63.349275
30
0.0
10
69.566567
20
63.050266
30
0.0
10
70.052811
20
62.931398
30
0.0
10
72.390000
20
62.382132
30
0.0
10
74.271046
20
61.971803
30
0.0
10
76.514717
20
61.821845
30
0.0
10
78.641875
20
61.918032
30
0.0
10
79.225009
20
62.097315
30
0.0
10
79.705079
20
62.403677
30
0.0
10
79.705079
20
62.403677
30
0.0
0
LWPOLYLINE
100
AcDbPolyline
8
Layer_1
90
51
70
0
10
86.021333
20
66.943111
30
0.0
10
86.276712
20
68.121592
30
0.0
10
86.360000
20
71.035333
30
0.0
10
86.360000
20
74.788889
30
0.0
10
87.152726
20
74.788889
30
0.0
10
87.873513
20
74.913289
30
0.0
10
88.493281
20
75.212380
30
0.0
10
90.265662
20
76.195394
30
0.0
10
91.077986
20
76.667852
30
0.0
10
91.331162
20
77.076997
30
0.0
10
91.026248
20
77.407704
30
0.0
10
90.164299
20
77.644848
30
0.0
10
89.294459
20
77.933994
30
0.0
10
88.603252
20
78.414454
30
0.0
10
88.232566
20
78.950416
30
0.0
10
88.324289
20
79.406067
30
0.0
10
88.580055
20
79.747531
30
0.0
10
88.539796
20
79.978634
30
0.0
10
87.526949
20
80.151111
30
0.0
10
86.537611
20
80.304588
30
0.0
10
85.718546
20
80.715556
30
0.0
10
85.089790
20
81.114559
30
0.0
10
84.575979
20
81.258185
30
0.0
10
84.229371
20
81.144607
30
0.0
10
84.102222
20
80.772000
30
0.0
10
83.905791
20
80.039327
30
0.0
10
83.398849
20
79.675205
30
0.0
10
82.704925
20
79.713185
30
0.0
10
81.947549
20
80.186815
30
0.0
10
81.360815
20
80.579222
30
0.0
10
80.879207
20
80.599852
30
0.0
10
80.553217
20
80.268153
30
0.0
10
80.433333
20
79.603572
30
0.0
10
80.627892
20
78.606739
30
0.0
10
81.107585
20
77.258820
30
0.0
10
81.716440
20
75.941680
30
0.0
10
82.298484
20
75.037182
30
0.0
10
82.580218
20
74.541978
30
0.0
10
82.370134
20
73.985044
30
0.0
10
82.169829
20
73.411948
30
0.0
10
82.518806
20
72.847804
30
0.0
10
83.036034
20
72.076175
30
0.0
10
83.440468
20
71.065859
30
0.0
10
83.706272
20
69.900709
30
0.0
10
83.807613
20
68.664579
30
0.0
10
83.926517
20
67.457977
30
0.0
10
84.313889
20
66.909273
30
0.0
10
85.263918
20
66.627223
30
0.0
10
85.675550
20
66.710600
30
0.0
10
86.021333
20
66.943111
30
0.0
10
86.021333
20
66.943111
30
0.0
0
LWPOLYLINE
100
AcDbPolyline
8
Layer_1
90
10
70
0
10
68.297778
20
79.868889
30
0.0
10
68.131972
20
80.068208
30
0.0
10
67.733333
20
80.151111
30
0.0
10
67.334694
20
80.068208
30
0.0
10
67.168889
20
79.868889
30
0.0
10
67.334694
20
79.669569
30
0.0
10
67.733333
20
79.586667
30
0.0
10
68.131972
20
79.669569
30
0.0
10
68.297778
20
79.868889
30
0.0
10
68.297778
20
79.868889
30
0.0
0
LWPOLYLINE
100
AcDbPolyline
8
Layer_1
90
16
70
0
10
67.662778
20
82.009623
30
0.0
10
68.212777
20
82.492654
30
0.0
10
68.217728
20
82.893140
30
0.0
10
67.662982
20
83.230748
30
0.0
10
66.533889
20
83.525146
30
0.0
10
63.998958
20
84.160295
30
0.0
10
62.995095
20
84.283386
30
0.0
10
62.606230
20
84.136716
30
0.0
10
62.305267
20
83.867353
30
0.0
10
62.004624
20
83.008898
30
0.0
10
62.168320
20
81.804722
30
0.0
10
62.477475
20
80.816995
30
0.0
10
64.752626
20
81.207170
30
0.0
10
66.545984
20
81.603839
30
0.0
10
67.662778
20
82.009623
30
0.0
10
67.662778
20
82.009623
30
0.0
0
LWPOLYLINE
100
AcDbPolyline
8
Layer_1
90
9
70
0
10
87.488889
20
82.126667
30
0.0
10
87.410879
20
82.325986
30
0.0
10
87.223323
20
82.408889
30
0.0
10
86.783333
20
82.126667
30
0.0
10
86.789391
20
81.927347
30
0.0
10
87.048899
20
81.844444
30
0.0
10
87.359642
20
81.927347
30
0.0
10
87.488889
20
82.126667
30
0.0
10
87.488889
20
82.126667
30
0.0
0
LWPOLYLINE
100
AcDbPolyline
8
Layer_1
90
11
70
0
10
88.617778
20
84.490278
30
0.0
10
88.793664
20
85.757769
30
0.0
10
88.969551
20
86.637201
30
0.0
10
87.311998
20
85.830797
30
0.0
10
84.666667
20
84.581357
30
0.0
10
83.678889
20
84.138321
30
0.0
10
86.148333
20
84.120259
30
0.0
10
88.101514
20
84.187113
30
0.0
10
88.501349
20
84.303471
30
0.0
10
88.617778
20
84.490266
30
0.0
10
88.617778
20
84.490278
30
0.0
0
LWPOLYLINE
100
AcDbPolyline
8
Layer_1
90
10
70
0
10
99.627024
20
122.058004
30
0.0
10
99.345615
20
122.281784
30
0.0
10
99.070211
20
122.323305
30
0.0
10
98.860901
20
122.193510
30
0.0
10
98.777778
20
121.903344
30
0.0
10
98.953734
20
121.715788
30
0.0
10
99.376778
20
121.637778
30
0.0
10
99.797666
20
121.716752
30
0.0
10
99.627024
20
122.058004
30
0.0
10
99.627024
20
122.058004
30
0.0
0
LWPOLYLINE
100
AcDbPolyline
8
Layer_1
90
15
70
0
10
96.287601
20
124.569072
30
0.0
10
96.291294
20
125.276797
30
0.0
10
96.197550
20
125.398487
30
0.0
10
96.034078
20
125.384708
30
0.0
10
95.562415
20
125.425854
30
0.0
10
94.941113
20
125.721520
30
0.0
10
94.340084
20
126.048780
30
0.0
10
94.106031
20
126.001843
30
0.0
10
94.238770
20
125.579859
30
0.0
10
94.738117
20
124.781975
30
0.0
10
95.370095
20
123.979768
30
0.0
10
95.822879
20
123.679097
30
0.0
10
96.120653
20
123.876639
30
0.0
10
96.287601
20
124.569072
30
0.0
10
96.287601
20
124.569072
30
0.0
0
LWPOLYLINE
100
AcDbPolyline
8
Layer_1
90
16
70
0
10
92.564063
20
7.549444
30
0.0
10
92.028902
20
10.156825
30
0.0
10
91.498567
20
12.270319
30
0.0
10
92.176134
20
11.426825
30
0.0
10
92.778641
20
10.855470
30
0.0
10
93.275740
20
10.666262
30
0.0
10
93.481857
20
10.638083
30
0.0
10
93.611357
20
10.423384
30
0.0
10
93.697778
20
9.241039
30
0.0
10
93.637059
20
8.315923
30
0.0
10
93.460601
20
7.629511
30
0.0
10
93.176954
20
7.202492
30
0.0
10
92.794667
20
7.055556
30
0.0
10
92.633794
20
7.200635
30
0.0
10
92.564063
20
7.549444
30
0.0
10
92.564063
20
7.549444
30
0.0
0
LWPOLYLINE
100
AcDbPolyline
8
Layer_1
90
10
70
0
10
95.955556
20
8.617706
30
0.0
10
96.411347
20
9.464373
30
0.0
10
96.872448
20
9.996486
30
0.0
10
97.268104
20
10.144326
30
0.0
10
97.544768
20
9.914430
30
0.0
10
97.648889
20
9.313333
30
0.0
10
97.507778
20
8.607777
30
0.0
10
96.802222
20
8.466667
30
0.0
10
95.955556
20
8.617706
30
0.0
10
95.955556
20
8.617706
30
0.0
0
LWPOLYLINE
100
AcDbPolyline
8
Layer_1
90
11
70
0
10
45.327310
20
33.872379
30
0.0
10
44.902248
20
35.068258
30
0.0
10
44.939764
20
35.243127
30
0.0
10
45.123399
20
35.277778
30
0.0
10
45.417902
20
35.001758
30
0.0
10
45.804445
20
34.355903
30
0.0
10
46.284444
20
33.047903
30
0.0
10
46.194697
20
32.733407
30
0.0
10
45.965357
20
32.800359
30
0.0
10
45.327310
20
33.872379
30
0.0
10
45.327310
20
33.872379
30
0.0
0
LWPOLYLINE
100
AcDbPolyline
8
Layer_1
90
21
70
0
10
45.251635
20
43.901137
30
0.0
10
45.200241
20
44.453763
30
0.0
10
45.498616
20
45.076699
30
0.0
10
46.200959
20
45.845314
30
0.0
10
47.361469
20
46.834975
30
0.0
10
49.297584
20
48.187919
30
0.0
10
49.637355
20
48.263988
30
0.0
10
49.414444
20
47.867457
30
0.0
10
48.733061
20
46.246697
30
0.0
10
48.511210
20
45.553674
30
0.0
10
48.283465
20
45.197835
30
0.0
10
47.929991
20
45.081912
30
0.0
10
47.330950
20
45.108639
30
0.0
10
46.432711
20
45.063011
30
0.0
10
46.307341
20
44.814229
30
0.0
10
46.284444
20
44.330513
30
0.0
10
46.166658
20
43.754687
30
0.0
10
45.884279
20
43.461673
30
0.0
10
45.543780
20
43.495735
30
0.0
10
45.251635
20
43.901137
30
0.0
10
45.251635
20
43.901137
30
0.0
0
LWPOLYLINE
100
AcDbPolyline
8
Layer_1
90
17
70
0
10
42.998509
20
46.711241
30
0.0
10
43.006326
20
48.051796
30
0.0
10
43.354007
20
49.999846
30
0.0
10
43.627825
20
50.825638
30
0.0
10
44.118829
20
51.188098
30
0.0
10
44.554875
20
51.279168
30
0.0
10
44.786540
20
51.192280
30
0.0
10
44.927850
20
50.089195
30
0.0
10
44.804442
20
49.105643
30
0.0
10
44.185753
20
48.392390
30
0.0
10
43.606091
20
47.779738
30
0.0
10
43.705063
20
47.204692
30
0.0
10
43.846343
20
46.536216
30
0.0
10
43.696354
20
46.350101
30
0.0
10
43.406325
20
46.284444
30
0.0
10
42.998506
20
46.711241
30
0.0
10
42.998509
20
46.711241
30
0.0
0
LWPOLYLINE
100
AcDbPolyline
8
Layer_1
90
7
70
0
10
52.797837
20
49.224260
30
0.0
10
52.832190
20
49.556201
30
0.0
10
52.946066
20
49.594677
30
0.0
10
52.968333
20
49.053750
30
0.0
10
52.854373
20
48.931288
30
0.0
10
52.797826
20
49.224260
30
0.0
10
52.797837
20
49.224260
30
0.0
0
LWPOLYLINE
100
AcDbPolyline
8
Layer_1
90
12
70
0
10
39.901718
20
64.753515
30
0.0
10
39.819322
20
65.621063
30
0.0
10
40.173083
20
66.153215
30
0.0
10
40.729693
20
66.201275
30
0.0
10
41.011159
20
65.997305
30
0.0
10
41.255848
20
65.616551
30
0.0
10
41.451426
20
64.964949
30
0.0
10
41.188397
20
64.613000
30
0.0
10
40.387582
20
64.368001
30
0.0
10
40.093641
20
64.483215
30
0.0
10
39.901718
20
64.753515
30
0.0
10
39.901718
20
64.753515
30
0.0
  0
ENDSEC
  0
SECTION
  2
OBJECTS
  0
DICTIONARY
  5
C
330
0
100
AcDbDictionary
  3
ACAD_GROUP
350
D
  3
ACAD_MLINESTYLE
350
17
  0
DICTIONARY
  5
D
330
C
100
AcDbDictionary
  0
DICTIONARY
  5
1A
330
C
100
AcDbDictionary
  0
DICTIONARY
  5
17
330
C
100
AcDbDictionary
  3
STANDARD
350
18
  0
DICTIONARY
  5
19
330
C
100
AcDbDictionary
  0
ENDSEC
  0
EOF
