solid schieblehre halter
facet normal 0.0 0.0 -1.0
  outer loop
    vertex -3.9999999999999996 25.999999999999996 0.0
    vertex 21.942842779629444 12.314502304054308 0.0
    vertex -3.9999999999999996 -5.0 0.0
  endloop
endfacet
facet normal 0.0 0.0 -1.0
  outer loop
    vertex 21.942842779629444 12.314502304054308 0.0
    vertex -3.9999999999999996 25.999999999999996 0.0
    vertex 50.0 25.999999999999996 0.0
  endloop
endfacet
facet normal 0.0 0.0 -1.0
  outer loop
    vertex -3.9999999999999996 -5.0 0.0
    vertex 21.942842779629444 12.314502304054308 0.0
    vertex 21.509236784724457 11.979062215047533 0.0
  endloop
endfacet
facet normal 0.0 0.0 -1.0
  outer loop
    vertex -3.9999999999999996 -5.0 0.0
    vertex 21.509236784724457 11.979062215047533 0.0
    vertex 21.1772238393378 11.542826480351147 0.0
  endloop
endfacet
facet normal 0.0 0.0 -1.0
  outer loop
    vertex -3.9999999999999996 -5.0 0.0
    vertex 21.1772238393378 11.542826480351147 0.0
    vertex 20.96943007702024 11.035523844371072 0.0
  endloop
endfacet
facet normal 0.0 0.0 -1.0
  outer loop
    vertex -3.9999999999999996 -5.0 0.0
    vertex 20.96943007702024 11.035523844371072 0.0
    vertex 20.9000162992783 10.491726143392105 0.0
  endloop
endfacet
facet normal 0.0 0.0 -1.0
  outer loop
    vertex 21.942842779629444 12.314502304054308 0.0
    vertex 50.0 25.999999999999996 0.0
    vertex 22.448492292067776 12.526287059646618 0.0
  endloop
endfacet
facet normal 0.0 0.0 -1.0
  outer loop
    vertex 22.448492292067776 12.526287059646618 0.0
    vertex 50.0 25.999999999999996 0.0
    vertex 22.991726143392107 12.599983700721706 0.0
  endloop
endfacet
facet normal 0.0 0.0 -1.0
  outer loop
    vertex 22.991726143392107 12.599983700721706 0.0
    vertex 50.0 25.999999999999996 0.0
    vertex 23.535523844371074 12.53056992297976 0.0
  endloop
endfacet
facet normal 0.0 0.0 -1.0
  outer loop
    vertex 23.535523844371074 12.53056992297976 0.0
    vertex 50.0 25.999999999999996 0.0
    vertex 24.04282648035115 12.322776160662201 0.0
  endloop
endfacet
facet normal 0.0 0.0 -1.0
  outer loop
    vertex 24.04282648035115 12.322776160662201 0.0
    vertex 50.0 25.999999999999996 0.0
    vertex 24.479062215047534 11.990763215275546 0.0
  endloop
endfacet
facet normal 0.0 0.0 -1.0
  outer loop
    vertex 24.479062215047534 11.990763215275546 0.0
    vertex 50.0 25.999999999999996 0.0
    vertex 24.81450230405431 11.55715722037056 0.0
  endloop
endfacet
facet normal 0.0 0.0 -1.0
  outer loop
    vertex 24.81450230405431 11.55715722037056 0.0
    vertex 50.0 25.999999999999996 0.0
    vertex 25.02628705964662 11.051507707932226 0.0
  endloop
endfacet
facet normal 0.0 0.0 -1.0
  outer loop
    vertex 25.02628705964662 11.051507707932226 0.0
    vertex 50.0 25.999999999999996 0.0
    vertex 25.099983700721708 10.508273856607893 0.0
  endloop
endfacet
facet normal 0.0 0.0 -1.0
  outer loop
    vertex -3.9999999999999996 -5.0 0.0
    vertex 21.957173519648855 8.677223839337799 0.0
    vertex 50.0 -5.0 0.0
  endloop
endfacet
facet normal 0.0 0.0 -1.0
  outer loop
    vertex 21.957173519648855 8.677223839337799 0.0
    vertex -3.9999999999999996 -5.0 0.0
    vertex 21.520937784952473 9.009236784724454 0.0
  endloop
endfacet
facet normal 0.0 0.0 -1.0
  outer loop
    vertex 21.520937784952473 9.009236784724454 0.0
    vertex -3.9999999999999996 -5.0 0.0
    vertex 21.185497695945696 9.442842779629443 0.0
  endloop
endfacet
facet normal 0.0 0.0 -1.0
  outer loop
    vertex 21.185497695945696 9.442842779629443 0.0
    vertex -3.9999999999999996 -5.0 0.0
    vertex 20.973712940353384 9.948492292067773 0.0
  endloop
endfacet
facet normal 0.0 0.0 -1.0
  outer loop
    vertex 20.973712940353384 9.948492292067773 0.0
    vertex -3.9999999999999996 -5.0 0.0
    vertex 20.9000162992783 10.491726143392105 0.0
  endloop
endfacet
facet normal 0.0 0.0 -1.0
  outer loop
    vertex 50.0 -5.0 0.0
    vertex 21.957173519648855 8.677223839337799 0.0
    vertex 22.46447615562893 8.469430077020242 0.0
  endloop
endfacet
facet normal 0.0 0.0 -1.0
  outer loop
    vertex 50.0 -5.0 0.0
    vertex 22.46447615562893 8.469430077020242 0.0
    vertex 23.008273856607897 8.400016299278295 0.0
  endloop
endfacet
facet normal 0.0 0.0 -1.0
  outer loop
    vertex 50.0 -5.0 0.0
    vertex 23.008273856607897 8.400016299278295 0.0
    vertex 23.551507707932227 8.473712940353382 0.0
  endloop
endfacet
facet normal 0.0 0.0 -1.0
  outer loop
    vertex 50.0 -5.0 0.0
    vertex 23.551507707932227 8.473712940353382 0.0
    vertex 24.057157220370563 8.685497695945692 0.0
  endloop
endfacet
facet normal 0.0 0.0 -1.0
  outer loop
    vertex 50.0 -5.0 0.0
    vertex 24.057157220370563 8.685497695945692 0.0
    vertex 24.49076321527555 9.020937784952467 0.0
  endloop
endfacet
facet normal 0.0 0.0 -1.0
  outer loop
    vertex 50.0 -5.0 0.0
    vertex 24.49076321527555 9.020937784952467 0.0
    vertex 24.822776160662205 9.457173519648853 0.0
  endloop
endfacet
facet normal 0.0 0.0 -1.0
  outer loop
    vertex 50.0 -5.0 0.0
    vertex 24.822776160662205 9.457173519648853 0.0
    vertex 25.030569922979762 9.964476155628928 0.0
  endloop
endfacet
facet normal 0.0 0.0 -1.0
  outer loop
    vertex 50.0 -5.0 0.0
    vertex 25.030569922979762 9.964476155628928 0.0
    vertex 25.099983700721708 10.508273856607893 0.0
  endloop
endfacet
facet normal 0.0 0.0 -1.0
  outer loop
    vertex 50.0 -5.0 0.0
    vertex 25.099983700721708 10.508273856607893 0.0
    vertex 50.0 25.999999999999996 0.0
  endloop
endfacet
facet normal -1.0 0.0 0.0
  outer loop
    vertex -3.9999999999999996 10.0 14.0
    vertex -3.9999999999999996 6.0 3.9999999999999996
    vertex -3.9999999999999996 6.0 14.0
  endloop
endfacet
facet normal -1.0 0.0 0.0
  outer loop
    vertex -3.9999999999999996 6.0 3.9999999999999996
    vertex -3.9999999999999996 10.0 14.0
    vertex -3.999999999999998 9.999999999999998 12.0
  endloop
endfacet
facet normal -1.0 0.0 0.0
  outer loop
    vertex -3.9999999999999996 6.0 3.9999999999999996
    vertex -3.9999999999999996 -5.0 0.0
    vertex -3.9999999999999996 -5.0 3.9999999999999996
  endloop
endfacet
facet normal -1.0 0.0 0.0
  outer loop
    vertex -3.9999999999999996 -5.0 0.0
    vertex -3.9999999999999996 6.0 3.9999999999999996
    vertex -3.9999999999999996 25.999999999999996 0.0
  endloop
endfacet
facet normal -1.0 0.0 0.0
  outer loop
    vertex -3.9999999999999996 25.999999999999996 0.0
    vertex -3.9999999999999996 6.0 3.9999999999999996
    vertex -3.9999999999999996 10.0 3.9999999999999996
  endloop
endfacet
facet normal -1.0 0.0 0.0
  outer loop
    vertex -3.9999999999999996 10.0 3.9999999999999996
    vertex -3.9999999999999996 6.0 3.9999999999999996
    vertex -3.999999999999998 9.999999999999998 12.0
  endloop
endfacet
facet normal -1.0 0.0 0.0
  outer loop
    vertex -3.9999999999999996 25.999999999999996 0.0
    vertex -3.9999999999999996 10.0 3.9999999999999996
    vertex -3.9999999999999996 25.999999999999996 3.9999999999999996
  endloop
endfacet
facet normal -0.0 1.0 -0.0
  outer loop
    vertex -3.9999999999999996 25.999999999999996 3.9999999999999996
    vertex 50.0 25.999999999999996 0.0
    vertex -3.9999999999999996 25.999999999999996 0.0
  endloop
endfacet
facet normal -0.0 1.0 -0.0
  outer loop
    vertex 50.0 25.999999999999996 0.0
    vertex -3.9999999999999996 25.999999999999996 3.9999999999999996
    vertex 50.0 25.999999999999996 3.9999999999999996
  endloop
endfacet
facet normal 1.0 0.0 0.0
  outer loop
    vertex 50.0 25.999999999999996 0.0
    vertex 50.0 -5.0 3.9999999999999996
    vertex 50.0 -5.0 0.0
  endloop
endfacet
facet normal 1.0 0.0 0.0
  outer loop
    vertex 50.0 -5.0 3.9999999999999996
    vertex 50.0 25.999999999999996 0.0
    vertex 50.0 16.8 3.9999999999999996
  endloop
endfacet
facet normal 1.0 0.0 0.0
  outer loop
    vertex 50.0 16.8 3.9999999999999996
    vertex 50.0 25.999999999999996 0.0
    vertex 50.0 20.799999999999997 3.9999999999999996
  endloop
endfacet
facet normal 1.0 0.0 0.0
  outer loop
    vertex 50.0 16.8 3.9999999999999996
    vertex 50.0 20.799999999999997 3.9999999999999996
    vertex 50.0 16.8 14.0
  endloop
endfacet
facet normal 1.0 0.0 0.0
  outer loop
    vertex 50.0 20.799999999999997 3.9999999999999996
    vertex 50.0 25.999999999999996 0.0
    vertex 50.0 25.999999999999996 3.9999999999999996
  endloop
endfacet
facet normal 1.0 0.0 0.0
  outer loop
    vertex 50.0 20.799999999999997 3.9999999999999996
    vertex 50.0 20.799999999999997 14.0
    vertex 50.0 16.8 14.0
  endloop
endfacet
facet normal 1.0 0.0 0.0
  outer loop
    vertex 50.0 20.799999999999997 14.0
    vertex 50.0 20.799999999999997 3.9999999999999996
    vertex 50.0 20.799999999999997 12.0
  endloop
endfacet
facet normal -1.0 0.0 0.0
  outer loop
    vertex 6.0 2.0000000000000013 14.0
    vertex 6.0 -5.0 3.9999999999999996
    vertex 6.0 -5.0 14.0
  endloop
endfacet
facet normal -1.0 0.0 0.0
  outer loop
    vertex 6.0 -5.0 3.9999999999999996
    vertex 6.0 2.0000000000000013 14.0
    vertex 6.0 2.0000000000000013 3.9999999999999996
  endloop
endfacet
facet normal -0.0 -0.0 1.0
  outer loop
    vertex 6.0 -5.0 3.9999999999999996
    vertex -3.9999999999999996 6.0 3.9999999999999996
    vertex -3.9999999999999996 -5.0 3.9999999999999996
  endloop
endfacet
facet normal -0.0 -0.0 1.0
  outer loop
    vertex -3.9999999999999996 6.0 3.9999999999999996
    vertex 6.0 -5.0 3.9999999999999996
    vertex 6.0 2.0000000000000013 3.9999999999999996
  endloop
endfacet
facet normal -0.37139067635410367 -0.9284766908852594 -9.229303149828999e-33
  outer loop
    vertex 6.0 2.0000000000000013 14.0
    vertex -3.9999999999999996 6.0 3.9999999999999996
    vertex 6.0 2.0000000000000013 3.9999999999999996
  endloop
endfacet
facet normal -0.37139067635410367 -0.9284766908852594 -9.229303149828999e-33
  outer loop
    vertex -3.9999999999999996 6.0 3.9999999999999996
    vertex 6.0 2.0000000000000013 14.0
    vertex -3.9999999999999996 6.0 14.0
  endloop
endfacet
facet normal 1.0 -0.0 0.0
  outer loop
    vertex 44.0 14.799999999999999 3.9999999999999996
    vertex 44.0 0.516632 14.0
    vertex 44.0 0.516632 3.9999999999999996
  endloop
endfacet
facet normal 1.0 -0.0 0.0
  outer loop
    vertex 44.0 0.516632 14.0
    vertex 44.0 14.799999999999999 3.9999999999999996
    vertex 44.0 14.799999999999999 14.0
  endloop
endfacet
facet normal 0.3162277660168382 -0.9486832980505139 0.0
  outer loop
    vertex 50.0 16.8 14.0
    vertex 44.0 14.799999999999999 3.9999999999999996
    vertex 50.0 16.8 3.9999999999999996
  endloop
endfacet
facet normal 0.3162277660168382 -0.9486832980505139 0.0
  outer loop
    vertex 44.0 14.799999999999999 3.9999999999999996
    vertex 50.0 16.8 14.0
    vertex 44.0 14.799999999999999 14.0
  endloop
endfacet
facet normal -0.3162277660168379 0.948683298050514 -3.929234230667487e-32
  outer loop
    vertex 41.0 17.799999999999997 12.0
    vertex 50.0 20.799999999999997 3.9999999999999996
    vertex 41.0 17.799999999999997 3.9999999999999996
  endloop
endfacet
facet normal -0.3162277660168379 0.948683298050514 -3.929234230667487e-32
  outer loop
    vertex 50.0 20.799999999999997 3.9999999999999996
    vertex 41.0 17.799999999999997 12.0
    vertex 50.0 20.799999999999997 12.0
  endloop
endfacet
facet normal -1.0 0.0 0.0
  outer loop
    vertex 41.0 17.799999999999997 14.0
    vertex 41.0 0.516632 3.9999999999999996
    vertex 41.0 0.516632 14.0
  endloop
endfacet
facet normal -1.0 0.0 0.0
  outer loop
    vertex 41.0 0.516632 3.9999999999999996
    vertex 41.0 17.799999999999997 14.0
    vertex 41.0 17.799999999999997 3.9999999999999996
  endloop
endfacet
facet normal -1.0 0.0 0.0
  outer loop
    vertex 41.0 17.799999999999997 3.9999999999999996
    vertex 41.0 17.799999999999997 14.0
    vertex 41.0 17.799999999999997 12.0
  endloop
endfacet
facet normal 0.37139067635410367 0.9284766908852594 5.643187191563036e-17
  outer loop
    vertex -3.999999999999998 9.999999999999998 12.0
    vertex 9.0 4.8 3.9999999999999996
    vertex -3.9999999999999996 10.0 3.9999999999999996
  endloop
endfacet
facet normal 0.37139067635410367 0.9284766908852594 5.643187191563036e-17
  outer loop
    vertex 9.0 4.8 3.9999999999999996
    vertex -3.999999999999998 9.999999999999998 12.0
    vertex 9.0 4.8 12.0
  endloop
endfacet
facet normal 0.37139067635410383 0.9284766908852594 -5.791966635367455e-17
  outer loop
    vertex -3.2572186472917926 11.85695338177052 14.0
    vertex 9.0 6.954065922853801 12.001428999999993
    vertex -3.2572186472917903 11.856953381770516 12.0
  endloop
endfacet
facet normal 0.37139067635410383 0.9284766908852594 -5.791966635367455e-17
  outer loop
    vertex 9.0 6.954065922853801 12.001428999999993
    vertex -3.2572186472917926 11.85695338177052 14.0
    vertex 9.0 6.954065922853801 14.0
  endloop
endfacet
facet normal -0.9284766908852594 0.3713906763541037 -1.2436797453586232e-15
  outer loop
    vertex -3.9999999999999996 10.0 14.0
    vertex -3.2572186472917903 11.856953381770516 12.0
    vertex -3.999999999999998 9.999999999999998 12.0
  endloop
endfacet
facet normal -0.9284766908852594 0.3713906763541037 -1.2436797453586232e-15
  outer loop
    vertex -3.2572186472917903 11.856953381770516 12.0
    vertex -3.9999999999999996 10.0 14.0
    vertex -3.2572186472917926 11.85695338177052 14.0
  endloop
endfacet
facet normal -0.3162277660168379 0.9486832980505138 -0.0
  outer loop
    vertex 41.0 19.908185106778916 14.0
    vertex 49.36754446796632 22.697366596101027 12.0
    vertex 41.0 19.908185106778916 12.0
  endloop
endfacet
facet normal -0.3162277660168379 0.9486832980505138 -0.0
  outer loop
    vertex 49.36754446796632 22.697366596101027 12.0
    vertex 41.0 19.908185106778916 14.0
    vertex 49.36754446796632 22.697366596101027 14.0
  endloop
endfacet
facet normal 0.9486832980505138 0.3162277660168379 0.0
  outer loop
    vertex 49.36754446796632 22.697366596101027 12.0
    vertex 50.0 20.799999999999997 14.0
    vertex 50.0 20.799999999999997 12.0
  endloop
endfacet
facet normal 0.9486832980505138 0.3162277660168379 0.0
  outer loop
    vertex 50.0 20.799999999999997 14.0
    vertex 49.36754446796632 22.697366596101027 12.0
    vertex 49.36754446796632 22.697366596101027 14.0
  endloop
endfacet
facet normal 0.0 0.0 -1.0
  outer loop
    vertex 49.36754446796632 22.697366596101027 12.0
    vertex 41.0 17.799999999999997 12.0
    vertex 41.0 19.908185106778916 12.0
  endloop
endfacet
facet normal 0.0 0.0 -1.0
  outer loop
    vertex 41.0 17.799999999999997 12.0
    vertex 49.36754446796632 22.697366596101027 12.0
    vertex 50.0 20.799999999999997 12.0
  endloop
endfacet
facet normal -0.0 -0.0 1.0
  outer loop
    vertex 44.0 0.516632 14.0
    vertex 41.0 17.799999999999997 14.0
    vertex 41.0 0.516632 14.0
  endloop
endfacet
facet normal -0.0 -0.0 1.0
  outer loop
    vertex 41.0 17.799999999999997 14.0
    vertex 44.0 0.516632 14.0
    vertex 41.0 19.908185106778916 14.0
  endloop
endfacet
facet normal -0.0 -0.0 1.0
  outer loop
    vertex 41.0 19.908185106778916 14.0
    vertex 44.0 0.516632 14.0
    vertex 44.0 14.799999999999999 14.0
  endloop
endfacet
facet normal -0.0 -0.0 1.0
  outer loop
    vertex 41.0 19.908185106778916 14.0
    vertex 44.0 14.799999999999999 14.0
    vertex 49.36754446796632 22.697366596101027 14.0
  endloop
endfacet
facet normal -0.0 -0.0 1.0
  outer loop
    vertex 49.36754446796632 22.697366596101027 14.0
    vertex 44.0 14.799999999999999 14.0
    vertex 50.0 16.8 14.0
  endloop
endfacet
facet normal -0.0 -0.0 1.0
  outer loop
    vertex 49.36754446796632 22.697366596101027 14.0
    vertex 50.0 16.8 14.0
    vertex 50.0 20.799999999999997 14.0
  endloop
endfacet
facet normal -1.0 0.0 0.0
  outer loop
    vertex 41.0 19.908185106778916 14.0
    vertex 41.0 17.799999999999997 12.0
    vertex 41.0 17.799999999999997 14.0
  endloop
endfacet
facet normal -1.0 0.0 0.0
  outer loop
    vertex 41.0 17.799999999999997 12.0
    vertex 41.0 19.908185106778916 14.0
    vertex 41.0 19.908185106778916 12.0
  endloop
endfacet
facet normal -0.0 -0.0 1.0
  outer loop
    vertex 9.0 -5.0 14.0
    vertex 6.0 2.0000000000000013 14.0
    vertex 6.0 -5.0 14.0
  endloop
endfacet
facet normal -0.0 -0.0 1.0
  outer loop
    vertex 6.0 2.0000000000000013 14.0
    vertex -3.9999999999999996 10.0 14.0
    vertex -3.9999999999999996 6.0 14.0
  endloop
endfacet
facet normal -0.0 -0.0 1.0
  outer loop
    vertex -3.9999999999999996 10.0 14.0
    vertex 6.0 2.0000000000000013 14.0
    vertex -3.2572186472917926 11.85695338177052 14.0
  endloop
endfacet
facet normal -0.0 -0.0 1.0
  outer loop
    vertex -3.2572186472917926 11.85695338177052 14.0
    vertex 6.0 2.0000000000000013 14.0
    vertex 9.0 6.954065922853801 14.0
  endloop
endfacet
facet normal -0.0 -0.0 1.0
  outer loop
    vertex 9.0 6.954065922853801 14.0
    vertex 6.0 2.0000000000000013 14.0
    vertex 9.0 -5.0 14.0
  endloop
endfacet
facet normal 1.0 -0.0 -0.0
  outer loop
    vertex 9.0 4.8 3.9999999999999996
    vertex 9.0 -5.0 14.0
    vertex 9.0 -5.0 3.9999999999999996
  endloop
endfacet
facet normal 1.0 -0.0 -0.0
  outer loop
    vertex 9.0 -5.0 14.0
    vertex 9.0 4.8 3.9999999999999996
    vertex 9.0 4.8 12.0
  endloop
endfacet
facet normal 1.0 -0.0 -0.0
  outer loop
    vertex 9.0 -5.0 14.0
    vertex 9.0 4.8 12.0
    vertex 9.0 6.954065922853801 14.0
  endloop
endfacet
facet normal 1.0 -0.0 -0.0
  outer loop
    vertex 9.0 6.954065922853801 14.0
    vertex 9.0 4.8 12.0
    vertex 9.0 6.954065922853801 12.001428999999993
  endloop
endfacet
facet normal 0.0001356147704434155 0.00020919247172981114 -0.9999999689235716
  outer loop
    vertex -3.2572186472917903 11.856953381770516 12.0
    vertex 9.0 4.8 12.0
    vertex -3.999999999999998 9.999999999999998 12.0
  endloop
endfacet
facet normal 0.0001356147704434155 0.00020919247172981114 -0.9999999689235716
  outer loop
    vertex 9.0 4.8 12.0
    vertex -3.2572186472917903 11.856953381770516 12.0
    vertex 9.0 6.954065922853801 12.001428999999993
  endloop
endfacet
facet normal 0.0 0.0 1.0
  outer loop
    vertex 19.32392150313894 9.054681043881413 3.0
    vertex 19.093763157353315 11.086356315860627 3.0
    vertex 19.07510476832482 10.05536821933939 3.0
  endloop
endfacet
facet normal 0.0 0.0 1.0
  outer loop
    vertex 19.093763157353315 11.086356315860627 3.0
    vertex 19.32392150313894 9.054681043881413 3.0
    vertex 19.37862513184658 12.077385198455595 3.0
  endloop
endfacet
facet normal 0.0 0.0 1.0
  outer loop
    vertex 19.37862513184658 12.077385198455595 3.0
    vertex 19.32392150313894 9.054681043881413 3.0
    vertex 19.82325691250719 8.152489966780411 3.0
  endloop
endfacet
facet normal 0.0 0.0 1.0
  outer loop
    vertex 19.37862513184658 12.077385198455595 3.0
    vertex 19.82325691250719 8.152489966780411 3.0
    vertex 19.910277818999568 12.960917886528101 3.0
  endloop
endfacet
facet normal 0.0 0.0 1.0
  outer loop
    vertex 19.910277818999568 12.960917886528101 3.0
    vertex 19.82325691250719 8.152489966780411 3.0
    vertex 20.539082113471903 7.410277818999566 3.0
  endloop
endfacet
facet normal 0.0 0.0 1.0
  outer loop
    vertex 19.910277818999568 12.960917886528101 3.0
    vertex 20.539082113471903 7.410277818999566 3.0
    vertex 20.65248996678041 13.676743087492813 3.0
  endloop
endfacet
facet normal 0.0 0.0 1.0
  outer loop
    vertex 20.65248996678041 13.676743087492813 3.0
    vertex 20.539082113471903 7.410277818999566 3.0
    vertex 20.9000162992783 10.491726143392105 3.0
  endloop
endfacet
facet normal 0.0 0.0 1.0
  outer loop
    vertex 20.9000162992783 10.491726143392105 3.0
    vertex 20.539082113471903 7.410277818999566 3.0
    vertex 20.973712940353384 9.948492292067773 3.0
  endloop
endfacet
facet normal 0.0 0.0 1.0
  outer loop
    vertex 20.973712940353384 9.948492292067773 3.0
    vertex 20.539082113471903 7.410277818999566 3.0
    vertex 21.42261480154441 6.8786251318465785 3.0
  endloop
endfacet
facet normal 0.0 0.0 1.0
  outer loop
    vertex 20.973712940353384 9.948492292067773 3.0
    vertex 21.42261480154441 6.8786251318465785 3.0
    vertex 21.185497695945696 9.442842779629443 3.0
  endloop
endfacet
facet normal 0.0 0.0 1.0
  outer loop
    vertex 21.185497695945696 9.442842779629443 3.0
    vertex 21.42261480154441 6.8786251318465785 3.0
    vertex 21.520937784952473 9.009236784724454 3.0
  endloop
endfacet
facet normal 0.0 0.0 1.0
  outer loop
    vertex 21.520937784952473 9.009236784724454 3.0
    vertex 21.42261480154441 6.8786251318465785 3.0
    vertex 22.413643684139377 6.5937631573533135 3.0
  endloop
endfacet
facet normal 0.0 0.0 1.0
  outer loop
    vertex 21.520937784952473 9.009236784724454 3.0
    vertex 22.413643684139377 6.5937631573533135 3.0
    vertex 21.957173519648855 8.677223839337799 3.0
  endloop
endfacet
facet normal 0.0 0.0 1.0
  outer loop
    vertex 21.957173519648855 8.677223839337799 3.0
    vertex 22.413643684139377 6.5937631573533135 3.0
    vertex 22.46447615562893 8.469430077020242 3.0
  endloop
endfacet
facet normal 0.0 0.0 1.0
  outer loop
    vertex 22.46447615562893 8.469430077020242 3.0
    vertex 22.413643684139377 6.5937631573533135 3.0
    vertex 23.444631780660615 6.575104768324818 3.0
  endloop
endfacet
facet normal 0.0 0.0 1.0
  outer loop
    vertex 22.46447615562893 8.469430077020242 3.0
    vertex 23.444631780660615 6.575104768324818 3.0
    vertex 23.008273856607897 8.400016299278295 3.0
  endloop
endfacet
facet normal 0.0 0.0 1.0
  outer loop
    vertex 23.008273856607897 8.400016299278295 3.0
    vertex 23.444631780660615 6.575104768324818 3.0
    vertex 23.551507707932227 8.473712940353382 3.0
  endloop
endfacet
facet normal 0.0 0.0 1.0
  outer loop
    vertex 23.551507707932227 8.473712940353382 3.0
    vertex 23.444631780660615 6.575104768324818 3.0
    vertex 24.44531895611859 6.823921503138939 3.0
  endloop
endfacet
facet normal 0.0 0.0 1.0
  outer loop
    vertex 23.551507707932227 8.473712940353382 3.0
    vertex 24.44531895611859 6.823921503138939 3.0
    vertex 24.057157220370563 8.685497695945692 3.0
  endloop
endfacet
facet normal 0.0 0.0 1.0
  outer loop
    vertex 24.057157220370563 8.685497695945692 3.0
    vertex 24.44531895611859 6.823921503138939 3.0
    vertex 24.49076321527555 9.020937784952467 3.0
  endloop
endfacet
facet normal 0.0 0.0 1.0
  outer loop
    vertex 24.49076321527555 9.020937784952467 3.0
    vertex 24.44531895611859 6.823921503138939 3.0
    vertex 25.347510033219592 7.323256912507187 3.0
  endloop
endfacet
facet normal 0.0 0.0 1.0
  outer loop
    vertex 24.49076321527555 9.020937784952467 3.0
    vertex 25.347510033219592 7.323256912507187 3.0
    vertex 24.822776160662205 9.457173519648853 3.0
  endloop
endfacet
facet normal 0.0 0.0 1.0
  outer loop
    vertex 24.822776160662205 9.457173519648853 3.0
    vertex 25.347510033219592 7.323256912507187 3.0
    vertex 25.030569922979762 9.964476155628928 3.0
  endloop
endfacet
facet normal 0.0 0.0 1.0
  outer loop
    vertex 25.030569922979762 9.964476155628928 3.0
    vertex 25.347510033219592 7.323256912507187 3.0
    vertex 25.099983700721708 10.508273856607893 3.0
  endloop
endfacet
facet normal 0.0 0.0 1.0
  outer loop
    vertex 20.65248996678041 13.676743087492813 3.0
    vertex 20.96943007702024 11.035523844371072 3.0
    vertex 21.554681043881416 14.176078496861061 3.0
  endloop
endfacet
facet normal 0.0 0.0 1.0
  outer loop
    vertex 20.96943007702024 11.035523844371072 3.0
    vertex 20.65248996678041 13.676743087492813 3.0
    vertex 20.9000162992783 10.491726143392105 3.0
  endloop
endfacet
facet normal 0.0 0.0 1.0
  outer loop
    vertex 21.554681043881416 14.176078496861061 3.0
    vertex 20.96943007702024 11.035523844371072 3.0
    vertex 21.1772238393378 11.542826480351147 3.0
  endloop
endfacet
facet normal 0.0 0.0 1.0
  outer loop
    vertex 21.554681043881416 14.176078496861061 3.0
    vertex 21.1772238393378 11.542826480351147 3.0
    vertex 21.509236784724457 11.979062215047533 3.0
  endloop
endfacet
facet normal 0.0 0.0 1.0
  outer loop
    vertex 21.554681043881416 14.176078496861061 3.0
    vertex 21.509236784724457 11.979062215047533 3.0
    vertex 21.942842779629444 12.314502304054308 3.0
  endloop
endfacet
facet normal 0.0 0.0 1.0
  outer loop
    vertex 21.554681043881416 14.176078496861061 3.0
    vertex 21.942842779629444 12.314502304054308 3.0
    vertex 22.555368219339393 14.424895231675183 3.0
  endloop
endfacet
facet normal 0.0 0.0 1.0
  outer loop
    vertex 22.555368219339393 14.424895231675183 3.0
    vertex 21.942842779629444 12.314502304054308 3.0
    vertex 22.448492292067776 12.526287059646618 3.0
  endloop
endfacet
facet normal 0.0 0.0 1.0
  outer loop
    vertex 22.555368219339393 14.424895231675183 3.0
    vertex 22.448492292067776 12.526287059646618 3.0
    vertex 22.991726143392107 12.599983700721706 3.0
  endloop
endfacet
facet normal 0.0 0.0 1.0
  outer loop
    vertex 22.555368219339393 14.424895231675183 3.0
    vertex 22.991726143392107 12.599983700721706 3.0
    vertex 23.58635631586063 14.406236842646686 3.0
  endloop
endfacet
facet normal 0.0 0.0 1.0
  outer loop
    vertex 23.58635631586063 14.406236842646686 3.0
    vertex 22.991726143392107 12.599983700721706 3.0
    vertex 23.535523844371074 12.53056992297976 3.0
  endloop
endfacet
facet normal 0.0 0.0 1.0
  outer loop
    vertex 23.58635631586063 14.406236842646686 3.0
    vertex 23.535523844371074 12.53056992297976 3.0
    vertex 24.04282648035115 12.322776160662201 3.0
  endloop
endfacet
facet normal 0.0 0.0 1.0
  outer loop
    vertex 23.58635631586063 14.406236842646686 3.0
    vertex 24.04282648035115 12.322776160662201 3.0
    vertex 24.577385198455598 14.121374868153422 3.0
  endloop
endfacet
facet normal 0.0 0.0 1.0
  outer loop
    vertex 24.577385198455598 14.121374868153422 3.0
    vertex 24.04282648035115 12.322776160662201 3.0
    vertex 24.479062215047534 11.990763215275546 3.0
  endloop
endfacet
facet normal 0.0 0.0 1.0
  outer loop
    vertex 24.577385198455598 14.121374868153422 3.0
    vertex 24.479062215047534 11.990763215275546 3.0
    vertex 24.81450230405431 11.55715722037056 3.0
  endloop
endfacet
facet normal 0.0 0.0 1.0
  outer loop
    vertex 24.577385198455598 14.121374868153422 3.0
    vertex 24.81450230405431 11.55715722037056 3.0
    vertex 25.460917886528105 13.589722181000432 3.0
  endloop
endfacet
facet normal 0.0 0.0 1.0
  outer loop
    vertex 25.460917886528105 13.589722181000432 3.0
    vertex 24.81450230405431 11.55715722037056 3.0
    vertex 25.02628705964662 11.051507707932226 3.0
  endloop
endfacet
facet normal 0.0 0.0 1.0
  outer loop
    vertex 25.460917886528105 13.589722181000432 3.0
    vertex 25.02628705964662 11.051507707932226 3.0
    vertex 25.099983700721708 10.508273856607893 3.0
  endloop
endfacet
facet normal 0.0 0.0 1.0
  outer loop
    vertex 25.460917886528105 13.589722181000432 3.0
    vertex 25.099983700721708 10.508273856607893 3.0
    vertex 25.347510033219592 7.323256912507187 3.0
  endloop
endfacet
facet normal 0.0 0.0 1.0
  outer loop
    vertex 25.460917886528105 13.589722181000432 3.0
    vertex 25.347510033219592 7.323256912507187 3.0
    vertex 26.089722181000436 8.0390821134719 3.0
  endloop
endfacet
facet normal 0.0 0.0 1.0
  outer loop
    vertex 25.460917886528105 13.589722181000432 3.0
    vertex 26.089722181000436 8.0390821134719 3.0
    vertex 26.176743087492813 12.84751003321959 3.0
  endloop
endfacet
facet normal 0.0 0.0 1.0
  outer loop
    vertex 26.176743087492813 12.84751003321959 3.0
    vertex 26.089722181000436 8.0390821134719 3.0
    vertex 26.621374868153428 8.922614801544407 3.0
  endloop
endfacet
facet normal 0.0 0.0 1.0
  outer loop
    vertex 26.176743087492813 12.84751003321959 3.0
    vertex 26.621374868153428 8.922614801544407 3.0
    vertex 26.676078496861066 11.945318956118586 3.0
  endloop
endfacet
facet normal 0.0 0.0 1.0
  outer loop
    vertex 26.676078496861066 11.945318956118586 3.0
    vertex 26.621374868153428 8.922614801544407 3.0
    vertex 26.90623684264669 9.913643684139371 3.0
  endloop
endfacet
facet normal 0.0 0.0 1.0
  outer loop
    vertex 26.676078496861066 11.945318956118586 3.0
    vertex 26.90623684264669 9.913643684139371 3.0
    vertex 26.924895231675183 10.94463178066061 3.0
  endloop
endfacet
facet normal -0.27625472842391025 -0.9610844525968733 -0.0
  outer loop
    vertex 24.577385198455598 14.121374868153422 3.9999999999999996
    vertex 23.58635631586063 14.406236842646686 3.0
    vertex 24.577385198455598 14.121374868153422 3.0
  endloop
endfacet
facet normal -0.27625472842391025 -0.9610844525968733 -0.0
  outer loop
    vertex 23.58635631586063 14.406236842646686 3.0
    vertex 24.577385198455598 14.121374868153422 3.9999999999999996
    vertex 23.58635631586063 14.406236842646686 3.9999999999999996
  endloop
endfacet
facet normal -0.018094616535127513 -0.9998362790239443 -0.0
  outer loop
    vertex 23.58635631586063 14.406236842646686 3.9999999999999996
    vertex 22.555368219339393 14.424895231675183 3.0
    vertex 23.58635631586063 14.406236842646686 3.0
  endloop
endfacet
facet normal -0.018094616535127513 -0.9998362790239443 -0.0
  outer loop
    vertex 22.555368219339393 14.424895231675183 3.0
    vertex 23.58635631586063 14.406236842646686 3.9999999999999996
    vertex 22.555368219339393 14.424895231675183 3.9999999999999996
  endloop
endfacet
facet normal 0.2412986135677603 -0.9704509153431083 -0.0
  outer loop
    vertex 22.555368219339393 14.424895231675183 3.9999999999999996
    vertex 21.554681043881416 14.176078496861061 3.0
    vertex 22.555368219339393 14.424895231675183 3.0
  endloop
endfacet
facet normal 0.2412986135677603 -0.9704509153431083 -0.0
  outer loop
    vertex 21.554681043881416 14.176078496861061 3.0
    vertex 22.555368219339393 14.424895231675183 3.9999999999999996
    vertex 21.554681043881416 14.176078496861061 3.9999999999999996
  endloop
endfacet
facet normal 0.4842477419208126 -0.8749309255276067 -0.0
  outer loop
    vertex 21.554681043881416 14.176078496861061 3.9999999999999996
    vertex 20.65248996678041 13.676743087492813 3.0
    vertex 21.554681043881416 14.176078496861061 3.0
  endloop
endfacet
facet normal 0.4842477419208126 -0.8749309255276067 -0.0
  outer loop
    vertex 20.65248996678041 13.676743087492813 3.0
    vertex 21.554681043881416 14.176078496861061 3.9999999999999996
    vertex 20.65248996678041 13.676743087492813 3.9999999999999996
  endloop
endfacet
facet normal 0.694196186919199 -0.7197858390291132 -0.0
  outer loop
    vertex 20.65248996678041 13.676743087492813 3.9999999999999996
    vertex 19.910277818999568 12.960917886528101 3.0
    vertex 20.65248996678041 13.676743087492813 3.0
  endloop
endfacet
facet normal 0.694196186919199 -0.7197858390291132 -0.0
  outer loop
    vertex 19.910277818999568 12.960917886528101 3.0
    vertex 20.65248996678041 13.676743087492813 3.9999999999999996
    vertex 19.910277818999568 12.960917886528101 3.9999999999999996
  endloop
endfacet
facet normal 0.8568363089924791 -0.5155885371031294 -0.0
  outer loop
    vertex 19.910277818999568 12.960917886528101 3.0
    vertex 19.37862513184658 12.077385198455595 3.9999999999999996
    vertex 19.37862513184658 12.077385198455595 3.0
  endloop
endfacet
facet normal 0.8568363089924791 -0.5155885371031294 -0.0
  outer loop
    vertex 19.37862513184658 12.077385198455595 3.9999999999999996
    vertex 19.910277818999568 12.960917886528101 3.0
    vertex 19.910277818999568 12.960917886528101 3.9999999999999996
  endloop
endfacet
facet normal 0.9610844525968733 -0.27625472842391025 -0.0
  outer loop
    vertex 19.37862513184658 12.077385198455595 3.0
    vertex 19.093763157353315 11.086356315860627 3.9999999999999996
    vertex 19.093763157353315 11.086356315860627 3.0
  endloop
endfacet
facet normal 0.9610844525968733 -0.27625472842391025 -0.0
  outer loop
    vertex 19.093763157353315 11.086356315860627 3.9999999999999996
    vertex 19.37862513184658 12.077385198455595 3.0
    vertex 19.37862513184658 12.077385198455595 3.9999999999999996
  endloop
endfacet
facet normal 0.9998362790239445 -0.01809461653512754 -0.0
  outer loop
    vertex 19.093763157353315 11.086356315860627 3.0
    vertex 19.07510476832482 10.05536821933939 3.9999999999999996
    vertex 19.07510476832482 10.05536821933939 3.0
  endloop
endfacet
facet normal 0.9998362790239445 -0.01809461653512754 -0.0
  outer loop
    vertex 19.07510476832482 10.05536821933939 3.9999999999999996
    vertex 19.093763157353315 11.086356315860627 3.0
    vertex 19.093763157353315 11.086356315860627 3.9999999999999996
  endloop
endfacet
facet normal 0.9704509153431086 0.2412986135677597 0.0
  outer loop
    vertex 19.07510476832482 10.05536821933939 3.0
    vertex 19.32392150313894 9.054681043881413 3.9999999999999996
    vertex 19.32392150313894 9.054681043881413 3.0
  endloop
endfacet
facet normal 0.9704509153431086 0.2412986135677597 0.0
  outer loop
    vertex 19.32392150313894 9.054681043881413 3.9999999999999996
    vertex 19.07510476832482 10.05536821933939 3.0
    vertex 19.07510476832482 10.05536821933939 3.9999999999999996
  endloop
endfacet
facet normal 0.8749309255276055 0.48424774192081427 0.0
  outer loop
    vertex 19.32392150313894 9.054681043881413 3.0
    vertex 19.82325691250719 8.152489966780411 3.9999999999999996
    vertex 19.82325691250719 8.152489966780411 3.0
  endloop
endfacet
facet normal 0.8749309255276055 0.48424774192081427 0.0
  outer loop
    vertex 19.82325691250719 8.152489966780411 3.9999999999999996
    vertex 19.32392150313894 9.054681043881413 3.0
    vertex 19.32392150313894 9.054681043881413 3.9999999999999996
  endloop
endfacet
facet normal 0.7197858390291146 0.6941961869191977 0.0
  outer loop
    vertex 19.82325691250719 8.152489966780411 3.0
    vertex 20.539082113471903 7.410277818999566 3.9999999999999996
    vertex 20.539082113471903 7.410277818999566 3.0
  endloop
endfacet
facet normal 0.7197858390291146 0.6941961869191977 0.0
  outer loop
    vertex 20.539082113471903 7.410277818999566 3.9999999999999996
    vertex 19.82325691250719 8.152489966780411 3.0
    vertex 19.82325691250719 8.152489966780411 3.9999999999999996
  endloop
endfacet
facet normal 0.5155885371031294 0.8568363089924791 0.0
  outer loop
    vertex 20.539082113471903 7.410277818999566 3.9999999999999996
    vertex 21.42261480154441 6.8786251318465785 3.0
    vertex 20.539082113471903 7.410277818999566 3.0
  endloop
endfacet
facet normal 0.5155885371031294 0.8568363089924791 0.0
  outer loop
    vertex 21.42261480154441 6.8786251318465785 3.0
    vertex 20.539082113471903 7.410277818999566 3.9999999999999996
    vertex 21.42261480154441 6.8786251318465785 3.9999999999999996
  endloop
endfacet
facet normal 0.27625472842391025 0.9610844525968733 0.0
  outer loop
    vertex 21.42261480154441 6.8786251318465785 3.9999999999999996
    vertex 22.413643684139377 6.5937631573533135 3.0
    vertex 21.42261480154441 6.8786251318465785 3.0
  endloop
endfacet
facet normal 0.27625472842391025 0.9610844525968733 0.0
  outer loop
    vertex 22.413643684139377 6.5937631573533135 3.0
    vertex 21.42261480154441 6.8786251318465785 3.9999999999999996
    vertex 22.413643684139377 6.5937631573533135 3.9999999999999996
  endloop
endfacet
facet normal 0.018094616535127513 0.9998362790239443 0.0
  outer loop
    vertex 22.413643684139377 6.5937631573533135 3.9999999999999996
    vertex 23.444631780660615 6.575104768324818 3.0
    vertex 22.413643684139377 6.5937631573533135 3.0
  endloop
endfacet
facet normal 0.018094616535127513 0.9998362790239443 0.0
  outer loop
    vertex 23.444631780660615 6.575104768324818 3.0
    vertex 22.413643684139377 6.5937631573533135 3.9999999999999996
    vertex 23.444631780660615 6.575104768324818 3.9999999999999996
  endloop
endfacet
facet normal -0.2412986135677603 0.9704509153431083 -0.0
  outer loop
    vertex 23.444631780660615 6.575104768324818 3.9999999999999996
    vertex 24.44531895611859 6.823921503138939 3.0
    vertex 23.444631780660615 6.575104768324818 3.0
  endloop
endfacet
facet normal -0.2412986135677603 0.9704509153431083 -0.0
  outer loop
    vertex 24.44531895611859 6.823921503138939 3.0
    vertex 23.444631780660615 6.575104768324818 3.9999999999999996
    vertex 24.44531895611859 6.823921503138939 3.9999999999999996
  endloop
endfacet
facet normal -0.48424774192081377 0.874930925527606 -0.0
  outer loop
    vertex 24.44531895611859 6.823921503138939 3.9999999999999996
    vertex 25.347510033219592 7.323256912507187 3.0
    vertex 24.44531895611859 6.823921503138939 3.0
  endloop
endfacet
facet normal -0.48424774192081377 0.874930925527606 -0.0
  outer loop
    vertex 25.347510033219592 7.323256912507187 3.0
    vertex 24.44531895611859 6.823921503138939 3.9999999999999996
    vertex 25.347510033219592 7.323256912507187 3.9999999999999996
  endloop
endfacet
facet normal -0.694196186919199 0.7197858390291132 -0.0
  outer loop
    vertex 25.347510033219592 7.323256912507187 3.9999999999999996
    vertex 26.089722181000436 8.0390821134719 3.0
    vertex 25.347510033219592 7.323256912507187 3.0
  endloop
endfacet
facet normal -0.694196186919199 0.7197858390291132 -0.0
  outer loop
    vertex 26.089722181000436 8.0390821134719 3.0
    vertex 25.347510033219592 7.323256912507187 3.9999999999999996
    vertex 26.089722181000436 8.0390821134719 3.9999999999999996
  endloop
endfacet
facet normal -0.8568363089924768 0.5155885371031333 -0.0
  outer loop
    vertex 26.621374868153428 8.922614801544407 3.9999999999999996
    vertex 26.089722181000436 8.0390821134719 3.0
    vertex 26.089722181000436 8.0390821134719 3.9999999999999996
  endloop
endfacet
facet normal -0.8568363089924768 0.5155885371031333 -0.0
  outer loop
    vertex 26.089722181000436 8.0390821134719 3.0
    vertex 26.621374868153428 8.922614801544407 3.9999999999999996
    vertex 26.621374868153428 8.922614801544407 3.0
  endloop
endfacet
facet normal -0.9610844525968739 0.27625472842390814 -0.0
  outer loop
    vertex 26.90623684264669 9.913643684139371 3.9999999999999996
    vertex 26.621374868153428 8.922614801544407 3.0
    vertex 26.621374868153428 8.922614801544407 3.9999999999999996
  endloop
endfacet
facet normal -0.9610844525968739 0.27625472842390814 -0.0
  outer loop
    vertex 26.621374868153428 8.922614801544407 3.0
    vertex 26.90623684264669 9.913643684139371 3.9999999999999996
    vertex 26.90623684264669 9.913643684139371 3.0
  endloop
endfacet
facet normal -0.9998362790239443 0.018094616535124803 -0.0
  outer loop
    vertex 26.924895231675183 10.94463178066061 3.9999999999999996
    vertex 26.90623684264669 9.913643684139371 3.0
    vertex 26.90623684264669 9.913643684139371 3.9999999999999996
  endloop
endfacet
facet normal -0.9998362790239443 0.018094616535124803 -0.0
  outer loop
    vertex 26.90623684264669 9.913643684139371 3.0
    vertex 26.924895231675183 10.94463178066061 3.9999999999999996
    vertex 26.924895231675183 10.94463178066061 3.0
  endloop
endfacet
facet normal -0.9704509153431097 -0.24129861356775484 -0.0
  outer loop
    vertex 26.676078496861066 11.945318956118586 3.9999999999999996
    vertex 26.924895231675183 10.94463178066061 3.0
    vertex 26.924895231675183 10.94463178066061 3.9999999999999996
  endloop
endfacet
facet normal -0.9704509153431097 -0.24129861356775484 -0.0
  outer loop
    vertex 26.924895231675183 10.94463178066061 3.0
    vertex 26.676078496861066 11.945318956118586 3.9999999999999996
    vertex 26.676078496861066 11.945318956118586 3.0
  endloop
endfacet
facet normal -0.874930925527604 -0.4842477419208173 -0.0
  outer loop
    vertex 26.176743087492813 12.84751003321959 3.9999999999999996
    vertex 26.676078496861066 11.945318956118586 3.0
    vertex 26.676078496861066 11.945318956118586 3.9999999999999996
  endloop
endfacet
facet normal -0.874930925527604 -0.4842477419208173 -0.0
  outer loop
    vertex 26.676078496861066 11.945318956118586 3.0
    vertex 26.176743087492813 12.84751003321959 3.9999999999999996
    vertex 26.176743087492813 12.84751003321959 3.0
  endloop
endfacet
facet normal -0.7197858390291146 -0.6941961869191977 -0.0
  outer loop
    vertex 25.460917886528105 13.589722181000432 3.9999999999999996
    vertex 26.176743087492813 12.84751003321959 3.0
    vertex 26.176743087492813 12.84751003321959 3.9999999999999996
  endloop
endfacet
facet normal -0.7197858390291146 -0.6941961869191977 -0.0
  outer loop
    vertex 26.176743087492813 12.84751003321959 3.0
    vertex 25.460917886528105 13.589722181000432 3.9999999999999996
    vertex 25.460917886528105 13.589722181000432 3.0
  endloop
endfacet
facet normal -0.5155885371031314 -0.8568363089924779 -0.0
  outer loop
    vertex 25.460917886528105 13.589722181000432 3.9999999999999996
    vertex 24.577385198455598 14.121374868153422 3.0
    vertex 25.460917886528105 13.589722181000432 3.0
  endloop
endfacet
facet normal -0.5155885371031314 -0.8568363089924779 -0.0
  outer loop
    vertex 24.577385198455598 14.121374868153422 3.0
    vertex 25.460917886528105 13.589722181000432 3.9999999999999996
    vertex 24.577385198455598 14.121374868153422 3.9999999999999996
  endloop
endfacet
facet normal -0.6056309460806699 -0.7957456610936895 -0.0
  outer loop
    vertex 24.479062215047534 11.990763215275546 3.0
    vertex 24.04282648035115 12.322776160662201 0.0
    vertex 24.479062215047534 11.990763215275546 0.0
  endloop
endfacet
facet normal -0.6056309460806699 -0.7957456610936895 -0.0
  outer loop
    vertex 24.04282648035115 12.322776160662201 0.0
    vertex 24.479062215047534 11.990763215275546 3.0
    vertex 24.04282648035115 12.322776160662201 3.0
  endloop
endfacet
facet normal -0.3790404398704555 -0.9253801083569994 -0.0
  outer loop
    vertex 24.04282648035115 12.322776160662201 3.0
    vertex 23.535523844371074 12.53056992297976 0.0
    vertex 24.04282648035115 12.322776160662201 0.0
  endloop
endfacet
facet normal -0.3790404398704555 -0.9253801083569994 -0.0
  outer loop
    vertex 23.535523844371074 12.53056992297976 0.0
    vertex 24.04282648035115 12.322776160662201 3.0
    vertex 23.535523844371074 12.53056992297976 3.0
  endloop
endfacet
facet normal -0.12661895407701834 -0.9919514304987125 -0.0
  outer loop
    vertex 23.535523844371074 12.53056992297976 3.0
    vertex 22.991726143392107 12.599983700721706 0.0
    vertex 23.535523844371074 12.53056992297976 0.0
  endloop
endfacet
facet normal -0.12661895407701834 -0.9919514304987125 -0.0
  outer loop
    vertex 22.991726143392107 12.599983700721706 0.0
    vertex 23.535523844371074 12.53056992297976 3.0
    vertex 22.991726143392107 12.599983700721706 3.0
  endloop
endfacet
facet normal 0.1344314041890563 -0.9909229019291856 -0.0
  outer loop
    vertex 22.991726143392107 12.599983700721706 3.0
    vertex 22.448492292067776 12.526287059646618 0.0
    vertex 22.991726143392107 12.599983700721706 0.0
  endloop
endfacet
facet normal 0.1344314041890563 -0.9909229019291856 -0.0
  outer loop
    vertex 22.448492292067776 12.526287059646618 0.0
    vertex 22.991726143392107 12.599983700721706 3.0
    vertex 22.448492292067776 12.526287059646618 3.0
  endloop
endfacet
facet normal 0.38632048441804523 -0.9223646151707072 -0.0
  outer loop
    vertex 22.448492292067776 12.526287059646618 3.0
    vertex 21.942842779629444 12.314502304054308 0.0
    vertex 22.448492292067776 12.526287059646618 0.0
  endloop
endfacet
facet normal 0.38632048441804523 -0.9223646151707072 -0.0
  outer loop
    vertex 21.942842779629444 12.314502304054308 0.0
    vertex 22.448492292067776 12.526287059646618 3.0
    vertex 21.942842779629444 12.314502304054308 3.0
  endloop
endfacet
facet normal 0.6118824620587291 -0.7909487041679429 -0.0
  outer loop
    vertex 21.942842779629444 12.314502304054308 3.0
    vertex 21.509236784724457 11.979062215047533 0.0
    vertex 21.942842779629444 12.314502304054308 0.0
  endloop
endfacet
facet normal 0.6118824620587291 -0.7909487041679429 -0.0
  outer loop
    vertex 21.509236784724457 11.979062215047533 0.0
    vertex 21.942842779629444 12.314502304054308 3.0
    vertex 21.509236784724457 11.979062215047533 3.0
  endloop
endfacet
facet normal 0.7957456610936882 -0.6056309460806716 -0.0
  outer loop
    vertex 21.509236784724457 11.979062215047533 0.0
    vertex 21.1772238393378 11.542826480351147 3.0
    vertex 21.1772238393378 11.542826480351147 0.0
  endloop
endfacet
facet normal 0.7957456610936882 -0.6056309460806716 -0.0
  outer loop
    vertex 21.1772238393378 11.542826480351147 3.0
    vertex 21.509236784724457 11.979062215047533 0.0
    vertex 21.509236784724457 11.979062215047533 3.0
  endloop
endfacet
facet normal 0.9253801083569989 -0.3790404398704563 -0.0
  outer loop
    vertex 21.1772238393378 11.542826480351147 0.0
    vertex 20.96943007702024 11.035523844371072 3.0
    vertex 20.96943007702024 11.035523844371072 0.0
  endloop
endfacet
facet normal 0.9253801083569989 -0.3790404398704563 -0.0
  outer loop
    vertex 20.96943007702024 11.035523844371072 3.0
    vertex 21.1772238393378 11.542826480351147 0.0
    vertex 21.1772238393378 11.542826480351147 3.0
  endloop
endfacet
facet normal 0.9919514304987128 -0.12661895407701548 -0.0
  outer loop
    vertex 20.96943007702024 11.035523844371072 0.0
    vertex 20.9000162992783 10.491726143392105 3.0
    vertex 20.9000162992783 10.491726143392105 0.0
  endloop
endfacet
facet normal 0.9919514304987128 -0.12661895407701548 -0.0
  outer loop
    vertex 20.9000162992783 10.491726143392105 3.0
    vertex 20.96943007702024 11.035523844371072 0.0
    vertex 20.96943007702024 11.035523844371072 3.0
  endloop
endfacet
facet normal 0.9909229019291859 0.134431404189056 0.0
  outer loop
    vertex 20.9000162992783 10.491726143392105 0.0
    vertex 20.973712940353384 9.948492292067773 3.0
    vertex 20.973712940353384 9.948492292067773 0.0
  endloop
endfacet
facet normal 0.9909229019291859 0.134431404189056 0.0
  outer loop
    vertex 20.973712940353384 9.948492292067773 3.0
    vertex 20.9000162992783 10.491726143392105 0.0
    vertex 20.9000162992783 10.491726143392105 3.0
  endloop
endfacet
facet normal 0.9223646151707078 0.38632048441804395 0.0
  outer loop
    vertex 20.973712940353384 9.948492292067773 0.0
    vertex 21.185497695945696 9.442842779629443 3.0
    vertex 21.185497695945696 9.442842779629443 0.0
  endloop
endfacet
facet normal 0.9223646151707078 0.38632048441804395 0.0
  outer loop
    vertex 21.185497695945696 9.442842779629443 3.0
    vertex 20.973712940353384 9.948492292067773 0.0
    vertex 20.973712940353384 9.948492292067773 3.0
  endloop
endfacet
facet normal 0.7909487041679426 0.6118824620587294 0.0
  outer loop
    vertex 21.185497695945696 9.442842779629443 0.0
    vertex 21.520937784952473 9.009236784724454 3.0
    vertex 21.520937784952473 9.009236784724454 0.0
  endloop
endfacet
facet normal 0.7909487041679426 0.6118824620587294 0.0
  outer loop
    vertex 21.520937784952473 9.009236784724454 3.0
    vertex 21.185497695945696 9.442842779629443 0.0
    vertex 21.185497695945696 9.442842779629443 3.0
  endloop
endfacet
facet normal 0.6056309460806683 0.7957456610936906 0.0
  outer loop
    vertex 21.520937784952473 9.009236784724454 3.0
    vertex 21.957173519648855 8.677223839337799 0.0
    vertex 21.520937784952473 9.009236784724454 0.0
  endloop
endfacet
facet normal 0.6056309460806683 0.7957456610936906 0.0
  outer loop
    vertex 21.957173519648855 8.677223839337799 0.0
    vertex 21.520937784952473 9.009236784724454 3.0
    vertex 21.957173519648855 8.677223839337799 3.0
  endloop
endfacet
facet normal 0.37904043987045727 0.9253801083569986 0.0
  outer loop
    vertex 21.957173519648855 8.677223839337799 3.0
    vertex 22.46447615562893 8.469430077020242 0.0
    vertex 21.957173519648855 8.677223839337799 0.0
  endloop
endfacet
facet normal 0.37904043987045727 0.9253801083569986 0.0
  outer loop
    vertex 22.46447615562893 8.469430077020242 0.0
    vertex 21.957173519648855 8.677223839337799 3.0
    vertex 22.46447615562893 8.469430077020242 3.0
  endloop
endfacet
facet normal 0.1266189540770177 0.9919514304987125 0.0
  outer loop
    vertex 22.46447615562893 8.469430077020242 3.0
    vertex 23.008273856607897 8.400016299278295 0.0
    vertex 22.46447615562893 8.469430077020242 0.0
  endloop
endfacet
facet normal 0.1266189540770177 0.9919514304987125 0.0
  outer loop
    vertex 23.008273856607897 8.400016299278295 0.0
    vertex 22.46447615562893 8.469430077020242 3.0
    vertex 23.008273856607897 8.400016299278295 3.0
  endloop
endfacet
facet normal -0.1344314041890563 0.9909229019291856 -0.0
  outer loop
    vertex 23.008273856607897 8.400016299278295 3.0
    vertex 23.551507707932227 8.473712940353382 0.0
    vertex 23.008273856607897 8.400016299278295 0.0
  endloop
endfacet
facet normal -0.1344314041890563 0.9909229019291856 -0.0
  outer loop
    vertex 23.551507707932227 8.473712940353382 0.0
    vertex 23.008273856607897 8.400016299278295 3.0
    vertex 23.551507707932227 8.473712940353382 3.0
  endloop
endfacet
facet normal -0.38632048441804306 0.9223646151707082 -0.0
  outer loop
    vertex 23.551507707932227 8.473712940353382 3.0
    vertex 24.057157220370563 8.685497695945692 0.0
    vertex 23.551507707932227 8.473712940353382 0.0
  endloop
endfacet
facet normal -0.38632048441804306 0.9223646151707082 -0.0
  outer loop
    vertex 24.057157220370563 8.685497695945692 0.0
    vertex 23.551507707932227 8.473712940353382 3.0
    vertex 24.057157220370563 8.685497695945692 3.0
  endloop
endfacet
facet normal -0.6118824620587291 0.7909487041679429 -0.0
  outer loop
    vertex 24.057157220370563 8.685497695945692 3.0
    vertex 24.49076321527555 9.020937784952467 0.0
    vertex 24.057157220370563 8.685497695945692 0.0
  endloop
endfacet
facet normal -0.6118824620587291 0.7909487041679429 -0.0
  outer loop
    vertex 24.49076321527555 9.020937784952467 0.0
    vertex 24.057157220370563 8.685497695945692 3.0
    vertex 24.49076321527555 9.020937784952467 3.0
  endloop
endfacet
facet normal -0.7957456610936915 0.605630946080667 -0.0
  outer loop
    vertex 24.822776160662205 9.457173519648853 3.0
    vertex 24.49076321527555 9.020937784952467 0.0
    vertex 24.49076321527555 9.020937784952467 3.0
  endloop
endfacet
facet normal -0.7957456610936915 0.605630946080667 -0.0
  outer loop
    vertex 24.49076321527555 9.020937784952467 0.0
    vertex 24.822776160662205 9.457173519648853 3.0
    vertex 24.822776160662205 9.457173519648853 0.0
  endloop
endfacet
facet normal -0.9253801083569967 0.37904043987046165 -0.0
  outer loop
    vertex 25.030569922979762 9.964476155628928 3.0
    vertex 24.822776160662205 9.457173519648853 0.0
    vertex 24.822776160662205 9.457173519648853 3.0
  endloop
endfacet
facet normal -0.9253801083569967 0.37904043987046165 -0.0
  outer loop
    vertex 24.822776160662205 9.457173519648853 0.0
    vertex 25.030569922979762 9.964476155628928 3.0
    vertex 25.030569922979762 9.964476155628928 0.0
  endloop
endfacet
facet normal -0.9919514304987128 0.12661895407701548 -0.0
  outer loop
    vertex 25.099983700721708 10.508273856607893 3.0
    vertex 25.030569922979762 9.964476155628928 0.0
    vertex 25.030569922979762 9.964476155628928 3.0
  endloop
endfacet
facet normal -0.9919514304987128 0.12661895407701548 -0.0
  outer loop
    vertex 25.030569922979762 9.964476155628928 0.0
    vertex 25.099983700721708 10.508273856607893 3.0
    vertex 25.099983700721708 10.508273856607893 0.0
  endloop
endfacet
facet normal -0.9909229019291859 -0.134431404189056 -0.0
  outer loop
    vertex 25.02628705964662 11.051507707932226 3.0
    vertex 25.099983700721708 10.508273856607893 0.0
    vertex 25.099983700721708 10.508273856607893 3.0
  endloop
endfacet
facet normal -0.9909229019291859 -0.134431404189056 -0.0
  outer loop
    vertex 25.099983700721708 10.508273856607893 0.0
    vertex 25.02628705964662 11.051507707932226 3.0
    vertex 25.02628705964662 11.051507707932226 0.0
  endloop
endfacet
facet normal -0.9223646151707082 -0.38632048441804306 -0.0
  outer loop
    vertex 24.81450230405431 11.55715722037056 3.0
    vertex 25.02628705964662 11.051507707932226 0.0
    vertex 25.02628705964662 11.051507707932226 3.0
  endloop
endfacet
facet normal -0.9223646151707082 -0.38632048441804306 -0.0
  outer loop
    vertex 25.02628705964662 11.051507707932226 0.0
    vertex 24.81450230405431 11.55715722037056 3.0
    vertex 24.81450230405431 11.55715722037056 0.0
  endloop
endfacet
facet normal -0.7909487041679416 -0.6118824620587306 -0.0
  outer loop
    vertex 24.479062215047534 11.990763215275546 3.0
    vertex 24.81450230405431 11.55715722037056 0.0
    vertex 24.81450230405431 11.55715722037056 3.0
  endloop
endfacet
facet normal -0.7909487041679416 -0.6118824620587306 -0.0
  outer loop
    vertex 24.81450230405431 11.55715722037056 0.0
    vertex 24.479062215047534 11.990763215275546 3.0
    vertex 24.479062215047534 11.990763215275546 0.0
  endloop
endfacet
facet normal 0.0 -1.0 0.0
  outer loop
    vertex 9.0 -5.0 14.0
    vertex 6.0 -5.0 3.9999999999999996
    vertex 9.0 -5.0 3.9999999999999996
  endloop
endfacet
facet normal 0.0 -1.0 0.0
  outer loop
    vertex 6.0 -5.0 3.9999999999999996
    vertex 9.0 -5.0 14.0
    vertex 6.0 -5.0 14.0
  endloop
endfacet
facet normal 0.0 -1.0 0.0
  outer loop
    vertex 50.0 -5.0 3.9999999999999996
    vertex -3.9999999999999996 -5.0 0.0
    vertex 50.0 -5.0 0.0
  endloop
endfacet
facet normal 0.0 -1.0 0.0
  outer loop
    vertex -3.9999999999999996 -5.0 0.0
    vertex 50.0 -5.0 3.9999999999999996
    vertex -3.9999999999999996 -5.0 3.9999999999999996
  endloop
endfacet
facet normal 0.0 -1.0 0.0
  outer loop
    vertex -3.9999999999999996 -5.0 3.9999999999999996
    vertex 50.0 -5.0 3.9999999999999996
    vertex 9.0 -5.0 3.9999999999999996
  endloop
endfacet
facet normal 0.0 -1.0 0.0
  outer loop
    vertex -3.9999999999999996 -5.0 3.9999999999999996
    vertex 9.0 -5.0 3.9999999999999996
    vertex 6.0 -5.0 3.9999999999999996
  endloop
endfacet
facet normal 0.0 -1.0 0.0
  outer loop
    vertex 44.0 0.516632 14.0
    vertex 41.0 0.516632 3.9999999999999996
    vertex 44.0 0.516632 3.9999999999999996
  endloop
endfacet
facet normal 0.0 -1.0 0.0
  outer loop
    vertex 41.0 0.516632 3.9999999999999996
    vertex 44.0 0.516632 14.0
    vertex 41.0 0.516632 14.0
  endloop
endfacet
facet normal -0.0 -0.0 1.0
  outer loop
    vertex 50.0 -5.0 3.9999999999999996
    vertex 9.0 4.8 3.9999999999999996
    vertex 9.0 -5.0 3.9999999999999996
  endloop
endfacet
facet normal -0.0 -0.0 1.0
  outer loop
    vertex 9.0 4.8 3.9999999999999996
    vertex 50.0 -5.0 3.9999999999999996
    vertex 21.42261480154441 6.8786251318465785 3.9999999999999996
  endloop
endfacet
facet normal -0.0 -0.0 1.0
  outer loop
    vertex 9.0 4.8 3.9999999999999996
    vertex 21.42261480154441 6.8786251318465785 3.9999999999999996
    vertex 20.539082113471903 7.410277818999566 3.9999999999999996
  endloop
endfacet
facet normal -0.0 -0.0 1.0
  outer loop
    vertex 9.0 4.8 3.9999999999999996
    vertex 20.539082113471903 7.410277818999566 3.9999999999999996
    vertex 19.82325691250719 8.152489966780411 3.9999999999999996
  endloop
endfacet
facet normal -0.0 -0.0 1.0
  outer loop
    vertex 9.0 4.8 3.9999999999999996
    vertex 19.82325691250719 8.152489966780411 3.9999999999999996
    vertex 19.32392150313894 9.054681043881413 3.9999999999999996
  endloop
endfacet
facet normal -0.0 -0.0 1.0
  outer loop
    vertex 9.0 4.8 3.9999999999999996
    vertex 19.32392150313894 9.054681043881413 3.9999999999999996
    vertex 19.07510476832482 10.05536821933939 3.9999999999999996
  endloop
endfacet
facet normal -0.0 -0.0 1.0
  outer loop
    vertex 21.42261480154441 6.8786251318465785 3.9999999999999996
    vertex 50.0 -5.0 3.9999999999999996
    vertex 22.413643684139377 6.5937631573533135 3.9999999999999996
  endloop
endfacet
facet normal -0.0 -0.0 1.0
  outer loop
    vertex 22.413643684139377 6.5937631573533135 3.9999999999999996
    vertex 50.0 -5.0 3.9999999999999996
    vertex 23.444631780660615 6.575104768324818 3.9999999999999996
  endloop
endfacet
facet normal -0.0 -0.0 1.0
  outer loop
    vertex 23.444631780660615 6.575104768324818 3.9999999999999996
    vertex 50.0 -5.0 3.9999999999999996
    vertex 24.44531895611859 6.823921503138939 3.9999999999999996
  endloop
endfacet
facet normal -0.0 -0.0 1.0
  outer loop
    vertex 24.44531895611859 6.823921503138939 3.9999999999999996
    vertex 50.0 -5.0 3.9999999999999996
    vertex 25.347510033219592 7.323256912507187 3.9999999999999996
  endloop
endfacet
facet normal -0.0 -0.0 1.0
  outer loop
    vertex 25.347510033219592 7.323256912507187 3.9999999999999996
    vertex 50.0 -5.0 3.9999999999999996
    vertex 26.089722181000436 8.0390821134719 3.9999999999999996
  endloop
endfacet
facet normal -0.0 -0.0 1.0
  outer loop
    vertex 26.089722181000436 8.0390821134719 3.9999999999999996
    vertex 50.0 -5.0 3.9999999999999996
    vertex 26.621374868153428 8.922614801544407 3.9999999999999996
  endloop
endfacet
facet normal -0.0 -0.0 1.0
  outer loop
    vertex 26.621374868153428 8.922614801544407 3.9999999999999996
    vertex 50.0 -5.0 3.9999999999999996
    vertex 41.0 0.516632 3.9999999999999996
  endloop
endfacet
facet normal -0.0 -0.0 1.0
  outer loop
    vertex 26.621374868153428 8.922614801544407 3.9999999999999996
    vertex 41.0 0.516632 3.9999999999999996
    vertex 26.90623684264669 9.913643684139371 3.9999999999999996
  endloop
endfacet
facet normal -0.0 -0.0 1.0
  outer loop
    vertex 26.90623684264669 9.913643684139371 3.9999999999999996
    vertex 41.0 0.516632 3.9999999999999996
    vertex 26.924895231675183 10.94463178066061 3.9999999999999996
  endloop
endfacet
facet normal -0.0 -0.0 1.0
  outer loop
    vertex 41.0 0.516632 3.9999999999999996
    vertex 50.0 -5.0 3.9999999999999996
    vertex 44.0 0.516632 3.9999999999999996
  endloop
endfacet
facet normal -0.0 -0.0 1.0
  outer loop
    vertex 44.0 0.516632 3.9999999999999996
    vertex 50.0 -5.0 3.9999999999999996
    vertex 44.0 14.799999999999999 3.9999999999999996
  endloop
endfacet
facet normal -0.0 -0.0 1.0
  outer loop
    vertex 44.0 14.799999999999999 3.9999999999999996
    vertex 50.0 -5.0 3.9999999999999996
    vertex 50.0 16.8 3.9999999999999996
  endloop
endfacet
facet normal -0.0 -0.0 1.0
  outer loop
    vertex 9.0 4.8 3.9999999999999996
    vertex -3.9999999999999996 25.999999999999996 3.9999999999999996
    vertex -3.9999999999999996 10.0 3.9999999999999996
  endloop
endfacet
facet normal -0.0 -0.0 1.0
  outer loop
    vertex -3.9999999999999996 25.999999999999996 3.9999999999999996
    vertex 9.0 4.8 3.9999999999999996
    vertex 20.65248996678041 13.676743087492813 3.9999999999999996
  endloop
endfacet
facet normal -0.0 -0.0 1.0
  outer loop
    vertex -3.9999999999999996 25.999999999999996 3.9999999999999996
    vertex 20.65248996678041 13.676743087492813 3.9999999999999996
    vertex 21.554681043881416 14.176078496861061 3.9999999999999996
  endloop
endfacet
facet normal -0.0 -0.0 1.0
  outer loop
    vertex -3.9999999999999996 25.999999999999996 3.9999999999999996
    vertex 21.554681043881416 14.176078496861061 3.9999999999999996
    vertex 50.0 25.999999999999996 3.9999999999999996
  endloop
endfacet
facet normal -0.0 -0.0 1.0
  outer loop
    vertex 20.65248996678041 13.676743087492813 3.9999999999999996
    vertex 9.0 4.8 3.9999999999999996
    vertex 19.910277818999568 12.960917886528101 3.9999999999999996
  endloop
endfacet
facet normal -0.0 -0.0 1.0
  outer loop
    vertex 19.910277818999568 12.960917886528101 3.9999999999999996
    vertex 9.0 4.8 3.9999999999999996
    vertex 19.37862513184658 12.077385198455595 3.9999999999999996
  endloop
endfacet
facet normal -0.0 -0.0 1.0
  outer loop
    vertex 19.37862513184658 12.077385198455595 3.9999999999999996
    vertex 9.0 4.8 3.9999999999999996
    vertex 19.093763157353315 11.086356315860627 3.9999999999999996
  endloop
endfacet
facet normal -0.0 -0.0 1.0
  outer loop
    vertex 19.093763157353315 11.086356315860627 3.9999999999999996
    vertex 9.0 4.8 3.9999999999999996
    vertex 19.07510476832482 10.05536821933939 3.9999999999999996
  endloop
endfacet
facet normal -0.0 -0.0 1.0
  outer loop
    vertex 50.0 25.999999999999996 3.9999999999999996
    vertex 21.554681043881416 14.176078496861061 3.9999999999999996
    vertex 22.555368219339393 14.424895231675183 3.9999999999999996
  endloop
endfacet
facet normal -0.0 -0.0 1.0
  outer loop
    vertex 50.0 25.999999999999996 3.9999999999999996
    vertex 22.555368219339393 14.424895231675183 3.9999999999999996
    vertex 23.58635631586063 14.406236842646686 3.9999999999999996
  endloop
endfacet
facet normal -0.0 -0.0 1.0
  outer loop
    vertex 50.0 25.999999999999996 3.9999999999999996
    vertex 23.58635631586063 14.406236842646686 3.9999999999999996
    vertex 24.577385198455598 14.121374868153422 3.9999999999999996
  endloop
endfacet
facet normal -0.0 -0.0 1.0
  outer loop
    vertex 50.0 25.999999999999996 3.9999999999999996
    vertex 24.577385198455598 14.121374868153422 3.9999999999999996
    vertex 25.460917886528105 13.589722181000432 3.9999999999999996
  endloop
endfacet
facet normal -0.0 -0.0 1.0
  outer loop
    vertex 50.0 25.999999999999996 3.9999999999999996
    vertex 25.460917886528105 13.589722181000432 3.9999999999999996
    vertex 26.176743087492813 12.84751003321959 3.9999999999999996
  endloop
endfacet
facet normal -0.0 -0.0 1.0
  outer loop
    vertex 50.0 25.999999999999996 3.9999999999999996
    vertex 26.176743087492813 12.84751003321959 3.9999999999999996
    vertex 26.676078496861066 11.945318956118586 3.9999999999999996
  endloop
endfacet
facet normal -0.0 -0.0 1.0
  outer loop
    vertex 50.0 25.999999999999996 3.9999999999999996
    vertex 26.676078496861066 11.945318956118586 3.9999999999999996
    vertex 26.924895231675183 10.94463178066061 3.9999999999999996
  endloop
endfacet
facet normal -0.0 -0.0 1.0
  outer loop
    vertex 50.0 25.999999999999996 3.9999999999999996
    vertex 26.924895231675183 10.94463178066061 3.9999999999999996
    vertex 41.0 17.799999999999997 3.9999999999999996
  endloop
endfacet
facet normal -0.0 -0.0 1.0
  outer loop
    vertex 41.0 17.799999999999997 3.9999999999999996
    vertex 26.924895231675183 10.94463178066061 3.9999999999999996
    vertex 41.0 0.516632 3.9999999999999996
  endloop
endfacet
facet normal -0.0 -0.0 1.0
  outer loop
    vertex 50.0 25.999999999999996 3.9999999999999996
    vertex 41.0 17.799999999999997 3.9999999999999996
    vertex 50.0 20.799999999999997 3.9999999999999996
  endloop
endfacet
endsolid schieblehre halter
