solid OpenSCAD_Model
  facet normal -1 0 0
    outer loop
      vertex -75 -31 38
      vertex -75 -35 38
      vertex -75 -31 46
    endloop
  endfacet
  facet normal -1 0 0
    outer loop
      vertex -75 27 -25
      vertex -75 5 0
      vertex -75 27 50
    endloop
  endfacet
  facet normal -1 0 0
    outer loop
      vertex -75 27 -25
      vertex -75 4.99013 -0.313952
      vertex -75 5 0
    endloop
  endfacet
  facet normal -1 0 0
    outer loop
      vertex -75 27 -25
      vertex -75 4.96057 -0.626666
      vertex -75 4.99013 -0.313952
    endloop
  endfacet
  facet normal -1 0 0
    outer loop
      vertex -75 27 -25
      vertex -75 4.91144 -0.936906
      vertex -75 4.96057 -0.626666
    endloop
  endfacet
  facet normal -1 0 0
    outer loop
      vertex -75 27 -25
      vertex -75 4.84292 -1.24345
      vertex -75 4.91144 -0.936906
    endloop
  endfacet
  facet normal -1 0 0
    outer loop
      vertex -75 27 -25
      vertex -75 4.75528 -1.54508
      vertex -75 4.84292 -1.24345
    endloop
  endfacet
  facet normal -1 0 0
    outer loop
      vertex -75 27 -25
      vertex -75 4.64888 -1.84062
      vertex -75 4.75528 -1.54508
    endloop
  endfacet
  facet normal -1 0 0
    outer loop
      vertex -75 27 -25
      vertex -75 4.52413 -2.1289
      vertex -75 4.64888 -1.84062
    endloop
  endfacet
  facet normal -1 0 0
    outer loop
      vertex -75 27 -25
      vertex -75 4.38153 -2.40877
      vertex -75 4.52413 -2.1289
    endloop
  endfacet
  facet normal -1 0 0
    outer loop
      vertex -75 27 -25
      vertex -75 4.22164 -2.67913
      vertex -75 4.38153 -2.40877
    endloop
  endfacet
  facet normal -1 0 0
    outer loop
      vertex -75 27 -25
      vertex -75 4.04508 -2.93893
      vertex -75 4.22164 -2.67913
    endloop
  endfacet
  facet normal -1 0 0
    outer loop
      vertex -75 27 -25
      vertex -75 3.85257 -3.18712
      vertex -75 4.04508 -2.93893
    endloop
  endfacet
  facet normal -1 0 0
    outer loop
      vertex -75 27 -25
      vertex -75 3.64484 -3.42274
      vertex -75 3.85257 -3.18712
    endloop
  endfacet
  facet normal -1 0 0
    outer loop
      vertex -75 27 -25
      vertex -75 3.42274 -3.64484
      vertex -75 3.64484 -3.42274
    endloop
  endfacet
  facet normal -1 0 0
    outer loop
      vertex -75 27 -25
      vertex -75 3.18712 -3.85257
      vertex -75 3.42274 -3.64484
    endloop
  endfacet
  facet normal -1 0 0
    outer loop
      vertex -75 27 -25
      vertex -75 2.93893 -4.04508
      vertex -75 3.18712 -3.85257
    endloop
  endfacet
  facet normal -1 0 0
    outer loop
      vertex -75 27 -25
      vertex -75 2.67913 -4.22164
      vertex -75 2.93893 -4.04508
    endloop
  endfacet
  facet normal -1 0 0
    outer loop
      vertex -75 27 -25
      vertex -75 2.40877 -4.38153
      vertex -75 2.67913 -4.22164
    endloop
  endfacet
  facet normal -1 0 0
    outer loop
      vertex -75 27 -25
      vertex -75 2.1289 -4.52413
      vertex -75 2.40877 -4.38153
    endloop
  endfacet
  facet normal -1 0 0
    outer loop
      vertex -75 0.936906 -4.91144
      vertex -75 27 -25
      vertex -75 2 -50
    endloop
  endfacet
  facet normal -1 0 0
    outer loop
      vertex -75 27 -25
      vertex -75 1.84062 -4.64888
      vertex -75 2.1289 -4.52413
    endloop
  endfacet
  facet normal -1 0 0
    outer loop
      vertex -75 27 -25
      vertex -75 1.54508 -4.75528
      vertex -75 1.84062 -4.64888
    endloop
  endfacet
  facet normal -1 0 0
    outer loop
      vertex -75 27 -25
      vertex -75 1.24345 -4.84292
      vertex -75 1.54508 -4.75528
    endloop
  endfacet
  facet normal -1 0 0
    outer loop
      vertex -75 27 -25
      vertex -75 0.936906 -4.91144
      vertex -75 1.24345 -4.84292
    endloop
  endfacet
  facet normal -1 0 0
    outer loop
      vertex -75 2 -50
      vertex -75 0.626666 -4.96057
      vertex -75 0.936906 -4.91144
    endloop
  endfacet
  facet normal -1 0 0
    outer loop
      vertex -75 2 -50
      vertex -75 0.313952 -4.99013
      vertex -75 0.626666 -4.96057
    endloop
  endfacet
  facet normal -1 0 0
    outer loop
      vertex -75 2 -50
      vertex -75 0 -5
      vertex -75 0.313952 -4.99013
    endloop
  endfacet
  facet normal -1 0 0
    outer loop
      vertex -75 2 -50
      vertex -75 -0.313952 -4.99013
      vertex -75 0 -5
    endloop
  endfacet
  facet normal -1 0 0
    outer loop
      vertex -75 2 -50
      vertex -75 -0.626666 -4.96057
      vertex -75 -0.313952 -4.99013
    endloop
  endfacet
  facet normal -1 0 0
    outer loop
      vertex -75 2 -50
      vertex -75 -0.936906 -4.91144
      vertex -75 -0.626666 -4.96057
    endloop
  endfacet
  facet normal -1 0 0
    outer loop
      vertex -75 2 -50
      vertex -75 -1.24345 -4.84292
      vertex -75 -0.936906 -4.91144
    endloop
  endfacet
  facet normal -1 0 0
    outer loop
      vertex -75 2 -50
      vertex -75 -1.54508 -4.75528
      vertex -75 -1.24345 -4.84292
    endloop
  endfacet
  facet normal -1 0 0
    outer loop
      vertex -75 2 -50
      vertex -75 -1.84062 -4.64888
      vertex -75 -1.54508 -4.75528
    endloop
  endfacet
  facet normal -1 0 0
    outer loop
      vertex -75 2 -50
      vertex -75 -2.1289 -4.52413
      vertex -75 -1.84062 -4.64888
    endloop
  endfacet
  facet normal -1 0 0
    outer loop
      vertex -75 -27 -50
      vertex -75 -2.1289 -4.52413
      vertex -75 2 -50
    endloop
  endfacet
  facet normal -1 -0 0
    outer loop
      vertex -75 -2.1289 -4.52413
      vertex -75 -27 -50
      vertex -75 -2.40877 -4.38153
    endloop
  endfacet
  facet normal -1 -0 0
    outer loop
      vertex -75 -2.40877 -4.38153
      vertex -75 -27 -50
      vertex -75 -2.67913 -4.22164
    endloop
  endfacet
  facet normal -1 -0 0
    outer loop
      vertex -75 -2.67913 -4.22164
      vertex -75 -27 -50
      vertex -75 -2.93893 -4.04508
    endloop
  endfacet
  facet normal -1 -0 0
    outer loop
      vertex -75 -2.93893 -4.04508
      vertex -75 -27 -50
      vertex -75 -3.18712 -3.85257
    endloop
  endfacet
  facet normal -1 -0 0
    outer loop
      vertex -75 -3.18712 -3.85257
      vertex -75 -27 -50
      vertex -75 -3.42274 -3.64484
    endloop
  endfacet
  facet normal -1 -0 0
    outer loop
      vertex -75 -3.42274 -3.64484
      vertex -75 -27 -50
      vertex -75 -3.64484 -3.42274
    endloop
  endfacet
  facet normal -1 -0 0
    outer loop
      vertex -75 -3.64484 -3.42274
      vertex -75 -27 -50
      vertex -75 -3.85257 -3.18712
    endloop
  endfacet
  facet normal -1 -0 0
    outer loop
      vertex -75 -3.85257 -3.18712
      vertex -75 -27 -50
      vertex -75 -4.04508 -2.93893
    endloop
  endfacet
  facet normal -1 -0 0
    outer loop
      vertex -75 -4.04508 -2.93893
      vertex -75 -27 -50
      vertex -75 -4.22164 -2.67913
    endloop
  endfacet
  facet normal -1 -0 0
    outer loop
      vertex -75 -4.22164 -2.67913
      vertex -75 -27 -50
      vertex -75 -4.38153 -2.40877
    endloop
  endfacet
  facet normal -1 -0 0
    outer loop
      vertex -75 -4.38153 -2.40877
      vertex -75 -27 -50
      vertex -75 -4.52413 -2.1289
    endloop
  endfacet
  facet normal -1 -0 0
    outer loop
      vertex -75 -4.52413 -2.1289
      vertex -75 -27 -50
      vertex -75 -4.64888 -1.84062
    endloop
  endfacet
  facet normal -1 -0 0
    outer loop
      vertex -75 -4.64888 -1.84062
      vertex -75 -27 -50
      vertex -75 -4.75528 -1.54508
    endloop
  endfacet
  facet normal -1 -0 0
    outer loop
      vertex -75 -4.75528 -1.54508
      vertex -75 -27 -50
      vertex -75 -4.84292 -1.24345
    endloop
  endfacet
  facet normal -1 -0 0
    outer loop
      vertex -75 -4.84292 -1.24345
      vertex -75 -27 -50
      vertex -75 -4.91144 -0.936906
    endloop
  endfacet
  facet normal -1 -0 0
    outer loop
      vertex -75 -4.91144 -0.936906
      vertex -75 -27 -50
      vertex -75 -4.96057 -0.626666
    endloop
  endfacet
  facet normal -1 0 0
    outer loop
      vertex -75 -27 -50
      vertex -75 -4.99013 -0.313952
      vertex -75 -4.96057 -0.626666
    endloop
  endfacet
  facet normal -1 0 0
    outer loop
      vertex -75 -27 -50
      vertex -75 -5 0
      vertex -75 -4.99013 -0.313952
    endloop
  endfacet
  facet normal -1 0 0
    outer loop
      vertex -75 -27 46
      vertex -75 -5 0
      vertex -75 -27 -50
    endloop
  endfacet
  facet normal -1 0 0
    outer loop
      vertex -75 -5 0
      vertex -75 -27 46
      vertex -75 -5 50
    endloop
  endfacet
  facet normal -1 0 0
    outer loop
      vertex -75 -35 50
      vertex -75 -27 46
      vertex -75 -31 46
    endloop
  endfacet
  facet normal -1 0 0
    outer loop
      vertex -75 -27 46
      vertex -75 -35 50
      vertex -75 -5 50
    endloop
  endfacet
  facet normal -1 0 0
    outer loop
      vertex -75 -35 50
      vertex -75 -31 46
      vertex -75 -35 38
    endloop
  endfacet
  facet normal -1 -0 0
    outer loop
      vertex -75 27 50
      vertex -75 5 0
      vertex -75 5 50
    endloop
  endfacet
  facet normal 0 0 -1
    outer loop
      vertex -75 -31 46
      vertex 75 -27 46
      vertex 75 -31 46
    endloop
  endfacet
  facet normal -0 0 -1
    outer loop
      vertex 75 -27 46
      vertex -75 -31 46
      vertex -75 -27 46
    endloop
  endfacet
  facet normal 1 0 0
    outer loop
      vertex 75 -5 50
      vertex 75 -27 46
      vertex 75 -5 0
    endloop
  endfacet
  facet normal 1 -0 0
    outer loop
      vertex 75 -35 50
      vertex 75 -27 46
      vertex 75 -5 50
    endloop
  endfacet
  facet normal 1 0 0
    outer loop
      vertex 75 -27 46
      vertex 75 -35 50
      vertex 75 -31 46
    endloop
  endfacet
  facet normal 1 0 0
    outer loop
      vertex 75 -35 38
      vertex 75 -31 46
      vertex 75 -35 50
    endloop
  endfacet
  facet normal 1 0 0
    outer loop
      vertex 75 -31 46
      vertex 75 -35 38
      vertex 75 -31 38
    endloop
  endfacet
  facet normal 1 0 0
    outer loop
      vertex 75 5 0
      vertex 75 27 50
      vertex 75 5 50
    endloop
  endfacet
  facet normal 1 0 0
    outer loop
      vertex 75 27 50
      vertex 75 5 0
      vertex 75 27 -25
    endloop
  endfacet
  facet normal 1 -0 0
    outer loop
      vertex 75 4.99013 -0.313952
      vertex 75 27 -25
      vertex 75 5 0
    endloop
  endfacet
  facet normal 1 -0 0
    outer loop
      vertex 75 4.96057 -0.626666
      vertex 75 27 -25
      vertex 75 4.99013 -0.313952
    endloop
  endfacet
  facet normal 1 -0 0
    outer loop
      vertex 75 4.91144 -0.936906
      vertex 75 27 -25
      vertex 75 4.96057 -0.626666
    endloop
  endfacet
  facet normal 1 -0 0
    outer loop
      vertex 75 4.84292 -1.24345
      vertex 75 27 -25
      vertex 75 4.91144 -0.936906
    endloop
  endfacet
  facet normal 1 -0 0
    outer loop
      vertex 75 4.75528 -1.54508
      vertex 75 27 -25
      vertex 75 4.84292 -1.24345
    endloop
  endfacet
  facet normal 1 -0 0
    outer loop
      vertex 75 4.64888 -1.84062
      vertex 75 27 -25
      vertex 75 4.75528 -1.54508
    endloop
  endfacet
  facet normal 1 -0 0
    outer loop
      vertex 75 4.52413 -2.1289
      vertex 75 27 -25
      vertex 75 4.64888 -1.84062
    endloop
  endfacet
  facet normal 1 -0 0
    outer loop
      vertex 75 4.38153 -2.40877
      vertex 75 27 -25
      vertex 75 4.52413 -2.1289
    endloop
  endfacet
  facet normal 1 -0 0
    outer loop
      vertex 75 4.22164 -2.67913
      vertex 75 27 -25
      vertex 75 4.38153 -2.40877
    endloop
  endfacet
  facet normal 1 -0 0
    outer loop
      vertex 75 4.04508 -2.93893
      vertex 75 27 -25
      vertex 75 4.22164 -2.67913
    endloop
  endfacet
  facet normal 1 -0 0
    outer loop
      vertex 75 3.85257 -3.18712
      vertex 75 27 -25
      vertex 75 4.04508 -2.93893
    endloop
  endfacet
  facet normal 1 -0 0
    outer loop
      vertex 75 3.64484 -3.42274
      vertex 75 27 -25
      vertex 75 3.85257 -3.18712
    endloop
  endfacet
  facet normal 1 -0 0
    outer loop
      vertex 75 3.42274 -3.64484
      vertex 75 27 -25
      vertex 75 3.64484 -3.42274
    endloop
  endfacet
  facet normal 1 -0 0
    outer loop
      vertex 75 3.18712 -3.85257
      vertex 75 27 -25
      vertex 75 3.42274 -3.64484
    endloop
  endfacet
  facet normal 1 -0 0
    outer loop
      vertex 75 2.93893 -4.04508
      vertex 75 27 -25
      vertex 75 3.18712 -3.85257
    endloop
  endfacet
  facet normal 1 -0 0
    outer loop
      vertex 75 2.67913 -4.22164
      vertex 75 27 -25
      vertex 75 2.93893 -4.04508
    endloop
  endfacet
  facet normal 1 -0 0
    outer loop
      vertex 75 2.40877 -4.38153
      vertex 75 27 -25
      vertex 75 2.67913 -4.22164
    endloop
  endfacet
  facet normal 1 -0 0
    outer loop
      vertex 75 2.1289 -4.52413
      vertex 75 27 -25
      vertex 75 2.40877 -4.38153
    endloop
  endfacet
  facet normal 1 -0 0
    outer loop
      vertex 75 1.84062 -4.64888
      vertex 75 27 -25
      vertex 75 2.1289 -4.52413
    endloop
  endfacet
  facet normal 1 -0 0
    outer loop
      vertex 75 1.54508 -4.75528
      vertex 75 27 -25
      vertex 75 1.84062 -4.64888
    endloop
  endfacet
  facet normal 1 -0 0
    outer loop
      vertex 75 1.24345 -4.84292
      vertex 75 27 -25
      vertex 75 1.54508 -4.75528
    endloop
  endfacet
  facet normal 1 -0 0
    outer loop
      vertex 75 0.936906 -4.91144
      vertex 75 27 -25
      vertex 75 1.24345 -4.84292
    endloop
  endfacet
  facet normal 1 0 0
    outer loop
      vertex 75 27 -25
      vertex 75 0.936906 -4.91144
      vertex 75 2 -50
    endloop
  endfacet
  facet normal 1 -0 0
    outer loop
      vertex 75 0.626666 -4.96057
      vertex 75 2 -50
      vertex 75 0.936906 -4.91144
    endloop
  endfacet
  facet normal 1 -0 0
    outer loop
      vertex 75 0.313952 -4.99013
      vertex 75 2 -50
      vertex 75 0.626666 -4.96057
    endloop
  endfacet
  facet normal 1 -0 0
    outer loop
      vertex 75 0 -5
      vertex 75 2 -50
      vertex 75 0.313952 -4.99013
    endloop
  endfacet
  facet normal 1 0 0
    outer loop
      vertex 75 -0.313952 -4.99013
      vertex 75 2 -50
      vertex 75 0 -5
    endloop
  endfacet
  facet normal 1 0 0
    outer loop
      vertex 75 -0.626666 -4.96057
      vertex 75 2 -50
      vertex 75 -0.313952 -4.99013
    endloop
  endfacet
  facet normal 1 0 0
    outer loop
      vertex 75 -0.936906 -4.91144
      vertex 75 2 -50
      vertex 75 -0.626666 -4.96057
    endloop
  endfacet
  facet normal 1 0 0
    outer loop
      vertex 75 -1.24345 -4.84292
      vertex 75 2 -50
      vertex 75 -0.936906 -4.91144
    endloop
  endfacet
  facet normal 1 0 0
    outer loop
      vertex 75 -1.54508 -4.75528
      vertex 75 2 -50
      vertex 75 -1.24345 -4.84292
    endloop
  endfacet
  facet normal 1 0 0
    outer loop
      vertex 75 -1.84062 -4.64888
      vertex 75 2 -50
      vertex 75 -1.54508 -4.75528
    endloop
  endfacet
  facet normal 1 0 0
    outer loop
      vertex 75 -2.1289 -4.52413
      vertex 75 2 -50
      vertex 75 -1.84062 -4.64888
    endloop
  endfacet
  facet normal 1 0 0
    outer loop
      vertex 75 -27 -50
      vertex 75 -2.1289 -4.52413
      vertex 75 -2.40877 -4.38153
    endloop
  endfacet
  facet normal 1 0 0
    outer loop
      vertex 75 -27 -50
      vertex 75 -2.40877 -4.38153
      vertex 75 -2.67913 -4.22164
    endloop
  endfacet
  facet normal 1 0 0
    outer loop
      vertex 75 -27 -50
      vertex 75 -2.67913 -4.22164
      vertex 75 -2.93893 -4.04508
    endloop
  endfacet
  facet normal 1 0 0
    outer loop
      vertex 75 -27 -50
      vertex 75 -2.93893 -4.04508
      vertex 75 -3.18712 -3.85257
    endloop
  endfacet
  facet normal 1 0 0
    outer loop
      vertex 75 -27 -50
      vertex 75 -3.18712 -3.85257
      vertex 75 -3.42274 -3.64484
    endloop
  endfacet
  facet normal 1 0 0
    outer loop
      vertex 75 -27 -50
      vertex 75 -3.42274 -3.64484
      vertex 75 -3.64484 -3.42274
    endloop
  endfacet
  facet normal 1 0 0
    outer loop
      vertex 75 -27 -50
      vertex 75 -3.64484 -3.42274
      vertex 75 -3.85257 -3.18712
    endloop
  endfacet
  facet normal 1 0 0
    outer loop
      vertex 75 -27 -50
      vertex 75 -3.85257 -3.18712
      vertex 75 -4.04508 -2.93893
    endloop
  endfacet
  facet normal 1 0 0
    outer loop
      vertex 75 -27 -50
      vertex 75 -4.04508 -2.93893
      vertex 75 -4.22164 -2.67913
    endloop
  endfacet
  facet normal 1 0 0
    outer loop
      vertex 75 -27 -50
      vertex 75 -4.22164 -2.67913
      vertex 75 -4.38153 -2.40877
    endloop
  endfacet
  facet normal 1 0 0
    outer loop
      vertex 75 -27 -50
      vertex 75 -4.38153 -2.40877
      vertex 75 -4.52413 -2.1289
    endloop
  endfacet
  facet normal 1 0 0
    outer loop
      vertex 75 -27 -50
      vertex 75 -4.52413 -2.1289
      vertex 75 -4.64888 -1.84062
    endloop
  endfacet
  facet normal 1 0 0
    outer loop
      vertex 75 -27 -50
      vertex 75 -4.64888 -1.84062
      vertex 75 -4.75528 -1.54508
    endloop
  endfacet
  facet normal 1 0 0
    outer loop
      vertex 75 -27 -50
      vertex 75 -4.75528 -1.54508
      vertex 75 -4.84292 -1.24345
    endloop
  endfacet
  facet normal 1 0 0
    outer loop
      vertex 75 -27 -50
      vertex 75 -4.84292 -1.24345
      vertex 75 -4.91144 -0.936906
    endloop
  endfacet
  facet normal 1 0 0
    outer loop
      vertex 75 -27 -50
      vertex 75 -4.91144 -0.936906
      vertex 75 -4.96057 -0.626666
    endloop
  endfacet
  facet normal 1 0 0
    outer loop
      vertex 75 -27 46
      vertex 75 -4.99013 -0.313952
      vertex 75 -5 0
    endloop
  endfacet
  facet normal 1 0 0
    outer loop
      vertex 75 -27 -50
      vertex 75 -4.99013 -0.313952
      vertex 75 -27 46
    endloop
  endfacet
  facet normal 1 0 0
    outer loop
      vertex 75 -4.99013 -0.313952
      vertex 75 -27 -50
      vertex 75 -4.96057 -0.626666
    endloop
  endfacet
  facet normal 1 0 0
    outer loop
      vertex 75 -2.1289 -4.52413
      vertex 75 -27 -50
      vertex 75 2 -50
    endloop
  endfacet
  facet normal 0 1 -0
    outer loop
      vertex 75 -31 38
      vertex -75 -31 46
      vertex 75 -31 46
    endloop
  endfacet
  facet normal 0 1 0
    outer loop
      vertex -75 -31 46
      vertex 75 -31 38
      vertex -75 -31 38
    endloop
  endfacet
  facet normal 0 0 -1
    outer loop
      vertex -75 -35 38
      vertex 75 -31 38
      vertex 75 -35 38
    endloop
  endfacet
  facet normal -0 0 -1
    outer loop
      vertex 75 -31 38
      vertex -75 -35 38
      vertex -75 -31 38
    endloop
  endfacet
  facet normal 0 -1 0
    outer loop
      vertex -75 -35 38
      vertex 75 -35 50
      vertex -75 -35 50
    endloop
  endfacet
  facet normal 0 -1 -0
    outer loop
      vertex 75 -35 50
      vertex -75 -35 38
      vertex 75 -35 38
    endloop
  endfacet
  facet normal 0 0 1
    outer loop
      vertex 75 27 50
      vertex 73 25 50
      vertex 75 5 50
    endloop
  endfacet
  facet normal 0 0 1
    outer loop
      vertex 75 27 50
      vertex -73 25 50
      vertex 73 25 50
    endloop
  endfacet
  facet normal -0 0 1
    outer loop
      vertex -75 27 50
      vertex -73 25 50
      vertex 75 27 50
    endloop
  endfacet
  facet normal 0 0 1
    outer loop
      vertex -75 5 50
      vertex -73 25 50
      vertex -75 27 50
    endloop
  endfacet
  facet normal 0 0 1
    outer loop
      vertex -73 25 50
      vertex -75 5 50
      vertex -73 5 50
    endloop
  endfacet
  facet normal 0 0 1
    outer loop
      vertex 75 5 50
      vertex 73 25 50
      vertex 73 5 50
    endloop
  endfacet
  facet normal 0 0 1
    outer loop
      vertex -73 -5 50
      vertex -75 -5 50
      vertex -73 -25 50
    endloop
  endfacet
  facet normal 0 0 1
    outer loop
      vertex 73 -25 50
      vertex 75 -5 50
      vertex 73 -5 50
    endloop
  endfacet
  facet normal 0 0 1
    outer loop
      vertex 75 -5 50
      vertex 73 -25 50
      vertex 75 -35 50
    endloop
  endfacet
  facet normal -0 0 1
    outer loop
      vertex -73 -25 50
      vertex 75 -35 50
      vertex 73 -25 50
    endloop
  endfacet
  facet normal 0 0 1
    outer loop
      vertex -73 -25 50
      vertex -75 -35 50
      vertex 75 -35 50
    endloop
  endfacet
  facet normal 0 0 1
    outer loop
      vertex -75 -35 50
      vertex -73 -25 50
      vertex -75 -5 50
    endloop
  endfacet
  facet normal 0 -1 0
    outer loop
      vertex -75 -27 -50
      vertex 75 -27 46
      vertex -75 -27 46
    endloop
  endfacet
  facet normal 0 -1 -0
    outer loop
      vertex 75 -27 46
      vertex -75 -27 -50
      vertex 75 -27 -50
    endloop
  endfacet
  facet normal 0 1 -0
    outer loop
      vertex 75 27 -25
      vertex -75 27 50
      vertex 75 27 50
    endloop
  endfacet
  facet normal 0 1 0
    outer loop
      vertex -75 27 50
      vertex 75 27 -25
      vertex -75 27 -25
    endloop
  endfacet
  facet normal 0 0 -1
    outer loop
      vertex -73 -25.025 -25
      vertex 73 -25 -25
      vertex 73 -25.025 -25
    endloop
  endfacet
  facet normal -0 0 -1
    outer loop
      vertex 73 -25 -25
      vertex -73 -25.025 -25
      vertex -73 -25 -25
    endloop
  endfacet
  facet normal 1 0 0
    outer loop
      vertex -73 -5 50
      vertex -73 -25 50
      vertex -73 -5 0
    endloop
  endfacet
  facet normal 1 0 0
    outer loop
      vertex -73 5 0
      vertex -73 25 50
      vertex -73 5 50
    endloop
  endfacet
  facet normal 1 0 0
    outer loop
      vertex -73 25 50
      vertex -73 5 0
      vertex -73 25 -25
    endloop
  endfacet
  facet normal 1 -0 0
    outer loop
      vertex -73 4.99013 -0.313952
      vertex -73 25 -25
      vertex -73 5 0
    endloop
  endfacet
  facet normal 1 -0 0
    outer loop
      vertex -73 4.96057 -0.626666
      vertex -73 25 -25
      vertex -73 4.99013 -0.313952
    endloop
  endfacet
  facet normal 1 -0 0
    outer loop
      vertex -73 4.91144 -0.936906
      vertex -73 25 -25
      vertex -73 4.96057 -0.626666
    endloop
  endfacet
  facet normal 1 -0 0
    outer loop
      vertex -73 4.84292 -1.24345
      vertex -73 25 -25
      vertex -73 4.91144 -0.936906
    endloop
  endfacet
  facet normal 1 -0 0
    outer loop
      vertex -73 4.75528 -1.54508
      vertex -73 25 -25
      vertex -73 4.84292 -1.24345
    endloop
  endfacet
  facet normal 1 -0 0
    outer loop
      vertex -73 4.64888 -1.84062
      vertex -73 25 -25
      vertex -73 4.75528 -1.54508
    endloop
  endfacet
  facet normal 1 -0 0
    outer loop
      vertex -73 4.52413 -2.1289
      vertex -73 25 -25
      vertex -73 4.64888 -1.84062
    endloop
  endfacet
  facet normal 1 -0 0
    outer loop
      vertex -73 4.38153 -2.40877
      vertex -73 25 -25
      vertex -73 4.52413 -2.1289
    endloop
  endfacet
  facet normal 1 -0 0
    outer loop
      vertex -73 4.22164 -2.67913
      vertex -73 25 -25
      vertex -73 4.38153 -2.40877
    endloop
  endfacet
  facet normal 1 -0 0
    outer loop
      vertex -73 4.04508 -2.93893
      vertex -73 25 -25
      vertex -73 4.22164 -2.67913
    endloop
  endfacet
  facet normal 1 -0 0
    outer loop
      vertex -73 3.85257 -3.18712
      vertex -73 25 -25
      vertex -73 4.04508 -2.93893
    endloop
  endfacet
  facet normal 1 -0 0
    outer loop
      vertex -73 3.64484 -3.42274
      vertex -73 25 -25
      vertex -73 3.85257 -3.18712
    endloop
  endfacet
  facet normal 1 -0 0
    outer loop
      vertex -73 3.42274 -3.64484
      vertex -73 25 -25
      vertex -73 3.64484 -3.42274
    endloop
  endfacet
  facet normal 1 -0 0
    outer loop
      vertex -73 3.18712 -3.85257
      vertex -73 25 -25
      vertex -73 3.42274 -3.64484
    endloop
  endfacet
  facet normal 1 -0 0
    outer loop
      vertex -73 2.93893 -4.04508
      vertex -73 25 -25
      vertex -73 3.18712 -3.85257
    endloop
  endfacet
  facet normal 1 -0 0
    outer loop
      vertex -73 2.67913 -4.22164
      vertex -73 25 -25
      vertex -73 2.93893 -4.04508
    endloop
  endfacet
  facet normal 1 -0 0
    outer loop
      vertex -73 2.40877 -4.38153
      vertex -73 25 -25
      vertex -73 2.67913 -4.22164
    endloop
  endfacet
  facet normal 1 -0 0
    outer loop
      vertex -73 2.1289 -4.52413
      vertex -73 25 -25
      vertex -73 2.40877 -4.38153
    endloop
  endfacet
  facet normal 1 -0 0
    outer loop
      vertex -73 1.84062 -4.64888
      vertex -73 25 -25
      vertex -73 2.1289 -4.52413
    endloop
  endfacet
  facet normal 1 -0 0
    outer loop
      vertex -73 1.54508 -4.75528
      vertex -73 25 -25
      vertex -73 1.84062 -4.64888
    endloop
  endfacet
  facet normal 1 -0 0
    outer loop
      vertex -73 1.24345 -4.84292
      vertex -73 25 -25
      vertex -73 1.54508 -4.75528
    endloop
  endfacet
  facet normal 1 -0 0
    outer loop
      vertex -73 0.936906 -4.91144
      vertex -73 25 -25
      vertex -73 1.24345 -4.84292
    endloop
  endfacet
  facet normal 1 -0 0
    outer loop
      vertex -73 0.626666 -4.96057
      vertex -73 25 -25
      vertex -73 0.936906 -4.91144
    endloop
  endfacet
  facet normal 1 0 0
    outer loop
      vertex -73 25 -25
      vertex -73 0.626666 -4.96057
      vertex -73 2.025 -47.975
    endloop
  endfacet
  facet normal 1 -0 0
    outer loop
      vertex -73 0.313952 -4.99013
      vertex -73 2.025 -47.975
      vertex -73 0.626666 -4.96057
    endloop
  endfacet
  facet normal 1 -0 0
    outer loop
      vertex -73 0 -5
      vertex -73 2.025 -47.975
      vertex -73 0.313952 -4.99013
    endloop
  endfacet
  facet normal 1 0 0
    outer loop
      vertex -73 -0.313952 -4.99013
      vertex -73 2.025 -47.975
      vertex -73 0 -5
    endloop
  endfacet
  facet normal 1 0 0
    outer loop
      vertex -73 -0.626666 -4.96057
      vertex -73 2.025 -47.975
      vertex -73 -0.313952 -4.99013
    endloop
  endfacet
  facet normal 1 -0 0
    outer loop
      vertex -73 -25 -25
      vertex -73 2.025 -47.975
      vertex -73 -0.626666 -4.96057
    endloop
  endfacet
  facet normal 1 0 0
    outer loop
      vertex -73 -25 -25
      vertex -73 -0.626666 -4.96057
      vertex -73 -0.936906 -4.91144
    endloop
  endfacet
  facet normal 1 0 0
    outer loop
      vertex -73 -25 -25
      vertex -73 -0.936906 -4.91144
      vertex -73 -1.24345 -4.84292
    endloop
  endfacet
  facet normal 1 0 0
    outer loop
      vertex -73 -25 -25
      vertex -73 -1.24345 -4.84292
      vertex -73 -1.54508 -4.75528
    endloop
  endfacet
  facet normal 1 0 0
    outer loop
      vertex -73 -25 -25
      vertex -73 -1.54508 -4.75528
      vertex -73 -1.84062 -4.64888
    endloop
  endfacet
  facet normal 1 0 0
    outer loop
      vertex -73 -25 -25
      vertex -73 -1.84062 -4.64888
      vertex -73 -2.1289 -4.52413
    endloop
  endfacet
  facet normal 1 0 0
    outer loop
      vertex -73 -25 -25
      vertex -73 -2.1289 -4.52413
      vertex -73 -2.40877 -4.38153
    endloop
  endfacet
  facet normal 1 0 0
    outer loop
      vertex -73 -25 -25
      vertex -73 -2.40877 -4.38153
      vertex -73 -2.67913 -4.22164
    endloop
  endfacet
  facet normal 1 0 0
    outer loop
      vertex -73 -25 -25
      vertex -73 -2.67913 -4.22164
      vertex -73 -2.93893 -4.04508
    endloop
  endfacet
  facet normal 1 0 0
    outer loop
      vertex -73 -25 -25
      vertex -73 -2.93893 -4.04508
      vertex -73 -3.18712 -3.85257
    endloop
  endfacet
  facet normal 1 0 0
    outer loop
      vertex -73 -25 -25
      vertex -73 -3.18712 -3.85257
      vertex -73 -3.42274 -3.64484
    endloop
  endfacet
  facet normal 1 0 0
    outer loop
      vertex -73 -25 -25
      vertex -73 -3.42274 -3.64484
      vertex -73 -3.64484 -3.42274
    endloop
  endfacet
  facet normal 1 0 0
    outer loop
      vertex -73 -25 -25
      vertex -73 -3.64484 -3.42274
      vertex -73 -3.85257 -3.18712
    endloop
  endfacet
  facet normal 1 0 0
    outer loop
      vertex -73 -25 -25
      vertex -73 -3.85257 -3.18712
      vertex -73 -4.04508 -2.93893
    endloop
  endfacet
  facet normal 1 0 0
    outer loop
      vertex -73 -25 -25
      vertex -73 -4.04508 -2.93893
      vertex -73 -4.22164 -2.67913
    endloop
  endfacet
  facet normal 1 0 0
    outer loop
      vertex -73 -25 -25
      vertex -73 -4.22164 -2.67913
      vertex -73 -4.38153 -2.40877
    endloop
  endfacet
  facet normal 1 0 0
    outer loop
      vertex -73 -25 -25
      vertex -73 -4.38153 -2.40877
      vertex -73 -4.52413 -2.1289
    endloop
  endfacet
  facet normal 1 0 0
    outer loop
      vertex -73 -25 -25
      vertex -73 -4.52413 -2.1289
      vertex -73 -4.64888 -1.84062
    endloop
  endfacet
  facet normal 1 0 0
    outer loop
      vertex -73 -25 -25
      vertex -73 -4.64888 -1.84062
      vertex -73 -4.75528 -1.54508
    endloop
  endfacet
  facet normal 1 0 0
    outer loop
      vertex -73 -25 -25
      vertex -73 -4.75528 -1.54508
      vertex -73 -4.84292 -1.24345
    endloop
  endfacet
  facet normal 1 0 0
    outer loop
      vertex -73 -25 -25
      vertex -73 -4.84292 -1.24345
      vertex -73 -4.91144 -0.936906
    endloop
  endfacet
  facet normal 1 0 0
    outer loop
      vertex -73 -25 -25
      vertex -73 -4.91144 -0.936906
      vertex -73 -4.96057 -0.626666
    endloop
  endfacet
  facet normal 1 0 0
    outer loop
      vertex -73 -25 -25
      vertex -73 -5 0
      vertex -73 -25 50
    endloop
  endfacet
  facet normal 1 0 0
    outer loop
      vertex -73 -5 0
      vertex -73 -25 -25
      vertex -73 -4.99013 -0.313952
    endloop
  endfacet
  facet normal 1 0 0
    outer loop
      vertex -73 -4.99013 -0.313952
      vertex -73 -25 -25
      vertex -73 -4.96057 -0.626666
    endloop
  endfacet
  facet normal 1 0 0
    outer loop
      vertex -73 -25.025 -48
      vertex -73 2.025 -47.975
      vertex -73 -25 -25
    endloop
  endfacet
  facet normal 1 0 0
    outer loop
      vertex -73 -25.025 -48
      vertex -73 -25 -25
      vertex -73 -25.025 -25
    endloop
  endfacet
  facet normal 1 0 0
    outer loop
      vertex -73 2.025 -47.975
      vertex -73 -25.025 -48
      vertex -73 2.025 -48
    endloop
  endfacet
  facet normal -1 0 0
    outer loop
      vertex 73 -25.025 -48
      vertex 73 2.025 -47.975
      vertex 73 2.025 -48
    endloop
  endfacet
  facet normal -1 0 0
    outer loop
      vertex 73 2.025 -47.975
      vertex 73 1.54508 -4.75528
      vertex 73 1.84062 -4.64888
    endloop
  endfacet
  facet normal -1 0 0
    outer loop
      vertex 73 2.025 -47.975
      vertex 73 1.24345 -4.84292
      vertex 73 1.54508 -4.75528
    endloop
  endfacet
  facet normal -1 0 0
    outer loop
      vertex 73 2.025 -47.975
      vertex 73 0.936906 -4.91144
      vertex 73 1.24345 -4.84292
    endloop
  endfacet
  facet normal -1 0 0
    outer loop
      vertex 73 2.025 -47.975
      vertex 73 0.626666 -4.96057
      vertex 73 0.936906 -4.91144
    endloop
  endfacet
  facet normal -1 0 0
    outer loop
      vertex 73 2.025 -47.975
      vertex 73 0.313952 -4.99013
      vertex 73 0.626666 -4.96057
    endloop
  endfacet
  facet normal -1 0 0
    outer loop
      vertex 73 2.025 -47.975
      vertex 73 0 -5
      vertex 73 0.313952 -4.99013
    endloop
  endfacet
  facet normal -1 0 0
    outer loop
      vertex 73 2.025 -47.975
      vertex 73 -0.313952 -4.99013
      vertex 73 0 -5
    endloop
  endfacet
  facet normal -1 0 0
    outer loop
      vertex 73 2.025 -47.975
      vertex 73 -0.626666 -4.96057
      vertex 73 -0.313952 -4.99013
    endloop
  endfacet
  facet normal -1 0 0
    outer loop
      vertex 73 2.025 -47.975
      vertex 73 -25 -25
      vertex 73 -0.626666 -4.96057
    endloop
  endfacet
  facet normal -1 -0 0
    outer loop
      vertex 73 -0.626666 -4.96057
      vertex 73 -25 -25
      vertex 73 -0.936906 -4.91144
    endloop
  endfacet
  facet normal -1 -0 0
    outer loop
      vertex 73 -0.936906 -4.91144
      vertex 73 -25 -25
      vertex 73 -1.24345 -4.84292
    endloop
  endfacet
  facet normal -1 -0 0
    outer loop
      vertex 73 -1.24345 -4.84292
      vertex 73 -25 -25
      vertex 73 -1.54508 -4.75528
    endloop
  endfacet
  facet normal -1 -0 0
    outer loop
      vertex 73 -1.54508 -4.75528
      vertex 73 -25 -25
      vertex 73 -1.84062 -4.64888
    endloop
  endfacet
  facet normal -1 -0 0
    outer loop
      vertex 73 -1.84062 -4.64888
      vertex 73 -25 -25
      vertex 73 -2.1289 -4.52413
    endloop
  endfacet
  facet normal -1 -0 0
    outer loop
      vertex 73 -2.1289 -4.52413
      vertex 73 -25 -25
      vertex 73 -2.40877 -4.38153
    endloop
  endfacet
  facet normal -1 -0 0
    outer loop
      vertex 73 -2.40877 -4.38153
      vertex 73 -25 -25
      vertex 73 -2.67913 -4.22164
    endloop
  endfacet
  facet normal -1 -0 0
    outer loop
      vertex 73 -2.67913 -4.22164
      vertex 73 -25 -25
      vertex 73 -2.93893 -4.04508
    endloop
  endfacet
  facet normal -1 -0 0
    outer loop
      vertex 73 -2.93893 -4.04508
      vertex 73 -25 -25
      vertex 73 -3.18712 -3.85257
    endloop
  endfacet
  facet normal -1 -0 0
    outer loop
      vertex 73 -3.18712 -3.85257
      vertex 73 -25 -25
      vertex 73 -3.42274 -3.64484
    endloop
  endfacet
  facet normal -1 -0 0
    outer loop
      vertex 73 -3.42274 -3.64484
      vertex 73 -25 -25
      vertex 73 -3.64484 -3.42274
    endloop
  endfacet
  facet normal -1 -0 0
    outer loop
      vertex 73 -3.64484 -3.42274
      vertex 73 -25 -25
      vertex 73 -3.85257 -3.18712
    endloop
  endfacet
  facet normal -1 -0 0
    outer loop
      vertex 73 -3.85257 -3.18712
      vertex 73 -25 -25
      vertex 73 -4.04508 -2.93893
    endloop
  endfacet
  facet normal -1 -0 0
    outer loop
      vertex 73 -4.04508 -2.93893
      vertex 73 -25 -25
      vertex 73 -4.22164 -2.67913
    endloop
  endfacet
  facet normal -1 -0 0
    outer loop
      vertex 73 -4.22164 -2.67913
      vertex 73 -25 -25
      vertex 73 -4.38153 -2.40877
    endloop
  endfacet
  facet normal -1 -0 0
    outer loop
      vertex 73 -4.38153 -2.40877
      vertex 73 -25 -25
      vertex 73 -4.52413 -2.1289
    endloop
  endfacet
  facet normal -1 -0 0
    outer loop
      vertex 73 -4.52413 -2.1289
      vertex 73 -25 -25
      vertex 73 -4.64888 -1.84062
    endloop
  endfacet
  facet normal -1 -0 0
    outer loop
      vertex 73 -4.64888 -1.84062
      vertex 73 -25 -25
      vertex 73 -4.75528 -1.54508
    endloop
  endfacet
  facet normal -1 -0 0
    outer loop
      vertex 73 -4.75528 -1.54508
      vertex 73 -25 -25
      vertex 73 -4.84292 -1.24345
    endloop
  endfacet
  facet normal -1 -0 0
    outer loop
      vertex 73 -4.84292 -1.24345
      vertex 73 -25 -25
      vertex 73 -4.91144 -0.936906
    endloop
  endfacet
  facet normal -1 0 0
    outer loop
      vertex 73 -25 50
      vertex 73 -5 0
      vertex 73 -25 -25
    endloop
  endfacet
  facet normal -1 -0 0
    outer loop
      vertex 73 -4.99013 -0.313952
      vertex 73 -25 -25
      vertex 73 -5 0
    endloop
  endfacet
  facet normal -1 -0 0
    outer loop
      vertex 73 -4.96057 -0.626666
      vertex 73 -25 -25
      vertex 73 -4.99013 -0.313952
    endloop
  endfacet
  facet normal -1 -0 0
    outer loop
      vertex 73 -4.91144 -0.936906
      vertex 73 -25 -25
      vertex 73 -4.96057 -0.626666
    endloop
  endfacet
  facet normal -1 -0 0
    outer loop
      vertex 73 2.025 -47.975
      vertex 73 -25.025 -48
      vertex 73 -25 -25
    endloop
  endfacet
  facet normal -1 -0 0
    outer loop
      vertex 73 -25 -25
      vertex 73 -25.025 -48
      vertex 73 -25.025 -25
    endloop
  endfacet
  facet normal -1 0 0
    outer loop
      vertex 73 25 -25
      vertex 73 5 0
      vertex 73 25 50
    endloop
  endfacet
  facet normal -1 0 0
    outer loop
      vertex 73 25 -25
      vertex 73 4.99013 -0.313952
      vertex 73 5 0
    endloop
  endfacet
  facet normal -1 0 0
    outer loop
      vertex 73 25 -25
      vertex 73 4.96057 -0.626666
      vertex 73 4.99013 -0.313952
    endloop
  endfacet
  facet normal -1 0 0
    outer loop
      vertex 73 25 -25
      vertex 73 4.91144 -0.936906
      vertex 73 4.96057 -0.626666
    endloop
  endfacet
  facet normal -1 0 0
    outer loop
      vertex 73 25 -25
      vertex 73 4.84292 -1.24345
      vertex 73 4.91144 -0.936906
    endloop
  endfacet
  facet normal -1 0 0
    outer loop
      vertex 73 25 -25
      vertex 73 4.75528 -1.54508
      vertex 73 4.84292 -1.24345
    endloop
  endfacet
  facet normal -1 0 0
    outer loop
      vertex 73 25 -25
      vertex 73 4.64888 -1.84062
      vertex 73 4.75528 -1.54508
    endloop
  endfacet
  facet normal -1 0 0
    outer loop
      vertex 73 25 -25
      vertex 73 4.52413 -2.1289
      vertex 73 4.64888 -1.84062
    endloop
  endfacet
  facet normal -1 0 0
    outer loop
      vertex 73 25 -25
      vertex 73 4.38153 -2.40877
      vertex 73 4.52413 -2.1289
    endloop
  endfacet
  facet normal -1 0 0
    outer loop
      vertex 73 25 -25
      vertex 73 4.22164 -2.67913
      vertex 73 4.38153 -2.40877
    endloop
  endfacet
  facet normal -1 0 0
    outer loop
      vertex 73 25 -25
      vertex 73 4.04508 -2.93893
      vertex 73 4.22164 -2.67913
    endloop
  endfacet
  facet normal -1 0 0
    outer loop
      vertex 73 25 -25
      vertex 73 3.85257 -3.18712
      vertex 73 4.04508 -2.93893
    endloop
  endfacet
  facet normal -1 0 0
    outer loop
      vertex 73 25 -25
      vertex 73 3.64484 -3.42274
      vertex 73 3.85257 -3.18712
    endloop
  endfacet
  facet normal -1 0 0
    outer loop
      vertex 73 25 -25
      vertex 73 3.42274 -3.64484
      vertex 73 3.64484 -3.42274
    endloop
  endfacet
  facet normal -1 0 0
    outer loop
      vertex 73 25 -25
      vertex 73 3.18712 -3.85257
      vertex 73 3.42274 -3.64484
    endloop
  endfacet
  facet normal -1 0 0
    outer loop
      vertex 73 25 -25
      vertex 73 2.93893 -4.04508
      vertex 73 3.18712 -3.85257
    endloop
  endfacet
  facet normal -1 0 0
    outer loop
      vertex 73 25 -25
      vertex 73 2.67913 -4.22164
      vertex 73 2.93893 -4.04508
    endloop
  endfacet
  facet normal -1 0 0
    outer loop
      vertex 73 25 -25
      vertex 73 2.40877 -4.38153
      vertex 73 2.67913 -4.22164
    endloop
  endfacet
  facet normal -1 0 0
    outer loop
      vertex 73 25 -25
      vertex 73 2.1289 -4.52413
      vertex 73 2.40877 -4.38153
    endloop
  endfacet
  facet normal -1 0 0
    outer loop
      vertex 73 1.84062 -4.64888
      vertex 73 25 -25
      vertex 73 2.025 -47.975
    endloop
  endfacet
  facet normal -1 0 0
    outer loop
      vertex 73 25 -25
      vertex 73 1.84062 -4.64888
      vertex 73 2.1289 -4.52413
    endloop
  endfacet
  facet normal -1 -0 0
    outer loop
      vertex 73 25 50
      vertex 73 5 0
      vertex 73 5 50
    endloop
  endfacet
  facet normal -1 0 0
    outer loop
      vertex 73 -5 0
      vertex 73 -25 50
      vertex 73 -5 50
    endloop
  endfacet
  facet normal 0 -1 0
    outer loop
      vertex 61.32 25 -25
      vertex -73 25 50
      vertex -73 25 -25
    endloop
  endfacet
  facet normal 0 -1 0
    outer loop
      vertex -73 25 50
      vertex 61.32 25 -25
      vertex 73 25 50
    endloop
  endfacet
  facet normal 0 -1 -0
    outer loop
      vertex 73 25 50
      vertex 61.32 25 -25
      vertex 73 25 -25
    endloop
  endfacet
  facet normal 0 1 -0
    outer loop
      vertex 73 -25 -25
      vertex -73 -25 50
      vertex 73 -25 50
    endloop
  endfacet
  facet normal 0 1 0
    outer loop
      vertex -73 -25 50
      vertex 73 -25 -25
      vertex -73 -25 -25
    endloop
  endfacet
  facet normal 0 0.707107 -0.707107
    outer loop
      vertex 75 2 -50
      vertex -75 2 -50
      vertex 75 27 -25
    endloop
  endfacet
  facet normal 0 0.707107 -0.707107
    outer loop
      vertex 75 27 -25
      vertex -75 2 -50
      vertex -75 27 -25
    endloop
  endfacet
  facet normal 0 0 -1
    outer loop
      vertex -75 -27 -50
      vertex 75 2 -50
      vertex 75 -27 -50
    endloop
  endfacet
  facet normal -0 0 -1
    outer loop
      vertex 75 2 -50
      vertex -75 -27 -50
      vertex -75 2 -50
    endloop
  endfacet
  facet normal 0 -0.707107 0.707107
    outer loop
      vertex 61.32 25 -25
      vertex 73 2.025 -47.975
      vertex 73 25 -25
    endloop
  endfacet
  facet normal 0 -0.707107 0.707107
    outer loop
      vertex 73 2.025 -47.975
      vertex 61.32 25 -25
      vertex -72.854 2.025 -47.975
    endloop
  endfacet
  facet normal 0 -0.707107 0.707107
    outer loop
      vertex -73 25 -25
      vertex -72.854 2.025 -47.975
      vertex 61.32 25 -25
    endloop
  endfacet
  facet normal 0 -0.707107 0.707107
    outer loop
      vertex -72.854 2.025 -47.975
      vertex -73 25 -25
      vertex -73 2.025 -47.975
    endloop
  endfacet
  facet normal -0 0 1
    outer loop
      vertex -73 2.025 -48
      vertex 73 -25.025 -48
      vertex 73 2.025 -48
    endloop
  endfacet
  facet normal 0 0 1
    outer loop
      vertex 73 -25.025 -48
      vertex -73 2.025 -48
      vertex -73 -25.025 -48
    endloop
  endfacet
  facet normal 0 1 -0
    outer loop
      vertex 73 -25.025 -48
      vertex -73 -25.025 -25
      vertex 73 -25.025 -25
    endloop
  endfacet
  facet normal 0 1 0
    outer loop
      vertex -73 -25.025 -25
      vertex 73 -25.025 -48
      vertex -73 -25.025 -48
    endloop
  endfacet
  facet normal 0 -1 0
    outer loop
      vertex -73 2.025 -48
      vertex -72.854 2.025 -47.975
      vertex -73 2.025 -47.975
    endloop
  endfacet
  facet normal 0 -1 0
    outer loop
      vertex 73 2.025 -48
      vertex -72.854 2.025 -47.975
      vertex -73 2.025 -48
    endloop
  endfacet
  facet normal 0 -1 0
    outer loop
      vertex -72.854 2.025 -47.975
      vertex 73 2.025 -48
      vertex 73 2.025 -47.975
    endloop
  endfacet
  facet normal 0 -1 0
    outer loop
      vertex 73 5 0
      vertex 75 5 50
      vertex 73 5 50
    endloop
  endfacet
  facet normal 0 -1 -0
    outer loop
      vertex 75 5 50
      vertex 73 5 0
      vertex 75 5 0
    endloop
  endfacet
  facet normal 0 1 -0
    outer loop
      vertex 75 -5 0
      vertex 73 -5 50
      vertex 75 -5 50
    endloop
  endfacet
  facet normal 0 1 0
    outer loop
      vertex 73 -5 50
      vertex 75 -5 0
      vertex 73 -5 0
    endloop
  endfacet
  facet normal 0 -0.0314119 0.999507
    outer loop
      vertex 73 0.313952 -4.99013
      vertex 75 0 -5
      vertex 75 0.313952 -4.99013
    endloop
  endfacet
  facet normal 0 -0.0314119 0.999507
    outer loop
      vertex 75 0 -5
      vertex 73 0.313952 -4.99013
      vertex 73 0 -5
    endloop
  endfacet
  facet normal 0 -0.790154 0.612908
    outer loop
      vertex 73 3.85257 -3.18712
      vertex 75 4.04508 -2.93893
      vertex 73 4.04508 -2.93893
    endloop
  endfacet
  facet normal 0 -0.790154 0.612908
    outer loop
      vertex 75 4.04508 -2.93893
      vertex 73 3.85257 -3.18712
      vertex 75 3.85257 -3.18712
    endloop
  endfacet
  facet normal -0 0.0941082 0.995562
    outer loop
      vertex 73 -0.313952 -4.99013
      vertex 75 -0.626666 -4.96057
      vertex 75 -0.313952 -4.99013
    endloop
  endfacet
  facet normal 0 0.0941082 0.995562
    outer loop
      vertex 75 -0.626666 -4.96057
      vertex 73 -0.313952 -4.99013
      vertex 73 -0.626666 -4.96057
    endloop
  endfacet
  facet normal 0 -0.960294 0.278991
    outer loop
      vertex 73 4.75528 -1.54508
      vertex 75 4.84292 -1.24345
      vertex 73 4.84292 -1.24345
    endloop
  endfacet
  facet normal 0 -0.960294 0.278991
    outer loop
      vertex 75 4.84292 -1.24345
      vertex 73 4.75528 -1.54508
      vertex 75 4.75528 -1.54508
    endloop
  endfacet
  facet normal -0 0.661311 0.750112
    outer loop
      vertex 73 -3.18712 -3.85257
      vertex 75 -3.42274 -3.64484
      vertex 75 -3.18712 -3.85257
    endloop
  endfacet
  facet normal 0 0.661311 0.750112
    outer loop
      vertex 75 -3.42274 -3.64484
      vertex 73 -3.18712 -3.85257
      vertex 73 -3.42274 -3.64484
    endloop
  endfacet
  facet normal -0 0.218143 0.975917
    outer loop
      vertex 73 -0.936906 -4.91144
      vertex 75 -1.24345 -4.84292
      vertex 75 -0.936906 -4.91144
    endloop
  endfacet
  facet normal 0 0.218143 0.975917
    outer loop
      vertex 75 -1.24345 -4.84292
      vertex 73 -0.936906 -4.91144
      vertex 73 -1.24345 -4.84292
    endloop
  endfacet
  facet normal 0 -0.995562 0.0941082
    outer loop
      vertex 73 4.96057 -0.626666
      vertex 75 4.99013 -0.313952
      vertex 73 4.99013 -0.313952
    endloop
  endfacet
  facet normal 0 -0.995562 0.0941082
    outer loop
      vertex 75 4.99013 -0.313952
      vertex 73 4.96057 -0.626666
      vertex 75 4.96057 -0.626666
    endloop
  endfacet
  facet normal 0 -0.987688 0.156434
    outer loop
      vertex 73 4.91144 -0.936906
      vertex 75 4.96057 -0.626666
      vertex 73 4.96057 -0.626666
    endloop
  endfacet
  facet normal 0 -0.987688 0.156434
    outer loop
      vertex 75 4.96057 -0.626666
      vertex 73 4.91144 -0.936906
      vertex 75 4.91144 -0.936906
    endloop
  endfacet
  facet normal 0 -0.509042 0.860742
    outer loop
      vertex 73 2.67913 -4.22164
      vertex 75 2.40877 -4.38153
      vertex 75 2.67913 -4.22164
    endloop
  endfacet
  facet normal 0 -0.509042 0.860742
    outer loop
      vertex 75 2.40877 -4.38153
      vertex 73 2.67913 -4.22164
      vertex 73 2.40877 -4.38153
    endloop
  endfacet
  facet normal 0 -0.707107 0.707107
    outer loop
      vertex 73 3.42274 -3.64484
      vertex 75 3.64484 -3.42274
      vertex 73 3.64484 -3.42274
    endloop
  endfacet
  facet normal 0 -0.707107 0.707107
    outer loop
      vertex 75 3.64484 -3.42274
      vertex 73 3.42274 -3.64484
      vertex 75 3.42274 -3.64484
    endloop
  endfacet
  facet normal -0 0.278991 0.960294
    outer loop
      vertex 73 -1.24345 -4.84292
      vertex 75 -1.54508 -4.75528
      vertex 75 -1.24345 -4.84292
    endloop
  endfacet
  facet normal 0 0.278991 0.960294
    outer loop
      vertex 75 -1.54508 -4.75528
      vertex 73 -1.24345 -4.84292
      vertex 73 -1.54508 -4.75528
    endloop
  endfacet
  facet normal 0 0.94088 0.33874
    outer loop
      vertex 75 -4.64888 -1.84062
      vertex 73 -4.75528 -1.54508
      vertex 75 -4.75528 -1.54508
    endloop
  endfacet
  facet normal 0 0.94088 0.33874
    outer loop
      vertex 73 -4.75528 -1.54508
      vertex 75 -4.64888 -1.84062
      vertex 73 -4.64888 -1.84062
    endloop
  endfacet
  facet normal 0 -0.33874 0.94088
    outer loop
      vertex 73 1.84062 -4.64888
      vertex 75 1.54508 -4.75528
      vertex 75 1.84062 -4.64888
    endloop
  endfacet
  facet normal 0 -0.33874 0.94088
    outer loop
      vertex 75 1.54508 -4.75528
      vertex 73 1.84062 -4.64888
      vertex 73 1.54508 -4.75528
    endloop
  endfacet
  facet normal 0 -0.0941082 0.995562
    outer loop
      vertex 73 0.626666 -4.96057
      vertex 75 0.313952 -4.99013
      vertex 75 0.626666 -4.96057
    endloop
  endfacet
  facet normal 0 -0.0941082 0.995562
    outer loop
      vertex 75 0.313952 -4.99013
      vertex 73 0.626666 -4.96057
      vertex 73 0.313952 -4.99013
    endloop
  endfacet
  facet normal 0 -0.278991 0.960294
    outer loop
      vertex 73 1.54508 -4.75528
      vertex 75 1.24345 -4.84292
      vertex 75 1.54508 -4.75528
    endloop
  endfacet
  facet normal 0 -0.278991 0.960294
    outer loop
      vertex 75 1.24345 -4.84292
      vertex 73 1.54508 -4.75528
      vertex 73 1.24345 -4.84292
    endloop
  endfacet
  facet normal 0 -0.612908 0.790154
    outer loop
      vertex 73 3.18712 -3.85257
      vertex 75 2.93893 -4.04508
      vertex 75 3.18712 -3.85257
    endloop
  endfacet
  facet normal 0 -0.612908 0.790154
    outer loop
      vertex 75 2.93893 -4.04508
      vertex 73 3.18712 -3.85257
      vertex 73 2.93893 -4.04508
    endloop
  endfacet
  facet normal 0 -0.218143 0.975917
    outer loop
      vertex 73 1.24345 -4.84292
      vertex 75 0.936906 -4.91144
      vertex 75 1.24345 -4.84292
    endloop
  endfacet
  facet normal 0 -0.218143 0.975917
    outer loop
      vertex 75 0.936906 -4.91144
      vertex 73 1.24345 -4.84292
      vertex 73 0.936906 -4.91144
    endloop
  endfacet
  facet normal 0 -0.453991 0.891006
    outer loop
      vertex 73 2.40877 -4.38153
      vertex 75 2.1289 -4.52413
      vertex 75 2.40877 -4.38153
    endloop
  endfacet
  facet normal 0 -0.453991 0.891006
    outer loop
      vertex 75 2.1289 -4.52413
      vertex 73 2.40877 -4.38153
      vertex 73 2.1289 -4.52413
    endloop
  endfacet
  facet normal 0 -0.94088 0.33874
    outer loop
      vertex 73 4.64888 -1.84062
      vertex 75 4.75528 -1.54508
      vertex 73 4.75528 -1.54508
    endloop
  endfacet
  facet normal 0 -0.94088 0.33874
    outer loop
      vertex 75 4.75528 -1.54508
      vertex 73 4.64888 -1.84062
      vertex 75 4.64888 -1.84062
    endloop
  endfacet
  facet normal 0 -0.999507 0.0314119
    outer loop
      vertex 73 4.99013 -0.313952
      vertex 75 5 0
      vertex 73 5 0
    endloop
  endfacet
  facet normal 0 -0.999507 0.0314119
    outer loop
      vertex 75 5 0
      vertex 73 4.99013 -0.313952
      vertex 75 4.99013 -0.313952
    endloop
  endfacet
  facet normal 0 -0.750112 0.661311
    outer loop
      vertex 73 3.64484 -3.42274
      vertex 75 3.85257 -3.18712
      vertex 73 3.85257 -3.18712
    endloop
  endfacet
  facet normal 0 -0.750112 0.661311
    outer loop
      vertex 75 3.85257 -3.18712
      vertex 73 3.64484 -3.42274
      vertex 75 3.64484 -3.42274
    endloop
  endfacet
  facet normal -0 0.156434 0.987688
    outer loop
      vertex 73 -0.626666 -4.96057
      vertex 75 -0.936906 -4.91144
      vertex 75 -0.626666 -4.96057
    endloop
  endfacet
  facet normal 0 0.156434 0.987688
    outer loop
      vertex 75 -0.936906 -4.91144
      vertex 73 -0.626666 -4.96057
      vertex 73 -0.936906 -4.91144
    endloop
  endfacet
  facet normal -0 0.0314119 0.999507
    outer loop
      vertex 73 0 -5
      vertex 75 -0.313952 -4.99013
      vertex 75 0 -5
    endloop
  endfacet
  facet normal 0 0.0314119 0.999507
    outer loop
      vertex 75 -0.313952 -4.99013
      vertex 73 0 -5
      vertex 73 -0.313952 -4.99013
    endloop
  endfacet
  facet normal 0 0.891006 0.453991
    outer loop
      vertex 75 -4.38153 -2.40877
      vertex 73 -4.52413 -2.1289
      vertex 75 -4.52413 -2.1289
    endloop
  endfacet
  facet normal 0 0.891006 0.453991
    outer loop
      vertex 73 -4.52413 -2.1289
      vertex 75 -4.38153 -2.40877
      vertex 73 -4.38153 -2.40877
    endloop
  endfacet
  facet normal 0 0.860742 0.509042
    outer loop
      vertex 75 -4.22164 -2.67913
      vertex 73 -4.38153 -2.40877
      vertex 75 -4.38153 -2.40877
    endloop
  endfacet
  facet normal 0 0.860742 0.509042
    outer loop
      vertex 73 -4.38153 -2.40877
      vertex 75 -4.22164 -2.67913
      vertex 73 -4.22164 -2.67913
    endloop
  endfacet
  facet normal 0 0.995562 0.0941082
    outer loop
      vertex 75 -4.96057 -0.626666
      vertex 73 -4.99013 -0.313952
      vertex 75 -4.99013 -0.313952
    endloop
  endfacet
  facet normal 0 0.995562 0.0941082
    outer loop
      vertex 73 -4.99013 -0.313952
      vertex 75 -4.96057 -0.626666
      vertex 73 -4.96057 -0.626666
    endloop
  endfacet
  facet normal -0 0.453991 0.891006
    outer loop
      vertex 73 -2.1289 -4.52413
      vertex 75 -2.40877 -4.38153
      vertex 75 -2.1289 -4.52413
    endloop
  endfacet
  facet normal 0 0.453991 0.891006
    outer loop
      vertex 75 -2.40877 -4.38153
      vertex 73 -2.1289 -4.52413
      vertex 73 -2.40877 -4.38153
    endloop
  endfacet
  facet normal 0 0.790154 0.612908
    outer loop
      vertex 75 -3.85257 -3.18712
      vertex 73 -4.04508 -2.93893
      vertex 75 -4.04508 -2.93893
    endloop
  endfacet
  facet normal 0 0.790154 0.612908
    outer loop
      vertex 73 -4.04508 -2.93893
      vertex 75 -3.85257 -3.18712
      vertex 73 -3.85257 -3.18712
    endloop
  endfacet
  facet normal 0 0.975917 0.218143
    outer loop
      vertex 75 -4.84292 -1.24345
      vertex 73 -4.91144 -0.936906
      vertex 75 -4.91144 -0.936906
    endloop
  endfacet
  facet normal 0 0.975917 0.218143
    outer loop
      vertex 73 -4.91144 -0.936906
      vertex 75 -4.84292 -1.24345
      vertex 73 -4.84292 -1.24345
    endloop
  endfacet
  facet normal 0 0.987688 0.156434
    outer loop
      vertex 75 -4.91144 -0.936906
      vertex 73 -4.96057 -0.626666
      vertex 75 -4.96057 -0.626666
    endloop
  endfacet
  facet normal 0 0.987688 0.156434
    outer loop
      vertex 73 -4.96057 -0.626666
      vertex 75 -4.91144 -0.936906
      vertex 73 -4.91144 -0.936906
    endloop
  endfacet
  facet normal 0 0.917755 0.397148
    outer loop
      vertex 75 -4.52413 -2.1289
      vertex 73 -4.64888 -1.84062
      vertex 75 -4.64888 -1.84062
    endloop
  endfacet
  facet normal 0 0.917755 0.397148
    outer loop
      vertex 73 -4.64888 -1.84062
      vertex 75 -4.52413 -2.1289
      vertex 73 -4.52413 -2.1289
    endloop
  endfacet
  facet normal 0 0.960294 0.278991
    outer loop
      vertex 75 -4.75528 -1.54508
      vertex 73 -4.84292 -1.24345
      vertex 75 -4.84292 -1.24345
    endloop
  endfacet
  facet normal 0 0.960294 0.278991
    outer loop
      vertex 73 -4.84292 -1.24345
      vertex 75 -4.75528 -1.54508
      vertex 73 -4.75528 -1.54508
    endloop
  endfacet
  facet normal 0 -0.397148 0.917755
    outer loop
      vertex 73 2.1289 -4.52413
      vertex 75 1.84062 -4.64888
      vertex 75 2.1289 -4.52413
    endloop
  endfacet
  facet normal 0 -0.397148 0.917755
    outer loop
      vertex 75 1.84062 -4.64888
      vertex 73 2.1289 -4.52413
      vertex 73 1.84062 -4.64888
    endloop
  endfacet
  facet normal 0 -0.156434 0.987688
    outer loop
      vertex 73 0.936906 -4.91144
      vertex 75 0.626666 -4.96057
      vertex 75 0.936906 -4.91144
    endloop
  endfacet
  facet normal 0 -0.156434 0.987688
    outer loop
      vertex 75 0.626666 -4.96057
      vertex 73 0.936906 -4.91144
      vertex 73 0.626666 -4.96057
    endloop
  endfacet
  facet normal 0 -0.891006 0.453991
    outer loop
      vertex 73 4.38153 -2.40877
      vertex 75 4.52413 -2.1289
      vertex 73 4.52413 -2.1289
    endloop
  endfacet
  facet normal 0 -0.891006 0.453991
    outer loop
      vertex 75 4.52413 -2.1289
      vertex 73 4.38153 -2.40877
      vertex 75 4.38153 -2.40877
    endloop
  endfacet
  facet normal 0 -0.975917 0.218143
    outer loop
      vertex 73 4.84292 -1.24345
      vertex 75 4.91144 -0.936906
      vertex 73 4.91144 -0.936906
    endloop
  endfacet
  facet normal 0 -0.975917 0.218143
    outer loop
      vertex 75 4.91144 -0.936906
      vertex 73 4.84292 -1.24345
      vertex 75 4.84292 -1.24345
    endloop
  endfacet
  facet normal 0 -0.917755 0.397148
    outer loop
      vertex 73 4.52413 -2.1289
      vertex 75 4.64888 -1.84062
      vertex 73 4.64888 -1.84062
    endloop
  endfacet
  facet normal 0 -0.917755 0.397148
    outer loop
      vertex 75 4.64888 -1.84062
      vertex 73 4.52413 -2.1289
      vertex 75 4.52413 -2.1289
    endloop
  endfacet
  facet normal -0 0.612908 0.790154
    outer loop
      vertex 73 -2.93893 -4.04508
      vertex 75 -3.18712 -3.85257
      vertex 75 -2.93893 -4.04508
    endloop
  endfacet
  facet normal 0 0.612908 0.790154
    outer loop
      vertex 75 -3.18712 -3.85257
      vertex 73 -2.93893 -4.04508
      vertex 73 -3.18712 -3.85257
    endloop
  endfacet
  facet normal -0 0.562081 0.827082
    outer loop
      vertex 73 -2.67913 -4.22164
      vertex 75 -2.93893 -4.04508
      vertex 75 -2.67913 -4.22164
    endloop
  endfacet
  facet normal 0 0.562081 0.827082
    outer loop
      vertex 75 -2.93893 -4.04508
      vertex 73 -2.67913 -4.22164
      vertex 73 -2.93893 -4.04508
    endloop
  endfacet
  facet normal -0 0.509042 0.860742
    outer loop
      vertex 73 -2.40877 -4.38153
      vertex 75 -2.67913 -4.22164
      vertex 75 -2.40877 -4.38153
    endloop
  endfacet
  facet normal 0 0.509042 0.860742
    outer loop
      vertex 75 -2.67913 -4.22164
      vertex 73 -2.40877 -4.38153
      vertex 73 -2.67913 -4.22164
    endloop
  endfacet
  facet normal 0 0.999507 0.0314119
    outer loop
      vertex 75 -4.99013 -0.313952
      vertex 73 -5 0
      vertex 75 -5 0
    endloop
  endfacet
  facet normal 0 0.999507 0.0314119
    outer loop
      vertex 73 -5 0
      vertex 75 -4.99013 -0.313952
      vertex 73 -4.99013 -0.313952
    endloop
  endfacet
  facet normal -0 0.397148 0.917755
    outer loop
      vertex 73 -1.84062 -4.64888
      vertex 75 -2.1289 -4.52413
      vertex 75 -1.84062 -4.64888
    endloop
  endfacet
  facet normal 0 0.397148 0.917755
    outer loop
      vertex 75 -2.1289 -4.52413
      vertex 73 -1.84062 -4.64888
      vertex 73 -2.1289 -4.52413
    endloop
  endfacet
  facet normal 0 -0.562081 0.827082
    outer loop
      vertex 73 2.93893 -4.04508
      vertex 75 2.67913 -4.22164
      vertex 75 2.93893 -4.04508
    endloop
  endfacet
  facet normal 0 -0.562081 0.827082
    outer loop
      vertex 75 2.67913 -4.22164
      vertex 73 2.93893 -4.04508
      vertex 73 2.67913 -4.22164
    endloop
  endfacet
  facet normal 0 -0.661311 0.750112
    outer loop
      vertex 73 3.42274 -3.64484
      vertex 75 3.18712 -3.85257
      vertex 75 3.42274 -3.64484
    endloop
  endfacet
  facet normal 0 -0.661311 0.750112
    outer loop
      vertex 75 3.18712 -3.85257
      vertex 73 3.42274 -3.64484
      vertex 73 3.18712 -3.85257
    endloop
  endfacet
  facet normal 0 -0.860742 0.509042
    outer loop
      vertex 73 4.22164 -2.67913
      vertex 75 4.38153 -2.40877
      vertex 73 4.38153 -2.40877
    endloop
  endfacet
  facet normal 0 -0.860742 0.509042
    outer loop
      vertex 75 4.38153 -2.40877
      vertex 73 4.22164 -2.67913
      vertex 75 4.22164 -2.67913
    endloop
  endfacet
  facet normal 0 -0.827082 0.562081
    outer loop
      vertex 73 4.04508 -2.93893
      vertex 75 4.22164 -2.67913
      vertex 73 4.22164 -2.67913
    endloop
  endfacet
  facet normal 0 -0.827082 0.562081
    outer loop
      vertex 75 4.22164 -2.67913
      vertex 73 4.04508 -2.93893
      vertex 75 4.04508 -2.93893
    endloop
  endfacet
  facet normal 0 0.827082 0.562081
    outer loop
      vertex 75 -4.04508 -2.93893
      vertex 73 -4.22164 -2.67913
      vertex 75 -4.22164 -2.67913
    endloop
  endfacet
  facet normal 0 0.827082 0.562081
    outer loop
      vertex 73 -4.22164 -2.67913
      vertex 75 -4.04508 -2.93893
      vertex 73 -4.04508 -2.93893
    endloop
  endfacet
  facet normal -0 0.33874 0.94088
    outer loop
      vertex 73 -1.54508 -4.75528
      vertex 75 -1.84062 -4.64888
      vertex 75 -1.54508 -4.75528
    endloop
  endfacet
  facet normal 0 0.33874 0.94088
    outer loop
      vertex 75 -1.84062 -4.64888
      vertex 73 -1.54508 -4.75528
      vertex 73 -1.84062 -4.64888
    endloop
  endfacet
  facet normal 0 0.750112 0.661311
    outer loop
      vertex 75 -3.64484 -3.42274
      vertex 73 -3.85257 -3.18712
      vertex 75 -3.85257 -3.18712
    endloop
  endfacet
  facet normal 0 0.750112 0.661311
    outer loop
      vertex 73 -3.85257 -3.18712
      vertex 75 -3.64484 -3.42274
      vertex 73 -3.64484 -3.42274
    endloop
  endfacet
  facet normal 0 0.707107 0.707107
    outer loop
      vertex 75 -3.42274 -3.64484
      vertex 73 -3.64484 -3.42274
      vertex 75 -3.64484 -3.42274
    endloop
  endfacet
  facet normal 0 0.707107 0.707107
    outer loop
      vertex 73 -3.64484 -3.42274
      vertex 75 -3.42274 -3.64484
      vertex 73 -3.42274 -3.64484
    endloop
  endfacet
  facet normal 0 -1 0
    outer loop
      vertex -75 5 0
      vertex -73 5 50
      vertex -75 5 50
    endloop
  endfacet
  facet normal 0 -1 -0
    outer loop
      vertex -73 5 50
      vertex -75 5 0
      vertex -73 5 0
    endloop
  endfacet
  facet normal 0 1 -0
    outer loop
      vertex -73 -5 0
      vertex -75 -5 50
      vertex -73 -5 50
    endloop
  endfacet
  facet normal 0 1 0
    outer loop
      vertex -75 -5 50
      vertex -73 -5 0
      vertex -75 -5 0
    endloop
  endfacet
  facet normal 0 -0.0314119 0.999507
    outer loop
      vertex -75 0.313952 -4.99013
      vertex -73 0 -5
      vertex -73 0.313952 -4.99013
    endloop
  endfacet
  facet normal 0 -0.0314119 0.999507
    outer loop
      vertex -73 0 -5
      vertex -75 0.313952 -4.99013
      vertex -75 0 -5
    endloop
  endfacet
  facet normal 0 -0.790154 0.612908
    outer loop
      vertex -75 3.85257 -3.18712
      vertex -73 4.04508 -2.93893
      vertex -75 4.04508 -2.93893
    endloop
  endfacet
  facet normal 0 -0.790154 0.612908
    outer loop
      vertex -73 4.04508 -2.93893
      vertex -75 3.85257 -3.18712
      vertex -73 3.85257 -3.18712
    endloop
  endfacet
  facet normal -0 0.0941082 0.995562
    outer loop
      vertex -75 -0.313952 -4.99013
      vertex -73 -0.626666 -4.96057
      vertex -73 -0.313952 -4.99013
    endloop
  endfacet
  facet normal 0 0.0941082 0.995562
    outer loop
      vertex -73 -0.626666 -4.96057
      vertex -75 -0.313952 -4.99013
      vertex -75 -0.626666 -4.96057
    endloop
  endfacet
  facet normal 0 -0.960294 0.278991
    outer loop
      vertex -75 4.75528 -1.54508
      vertex -73 4.84292 -1.24345
      vertex -75 4.84292 -1.24345
    endloop
  endfacet
  facet normal 0 -0.960294 0.278991
    outer loop
      vertex -73 4.84292 -1.24345
      vertex -75 4.75528 -1.54508
      vertex -73 4.75528 -1.54508
    endloop
  endfacet
  facet normal -0 0.661311 0.750112
    outer loop
      vertex -75 -3.18712 -3.85257
      vertex -73 -3.42274 -3.64484
      vertex -73 -3.18712 -3.85257
    endloop
  endfacet
  facet normal 0 0.661311 0.750112
    outer loop
      vertex -73 -3.42274 -3.64484
      vertex -75 -3.18712 -3.85257
      vertex -75 -3.42274 -3.64484
    endloop
  endfacet
  facet normal -0 0.218143 0.975917
    outer loop
      vertex -75 -0.936906 -4.91144
      vertex -73 -1.24345 -4.84292
      vertex -73 -0.936906 -4.91144
    endloop
  endfacet
  facet normal 0 0.218143 0.975917
    outer loop
      vertex -73 -1.24345 -4.84292
      vertex -75 -0.936906 -4.91144
      vertex -75 -1.24345 -4.84292
    endloop
  endfacet
  facet normal 0 -0.995562 0.0941082
    outer loop
      vertex -75 4.96057 -0.626666
      vertex -73 4.99013 -0.313952
      vertex -75 4.99013 -0.313952
    endloop
  endfacet
  facet normal 0 -0.995562 0.0941082
    outer loop
      vertex -73 4.99013 -0.313952
      vertex -75 4.96057 -0.626666
      vertex -73 4.96057 -0.626666
    endloop
  endfacet
  facet normal 0 -0.987688 0.156434
    outer loop
      vertex -75 4.91144 -0.936906
      vertex -73 4.96057 -0.626666
      vertex -75 4.96057 -0.626666
    endloop
  endfacet
  facet normal 0 -0.987688 0.156434
    outer loop
      vertex -73 4.96057 -0.626666
      vertex -75 4.91144 -0.936906
      vertex -73 4.91144 -0.936906
    endloop
  endfacet
  facet normal 0 -0.509042 0.860742
    outer loop
      vertex -75 2.67913 -4.22164
      vertex -73 2.40877 -4.38153
      vertex -73 2.67913 -4.22164
    endloop
  endfacet
  facet normal 0 -0.509042 0.860742
    outer loop
      vertex -73 2.40877 -4.38153
      vertex -75 2.67913 -4.22164
      vertex -75 2.40877 -4.38153
    endloop
  endfacet
  facet normal 0 -0.707107 0.707107
    outer loop
      vertex -75 3.42274 -3.64484
      vertex -73 3.64484 -3.42274
      vertex -75 3.64484 -3.42274
    endloop
  endfacet
  facet normal 0 -0.707107 0.707107
    outer loop
      vertex -73 3.64484 -3.42274
      vertex -75 3.42274 -3.64484
      vertex -73 3.42274 -3.64484
    endloop
  endfacet
  facet normal -0 0.278991 0.960294
    outer loop
      vertex -75 -1.24345 -4.84292
      vertex -73 -1.54508 -4.75528
      vertex -73 -1.24345 -4.84292
    endloop
  endfacet
  facet normal 0 0.278991 0.960294
    outer loop
      vertex -73 -1.54508 -4.75528
      vertex -75 -1.24345 -4.84292
      vertex -75 -1.54508 -4.75528
    endloop
  endfacet
  facet normal 0 0.94088 0.33874
    outer loop
      vertex -73 -4.64888 -1.84062
      vertex -75 -4.75528 -1.54508
      vertex -73 -4.75528 -1.54508
    endloop
  endfacet
  facet normal 0 0.94088 0.33874
    outer loop
      vertex -75 -4.75528 -1.54508
      vertex -73 -4.64888 -1.84062
      vertex -75 -4.64888 -1.84062
    endloop
  endfacet
  facet normal 0 -0.33874 0.94088
    outer loop
      vertex -75 1.84062 -4.64888
      vertex -73 1.54508 -4.75528
      vertex -73 1.84062 -4.64888
    endloop
  endfacet
  facet normal 0 -0.33874 0.94088
    outer loop
      vertex -73 1.54508 -4.75528
      vertex -75 1.84062 -4.64888
      vertex -75 1.54508 -4.75528
    endloop
  endfacet
  facet normal 0 -0.0941082 0.995562
    outer loop
      vertex -75 0.626666 -4.96057
      vertex -73 0.313952 -4.99013
      vertex -73 0.626666 -4.96057
    endloop
  endfacet
  facet normal 0 -0.0941082 0.995562
    outer loop
      vertex -73 0.313952 -4.99013
      vertex -75 0.626666 -4.96057
      vertex -75 0.313952 -4.99013
    endloop
  endfacet
  facet normal 0 -0.278991 0.960294
    outer loop
      vertex -75 1.54508 -4.75528
      vertex -73 1.24345 -4.84292
      vertex -73 1.54508 -4.75528
    endloop
  endfacet
  facet normal 0 -0.278991 0.960294
    outer loop
      vertex -73 1.24345 -4.84292
      vertex -75 1.54508 -4.75528
      vertex -75 1.24345 -4.84292
    endloop
  endfacet
  facet normal 0 -0.612908 0.790154
    outer loop
      vertex -75 3.18712 -3.85257
      vertex -73 2.93893 -4.04508
      vertex -73 3.18712 -3.85257
    endloop
  endfacet
  facet normal 0 -0.612908 0.790154
    outer loop
      vertex -73 2.93893 -4.04508
      vertex -75 3.18712 -3.85257
      vertex -75 2.93893 -4.04508
    endloop
  endfacet
  facet normal 0 -0.218143 0.975917
    outer loop
      vertex -75 1.24345 -4.84292
      vertex -73 0.936906 -4.91144
      vertex -73 1.24345 -4.84292
    endloop
  endfacet
  facet normal 0 -0.218143 0.975917
    outer loop
      vertex -73 0.936906 -4.91144
      vertex -75 1.24345 -4.84292
      vertex -75 0.936906 -4.91144
    endloop
  endfacet
  facet normal 0 -0.453991 0.891006
    outer loop
      vertex -75 2.40877 -4.38153
      vertex -73 2.1289 -4.52413
      vertex -73 2.40877 -4.38153
    endloop
  endfacet
  facet normal 0 -0.453991 0.891006
    outer loop
      vertex -73 2.1289 -4.52413
      vertex -75 2.40877 -4.38153
      vertex -75 2.1289 -4.52413
    endloop
  endfacet
  facet normal 0 -0.94088 0.33874
    outer loop
      vertex -75 4.64888 -1.84062
      vertex -73 4.75528 -1.54508
      vertex -75 4.75528 -1.54508
    endloop
  endfacet
  facet normal 0 -0.94088 0.33874
    outer loop
      vertex -73 4.75528 -1.54508
      vertex -75 4.64888 -1.84062
      vertex -73 4.64888 -1.84062
    endloop
  endfacet
  facet normal 0 -0.999507 0.0314119
    outer loop
      vertex -75 4.99013 -0.313952
      vertex -73 5 0
      vertex -75 5 0
    endloop
  endfacet
  facet normal 0 -0.999507 0.0314119
    outer loop
      vertex -73 5 0
      vertex -75 4.99013 -0.313952
      vertex -73 4.99013 -0.313952
    endloop
  endfacet
  facet normal 0 -0.750112 0.661311
    outer loop
      vertex -75 3.64484 -3.42274
      vertex -73 3.85257 -3.18712
      vertex -75 3.85257 -3.18712
    endloop
  endfacet
  facet normal 0 -0.750112 0.661311
    outer loop
      vertex -73 3.85257 -3.18712
      vertex -75 3.64484 -3.42274
      vertex -73 3.64484 -3.42274
    endloop
  endfacet
  facet normal -0 0.156434 0.987688
    outer loop
      vertex -75 -0.626666 -4.96057
      vertex -73 -0.936906 -4.91144
      vertex -73 -0.626666 -4.96057
    endloop
  endfacet
  facet normal 0 0.156434 0.987688
    outer loop
      vertex -73 -0.936906 -4.91144
      vertex -75 -0.626666 -4.96057
      vertex -75 -0.936906 -4.91144
    endloop
  endfacet
  facet normal -0 0.0314119 0.999507
    outer loop
      vertex -75 0 -5
      vertex -73 -0.313952 -4.99013
      vertex -73 0 -5
    endloop
  endfacet
  facet normal 0 0.0314119 0.999507
    outer loop
      vertex -73 -0.313952 -4.99013
      vertex -75 0 -5
      vertex -75 -0.313952 -4.99013
    endloop
  endfacet
  facet normal 0 0.891006 0.453991
    outer loop
      vertex -73 -4.38153 -2.40877
      vertex -75 -4.52413 -2.1289
      vertex -73 -4.52413 -2.1289
    endloop
  endfacet
  facet normal 0 0.891006 0.453991
    outer loop
      vertex -75 -4.52413 -2.1289
      vertex -73 -4.38153 -2.40877
      vertex -75 -4.38153 -2.40877
    endloop
  endfacet
  facet normal 0 0.860742 0.509042
    outer loop
      vertex -73 -4.22164 -2.67913
      vertex -75 -4.38153 -2.40877
      vertex -73 -4.38153 -2.40877
    endloop
  endfacet
  facet normal 0 0.860742 0.509042
    outer loop
      vertex -75 -4.38153 -2.40877
      vertex -73 -4.22164 -2.67913
      vertex -75 -4.22164 -2.67913
    endloop
  endfacet
  facet normal 0 0.995562 0.0941082
    outer loop
      vertex -73 -4.96057 -0.626666
      vertex -75 -4.99013 -0.313952
      vertex -73 -4.99013 -0.313952
    endloop
  endfacet
  facet normal 0 0.995562 0.0941082
    outer loop
      vertex -75 -4.99013 -0.313952
      vertex -73 -4.96057 -0.626666
      vertex -75 -4.96057 -0.626666
    endloop
  endfacet
  facet normal -0 0.453991 0.891006
    outer loop
      vertex -75 -2.1289 -4.52413
      vertex -73 -2.40877 -4.38153
      vertex -73 -2.1289 -4.52413
    endloop
  endfacet
  facet normal 0 0.453991 0.891006
    outer loop
      vertex -73 -2.40877 -4.38153
      vertex -75 -2.1289 -4.52413
      vertex -75 -2.40877 -4.38153
    endloop
  endfacet
  facet normal 0 0.790154 0.612908
    outer loop
      vertex -73 -3.85257 -3.18712
      vertex -75 -4.04508 -2.93893
      vertex -73 -4.04508 -2.93893
    endloop
  endfacet
  facet normal 0 0.790154 0.612908
    outer loop
      vertex -75 -4.04508 -2.93893
      vertex -73 -3.85257 -3.18712
      vertex -75 -3.85257 -3.18712
    endloop
  endfacet
  facet normal 0 0.975917 0.218143
    outer loop
      vertex -73 -4.84292 -1.24345
      vertex -75 -4.91144 -0.936906
      vertex -73 -4.91144 -0.936906
    endloop
  endfacet
  facet normal 0 0.975917 0.218143
    outer loop
      vertex -75 -4.91144 -0.936906
      vertex -73 -4.84292 -1.24345
      vertex -75 -4.84292 -1.24345
    endloop
  endfacet
  facet normal 0 0.987688 0.156434
    outer loop
      vertex -73 -4.91144 -0.936906
      vertex -75 -4.96057 -0.626666
      vertex -73 -4.96057 -0.626666
    endloop
  endfacet
  facet normal 0 0.987688 0.156434
    outer loop
      vertex -75 -4.96057 -0.626666
      vertex -73 -4.91144 -0.936906
      vertex -75 -4.91144 -0.936906
    endloop
  endfacet
  facet normal 0 0.917755 0.397148
    outer loop
      vertex -73 -4.52413 -2.1289
      vertex -75 -4.64888 -1.84062
      vertex -73 -4.64888 -1.84062
    endloop
  endfacet
  facet normal 0 0.917755 0.397148
    outer loop
      vertex -75 -4.64888 -1.84062
      vertex -73 -4.52413 -2.1289
      vertex -75 -4.52413 -2.1289
    endloop
  endfacet
  facet normal 0 0.960294 0.278991
    outer loop
      vertex -73 -4.75528 -1.54508
      vertex -75 -4.84292 -1.24345
      vertex -73 -4.84292 -1.24345
    endloop
  endfacet
  facet normal 0 0.960294 0.278991
    outer loop
      vertex -75 -4.84292 -1.24345
      vertex -73 -4.75528 -1.54508
      vertex -75 -4.75528 -1.54508
    endloop
  endfacet
  facet normal 0 -0.397148 0.917755
    outer loop
      vertex -75 2.1289 -4.52413
      vertex -73 1.84062 -4.64888
      vertex -73 2.1289 -4.52413
    endloop
  endfacet
  facet normal 0 -0.397148 0.917755
    outer loop
      vertex -73 1.84062 -4.64888
      vertex -75 2.1289 -4.52413
      vertex -75 1.84062 -4.64888
    endloop
  endfacet
  facet normal 0 -0.156434 0.987688
    outer loop
      vertex -75 0.936906 -4.91144
      vertex -73 0.626666 -4.96057
      vertex -73 0.936906 -4.91144
    endloop
  endfacet
  facet normal 0 -0.156434 0.987688
    outer loop
      vertex -73 0.626666 -4.96057
      vertex -75 0.936906 -4.91144
      vertex -75 0.626666 -4.96057
    endloop
  endfacet
  facet normal 0 -0.891006 0.453991
    outer loop
      vertex -75 4.38153 -2.40877
      vertex -73 4.52413 -2.1289
      vertex -75 4.52413 -2.1289
    endloop
  endfacet
  facet normal 0 -0.891006 0.453991
    outer loop
      vertex -73 4.52413 -2.1289
      vertex -75 4.38153 -2.40877
      vertex -73 4.38153 -2.40877
    endloop
  endfacet
  facet normal 0 -0.975917 0.218143
    outer loop
      vertex -75 4.84292 -1.24345
      vertex -73 4.91144 -0.936906
      vertex -75 4.91144 -0.936906
    endloop
  endfacet
  facet normal 0 -0.975917 0.218143
    outer loop
      vertex -73 4.91144 -0.936906
      vertex -75 4.84292 -1.24345
      vertex -73 4.84292 -1.24345
    endloop
  endfacet
  facet normal 0 -0.917755 0.397148
    outer loop
      vertex -75 4.52413 -2.1289
      vertex -73 4.64888 -1.84062
      vertex -75 4.64888 -1.84062
    endloop
  endfacet
  facet normal 0 -0.917755 0.397148
    outer loop
      vertex -73 4.64888 -1.84062
      vertex -75 4.52413 -2.1289
      vertex -73 4.52413 -2.1289
    endloop
  endfacet
  facet normal -0 0.612908 0.790154
    outer loop
      vertex -75 -2.93893 -4.04508
      vertex -73 -3.18712 -3.85257
      vertex -73 -2.93893 -4.04508
    endloop
  endfacet
  facet normal 0 0.612908 0.790154
    outer loop
      vertex -73 -3.18712 -3.85257
      vertex -75 -2.93893 -4.04508
      vertex -75 -3.18712 -3.85257
    endloop
  endfacet
  facet normal -0 0.562081 0.827082
    outer loop
      vertex -75 -2.67913 -4.22164
      vertex -73 -2.93893 -4.04508
      vertex -73 -2.67913 -4.22164
    endloop
  endfacet
  facet normal 0 0.562081 0.827082
    outer loop
      vertex -73 -2.93893 -4.04508
      vertex -75 -2.67913 -4.22164
      vertex -75 -2.93893 -4.04508
    endloop
  endfacet
  facet normal -0 0.509042 0.860742
    outer loop
      vertex -75 -2.40877 -4.38153
      vertex -73 -2.67913 -4.22164
      vertex -73 -2.40877 -4.38153
    endloop
  endfacet
  facet normal 0 0.509042 0.860742
    outer loop
      vertex -73 -2.67913 -4.22164
      vertex -75 -2.40877 -4.38153
      vertex -75 -2.67913 -4.22164
    endloop
  endfacet
  facet normal 0 0.999507 0.0314119
    outer loop
      vertex -73 -4.99013 -0.313952
      vertex -75 -5 0
      vertex -73 -5 0
    endloop
  endfacet
  facet normal 0 0.999507 0.0314119
    outer loop
      vertex -75 -5 0
      vertex -73 -4.99013 -0.313952
      vertex -75 -4.99013 -0.313952
    endloop
  endfacet
  facet normal -0 0.397148 0.917755
    outer loop
      vertex -75 -1.84062 -4.64888
      vertex -73 -2.1289 -4.52413
      vertex -73 -1.84062 -4.64888
    endloop
  endfacet
  facet normal 0 0.397148 0.917755
    outer loop
      vertex -73 -2.1289 -4.52413
      vertex -75 -1.84062 -4.64888
      vertex -75 -2.1289 -4.52413
    endloop
  endfacet
  facet normal 0 -0.562081 0.827082
    outer loop
      vertex -75 2.93893 -4.04508
      vertex -73 2.67913 -4.22164
      vertex -73 2.93893 -4.04508
    endloop
  endfacet
  facet normal 0 -0.562081 0.827082
    outer loop
      vertex -73 2.67913 -4.22164
      vertex -75 2.93893 -4.04508
      vertex -75 2.67913 -4.22164
    endloop
  endfacet
  facet normal 0 -0.661311 0.750112
    outer loop
      vertex -75 3.42274 -3.64484
      vertex -73 3.18712 -3.85257
      vertex -73 3.42274 -3.64484
    endloop
  endfacet
  facet normal 0 -0.661311 0.750112
    outer loop
      vertex -73 3.18712 -3.85257
      vertex -75 3.42274 -3.64484
      vertex -75 3.18712 -3.85257
    endloop
  endfacet
  facet normal 0 -0.860742 0.509042
    outer loop
      vertex -75 4.22164 -2.67913
      vertex -73 4.38153 -2.40877
      vertex -75 4.38153 -2.40877
    endloop
  endfacet
  facet normal 0 -0.860742 0.509042
    outer loop
      vertex -73 4.38153 -2.40877
      vertex -75 4.22164 -2.67913
      vertex -73 4.22164 -2.67913
    endloop
  endfacet
  facet normal 0 -0.827082 0.562081
    outer loop
      vertex -75 4.04508 -2.93893
      vertex -73 4.22164 -2.67913
      vertex -75 4.22164 -2.67913
    endloop
  endfacet
  facet normal 0 -0.827082 0.562081
    outer loop
      vertex -73 4.22164 -2.67913
      vertex -75 4.04508 -2.93893
      vertex -73 4.04508 -2.93893
    endloop
  endfacet
  facet normal 0 0.827082 0.562081
    outer loop
      vertex -73 -4.04508 -2.93893
      vertex -75 -4.22164 -2.67913
      vertex -73 -4.22164 -2.67913
    endloop
  endfacet
  facet normal 0 0.827082 0.562081
    outer loop
      vertex -75 -4.22164 -2.67913
      vertex -73 -4.04508 -2.93893
      vertex -75 -4.04508 -2.93893
    endloop
  endfacet
  facet normal -0 0.33874 0.94088
    outer loop
      vertex -75 -1.54508 -4.75528
      vertex -73 -1.84062 -4.64888
      vertex -73 -1.54508 -4.75528
    endloop
  endfacet
  facet normal 0 0.33874 0.94088
    outer loop
      vertex -73 -1.84062 -4.64888
      vertex -75 -1.54508 -4.75528
      vertex -75 -1.84062 -4.64888
    endloop
  endfacet
  facet normal 0 0.750112 0.661311
    outer loop
      vertex -73 -3.64484 -3.42274
      vertex -75 -3.85257 -3.18712
      vertex -73 -3.85257 -3.18712
    endloop
  endfacet
  facet normal 0 0.750112 0.661311
    outer loop
      vertex -75 -3.85257 -3.18712
      vertex -73 -3.64484 -3.42274
      vertex -75 -3.64484 -3.42274
    endloop
  endfacet
  facet normal 0 0.707107 0.707107
    outer loop
      vertex -73 -3.42274 -3.64484
      vertex -75 -3.64484 -3.42274
      vertex -73 -3.64484 -3.42274
    endloop
  endfacet
  facet normal 0 0.707107 0.707107
    outer loop
      vertex -75 -3.64484 -3.42274
      vertex -73 -3.42274 -3.64484
      vertex -75 -3.42274 -3.64484
    endloop
  endfacet
endsolid OpenSCAD_Model
