solid OpenSCAD_Model
  facet normal 0 0 -1
    outer loop
      vertex -36 0 -1
      vertex -35.2133 7.48482 -1
      vertex -35.2133 -7.48482 -1
    endloop
  endfacet
  facet normal 0 0 -1
    outer loop
      vertex -35.2133 -7.48482 -1
      vertex -35.2133 7.48482 -1
      vertex -32.8876 14.6425 -1
    endloop
  endfacet
  facet normal 0 0 -1
    outer loop
      vertex -35.2133 -7.48482 -1
      vertex -32.8876 14.6425 -1
      vertex -29.1246 21.1603 -1
    endloop
  endfacet
  facet normal 0 0 -1
    outer loop
      vertex -35.2133 -7.48482 -1
      vertex -29.1246 21.1603 -1
      vertex -24.0887 26.7532 -1
    endloop
  endfacet
  facet normal 0 0 -1
    outer loop
      vertex -35.2133 -7.48482 -1
      vertex -24.0887 26.7532 -1
      vertex -18 31.1769 -1
    endloop
  endfacet
  facet normal 0 0 -1
    outer loop
      vertex -35.2133 -7.48482 -1
      vertex -18 31.1769 -1
      vertex -11.1246 34.238 -1
    endloop
  endfacet
  facet normal 0 0 -1
    outer loop
      vertex -35.2133 -7.48482 -1
      vertex -11.1246 34.238 -1
      vertex -3.76302 35.8028 -1
    endloop
  endfacet
  facet normal 0 0 -1
    outer loop
      vertex -35.2133 -7.48482 -1
      vertex -3.76302 35.8028 -1
      vertex 3.76302 35.8028 -1
    endloop
  endfacet
  facet normal 0 0 -1
    outer loop
      vertex -35.2133 -7.48482 -1
      vertex 3.76302 35.8028 -1
      vertex 11.1246 34.238 -1
    endloop
  endfacet
  facet normal 0 0 -1
    outer loop
      vertex -35.2133 -7.48482 -1
      vertex 11.1246 34.238 -1
      vertex 18 31.1769 -1
    endloop
  endfacet
  facet normal 0 0 -1
    outer loop
      vertex -35.2133 -7.48482 -1
      vertex 18 31.1769 -1
      vertex 24.0887 26.7532 -1
    endloop
  endfacet
  facet normal 0 0 -1
    outer loop
      vertex -35.2133 -7.48482 -1
      vertex 24.0887 26.7532 -1
      vertex 29.1246 21.1603 -1
    endloop
  endfacet
  facet normal 0 0 -1
    outer loop
      vertex -35.2133 -7.48482 -1
      vertex 29.1246 21.1603 -1
      vertex 32.8876 14.6425 -1
    endloop
  endfacet
  facet normal 0 0 -1
    outer loop
      vertex -35.2133 -7.48482 -1
      vertex 32.8876 14.6425 -1
      vertex 35.2133 7.48482 -1
    endloop
  endfacet
  facet normal 0 0 -1
    outer loop
      vertex -35.2133 -7.48482 -1
      vertex 35.2133 7.48482 -1
      vertex 36 0 -1
    endloop
  endfacet
  facet normal 0 0 -1
    outer loop
      vertex -35.2133 -7.48482 -1
      vertex 36 0 -1
      vertex 35.2133 -7.48482 -1
    endloop
  endfacet
  facet normal 0 0 -1
    outer loop
      vertex -35.2133 -7.48482 -1
      vertex 35.2133 -7.48482 -1
      vertex 32.8876 -14.6425 -1
    endloop
  endfacet
  facet normal 0 0 -1
    outer loop
      vertex -35.2133 -7.48482 -1
      vertex 32.8876 -14.6425 -1
      vertex 29.1246 -21.1603 -1
    endloop
  endfacet
  facet normal 0 0 -1
    outer loop
      vertex -35.2133 -7.48482 -1
      vertex 29.1246 -21.1603 -1
      vertex 24.0887 -26.7532 -1
    endloop
  endfacet
  facet normal 0 0 -1
    outer loop
      vertex -35.2133 -7.48482 -1
      vertex 24.0887 -26.7532 -1
      vertex 18 -31.1769 -1
    endloop
  endfacet
  facet normal 0 0 -1
    outer loop
      vertex -35.2133 -7.48482 -1
      vertex 18 -31.1769 -1
      vertex 11.1246 -34.238 -1
    endloop
  endfacet
  facet normal 0 0 -1
    outer loop
      vertex -35.2133 -7.48482 -1
      vertex 11.1246 -34.238 -1
      vertex 3.76302 -35.8028 -1
    endloop
  endfacet
  facet normal 0 0 -1
    outer loop
      vertex -35.2133 -7.48482 -1
      vertex 3.76302 -35.8028 -1
      vertex -3.76302 -35.8028 -1
    endloop
  endfacet
  facet normal 0 0 -1
    outer loop
      vertex -35.2133 -7.48482 -1
      vertex -3.76302 -35.8028 -1
      vertex -11.1246 -34.238 -1
    endloop
  endfacet
  facet normal 0 0 -1
    outer loop
      vertex -35.2133 -7.48482 -1
      vertex -11.1246 -34.238 -1
      vertex -18 -31.1769 -1
    endloop
  endfacet
  facet normal 0 0 -1
    outer loop
      vertex -35.2133 -7.48482 -1
      vertex -18 -31.1769 -1
      vertex -24.0887 -26.7532 -1
    endloop
  endfacet
  facet normal 0 0 -1
    outer loop
      vertex -35.2133 -7.48482 -1
      vertex -24.0887 -26.7532 -1
      vertex -29.1246 -21.1603 -1
    endloop
  endfacet
  facet normal 0 0 -1
    outer loop
      vertex -35.2133 -7.48482 -1
      vertex -29.1246 -21.1603 -1
      vertex -32.8876 -14.6425 -1
    endloop
  endfacet
  facet normal -0.994522 0.104528 0
    outer loop
      vertex -36 0 -1
      vertex -36 0 1
      vertex -35.2133 7.48482 -1
    endloop
  endfacet
  facet normal -0.994522 0.104528 0
    outer loop
      vertex -35.2133 7.48482 -1
      vertex -36 0 1
      vertex -35.2133 7.48482 1
    endloop
  endfacet
  facet normal -0.994522 -0.104528 0
    outer loop
      vertex -36 0 -1
      vertex -35.2133 -7.48482 -1
      vertex -36 0 1
    endloop
  endfacet
  facet normal -0.994522 -0.104528 0
    outer loop
      vertex -36 0 1
      vertex -35.2133 -7.48482 -1
      vertex -35.2133 -7.48482 1
    endloop
  endfacet
  facet normal -0.951056 -0.309017 0
    outer loop
      vertex -35.2133 -7.48482 -1
      vertex -32.8876 -14.6425 -1
      vertex -35.2133 -7.48482 1
    endloop
  endfacet
  facet normal -0.951056 -0.309017 0
    outer loop
      vertex -35.2133 -7.48482 1
      vertex -32.8876 -14.6425 -1
      vertex -32.8876 -14.6425 1
    endloop
  endfacet
  facet normal -0.866025 -0.5 0
    outer loop
      vertex -32.8876 -14.6425 -1
      vertex -29.1246 -21.1603 -1
      vertex -32.8876 -14.6425 1
    endloop
  endfacet
  facet normal -0.866025 -0.5 0
    outer loop
      vertex -32.8876 -14.6425 1
      vertex -29.1246 -21.1603 -1
      vertex -29.1246 -21.1603 1
    endloop
  endfacet
  facet normal -0.743145 -0.669131 0
    outer loop
      vertex -29.1246 -21.1603 -1
      vertex -24.0887 -26.7532 -1
      vertex -29.1246 -21.1603 1
    endloop
  endfacet
  facet normal -0.743145 -0.669131 0
    outer loop
      vertex -29.1246 -21.1603 1
      vertex -24.0887 -26.7532 -1
      vertex -24.0887 -26.7532 1
    endloop
  endfacet
  facet normal -0.587785 -0.809017 0
    outer loop
      vertex -24.0887 -26.7532 1
      vertex -24.0887 -26.7532 -1
      vertex -18 -31.1769 -1
    endloop
  endfacet
  facet normal -0.587785 -0.809017 0
    outer loop
      vertex -18 -31.1769 1
      vertex -24.0887 -26.7532 1
      vertex -18 -31.1769 -1
    endloop
  endfacet
  facet normal -0.406737 -0.913545 0
    outer loop
      vertex -18 -31.1769 1
      vertex -18 -31.1769 -1
      vertex -11.1246 -34.238 -1
    endloop
  endfacet
  facet normal -0.406737 -0.913545 0
    outer loop
      vertex -11.1246 -34.238 1
      vertex -18 -31.1769 1
      vertex -11.1246 -34.238 -1
    endloop
  endfacet
  facet normal -0.207912 -0.978148 0
    outer loop
      vertex -11.1246 -34.238 1
      vertex -11.1246 -34.238 -1
      vertex -3.76302 -35.8028 -1
    endloop
  endfacet
  facet normal -0.207912 -0.978148 0
    outer loop
      vertex -3.76302 -35.8028 1
      vertex -11.1246 -34.238 1
      vertex -3.76302 -35.8028 -1
    endloop
  endfacet
  facet normal 0 -1 0
    outer loop
      vertex -3.76302 -35.8028 1
      vertex -3.76302 -35.8028 -1
      vertex 3.76302 -35.8028 -1
    endloop
  endfacet
  facet normal 0 -1 0
    outer loop
      vertex 3.76302 -35.8028 1
      vertex -3.76302 -35.8028 1
      vertex 3.76302 -35.8028 -1
    endloop
  endfacet
  facet normal 0.207912 -0.978148 0
    outer loop
      vertex 3.76302 -35.8028 1
      vertex 3.76302 -35.8028 -1
      vertex 11.1246 -34.238 -1
    endloop
  endfacet
  facet normal 0.207912 -0.978148 0
    outer loop
      vertex 11.1246 -34.238 1
      vertex 3.76302 -35.8028 1
      vertex 11.1246 -34.238 -1
    endloop
  endfacet
  facet normal 0.406737 -0.913545 0
    outer loop
      vertex 11.1246 -34.238 1
      vertex 11.1246 -34.238 -1
      vertex 18 -31.1769 -1
    endloop
  endfacet
  facet normal 0.406737 -0.913545 0
    outer loop
      vertex 18 -31.1769 1
      vertex 11.1246 -34.238 1
      vertex 18 -31.1769 -1
    endloop
  endfacet
  facet normal 0.587785 -0.809017 0
    outer loop
      vertex 18 -31.1769 1
      vertex 18 -31.1769 -1
      vertex 24.0887 -26.7532 -1
    endloop
  endfacet
  facet normal 0.587785 -0.809017 0
    outer loop
      vertex 24.0887 -26.7532 1
      vertex 18 -31.1769 1
      vertex 24.0887 -26.7532 -1
    endloop
  endfacet
  facet normal 0.743145 -0.669131 0
    outer loop
      vertex 24.0887 -26.7532 1
      vertex 24.0887 -26.7532 -1
      vertex 29.1246 -21.1603 -1
    endloop
  endfacet
  facet normal 0.743145 -0.669131 0
    outer loop
      vertex 29.1246 -21.1603 1
      vertex 24.0887 -26.7532 1
      vertex 29.1246 -21.1603 -1
    endloop
  endfacet
  facet normal 0.866025 -0.5 0
    outer loop
      vertex 29.1246 -21.1603 1
      vertex 29.1246 -21.1603 -1
      vertex 32.8876 -14.6425 -1
    endloop
  endfacet
  facet normal 0.866025 -0.5 0
    outer loop
      vertex 32.8876 -14.6425 1
      vertex 29.1246 -21.1603 1
      vertex 32.8876 -14.6425 -1
    endloop
  endfacet
  facet normal 0.951056 -0.309017 0
    outer loop
      vertex 32.8876 -14.6425 1
      vertex 32.8876 -14.6425 -1
      vertex 35.2133 -7.48482 -1
    endloop
  endfacet
  facet normal 0.951056 -0.309017 0
    outer loop
      vertex 35.2133 -7.48482 1
      vertex 32.8876 -14.6425 1
      vertex 35.2133 -7.48482 -1
    endloop
  endfacet
  facet normal 0.994522 -0.104528 0
    outer loop
      vertex 35.2133 -7.48482 1
      vertex 35.2133 -7.48482 -1
      vertex 36 0 -1
    endloop
  endfacet
  facet normal 0.994522 -0.104528 0
    outer loop
      vertex 36 0 1
      vertex 35.2133 -7.48482 1
      vertex 36 0 -1
    endloop
  endfacet
  facet normal 0.994522 0.104528 0
    outer loop
      vertex 36 0 -1
      vertex 35.2133 7.48482 -1
      vertex 35.2133 7.48482 1
    endloop
  endfacet
  facet normal 0.994522 0.104528 0
    outer loop
      vertex 36 0 1
      vertex 36 0 -1
      vertex 35.2133 7.48482 1
    endloop
  endfacet
  facet normal 0.951056 0.309017 0
    outer loop
      vertex 35.2133 7.48482 -1
      vertex 32.8876 14.6425 -1
      vertex 32.8876 14.6425 1
    endloop
  endfacet
  facet normal 0.951056 0.309017 0
    outer loop
      vertex 35.2133 7.48482 1
      vertex 35.2133 7.48482 -1
      vertex 32.8876 14.6425 1
    endloop
  endfacet
  facet normal 0.866025 0.5 0
    outer loop
      vertex 32.8876 14.6425 -1
      vertex 29.1246 21.1603 -1
      vertex 29.1246 21.1603 1
    endloop
  endfacet
  facet normal 0.866025 0.5 0
    outer loop
      vertex 32.8876 14.6425 1
      vertex 32.8876 14.6425 -1
      vertex 29.1246 21.1603 1
    endloop
  endfacet
  facet normal 0.743145 0.669131 0
    outer loop
      vertex 29.1246 21.1603 -1
      vertex 24.0887 26.7532 -1
      vertex 24.0887 26.7532 1
    endloop
  endfacet
  facet normal 0.743145 0.669131 0
    outer loop
      vertex 29.1246 21.1603 1
      vertex 29.1246 21.1603 -1
      vertex 24.0887 26.7532 1
    endloop
  endfacet
  facet normal 0.587785 0.809017 0
    outer loop
      vertex 18 31.1769 -1
      vertex 18 31.1769 1
      vertex 24.0887 26.7532 -1
    endloop
  endfacet
  facet normal 0.587785 0.809017 0
    outer loop
      vertex 24.0887 26.7532 -1
      vertex 18 31.1769 1
      vertex 24.0887 26.7532 1
    endloop
  endfacet
  facet normal 0.406737 0.913545 0
    outer loop
      vertex 11.1246 34.238 -1
      vertex 11.1246 34.238 1
      vertex 18 31.1769 -1
    endloop
  endfacet
  facet normal 0.406737 0.913545 0
    outer loop
      vertex 18 31.1769 -1
      vertex 11.1246 34.238 1
      vertex 18 31.1769 1
    endloop
  endfacet
  facet normal 0.207912 0.978148 0
    outer loop
      vertex 3.76302 35.8028 -1
      vertex 3.76302 35.8028 1
      vertex 11.1246 34.238 -1
    endloop
  endfacet
  facet normal 0.207912 0.978148 0
    outer loop
      vertex 11.1246 34.238 -1
      vertex 3.76302 35.8028 1
      vertex 11.1246 34.238 1
    endloop
  endfacet
  facet normal 0 1 0
    outer loop
      vertex -3.76302 35.8028 -1
      vertex -3.76302 35.8028 1
      vertex 3.76302 35.8028 -1
    endloop
  endfacet
  facet normal 0 1 0
    outer loop
      vertex 3.76302 35.8028 -1
      vertex -3.76302 35.8028 1
      vertex 3.76302 35.8028 1
    endloop
  endfacet
  facet normal -0.207912 0.978148 0
    outer loop
      vertex -11.1246 34.238 -1
      vertex -11.1246 34.238 1
      vertex -3.76302 35.8028 -1
    endloop
  endfacet
  facet normal -0.207912 0.978148 0
    outer loop
      vertex -3.76302 35.8028 -1
      vertex -11.1246 34.238 1
      vertex -3.76302 35.8028 1
    endloop
  endfacet
  facet normal -0.406737 0.913545 0
    outer loop
      vertex -18 31.1769 -1
      vertex -18 31.1769 1
      vertex -11.1246 34.238 -1
    endloop
  endfacet
  facet normal -0.406737 0.913545 0
    outer loop
      vertex -11.1246 34.238 -1
      vertex -18 31.1769 1
      vertex -11.1246 34.238 1
    endloop
  endfacet
  facet normal -0.587785 0.809017 0
    outer loop
      vertex -24.0887 26.7532 -1
      vertex -24.0887 26.7532 1
      vertex -18 31.1769 -1
    endloop
  endfacet
  facet normal -0.587785 0.809017 0
    outer loop
      vertex -18 31.1769 -1
      vertex -24.0887 26.7532 1
      vertex -18 31.1769 1
    endloop
  endfacet
  facet normal -0.743145 0.669131 0
    outer loop
      vertex -29.1246 21.1603 -1
      vertex -29.1246 21.1603 1
      vertex -24.0887 26.7532 -1
    endloop
  endfacet
  facet normal -0.743145 0.669131 0
    outer loop
      vertex -24.0887 26.7532 -1
      vertex -29.1246 21.1603 1
      vertex -24.0887 26.7532 1
    endloop
  endfacet
  facet normal -0.866025 0.5 0
    outer loop
      vertex -32.8876 14.6425 -1
      vertex -32.8876 14.6425 1
      vertex -29.1246 21.1603 -1
    endloop
  endfacet
  facet normal -0.866025 0.5 0
    outer loop
      vertex -29.1246 21.1603 -1
      vertex -32.8876 14.6425 1
      vertex -29.1246 21.1603 1
    endloop
  endfacet
  facet normal -0.951056 0.309017 0
    outer loop
      vertex -35.2133 7.48482 -1
      vertex -35.2133 7.48482 1
      vertex -32.8876 14.6425 -1
    endloop
  endfacet
  facet normal -0.951056 0.309017 0
    outer loop
      vertex -32.8876 14.6425 -1
      vertex -35.2133 7.48482 1
      vertex -32.8876 14.6425 1
    endloop
  endfacet
  facet normal 0 0 1
    outer loop
      vertex -35.2133 7.48482 1
      vertex -36 0 1
      vertex -35.2133 -7.48482 1
    endloop
  endfacet
  facet normal 0 0 1
    outer loop
      vertex -29.1246 -21.1603 1
      vertex -35.2133 7.48482 1
      vertex -32.8876 -14.6425 1
    endloop
  endfacet
  facet normal 0 0 1
    outer loop
      vertex -32.8876 -14.6425 1
      vertex -35.2133 7.48482 1
      vertex -35.2133 -7.48482 1
    endloop
  endfacet
  facet normal 0 0 1
    outer loop
      vertex -24.0887 -26.7532 1
      vertex -35.2133 7.48482 1
      vertex -29.1246 -21.1603 1
    endloop
  endfacet
  facet normal 0 0 1
    outer loop
      vertex -18 -31.1769 1
      vertex -35.2133 7.48482 1
      vertex -24.0887 -26.7532 1
    endloop
  endfacet
  facet normal 0 0 1
    outer loop
      vertex -20.9365 -22.3468 1
      vertex -35.2133 7.48482 1
      vertex -18 -31.1769 1
    endloop
  endfacet
  facet normal 0 0 1
    outer loop
      vertex 15.4162 -24.8216 1
      vertex 11.1246 -34.238 1
      vertex 18 -31.1769 1
    endloop
  endfacet
  facet normal 0 0 1
    outer loop
      vertex -16.406 8.08355 1
      vertex -16.2625 12.7091 1
      vertex -35.2133 7.48482 1
    endloop
  endfacet
  facet normal 0 0 1
    outer loop
      vertex 20.1823 2.3161 1
      vertex 35.2133 -7.48482 1
      vertex 36 0 1
    endloop
  endfacet
  facet normal 0 0 1
    outer loop
      vertex -0.1106 -24.89 1
      vertex -14.639 -24.8159 1
      vertex -3.76302 -35.8028 1
    endloop
  endfacet
  facet normal 0 0 1
    outer loop
      vertex -16.406 8.08355 1
      vertex -35.2133 7.48482 1
      vertex 35.2133 7.48482 1
    endloop
  endfacet
  facet normal 0 0 1
    outer loop
      vertex 6.4102 23.1315 1
      vertex 5.2683 23.8792 1
      vertex -11.0404 16.6421 1
    endloop
  endfacet
  facet normal 0 0 1
    outer loop
      vertex -8.50385 27.8758 1
      vertex -6.73305 28.8306 1
      vertex 3.76302 35.8028 1
    endloop
  endfacet
  facet normal 0 0 1
    outer loop
      vertex -11.1246 34.238 1
      vertex -35.2133 7.48482 1
      vertex -3.76302 35.8028 1
    endloop
  endfacet
  facet normal 0 0 1
    outer loop
      vertex -18 31.1769 1
      vertex -35.2133 7.48482 1
      vertex -11.1246 34.238 1
    endloop
  endfacet
  facet normal 0 0 1
    outer loop
      vertex -24.0887 26.7532 1
      vertex -35.2133 7.48482 1
      vertex -18 31.1769 1
    endloop
  endfacet
  facet normal 0 0 1
    outer loop
      vertex -29.1246 21.1603 1
      vertex -35.2133 7.48482 1
      vertex -24.0887 26.7532 1
    endloop
  endfacet
  facet normal 0 0 1
    outer loop
      vertex -32.8876 14.6425 1
      vertex -35.2133 7.48482 1
      vertex -29.1246 21.1603 1
    endloop
  endfacet
  facet normal 0 0 1
    outer loop
      vertex -20.3048 -23.2807 1
      vertex -20.9365 -22.3468 1
      vertex -18 -31.1769 1
    endloop
  endfacet
  facet normal 0 0 1
    outer loop
      vertex -14.639 -24.8159 1
      vertex -17.8186 -24.7123 1
      vertex -11.1246 -34.238 1
    endloop
  endfacet
  facet normal 0 0 1
    outer loop
      vertex 20.4369 -8.39135 1
      vertex 29.1246 -21.1603 1
      vertex 32.8876 -14.6425 1
    endloop
  endfacet
  facet normal 0 0 1
    outer loop
      vertex -19.7747 5.57745 1
      vertex -35.2133 7.48482 1
      vertex -20.7627 4.5904 1
    endloop
  endfacet
  facet normal 0 0 1
    outer loop
      vertex 20.4369 -8.39135 1
      vertex 20.4949 -21.8101 1
      vertex 29.1246 -21.1603 1
    endloop
  endfacet
  facet normal 0 0 1
    outer loop
      vertex 19.6865 5.0141 1
      vertex 19.9942 4.1401 1
      vertex 36 0 1
    endloop
  endfacet
  facet normal 0 0 1
    outer loop
      vertex -3.63415 24.7712 1
      vertex -5.1855 24.1148 1
      vertex -7.93765 22.1635 1
    endloop
  endfacet
  facet normal 0 0 1
    outer loop
      vertex 35.2133 7.48482 1
      vertex -35.2133 7.48482 1
      vertex -18.7867 6.56545 1
    endloop
  endfacet
  facet normal 0 0 1
    outer loop
      vertex 35.2133 7.48482 1
      vertex -18.7867 6.56545 1
      vertex -0.70815 6.61295 1
    endloop
  endfacet
  facet normal 0 0 1
    outer loop
      vertex 19.9942 4.1401 1
      vertex 20.1823 2.3161 1
      vertex 36 0 1
    endloop
  endfacet
  facet normal 0 0 1
    outer loop
      vertex 35.2133 7.48482 1
      vertex -0.70815 6.61295 1
      vertex 13.2302 6.5778 1
    endloop
  endfacet
  facet normal 0 0 1
    outer loop
      vertex 35.2133 7.48482 1
      vertex 18.2548 6.3669 1
      vertex 36 0 1
    endloop
  endfacet
  facet normal 0 0 1
    outer loop
      vertex 35.2133 7.48482 1
      vertex 13.2302 6.5778 1
      vertex 18.2548 6.3669 1
    endloop
  endfacet
  facet normal 0 0 1
    outer loop
      vertex 18.2548 6.3669 1
      vertex 19.0585 5.88905 1
      vertex 36 0 1
    endloop
  endfacet
  facet normal 0 0 1
    outer loop
      vertex 19.0585 5.88905 1
      vertex 19.6865 5.0141 1
      vertex 36 0 1
    endloop
  endfacet
  facet normal 0 0 1
    outer loop
      vertex 35.2133 -7.48482 1
      vertex 20.4369 -8.39135 1
      vertex 32.8876 -14.6425 1
    endloop
  endfacet
  facet normal 0 0 1
    outer loop
      vertex -19.7747 5.57745 1
      vertex -18.7867 6.56545 1
      vertex -35.2133 7.48482 1
    endloop
  endfacet
  facet normal 0 0 1
    outer loop
      vertex 29.1246 -21.1603 1
      vertex 20.4949 -21.8101 1
      vertex 24.0887 -26.7532 1
    endloop
  endfacet
  facet normal 0 0 1
    outer loop
      vertex 20.1823 2.3161 1
      vertex 20.4369 -8.39135 1
      vertex 35.2133 -7.48482 1
    endloop
  endfacet
  facet normal 0 0 1
    outer loop
      vertex 20.4949 -21.8101 1
      vertex 20.3144 -22.5976 1
      vertex 24.0887 -26.7532 1
    endloop
  endfacet
  facet normal 0 0 1
    outer loop
      vertex 20.3144 -22.5976 1
      vertex 19.9866 -23.2712 1
      vertex 24.0887 -26.7532 1
    endloop
  endfacet
  facet normal 0 0 1
    outer loop
      vertex 10.9569 12.4412 1
      vertex 10.7355 16.4996 1
      vertex -11.4308 12.1723 1
    endloop
  endfacet
  facet normal 0 0 1
    outer loop
      vertex 19.9866 -23.2712 1
      vertex 19.4879 -23.8697 1
      vertex 24.0887 -26.7532 1
    endloop
  endfacet
  facet normal 0 0 1
    outer loop
      vertex 24.0887 -26.7532 1
      vertex 18.7915 -24.433 1
      vertex 18 -31.1769 1
    endloop
  endfacet
  facet normal 0 0 1
    outer loop
      vertex 18.7915 -24.433 1
      vertex 17.9451 -24.6838 1
      vertex 18 -31.1769 1
    endloop
  endfacet
  facet normal 0 0 1
    outer loop
      vertex 17.9451 -24.6838 1
      vertex 15.4162 -24.8216 1
      vertex 18 -31.1769 1
    endloop
  endfacet
  facet normal 0 0 1
    outer loop
      vertex -16.2625 12.7091 1
      vertex -16.0345 16.757 1
      vertex -35.2133 7.48482 1
    endloop
  endfacet
  facet normal 0 0 1
    outer loop
      vertex 11.1246 -34.238 1
      vertex -0.1106 -24.89 1
      vertex 3.76302 -35.8028 1
    endloop
  endfacet
  facet normal 0 0 1
    outer loop
      vertex -3.76302 -35.8028 1
      vertex -14.639 -24.8159 1
      vertex -11.1246 -34.238 1
    endloop
  endfacet
  facet normal 0 0 1
    outer loop
      vertex 15.4162 -24.8216 1
      vertex -0.1106 -24.89 1
      vertex 11.1246 -34.238 1
    endloop
  endfacet
  facet normal 0 0 1
    outer loop
      vertex -11.1246 -34.238 1
      vertex -17.8186 -24.7123 1
      vertex -19.0118 -24.5508 1
    endloop
  endfacet
  facet normal 0 0 1
    outer loop
      vertex -11.1246 -34.238 1
      vertex -19.6645 -24.0397 1
      vertex -18 -31.1769 1
    endloop
  endfacet
  facet normal 0 0 1
    outer loop
      vertex -19.6645 -24.0397 1
      vertex -20.3048 -23.2807 1
      vertex -18 -31.1769 1
    endloop
  endfacet
  facet normal 0 0 1
    outer loop
      vertex 16.1819 8.08355 1
      vertex 11.0718 8.08355 1
      vertex 35.2133 7.48482 1
    endloop
  endfacet
  facet normal 0 0 1
    outer loop
      vertex -11.2845 14.782 1
      vertex -11.4308 12.1723 1
      vertex 10.4401 17.5788 1
    endloop
  endfacet
  facet normal 0 0 1
    outer loop
      vertex 3.9041 29.8262 1
      vertex 6.35795 28.841 1
      vertex 11.1246 34.238 1
    endloop
  endfacet
  facet normal 0 0 1
    outer loop
      vertex -9.06815 20.9038 1
      vertex 1.29445 25.2405 1
      vertex -0.35855 25.3517 1
    endloop
  endfacet
  facet normal 0 0 1
    outer loop
      vertex -14.8385 20.8601 1
      vertex -35.2133 7.48482 1
      vertex -15.551 19.056 1
    endloop
  endfacet
  facet normal 0 0 1
    outer loop
      vertex -13.9312 22.5397 1
      vertex -35.2133 7.48482 1
      vertex -14.8385 20.8601 1
    endloop
  endfacet
  facet normal 0 0 1
    outer loop
      vertex -2.93685 29.9943 1
      vertex -0.42695 30.1634 1
      vertex 3.76302 35.8028 1
    endloop
  endfacet
  facet normal 0 0 1
    outer loop
      vertex -6.73305 28.8306 1
      vertex -4.8093 29.62 1
      vertex 3.76302 35.8028 1
    endloop
  endfacet
  facet normal 0 0 1
    outer loop
      vertex -3.76302 35.8028 1
      vertex -35.2133 7.48482 1
      vertex -12.8368 24.0872 1
    endloop
  endfacet
  facet normal 0 0 1
    outer loop
      vertex -4.8093 29.62 1
      vertex -2.93685 29.9943 1
      vertex 3.76302 35.8028 1
    endloop
  endfacet
  facet normal 0 0 1
    outer loop
      vertex -3.76302 35.8028 1
      vertex -12.8368 24.0872 1
      vertex -11.5629 25.498 1
    endloop
  endfacet
  facet normal 0 0 1
    outer loop
      vertex -3.76302 35.8028 1
      vertex -11.5629 25.498 1
      vertex -10.116 26.7624 1
    endloop
  endfacet
  facet normal 0 0 1
    outer loop
      vertex -3.76302 35.8028 1
      vertex -8.50385 27.8758 1
      vertex 3.76302 35.8028 1
    endloop
  endfacet
  facet normal 0 0 1
    outer loop
      vertex -3.76302 35.8028 1
      vertex -10.116 26.7624 1
      vertex -8.50385 27.8758 1
    endloop
  endfacet
  facet normal 0 0 1
    outer loop
      vertex 2.06965 30.1121 1
      vertex 3.9041 29.8262 1
      vertex 11.1246 34.238 1
    endloop
  endfacet
  facet normal 0 0 1
    outer loop
      vertex 3.76302 35.8028 1
      vertex -0.42695 30.1634 1
      vertex 11.1246 34.238 1
    endloop
  endfacet
  facet normal 0 0 1
    outer loop
      vertex -0.42695 30.1634 1
      vertex 2.06965 30.1121 1
      vertex 11.1246 34.238 1
    endloop
  endfacet
  facet normal 0 0 1
    outer loop
      vertex -7.93765 22.1635 1
      vertex -9.06815 20.9038 1
      vertex -2.01345 25.1892 1
    endloop
  endfacet
  facet normal 0 0 1
    outer loop
      vertex 11.1246 34.238 1
      vertex 6.35795 28.841 1
      vertex 18 31.1769 1
    endloop
  endfacet
  facet normal 0 0 1
    outer loop
      vertex 6.35795 28.841 1
      vertex 8.6636 27.5262 1
      vertex 18 31.1769 1
    endloop
  endfacet
  facet normal 0 0 1
    outer loop
      vertex 18 31.1769 1
      vertex 10.6937 25.9654 1
      vertex 24.0887 26.7532 1
    endloop
  endfacet
  facet normal 0 0 1
    outer loop
      vertex -16.0345 16.757 1
      vertex -15.551 19.056 1
      vertex -35.2133 7.48482 1
    endloop
  endfacet
  facet normal 0 0 1
    outer loop
      vertex 10.6937 25.9654 1
      vertex 12.3258 24.2411 1
      vertex 24.0887 26.7532 1
    endloop
  endfacet
  facet normal 0 0 1
    outer loop
      vertex 24.0887 26.7532 1
      vertex 14.0349 21.7369 1
      vertex 29.1246 21.1603 1
    endloop
  endfacet
  facet normal 0 0 1
    outer loop
      vertex 14.0349 21.7369 1
      vertex 14.6533 20.5029 1
      vertex 29.1246 21.1603 1
    endloop
  endfacet
  facet normal 0 0 1
    outer loop
      vertex 14.6533 20.5029 1
      vertex 15.1359 19.2128 1
      vertex 29.1246 21.1603 1
    endloop
  endfacet
  facet normal 0 0 1
    outer loop
      vertex 29.1246 21.1603 1
      vertex 15.7591 16.2526 1
      vertex 32.8876 14.6425 1
    endloop
  endfacet
  facet normal 0 0 1
    outer loop
      vertex 11.0718 8.08355 1
      vertex 10.9569 12.4412 1
      vertex -11.4308 12.1723 1
    endloop
  endfacet
  facet normal 0 0 1
    outer loop
      vertex 15.1359 19.2128 1
      vertex 15.7591 16.2526 1
      vertex 29.1246 21.1603 1
    endloop
  endfacet
  facet normal 0 0 1
    outer loop
      vertex 32.8876 14.6425 1
      vertex 16.1819 8.08355 1
      vertex 35.2133 7.48482 1
    endloop
  endfacet
  facet normal 0 0 1
    outer loop
      vertex 11.0718 8.08355 1
      vertex -11.5895 8.08355 1
      vertex 35.2133 7.48482 1
    endloop
  endfacet
  facet normal 0 0 1
    outer loop
      vertex -11.5895 8.08355 1
      vertex -16.406 8.08355 1
      vertex 35.2133 7.48482 1
    endloop
  endfacet
  facet normal 0 0 1
    outer loop
      vertex -11.2845 14.782 1
      vertex 10.4401 17.5788 1
      vertex 9.89005 18.8081 1
    endloop
  endfacet
  facet normal 0 0 1
    outer loop
      vertex -10.63 18.0946 1
      vertex -11.0404 16.6421 1
      vertex 5.2683 23.8792 1
    endloop
  endfacet
  facet normal 0 0 1
    outer loop
      vertex 16.0365 12.4412 1
      vertex 16.1819 8.08355 1
      vertex 32.8876 14.6425 1
    endloop
  endfacet
  facet normal 0 0 1
    outer loop
      vertex 8.3805 21.2277 1
      vertex 7.4495 22.2461 1
      vertex -11.0404 16.6421 1
    endloop
  endfacet
  facet normal 0 0 1
    outer loop
      vertex 7.4495 22.2461 1
      vertex 6.4102 23.1315 1
      vertex -11.0404 16.6421 1
    endloop
  endfacet
  facet normal 0 0 1
    outer loop
      vertex 10.7355 16.4996 1
      vertex 10.4401 17.5788 1
      vertex -11.4308 12.1723 1
    endloop
  endfacet
  facet normal 0 0 1
    outer loop
      vertex 8.3805 21.2277 1
      vertex -11.0404 16.6421 1
      vertex -11.2845 14.782 1
    endloop
  endfacet
  facet normal 0 0 1
    outer loop
      vertex -11.2845 14.782 1
      vertex 9.89005 18.8081 1
      vertex 9.19655 20.0801 1
    endloop
  endfacet
  facet normal 0 0 1
    outer loop
      vertex -9.06815 20.9038 1
      vertex -9.9868 19.4788 1
      vertex 1.29445 25.2405 1
    endloop
  endfacet
  facet normal 0 0 1
    outer loop
      vertex -9.9868 19.4788 1
      vertex -10.63 18.0946 1
      vertex 4.03045 24.4824 1
    endloop
  endfacet
  facet normal 0 0 1
    outer loop
      vertex -9.9868 19.4788 1
      vertex 4.03045 24.4824 1
      vertex 2.70425 24.9384 1
    endloop
  endfacet
  facet normal 0 0 1
    outer loop
      vertex 8.6636 27.5262 1
      vertex 10.6937 25.9654 1
      vertex 18 31.1769 1
    endloop
  endfacet
  facet normal 0 0 1
    outer loop
      vertex -13.9312 22.5397 1
      vertex -12.8368 24.0872 1
      vertex -35.2133 7.48482 1
    endloop
  endfacet
  facet normal 0 0 1
    outer loop
      vertex -7.93765 22.1635 1
      vertex -2.01345 25.1892 1
      vertex -3.63415 24.7712 1
    endloop
  endfacet
  facet normal 0 0 1
    outer loop
      vertex -6.6314 23.2398 1
      vertex -7.93765 22.1635 1
      vertex -5.1855 24.1148 1
    endloop
  endfacet
  facet normal 0 0 1
    outer loop
      vertex -2.01345 25.1892 1
      vertex -9.06815 20.9038 1
      vertex -0.35855 25.3517 1
    endloop
  endfacet
  facet normal 0 0 1
    outer loop
      vertex 1.29445 25.2405 1
      vertex -9.9868 19.4788 1
      vertex 2.70425 24.9384 1
    endloop
  endfacet
  facet normal 0 0 1
    outer loop
      vertex 4.03045 24.4824 1
      vertex -10.63 18.0946 1
      vertex 5.2683 23.8792 1
    endloop
  endfacet
  facet normal 0 0 1
    outer loop
      vertex -11.2845 14.782 1
      vertex 9.19655 20.0801 1
      vertex 8.3805 21.2277 1
    endloop
  endfacet
  facet normal 0 0 1
    outer loop
      vertex 12.3258 24.2411 1
      vertex 14.0349 21.7369 1
      vertex 24.0887 26.7532 1
    endloop
  endfacet
  facet normal 0 0 1
    outer loop
      vertex 15.7591 16.2526 1
      vertex 16.0365 12.4412 1
      vertex 32.8876 14.6425 1
    endloop
  endfacet
  facet normal 0 0 1
    outer loop
      vertex 11.0718 8.08355 1
      vertex -11.4308 12.1723 1
      vertex -11.5895 8.08355 1
    endloop
  endfacet
  facet normal 0 0 1
    outer loop
      vertex -19.0118 -24.5508 1
      vertex -19.6645 -24.0397 1
      vertex -11.1246 -34.238 1
    endloop
  endfacet
  facet normal 0 0 1
    outer loop
      vertex -20.9365 -22.3468 1
      vertex -20.8491 -8.8787 1
      vertex -35.2133 7.48482 1
    endloop
  endfacet
  facet normal 0 0 1
    outer loop
      vertex 19.4879 -23.8697 1
      vertex 18.7915 -24.433 1
      vertex 24.0887 -26.7532 1
    endloop
  endfacet
  facet normal 0 0 1
    outer loop
      vertex -0.1106 -24.89 1
      vertex -3.76302 -35.8028 1
      vertex 3.76302 -35.8028 1
    endloop
  endfacet
  facet normal 0 0 1
    outer loop
      vertex -20.8491 -8.8787 1
      vertex -20.7627 4.5904 1
      vertex -35.2133 7.48482 1
    endloop
  endfacet
  facet normal -0.828272 -0.560326 0
    outer loop
      vertex -20.9365 -22.3468 1
      vertex -20.3048 -23.2807 1
      vertex -20.9365 -22.3468 3
    endloop
  endfacet
  facet normal -0.828272 -0.560326 0
    outer loop
      vertex -20.9365 -22.3468 3
      vertex -20.3048 -23.2807 1
      vertex -20.3048 -23.2807 3
    endloop
  endfacet
  facet normal -0.999979 0.00648925 0
    outer loop
      vertex -20.9365 -22.3468 1
      vertex -20.9365 -22.3468 3
      vertex -20.8491 -8.8787 1
    endloop
  endfacet
  facet normal -0.999979 0.00648925 0
    outer loop
      vertex -20.8491 -8.8787 1
      vertex -20.9365 -22.3468 3
      vertex -20.8491 -8.8787 3
    endloop
  endfacet
  facet normal -0.764365 -0.644784 0
    outer loop
      vertex -20.3048 -23.2807 1
      vertex -19.6645 -24.0397 1
      vertex -20.3048 -23.2807 3
    endloop
  endfacet
  facet normal -0.764365 -0.644784 0
    outer loop
      vertex -20.3048 -23.2807 3
      vertex -19.6645 -24.0397 1
      vertex -19.6645 -24.0397 3
    endloop
  endfacet
  facet normal -0.616555 -0.787311 0
    outer loop
      vertex -19.6645 -24.0397 3
      vertex -19.6645 -24.0397 1
      vertex -19.0118 -24.5508 1
    endloop
  endfacet
  facet normal -0.616555 -0.787311 0
    outer loop
      vertex -19.0118 -24.5508 3
      vertex -19.6645 -24.0397 3
      vertex -19.0118 -24.5508 1
    endloop
  endfacet
  facet normal -0.134127 -0.990964 0
    outer loop
      vertex -19.0118 -24.5508 3
      vertex -19.0118 -24.5508 1
      vertex -17.8186 -24.7123 1
    endloop
  endfacet
  facet normal -0.134127 -0.990964 0
    outer loop
      vertex -17.8186 -24.7123 3
      vertex -19.0118 -24.5508 3
      vertex -17.8186 -24.7123 1
    endloop
  endfacet
  facet normal -0.0325492 -0.99947 0
    outer loop
      vertex -17.8186 -24.7123 3
      vertex -17.8186 -24.7123 1
      vertex -14.639 -24.8159 1
    endloop
  endfacet
  facet normal -0.0325492 -0.99947 0
    outer loop
      vertex -14.639 -24.8159 3
      vertex -17.8186 -24.7123 3
      vertex -14.639 -24.8159 1
    endloop
  endfacet
  facet normal -0.00510031 -0.999987 0
    outer loop
      vertex -14.639 -24.8159 3
      vertex -14.639 -24.8159 1
      vertex -0.1106 -24.89 1
    endloop
  endfacet
  facet normal -0.00510031 -0.999987 0
    outer loop
      vertex -0.1106 -24.89 3
      vertex -14.639 -24.8159 3
      vertex -0.1106 -24.89 1
    endloop
  endfacet
  facet normal 0.00440524 -0.99999 0
    outer loop
      vertex -0.1106 -24.89 3
      vertex -0.1106 -24.89 1
      vertex 15.4162 -24.8216 1
    endloop
  endfacet
  facet normal 0.00440524 -0.99999 0
    outer loop
      vertex 15.4162 -24.8216 3
      vertex -0.1106 -24.89 3
      vertex 15.4162 -24.8216 1
    endloop
  endfacet
  facet normal 0.0543897 -0.99852 0
    outer loop
      vertex 15.4162 -24.8216 3
      vertex 15.4162 -24.8216 1
      vertex 17.9451 -24.6838 1
    endloop
  endfacet
  facet normal 0.0543897 -0.99852 0
    outer loop
      vertex 17.9451 -24.6838 3
      vertex 15.4162 -24.8216 3
      vertex 17.9451 -24.6838 1
    endloop
  endfacet
  facet normal 0.284088 -0.958798 0
    outer loop
      vertex 17.9451 -24.6838 3
      vertex 17.9451 -24.6838 1
      vertex 18.7915 -24.433 1
    endloop
  endfacet
  facet normal 0.284088 -0.958798 0
    outer loop
      vertex 18.7915 -24.433 3
      vertex 17.9451 -24.6838 3
      vertex 18.7915 -24.433 1
    endloop
  endfacet
  facet normal 0.628954 -0.777442 0
    outer loop
      vertex 18.7915 -24.433 3
      vertex 18.7915 -24.433 1
      vertex 19.4879 -23.8697 1
    endloop
  endfacet
  facet normal 0.628954 -0.777442 0
    outer loop
      vertex 19.4879 -23.8697 3
      vertex 18.7915 -24.433 3
      vertex 19.4879 -23.8697 1
    endloop
  endfacet
  facet normal 0.768221 -0.640184 0
    outer loop
      vertex 19.4879 -23.8697 3
      vertex 19.4879 -23.8697 1
      vertex 19.9866 -23.2712 1
    endloop
  endfacet
  facet normal 0.768221 -0.640184 0
    outer loop
      vertex 19.9866 -23.2712 3
      vertex 19.4879 -23.8697 3
      vertex 19.9866 -23.2712 1
    endloop
  endfacet
  facet normal 0.899195 -0.437549 0
    outer loop
      vertex 19.9866 -23.2712 3
      vertex 19.9866 -23.2712 1
      vertex 20.3144 -22.5976 1
    endloop
  endfacet
  facet normal 0.899195 -0.437549 0
    outer loop
      vertex 20.3144 -22.5976 3
      vertex 19.9866 -23.2712 3
      vertex 20.3144 -22.5976 1
    endloop
  endfacet
  facet normal 0.974727 -0.223399 0
    outer loop
      vertex 20.3144 -22.5976 3
      vertex 20.3144 -22.5976 1
      vertex 20.4949 -21.8101 1
    endloop
  endfacet
  facet normal 0.974727 -0.223399 0
    outer loop
      vertex 20.4949 -21.8101 3
      vertex 20.3144 -22.5976 3
      vertex 20.4949 -21.8101 1
    endloop
  endfacet
  facet normal 0.999991 0.00431854 0
    outer loop
      vertex 20.4949 -21.8101 1
      vertex 20.4369 -8.39135 1
      vertex 20.4369 -8.39135 3
    endloop
  endfacet
  facet normal 0.999991 0.00431854 0
    outer loop
      vertex 20.4949 -21.8101 3
      vertex 20.4949 -21.8101 1
      vertex 20.4369 -8.39135 3
    endloop
  endfacet
  facet normal 0.999717 0.0237711 0
    outer loop
      vertex 20.4369 -8.39135 1
      vertex 20.1823 2.3161 1
      vertex 20.1823 2.3161 3
    endloop
  endfacet
  facet normal 0.999717 0.0237711 0
    outer loop
      vertex 20.4369 -8.39135 3
      vertex 20.4369 -8.39135 1
      vertex 20.1823 2.3161 3
    endloop
  endfacet
  facet normal 0.994725 0.102581 0
    outer loop
      vertex 20.1823 2.3161 1
      vertex 19.9942 4.1401 1
      vertex 19.9942 4.1401 3
    endloop
  endfacet
  facet normal 0.994725 0.102581 0
    outer loop
      vertex 20.1823 2.3161 3
      vertex 20.1823 2.3161 1
      vertex 19.9942 4.1401 3
    endloop
  endfacet
  facet normal 0.943217 0.332177 0
    outer loop
      vertex 19.9942 4.1401 1
      vertex 19.6865 5.0141 1
      vertex 19.6865 5.0141 3
    endloop
  endfacet
  facet normal 0.943217 0.332177 0
    outer loop
      vertex 19.9942 4.1401 3
      vertex 19.9942 4.1401 1
      vertex 19.6865 5.0141 3
    endloop
  endfacet
  facet normal 0.81242 0.583072 0
    outer loop
      vertex 19.6865 5.0141 1
      vertex 19.0585 5.88905 1
      vertex 19.0585 5.88905 3
    endloop
  endfacet
  facet normal 0.81242 0.583072 0
    outer loop
      vertex 19.6865 5.0141 3
      vertex 19.6865 5.0141 1
      vertex 19.0585 5.88905 3
    endloop
  endfacet
  facet normal 0.511055 0.859548 0
    outer loop
      vertex 18.2548 6.3669 1
      vertex 18.2548 6.3669 3
      vertex 19.0585 5.88905 1
    endloop
  endfacet
  facet normal 0.511055 0.859548 0
    outer loop
      vertex 19.0585 5.88905 1
      vertex 18.2548 6.3669 3
      vertex 19.0585 5.88905 3
    endloop
  endfacet
  facet normal 0.041937 0.99912 0
    outer loop
      vertex 13.2302 6.5778 1
      vertex 13.2302 6.5778 3
      vertex 18.2548 6.3669 1
    endloop
  endfacet
  facet normal 0.041937 0.99912 0
    outer loop
      vertex 18.2548 6.3669 1
      vertex 13.2302 6.5778 3
      vertex 18.2548 6.3669 3
    endloop
  endfacet
  facet normal 0.0025218 0.999997 0
    outer loop
      vertex -0.70815 6.61295 1
      vertex -0.70815 6.61295 3
      vertex 13.2302 6.5778 1
    endloop
  endfacet
  facet normal 0.0025218 0.999997 0
    outer loop
      vertex 13.2302 6.5778 1
      vertex -0.70815 6.61295 3
      vertex 13.2302 6.5778 3
    endloop
  endfacet
  facet normal -0.00262742 0.999997 0
    outer loop
      vertex -18.7867 6.56545 1
      vertex -18.7867 6.56545 3
      vertex -0.70815 6.61295 1
    endloop
  endfacet
  facet normal -0.00262742 0.999997 0
    outer loop
      vertex -0.70815 6.61295 1
      vertex -18.7867 6.56545 3
      vertex -0.70815 6.61295 3
    endloop
  endfacet
  facet normal -0.707107 0.707107 0
    outer loop
      vertex -19.7747 5.57745 1
      vertex -19.7747 5.57745 3
      vertex -18.7867 6.56545 1
    endloop
  endfacet
  facet normal -0.707107 0.707107 0
    outer loop
      vertex -18.7867 6.56545 1
      vertex -19.7747 5.57745 3
      vertex -18.7867 6.56545 3
    endloop
  endfacet
  facet normal -0.706767 0.707447 0
    outer loop
      vertex -20.7627 4.5904 1
      vertex -20.7627 4.5904 3
      vertex -19.7747 5.57745 1
    endloop
  endfacet
  facet normal -0.706767 0.707447 0
    outer loop
      vertex -19.7747 5.57745 1
      vertex -20.7627 4.5904 3
      vertex -19.7747 5.57745 3
    endloop
  endfacet
  facet normal -0.999979 0.00641826 0
    outer loop
      vertex -20.8491 -8.8787 1
      vertex -20.8491 -8.8787 3
      vertex -20.7627 4.5904 1
    endloop
  endfacet
  facet normal -0.999979 0.00641826 0
    outer loop
      vertex -20.7627 4.5904 1
      vertex -20.8491 -8.8787 3
      vertex -20.7627 4.5904 3
    endloop
  endfacet
  facet normal 0 -1 0
    outer loop
      vertex -16.406 8.08355 3
      vertex -16.406 8.08355 1
      vertex -11.5895 8.08355 1
    endloop
  endfacet
  facet normal 0 -1 0
    outer loop
      vertex -11.5895 8.08355 3
      vertex -16.406 8.08355 3
      vertex -11.5895 8.08355 1
    endloop
  endfacet
  facet normal -0.999519 0.0309976 0
    outer loop
      vertex -16.406 8.08355 1
      vertex -16.406 8.08355 3
      vertex -16.2625 12.7091 1
    endloop
  endfacet
  facet normal -0.999519 0.0309976 0
    outer loop
      vertex -16.2625 12.7091 1
      vertex -16.406 8.08355 3
      vertex -16.2625 12.7091 3
    endloop
  endfacet
  facet normal 0.999248 -0.0387719 0
    outer loop
      vertex -11.5895 8.08355 3
      vertex -11.5895 8.08355 1
      vertex -11.4308 12.1723 1
    endloop
  endfacet
  facet normal 0.999248 -0.0387719 0
    outer loop
      vertex -11.4308 12.1723 3
      vertex -11.5895 8.08355 3
      vertex -11.4308 12.1723 1
    endloop
  endfacet
  facet normal 0.998432 -0.0559733 0
    outer loop
      vertex -11.4308 12.1723 3
      vertex -11.4308 12.1723 1
      vertex -11.2845 14.782 1
    endloop
  endfacet
  facet normal 0.998432 -0.0559733 0
    outer loop
      vertex -11.2845 14.782 3
      vertex -11.4308 12.1723 3
      vertex -11.2845 14.782 1
    endloop
  endfacet
  facet normal 0.991496 -0.13014 0
    outer loop
      vertex -11.2845 14.782 3
      vertex -11.2845 14.782 1
      vertex -11.0404 16.6421 1
    endloop
  endfacet
  facet normal 0.991496 -0.13014 0
    outer loop
      vertex -11.0404 16.6421 3
      vertex -11.2845 14.782 3
      vertex -11.0404 16.6421 1
    endloop
  endfacet
  facet normal 0.962327 -0.271894 0
    outer loop
      vertex -11.0404 16.6421 3
      vertex -11.0404 16.6421 1
      vertex -10.63 18.0946 1
    endloop
  endfacet
  facet normal 0.962327 -0.271894 0
    outer loop
      vertex -10.63 18.0946 3
      vertex -11.0404 16.6421 3
      vertex -10.63 18.0946 1
    endloop
  endfacet
  facet normal 0.906882 -0.421386 0
    outer loop
      vertex -10.63 18.0946 3
      vertex -10.63 18.0946 1
      vertex -9.9868 19.4788 1
    endloop
  endfacet
  facet normal 0.906882 -0.421386 0
    outer loop
      vertex -9.9868 19.4788 3
      vertex -10.63 18.0946 3
      vertex -9.9868 19.4788 1
    endloop
  endfacet
  facet normal 0.840486 -0.541833 0
    outer loop
      vertex -9.9868 19.4788 3
      vertex -9.9868 19.4788 1
      vertex -9.06815 20.9038 1
    endloop
  endfacet
  facet normal 0.840486 -0.541833 0
    outer loop
      vertex -9.06815 20.9038 3
      vertex -9.9868 19.4788 3
      vertex -9.06815 20.9038 1
    endloop
  endfacet
  facet normal 0.744242 -0.66791 0
    outer loop
      vertex -9.06815 20.9038 3
      vertex -9.06815 20.9038 1
      vertex -7.93765 22.1635 1
    endloop
  endfacet
  facet normal 0.744242 -0.66791 0
    outer loop
      vertex -7.93765 22.1635 3
      vertex -9.06815 20.9038 3
      vertex -7.93765 22.1635 1
    endloop
  endfacet
  facet normal 0.635924 -0.771752 0
    outer loop
      vertex -7.93765 22.1635 3
      vertex -7.93765 22.1635 1
      vertex -6.6314 23.2398 1
    endloop
  endfacet
  facet normal 0.635924 -0.771752 0
    outer loop
      vertex -6.6314 23.2398 3
      vertex -7.93765 22.1635 3
      vertex -6.6314 23.2398 1
    endloop
  endfacet
  facet normal 0.517716 -0.855552 0
    outer loop
      vertex -6.6314 23.2398 3
      vertex -6.6314 23.2398 1
      vertex -5.1855 24.1148 1
    endloop
  endfacet
  facet normal 0.517716 -0.855552 0
    outer loop
      vertex -5.1855 24.1148 3
      vertex -6.6314 23.2398 3
      vertex -5.1855 24.1148 1
    endloop
  endfacet
  facet normal 0.389695 -0.920944 0
    outer loop
      vertex -5.1855 24.1148 3
      vertex -5.1855 24.1148 1
      vertex -3.63415 24.7712 1
    endloop
  endfacet
  facet normal 0.389695 -0.920944 0
    outer loop
      vertex -3.63415 24.7712 3
      vertex -5.1855 24.1148 3
      vertex -3.63415 24.7712 1
    endloop
  endfacet
  facet normal 0.249741 -0.968313 0
    outer loop
      vertex -3.63415 24.7712 3
      vertex -3.63415 24.7712 1
      vertex -2.01345 25.1892 1
    endloop
  endfacet
  facet normal 0.249741 -0.968313 0
    outer loop
      vertex -2.01345 25.1892 3
      vertex -3.63415 24.7712 3
      vertex -2.01345 25.1892 1
    endloop
  endfacet
  facet normal 0.0976935 -0.995217 0
    outer loop
      vertex -2.01345 25.1892 3
      vertex -2.01345 25.1892 1
      vertex -0.35855 25.3517 1
    endloop
  endfacet
  facet normal 0.0976935 -0.995217 0
    outer loop
      vertex -0.35855 25.3517 3
      vertex -2.01345 25.1892 3
      vertex -0.35855 25.3517 1
    endloop
  endfacet
  facet normal -0.0670899 -0.997747 0
    outer loop
      vertex -0.35855 25.3517 3
      vertex -0.35855 25.3517 1
      vertex 1.29445 25.2405 1
    endloop
  endfacet
  facet normal -0.0670899 -0.997747 0
    outer loop
      vertex 1.29445 25.2405 3
      vertex -0.35855 25.3517 3
      vertex 1.29445 25.2405 1
    endloop
  endfacet
  facet normal -0.209529 -0.977802 0
    outer loop
      vertex 1.29445 25.2405 3
      vertex 1.29445 25.2405 1
      vertex 2.70425 24.9384 1
    endloop
  endfacet
  facet normal -0.209529 -0.977802 0
    outer loop
      vertex 2.70425 24.9384 3
      vertex 1.29445 25.2405 3
      vertex 2.70425 24.9384 1
    endloop
  endfacet
  facet normal -0.325155 -0.945661 0
    outer loop
      vertex 2.70425 24.9384 3
      vertex 2.70425 24.9384 1
      vertex 4.03045 24.4824 1
    endloop
  endfacet
  facet normal -0.325155 -0.945661 0
    outer loop
      vertex 4.03045 24.4824 3
      vertex 2.70425 24.9384 3
      vertex 4.03045 24.4824 1
    endloop
  endfacet
  facet normal -0.438084 -0.898934 0
    outer loop
      vertex 4.03045 24.4824 3
      vertex 4.03045 24.4824 1
      vertex 5.2683 23.8792 1
    endloop
  endfacet
  facet normal -0.438084 -0.898934 0
    outer loop
      vertex 5.2683 23.8792 3
      vertex 4.03045 24.4824 3
      vertex 5.2683 23.8792 1
    endloop
  endfacet
  facet normal -0.547774 -0.836626 0
    outer loop
      vertex 5.2683 23.8792 3
      vertex 5.2683 23.8792 1
      vertex 6.4102 23.1315 1
    endloop
  endfacet
  facet normal -0.547774 -0.836626 0
    outer loop
      vertex 6.4102 23.1315 3
      vertex 5.2683 23.8792 3
      vertex 6.4102 23.1315 1
    endloop
  endfacet
  facet normal -0.648496 -0.761218 0
    outer loop
      vertex 6.4102 23.1315 3
      vertex 6.4102 23.1315 1
      vertex 7.4495 22.2461 1
    endloop
  endfacet
  facet normal -0.648496 -0.761218 0
    outer loop
      vertex 7.4495 22.2461 3
      vertex 6.4102 23.1315 3
      vertex 7.4495 22.2461 1
    endloop
  endfacet
  facet normal -0.738068 -0.674726 0
    outer loop
      vertex 7.4495 22.2461 1
      vertex 8.3805 21.2277 1
      vertex 7.4495 22.2461 3
    endloop
  endfacet
  facet normal -0.738068 -0.674726 0
    outer loop
      vertex 7.4495 22.2461 3
      vertex 8.3805 21.2277 1
      vertex 8.3805 21.2277 3
    endloop
  endfacet
  facet normal -0.814962 -0.579514 0
    outer loop
      vertex 8.3805 21.2277 1
      vertex 9.19655 20.0801 1
      vertex 8.3805 21.2277 3
    endloop
  endfacet
  facet normal -0.814962 -0.579514 0
    outer loop
      vertex 8.3805 21.2277 3
      vertex 9.19655 20.0801 1
      vertex 9.19655 20.0801 3
    endloop
  endfacet
  facet normal -0.877996 -0.478668 0
    outer loop
      vertex 9.19655 20.0801 1
      vertex 9.89005 18.8081 1
      vertex 9.19655 20.0801 3
    endloop
  endfacet
  facet normal -0.877996 -0.478668 0
    outer loop
      vertex 9.19655 20.0801 3
      vertex 9.89005 18.8081 1
      vertex 9.89005 18.8081 3
    endloop
  endfacet
  facet normal -0.912791 -0.408428 0
    outer loop
      vertex 9.89005 18.8081 1
      vertex 10.4401 17.5788 1
      vertex 9.89005 18.8081 3
    endloop
  endfacet
  facet normal -0.912791 -0.408428 0
    outer loop
      vertex 9.89005 18.8081 3
      vertex 10.4401 17.5788 1
      vertex 10.4401 17.5788 3
    endloop
  endfacet
  facet normal -0.964509 -0.264051 0
    outer loop
      vertex 10.4401 17.5788 1
      vertex 10.7355 16.4996 1
      vertex 10.4401 17.5788 3
    endloop
  endfacet
  facet normal -0.964509 -0.264051 0
    outer loop
      vertex 10.4401 17.5788 3
      vertex 10.7355 16.4996 1
      vertex 10.7355 16.4996 3
    endloop
  endfacet
  facet normal -0.998516 -0.0544603 0
    outer loop
      vertex 10.7355 16.4996 1
      vertex 10.9569 12.4412 1
      vertex 10.7355 16.4996 3
    endloop
  endfacet
  facet normal -0.998516 -0.0544603 0
    outer loop
      vertex 10.7355 16.4996 3
      vertex 10.9569 12.4412 1
      vertex 10.9569 12.4412 3
    endloop
  endfacet
  facet normal -0.999652 -0.0263697 0
    outer loop
      vertex 10.9569 12.4412 1
      vertex 11.0718 8.08355 1
      vertex 10.9569 12.4412 3
    endloop
  endfacet
  facet normal -0.999652 -0.0263697 0
    outer loop
      vertex 10.9569 12.4412 3
      vertex 11.0718 8.08355 1
      vertex 11.0718 8.08355 3
    endloop
  endfacet
  facet normal 0 -1 0
    outer loop
      vertex 11.0718 8.08355 3
      vertex 11.0718 8.08355 1
      vertex 16.1819 8.08355 1
    endloop
  endfacet
  facet normal 0 -1 0
    outer loop
      vertex 16.1819 8.08355 3
      vertex 11.0718 8.08355 3
      vertex 16.1819 8.08355 1
    endloop
  endfacet
  facet normal 0.999444 0.0333366 0
    outer loop
      vertex 16.1819 8.08355 1
      vertex 16.0365 12.4412 1
      vertex 16.0365 12.4412 3
    endloop
  endfacet
  facet normal 0.999444 0.0333366 0
    outer loop
      vertex 16.1819 8.08355 3
      vertex 16.1819 8.08355 1
      vertex 16.0365 12.4412 3
    endloop
  endfacet
  facet normal 0.997362 0.0725896 0
    outer loop
      vertex 16.0365 12.4412 1
      vertex 15.7591 16.2526 1
      vertex 15.7591 16.2526 3
    endloop
  endfacet
  facet normal 0.997362 0.0725896 0
    outer loop
      vertex 16.0365 12.4412 3
      vertex 16.0365 12.4412 1
      vertex 15.7591 16.2526 3
    endloop
  endfacet
  facet normal 0.97855 0.20601 0
    outer loop
      vertex 15.7591 16.2526 1
      vertex 15.1359 19.2128 1
      vertex 15.1359 19.2128 3
    endloop
  endfacet
  facet normal 0.97855 0.20601 0
    outer loop
      vertex 15.7591 16.2526 3
      vertex 15.7591 16.2526 1
      vertex 15.1359 19.2128 3
    endloop
  endfacet
  facet normal 0.936612 0.350367 0
    outer loop
      vertex 15.1359 19.2128 1
      vertex 14.6533 20.5029 1
      vertex 14.6533 20.5029 3
    endloop
  endfacet
  facet normal 0.936612 0.350367 0
    outer loop
      vertex 15.1359 19.2128 3
      vertex 15.1359 19.2128 1
      vertex 14.6533 20.5029 3
    endloop
  endfacet
  facet normal 0.894014 0.448039 0
    outer loop
      vertex 14.6533 20.5029 1
      vertex 14.0349 21.7369 1
      vertex 14.0349 21.7369 3
    endloop
  endfacet
  facet normal 0.894014 0.448039 0
    outer loop
      vertex 14.6533 20.5029 3
      vertex 14.6533 20.5029 1
      vertex 14.0349 21.7369 3
    endloop
  endfacet
  facet normal 0.825975 0.563706 0
    outer loop
      vertex 14.0349 21.7369 1
      vertex 12.3258 24.2411 1
      vertex 12.3258 24.2411 3
    endloop
  endfacet
  facet normal 0.825975 0.563706 0
    outer loop
      vertex 14.0349 21.7369 3
      vertex 14.0349 21.7369 1
      vertex 12.3258 24.2411 3
    endloop
  endfacet
  facet normal 0.726247 0.687434 0
    outer loop
      vertex 12.3258 24.2411 1
      vertex 10.6937 25.9654 1
      vertex 10.6937 25.9654 3
    endloop
  endfacet
  facet normal 0.726247 0.687434 0
    outer loop
      vertex 12.3258 24.2411 3
      vertex 12.3258 24.2411 1
      vertex 10.6937 25.9654 3
    endloop
  endfacet
  facet normal 0.609514 0.792776 0
    outer loop
      vertex 8.6636 27.5262 1
      vertex 8.6636 27.5262 3
      vertex 10.6937 25.9654 1
    endloop
  endfacet
  facet normal 0.609514 0.792776 0
    outer loop
      vertex 10.6937 25.9654 1
      vertex 8.6636 27.5262 3
      vertex 10.6937 25.9654 3
    endloop
  endfacet
  facet normal 0.495368 0.868683 0
    outer loop
      vertex 6.35795 28.841 1
      vertex 6.35795 28.841 3
      vertex 8.6636 27.5262 1
    endloop
  endfacet
  facet normal 0.495368 0.868683 0
    outer loop
      vertex 8.6636 27.5262 1
      vertex 6.35795 28.841 3
      vertex 8.6636 27.5262 3
    endloop
  endfacet
  facet normal 0.372567 0.928005 0
    outer loop
      vertex 3.9041 29.8262 1
      vertex 3.9041 29.8262 3
      vertex 6.35795 28.841 1
    endloop
  endfacet
  facet normal 0.372567 0.928005 0
    outer loop
      vertex 6.35795 28.841 1
      vertex 3.9041 29.8262 3
      vertex 6.35795 28.841 3
    endloop
  endfacet
  facet normal 0.154018 0.988068 0
    outer loop
      vertex 2.06965 30.1121 1
      vertex 2.06965 30.1121 3
      vertex 3.9041 29.8262 1
    endloop
  endfacet
  facet normal 0.154018 0.988068 0
    outer loop
      vertex 3.9041 29.8262 1
      vertex 2.06965 30.1121 3
      vertex 3.9041 29.8262 3
    endloop
  endfacet
  facet normal 0.0205436 0.999789 0
    outer loop
      vertex -0.42695 30.1634 1
      vertex -0.42695 30.1634 3
      vertex 2.06965 30.1121 1
    endloop
  endfacet
  facet normal 0.0205436 0.999789 0
    outer loop
      vertex 2.06965 30.1121 1
      vertex -0.42695 30.1634 3
      vertex 2.06965 30.1121 3
    endloop
  endfacet
  facet normal -0.0672208 0.997738 0
    outer loop
      vertex -2.93685 29.9943 1
      vertex -2.93685 29.9943 3
      vertex -0.42695 30.1634 1
    endloop
  endfacet
  facet normal -0.0672208 0.997738 0
    outer loop
      vertex -0.42695 30.1634 1
      vertex -2.93685 29.9943 3
      vertex -0.42695 30.1634 3
    endloop
  endfacet
  facet normal -0.19602 0.9806 0
    outer loop
      vertex -4.8093 29.62 1
      vertex -4.8093 29.62 3
      vertex -2.93685 29.9943 1
    endloop
  endfacet
  facet normal -0.19602 0.9806 0
    outer loop
      vertex -2.93685 29.9943 1
      vertex -4.8093 29.62 3
      vertex -2.93685 29.9943 3
    endloop
  endfacet
  facet normal -0.379647 0.925132 0
    outer loop
      vertex -6.73305 28.8306 1
      vertex -6.73305 28.8306 3
      vertex -4.8093 29.62 1
    endloop
  endfacet
  facet normal -0.379647 0.925132 0
    outer loop
      vertex -4.8093 29.62 1
      vertex -6.73305 28.8306 3
      vertex -4.8093 29.62 3
    endloop
  endfacet
  facet normal -0.474578 0.880213 0
    outer loop
      vertex -8.50385 27.8758 1
      vertex -8.50385 27.8758 3
      vertex -6.73305 28.8306 1
    endloop
  endfacet
  facet normal -0.474578 0.880213 0
    outer loop
      vertex -6.73305 28.8306 1
      vertex -8.50385 27.8758 3
      vertex -6.73305 28.8306 3
    endloop
  endfacet
  facet normal -0.568277 0.822838 0
    outer loop
      vertex -10.116 26.7624 1
      vertex -10.116 26.7624 3
      vertex -8.50385 27.8758 1
    endloop
  endfacet
  facet normal -0.568277 0.822838 0
    outer loop
      vertex -8.50385 27.8758 1
      vertex -10.116 26.7624 3
      vertex -8.50385 27.8758 3
    endloop
  endfacet
  facet normal -0.658049 0.752975 0
    outer loop
      vertex -11.5629 25.498 1
      vertex -11.5629 25.498 3
      vertex -10.116 26.7624 1
    endloop
  endfacet
  facet normal -0.658049 0.752975 0
    outer loop
      vertex -10.116 26.7624 1
      vertex -11.5629 25.498 3
      vertex -10.116 26.7624 3
    endloop
  endfacet
  facet normal -0.742175 0.670206 0
    outer loop
      vertex -12.8368 24.0872 1
      vertex -12.8368 24.0872 3
      vertex -11.5629 25.498 1
    endloop
  endfacet
  facet normal -0.742175 0.670206 0
    outer loop
      vertex -11.5629 25.498 1
      vertex -12.8368 24.0872 3
      vertex -11.5629 25.498 3
    endloop
  endfacet
  facet normal -0.816468 0.577391 0
    outer loop
      vertex -13.9312 22.5397 1
      vertex -13.9312 22.5397 3
      vertex -12.8368 24.0872 1
    endloop
  endfacet
  facet normal -0.816468 0.577391 0
    outer loop
      vertex -12.8368 24.0872 1
      vertex -13.9312 22.5397 3
      vertex -12.8368 24.0872 3
    endloop
  endfacet
  facet normal -0.879847 0.475257 0
    outer loop
      vertex -14.8385 20.8601 1
      vertex -14.8385 20.8601 3
      vertex -13.9312 22.5397 1
    endloop
  endfacet
  facet normal -0.879847 0.475257 0
    outer loop
      vertex -13.9312 22.5397 1
      vertex -14.8385 20.8601 3
      vertex -13.9312 22.5397 3
    endloop
  endfacet
  facet normal -0.930089 0.367334 0
    outer loop
      vertex -15.551 19.056 1
      vertex -15.551 19.056 3
      vertex -14.8385 20.8601 1
    endloop
  endfacet
  facet normal -0.930089 0.367334 0
    outer loop
      vertex -14.8385 20.8601 1
      vertex -15.551 19.056 3
      vertex -14.8385 20.8601 3
    endloop
  endfacet
  facet normal -0.978588 0.205827 0
    outer loop
      vertex -16.0345 16.757 1
      vertex -16.0345 16.757 3
      vertex -15.551 19.056 1
    endloop
  endfacet
  facet normal -0.978588 0.205827 0
    outer loop
      vertex -15.551 19.056 1
      vertex -16.0345 16.757 3
      vertex -15.551 19.056 3
    endloop
  endfacet
  facet normal -0.998418 0.0562357 0
    outer loop
      vertex -16.2625 12.7091 1
      vertex -16.2625 12.7091 3
      vertex -16.0345 16.757 1
    endloop
  endfacet
  facet normal -0.998418 0.0562357 0
    outer loop
      vertex -16.0345 16.757 1
      vertex -16.2625 12.7091 3
      vertex -16.0345 16.757 3
    endloop
  endfacet
  facet normal 0 0 1
    outer loop
      vertex -20.8491 -8.8787 3
      vertex -20.9365 -22.3468 3
      vertex -20.3048 -23.2807 3
    endloop
  endfacet
  facet normal 0 0 1
    outer loop
      vertex -19.0118 -24.5508 3
      vertex -20.8491 -8.8787 3
      vertex -19.6645 -24.0397 3
    endloop
  endfacet
  facet normal 0 0 1
    outer loop
      vertex -19.6645 -24.0397 3
      vertex -20.8491 -8.8787 3
      vertex -20.3048 -23.2807 3
    endloop
  endfacet
  facet normal 0 0 1
    outer loop
      vertex -17.8186 -24.7123 3
      vertex -20.8491 -8.8787 3
      vertex -19.0118 -24.5508 3
    endloop
  endfacet
  facet normal 0 0 1
    outer loop
      vertex -14.639 -24.8159 3
      vertex -20.8491 -8.8787 3
      vertex -17.8186 -24.7123 3
    endloop
  endfacet
  facet normal 0 0 1
    outer loop
      vertex -0.1106 -24.89 3
      vertex -20.8491 -8.8787 3
      vertex -14.639 -24.8159 3
    endloop
  endfacet
  facet normal 0 0 1
    outer loop
      vertex 15.4162 -24.8216 3
      vertex -20.8491 -8.8787 3
      vertex -0.1106 -24.89 3
    endloop
  endfacet
  facet normal 0 0 1
    outer loop
      vertex -2.7174 -16.3143 3
      vertex -20.8491 -8.8787 3
      vertex 15.4162 -24.8216 3
    endloop
  endfacet
  facet normal 0 0 1
    outer loop
      vertex -2.5673 -14.7725 3
      vertex -2.2006 -10.3844 3
      vertex -20.8491 -8.8787 3
    endloop
  endfacet
  facet normal 0 0 1
    outer loop
      vertex 2.2815 -15.5771 3
      vertex 2.41545 -16.3143 3
      vertex 20.4949 -21.8101 3
    endloop
  endfacet
  facet normal 0 0 1
    outer loop
      vertex -1.4121 -3.3022 3
      vertex 20.1823 2.3161 3
      vertex 19.9942 4.1401 3
    endloop
  endfacet
  facet normal 0 0 1
    outer loop
      vertex 19.6865 5.0141 3
      vertex -20.8491 -8.8787 3
      vertex 19.9942 4.1401 3
    endloop
  endfacet
  facet normal 0 0 1
    outer loop
      vertex 19.0585 5.88905 3
      vertex -20.8491 -8.8787 3
      vertex 19.6865 5.0141 3
    endloop
  endfacet
  facet normal 0 0 1
    outer loop
      vertex 18.2548 6.3669 3
      vertex -20.8491 -8.8787 3
      vertex 19.0585 5.88905 3
    endloop
  endfacet
  facet normal 0 0 1
    outer loop
      vertex 13.2302 6.5778 3
      vertex -20.8491 -8.8787 3
      vertex 18.2548 6.3669 3
    endloop
  endfacet
  facet normal 0 0 1
    outer loop
      vertex -0.70815 6.61295 3
      vertex -20.8491 -8.8787 3
      vertex 13.2302 6.5778 3
    endloop
  endfacet
  facet normal 0 0 1
    outer loop
      vertex -18.7867 6.56545 3
      vertex -20.8491 -8.8787 3
      vertex -0.70815 6.61295 3
    endloop
  endfacet
  facet normal 0 0 1
    outer loop
      vertex -19.7747 5.57745 3
      vertex -20.8491 -8.8787 3
      vertex -18.7867 6.56545 3
    endloop
  endfacet
  facet normal 0 0 1
    outer loop
      vertex -20.7627 4.5904 3
      vertex -20.8491 -8.8787 3
      vertex -19.7747 5.57745 3
    endloop
  endfacet
  facet normal 0 0 1
    outer loop
      vertex -3.7377 -6.2244 3
      vertex -20.8491 -8.8787 3
      vertex -3.6712 -7.12975 3
    endloop
  endfacet
  facet normal 0 0 1
    outer loop
      vertex -3.5971 -4.9514 3
      vertex -20.8491 -8.8787 3
      vertex -3.7377 -6.2244 3
    endloop
  endfacet
  facet normal 0 0 1
    outer loop
      vertex -3.34725 -4.5505 3
      vertex -20.8491 -8.8787 3
      vertex -3.5971 -4.9514 3
    endloop
  endfacet
  facet normal 0 0 1
    outer loop
      vertex 2.3423 -3.85035 3
      vertex 2.8534 -4.53625 3
      vertex 20.1823 2.3161 3
    endloop
  endfacet
  facet normal 0 0 1
    outer loop
      vertex -2.91215 -4.13915 3
      vertex -20.8491 -8.8787 3
      vertex -3.34725 -4.5505 3
    endloop
  endfacet
  facet normal 0 0 1
    outer loop
      vertex -1.4121 -3.3022 3
      vertex -0.5229 -3.1901 3
      vertex 20.1823 2.3161 3
    endloop
  endfacet
  facet normal 0 0 1
    outer loop
      vertex -0.5229 -3.1901 3
      vertex 0.6171 -3.2433 3
      vertex 20.1823 2.3161 3
    endloop
  endfacet
  facet normal 0 0 1
    outer loop
      vertex -1.4121 -3.3022 3
      vertex -20.8491 -8.8787 3
      vertex -2.16925 -3.6081 3
    endloop
  endfacet
  facet normal 0 0 1
    outer loop
      vertex 0.6171 -3.2433 3
      vertex 1.62125 -3.4409 3
      vertex 20.1823 2.3161 3
    endloop
  endfacet
  facet normal 0 0 1
    outer loop
      vertex 19.9942 4.1401 3
      vertex -20.8491 -8.8787 3
      vertex -1.4121 -3.3022 3
    endloop
  endfacet
  facet normal 0 0 1
    outer loop
      vertex 2.8971 -8.27735 3
      vertex 2.3385 -9.0554 3
      vertex 20.4369 -8.39135 3
    endloop
  endfacet
  facet normal 0 0 1
    outer loop
      vertex 2.8534 -4.53625 3
      vertex 3.22675 -5.5632 3
      vertex 20.1823 2.3161 3
    endloop
  endfacet
  facet normal 0 0 1
    outer loop
      vertex 20.1823 2.3161 3
      vertex 1.62125 -3.4409 3
      vertex 2.3423 -3.85035 3
    endloop
  endfacet
  facet normal 0 0 1
    outer loop
      vertex 3.23815 -7.40905 3
      vertex 2.8971 -8.27735 3
      vertex 20.4369 -8.39135 3
    endloop
  endfacet
  facet normal 0 0 1
    outer loop
      vertex 20.1823 2.3161 3
      vertex 3.22675 -5.5632 3
      vertex 20.4369 -8.39135 3
    endloop
  endfacet
  facet normal 0 0 1
    outer loop
      vertex 3.22675 -5.5632 3
      vertex 3.3512 -6.49135 3
      vertex 20.4369 -8.39135 3
    endloop
  endfacet
  facet normal 0 0 1
    outer loop
      vertex 3.3512 -6.49135 3
      vertex 3.23815 -7.40905 3
      vertex 20.4369 -8.39135 3
    endloop
  endfacet
  facet normal 0 0 1
    outer loop
      vertex 20.4369 -8.39135 3
      vertex 2.3385 -9.0554 3
      vertex 20.4949 -21.8101 3
    endloop
  endfacet
  facet normal 0 0 1
    outer loop
      vertex 2.3385 -9.0554 3
      vertex 1.9832 -9.4962 3
      vertex 20.4949 -21.8101 3
    endloop
  endfacet
  facet normal 0 0 1
    outer loop
      vertex 1.9832 -9.4962 3
      vertex 1.81885 -10.0006 3
      vertex 20.4949 -21.8101 3
    endloop
  endfacet
  facet normal 0 0 1
    outer loop
      vertex 1.81885 -10.0006 3
      vertex 1.92335 -12.292 3
      vertex 20.4949 -21.8101 3
    endloop
  endfacet
  facet normal 0 0 1
    outer loop
      vertex 1.92335 -12.292 3
      vertex 2.2815 -15.5771 3
      vertex 20.4949 -21.8101 3
    endloop
  endfacet
  facet normal 0 0 1
    outer loop
      vertex -2.2006 -10.3844 3
      vertex -2.25475 -9.6482 3
      vertex -20.8491 -8.8787 3
    endloop
  endfacet
  facet normal 0 0 1
    outer loop
      vertex 20.4949 -21.8101 3
      vertex 2.41545 -16.3143 3
      vertex 20.3144 -22.5976 3
    endloop
  endfacet
  facet normal 0 0 1
    outer loop
      vertex -2.7174 -16.3143 3
      vertex -2.5673 -14.7725 3
      vertex -20.8491 -8.8787 3
    endloop
  endfacet
  facet normal 0 0 1
    outer loop
      vertex 17.9451 -24.6838 3
      vertex -2.7174 -16.3143 3
      vertex 15.4162 -24.8216 3
    endloop
  endfacet
  facet normal 0 0 1
    outer loop
      vertex -2.25475 -9.6482 3
      vertex -2.4571 -9.31285 3
      vertex -20.8491 -8.8787 3
    endloop
  endfacet
  facet normal 0 0 1
    outer loop
      vertex -2.4571 -9.31285 3
      vertex -3.06035 -8.6051 3
      vertex -20.8491 -8.8787 3
    endloop
  endfacet
  facet normal 0 0 1
    outer loop
      vertex -3.06035 -8.6051 3
      vertex -3.45555 -7.9002 3
      vertex -20.8491 -8.8787 3
    endloop
  endfacet
  facet normal 0 0 1
    outer loop
      vertex 2.41545 -16.3143 3
      vertex 19.9866 -23.2712 3
      vertex 20.3144 -22.5976 3
    endloop
  endfacet
  facet normal 0 0 1
    outer loop
      vertex -3.6712 -7.12975 3
      vertex -20.8491 -8.8787 3
      vertex -3.45555 -7.9002 3
    endloop
  endfacet
  facet normal 0 0 1
    outer loop
      vertex -2.91215 -4.13915 3
      vertex -2.16925 -3.6081 3
      vertex -20.8491 -8.8787 3
    endloop
  endfacet
  facet normal 0 0 1
    outer loop
      vertex 2.41545 -16.3143 3
      vertex 19.4879 -23.8697 3
      vertex 19.9866 -23.2712 3
    endloop
  endfacet
  facet normal 0 0 1
    outer loop
      vertex 2.41545 -16.3143 3
      vertex 18.7915 -24.433 3
      vertex 19.4879 -23.8697 3
    endloop
  endfacet
  facet normal 0 0 1
    outer loop
      vertex 2.41545 -16.3143 3
      vertex 17.9451 -24.6838 3
      vertex 18.7915 -24.433 3
    endloop
  endfacet
  facet normal 0 0 1
    outer loop
      vertex 2.41545 -16.3143 3
      vertex -2.7174 -16.3143 3
      vertex 17.9451 -24.6838 3
    endloop
  endfacet
  facet normal 0 0 1
    outer loop
      vertex -16.2625 12.7091 3
      vertex -16.406 8.08355 3
      vertex -11.5895 8.08355 3
    endloop
  endfacet
  facet normal 0 0 1
    outer loop
      vertex -11.2845 14.782 3
      vertex -16.2625 12.7091 3
      vertex -11.4308 12.1723 3
    endloop
  endfacet
  facet normal 0 0 1
    outer loop
      vertex -11.4308 12.1723 3
      vertex -16.2625 12.7091 3
      vertex -11.5895 8.08355 3
    endloop
  endfacet
  facet normal 0 0 1
    outer loop
      vertex -11.0404 16.6421 3
      vertex -16.2625 12.7091 3
      vertex -11.2845 14.782 3
    endloop
  endfacet
  facet normal 0 0 1
    outer loop
      vertex -10.63 18.0946 3
      vertex -16.2625 12.7091 3
      vertex -11.0404 16.6421 3
    endloop
  endfacet
  facet normal 0 0 1
    outer loop
      vertex -9.9868 19.4788 3
      vertex -16.2625 12.7091 3
      vertex -10.63 18.0946 3
    endloop
  endfacet
  facet normal 0 0 1
    outer loop
      vertex -9.06815 20.9038 3
      vertex -16.2625 12.7091 3
      vertex -9.9868 19.4788 3
    endloop
  endfacet
  facet normal 0 0 1
    outer loop
      vertex -2.93685 29.9943 3
      vertex -16.2625 12.7091 3
      vertex -9.06815 20.9038 3
    endloop
  endfacet
  facet normal 0 0 1
    outer loop
      vertex -2.93685 29.9943 3
      vertex -9.06815 20.9038 3
      vertex -7.93765 22.1635 3
    endloop
  endfacet
  facet normal 0 0 1
    outer loop
      vertex -0.42695 30.1634 3
      vertex -7.93765 22.1635 3
      vertex -6.6314 23.2398 3
    endloop
  endfacet
  facet normal 0 0 1
    outer loop
      vertex 3.9041 29.8262 3
      vertex -6.6314 23.2398 3
      vertex -5.1855 24.1148 3
    endloop
  endfacet
  facet normal 0 0 1
    outer loop
      vertex 3.9041 29.8262 3
      vertex -5.1855 24.1148 3
      vertex -3.63415 24.7712 3
    endloop
  endfacet
  facet normal 0 0 1
    outer loop
      vertex 6.35795 28.841 3
      vertex -3.63415 24.7712 3
      vertex -2.01345 25.1892 3
    endloop
  endfacet
  facet normal 0 0 1
    outer loop
      vertex 8.6636 27.5262 3
      vertex -2.01345 25.1892 3
      vertex -0.35855 25.3517 3
    endloop
  endfacet
  facet normal 0 0 1
    outer loop
      vertex 10.6937 25.9654 3
      vertex -0.35855 25.3517 3
      vertex 1.29445 25.2405 3
    endloop
  endfacet
  facet normal 0 0 1
    outer loop
      vertex 12.3258 24.2411 3
      vertex 1.29445 25.2405 3
      vertex 2.70425 24.9384 3
    endloop
  endfacet
  facet normal 0 0 1
    outer loop
      vertex 14.0349 21.7369 3
      vertex 2.70425 24.9384 3
      vertex 4.03045 24.4824 3
    endloop
  endfacet
  facet normal 0 0 1
    outer loop
      vertex 15.1359 19.2128 3
      vertex 4.03045 24.4824 3
      vertex 5.2683 23.8792 3
    endloop
  endfacet
  facet normal 0 0 1
    outer loop
      vertex 15.1359 19.2128 3
      vertex 5.2683 23.8792 3
      vertex 6.4102 23.1315 3
    endloop
  endfacet
  facet normal 0 0 1
    outer loop
      vertex 15.7591 16.2526 3
      vertex 6.4102 23.1315 3
      vertex 7.4495 22.2461 3
    endloop
  endfacet
  facet normal 0 0 1
    outer loop
      vertex 15.7591 16.2526 3
      vertex 7.4495 22.2461 3
      vertex 8.3805 21.2277 3
    endloop
  endfacet
  facet normal 0 0 1
    outer loop
      vertex 16.0365 12.4412 3
      vertex 8.3805 21.2277 3
      vertex 9.19655 20.0801 3
    endloop
  endfacet
  facet normal 0 0 1
    outer loop
      vertex 16.1819 8.08355 3
      vertex 9.19655 20.0801 3
      vertex 9.89005 18.8081 3
    endloop
  endfacet
  facet normal 0 0 1
    outer loop
      vertex 16.1819 8.08355 3
      vertex 9.89005 18.8081 3
      vertex 10.4401 17.5788 3
    endloop
  endfacet
  facet normal 0 0 1
    outer loop
      vertex 16.1819 8.08355 3
      vertex 10.4401 17.5788 3
      vertex 10.7355 16.4996 3
    endloop
  endfacet
  facet normal 0 0 1
    outer loop
      vertex 16.1819 8.08355 3
      vertex 10.7355 16.4996 3
      vertex 10.9569 12.4412 3
    endloop
  endfacet
  facet normal 0 0 1
    outer loop
      vertex 16.1819 8.08355 3
      vertex 10.9569 12.4412 3
      vertex 11.0718 8.08355 3
    endloop
  endfacet
  facet normal 0 0 1
    outer loop
      vertex 16.0365 12.4412 3
      vertex 9.19655 20.0801 3
      vertex 16.1819 8.08355 3
    endloop
  endfacet
  facet normal 0 0 1
    outer loop
      vertex 15.7591 16.2526 3
      vertex 8.3805 21.2277 3
      vertex 16.0365 12.4412 3
    endloop
  endfacet
  facet normal 0 0 1
    outer loop
      vertex 15.1359 19.2128 3
      vertex 6.4102 23.1315 3
      vertex 15.7591 16.2526 3
    endloop
  endfacet
  facet normal 0 0 1
    outer loop
      vertex 14.6533 20.5029 3
      vertex 4.03045 24.4824 3
      vertex 15.1359 19.2128 3
    endloop
  endfacet
  facet normal 0 0 1
    outer loop
      vertex 14.0349 21.7369 3
      vertex 4.03045 24.4824 3
      vertex 14.6533 20.5029 3
    endloop
  endfacet
  facet normal 0 0 1
    outer loop
      vertex 12.3258 24.2411 3
      vertex 2.70425 24.9384 3
      vertex 14.0349 21.7369 3
    endloop
  endfacet
  facet normal 0 0 1
    outer loop
      vertex 10.6937 25.9654 3
      vertex 1.29445 25.2405 3
      vertex 12.3258 24.2411 3
    endloop
  endfacet
  facet normal 0 0 1
    outer loop
      vertex 8.6636 27.5262 3
      vertex -0.35855 25.3517 3
      vertex 10.6937 25.9654 3
    endloop
  endfacet
  facet normal 0 0 1
    outer loop
      vertex 6.35795 28.841 3
      vertex -2.01345 25.1892 3
      vertex 8.6636 27.5262 3
    endloop
  endfacet
  facet normal 0 0 1
    outer loop
      vertex 3.9041 29.8262 3
      vertex -3.63415 24.7712 3
      vertex 6.35795 28.841 3
    endloop
  endfacet
  facet normal 0 0 1
    outer loop
      vertex 2.06965 30.1121 3
      vertex -6.6314 23.2398 3
      vertex 3.9041 29.8262 3
    endloop
  endfacet
  facet normal 0 0 1
    outer loop
      vertex -0.42695 30.1634 3
      vertex -6.6314 23.2398 3
      vertex 2.06965 30.1121 3
    endloop
  endfacet
  facet normal 0 0 1
    outer loop
      vertex -2.93685 29.9943 3
      vertex -7.93765 22.1635 3
      vertex -0.42695 30.1634 3
    endloop
  endfacet
  facet normal 0 0 1
    outer loop
      vertex -4.8093 29.62 3
      vertex -16.2625 12.7091 3
      vertex -2.93685 29.9943 3
    endloop
  endfacet
  facet normal 0 0 1
    outer loop
      vertex -6.73305 28.8306 3
      vertex -16.2625 12.7091 3
      vertex -4.8093 29.62 3
    endloop
  endfacet
  facet normal 0 0 1
    outer loop
      vertex -8.50385 27.8758 3
      vertex -16.2625 12.7091 3
      vertex -6.73305 28.8306 3
    endloop
  endfacet
  facet normal 0 0 1
    outer loop
      vertex -10.116 26.7624 3
      vertex -16.2625 12.7091 3
      vertex -8.50385 27.8758 3
    endloop
  endfacet
  facet normal 0 0 1
    outer loop
      vertex -11.5629 25.498 3
      vertex -16.2625 12.7091 3
      vertex -10.116 26.7624 3
    endloop
  endfacet
  facet normal 0 0 1
    outer loop
      vertex -12.8368 24.0872 3
      vertex -16.2625 12.7091 3
      vertex -11.5629 25.498 3
    endloop
  endfacet
  facet normal 0 0 1
    outer loop
      vertex -13.9312 22.5397 3
      vertex -16.2625 12.7091 3
      vertex -12.8368 24.0872 3
    endloop
  endfacet
  facet normal 0 0 1
    outer loop
      vertex -14.8385 20.8601 3
      vertex -16.2625 12.7091 3
      vertex -13.9312 22.5397 3
    endloop
  endfacet
  facet normal 0 0 1
    outer loop
      vertex -15.551 19.056 3
      vertex -16.2625 12.7091 3
      vertex -14.8385 20.8601 3
    endloop
  endfacet
  facet normal 0 0 1
    outer loop
      vertex -16.0345 16.757 3
      vertex -16.2625 12.7091 3
      vertex -15.551 19.056 3
    endloop
  endfacet
  facet normal 0.997313 0.0732549 0
    outer loop
      vertex -3.6712 -7.12975 1
      vertex -3.7377 -6.2244 1
      vertex -3.7377 -6.2244 3
    endloop
  endfacet
  facet normal 0.997313 0.0732549 0
    outer loop
      vertex -3.6712 -7.12975 3
      vertex -3.6712 -7.12975 1
      vertex -3.7377 -6.2244 3
    endloop
  endfacet
  facet normal 0.962989 0.269542 0
    outer loop
      vertex -3.45555 -7.9002 1
      vertex -3.6712 -7.12975 1
      vertex -3.6712 -7.12975 3
    endloop
  endfacet
  facet normal 0.962989 0.269542 0
    outer loop
      vertex -3.45555 -7.9002 3
      vertex -3.45555 -7.9002 1
      vertex -3.6712 -7.12975 3
    endloop
  endfacet
  facet normal 0.872265 0.489033 0
    outer loop
      vertex -3.06035 -8.6051 1
      vertex -3.45555 -7.9002 1
      vertex -3.45555 -7.9002 3
    endloop
  endfacet
  facet normal 0.872265 0.489033 0
    outer loop
      vertex -3.06035 -8.6051 3
      vertex -3.06035 -8.6051 1
      vertex -3.45555 -7.9002 3
    endloop
  endfacet
  facet normal 0.761056 0.648686 0
    outer loop
      vertex -2.4571 -9.31285 1
      vertex -3.06035 -8.6051 1
      vertex -3.06035 -8.6051 3
    endloop
  endfacet
  facet normal 0.761056 0.648686 0
    outer loop
      vertex -2.4571 -9.31285 3
      vertex -2.4571 -9.31285 1
      vertex -3.06035 -8.6051 3
    endloop
  endfacet
  facet normal 0.856206 0.516634 0
    outer loop
      vertex -2.25475 -9.6482 1
      vertex -2.4571 -9.31285 1
      vertex -2.4571 -9.31285 3
    endloop
  endfacet
  facet normal 0.856206 0.516634 0
    outer loop
      vertex -2.25475 -9.6482 3
      vertex -2.25475 -9.6482 1
      vertex -2.4571 -9.31285 3
    endloop
  endfacet
  facet normal 0.997306 0.0733503 0
    outer loop
      vertex -2.2006 -10.3844 1
      vertex -2.25475 -9.6482 1
      vertex -2.25475 -9.6482 3
    endloop
  endfacet
  facet normal 0.997306 0.0733503 0
    outer loop
      vertex -2.2006 -10.3844 3
      vertex -2.2006 -10.3844 1
      vertex -2.25475 -9.6482 3
    endloop
  endfacet
  facet normal 0.996526 -0.0832776 0
    outer loop
      vertex -2.5673 -14.7725 3
      vertex -2.5673 -14.7725 1
      vertex -2.2006 -10.3844 1
    endloop
  endfacet
  facet normal 0.996526 -0.0832776 0
    outer loop
      vertex -2.2006 -10.3844 3
      vertex -2.5673 -14.7725 3
      vertex -2.2006 -10.3844 1
    endloop
  endfacet
  facet normal 0.995295 -0.0968925 0
    outer loop
      vertex -2.7174 -16.3143 3
      vertex -2.7174 -16.3143 1
      vertex -2.5673 -14.7725 1
    endloop
  endfacet
  facet normal 0.995295 -0.0968925 0
    outer loop
      vertex -2.5673 -14.7725 3
      vertex -2.7174 -16.3143 3
      vertex -2.5673 -14.7725 1
    endloop
  endfacet
  facet normal 0 1 0
    outer loop
      vertex -2.7174 -16.3143 1
      vertex -2.7174 -16.3143 3
      vertex 2.41545 -16.3143 1
    endloop
  endfacet
  facet normal 0 1 0
    outer loop
      vertex 2.41545 -16.3143 1
      vertex -2.7174 -16.3143 3
      vertex 2.41545 -16.3143 3
    endloop
  endfacet
  facet normal -0.98389 -0.178774 0
    outer loop
      vertex 2.2815 -15.5771 1
      vertex 2.41545 -16.3143 1
      vertex 2.2815 -15.5771 3
    endloop
  endfacet
  facet normal -0.98389 -0.178774 0
    outer loop
      vertex 2.2815 -15.5771 3
      vertex 2.41545 -16.3143 1
      vertex 2.41545 -16.3143 3
    endloop
  endfacet
  facet normal -0.994109 -0.10838 0
    outer loop
      vertex 1.92335 -12.292 1
      vertex 2.2815 -15.5771 1
      vertex 1.92335 -12.292 3
    endloop
  endfacet
  facet normal -0.994109 -0.10838 0
    outer loop
      vertex 1.92335 -12.292 3
      vertex 2.2815 -15.5771 1
      vertex 2.2815 -15.5771 3
    endloop
  endfacet
  facet normal -0.998962 -0.045558 0
    outer loop
      vertex 1.81885 -10.0006 1
      vertex 1.92335 -12.292 1
      vertex 1.81885 -10.0006 3
    endloop
  endfacet
  facet normal -0.998962 -0.045558 0
    outer loop
      vertex 1.81885 -10.0006 3
      vertex 1.92335 -12.292 1
      vertex 1.92335 -12.292 3
    endloop
  endfacet
  facet normal -0.95081 0.309774 0
    outer loop
      vertex 1.81885 -10.0006 1
      vertex 1.81885 -10.0006 3
      vertex 1.9832 -9.4962 1
    endloop
  endfacet
  facet normal -0.95081 0.309774 0
    outer loop
      vertex 1.9832 -9.4962 1
      vertex 1.81885 -10.0006 3
      vertex 1.9832 -9.4962 3
    endloop
  endfacet
  facet normal -0.778572 0.627556 0
    outer loop
      vertex 1.9832 -9.4962 1
      vertex 1.9832 -9.4962 3
      vertex 2.3385 -9.0554 1
    endloop
  endfacet
  facet normal -0.778572 0.627556 0
    outer loop
      vertex 2.3385 -9.0554 1
      vertex 1.9832 -9.4962 3
      vertex 2.3385 -9.0554 3
    endloop
  endfacet
  facet normal -0.812324 0.583207 0
    outer loop
      vertex 2.3385 -9.0554 1
      vertex 2.3385 -9.0554 3
      vertex 2.8971 -8.27735 1
    endloop
  endfacet
  facet normal -0.812324 0.583207 0
    outer loop
      vertex 2.8971 -8.27735 1
      vertex 2.3385 -9.0554 3
      vertex 2.8971 -8.27735 3
    endloop
  endfacet
  facet normal -0.930776 0.365589 0
    outer loop
      vertex 2.8971 -8.27735 1
      vertex 2.8971 -8.27735 3
      vertex 3.23815 -7.40905 1
    endloop
  endfacet
  facet normal -0.930776 0.365589 0
    outer loop
      vertex 3.23815 -7.40905 1
      vertex 2.8971 -8.27735 3
      vertex 3.23815 -7.40905 3
    endloop
  endfacet
  facet normal -0.992498 0.122264 0
    outer loop
      vertex 3.23815 -7.40905 1
      vertex 3.23815 -7.40905 3
      vertex 3.3512 -6.49135 1
    endloop
  endfacet
  facet normal -0.992498 0.122264 0
    outer loop
      vertex 3.3512 -6.49135 1
      vertex 3.23815 -7.40905 3
      vertex 3.3512 -6.49135 3
    endloop
  endfacet
  facet normal -0.99113 -0.132895 0
    outer loop
      vertex 3.22675 -5.5632 1
      vertex 3.3512 -6.49135 1
      vertex 3.22675 -5.5632 3
    endloop
  endfacet
  facet normal -0.99113 -0.132895 0
    outer loop
      vertex 3.22675 -5.5632 3
      vertex 3.3512 -6.49135 1
      vertex 3.3512 -6.49135 3
    endloop
  endfacet
  facet normal -0.939819 -0.341673 0
    outer loop
      vertex 2.8534 -4.53625 1
      vertex 3.22675 -5.5632 1
      vertex 2.8534 -4.53625 3
    endloop
  endfacet
  facet normal -0.939819 -0.341673 0
    outer loop
      vertex 2.8534 -4.53625 3
      vertex 3.22675 -5.5632 1
      vertex 3.22675 -5.5632 3
    endloop
  endfacet
  facet normal -0.801862 -0.597509 0
    outer loop
      vertex 2.3423 -3.85035 1
      vertex 2.8534 -4.53625 1
      vertex 2.3423 -3.85035 3
    endloop
  endfacet
  facet normal -0.801862 -0.597509 0
    outer loop
      vertex 2.3423 -3.85035 3
      vertex 2.8534 -4.53625 1
      vertex 2.8534 -4.53625 3
    endloop
  endfacet
  facet normal -0.493793 -0.86958 0
    outer loop
      vertex 1.62125 -3.4409 3
      vertex 1.62125 -3.4409 1
      vertex 2.3423 -3.85035 1
    endloop
  endfacet
  facet normal -0.493793 -0.86958 0
    outer loop
      vertex 2.3423 -3.85035 3
      vertex 1.62125 -3.4409 3
      vertex 2.3423 -3.85035 1
    endloop
  endfacet
  facet normal -0.19308 -0.981183 0
    outer loop
      vertex 0.6171 -3.2433 3
      vertex 0.6171 -3.2433 1
      vertex 1.62125 -3.4409 1
    endloop
  endfacet
  facet normal -0.19308 -0.981183 0
    outer loop
      vertex 1.62125 -3.4409 3
      vertex 0.6171 -3.2433 3
      vertex 1.62125 -3.4409 1
    endloop
  endfacet
  facet normal -0.0466159 -0.998913 0
    outer loop
      vertex -0.5229 -3.1901 3
      vertex -0.5229 -3.1901 1
      vertex 0.6171 -3.2433 1
    endloop
  endfacet
  facet normal -0.0466159 -0.998913 0
    outer loop
      vertex 0.6171 -3.2433 3
      vertex -0.5229 -3.1901 3
      vertex 0.6171 -3.2433 1
    endloop
  endfacet
  facet normal 0.125078 -0.992147 0
    outer loop
      vertex -1.4121 -3.3022 3
      vertex -1.4121 -3.3022 1
      vertex -0.5229 -3.1901 1
    endloop
  endfacet
  facet normal 0.125078 -0.992147 0
    outer loop
      vertex -0.5229 -3.1901 3
      vertex -1.4121 -3.3022 3
      vertex -0.5229 -3.1901 1
    endloop
  endfacet
  facet normal 0.374598 -0.927187 0
    outer loop
      vertex -2.16925 -3.6081 3
      vertex -2.16925 -3.6081 1
      vertex -1.4121 -3.3022 1
    endloop
  endfacet
  facet normal 0.374598 -0.927187 0
    outer loop
      vertex -1.4121 -3.3022 3
      vertex -2.16925 -3.6081 3
      vertex -1.4121 -3.3022 1
    endloop
  endfacet
  facet normal 0.581533 -0.813523 0
    outer loop
      vertex -2.91215 -4.13915 3
      vertex -2.91215 -4.13915 1
      vertex -2.16925 -3.6081 1
    endloop
  endfacet
  facet normal 0.581533 -0.813523 0
    outer loop
      vertex -2.16925 -3.6081 3
      vertex -2.91215 -4.13915 3
      vertex -2.16925 -3.6081 1
    endloop
  endfacet
  facet normal 0.686996 -0.726661 0
    outer loop
      vertex -3.34725 -4.5505 3
      vertex -3.34725 -4.5505 1
      vertex -2.91215 -4.13915 1
    endloop
  endfacet
  facet normal 0.686996 -0.726661 0
    outer loop
      vertex -2.91215 -4.13915 3
      vertex -3.34725 -4.5505 3
      vertex -2.91215 -4.13915 1
    endloop
  endfacet
  facet normal 0.848676 -0.528914 0
    outer loop
      vertex -3.5971 -4.9514 3
      vertex -3.5971 -4.9514 1
      vertex -3.34725 -4.5505 1
    endloop
  endfacet
  facet normal 0.848676 -0.528914 0
    outer loop
      vertex -3.34725 -4.5505 3
      vertex -3.5971 -4.9514 3
      vertex -3.34725 -4.5505 1
    endloop
  endfacet
  facet normal 0.993956 -0.10978 0
    outer loop
      vertex -3.7377 -6.2244 3
      vertex -3.7377 -6.2244 1
      vertex -3.5971 -4.9514 1
    endloop
  endfacet
  facet normal 0.993956 -0.10978 0
    outer loop
      vertex -3.5971 -4.9514 3
      vertex -3.7377 -6.2244 3
      vertex -3.5971 -4.9514 1
    endloop
  endfacet
  facet normal 0 0 1
    outer loop
      vertex -3.5971 -4.9514 1
      vertex -3.7377 -6.2244 1
      vertex -3.6712 -7.12975 1
    endloop
  endfacet
  facet normal 0 0 1
    outer loop
      vertex -3.06035 -8.6051 1
      vertex -3.5971 -4.9514 1
      vertex -3.45555 -7.9002 1
    endloop
  endfacet
  facet normal 0 0 1
    outer loop
      vertex -3.45555 -7.9002 1
      vertex -3.5971 -4.9514 1
      vertex -3.6712 -7.12975 1
    endloop
  endfacet
  facet normal 0 0 1
    outer loop
      vertex -2.4571 -9.31285 1
      vertex -3.5971 -4.9514 1
      vertex -3.06035 -8.6051 1
    endloop
  endfacet
  facet normal 0 0 1
    outer loop
      vertex -2.25475 -9.6482 1
      vertex -3.5971 -4.9514 1
      vertex -2.4571 -9.31285 1
    endloop
  endfacet
  facet normal 0 0 1
    outer loop
      vertex 2.41545 -16.3143 1
      vertex -3.5971 -4.9514 1
      vertex -2.25475 -9.6482 1
    endloop
  endfacet
  facet normal 0 0 1
    outer loop
      vertex 2.41545 -16.3143 1
      vertex -2.25475 -9.6482 1
      vertex -2.2006 -10.3844 1
    endloop
  endfacet
  facet normal 0 0 1
    outer loop
      vertex 2.41545 -16.3143 1
      vertex -2.2006 -10.3844 1
      vertex -2.5673 -14.7725 1
    endloop
  endfacet
  facet normal 0 0 1
    outer loop
      vertex 2.41545 -16.3143 1
      vertex -2.5673 -14.7725 1
      vertex -2.7174 -16.3143 1
    endloop
  endfacet
  facet normal 0 0 1
    outer loop
      vertex 2.2815 -15.5771 1
      vertex -3.5971 -4.9514 1
      vertex 2.41545 -16.3143 1
    endloop
  endfacet
  facet normal 0 0 1
    outer loop
      vertex 1.92335 -12.292 1
      vertex -3.5971 -4.9514 1
      vertex 2.2815 -15.5771 1
    endloop
  endfacet
  facet normal 0 0 1
    outer loop
      vertex 1.81885 -10.0006 1
      vertex -3.5971 -4.9514 1
      vertex 1.92335 -12.292 1
    endloop
  endfacet
  facet normal 0 0 1
    outer loop
      vertex 1.9832 -9.4962 1
      vertex -3.5971 -4.9514 1
      vertex 1.81885 -10.0006 1
    endloop
  endfacet
  facet normal 0 0 1
    outer loop
      vertex 2.3385 -9.0554 1
      vertex -3.5971 -4.9514 1
      vertex 1.9832 -9.4962 1
    endloop
  endfacet
  facet normal 0 0 1
    outer loop
      vertex 2.8971 -8.27735 1
      vertex -3.5971 -4.9514 1
      vertex 2.3385 -9.0554 1
    endloop
  endfacet
  facet normal 0 0 1
    outer loop
      vertex 3.23815 -7.40905 1
      vertex -3.5971 -4.9514 1
      vertex 2.8971 -8.27735 1
    endloop
  endfacet
  facet normal 0 0 1
    outer loop
      vertex 3.3512 -6.49135 1
      vertex -3.5971 -4.9514 1
      vertex 3.23815 -7.40905 1
    endloop
  endfacet
  facet normal 0 0 1
    outer loop
      vertex 3.22675 -5.5632 1
      vertex -3.5971 -4.9514 1
      vertex 3.3512 -6.49135 1
    endloop
  endfacet
  facet normal 0 0 1
    outer loop
      vertex 2.8534 -4.53625 1
      vertex -3.5971 -4.9514 1
      vertex 3.22675 -5.5632 1
    endloop
  endfacet
  facet normal 0 0 1
    outer loop
      vertex 2.3423 -3.85035 1
      vertex -3.5971 -4.9514 1
      vertex 2.8534 -4.53625 1
    endloop
  endfacet
  facet normal 0 0 1
    outer loop
      vertex 1.62125 -3.4409 1
      vertex -3.5971 -4.9514 1
      vertex 2.3423 -3.85035 1
    endloop
  endfacet
  facet normal 0 0 1
    outer loop
      vertex 0.6171 -3.2433 1
      vertex -3.5971 -4.9514 1
      vertex 1.62125 -3.4409 1
    endloop
  endfacet
  facet normal 0 0 1
    outer loop
      vertex -0.5229 -3.1901 1
      vertex -3.5971 -4.9514 1
      vertex 0.6171 -3.2433 1
    endloop
  endfacet
  facet normal 0 0 1
    outer loop
      vertex -1.4121 -3.3022 1
      vertex -3.5971 -4.9514 1
      vertex -0.5229 -3.1901 1
    endloop
  endfacet
  facet normal 0 0 1
    outer loop
      vertex -2.16925 -3.6081 1
      vertex -3.5971 -4.9514 1
      vertex -1.4121 -3.3022 1
    endloop
  endfacet
  facet normal 0 0 1
    outer loop
      vertex -2.91215 -4.13915 1
      vertex -3.5971 -4.9514 1
      vertex -2.16925 -3.6081 1
    endloop
  endfacet
  facet normal 0 0 1
    outer loop
      vertex -3.34725 -4.5505 1
      vertex -3.5971 -4.9514 1
      vertex -2.91215 -4.13915 1
    endloop
  endfacet
endsolid OpenSCAD_Model
