999
Inkscape export via OpenSCAD DXF Export
  0
SECTION
  2
HEADER
  9
$ACADVER
  1
AC1014
  9
$HANDSEED
  5
FFFF
  9
$MEASUREMENT
 70
     1
  0
ENDSEC
  0
SECTION
  2
TABLES
  0
TABLE
  2
VPORT
  5
8
330
0
100
AcDbSymbolTable
 70
     4
  0
VPORT
  5
2E
330
8
100
AcDbSymbolTableRecord
100
AcDbViewportTableRecord
  2
*ACTIVE
 70
     0
 10
0.0
 20
0.0
 11
1.0
 21
1.0
 12
210.0
 22
148.5
 13
0.0
 23
0.0
 14
10.0
 24
10.0
 15
10.0
 25
10.0
 16
0.0
 26
0.0
 36
1.0
 17
0.0
 27
0.0
 37
0.0
 40
341.0
 41
1.24
 42
50.0
 43
0.0
 44
0.0
 50
0.0
 51
0.0
 71
     0
 72
   100
 73
     1
 74
     3
 75
     0
 76
     0
 77
     0
 78
     0
  0
ENDTAB
  0
TABLE
  2
LTYPE
  5
5
330
0
100
AcDbSymbolTable
 70
     1
  0
LTYPE
  5
14
330
5
100
AcDbSymbolTableRecord
100
AcDbLinetypeTableRecord
  2
BYBLOCK
 70
     0
  3

 72
    65
 73
     0
 40
0.0
  0
LTYPE
  5
15
330
5
100
AcDbSymbolTableRecord
100
AcDbLinetypeTableRecord
  2
BYLAYER
 70
     0
  3

 72
    65
 73
     0
 40
0.0
  0
LTYPE
  5
16
330
5
100
AcDbSymbolTableRecord
100
AcDbLinetypeTableRecord
  2
CONTINUOUS
 70
     0
  3
Solid line
 72
    65
 73
     0
 40
0.0
  0
ENDTAB
  0
TABLE
0
TABLE
2
LAYER
5
2
330
0
100
AcDbSymbolTable
70
1
0
LAYER
5
10
330
2
100
AcDbSymbolTableRecord
100
AcDbLayerTableRecord
2
Calque_1
70
0
62
7
6
CONTINUOUS
0
ENDTAB
0
ENDSEC
  0
ENDTAB
  0
TABLE
  2
STYLE
  5
3
330
0
100
AcDbSymbolTable
 70
     1
  0
STYLE
  5
11
330
3
100
AcDbSymbolTableRecord
100
AcDbTextStyleTableRecord
  2
STANDARD
 70
     0
 40
0.0
 41
1.0
 50
0.0
 71
     0
 42
2.5
  3
txt
  4

  0
ENDTAB
  0
TABLE
  2
VIEW
  5
6
330
0
100
AcDbSymbolTable
 70
     0
  0
ENDTAB
  0
TABLE
  2
UCS
  5
7
330
0
100
AcDbSymbolTable
 70
     0
  0
ENDTAB
  0
TABLE
  2
APPID
  5
9
330
0
100
AcDbSymbolTable
 70
     2
  0
APPID
  5
12
330
9
100
AcDbSymbolTableRecord
100
AcDbRegAppTableRecord
  2
ACAD
 70
     0
  0
ENDTAB
  0
TABLE
  2
DIMSTYLE
  5
A
330
0
100
AcDbSymbolTable
 70
     1
  0
DIMSTYLE
105
27
330
A
100
AcDbSymbolTableRecord
100
AcDbDimStyleTableRecord
  2
ISO-25
 70
     0
  3

  4

  5

  6

  7

 40
1.0
 41
2.5
 42
0.625
 43
3.75
 44
1.25
 45
0.0
 46
0.0
 47
0.0
 48
0.0
140
2.5
141
2.5
142
0.0
143
0.03937007874016
144
1.0
145
0.0
146
1.0
147
0.625
 71
     0
 72
     0
 73
     0
 74
     0
 75
     0
 76
     0
 77
     1
 78
     8
170
     0
171
     3
172
     1
173
     0
174
     0
175
     0
176
     0
177
     0
178
     0
270
     2
271
     2
272
     2
273
     2
274
     3
340
11
275
     0
280
     0
281
     0
282
     0
283
     0
284
     8
285
     0
286
     0
287
     3
288
     0
  0
ENDTAB
  0
TABLE
  2
BLOCK_RECORD
  5
1
330
0
100
AcDbSymbolTable
 70
     1
  0
BLOCK_RECORD
  5
1F
330
1
100
AcDbSymbolTableRecord
100
AcDbBlockTableRecord
  2
*MODEL_SPACE
  0
BLOCK_RECORD
  5
1B
330
1
100
AcDbSymbolTableRecord
100
AcDbBlockTableRecord
  2
*PAPER_SPACE
  0
ENDTAB
  0
ENDSEC
  0
SECTION
  2
BLOCKS
  0
BLOCK
  5
20
330
1F
100
AcDbEntity
  8
0
100
AcDbBlockBegin
  2
*MODEL_SPACE
 70
     0
 10
0.0
 20
0.0
 30
0.0
  3
*MODEL_SPACE
  1

  0
ENDBLK
  5
21
330
1F
100
AcDbEntity
  8
0
100
AcDbBlockEnd
  0
BLOCK
  5
1C
330
1B
100
AcDbEntity
 67
     1
  8
0
100
AcDbBlockBegin
  2
*PAPER_SPACE
  1

  0
ENDBLK
  5
1D
330
1B
100
AcDbEntity
 67
     1
  8
0
100
AcDbBlockEnd
  0
ENDSEC
  0
SECTION
  2
ENTITIES
0
DIMENSION
5
83
100
AcDbEntity
62
256
370
-1
6
ByLayer
1
total_width
3
Standard
70
0
71
5
72
1
41
1.0
100
AcDbAlignedDimension
13
85.329982
23
0.000000
33
0.0
14
128.942053
24
0.000000
34
0.0
50
0.000000
100
AcDbRotatedDimension
0
DIMENSION
5
83
100
AcDbEntity
62
256
370
-1
6
ByLayer
1
total_height
3
Standard
70
0
71
5
72
1
41
1.0
100
AcDbAlignedDimension
13
0.000000
23
-26.199708
33
0.0
14
0.000000
24
31.751292
34
0.0
50
90.000000
100
AcDbRotatedDimension
0
DIMENSION
8
Calque_1
5
83
100
AcDbEntity
62
256
370
-1
6
ByLayer
1
Calque_1_width
3
Standard
70
0
71
5
72
1
41
1.0
100
AcDbAlignedDimension
13
85.329982
23
0.000000
33
0.0
14
128.942053
24
0.000000
34
0.0
50
0.000000
100
AcDbRotatedDimension
0
DIMENSION
8
Calque_1
5
83
100
AcDbEntity
62
256
370
-1
6
ByLayer
1
Calque_1_height
3
Standard
70
0
71
5
72
1
41
1.0
100
AcDbAlignedDimension
13
0.000000
23
-26.199708
33
0.0
14
0.000000
24
31.751292
34
0.0
50
90.000000
100
AcDbRotatedDimension
0
LWPOLYLINE
100
AcDbPolyline
8
Calque_1
90
28
70
0
10
87.356244
20
-25.842818
30
0.0
10
86.668705
20
-25.304751
30
0.0
10
85.994570
20
-24.506422
30
0.0
10
85.329982
20
-23.522757
30
0.0
10
85.421656
20
-9.345580
30
0.0
10
85.513328
20
4.831596
30
0.0
10
86.553130
20
5.871185
30
0.0
10
87.592930
20
6.910773
30
0.0
10
106.623053
20
6.960664
30
0.0
10
121.294801
20
6.924162
30
0.0
10
126.584199
20
6.701677
30
0.0
10
127.429719
20
6.199143
30
0.0
10
128.090541
20
5.278289
30
0.0
10
128.415019
20
4.357565
30
0.0
10
128.613474
20
2.437823
30
0.0
10
128.880551
20
-8.832819
30
0.0
10
128.942053
20
-22.958312
30
0.0
10
128.751545
20
-23.786787
30
0.0
10
128.407011
20
-24.495551
30
0.0
10
127.881701
20
-25.125783
30
0.0
10
127.148864
20
-25.718660
30
0.0
10
126.257565
20
-25.983070
30
0.0
10
123.596476
20
-26.128362
30
0.0
10
107.252200
20
-26.199708
30
0.0
10
91.959040
20
-26.121960
30
0.0
10
88.611585
20
-26.012771
30
0.0
10
87.356244
20
-25.842818
30
0.0
10
87.356244
20
-25.842818
30
0.0
0
LWPOLYLINE
100
AcDbPolyline
8
Calque_1
90
32
70
0
10
109.769882
20
-16.396645
30
0.0
10
109.393270
20
-12.939423
30
0.0
10
109.282962
20
-10.527244
30
0.0
10
109.455794
20
-9.995953
30
0.0
10
109.829665
20
-9.531511
30
0.0
10
110.418115
20
-8.712756
30
0.0
10
110.777248
20
-7.799034
30
0.0
10
110.896324
20
-6.832571
30
0.0
10
110.764605
20
-5.855592
30
0.0
10
110.371920
20
-4.774629
30
0.0
10
109.834021
20
-4.052539
30
0.0
10
109.074741
20
-3.621620
30
0.0
10
108.017914
20
-3.414169
30
0.0
10
106.818460
20
-3.358353
30
0.0
10
105.882490
20
-3.475766
30
0.0
10
105.085468
20
-3.798001
30
0.0
10
104.302859
20
-4.356650
30
0.0
10
103.844740
20
-4.789707
30
0.0
10
103.582046
20
-5.212070
30
0.0
10
103.434439
20
-6.551716
30
0.0
10
103.503574
20
-7.504968
30
0.0
10
103.731078
20
-8.316087
30
0.0
10
104.147099
20
-9.057822
30
0.0
10
104.781787
20
-9.802921
30
0.0
10
104.994622
20
-10.156373
30
0.0
10
105.052370
20
-10.930565
30
0.0
10
104.666243
20
-15.549979
30
0.0
10
104.507908
20
-17.172757
30
0.0
10
107.209675
20
-17.172757
30
0.0
10
109.911439
20
-17.172757
30
0.0
10
109.769882
20
-16.396645
30
0.0
10
109.769882
20
-16.396645
30
0.0
0
LWPOLYLINE
100
AcDbPolyline
8
Calque_1
90
56
70
0
10
90.249869
20
13.377799
30
0.0
10
90.489682
20
17.638534
30
0.0
10
90.998520
20
20.059413
30
0.0
10
91.749489
20
21.957835
30
0.0
10
92.704487
20
23.725508
30
0.0
10
93.856128
20
25.355170
30
0.0
10
95.197029
20
26.839559
30
0.0
10
96.719805
20
28.171414
30
0.0
10
98.417074
20
29.343474
30
0.0
10
100.281450
20
30.348475
30
0.0
10
102.305550
20
31.179157
30
0.0
10
104.276902
20
31.573132
30
0.0
10
106.918943
20
31.751292
30
0.0
10
109.547342
20
31.697490
30
0.0
10
111.477772
20
31.395579
30
0.0
10
114.061111
20
30.358634
30
0.0
10
116.487636
20
28.974844
30
0.0
10
118.625425
20
27.331696
30
0.0
10
120.342556
20
25.516679
30
0.0
10
122.141933
20
22.881016
30
0.0
10
122.792918
20
21.582480
30
0.0
10
123.301027
20
20.223901
30
0.0
10
123.957395
20
17.107899
30
0.0
10
124.248599
20
13.095577
30
0.0
10
124.402393
20
8.509466
30
0.0
10
121.712663
20
8.509466
30
0.0
10
119.022932
20
8.509466
30
0.0
10
118.902102
20
13.095577
30
0.0
10
118.669146
20
17.367624
30
0.0
10
118.357886
20
18.504440
30
0.0
10
117.778807
20
19.798355
30
0.0
10
117.048577
20
21.136541
30
0.0
10
116.190073
20
22.344515
30
0.0
10
115.210187
20
23.417115
30
0.0
10
114.115816
20
24.349183
30
0.0
10
112.913854
20
25.135559
30
0.0
10
111.611197
20
25.771082
30
0.0
10
110.214739
20
26.250594
30
0.0
10
108.731375
20
26.568933
30
0.0
10
106.990918
20
26.685944
30
0.0
10
105.249015
20
26.514820
30
0.0
10
103.542963
20
26.074608
30
0.0
10
101.910058
20
25.384356
30
0.0
10
100.387597
20
24.463113
30
0.0
10
99.012875
20
23.329925
30
0.0
10
97.823191
20
22.003842
30
0.0
10
96.855839
20
20.503910
30
0.0
10
96.179177
20
19.046518
30
0.0
10
95.747465
20
17.517805
30
0.0
10
95.489885
20
15.559506
30
0.0
10
95.335615
20
12.813355
30
0.0
10
95.168954
20
8.509466
30
0.0
10
92.633924
20
8.509466
30
0.0
10
90.098897
20
8.509466
30
0.0
10
90.249869
20
13.377799
30
0.0
10
90.249869
20
13.377799
30
0.0
  0
ENDSEC
  0
SECTION
  2
OBJECTS
  0
DICTIONARY
  5
C
330
0
100
AcDbDictionary
  3
ACAD_GROUP
350
D
  3
ACAD_MLINESTYLE
350
17
  0
DICTIONARY
  5
D
330
C
100
AcDbDictionary
  0
DICTIONARY
  5
1A
330
C
100
AcDbDictionary
  0
DICTIONARY
  5
17
330
C
100
AcDbDictionary
  3
STANDARD
350
18
  0
DICTIONARY
  5
19
330
C
100
AcDbDictionary
  0
ENDSEC
  0
EOF
