999
Inkscape export via OpenSCAD DXF Export
  0
SECTION
  2
HEADER
  9
$ACADVER
  1
AC1014
  9
$HANDSEED
  5
FFFF
  9
$MEASUREMENT
 70
     1
  0
ENDSEC
  0
SECTION
  2
TABLES
  0
TABLE
  2
VPORT
  5
8
330
0
100
AcDbSymbolTable
 70
     4
  0
VPORT
  5
2E
330
8
100
AcDbSymbolTableRecord
100
AcDbViewportTableRecord
  2
*ACTIVE
 70
     0
 10
0.0
 20
0.0
 11
1.0
 21
1.0
 12
210.0
 22
148.5
 13
0.0
 23
0.0
 14
10.0
 24
10.0
 15
10.0
 25
10.0
 16
0.0
 26
0.0
 36
1.0
 17
0.0
 27
0.0
 37
0.0
 40
341.0
 41
1.24
 42
50.0
 43
0.0
 44
0.0
 50
0.0
 51
0.0
 71
     0
 72
   100
 73
     1
 74
     3
 75
     0
 76
     0
 77
     0
 78
     0
  0
ENDTAB
  0
TABLE
  2
LTYPE
  5
5
330
0
100
AcDbSymbolTable
 70
     1
  0
LTYPE
  5
14
330
5
100
AcDbSymbolTableRecord
100
AcDbLinetypeTableRecord
  2
BYBLOCK
 70
     0
  3

 72
    65
 73
     0
 40
0.0
  0
LTYPE
  5
15
330
5
100
AcDbSymbolTableRecord
100
AcDbLinetypeTableRecord
  2
BYLAYER
 70
     0
  3

 72
    65
 73
     0
 40
0.0
  0
LTYPE
  5
16
330
5
100
AcDbSymbolTableRecord
100
AcDbLinetypeTableRecord
  2
CONTINUOUS
 70
     0
  3
Solid line
 72
    65
 73
     0
 40
0.0
  0
ENDTAB
  0
TABLE
0
TABLE
2
LAYER
5
2
330
0
100
AcDbSymbolTable
70
1
0
LAYER
5
10
330
2
100
AcDbSymbolTableRecord
100
AcDbLayerTableRecord
2
Layer_1
70
0
62
7
6
CONTINUOUS
0
ENDTAB
0
ENDSEC
  0
ENDTAB
  0
TABLE
  2
STYLE
  5
3
330
0
100
AcDbSymbolTable
 70
     1
  0
STYLE
  5
11
330
3
100
AcDbSymbolTableRecord
100
AcDbTextStyleTableRecord
  2
STANDARD
 70
     0
 40
0.0
 41
1.0
 50
0.0
 71
     0
 42
2.5
  3
txt
  4

  0
ENDTAB
  0
TABLE
  2
VIEW
  5
6
330
0
100
AcDbSymbolTable
 70
     0
  0
ENDTAB
  0
TABLE
  2
UCS
  5
7
330
0
100
AcDbSymbolTable
 70
     0
  0
ENDTAB
  0
TABLE
  2
APPID
  5
9
330
0
100
AcDbSymbolTable
 70
     2
  0
APPID
  5
12
330
9
100
AcDbSymbolTableRecord
100
AcDbRegAppTableRecord
  2
ACAD
 70
     0
  0
ENDTAB
  0
TABLE
  2
DIMSTYLE
  5
A
330
0
100
AcDbSymbolTable
 70
     1
  0
DIMSTYLE
105
27
330
A
100
AcDbSymbolTableRecord
100
AcDbDimStyleTableRecord
  2
ISO-25
 70
     0
  3

  4

  5

  6

  7

 40
1.0
 41
2.5
 42
0.625
 43
3.75
 44
1.25
 45
0.0
 46
0.0
 47
0.0
 48
0.0
140
2.5
141
2.5
142
0.0
143
0.03937007874016
144
1.0
145
0.0
146
1.0
147
0.625
 71
     0
 72
     0
 73
     0
 74
     0
 75
     0
 76
     0
 77
     1
 78
     8
170
     0
171
     3
172
     1
173
     0
174
     0
175
     0
176
     0
177
     0
178
     0
270
     2
271
     2
272
     2
273
     2
274
     3
340
11
275
     0
280
     0
281
     0
282
     0
283
     0
284
     8
285
     0
286
     0
287
     3
288
     0
  0
ENDTAB
  0
TABLE
  2
BLOCK_RECORD
  5
1
330
0
100
AcDbSymbolTable
 70
     1
  0
BLOCK_RECORD
  5
1F
330
1
100
AcDbSymbolTableRecord
100
AcDbBlockTableRecord
  2
*MODEL_SPACE
  0
BLOCK_RECORD
  5
1B
330
1
100
AcDbSymbolTableRecord
100
AcDbBlockTableRecord
  2
*PAPER_SPACE
  0
ENDTAB
  0
ENDSEC
  0
SECTION
  2
BLOCKS
  0
BLOCK
  5
20
330
1F
100
AcDbEntity
  8
0
100
AcDbBlockBegin
  2
*MODEL_SPACE
 70
     0
 10
0.0
 20
0.0
 30
0.0
  3
*MODEL_SPACE
  1

  0
ENDBLK
  5
21
330
1F
100
AcDbEntity
  8
0
100
AcDbBlockEnd
  0
BLOCK
  5
1C
330
1B
100
AcDbEntity
 67
     1
  8
0
100
AcDbBlockBegin
  2
*PAPER_SPACE
  1

  0
ENDBLK
  5
1D
330
1B
100
AcDbEntity
 67
     1
  8
0
100
AcDbBlockEnd
  0
ENDSEC
  0
SECTION
  2
ENTITIES
0
DIMENSION
5
83
100
AcDbEntity
62
256
370
-1
6
ByLayer
1
total_width
3
Standard
70
0
71
5
72
1
41
1.0
100
AcDbAlignedDimension
13
0.321398
23
0.000000
33
0.0
14
34.710810
24
0.000000
34
0.0
50
0.000000
100
AcDbRotatedDimension
0
DIMENSION
5
83
100
AcDbEntity
62
256
370
-1
6
ByLayer
1
total_height
3
Standard
70
0
71
5
72
1
41
1.0
100
AcDbAlignedDimension
13
0.000000
23
0.064377
33
0.0
14
0.000000
24
86.164811
34
0.0
50
90.000000
100
AcDbRotatedDimension
0
DIMENSION
8
Layer_1
5
83
100
AcDbEntity
62
256
370
-1
6
ByLayer
1
Layer_1_width
3
Standard
70
0
71
5
72
1
41
1.0
100
AcDbAlignedDimension
13
0.321398
23
0.000000
33
0.0
14
34.710810
24
0.000000
34
0.0
50
0.000000
100
AcDbRotatedDimension
0
DIMENSION
8
Layer_1
5
83
100
AcDbEntity
62
256
370
-1
6
ByLayer
1
Layer_1_height
3
Standard
70
0
71
5
72
1
41
1.0
100
AcDbAlignedDimension
13
0.000000
23
0.064377
33
0.0
14
0.000000
24
86.164811
34
0.0
50
90.000000
100
AcDbRotatedDimension
0
LWPOLYLINE
100
AcDbPolyline
8
Layer_1
90
82
70
0
10
15.527003
20
0.317714
30
0.0
10
13.598252
20
0.637375
30
0.0
10
11.768037
20
1.136964
30
0.0
10
10.040734
20
1.813859
30
0.0
10
8.420720
20
2.665437
30
0.0
10
6.912370
20
3.689075
30
0.0
10
5.520061
20
4.882149
30
0.0
10
4.248168
20
6.242037
30
0.0
10
3.101069
20
7.766115
30
0.0
10
2.000493
20
9.498639
30
0.0
10
1.294584
20
10.944820
30
0.0
10
0.850803
20
12.444230
30
0.0
10
0.536613
20
14.336440
30
0.0
10
0.321398
20
17.013604
30
0.0
10
0.373421
20
19.639647
30
0.0
10
0.680615
20
22.045568
30
0.0
10
1.230918
20
24.062368
30
0.0
10
2.090105
20
26.018313
30
0.0
10
3.153365
20
27.650615
30
0.0
10
4.671772
20
29.276102
30
0.0
10
6.896398
20
31.211602
30
0.0
10
7.612002
20
31.802093
30
0.0
10
7.631467
20
54.212713
30
0.0
10
7.716304
20
70.853683
30
0.0
10
7.892940
20
79.392592
30
0.0
10
8.249414
20
81.908887
30
0.0
10
8.924190
20
83.721760
30
0.0
10
9.615897
20
84.947582
30
0.0
10
10.266202
20
85.613465
30
0.0
10
11.090160
20
85.851224
30
0.0
10
12.302826
20
85.792676
30
0.0
10
13.458194
20
85.539201
30
0.0
10
14.312037
20
85.096207
30
0.0
10
14.795859
20
84.516084
30
0.0
10
14.841167
20
83.851221
30
0.0
10
14.402835
20
75.635556
30
0.0
10
13.979278
20
66.957222
30
0.0
10
13.864376
20
66.040000
30
0.0
10
17.797744
20
66.040000
30
0.0
10
21.731111
20
66.040000
30
0.0
10
21.726107
20
66.816111
30
0.0
10
21.172360
20
76.048486
30
0.0
10
20.837151
20
81.512001
30
0.0
10
20.873666
20
84.269371
30
0.0
10
21.083674
20
84.963861
30
0.0
10
21.449436
20
85.378545
30
0.0
10
22.731990
20
85.897471
30
0.0
10
23.743049
20
86.164811
30
0.0
10
24.495174
20
86.115172
30
0.0
10
25.153760
20
85.693268
30
0.0
10
25.884206
20
84.843814
30
0.0
10
26.492015
20
84.000170
30
0.0
10
26.949402
20
83.057165
30
0.0
10
27.280073
20
81.667532
30
0.0
10
27.507736
20
79.483998
30
0.0
10
27.748861
20
71.346154
30
0.0
10
27.862429
20
55.865474
30
0.0
10
27.998323
20
31.720951
30
0.0
10
28.941293
20
31.074817
30
0.0
10
29.742601
20
30.411936
30
0.0
10
30.344985
20
29.725535
30
0.0
10
31.810683
20
27.909994
30
0.0
10
32.801567
20
26.405405
30
0.0
10
33.761974
20
24.052691
30
0.0
10
34.285957
20
22.441899
30
0.0
10
34.569777
20
21.148631
30
0.0
10
34.710810
20
17.478446
30
0.0
10
34.629624
20
14.574664
30
0.0
10
34.314115
20
12.404001
30
0.0
10
33.663090
20
10.544521
30
0.0
10
32.575356
20
8.574286
30
0.0
10
31.515150
20
7.041632
30
0.0
10
30.313243
20
5.633147
30
0.0
10
28.985695
20
4.360165
30
0.0
10
27.548571
20
3.234020
30
0.0
10
26.017932
20
2.266047
30
0.0
10
24.409841
20
1.467579
30
0.0
10
22.740362
20
0.849951
30
0.0
10
21.025556
20
0.424496
30
0.0
10
18.504088
20
0.064377
30
0.0
10
15.527003
20
0.317714
30
0.0
10
15.527003
20
0.317714
30
0.0
0
LWPOLYLINE
100
AcDbPolyline
8
Layer_1
90
24
70
0
10
19.568268
20
44.497950
30
0.0
10
20.454881
20
45.813817
30
0.0
10
20.771736
20
47.214706
30
0.0
10
20.516680
20
48.603424
30
0.0
10
19.687561
20
49.882778
30
0.0
10
19.119381
20
50.306820
30
0.0
10
18.459818
20
50.505010
30
0.0
10
17.751019
20
50.494740
30
0.0
10
17.035130
20
50.293403
30
0.0
10
16.354299
20
49.918389
30
0.0
10
15.750673
20
49.387090
30
0.0
10
15.266398
20
48.716900
30
0.0
10
14.943622
20
47.925208
30
0.0
10
14.784046
20
47.039312
30
0.0
10
14.785945
20
46.207925
30
0.0
10
14.937879
20
45.450652
30
0.0
10
15.228408
20
44.787100
30
0.0
10
15.646091
20
44.236875
30
0.0
10
16.179490
20
43.819583
30
0.0
10
16.817165
20
43.554830
30
0.0
10
17.547676
20
43.462222
30
0.0
10
18.577891
20
43.668884
30
0.0
10
19.568268
20
44.497950
30
0.0
10
19.568268
20
44.497950
30
0.0
0
LWPOLYLINE
100
AcDbPolyline
8
Layer_1
90
14
70
0
10
17.931993
20
55.588953
30
0.0
10
19.490235
20
55.457627
30
0.0
10
20.743333
20
55.033333
30
0.0
10
21.931896
20
54.468889
30
0.0
10
22.013333
20
57.855556
30
0.0
10
22.013333
20
61.242222
30
0.0
10
17.780000
20
61.242222
30
0.0
10
13.546667
20
61.242222
30
0.0
10
13.546667
20
57.754210
30
0.0
10
13.546667
20
54.266197
30
0.0
10
14.887222
20
54.923162
30
0.0
10
16.313721
20
55.426952
30
0.0
10
17.931993
20
55.588953
30
0.0
10
17.931993
20
55.588953
30
0.0
  0
ENDSEC
  0
SECTION
  2
OBJECTS
  0
DICTIONARY
  5
C
330
0
100
AcDbDictionary
  3
ACAD_GROUP
350
D
  3
ACAD_MLINESTYLE
350
17
  0
DICTIONARY
  5
D
330
C
100
AcDbDictionary
  0
DICTIONARY
  5
1A
330
C
100
AcDbDictionary
  0
DICTIONARY
  5
17
330
C
100
AcDbDictionary
  3
STANDARD
350
18
  0
DICTIONARY
  5
19
330
C
100
AcDbDictionary
  0
ENDSEC
  0
EOF
