999
Inkscape export via OpenSCAD DXF Export
  0
SECTION
  2
HEADER
  9
$ACADVER
  1
AC1014
  9
$HANDSEED
  5
FFFF
  9
$MEASUREMENT
 70
     1
  0
ENDSEC
  0
SECTION
  2
TABLES
  0
TABLE
  2
VPORT
  5
8
330
0
100
AcDbSymbolTable
 70
     4
  0
VPORT
  5
2E
330
8
100
AcDbSymbolTableRecord
100
AcDbViewportTableRecord
  2
*ACTIVE
 70
     0
 10
0.0
 20
0.0
 11
1.0
 21
1.0
 12
210.0
 22
148.5
 13
0.0
 23
0.0
 14
10.0
 24
10.0
 15
10.0
 25
10.0
 16
0.0
 26
0.0
 36
1.0
 17
0.0
 27
0.0
 37
0.0
 40
341.0
 41
1.24
 42
50.0
 43
0.0
 44
0.0
 50
0.0
 51
0.0
 71
     0
 72
   100
 73
     1
 74
     3
 75
     0
 76
     0
 77
     0
 78
     0
  0
ENDTAB
  0
TABLE
  2
LTYPE
  5
5
330
0
100
AcDbSymbolTable
 70
     1
  0
LTYPE
  5
14
330
5
100
AcDbSymbolTableRecord
100
AcDbLinetypeTableRecord
  2
BYBLOCK
 70
     0
  3

 72
    65
 73
     0
 40
0.0
  0
LTYPE
  5
15
330
5
100
AcDbSymbolTableRecord
100
AcDbLinetypeTableRecord
  2
BYLAYER
 70
     0
  3

 72
    65
 73
     0
 40
0.0
  0
LTYPE
  5
16
330
5
100
AcDbSymbolTableRecord
100
AcDbLinetypeTableRecord
  2
CONTINUOUS
 70
     0
  3
Solid line
 72
    65
 73
     0
 40
0.0
  0
ENDTAB
  0
TABLE
0
TABLE
2
LAYER
5
2
330
0
100
AcDbSymbolTable
70
1
0
LAYER
5
10
330
2
100
AcDbSymbolTableRecord
100
AcDbLayerTableRecord
2
Calque_1
70
0
62
7
6
CONTINUOUS
0
ENDTAB
0
ENDSEC
  0
ENDTAB
  0
TABLE
  2
STYLE
  5
3
330
0
100
AcDbSymbolTable
 70
     1
  0
STYLE
  5
11
330
3
100
AcDbSymbolTableRecord
100
AcDbTextStyleTableRecord
  2
STANDARD
 70
     0
 40
0.0
 41
1.0
 50
0.0
 71
     0
 42
2.5
  3
txt
  4

  0
ENDTAB
  0
TABLE
  2
VIEW
  5
6
330
0
100
AcDbSymbolTable
 70
     0
  0
ENDTAB
  0
TABLE
  2
UCS
  5
7
330
0
100
AcDbSymbolTable
 70
     0
  0
ENDTAB
  0
TABLE
  2
APPID
  5
9
330
0
100
AcDbSymbolTable
 70
     2
  0
APPID
  5
12
330
9
100
AcDbSymbolTableRecord
100
AcDbRegAppTableRecord
  2
ACAD
 70
     0
  0
ENDTAB
  0
TABLE
  2
DIMSTYLE
  5
A
330
0
100
AcDbSymbolTable
 70
     1
  0
DIMSTYLE
105
27
330
A
100
AcDbSymbolTableRecord
100
AcDbDimStyleTableRecord
  2
ISO-25
 70
     0
  3

  4

  5

  6

  7

 40
1.0
 41
2.5
 42
0.625
 43
3.75
 44
1.25
 45
0.0
 46
0.0
 47
0.0
 48
0.0
140
2.5
141
2.5
142
0.0
143
0.03937007874016
144
1.0
145
0.0
146
1.0
147
0.625
 71
     0
 72
     0
 73
     0
 74
     0
 75
     0
 76
     0
 77
     1
 78
     8
170
     0
171
     3
172
     1
173
     0
174
     0
175
     0
176
     0
177
     0
178
     0
270
     2
271
     2
272
     2
273
     2
274
     3
340
11
275
     0
280
     0
281
     0
282
     0
283
     0
284
     8
285
     0
286
     0
287
     3
288
     0
  0
ENDTAB
  0
TABLE
  2
BLOCK_RECORD
  5
1
330
0
100
AcDbSymbolTable
 70
     1
  0
BLOCK_RECORD
  5
1F
330
1
100
AcDbSymbolTableRecord
100
AcDbBlockTableRecord
  2
*MODEL_SPACE
  0
BLOCK_RECORD
  5
1B
330
1
100
AcDbSymbolTableRecord
100
AcDbBlockTableRecord
  2
*PAPER_SPACE
  0
ENDTAB
  0
ENDSEC
  0
SECTION
  2
BLOCKS
  0
BLOCK
  5
20
330
1F
100
AcDbEntity
  8
0
100
AcDbBlockBegin
  2
*MODEL_SPACE
 70
     0
 10
0.0
 20
0.0
 30
0.0
  3
*MODEL_SPACE
  1

  0
ENDBLK
  5
21
330
1F
100
AcDbEntity
  8
0
100
AcDbBlockEnd
  0
BLOCK
  5
1C
330
1B
100
AcDbEntity
 67
     1
  8
0
100
AcDbBlockBegin
  2
*PAPER_SPACE
  1

  0
ENDBLK
  5
1D
330
1B
100
AcDbEntity
 67
     1
  8
0
100
AcDbBlockEnd
  0
ENDSEC
  0
SECTION
  2
ENTITIES
0
DIMENSION
5
83
100
AcDbEntity
62
256
370
-1
6
ByLayer
1
total_width
3
Standard
70
0
71
5
72
1
41
1.0
100
AcDbAlignedDimension
13
2.458174
23
0.000000
33
0.0
14
61.552961
24
0.000000
34
0.0
50
0.000000
100
AcDbRotatedDimension
0
DIMENSION
5
83
100
AcDbEntity
62
256
370
-1
6
ByLayer
1
total_height
3
Standard
70
0
71
5
72
1
41
1.0
100
AcDbAlignedDimension
13
0.000000
23
279.308863
33
0.0
14
0.000000
24
293.889447
34
0.0
50
90.000000
100
AcDbRotatedDimension
0
DIMENSION
8
Calque_1
5
83
100
AcDbEntity
62
256
370
-1
6
ByLayer
1
Calque_1_width
3
Standard
70
0
71
5
72
1
41
1.0
100
AcDbAlignedDimension
13
2.458174
23
0.000000
33
0.0
14
61.552961
24
0.000000
34
0.0
50
0.000000
100
AcDbRotatedDimension
0
DIMENSION
8
Calque_1
5
83
100
AcDbEntity
62
256
370
-1
6
ByLayer
1
Calque_1_height
3
Standard
70
0
71
5
72
1
41
1.0
100
AcDbAlignedDimension
13
0.000000
23
279.308863
33
0.0
14
0.000000
24
293.889447
34
0.0
50
90.000000
100
AcDbRotatedDimension
0
LWPOLYLINE
100
AcDbPolyline
8
Calque_1
90
45
70
0
10
17.549421
20
279.563115
30
0.0
10
16.487593
20
280.089109
30
0.0
10
15.640585
20
280.897518
30
0.0
10
15.079925
20
281.896501
30
0.0
10
14.877143
20
282.994218
30
0.0
10
15.025551
20
283.815286
30
0.0
10
15.429263
20
284.649918
30
0.0
10
16.026014
20
285.399516
30
0.0
10
16.753535
20
285.965481
30
0.0
10
17.767252
20
286.544819
30
0.0
10
16.903760
20
287.054896
30
0.0
10
16.253938
20
287.551909
30
0.0
10
15.754532
20
288.166894
30
0.0
10
15.409848
20
288.868076
30
0.0
10
15.224196
20
289.623683
30
0.0
10
15.201882
20
290.401941
30
0.0
10
15.347215
20
291.171077
30
0.0
10
15.664503
20
291.899316
30
0.0
10
16.158054
20
292.554886
30
0.0
10
17.044357
20
293.191389
30
0.0
10
18.222384
20
293.647582
30
0.0
10
19.511514
20
293.873526
30
0.0
10
20.731127
20
293.819281
30
0.0
10
22.214548
20
293.364283
30
0.0
10
23.246786
20
292.632730
30
0.0
10
23.840950
20
291.610489
30
0.0
10
24.010148
20
290.283425
30
0.0
10
23.879226
20
289.388443
30
0.0
10
23.525516
20
288.612089
30
0.0
10
22.931842
20
287.927881
30
0.0
10
22.081026
20
287.309336
30
0.0
10
21.101945
20
286.718436
30
0.0
10
22.174752
20
286.245116
30
0.0
10
23.014709
20
285.737504
30
0.0
10
23.588751
20
285.064479
30
0.0
10
23.907121
20
284.208493
30
0.0
10
23.980061
20
283.151997
30
0.0
10
23.877457
20
282.411608
30
0.0
10
23.636730
20
281.734232
30
0.0
10
22.775258
20
280.598991
30
0.0
10
21.464352
20
279.807217
30
0.0
10
19.772715
20
279.419856
30
0.0
10
18.555407
20
279.411904
30
0.0
10
17.549421
20
279.563115
30
0.0
10
17.549421
20
279.563115
30
0.0
0
LWPOLYLINE
100
AcDbPolyline
8
Calque_1
90
21
70
0
10
21.389964
20
281.515122
30
0.0
10
22.109041
20
282.585516
30
0.0
10
22.229175
20
283.126454
30
0.0
10
22.192625
20
283.657834
30
0.0
10
21.658236
20
284.651771
30
0.0
10
20.523394
20
285.487022
30
0.0
10
19.607419
20
285.900582
30
0.0
10
18.952690
20
286.000655
30
0.0
10
18.382733
20
285.768159
30
0.0
10
17.721075
20
285.184011
30
0.0
10
17.175269
20
284.474302
30
0.0
10
16.876888
20
283.722742
30
0.0
10
16.810200
20
282.971395
30
0.0
10
16.959475
20
282.262327
30
0.0
10
17.308981
20
281.637604
30
0.0
10
17.842987
20
281.139292
30
0.0
10
18.545764
20
280.809457
30
0.0
10
19.401580
20
280.690164
30
0.0
10
20.495006
20
280.860778
30
0.0
10
21.389964
20
281.515122
30
0.0
10
21.389964
20
281.515122
30
0.0
0
LWPOLYLINE
100
AcDbPolyline
8
Calque_1
90
20
70
0
10
20.465713
20
287.575714
30
0.0
10
21.423041
20
288.234390
30
0.0
10
22.053337
20
289.006125
30
0.0
10
22.367599
20
289.829005
30
0.0
10
22.376826
20
290.641113
30
0.0
10
22.092014
20
291.380532
30
0.0
10
21.524162
20
291.985347
30
0.0
10
20.684267
20
292.393641
30
0.0
10
19.583326
20
292.543498
30
0.0
10
18.629712
20
292.391868
30
0.0
10
17.880054
20
291.980852
30
0.0
10
17.349242
20
291.376254
30
0.0
10
17.052172
20
290.643883
30
0.0
10
17.003734
20
289.849544
30
0.0
10
17.218822
20
289.059045
30
0.0
10
17.712328
20
288.338192
30
0.0
10
18.499146
20
287.752792
30
0.0
10
19.614113
20
287.237633
30
0.0
10
20.465713
20
287.575714
30
0.0
10
20.465713
20
287.575714
30
0.0
0
LWPOLYLINE
100
AcDbPolyline
8
Calque_1
90
30
70
0
10
41.823499
20
279.841208
30
0.0
10
40.833429
20
280.537897
30
0.0
10
39.982037
20
281.532654
30
0.0
10
39.341385
20
282.720086
30
0.0
10
38.983533
20
283.994803
30
0.0
10
38.849342
20
285.867374
30
0.0
10
38.950982
20
287.833655
30
0.0
10
39.261072
20
289.642587
30
0.0
10
39.752230
20
291.043114
30
0.0
10
40.698650
20
292.380149
30
0.0
10
41.881031
20
293.295404
30
0.0
10
43.207471
20
293.796097
30
0.0
10
44.586068
20
293.889447
30
0.0
10
45.924920
20
293.582671
30
0.0
10
47.132126
20
292.882988
30
0.0
10
48.115783
20
291.797614
30
0.0
10
48.783991
20
290.333768
30
0.0
10
49.052283
20
288.798858
30
0.0
10
49.135183
20
286.927818
30
0.0
10
49.034464
20
285.089685
30
0.0
10
48.751899
20
283.653497
30
0.0
10
48.214833
20
282.383353
30
0.0
10
47.528981
20
281.307181
30
0.0
10
46.717068
20
280.454250
30
0.0
10
45.801816
20
279.853829
30
0.0
10
44.752957
20
279.446556
30
0.0
10
43.793259
20
279.308863
30
0.0
10
42.843261
20
279.440500
30
0.0
10
41.823499
20
279.841214
30
0.0
10
41.823499
20
279.841208
30
0.0
0
LWPOLYLINE
100
AcDbPolyline
8
Calque_1
90
29
70
0
10
45.779608
20
281.620631
30
0.0
10
46.511461
20
282.550791
30
0.0
10
46.989655
20
283.682350
30
0.0
10
47.249155
20
285.137933
30
0.0
10
47.324927
20
287.040164
30
0.0
10
47.104614
20
289.390902
30
0.0
10
46.837530
20
290.334414
30
0.0
10
46.469601
20
291.117024
30
0.0
10
46.003654
20
291.733985
30
0.0
10
45.442519
20
292.180549
30
0.0
10
44.789025
20
292.451969
30
0.0
10
44.046002
20
292.543498
30
0.0
10
43.238093
20
292.414483
30
0.0
10
42.519371
20
292.040569
30
0.0
10
41.899737
20
291.441448
30
0.0
10
41.389090
20
290.636813
30
0.0
10
40.997329
20
289.646356
30
0.0
10
40.734355
20
288.489772
30
0.0
10
40.610068
20
287.186752
30
0.0
10
40.634367
20
285.756990
30
0.0
10
40.971504
20
283.576136
30
0.0
10
41.636235
20
281.994208
30
0.0
10
42.087949
20
281.433255
30
0.0
10
42.617365
20
281.028533
30
0.0
10
43.223081
20
280.782206
30
0.0
10
43.903700
20
280.696440
30
0.0
10
44.845803
20
280.899152
30
0.0
10
45.779608
20
281.620631
30
0.0
10
45.779608
20
281.620631
30
0.0
0
LWPOLYLINE
100
AcDbPolyline
8
Calque_1
90
30
70
0
10
54.241277
20
279.841208
30
0.0
10
53.251207
20
280.537897
30
0.0
10
52.399815
20
281.532654
30
0.0
10
51.759162
20
282.720086
30
0.0
10
51.401311
20
283.994803
30
0.0
10
51.267120
20
285.867374
30
0.0
10
51.368760
20
287.833655
30
0.0
10
51.678850
20
289.642587
30
0.0
10
52.170008
20
291.043114
30
0.0
10
53.116428
20
292.380149
30
0.0
10
54.298809
20
293.295404
30
0.0
10
55.625249
20
293.796097
30
0.0
10
57.003846
20
293.889447
30
0.0
10
58.342698
20
293.582671
30
0.0
10
59.549904
20
292.882988
30
0.0
10
60.533561
20
291.797614
30
0.0
10
61.201768
20
290.333768
30
0.0
10
61.470061
20
288.798858
30
0.0
10
61.552961
20
286.927818
30
0.0
10
61.452242
20
285.089685
30
0.0
10
61.169677
20
283.653497
30
0.0
10
60.632611
20
282.383353
30
0.0
10
59.946759
20
281.307181
30
0.0
10
59.134845
20
280.454250
30
0.0
10
58.219594
20
279.853829
30
0.0
10
57.170734
20
279.446556
30
0.0
10
56.211037
20
279.308863
30
0.0
10
55.261039
20
279.440500
30
0.0
10
54.241277
20
279.841214
30
0.0
10
54.241277
20
279.841208
30
0.0
0
LWPOLYLINE
100
AcDbPolyline
8
Calque_1
90
29
70
0
10
58.197386
20
281.620631
30
0.0
10
58.929239
20
282.550791
30
0.0
10
59.407432
20
283.682350
30
0.0
10
59.666933
20
285.137933
30
0.0
10
59.742705
20
287.040164
30
0.0
10
59.522392
20
289.390902
30
0.0
10
59.255308
20
290.334414
30
0.0
10
58.887378
20
291.117024
30
0.0
10
58.421432
20
291.733985
30
0.0
10
57.860297
20
292.180549
30
0.0
10
57.206803
20
292.451969
30
0.0
10
56.463779
20
292.543498
30
0.0
10
55.655871
20
292.414483
30
0.0
10
54.937149
20
292.040569
30
0.0
10
54.317515
20
291.441448
30
0.0
10
53.806868
20
290.636813
30
0.0
10
53.415107
20
289.646356
30
0.0
10
53.152133
20
288.489772
30
0.0
10
53.027846
20
287.186752
30
0.0
10
53.052145
20
285.756990
30
0.0
10
53.389282
20
283.576136
30
0.0
10
54.054012
20
281.994208
30
0.0
10
54.505727
20
281.433255
30
0.0
10
55.035142
20
281.028533
30
0.0
10
55.640859
20
280.782206
30
0.0
10
56.321477
20
280.696440
30
0.0
10
57.263580
20
280.899152
30
0.0
10
58.197386
20
281.620631
30
0.0
10
58.197386
20
281.620631
30
0.0
0
LWPOLYLINE
100
AcDbPolyline
8
Calque_1
90
41
70
0
10
2.863200
20
279.933653
30
0.0
10
2.659200
20
286.495320
30
0.0
10
2.458174
20
293.084630
30
0.0
10
2.590402
20
293.455151
30
0.0
10
3.259828
20
293.767441
30
0.0
10
4.067825
20
293.886437
30
0.0
10
4.326410
20
293.765103
30
0.0
10
4.501340
20
293.487733
30
0.0
10
4.640099
20
292.358453
30
0.0
10
4.563830
20
290.285719
30
0.0
10
4.385711
20
287.322386
30
0.0
10
5.978090
20
288.874608
30
0.0
10
8.739441
20
291.979053
30
0.0
10
10.104701
20
293.769088
30
0.0
10
10.442715
20
293.857550
30
0.0
10
10.905577
20
293.672612
30
0.0
10
11.314445
20
293.323779
30
0.0
10
11.490477
20
292.920560
30
0.0
10
10.768735
20
291.865368
30
0.0
10
9.033485
20
289.959973
30
0.0
10
6.576492
20
287.449129
30
0.0
10
9.386262
20
284.603965
30
0.0
10
12.979816
20
281.265225
30
0.0
10
13.594045
20
280.752457
30
0.0
10
13.244519
20
280.130610
30
0.0
10
12.706665
20
279.679852
30
0.0
10
12.124288
20
279.680370
30
0.0
10
10.731297
20
280.847342
30
0.0
10
8.226359
20
283.385109
30
0.0
10
4.682251
20
286.899053
30
0.0
10
4.513816
20
286.401149
30
0.0
10
4.463272
20
285.147976
30
0.0
10
4.708421
20
281.819053
30
0.0
10
4.809767
20
280.497726
30
0.0
10
4.708210
20
280.154758
30
0.0
10
4.492766
20
279.914053
30
0.0
10
4.016408
20
279.656319
30
0.0
10
3.526025
20
279.574397
30
0.0
10
3.111621
20
279.667207
30
0.0
10
2.863201
20
279.933667
30
0.0
10
2.863200
20
279.933653
30
0.0
0
LWPOLYLINE
100
AcDbPolyline
8
Calque_1
90
53
70
0
10
26.664401
20
280.065691
30
0.0
10
26.631186
20
280.699801
30
0.0
10
26.881011
20
281.349131
30
0.0
10
27.436601
20
282.051831
30
0.0
10
28.320681
20
282.846048
30
0.0
10
31.225075
20
285.376223
30
0.0
10
33.059924
20
287.439436
30
0.0
10
33.597588
20
288.325936
30
0.0
10
33.893448
20
289.131701
30
0.0
10
33.956032
20
289.868732
30
0.0
10
33.793867
20
290.549031
30
0.0
10
33.349299
20
291.293091
30
0.0
10
32.721140
20
291.828728
30
0.0
10
31.915005
20
292.152578
30
0.0
10
30.936509
20
292.261276
30
0.0
10
29.810212
20
292.077819
30
0.0
10
28.847062
20
291.292793
30
0.0
10
28.064897
20
290.608823
30
0.0
10
27.811594
20
290.543477
30
0.0
10
27.614293
20
290.643682
30
0.0
10
27.348333
20
291.058586
30
0.0
10
27.296314
20
291.523862
30
0.0
10
27.435596
20
292.011787
30
0.0
10
27.743539
20
292.494639
30
0.0
10
28.774845
20
293.334236
30
0.0
10
30.209106
20
293.820880
30
0.0
10
31.878610
20
293.840606
30
0.0
10
33.382346
20
293.426168
30
0.0
10
34.589202
20
292.635841
30
0.0
10
35.368066
20
291.527900
30
0.0
10
35.667963
20
290.508975
30
0.0
10
35.715000
20
289.479933
30
0.0
10
35.504547
20
288.432429
30
0.0
10
35.031971
20
287.358119
30
0.0
10
34.292643
20
286.248658
30
0.0
10
33.281932
20
285.095701
30
0.0
10
30.427834
20
282.625920
30
0.0
10
28.621857
20
281.254608
30
0.0
10
30.992278
20
281.266998
30
0.0
10
32.972749
20
281.385133
30
0.0
10
34.405632
20
281.651780
30
0.0
10
35.090824
20
281.838237
30
0.0
10
35.504342
20
281.767310
30
0.0
10
35.707495
20
281.394926
30
0.0
10
35.761589
20
280.677015
30
0.0
10
35.549603
20
280.120786
30
0.0
10
34.777250
20
279.779684
30
0.0
10
33.239933
20
279.608313
30
0.0
10
30.733057
20
279.561278
30
0.0
10
27.414539
20
279.643238
30
0.0
10
26.851948
20
279.795350
30
0.0
10
26.664401
20
280.065694
30
0.0
10
26.664401
20
280.065691
30
0.0
  0
ENDSEC
  0
SECTION
  2
OBJECTS
  0
DICTIONARY
  5
C
330
0
100
AcDbDictionary
  3
ACAD_GROUP
350
D
  3
ACAD_MLINESTYLE
350
17
  0
DICTIONARY
  5
D
330
C
100
AcDbDictionary
  0
DICTIONARY
  5
1A
330
C
100
AcDbDictionary
  0
DICTIONARY
  5
17
330
C
100
AcDbDictionary
  3
STANDARD
350
18
  0
DICTIONARY
  5
19
330
C
100
AcDbDictionary
  0
ENDSEC
  0
EOF
