999
Inkscape export via OpenSCAD DXF Export
  0
SECTION
  2
HEADER
  9
$ACADVER
  1
AC1014
  9
$HANDSEED
  5
FFFF
  9
$MEASUREMENT
 70
     1
  0
ENDSEC
  0
SECTION
  2
TABLES
  0
TABLE
  2
VPORT
  5
8
330
0
100
AcDbSymbolTable
 70
     4
  0
VPORT
  5
2E
330
8
100
AcDbSymbolTableRecord
100
AcDbViewportTableRecord
  2
*ACTIVE
 70
     0
 10
0.0
 20
0.0
 11
1.0
 21
1.0
 12
210.0
 22
148.5
 13
0.0
 23
0.0
 14
10.0
 24
10.0
 15
10.0
 25
10.0
 16
0.0
 26
0.0
 36
1.0
 17
0.0
 27
0.0
 37
0.0
 40
341.0
 41
1.24
 42
50.0
 43
0.0
 44
0.0
 50
0.0
 51
0.0
 71
     0
 72
   100
 73
     1
 74
     3
 75
     0
 76
     0
 77
     0
 78
     0
  0
ENDTAB
  0
TABLE
  2
LTYPE
  5
5
330
0
100
AcDbSymbolTable
 70
     1
  0
LTYPE
  5
14
330
5
100
AcDbSymbolTableRecord
100
AcDbLinetypeTableRecord
  2
BYBLOCK
 70
     0
  3

 72
    65
 73
     0
 40
0.0
  0
LTYPE
  5
15
330
5
100
AcDbSymbolTableRecord
100
AcDbLinetypeTableRecord
  2
BYLAYER
 70
     0
  3

 72
    65
 73
     0
 40
0.0
  0
LTYPE
  5
16
330
5
100
AcDbSymbolTableRecord
100
AcDbLinetypeTableRecord
  2
CONTINUOUS
 70
     0
  3
Solid line
 72
    65
 73
     0
 40
0.0
  0
ENDTAB
  0
TABLE
0
TABLE
2
LAYER
5
2
330
0
100
AcDbSymbolTable
70
1
0
LAYER
5
10
330
2
100
AcDbSymbolTableRecord
100
AcDbLayerTableRecord
2
Calque_1
70
0
62
7
6
CONTINUOUS
0
ENDTAB
0
ENDSEC
  0
ENDTAB
  0
TABLE
  2
STYLE
  5
3
330
0
100
AcDbSymbolTable
 70
     1
  0
STYLE
  5
11
330
3
100
AcDbSymbolTableRecord
100
AcDbTextStyleTableRecord
  2
STANDARD
 70
     0
 40
0.0
 41
1.0
 50
0.0
 71
     0
 42
2.5
  3
txt
  4

  0
ENDTAB
  0
TABLE
  2
VIEW
  5
6
330
0
100
AcDbSymbolTable
 70
     0
  0
ENDTAB
  0
TABLE
  2
UCS
  5
7
330
0
100
AcDbSymbolTable
 70
     0
  0
ENDTAB
  0
TABLE
  2
APPID
  5
9
330
0
100
AcDbSymbolTable
 70
     2
  0
APPID
  5
12
330
9
100
AcDbSymbolTableRecord
100
AcDbRegAppTableRecord
  2
ACAD
 70
     0
  0
ENDTAB
  0
TABLE
  2
DIMSTYLE
  5
A
330
0
100
AcDbSymbolTable
 70
     1
  0
DIMSTYLE
105
27
330
A
100
AcDbSymbolTableRecord
100
AcDbDimStyleTableRecord
  2
ISO-25
 70
     0
  3

  4

  5

  6

  7

 40
1.0
 41
2.5
 42
0.625
 43
3.75
 44
1.25
 45
0.0
 46
0.0
 47
0.0
 48
0.0
140
2.5
141
2.5
142
0.0
143
0.03937007874016
144
1.0
145
0.0
146
1.0
147
0.625
 71
     0
 72
     0
 73
     0
 74
     0
 75
     0
 76
     0
 77
     1
 78
     8
170
     0
171
     3
172
     1
173
     0
174
     0
175
     0
176
     0
177
     0
178
     0
270
     2
271
     2
272
     2
273
     2
274
     3
340
11
275
     0
280
     0
281
     0
282
     0
283
     0
284
     8
285
     0
286
     0
287
     3
288
     0
  0
ENDTAB
  0
TABLE
  2
BLOCK_RECORD
  5
1
330
0
100
AcDbSymbolTable
 70
     1
  0
BLOCK_RECORD
  5
1F
330
1
100
AcDbSymbolTableRecord
100
AcDbBlockTableRecord
  2
*MODEL_SPACE
  0
BLOCK_RECORD
  5
1B
330
1
100
AcDbSymbolTableRecord
100
AcDbBlockTableRecord
  2
*PAPER_SPACE
  0
ENDTAB
  0
ENDSEC
  0
SECTION
  2
BLOCKS
  0
BLOCK
  5
20
330
1F
100
AcDbEntity
  8
0
100
AcDbBlockBegin
  2
*MODEL_SPACE
 70
     0
 10
0.0
 20
0.0
 30
0.0
  3
*MODEL_SPACE
  1

  0
ENDBLK
  5
21
330
1F
100
AcDbEntity
  8
0
100
AcDbBlockEnd
  0
BLOCK
  5
1C
330
1B
100
AcDbEntity
 67
     1
  8
0
100
AcDbBlockBegin
  2
*PAPER_SPACE
  1

  0
ENDBLK
  5
1D
330
1B
100
AcDbEntity
 67
     1
  8
0
100
AcDbBlockEnd
  0
ENDSEC
  0
SECTION
  2
ENTITIES
0
DIMENSION
5
83
100
AcDbEntity
62
256
370
-1
6
ByLayer
1
total_width
3
Standard
70
0
71
5
72
1
41
1.0
100
AcDbAlignedDimension
13
12.296823
23
0.000000
33
0.0
14
139.296826
24
0.000000
34
0.0
50
0.000000
100
AcDbRotatedDimension
0
DIMENSION
5
83
100
AcDbEntity
62
256
370
-1
6
ByLayer
1
total_height
3
Standard
70
0
71
5
72
1
41
1.0
100
AcDbAlignedDimension
13
0.000000
23
159.052394
33
0.0
14
0.000000
24
286.052394
34
0.0
50
90.000000
100
AcDbRotatedDimension
0
DIMENSION
8
Calque_1
5
83
100
AcDbEntity
62
256
370
-1
6
ByLayer
1
Calque_1_width
3
Standard
70
0
71
5
72
1
41
1.0
100
AcDbAlignedDimension
13
12.296823
23
0.000000
33
0.0
14
139.296826
24
0.000000
34
0.0
50
0.000000
100
AcDbRotatedDimension
0
DIMENSION
8
Calque_1
5
83
100
AcDbEntity
62
256
370
-1
6
ByLayer
1
Calque_1_height
3
Standard
70
0
71
5
72
1
41
1.0
100
AcDbAlignedDimension
13
0.000000
23
159.052394
33
0.0
14
0.000000
24
286.052394
34
0.0
50
90.000000
100
AcDbRotatedDimension
0
LWPOLYLINE
100
AcDbPolyline
8
Calque_1
90
40
70
0
10
16.438990
20
159.736935
30
0.0
10
15.250056
20
160.403164
30
0.0
10
14.348404
20
161.130945
30
0.0
10
13.631642
20
162.022741
30
0.0
10
12.997380
20
163.181017
30
0.0
10
12.296823
20
164.661871
30
0.0
10
12.296823
20
222.552383
30
0.0
10
12.296823
20
280.442891
30
0.0
10
13.016712
20
281.964608
30
0.0
10
13.676793
20
283.113713
30
0.0
10
14.489437
20
284.074158
30
0.0
10
15.479358
20
284.870020
30
0.0
10
16.671267
20
285.525378
30
0.0
10
17.245089
20
285.688942
30
0.0
10
18.558854
20
285.813734
30
0.0
10
25.822765
20
285.968280
30
0.0
10
75.811970
20
286.046185
30
0.0
10
133.823778
20
286.052394
30
0.0
10
135.290746
20
285.321370
30
0.0
10
136.573056
20
284.506326
30
0.0
10
137.596062
20
283.573289
30
0.0
10
138.192620
20
282.908592
30
0.0
10
138.630999
20
281.993717
30
0.0
10
138.935436
20
279.959052
30
0.0
10
139.130170
20
275.934982
30
0.0
10
139.287479
20
258.440177
30
0.0
10
139.296826
20
222.552394
30
0.0
10
139.287479
20
186.664609
30
0.0
10
139.130170
20
169.169802
30
0.0
10
138.935436
20
165.145732
30
0.0
10
138.630999
20
163.111068
30
0.0
10
138.192620
20
162.196194
30
0.0
10
137.596062
20
161.531499
30
0.0
10
136.573056
20
160.598460
30
0.0
10
135.290746
20
159.783412
30
0.0
10
133.823778
20
159.052394
30
0.0
10
75.811970
20
159.061228
30
0.0
10
17.800156
20
159.070061
30
0.0
10
16.438990
20
159.736963
30
0.0
10
16.438990
20
159.736935
30
0.0
0
LWPOLYLINE
100
AcDbPolyline
8
Calque_1
90
26
70
0
10
134.648928
20
162.726687
30
0.0
10
135.230567
20
163.129785
30
0.0
10
135.673574
20
163.617884
30
0.0
10
135.996775
20
164.327770
30
0.0
10
136.218996
20
165.396225
30
0.0
10
136.435803
20
169.155981
30
0.0
10
136.474604
20
175.991425
30
0.0
10
136.474604
20
186.427938
30
0.0
10
75.796826
20
186.427938
30
0.0
10
15.119045
20
186.427938
30
0.0
10
15.130870
20
175.774049
30
0.0
10
15.169001
20
168.936056
30
0.0
10
15.375845
20
165.276097
30
0.0
10
15.595060
20
164.264351
30
0.0
10
15.919482
20
163.598877
30
0.0
10
16.370122
20
163.130263
30
0.0
10
16.967990
20
162.709097
30
0.0
10
17.394065
20
162.530839
30
0.0
10
18.494045
20
162.396064
30
0.0
10
25.324118
20
162.232542
30
0.0
10
75.763509
20
162.158684
30
0.0
10
126.483331
20
162.229367
30
0.0
10
133.169040
20
162.398509
30
0.0
10
134.220164
20
162.539445
30
0.0
10
134.648922
20
162.726687
30
0.0
10
134.648928
20
162.726687
30
0.0
0
LWPOLYLINE
100
AcDbPolyline
8
Calque_1
90
31
70
0
10
27.482018
20
166.491964
30
0.0
10
25.647574
20
167.245638
30
0.0
10
24.067691
20
168.658612
30
0.0
10
22.957377
20
170.178440
30
0.0
10
22.270665
20
171.887720
30
0.0
10
21.961590
20
173.869049
30
0.0
10
22.009497
20
175.624463
30
0.0
10
22.363586
20
177.249923
30
0.0
10
22.996239
20
178.713342
30
0.0
10
23.879837
20
179.982634
30
0.0
10
24.986758
20
181.025715
30
0.0
10
26.289384
20
181.810498
30
0.0
10
27.760095
20
182.304897
30
0.0
10
29.371270
20
182.476827
30
0.0
10
30.858436
20
182.336616
30
0.0
10
32.223763
20
181.928881
30
0.0
10
33.448187
20
181.272972
30
0.0
10
34.512642
20
180.388241
30
0.0
10
35.398061
20
179.294035
30
0.0
10
36.085378
20
178.009706
30
0.0
10
36.555529
20
176.554602
30
0.0
10
36.789447
20
174.948075
30
0.0
10
36.699883
20
172.919089
30
0.0
10
36.193423
20
171.067800
30
0.0
10
35.325106
20
169.444213
30
0.0
10
34.149970
20
168.098332
30
0.0
10
32.723054
20
167.080162
30
0.0
10
31.099398
20
166.439707
30
0.0
10
29.334040
20
166.226973
30
0.0
10
27.482018
20
166.491964
30
0.0
10
27.482018
20
166.491964
30
0.0
0
LWPOLYLINE
100
AcDbPolyline
8
Calque_1
90
30
70
0
10
30.734068
20
169.597339
30
0.0
10
31.665157
20
170.142557
30
0.0
10
32.434051
20
170.904181
30
0.0
10
33.027397
20
171.834346
30
0.0
10
33.431840
20
172.885189
30
0.0
10
33.634029
20
174.008844
30
0.0
10
33.620610
20
175.157448
30
0.0
10
33.378230
20
176.283136
30
0.0
10
32.893536
20
177.338043
30
0.0
10
32.190052
20
178.216769
30
0.0
10
31.334783
20
178.844430
30
0.0
10
30.378324
20
179.221026
30
0.0
10
29.371270
20
179.346559
30
0.0
10
28.364215
20
179.221026
30
0.0
10
27.407756
20
178.844430
30
0.0
10
26.552486
20
178.216769
30
0.0
10
25.849001
20
177.338043
30
0.0
10
25.369232
20
176.293850
30
0.0
10
25.127373
20
175.176396
30
0.0
10
25.110458
20
174.033468
30
0.0
10
25.305518
20
172.912856
30
0.0
10
25.699586
20
171.862350
30
0.0
10
26.279695
20
170.929739
30
0.0
10
27.032878
20
170.162811
30
0.0
10
27.946166
20
169.609356
30
0.0
10
28.690022
20
169.337374
30
0.0
10
29.331134
20
169.245018
30
0.0
10
29.976738
20
169.331825
30
0.0
10
30.734068
20
169.597334
30
0.0
10
30.734068
20
169.597339
30
0.0
0
LWPOLYLINE
100
AcDbPolyline
8
Calque_1
90
52
70
0
10
43.764604
20
166.240284
30
0.0
10
42.728021
20
166.506504
30
0.0
10
41.928360
20
166.848117
30
0.0
10
41.065083
20
167.436736
30
0.0
10
40.113525
20
168.492914
30
0.0
10
39.481111
20
169.737855
30
0.0
10
39.160665
20
171.097073
30
0.0
10
39.145006
20
172.496082
30
0.0
10
39.426959
20
173.860395
30
0.0
10
39.999344
20
175.115528
30
0.0
10
40.854984
20
176.186994
30
0.0
10
41.986700
20
177.000308
30
0.0
10
43.059699
20
177.286936
30
0.0
10
44.525062
20
177.376567
30
0.0
10
45.977109
20
177.271365
30
0.0
10
47.010159
20
176.973497
30
0.0
10
47.777892
20
176.685704
30
0.0
10
48.632937
20
176.560165
30
0.0
10
49.160659
20
176.531055
30
0.0
10
49.433243
20
176.371562
30
0.0
10
49.550159
20
175.139052
30
0.0
10
49.550159
20
173.727941
30
0.0
10
48.231826
20
173.727941
30
0.0
10
47.110900
20
173.854136
30
0.0
10
46.367751
20
174.221830
30
0.0
10
45.634852
20
174.587169
30
0.0
10
44.557205
20
174.715719
30
0.0
10
43.428611
20
174.529464
30
0.0
10
42.605355
20
173.980733
30
0.0
10
42.101262
20
173.084577
30
0.0
10
41.930159
20
171.856046
30
0.0
10
42.051383
20
170.932444
30
0.0
10
42.386442
20
170.158977
30
0.0
10
42.892412
20
169.555295
30
0.0
10
43.526374
20
169.141046
30
0.0
10
44.245405
20
168.935882
30
0.0
10
45.006584
20
168.959451
30
0.0
10
45.766989
20
169.231404
30
0.0
10
46.483699
20
169.771392
30
0.0
10
46.983072
20
170.238408
30
0.0
10
47.380153
20
170.450500
30
0.0
10
47.849520
20
170.450378
30
0.0
10
48.565754
20
170.280752
30
0.0
10
49.806581
20
169.948881
30
0.0
10
49.187515
20
168.847402
30
0.0
10
48.418238
20
167.877929
30
0.0
10
47.436526
20
167.095143
30
0.0
10
46.499372
20
166.671377
30
0.0
10
45.432676
20
166.354511
30
0.0
10
44.449925
20
166.194246
30
0.0
10
43.764604
20
166.240284
30
0.0
10
43.764604
20
166.240284
30
0.0
0
LWPOLYLINE
100
AcDbPolyline
8
Calque_1
90
50
70
0
10
54.630159
20
166.294789
30
0.0
10
53.389419
20
166.913004
30
0.0
10
52.947461
20
167.358310
30
0.0
10
52.610057
20
167.926161
30
0.0
10
52.205746
20
169.524735
30
0.0
10
52.090159
20
171.899203
30
0.0
10
52.001012
20
174.236507
30
0.0
10
51.791431
20
174.531423
30
0.0
10
51.384604
20
174.574602
30
0.0
10
51.000957
20
174.608998
30
0.0
10
50.788801
20
174.772158
30
0.0
10
50.679048
20
175.844602
30
0.0
10
50.787330
20
176.912093
30
0.0
10
50.991854
20
177.078349
30
0.0
10
51.358120
20
177.114602
30
0.0
10
51.724156
20
177.159627
30
0.0
10
51.955995
20
177.353037
30
0.0
10
52.232552
20
178.535029
30
0.0
10
52.372434
20
179.343382
30
0.0
10
52.597572
20
179.852710
30
0.0
10
53.034876
20
180.233552
30
0.0
10
53.811257
20
180.656449
30
0.0
10
55.194604
20
181.357446
30
0.0
10
55.194604
20
179.236027
30
0.0
10
55.194604
20
177.114605
30
0.0
10
56.182381
20
177.114605
30
0.0
10
56.751235
20
177.093817
30
0.0
10
57.044727
20
176.953336
30
0.0
10
57.153990
20
176.575990
30
0.0
10
57.170159
20
175.844605
30
0.0
10
57.153991
20
175.113221
30
0.0
10
57.044729
20
174.735875
30
0.0
10
56.751238
20
174.595394
30
0.0
10
56.182381
20
174.574605
30
0.0
10
55.194604
20
174.574605
30
0.0
10
55.142903
20
172.528494
30
0.0
10
55.146832
20
170.317190
30
0.0
10
55.356894
20
169.066155
30
0.0
10
55.566705
20
168.733084
30
0.0
10
55.861025
20
168.558896
30
0.0
10
56.747159
20
168.578924
30
0.0
10
57.278063
20
168.584378
30
0.0
10
57.456234
20
168.328062
30
0.0
10
57.622928
20
167.335421
30
0.0
10
57.670418
20
167.017921
30
0.0
10
57.581809
20
166.805343
30
0.0
10
56.842965
20
166.538242
30
0.0
10
55.476826
20
166.253079
30
0.0
10
54.630159
20
166.294789
30
0.0
10
54.630159
20
166.294789
30
0.0
0
LWPOLYLINE
100
AcDbPolyline
8
Calque_1
90
30
70
0
10
64.009981
20
166.378166
30
0.0
10
62.585483
20
166.936553
30
0.0
10
61.430389
20
167.808229
30
0.0
10
60.565036
20
168.923308
30
0.0
10
60.009760
20
170.211904
30
0.0
10
59.784900
20
171.604132
30
0.0
10
59.910792
20
173.030105
30
0.0
10
60.407774
20
174.419937
30
0.0
10
61.296183
20
175.703742
30
0.0
10
62.229755
20
176.548359
30
0.0
10
63.260718
20
177.084847
30
0.0
10
64.465707
20
177.340350
30
0.0
10
65.921362
20
177.342014
30
0.0
10
67.161033
20
177.111814
30
0.0
10
68.264778
20
176.631705
30
0.0
10
69.209322
20
175.935350
30
0.0
10
69.971392
20
175.056410
30
0.0
10
70.527711
20
174.028548
30
0.0
10
70.855006
20
172.885426
30
0.0
10
70.930002
20
171.660707
30
0.0
10
70.729424
20
170.388053
30
0.0
10
70.302728
20
169.363735
30
0.0
10
69.621301
20
168.339096
30
0.0
10
68.792396
20
167.450034
30
0.0
10
67.923266
20
166.832445
30
0.0
10
67.042340
20
166.506010
30
0.0
10
66.003947
20
166.310742
30
0.0
10
64.946892
20
166.262756
30
0.0
10
64.009981
20
166.378163
30
0.0
10
64.009981
20
166.378166
30
0.0
0
LWPOLYLINE
100
AcDbPolyline
8
Calque_1
90
22
70
0
10
67.114039
20
169.753676
30
0.0
10
67.871614
20
170.664930
30
0.0
10
68.035715
20
171.893494
30
0.0
10
67.871614
20
173.122055
30
0.0
10
67.114039
20
174.033308
30
0.0
10
66.367862
20
174.535101
30
0.0
10
65.589180
20
174.774017
30
0.0
10
64.819205
20
174.770102
30
0.0
10
64.099150
20
174.543401
30
0.0
10
63.470227
20
174.113961
30
0.0
10
62.973650
20
173.501827
30
0.0
10
62.650632
20
172.727045
30
0.0
10
62.542383
20
171.809660
30
0.0
10
62.672261
20
170.934760
30
0.0
10
63.010037
20
170.199646
30
0.0
10
63.514846
20
169.622696
30
0.0
10
64.145821
20
169.222290
30
0.0
10
64.862095
20
169.016806
30
0.0
10
65.622800
20
169.024624
30
0.0
10
66.387070
20
169.264121
30
0.0
10
67.114039
20
169.753676
30
0.0
10
67.114039
20
169.753676
30
0.0
0
LWPOLYLINE
100
AcDbPolyline
8
Calque_1
90
50
70
0
10
126.032381
20
166.294789
30
0.0
10
124.791641
20
166.913004
30
0.0
10
124.349683
20
167.358310
30
0.0
10
124.012279
20
167.926161
30
0.0
10
123.607968
20
169.524736
30
0.0
10
123.492381
20
171.899206
30
0.0
10
123.403234
20
174.236510
30
0.0
10
123.193654
20
174.531425
30
0.0
10
122.786826
20
174.574605
30
0.0
10
122.403180
20
174.609001
30
0.0
10
122.191023
20
174.772161
30
0.0
10
122.081270
20
175.844605
30
0.0
10
122.189552
20
176.912096
30
0.0
10
122.394076
20
177.078352
30
0.0
10
122.760342
20
177.114605
30
0.0
10
123.126378
20
177.159630
30
0.0
10
123.358217
20
177.353040
30
0.0
10
123.634774
20
178.535032
30
0.0
10
123.774656
20
179.343385
30
0.0
10
123.999794
20
179.852713
30
0.0
10
124.437099
20
180.233555
30
0.0
10
125.213480
20
180.656451
30
0.0
10
126.596826
20
181.357446
30
0.0
10
126.596826
20
179.236027
30
0.0
10
126.596826
20
177.114605
30
0.0
10
127.584604
20
177.114605
30
0.0
10
128.153458
20
177.093817
30
0.0
10
128.446949
20
176.953336
30
0.0
10
128.556212
20
176.575990
30
0.0
10
128.572381
20
175.844605
30
0.0
10
128.555906
20
175.116349
30
0.0
10
128.448580
20
174.738655
30
0.0
10
128.163554
20
174.596436
30
0.0
10
127.613977
20
174.574605
30
0.0
10
126.655573
20
174.574605
30
0.0
10
126.463501
20
172.387383
30
0.0
10
126.404777
20
170.851666
30
0.0
10
126.519393
20
169.675152
30
0.0
10
126.796398
20
168.912083
30
0.0
10
127.224841
20
168.616699
30
0.0
10
128.219604
20
168.636906
30
0.0
10
128.674180
20
168.567018
30
0.0
10
128.858456
20
168.315370
30
0.0
10
129.025150
20
167.335433
30
0.0
10
129.072640
20
167.017932
30
0.0
10
128.984031
20
166.805354
30
0.0
10
128.245187
20
166.538254
30
0.0
10
126.879048
20
166.253094
30
0.0
10
126.032381
20
166.294800
30
0.0
10
126.032381
20
166.294789
30
0.0
0
LWPOLYLINE
100
AcDbPolyline
8
Calque_1
90
40
70
0
10
73.256826
20
167.801272
30
0.0
10
73.362659
20
169.000715
30
0.0
10
73.574326
20
169.177105
30
0.0
10
73.962381
20
169.212383
30
0.0
10
74.667937
20
169.212383
30
0.0
10
74.667937
20
174.433494
30
0.0
10
74.667937
20
179.654605
30
0.0
10
73.962381
20
179.654605
30
0.0
10
73.578735
20
179.689001
30
0.0
10
73.366578
20
179.852161
30
0.0
10
73.256826
20
180.924605
30
0.0
10
73.256826
20
182.194605
30
0.0
10
77.542167
20
182.194605
30
0.0
10
81.279288
20
182.095599
30
0.0
10
82.236696
20
181.924700
30
0.0
10
82.991830
20
181.630965
30
0.0
10
84.172839
20
180.897399
30
0.0
10
84.959391
20
179.994634
30
0.0
10
85.397389
20
178.845760
30
0.0
10
85.532739
20
177.373866
30
0.0
10
85.390156
20
175.654880
30
0.0
10
85.143748
20
175.071085
30
0.0
10
84.719425
20
174.451147
30
0.0
10
83.928261
20
173.613080
30
0.0
10
82.972214
20
173.032859
30
0.0
10
81.721888
20
172.654252
30
0.0
10
80.047883
20
172.421026
30
0.0
10
78.054604
20
172.235773
30
0.0
10
78.054604
20
170.724078
30
0.0
10
78.158090
20
169.434107
30
0.0
10
78.369463
20
169.248289
30
0.0
10
78.760159
20
169.212383
30
0.0
10
79.148214
20
169.177105
30
0.0
10
79.359881
20
169.000715
30
0.0
10
79.465715
20
167.801272
30
0.0
10
79.465715
20
166.390160
30
0.0
10
76.361270
20
166.390160
30
0.0
10
73.256826
20
166.390160
30
0.0
10
73.256826
20
167.801272
30
0.0
10
73.256826
20
167.801272
30
0.0
0
LWPOLYLINE
100
AcDbPolyline
8
Calque_1
90
16
70
0
10
81.595208
20
175.831775
30
0.0
10
82.031422
20
176.431359
30
0.0
10
82.251560
20
177.112642
30
0.0
10
82.247638
20
177.824194
30
0.0
10
82.011672
20
178.514585
30
0.0
10
81.584701
20
178.953660
30
0.0
10
80.870407
20
179.316548
30
0.0
10
79.973895
20
179.563459
30
0.0
10
79.000268
20
179.654605
30
0.0
10
78.054604
20
179.654605
30
0.0
10
78.054604
20
177.396827
30
0.0
10
78.054604
20
175.139049
30
0.0
10
79.478542
20
175.139049
30
0.0
10
80.755544
20
175.278253
30
0.0
10
81.595208
20
175.831775
30
0.0
10
81.595208
20
175.831775
30
0.0
0
LWPOLYLINE
100
AcDbPolyline
8
Calque_1
90
41
70
0
10
87.367937
20
167.801272
30
0.0
10
87.480829
20
169.024234
30
0.0
10
87.733066
20
169.185924
30
0.0
10
88.214604
20
169.212383
30
0.0
10
89.061270
20
169.212383
30
0.0
10
89.061270
20
171.893494
30
0.0
10
89.061270
20
174.574605
30
0.0
10
88.214604
20
174.574605
30
0.0
10
87.738353
20
174.601063
30
0.0
10
87.485529
20
174.750993
30
0.0
10
87.367937
20
175.844605
30
0.0
10
87.367937
20
177.114605
30
0.0
10
89.602197
20
177.114605
30
0.0
10
91.319709
20
177.029334
30
0.0
10
91.952942
20
176.765146
30
0.0
10
92.200762
20
176.556796
30
0.0
10
92.836407
20
176.765146
30
0.0
10
93.871601
20
177.011950
30
0.0
10
95.283438
20
177.114605
30
0.0
10
96.963492
20
177.114605
30
0.0
10
96.963492
20
175.280160
30
0.0
10
96.963492
20
173.445716
30
0.0
10
95.693492
20
173.445716
30
0.0
10
94.652798
20
173.547630
30
0.0
10
94.469795
20
173.719119
30
0.0
10
94.423492
20
174.010160
30
0.0
10
94.264742
20
174.447605
30
0.0
10
93.717937
20
174.574605
30
0.0
10
92.868751
20
174.399249
30
0.0
10
92.300667
20
173.836527
30
0.0
10
91.982607
20
172.831455
30
0.0
10
91.883492
20
171.329049
30
0.0
10
91.883492
20
169.212383
30
0.0
10
93.012381
20
169.212383
30
0.0
10
94.141270
20
169.212383
30
0.0
10
94.141270
20
167.801272
30
0.0
10
94.141270
20
166.390160
30
0.0
10
90.754604
20
166.390160
30
0.0
10
87.367937
20
166.390160
30
0.0
10
87.367937
20
167.801272
30
0.0
10
87.367937
20
167.801272
30
0.0
0
LWPOLYLINE
100
AcDbPolyline
8
Calque_1
90
25
70
0
10
99.221270
20
167.801272
30
0.0
10
99.334163
20
169.024234
30
0.0
10
99.586399
20
169.185924
30
0.0
10
100.067937
20
169.212383
30
0.0
10
100.914604
20
169.212383
30
0.0
10
100.914604
20
171.893494
30
0.0
10
100.914604
20
174.574605
30
0.0
10
100.067937
20
174.574605
30
0.0
10
99.591687
20
174.601063
30
0.0
10
99.338863
20
174.750993
30
0.0
10
99.221270
20
175.844605
30
0.0
10
99.221270
20
177.114605
30
0.0
10
101.479048
20
177.114605
30
0.0
10
103.736826
20
177.114605
30
0.0
10
103.736826
20
173.163494
30
0.0
10
103.736826
20
169.212383
30
0.0
10
104.442381
20
169.212383
30
0.0
10
104.830437
20
169.177105
30
0.0
10
105.042103
20
169.000715
30
0.0
10
105.147937
20
167.801272
30
0.0
10
105.147937
20
166.390160
30
0.0
10
102.184604
20
166.390160
30
0.0
10
99.221270
20
166.390160
30
0.0
10
99.221270
20
167.801272
30
0.0
10
99.221270
20
167.801272
30
0.0
0
LWPOLYLINE
100
AcDbPolyline
8
Calque_1
90
55
70
0
10
107.405715
20
167.801272
30
0.0
10
107.518607
20
169.024234
30
0.0
10
107.770844
20
169.185924
30
0.0
10
108.252381
20
169.212383
30
0.0
10
109.099048
20
169.212383
30
0.0
10
109.099048
20
171.893494
30
0.0
10
109.099048
20
174.574605
30
0.0
10
108.252381
20
174.574605
30
0.0
10
107.776131
20
174.601063
30
0.0
10
107.523307
20
174.750993
30
0.0
10
107.405715
20
175.844605
30
0.0
10
107.405715
20
177.114605
30
0.0
10
109.633298
20
177.114605
30
0.0
10
111.418532
20
177.025863
30
0.0
10
111.834935
20
176.898067
30
0.0
10
112.020110
20
176.699662
30
0.0
10
112.146222
20
176.505363
30
0.0
10
112.368725
20
176.458358
30
0.0
10
113.390861
20
176.834573
30
0.0
10
114.469648
20
177.218605
30
0.0
10
115.497243
20
177.365980
30
0.0
10
116.481606
20
177.276930
30
0.0
10
117.430700
20
176.951686
30
0.0
10
118.307698
20
176.333863
30
0.0
10
118.870491
20
175.383812
30
0.0
10
119.170475
20
173.960125
30
0.0
10
119.259048
20
171.921394
30
0.0
10
119.259048
20
169.212383
30
0.0
10
120.105715
20
169.212383
30
0.0
10
120.587256
20
169.185924
30
0.0
10
120.839492
20
169.024234
30
0.0
10
120.952381
20
167.801272
30
0.0
10
120.952381
20
166.390160
30
0.0
10
118.717032
20
166.390160
30
0.0
10
116.481682
20
166.390160
30
0.0
10
116.388698
20
170.049776
30
0.0
10
116.219885
20
173.103599
30
0.0
10
116.056405
20
173.804207
30
0.0
10
115.805859
20
174.198439
30
0.0
10
115.127543
20
174.587540
30
0.0
10
114.273206
20
174.681377
30
0.0
10
113.392366
20
174.488488
30
0.0
10
112.634542
20
174.017408
30
0.0
10
112.254363
20
173.596851
30
0.0
10
112.039035
20
173.116608
30
0.0
10
111.921270
20
171.279852
30
0.0
10
111.921270
20
169.212380
30
0.0
10
112.909048
20
169.212380
30
0.0
10
113.896826
20
169.212380
30
0.0
10
113.896826
20
167.801269
30
0.0
10
113.896826
20
166.390158
30
0.0
10
110.651270
20
166.390158
30
0.0
10
107.405715
20
166.390158
30
0.0
10
107.405715
20
167.801269
30
0.0
10
107.405715
20
167.801272
30
0.0
0
LWPOLYLINE
100
AcDbPolyline
8
Calque_1
90
18
70
0
10
101.439991
20
179.377361
30
0.0
10
101.008230
20
179.819977
30
0.0
10
100.786572
20
180.449843
30
0.0
10
100.793962
20
181.149417
30
0.0
10
101.049342
20
181.801156
30
0.0
10
101.647229
20
182.306152
30
0.0
10
102.437329
20
182.503121
30
0.0
10
103.202824
20
182.381553
30
0.0
10
103.726897
20
181.930936
30
0.0
10
103.960758
20
181.309805
30
0.0
10
103.992014
20
180.712381
30
0.0
10
103.822639
20
180.155151
30
0.0
10
103.454604
20
179.654605
30
0.0
10
102.984791
20
179.293662
30
0.0
10
102.491978
20
179.127079
30
0.0
10
101.976825
20
179.154949
30
0.0
10
101.439991
20
179.377361
30
0.0
10
101.439991
20
179.377361
30
0.0
0
LWPOLYLINE
100
AcDbPolyline
8
Calque_1
90
22
70
0
10
136.404914
20
233.949013
30
0.0
10
136.386252
20
267.998876
30
0.0
10
136.189311
20
280.137120
30
0.0
10
135.703842
20
281.148710
30
0.0
10
134.908626
20
282.075490
30
0.0
10
133.914964
20
282.947935
30
0.0
10
75.808659
20
282.947935
30
0.0
10
17.702355
20
282.947935
30
0.0
10
16.795659
20
282.185004
30
0.0
10
16.210606
20
281.727219
30
0.0
10
15.779876
20
281.033817
30
0.0
10
15.479947
20
279.433285
30
0.0
10
15.287297
20
276.254110
30
0.0
10
15.129745
20
262.473776
30
0.0
10
15.119045
20
234.320708
30
0.0
10
15.174503
20
202.301295
30
0.0
10
15.307840
20
188.873216
30
0.0
10
33.189089
20
188.760795
30
0.0
10
75.915063
20
188.755625
30
0.0
10
136.333492
20
188.826827
30
0.0
10
136.404914
20
233.949013
30
0.0
10
136.404914
20
233.949013
30
0.0
0
LWPOLYLINE
100
AcDbPolyline
8
Calque_1
90
425
70
0
10
55.335715
20
193.015149
30
0.0
10
53.679948
20
193.679003
30
0.0
10
52.227131
20
194.504003
30
0.0
10
50.983225
20
195.482409
30
0.0
10
49.954186
20
196.606483
30
0.0
10
49.145975
20
197.868486
30
0.0
10
48.564549
20
199.260680
30
0.0
10
48.215866
20
200.775326
30
0.0
10
48.105887
20
202.404685
30
0.0
10
48.344346
20
204.362592
30
0.0
10
49.048297
20
206.441319
30
0.0
10
50.239338
20
208.690184
30
0.0
10
51.939066
20
211.158504
30
0.0
10
52.105898
20
211.542432
30
0.0
10
51.835450
20
211.711324
30
0.0
10
49.829596
20
211.423215
30
0.0
10
48.491422
20
211.190375
30
0.0
10
47.291289
20
211.138806
30
0.0
10
46.214500
20
211.275411
30
0.0
10
45.246358
20
211.607093
30
0.0
10
44.372167
20
212.140755
30
0.0
10
43.577229
20
212.883300
30
0.0
10
42.846849
20
213.841631
30
0.0
10
42.166328
20
215.022651
30
0.0
10
41.743505
20
216.217302
30
0.0
10
41.630320
20
217.478000
30
0.0
10
41.805384
20
218.758604
30
0.0
10
42.247310
20
220.012973
30
0.0
10
42.934710
20
221.194965
30
0.0
10
43.846195
20
222.258438
30
0.0
10
44.960379
20
223.157251
30
0.0
10
46.255872
20
223.845262
30
0.0
10
47.186043
20
224.324708
30
0.0
10
47.573545
20
224.716923
30
0.0
10
47.143884
20
225.093009
30
0.0
10
46.109407
20
225.533677
30
0.0
10
44.787811
20
226.188025
30
0.0
10
43.461463
20
227.218431
30
0.0
10
42.274731
20
228.492511
30
0.0
10
41.371980
20
229.877881
30
0.0
10
40.997632
20
230.857846
30
0.0
10
40.783660
20
231.968275
30
0.0
10
40.807265
20
234.353261
30
0.0
10
41.030054
20
235.514187
30
0.0
10
41.383641
20
236.578312
30
0.0
10
41.860631
20
237.488823
30
0.0
10
42.453631
20
238.188902
30
0.0
10
42.881207
20
238.670914
30
0.0
10
43.059048
20
239.074826
30
0.0
10
41.925649
20
241.359418
30
0.0
10
40.751126
20
243.680311
30
0.0
10
39.518855
20
246.541272
30
0.0
10
38.089440
20
249.923729
30
0.0
10
36.887569
20
251.916765
30
0.0
10
36.272391
20
252.511060
30
0.0
10
35.594611
20
252.900574
30
0.0
10
33.891931
20
253.255355
30
0.0
10
32.275425
20
253.202097
30
0.0
10
30.492638
20
252.485295
30
0.0
10
29.336249
20
251.810472
30
0.0
10
28.330961
20
250.999313
30
0.0
10
27.477160
20
250.052531
30
0.0
10
26.775235
20
248.970837
30
0.0
10
26.225573
20
247.754942
30
0.0
10
25.828563
20
246.405560
30
0.0
10
25.584591
20
244.923403
30
0.0
10
25.494047
20
243.309181
30
0.0
10
25.473445
20
240.782648
30
0.0
10
24.541051
20
241.861262
30
0.0
10
23.646827
20
243.138230
30
0.0
10
23.077965
20
244.569564
30
0.0
10
22.807625
20
246.254941
30
0.0
10
22.808971
20
248.294035
30
0.0
10
23.114456
20
250.748654
30
0.0
10
24.023997
20
252.978947
30
0.0
10
25.037971
20
254.712964
30
0.0
10
26.267006
20
256.267660
30
0.0
10
27.685568
20
257.627043
30
0.0
10
29.268123
20
258.775124
30
0.0
10
30.989137
20
259.695911
30
0.0
10
32.823076
20
260.373414
30
0.0
10
34.744406
20
260.791642
30
0.0
10
36.727593
20
260.934605
30
0.0
10
37.876033
20
260.899488
30
0.0
10
38.792729
20
260.748106
30
0.0
10
40.986524
20
259.820372
30
0.0
10
43.614518
20
258.231003
30
0.0
10
46.002513
20
256.126441
30
0.0
10
48.392521
20
253.254625
30
0.0
10
51.026554
20
249.363494
30
0.0
10
52.441496
20
247.264039
30
0.0
10
53.703240
20
245.688255
30
0.0
10
54.831998
20
244.613736
30
0.0
10
55.847979
20
244.018075
30
0.0
10
56.791668
20
243.823859
30
0.0
10
58.105508
20
243.733021
30
0.0
10
59.450157
20
243.754424
30
0.0
10
60.486273
20
243.896931
30
0.0
10
60.855085
20
244.082529
30
0.0
10
61.065379
20
244.404506
30
0.0
10
61.115067
20
244.870309
30
0.0
10
61.002057
20
245.487385
30
0.0
10
60.279592
20
247.205143
30
0.0
10
58.881267
20
249.617358
30
0.0
10
56.840460
20
253.173030
30
0.0
10
55.615513
20
256.136827
30
0.0
10
55.053052
20
257.481168
30
0.0
10
54.408234
20
258.533594
30
0.0
10
53.552365
20
259.753124
30
0.0
10
52.977695
20
261.059084
30
0.0
10
52.652780
20
262.549219
30
0.0
10
52.546171
20
264.321272
30
0.0
10
52.674622
20
266.564529
30
0.0
10
53.318706
20
268.227286
30
0.0
10
54.671036
20
270.300927
30
0.0
10
56.343697
20
271.952871
30
0.0
10
58.304640
20
273.157919
30
0.0
10
60.521810
20
273.890868
30
0.0
10
62.067415
20
274.407695
30
0.0
10
63.652900
20
275.204477
30
0.0
10
66.469508
20
276.611100
30
0.0
10
69.619115
20
277.549397
30
0.0
10
73.139097
20
278.027304
30
0.0
10
77.066829
20
278.052757
30
0.0
10
80.347394
20
277.722332
30
0.0
10
83.305711
20
277.061838
30
0.0
10
85.931531
20
276.074301
30
0.0
10
88.214606
20
274.762746
30
0.0
10
89.146382
20
274.322639
30
0.0
10
90.395829
20
273.956538
30
0.0
10
92.766278
20
273.203309
30
0.0
10
94.770579
20
272.027241
30
0.0
10
96.411510
20
270.426217
30
0.0
10
97.691852
20
268.398118
30
0.0
10
98.371579
20
266.594030
30
0.0
10
98.515718
20
264.321272
30
0.0
10
98.445578
20
262.604088
30
0.0
10
98.188179
20
261.248232
30
0.0
10
97.673054
20
260.017784
30
0.0
10
96.829733
20
258.676827
30
0.0
10
96.056686
20
257.323924
30
0.0
10
95.444666
20
255.854605
30
0.0
10
94.622687
20
253.945499
30
0.0
10
93.344850
20
251.535233
30
0.0
10
90.727988
20
246.912166
30
0.0
10
90.261211
20
245.908836
30
0.0
10
90.056741
20
245.202138
30
0.0
10
90.025529
20
244.385595
30
0.0
10
90.661939
20
243.978578
30
0.0
10
91.773714
20
243.791090
30
0.0
10
93.325798
20
243.772491
30
0.0
10
95.170054
20
244.049091
30
0.0
10
95.934042
20
244.372345
30
0.0
10
96.662304
20
244.877368
30
0.0
10
98.220741
20
246.608118
30
0.0
10
100.263556
20
249.592136
30
0.0
10
102.386896
20
252.758537
30
0.0
10
104.073907
20
254.999869
30
0.0
10
105.589334
20
256.636740
30
0.0
10
107.197920
20
257.989757
30
0.0
10
109.182635
20
259.357125
30
0.0
10
110.955314
20
260.268467
30
0.0
10
112.644807
20
260.776609
30
0.0
10
114.379965
20
260.934382
30
0.0
10
115.845685
20
260.854254
30
0.0
10
117.294759
20
260.617457
30
0.0
10
118.713727
20
260.230004
30
0.0
10
120.089132
20
259.697908
30
0.0
10
121.407517
20
259.027184
30
0.0
10
122.655424
20
258.223845
30
0.0
10
123.819395
20
257.293905
30
0.0
10
124.885972
20
256.243377
30
0.0
10
125.769574
20
255.155433
30
0.0
10
126.552879
20
253.949153
30
0.0
10
127.769199
20
251.320920
30
0.0
10
128.436136
20
248.637341
30
0.0
10
128.532712
20
247.361877
30
0.0
10
128.454892
20
246.177075
30
0.0
10
128.146608
20
244.946956
30
0.0
10
127.626328
20
243.622724
30
0.0
10
127.005158
20
242.447656
30
0.0
10
126.394204
20
241.665028
30
0.0
10
126.067478
20
241.419200
30
0.0
10
125.882857
20
241.546725
30
0.0
10
125.680137
20
243.640583
30
0.0
10
125.406995
20
245.941155
30
0.0
10
124.865057
20
247.853440
30
0.0
10
124.013521
20
249.481092
30
0.0
10
122.811585
20
250.927767
30
0.0
10
121.671890
20
251.890249
30
0.0
10
120.450077
20
252.607733
30
0.0
10
119.190373
20
253.076967
30
0.0
10
117.937002
20
253.294696
30
0.0
10
116.734190
20
253.257666
30
0.0
10
115.626161
20
252.962624
30
0.0
10
114.657140
20
252.406317
30
0.0
10
113.871352
20
251.585491
30
0.0
10
113.012497
20
249.881948
30
0.0
10
111.760375
20
246.927648
30
0.0
10
109.651582
20
242.152031
30
0.0
10
108.811664
20
240.619959
30
0.0
10
108.235084
20
239.898356
30
0.0
10
108.007310
20
239.621351
30
0.0
10
108.012473
20
239.228442
30
0.0
10
108.704129
20
238.159701
30
0.0
10
109.516881
20
237.155184
30
0.0
10
110.016030
20
236.143370
30
0.0
10
110.270773
20
234.919001
30
0.0
10
110.350308
20
233.276824
30
0.0
10
110.234798
20
231.052291
30
0.0
10
109.998314
20
230.322299
30
0.0
10
109.577519
20
229.531366
30
0.0
10
108.649760
20
228.162823
30
0.0
10
107.631174
20
227.081814
30
0.0
10
106.480629
20
226.252108
30
0.0
10
105.156993
20
225.637475
30
0.0
10
103.954683
20
225.098964
30
0.0
10
103.454606
20
224.675905
30
0.0
10
103.765492
20
224.341500
30
0.0
10
104.512940
20
224.016145
30
0.0
10
105.574868
20
223.560166
30
0.0
10
106.576521
20
222.875553
30
0.0
10
107.485776
20
222.009725
30
0.0
10
108.270509
20
221.010104
30
0.0
10
108.898598
20
219.924108
30
0.0
10
109.337919
20
218.799159
30
0.0
10
109.556351
20
217.682676
30
0.0
10
109.521769
20
216.622078
30
0.0
10
109.092874
20
215.382304
30
0.0
10
108.327611
20
213.975488
30
0.0
10
106.965528
20
212.399727
30
0.0
10
106.194018
20
211.845468
30
0.0
10
105.360961
20
211.446497
30
0.0
10
104.465429
20
211.202470
30
0.0
10
103.506497
20
211.113041
30
0.0
10
101.394726
20
211.396601
30
0.0
10
99.885201
20
211.750275
30
0.0
10
99.467992
20
211.773691
30
0.0
10
99.261133
20
211.670857
30
0.0
10
99.434410
20
211.014541
30
0.0
10
100.316919
20
209.637521
30
0.0
10
102.055849
20
206.685472
30
0.0
10
102.561634
20
205.391528
30
0.0
10
102.915305
20
204.023800
30
0.0
10
103.072879
20
202.781050
30
0.0
10
103.044952
20
201.520728
30
0.0
10
102.840339
20
200.266214
30
0.0
10
102.467853
20
199.040886
30
0.0
10
101.936308
20
197.868124
30
0.0
10
101.254517
20
196.771308
30
0.0
10
100.431294
20
195.773817
30
0.0
10
99.475454
20
194.899030
30
0.0
10
98.280907
20
194.099298
30
0.0
10
96.959828
20
193.471251
30
0.0
10
95.551009
20
193.019599
30
0.0
10
94.093240
20
192.749054
30
0.0
10
92.625315
20
192.664326
30
0.0
10
91.186023
20
192.770125
30
0.0
10
89.814158
20
193.071162
30
0.0
10
88.548509
20
193.572148
30
0.0
10
87.091131
20
194.441651
30
0.0
10
85.696384
20
195.517422
30
0.0
10
84.518582
20
196.666034
30
0.0
10
83.712036
20
197.754058
30
0.0
10
83.113705
20
198.818642
30
0.0
10
85.170267
20
197.876221
30
0.0
10
86.851167
20
197.184170
30
0.0
10
88.418146
20
196.696630
30
0.0
10
89.858181
20
196.413360
30
0.0
10
91.158252
20
196.334118
30
0.0
10
92.305339
20
196.458664
30
0.0
10
93.286421
20
196.786757
30
0.0
10
94.088476
20
197.318155
30
0.0
10
94.698484
20
198.052618
30
0.0
10
95.139704
20
199.189906
30
0.0
10
95.268669
20
200.821269
30
0.0
10
95.108619
20
202.617897
30
0.0
10
94.514221
20
204.035689
30
0.0
10
93.316009
20
205.331100
30
0.0
10
91.344519
20
206.760587
30
0.0
10
90.679075
20
207.196573
30
0.0
10
91.956845
20
209.062945
30
0.0
10
93.521565
20
211.835014
30
0.0
10
94.718739
20
215.007502
30
0.0
10
94.811916
20
215.456436
30
0.0
10
94.702138
20
215.781378
30
0.0
10
93.501218
20
216.522917
30
0.0
10
91.648065
20
217.239116
30
0.0
10
89.306211
20
217.805695
30
0.0
10
86.705285
20
218.178991
30
0.0
10
84.074912
20
218.315338
30
0.0
10
81.949083
20
218.351175
30
0.0
10
80.841982
20
218.484172
30
0.0
10
80.620415
20
218.602305
30
0.0
10
80.593482
20
218.762967
30
0.0
10
81.043453
20
219.236204
30
0.0
10
82.562327
20
220.077999
30
0.0
10
85.146495
20
221.230628
30
0.0
10
88.065131
20
222.387380
30
0.0
10
90.587407
20
223.241547
30
0.0
10
92.840401
20
223.891990
30
0.0
10
92.009172
20
224.313339
30
0.0
10
90.049051
20
225.088640
30
0.0
10
87.659522
20
226.099422
30
0.0
10
85.528957
20
227.539622
30
0.0
10
83.693897
20
229.379020
30
0.0
10
82.190884
20
231.587397
30
0.0
10
81.388269
20
233.030969
30
0.0
10
82.809142
20
232.310958
30
0.0
10
85.072554
20
231.405536
30
0.0
10
87.677565
20
230.698047
30
0.0
10
90.039669
20
230.316627
30
0.0
10
91.574360
20
230.389414
30
0.0
10
91.922789
20
230.548761
30
0.0
10
91.989730
20
230.774698
30
0.0
10
91.109444
20
232.022426
30
0.0
10
89.909738
20
233.393211
30
0.0
10
88.536769
20
234.709830
30
0.0
10
87.071323
20
235.900910
30
0.0
10
85.594182
20
236.895080
30
0.0
10
84.042514
20
237.686802
30
0.0
10
82.211322
20
238.432427
30
0.0
10
80.497407
20
238.986482
30
0.0
10
79.297572
20
239.203494
30
0.0
10
78.619051
20
239.316603
30
0.0
10
79.754789
20
241.644936
30
0.0
10
80.722389
20
243.787695
30
0.0
10
81.631541
20
246.213815
30
0.0
10
82.306159
20
248.409451
30
0.0
10
82.570162
20
249.860755
30
0.0
10
82.570162
20
250.633491
30
0.0
10
75.514606
20
250.633491
30
0.0
10
69.606374
20
250.558312
30
0.0
10
68.668811
20
250.418888
30
0.0
10
68.459051
20
250.171174
30
0.0
10
68.890654
20
248.073288
30
0.0
10
69.932807
20
245.029768
30
0.0
10
71.206522
20
242.029647
30
0.0
10
72.332810
20
240.061955
30
0.0
10
72.905628
20
239.368199
30
0.0
10
70.943456
20
238.869899
30
0.0
10
68.115117
20
237.879272
30
0.0
10
65.405804
20
236.403924
30
0.0
10
62.928808
20
234.517295
30
0.0
10
60.797417
20
232.292825
30
0.0
10
59.756889
20
230.867403
30
0.0
10
59.712649
20
230.568827
30
0.0
10
59.921583
20
230.408261
30
0.0
10
61.291826
20
230.355818
30
0.0
10
63.475259
20
230.721746
30
0.0
10
65.894548
20
231.377850
30
0.0
10
67.972359
20
232.195933
30
0.0
10
69.334130
20
232.813654
30
0.0
10
69.415063
20
232.716082
30
0.0
10
69.242359
20
232.367298
30
0.0
10
68.523671
20
231.495593
30
0.0
10
68.314877
20
231.261773
30
0.0
10
68.316608
20
231.021203
30
0.0
10
68.326649
20
230.787917
30
0.0
10
68.137826
20
230.571611
30
0.0
10
67.946048
20
230.513664
30
0.0
10
68.046287
20
230.763774
30
0.0
10
68.155782
20
231.018603
30
0.0
10
67.807671
20
230.772833
30
0.0
10
67.340879
20
230.134734
30
0.0
10
67.395362
20
229.979471
30
0.0
10
67.667889
20
230.065584
30
0.0
10
67.818495
20
230.115361
30
0.0
10
67.787574
20
229.980277
30
0.0
10
67.317314
20
229.323296
30
0.0
10
65.696279
20
227.636424
30
0.0
10
64.638365
20
226.870724
30
0.0
10
63.369289
20
226.167080
30
0.0
10
59.851273
20
224.776480
30
0.0
10
58.074140
20
224.103658
30
0.0
10
58.039620
20
223.948601
30
0.0
10
58.440162
20
223.823771
30
0.0
10
61.148218
20
223.060749
30
0.0
10
64.231955
20
221.965610
30
0.0
10
67.197822
20
220.728619
30
0.0
10
69.552267
20
219.540039
30
0.0
10
70.381539
20
218.942304
30
0.0
10
70.469198
20
218.731078
30
0.0
10
70.323916
20
218.570557
30
0.0
10
69.289664
20
218.378460
30
0.0
10
67.189051
20
218.319673
30
0.0
10
64.653436
20
218.180364
30
0.0
10
62.047387
20
217.814258
30
0.0
10
59.686464
20
217.278644
30
0.0
10
57.886225
20
216.630807
30
0.0
10
56.649295
20
216.032019
30
0.0
10
57.297836
20
214.141650
30
0.0
10
58.343955
20
211.432022
30
0.0
10
59.212020
20
209.711277
30
0.0
10
60.129242
20
208.541647
30
0.0
10
60.839051
20
207.394478
30
0.0
10
60.538825
20
207.067847
30
0.0
10
59.817003
20
206.647332
30
0.0
10
57.909438
20
205.479255
30
0.0
10
57.190063
20
204.808710
30
0.0
10
56.623294
20
204.074775
30
0.0
10
56.206383
20
203.273156
30
0.0
10
55.936581
20
202.399564
30
0.0
10
55.827309
20
200.419297
30
0.0
10
56.019117
20
199.153068
30
0.0
10
56.379463
20
198.130041
30
0.0
10
56.920456
20
197.343785
30
0.0
10
57.654204
20
196.787874
30
0.0
10
58.592814
20
196.455879
30
0.0
10
59.748394
20
196.341371
30
0.0
10
61.133051
20
196.437923
30
0.0
10
62.758893
20
196.739105
30
0.0
10
64.570508
20
197.276770
30
0.0
10
66.271829
20
197.960879
30
0.0
10
67.894606
20
198.663206
30
0.0
10
67.377273
20
197.726454
30
0.0
10
66.471082
20
196.625319
30
0.0
10
65.091788
20
195.346399
30
0.0
10
63.573626
20
194.172626
30
0.0
10
62.250834
20
193.386929
30
0.0
10
60.728289
20
192.954030
30
0.0
10
58.806002
20
192.733669
30
0.0
10
56.877352
20
192.746994
30
0.0
10
55.335718
20
193.015154
30
0.0
10
55.335715
20
193.015149
30
0.0
0
LWPOLYLINE
100
AcDbPolyline
8
Calque_1
90
7
70
0
10
57.099604
20
224.158035
30
0.0
10
56.111826
20
224.158035
30
0.0
10
56.053176
20
224.066882
30
0.0
10
56.605715
20
224.028969
30
0.0
10
57.158253
20
224.066882
30
0.0
10
57.099604
20
224.158035
30
0.0
10
57.099604
20
224.158035
30
0.0
0
LWPOLYLINE
100
AcDbPolyline
8
Calque_1
90
9
70
0
10
54.912381
20
224.527938
30
0.0
10
54.074534
20
224.709398
30
0.0
10
52.654604
20
224.761500
30
0.0
10
50.820159
20
224.721483
30
0.0
10
52.231270
20
224.527938
30
0.0
10
54.620624
20
224.290607
30
0.0
10
55.024474
20
224.349940
30
0.0
10
54.912381
20
224.527938
30
0.0
10
54.912381
20
224.527938
30
0.0
0
LWPOLYLINE
100
AcDbPolyline
8
Calque_1
90
7
70
0
10
56.529788
20
225.005738
30
0.0
10
55.683122
20
224.995267
30
0.0
10
55.686474
20
224.899067
30
0.0
10
56.182381
20
224.865163
30
0.0
10
56.633683
20
224.910769
30
0.0
10
56.529788
20
225.005724
30
0.0
10
56.529788
20
225.005738
30
0.0
0
LWPOLYLINE
100
AcDbPolyline
8
Calque_1
90
7
70
0
10
58.369604
20
225.279293
30
0.0
10
57.664048
20
225.279293
30
0.0
10
57.622156
20
225.178757
30
0.0
10
58.016826
20
225.136940
30
0.0
10
58.411496
20
225.178757
30
0.0
10
58.369604
20
225.279293
30
0.0
10
58.369604
20
225.279293
30
0.0
0
LWPOLYLINE
100
AcDbPolyline
8
Calque_1
90
7
70
0
10
60.662958
20
225.829680
30
0.0
10
61.890052
20
226.393227
30
0.0
10
60.251978
20
225.958774
30
0.0
10
59.260561
20
225.569275
30
0.0
10
59.024884
20
225.395227
30
0.0
10
60.662958
20
225.829680
30
0.0
10
60.662958
20
225.829680
30
0.0
0
LWPOLYLINE
100
AcDbPolyline
8
Calque_1
90
11
70
0
10
64.383429
20
227.506893
30
0.0
10
66.575938
20
229.051277
30
0.0
10
67.217785
20
229.650056
30
0.0
10
67.328741
20
229.826337
30
0.0
10
67.263010
20
229.890160
30
0.0
10
66.083804
20
229.026397
30
0.0
10
63.604541
20
227.338174
30
0.0
10
62.636128
20
226.754401
30
0.0
10
62.407873
20
226.508605
30
0.0
10
64.383429
20
227.506893
30
0.0
10
64.383429
20
227.506893
30
0.0
0
LWPOLYLINE
100
AcDbPolyline
8
Calque_1
90
65
70
0
10
61.088990
20
256.700848
30
0.0
10
60.225234
20
257.357044
30
0.0
10
59.599401
20
258.242486
30
0.0
10
59.257653
20
259.266097
30
0.0
10
59.246152
20
260.336799
30
0.0
10
59.641963
20
261.372768
30
0.0
10
60.393352
20
262.288844
30
0.0
10
61.345950
20
262.942793
30
0.0
10
62.345389
20
263.192383
30
0.0
10
63.083397
20
263.091520
30
0.0
10
63.783892
20
262.809835
30
0.0
10
64.420946
20
262.378681
30
0.0
10
64.968635
20
261.829413
30
0.0
10
65.401034
20
261.193385
30
0.0
10
65.692215
20
260.501950
30
0.0
10
65.816254
20
259.786463
30
0.0
10
65.747225
20
259.078277
30
0.0
10
65.577772
20
258.622699
30
0.0
10
65.376316
20
258.422260
30
0.0
10
65.166089
20
258.484745
30
0.0
10
64.970321
20
258.817938
30
0.0
10
64.603649
20
259.131029
30
0.0
10
63.964110
20
259.230813
30
0.0
10
63.258509
20
259.119122
30
0.0
10
62.693652
20
258.797788
30
0.0
10
62.372898
20
258.345794
30
0.0
10
62.283356
20
257.859937
30
0.0
10
62.425218
20
257.336517
30
0.0
10
62.798675
20
256.771833
30
0.0
10
63.214970
20
256.411219
30
0.0
10
63.721800
20
256.207158
30
0.0
10
64.958686
20
256.256333
30
0.0
10
66.412573
20
256.894636
30
0.0
10
67.986704
20
258.097346
30
0.0
10
69.180920
20
259.427975
30
0.0
10
69.948971
20
260.876364
30
0.0
10
70.333413
20
262.558095
30
0.0
10
70.376804
20
264.588753
30
0.0
10
70.209337
20
266.341263
30
0.0
10
69.853336
20
267.668394
30
0.0
10
69.220622
20
268.788401
30
0.0
10
68.223014
20
269.919536
30
0.0
10
67.072626
20
270.904462
30
0.0
10
65.859736
20
271.576454
30
0.0
10
64.470327
20
271.982757
30
0.0
10
62.790386
20
272.170614
30
0.0
10
60.779840
20
272.136392
30
0.0
10
59.183744
20
271.648508
30
0.0
10
58.123022
20
271.094030
30
0.0
10
57.192711
20
270.410576
30
0.0
10
56.393751
20
269.615435
30
0.0
10
55.727080
20
268.725896
30
0.0
10
54.794363
20
266.732784
30
0.0
10
54.402068
20
264.569554
30
0.0
10
54.557708
20
262.374519
30
0.0
10
55.268792
20
260.285994
30
0.0
10
55.834972
20
259.324896
30
0.0
10
56.542831
20
258.442293
30
0.0
10
57.393306
20
257.655475
30
0.0
10
58.387336
20
256.981730
30
0.0
10
59.767184
20
256.355310
30
0.0
10
60.980159
20
256.151954
30
0.0
10
62.109048
20
256.161776
30
0.0
10
61.088990
20
256.700854
30
0.0
10
61.088990
20
256.700848
30
0.0
0
LWPOLYLINE
100
AcDbPolyline
8
Calque_1
90
64
70
0
10
88.252054
20
256.744454
30
0.0
10
88.605100
20
257.304205
30
0.0
10
88.758228
20
257.896994
30
0.0
10
88.705351
20
258.453049
30
0.0
10
88.440381
20
258.902602
30
0.0
10
87.917918
20
259.183522
30
0.0
10
87.261119
20
259.226926
30
0.0
10
86.621110
20
259.048544
30
0.0
10
86.149016
20
258.664107
30
0.0
10
85.783876
20
258.264704
30
0.0
10
85.568567
20
258.546079
30
0.0
10
85.371998
20
259.783354
30
0.0
10
85.633137
20
261.027191
30
0.0
10
86.278976
20
262.091773
30
0.0
10
87.236506
20
262.791280
30
0.0
10
88.072043
20
263.078301
30
0.0
10
88.791365
20
263.169957
30
0.0
10
89.473979
20
263.065522
30
0.0
10
90.199396
20
262.764271
30
0.0
10
90.936879
20
262.227464
30
0.0
10
91.458765
20
261.525191
30
0.0
10
91.765829
20
260.707941
30
0.0
10
91.858845
20
259.826204
30
0.0
10
91.738587
20
258.930470
30
0.0
10
91.405827
20
258.071228
30
0.0
10
90.861341
20
257.298968
30
0.0
10
90.105902
20
256.664179
30
0.0
10
89.202381
20
256.087602
30
0.0
10
90.574797
20
256.222250
30
0.0
10
91.480817
20
256.413299
30
0.0
10
92.394379
20
256.793687
30
0.0
10
94.128766
20
258.016856
30
0.0
10
95.547234
20
259.680500
30
0.0
10
96.065897
20
260.611483
30
0.0
10
96.419058
20
261.573364
30
0.0
10
96.629805
20
263.058592
30
0.0
10
96.610194
20
264.816868
30
0.0
10
96.383573
20
266.519974
30
0.0
10
95.973290
20
267.839691
30
0.0
10
95.310028
20
268.915640
30
0.0
10
94.415976
20
269.949413
30
0.0
10
93.381625
20
270.850226
30
0.0
10
92.297467
20
271.527296
30
0.0
10
90.722635
20
271.962031
30
0.0
10
88.661145
20
272.112542
30
0.0
10
86.620990
20
271.976978
30
0.0
10
85.110159
20
271.553487
30
0.0
10
84.041958
20
270.855680
30
0.0
10
82.983117
20
269.929615
30
0.0
10
82.049252
20
268.889374
30
0.0
10
81.355977
20
267.849041
30
0.0
10
80.887880
20
266.287002
30
0.0
10
80.713787
20
264.233831
30
0.0
10
80.839586
20
262.189099
30
0.0
10
81.271166
20
260.652374
30
0.0
10
81.987006
20
259.439484
30
0.0
10
82.751588
20
258.461074
30
0.0
10
83.616668
20
257.660648
30
0.0
10
84.634002
20
256.981716
30
0.0
10
85.834202
20
256.403648
30
0.0
10
86.825239
20
256.172203
30
0.0
10
87.625171
20
256.286197
30
0.0
10
88.252054
20
256.744446
30
0.0
10
88.252054
20
256.744454
30
0.0
0
LWPOLYLINE
100
AcDbPolyline
8
Calque_1
90
35
70
0
10
74.950159
20
239.722636
30
0.0
10
74.741920
20
239.984843
30
0.0
10
74.241259
20
240.282556
30
0.0
10
73.510292
20
240.884387
30
0.0
10
72.726453
20
241.899569
30
0.0
10
72.101131
20
243.009339
30
0.0
10
71.845715
20
243.894930
30
0.0
10
72.053572
20
244.498907
30
0.0
10
72.579561
20
245.081681
30
0.0
10
73.277309
20
245.520998
30
0.0
10
74.000442
20
245.694605
30
0.0
10
74.347191
20
245.659861
30
0.0
10
74.549703
20
245.519639
30
0.0
10
74.667937
20
244.706827
30
0.0
10
74.768415
20
244.001918
30
0.0
10
75.022352
20
243.734265
30
0.0
10
75.358504
20
243.914431
30
0.0
10
75.705629
20
244.552979
30
0.0
10
75.985062
20
245.038050
30
0.0
10
76.378417
20
245.378575
30
0.0
10
76.849809
20
245.575656
30
0.0
10
77.363358
20
245.630395
30
0.0
10
78.373398
20
245.317263
30
0.0
10
78.798125
20
244.951597
30
0.0
10
79.121480
20
244.448001
30
0.0
10
79.231746
20
243.706582
30
0.0
10
78.967561
20
242.822279
30
0.0
10
78.340792
20
241.820218
30
0.0
10
77.363306
20
240.725524
30
0.0
10
76.513101
20
240.012427
30
0.0
10
75.736154
20
239.569613
30
0.0
10
75.169496
20
239.454032
30
0.0
10
75.007848
20
239.536752
30
0.0
10
74.950159
20
239.722636
30
0.0
10
74.950159
20
239.722636
30
0.0
  0
ENDSEC
  0
SECTION
  2
OBJECTS
  0
DICTIONARY
  5
C
330
0
100
AcDbDictionary
  3
ACAD_GROUP
350
D
  3
ACAD_MLINESTYLE
350
17
  0
DICTIONARY
  5
D
330
C
100
AcDbDictionary
  0
DICTIONARY
  5
1A
330
C
100
AcDbDictionary
  0
DICTIONARY
  5
17
330
C
100
AcDbDictionary
  3
STANDARD
350
18
  0
DICTIONARY
  5
19
330
C
100
AcDbDictionary
  0
ENDSEC
  0
EOF
