999
Inkscape export via OpenSCAD DXF Export
  0
SECTION
  2
HEADER
  9
$ACADVER
  1
AC1014
  9
$HANDSEED
  5
FFFF
  9
$MEASUREMENT
 70
     1
  0
ENDSEC
  0
SECTION
  2
TABLES
  0
TABLE
  2
VPORT
  5
8
330
0
100
AcDbSymbolTable
 70
     4
  0
VPORT
  5
2E
330
8
100
AcDbSymbolTableRecord
100
AcDbViewportTableRecord
  2
*ACTIVE
 70
     0
 10
0.0
 20
0.0
 11
1.0
 21
1.0
 12
210.0
 22
148.5
 13
0.0
 23
0.0
 14
10.0
 24
10.0
 15
10.0
 25
10.0
 16
0.0
 26
0.0
 36
1.0
 17
0.0
 27
0.0
 37
0.0
 40
341.0
 41
1.24
 42
50.0
 43
0.0
 44
0.0
 50
0.0
 51
0.0
 71
     0
 72
   100
 73
     1
 74
     3
 75
     0
 76
     0
 77
     0
 78
     0
  0
ENDTAB
  0
TABLE
  2
LTYPE
  5
5
330
0
100
AcDbSymbolTable
 70
     1
  0
LTYPE
  5
14
330
5
100
AcDbSymbolTableRecord
100
AcDbLinetypeTableRecord
  2
BYBLOCK
 70
     0
  3

 72
    65
 73
     0
 40
0.0
  0
LTYPE
  5
15
330
5
100
AcDbSymbolTableRecord
100
AcDbLinetypeTableRecord
  2
BYLAYER
 70
     0
  3

 72
    65
 73
     0
 40
0.0
  0
LTYPE
  5
16
330
5
100
AcDbSymbolTableRecord
100
AcDbLinetypeTableRecord
  2
CONTINUOUS
 70
     0
  3
Solid line
 72
    65
 73
     0
 40
0.0
  0
ENDTAB
  0
TABLE
0
TABLE
2
LAYER
5
2
330
0
100
AcDbSymbolTable
70
2
0
LAYER
5
10
330
2
100
AcDbSymbolTableRecord
100
AcDbLayerTableRecord
2
Layer_1
70
0
62
7
6
CONTINUOUS
0
LAYER
5
10
330
2
100
AcDbSymbolTableRecord
100
AcDbLayerTableRecord
2
Calque_1
70
0
62
7
6
CONTINUOUS
0
ENDTAB
0
ENDSEC
  0
ENDTAB
  0
TABLE
  2
STYLE
  5
3
330
0
100
AcDbSymbolTable
 70
     1
  0
STYLE
  5
11
330
3
100
AcDbSymbolTableRecord
100
AcDbTextStyleTableRecord
  2
STANDARD
 70
     0
 40
0.0
 41
1.0
 50
0.0
 71
     0
 42
2.5
  3
txt
  4

  0
ENDTAB
  0
TABLE
  2
VIEW
  5
6
330
0
100
AcDbSymbolTable
 70
     0
  0
ENDTAB
  0
TABLE
  2
UCS
  5
7
330
0
100
AcDbSymbolTable
 70
     0
  0
ENDTAB
  0
TABLE
  2
APPID
  5
9
330
0
100
AcDbSymbolTable
 70
     2
  0
APPID
  5
12
330
9
100
AcDbSymbolTableRecord
100
AcDbRegAppTableRecord
  2
ACAD
 70
     0
  0
ENDTAB
  0
TABLE
  2
DIMSTYLE
  5
A
330
0
100
AcDbSymbolTable
 70
     1
  0
DIMSTYLE
105
27
330
A
100
AcDbSymbolTableRecord
100
AcDbDimStyleTableRecord
  2
ISO-25
 70
     0
  3

  4

  5

  6

  7

 40
1.0
 41
2.5
 42
0.625
 43
3.75
 44
1.25
 45
0.0
 46
0.0
 47
0.0
 48
0.0
140
2.5
141
2.5
142
0.0
143
0.03937007874016
144
1.0
145
0.0
146
1.0
147
0.625
 71
     0
 72
     0
 73
     0
 74
     0
 75
     0
 76
     0
 77
     1
 78
     8
170
     0
171
     3
172
     1
173
     0
174
     0
175
     0
176
     0
177
     0
178
     0
270
     2
271
     2
272
     2
273
     2
274
     3
340
11
275
     0
280
     0
281
     0
282
     0
283
     0
284
     8
285
     0
286
     0
287
     3
288
     0
  0
ENDTAB
  0
TABLE
  2
BLOCK_RECORD
  5
1
330
0
100
AcDbSymbolTable
 70
     1
  0
BLOCK_RECORD
  5
1F
330
1
100
AcDbSymbolTableRecord
100
AcDbBlockTableRecord
  2
*MODEL_SPACE
  0
BLOCK_RECORD
  5
1B
330
1
100
AcDbSymbolTableRecord
100
AcDbBlockTableRecord
  2
*PAPER_SPACE
  0
ENDTAB
  0
ENDSEC
  0
SECTION
  2
BLOCKS
  0
BLOCK
  5
20
330
1F
100
AcDbEntity
  8
0
100
AcDbBlockBegin
  2
*MODEL_SPACE
 70
     0
 10
0.0
 20
0.0
 30
0.0
  3
*MODEL_SPACE
  1

  0
ENDBLK
  5
21
330
1F
100
AcDbEntity
  8
0
100
AcDbBlockEnd
  0
BLOCK
  5
1C
330
1B
100
AcDbEntity
 67
     1
  8
0
100
AcDbBlockBegin
  2
*PAPER_SPACE
  1

  0
ENDBLK
  5
1D
330
1B
100
AcDbEntity
 67
     1
  8
0
100
AcDbBlockEnd
  0
ENDSEC
  0
SECTION
  2
ENTITIES
0
DIMENSION
5
83
100
AcDbEntity
62
256
370
-1
6
ByLayer
1
total_width
3
Standard
70
0
71
5
72
1
41
1.0
100
AcDbAlignedDimension
13
-0.846667
23
0.000000
33
0.0
14
165.681251
24
0.000000
34
0.0
50
0.000000
100
AcDbRotatedDimension
0
DIMENSION
5
83
100
AcDbEntity
62
256
370
-1
6
ByLayer
1
total_height
3
Standard
70
0
71
5
72
1
41
1.0
100
AcDbAlignedDimension
13
0.000000
23
161.021303
33
0.0
14
0.000000
24
298.411111
34
0.0
50
90.000000
100
AcDbRotatedDimension
0
DIMENSION
8
Layer_1
5
83
100
AcDbEntity
62
256
370
-1
6
ByLayer
1
Layer_1_width
3
Standard
70
0
71
5
72
1
41
1.0
100
AcDbAlignedDimension
13
-0.846667
23
0.000000
33
0.0
14
2.257778
24
0.000000
34
0.0
50
0.000000
100
AcDbRotatedDimension
0
DIMENSION
8
Layer_1
5
83
100
AcDbEntity
62
256
370
-1
6
ByLayer
1
Layer_1_height
3
Standard
70
0
71
5
72
1
41
1.0
100
AcDbAlignedDimension
13
0.000000
23
294.742222
33
0.0
14
0.000000
24
298.411111
34
0.0
50
90.000000
100
AcDbRotatedDimension
0
DIMENSION
8
Calque_1
5
83
100
AcDbEntity
62
256
370
-1
6
ByLayer
1
Calque_1_width
3
Standard
70
0
71
5
72
1
41
1.0
100
AcDbAlignedDimension
13
3.122282
23
0.000000
33
0.0
14
165.681251
24
0.000000
34
0.0
50
0.000000
100
AcDbRotatedDimension
0
DIMENSION
8
Calque_1
5
83
100
AcDbEntity
62
256
370
-1
6
ByLayer
1
Calque_1_height
3
Standard
70
0
71
5
72
1
41
1.0
100
AcDbAlignedDimension
13
0.000000
23
161.021303
33
0.0
14
0.000000
24
292.722569
34
0.0
50
90.000000
100
AcDbRotatedDimension
0
LWPOLYLINE
100
AcDbPolyline
8
Layer_1
90
2
70
0
10
2.257778
20
295.871111
30
0.0
10
1.128889
20
294.742222
30
0.0
0
LWPOLYLINE
100
AcDbPolyline
8
Layer_1
90
2
70
0
10
1.693333
20
296.435556
30
0.0
10
0.564444
20
295.306667
30
0.0
0
LWPOLYLINE
100
AcDbPolyline
8
Layer_1
90
2
70
0
10
1.128889
20
297.000000
30
0.0
10
0.000000
20
295.871111
30
0.0
0
LWPOLYLINE
100
AcDbPolyline
8
Layer_1
90
2
70
0
10
0.846667
20
297.846667
30
0.0
10
-0.846667
20
296.153333
30
0.0
0
LWPOLYLINE
100
AcDbPolyline
8
Layer_1
90
2
70
0
10
0.000000
20
298.411111
30
0.0
10
0.000000
20
295.588889
30
0.0
0
LWPOLYLINE
100
AcDbPolyline
8
Layer_1
90
2
70
0
10
2.257778
20
295.871111
30
0.0
10
1.128889
20
294.742222
30
0.0
0
LWPOLYLINE
100
AcDbPolyline
8
Layer_1
90
2
70
0
10
1.693333
20
296.435556
30
0.0
10
0.564444
20
295.306667
30
0.0
0
LWPOLYLINE
100
AcDbPolyline
8
Layer_1
90
2
70
0
10
1.128889
20
297.000000
30
0.0
10
0.000000
20
295.871111
30
0.0
0
LWPOLYLINE
100
AcDbPolyline
8
Layer_1
90
2
70
0
10
0.846667
20
297.846667
30
0.0
10
-0.846667
20
296.153333
30
0.0
0
LWPOLYLINE
100
AcDbPolyline
8
Layer_1
90
2
70
0
10
0.000000
20
298.411111
30
0.0
10
0.000000
20
295.588889
30
0.0
0
LWPOLYLINE
100
AcDbPolyline
8
Calque_1
90
351
70
0
10
84.701944
20
292.722569
30
0.0
10
82.105709
20
292.595926
30
0.0
10
79.521805
20
292.317521
30
0.0
10
76.960920
20
291.885417
30
0.0
10
74.433741
20
291.297673
30
0.0
10
71.950955
20
290.552352
30
0.0
10
69.523251
20
289.647513
30
0.0
10
67.161314
20
288.581218
30
0.0
10
64.875833
20
287.351528
30
0.0
10
62.965091
20
286.675753
30
0.0
10
60.963306
20
286.281197
30
0.0
10
58.975302
20
285.828699
30
0.0
10
58.019225
20
285.474734
30
0.0
10
57.105903
20
284.979097
30
0.0
10
55.001930
20
283.800751
30
0.0
10
53.107622
20
282.315337
30
0.0
10
51.457759
20
280.565653
30
0.0
10
50.087121
20
278.594495
30
0.0
10
49.030490
20
276.444659
30
0.0
10
48.322644
20
274.158940
30
0.0
10
47.998364
20
271.780136
30
0.0
10
48.092431
20
269.351042
30
0.0
10
48.569715
20
266.841522
30
0.0
10
49.469956
20
264.461943
30
0.0
10
50.662597
20
262.202990
30
0.0
10
52.017083
20
260.055347
30
0.0
10
52.677014
20
257.576723
30
0.0
10
53.502272
20
255.151214
30
0.0
10
54.625562
20
252.870420
30
0.0
10
56.179590
20
250.825944
30
0.0
10
59.439675
20
246.589657
30
0.0
10
60.847278
20
244.336745
30
0.0
10
61.371013
20
243.127118
30
0.0
10
61.727292
20
241.843194
30
0.0
10
61.260772
20
241.232628
30
0.0
10
60.515000
20
240.912131
30
0.0
10
58.887431
20
240.546736
30
0.0
10
57.816005
20
240.400670
30
0.0
10
56.773597
20
240.474202
30
0.0
10
55.769016
20
240.738940
30
0.0
10
54.811071
20
241.166494
30
0.0
10
53.070327
20
242.396480
30
0.0
10
51.621837
20
243.937032
30
0.0
10
49.935473
20
246.206415
30
0.0
10
48.428525
20
248.610956
30
0.0
10
46.957541
20
251.046244
30
0.0
10
45.379067
20
253.407865
30
0.0
10
42.850917
20
256.921650
30
0.0
10
39.943648
20
260.109590
30
0.0
10
38.335637
20
261.534827
30
0.0
10
36.618198
20
262.822753
30
0.0
10
34.786446
20
263.954751
30
0.0
10
32.835500
20
264.912205
30
0.0
10
31.075430
20
265.620419
30
0.0
10
29.255630
20
266.175486
30
0.0
10
27.391390
20
266.576004
30
0.0
10
25.498001
20
266.820572
30
0.0
10
23.590752
20
266.907789
30
0.0
10
21.684934
20
266.836253
30
0.0
10
19.795836
20
266.604564
30
0.0
10
17.938750
20
266.211319
30
0.0
10
15.597700
20
265.249550
30
0.0
10
13.419544
20
264.005064
30
0.0
10
11.434284
20
262.478720
30
0.0
10
9.671924
20
260.671379
30
0.0
10
8.199871
20
259.038931
30
0.0
10
6.835781
20
257.278534
30
0.0
10
5.622154
20
255.403437
30
0.0
10
4.601491
20
253.426893
30
0.0
10
3.816291
20
251.362151
30
0.0
10
3.309054
20
249.222462
30
0.0
10
3.122282
20
247.021079
30
0.0
10
3.298472
20
244.771250
30
0.0
10
3.797497
20
241.877509
30
0.0
10
4.555969
20
238.987314
30
0.0
10
5.115294
20
237.628313
30
0.0
10
5.838835
20
236.371917
30
0.0
10
6.759712
20
235.252034
30
0.0
10
7.911042
20
234.302569
30
0.0
10
8.457398
20
233.875450
30
0.0
10
9.151828
20
233.619579
30
0.0
10
9.746212
20
233.720637
30
0.0
10
9.928349
20
233.963040
30
0.0
10
9.992431
20
234.364306
30
0.0
10
9.702489
20
237.167751
30
0.0
10
9.672524
20
239.988874
30
0.0
10
10.036229
20
242.764813
30
0.0
10
10.407485
20
244.116195
30
0.0
10
10.927292
20
245.432708
30
0.0
10
11.667240
20
246.946805
30
0.0
10
12.610626
20
248.375846
30
0.0
10
13.736809
20
249.673941
30
0.0
10
15.025144
20
250.795201
30
0.0
10
16.454989
20
251.693736
30
0.0
10
18.005701
20
252.323657
30
0.0
10
19.656636
20
252.639074
30
0.0
10
21.387153
20
252.594097
30
0.0
10
22.422378
20
252.430907
30
0.0
10
23.355867
20
252.029834
30
0.0
10
24.192337
20
251.433914
30
0.0
10
24.936506
20
250.686183
30
0.0
10
26.166808
20
248.907426
30
0.0
10
27.084514
20
247.037847
30
0.0
10
29.517282
20
240.914648
30
0.0
10
30.811337
20
237.890367
30
0.0
10
32.261528
20
234.955208
30
0.0
10
33.164906
20
233.874226
30
0.0
10
34.201806
20
232.926736
30
0.0
10
33.202045
20
231.732798
30
0.0
10
32.374762
20
230.434362
30
0.0
10
31.718269
20
229.049658
30
0.0
10
31.230879
20
227.596921
30
0.0
10
30.910905
20
226.094382
30
0.0
10
30.756661
20
224.560273
30
0.0
10
30.766458
20
223.012828
30
0.0
10
30.938611
20
221.470278
30
0.0
10
31.205707
20
219.775190
30
0.0
10
31.717204
20
218.151362
30
0.0
10
32.453385
20
216.622787
30
0.0
10
33.394529
20
215.213461
30
0.0
10
34.520919
20
213.947379
30
0.0
10
35.812836
20
212.848535
30
0.0
10
37.250561
20
211.940924
30
0.0
10
38.814375
20
211.248542
30
0.0
10
36.507124
20
210.590814
30
0.0
10
34.218579
20
209.803894
30
0.0
10
32.058349
20
208.769160
30
0.0
10
30.136042
20
207.367986
30
0.0
10
29.689803
20
206.466760
30
0.0
10
29.506420
20
205.528852
30
0.0
10
29.535538
20
204.567168
30
0.0
10
29.726800
20
203.594615
30
0.0
10
30.394336
20
201.668522
30
0.0
10
31.106181
20
199.853819
30
0.0
10
32.481326
20
196.994263
30
0.0
10
34.067924
20
194.187381
30
0.0
10
34.989753
20
192.878863
30
0.0
10
36.023528
20
191.673718
30
0.0
10
37.188944
20
190.602014
30
0.0
10
38.505694
20
189.693819
30
0.0
10
40.314728
20
189.130955
30
0.0
10
42.202017
20
188.967606
30
0.0
10
44.106456
20
189.123266
30
0.0
10
45.966944
20
189.517431
30
0.0
10
44.585197
20
188.053320
30
0.0
10
43.388583
20
186.434783
30
0.0
10
42.389796
20
184.686917
30
0.0
10
41.601531
20
182.834816
30
0.0
10
41.036482
20
180.903576
30
0.0
10
40.707343
20
178.918292
30
0.0
10
40.626807
20
176.904059
30
0.0
10
40.807569
20
174.885972
30
0.0
10
41.537274
20
172.611204
30
0.0
10
42.508887
20
170.420811
30
0.0
10
43.741091
20
168.379405
30
0.0
10
45.252569
20
166.551597
30
0.0
10
46.453865
20
165.079288
30
0.0
10
47.852743
20
163.849377
30
0.0
10
49.415507
20
162.852880
30
0.0
10
51.108458
20
162.080810
30
0.0
10
52.897900
20
161.524181
30
0.0
10
54.750135
20
161.174007
30
0.0
10
56.631465
20
161.021303
30
0.0
10
58.508194
20
161.057083
30
0.0
10
60.180824
20
161.121010
30
0.0
10
61.831488
20
161.355927
30
0.0
10
63.443416
20
161.759500
30
0.0
10
64.999838
20
162.329393
30
0.0
10
66.483983
20
163.063270
30
0.0
10
67.879080
20
163.958795
30
0.0
10
69.168358
20
165.013633
30
0.0
10
70.335047
20
166.225447
30
0.0
10
70.710873
20
166.683568
30
0.0
10
71.149174
20
166.906933
30
0.0
10
72.158430
20
166.859873
30
0.0
10
73.253278
20
166.505227
30
0.0
10
74.324182
20
166.263956
30
0.0
10
77.257130
20
165.740542
30
0.0
10
80.217541
20
165.366000
30
0.0
10
83.194352
20
165.150682
30
0.0
10
86.176496
20
165.104938
30
0.0
10
89.152908
20
165.239118
30
0.0
10
92.112523
20
165.563571
30
0.0
10
95.044277
20
166.088649
30
0.0
10
97.937103
20
166.824701
30
0.0
10
98.382254
20
166.859448
30
0.0
10
98.767927
20
166.721908
30
0.0
10
99.426683
20
166.102266
30
0.0
10
100.045061
20
165.310380
30
0.0
10
100.754753
20
164.690852
30
0.0
10
102.586860
20
163.384406
30
0.0
10
104.577693
20
162.398139
30
0.0
10
106.690091
20
161.711033
30
0.0
10
108.886891
20
161.302067
30
0.0
10
111.130930
20
161.150223
30
0.0
10
113.385047
20
161.234480
30
0.0
10
115.612078
20
161.533820
30
0.0
10
117.774861
20
162.027222
30
0.0
10
118.720174
20
162.347468
30
0.0
10
119.586969
20
162.785400
30
0.0
10
121.258542
20
163.764653
30
0.0
10
123.638130
20
166.051380
30
0.0
10
125.636298
20
168.692189
30
0.0
10
127.233730
20
171.596643
30
0.0
10
128.411111
20
174.674306
30
0.0
10
128.774172
20
176.741849
30
0.0
10
128.773249
20
178.798121
30
0.0
10
128.448857
20
180.822702
30
0.0
10
127.841510
20
182.795172
30
0.0
10
126.991722
20
184.695113
30
0.0
10
125.940006
20
186.502103
30
0.0
10
124.726877
20
188.195724
30
0.0
10
123.392847
20
189.755556
30
0.0
10
126.017611
20
189.275265
30
0.0
10
127.372319
20
189.244445
30
0.0
10
128.711373
20
189.378480
30
0.0
10
130.001870
20
189.696351
30
0.0
10
131.210907
20
190.217038
30
0.0
10
132.305580
20
190.959520
30
0.0
10
133.252986
20
191.942778
30
0.0
10
135.395154
20
194.795283
30
0.0
10
137.174236
20
197.903464
30
0.0
10
138.572270
20
201.200877
30
0.0
10
139.571295
20
204.621081
30
0.0
10
139.720122
20
205.431102
30
0.0
10
139.663517
20
206.197731
30
0.0
10
139.429640
20
206.912378
30
0.0
10
139.046650
20
207.566455
30
0.0
10
137.945965
20
208.658541
30
0.0
10
136.586736
20
209.405278
30
0.0
10
133.503270
20
210.620322
30
0.0
10
130.298472
20
211.504306
30
0.0
10
131.824544
20
212.167455
30
0.0
10
133.235686
20
213.033992
30
0.0
10
134.510890
20
214.082932
30
0.0
10
135.629147
20
215.293289
30
0.0
10
136.569445
20
216.644076
30
0.0
10
137.310777
20
218.114309
30
0.0
10
137.832132
20
219.683001
30
0.0
10
138.112500
20
221.329167
30
0.0
10
138.352354
20
222.900053
30
0.0
10
138.397955
20
224.494523
30
0.0
10
138.255782
20
226.088511
30
0.0
10
137.932317
20
227.657952
30
0.0
10
137.434040
20
229.178783
30
0.0
10
136.767431
20
230.626937
30
0.0
10
135.938970
20
231.978351
30
0.0
10
134.955139
20
233.208958
30
0.0
10
136.126188
20
234.528364
30
0.0
10
137.121008
20
235.970714
30
0.0
10
138.716527
20
239.120793
30
0.0
10
141.273039
20
245.758283
30
0.0
10
142.224265
20
248.173659
30
0.0
10
143.548227
20
250.471504
30
0.0
10
144.389010
20
251.452718
30
0.0
10
145.369808
20
252.256188
30
0.0
10
146.506231
20
252.832461
30
0.0
10
147.813889
20
253.132083
30
0.0
10
149.480478
20
253.058343
30
0.0
10
151.072842
20
252.677433
30
0.0
10
152.572381
20
252.027009
30
0.0
10
153.960499
20
251.144725
30
0.0
10
155.218599
20
250.068234
30
0.0
10
156.328081
20
248.835192
30
0.0
10
157.270349
20
247.483252
30
0.0
10
158.026806
20
246.050069
30
0.0
10
158.595394
20
244.541581
30
0.0
10
158.996731
20
242.980458
30
0.0
10
159.242193
20
241.380943
30
0.0
10
159.343154
20
239.757278
30
0.0
10
159.157080
20
236.494470
30
0.0
10
158.529514
20
233.305972
30
0.0
10
159.734419
20
233.848831
30
0.0
10
160.844437
20
234.541588
30
0.0
10
161.849841
20
235.368915
30
0.0
10
162.740906
20
236.315487
30
0.0
10
163.507905
20
237.365976
30
0.0
10
164.141112
20
238.505056
30
0.0
10
164.630803
20
239.717400
30
0.0
10
164.967251
20
240.987683
30
0.0
10
165.552159
20
244.537421
30
0.0
10
165.681251
20
248.146698
30
0.0
10
165.514832
20
249.931315
30
0.0
10
165.162417
20
251.679998
30
0.0
10
164.599991
20
253.375808
30
0.0
10
163.803542
20
255.001806
30
0.0
10
162.599504
20
256.952453
30
0.0
10
161.244514
20
258.837593
30
0.0
10
159.741763
20
260.622247
30
0.0
10
158.094442
20
262.271434
30
0.0
10
156.305741
20
263.750177
30
0.0
10
154.378851
20
265.023496
30
0.0
10
152.316962
20
266.056412
30
0.0
10
150.123265
20
266.813946
30
0.0
10
147.928633
20
267.218457
30
0.0
10
145.707897
20
267.357504
30
0.0
10
143.481527
20
267.252035
30
0.0
10
141.269991
20
266.922999
30
0.0
10
139.093759
20
266.391344
30
0.0
10
136.973299
20
265.678020
30
0.0
10
134.929081
20
264.803976
30
0.0
10
132.981573
20
263.790160
30
0.0
10
129.823690
20
261.137752
30
0.0
10
126.941851
20
258.190608
30
0.0
10
124.367396
20
254.968616
30
0.0
10
122.131667
20
251.491667
30
0.0
10
120.370550
20
248.671351
30
0.0
10
118.634485
20
245.809185
30
0.0
10
117.674355
20
244.463423
30
0.0
10
116.598696
20
243.228416
30
0.0
10
115.366911
20
242.144571
30
0.0
10
113.938403
20
241.252292
30
0.0
10
112.309469
20
240.745261
30
0.0
10
110.587100
20
240.644237
30
0.0
10
108.899966
20
240.937640
30
0.0
10
107.376736
20
241.613889
30
0.0
10
107.485232
20
242.928122
30
0.0
10
107.862482
20
244.131493
30
0.0
10
108.448836
20
245.247102
30
0.0
10
109.184641
20
246.298045
30
0.0
10
110.866005
20
248.298331
30
0.0
10
112.429363
20
250.317137
30
0.0
10
113.886421
20
252.500055
30
0.0
10
115.093440
20
254.819073
30
0.0
10
116.044621
20
257.251120
30
0.0
10
116.734167
20
259.773125
30
0.0
10
117.350428
20
261.026808
30
0.0
10
118.175668
20
262.152089
30
0.0
10
118.979098
20
263.289538
30
0.0
10
119.529931
20
264.579722
30
0.0
10
120.066147
20
265.981103
30
0.0
10
120.449414
20
267.416242
30
0.0
10
120.775332
20
270.344139
30
0.0
10
120.544143
20
273.276097
30
0.0
10
119.792303
20
276.124801
30
0.0
10
118.556273
20
278.802937
30
0.0
10
116.872509
20
281.223190
30
0.0
10
114.777469
20
283.298244
30
0.0
10
113.587115
20
284.179036
30
0.0
10
112.307613
20
284.940786
30
0.0
10
110.385949
20
285.841863
30
0.0
10
108.337425
20
286.369590
30
0.0
10
106.265164
20
286.818673
30
0.0
10
104.272292
20
287.483819
30
0.0
10
101.373006
20
289.061969
30
0.0
10
98.327298
20
290.316957
30
0.0
10
95.171691
20
291.293084
30
0.0
10
91.942708
20
292.034653
30
0.0
10
88.340050
20
292.569674
30
0.0
10
84.701944
20
292.722569
30
0.0
10
84.701944
20
292.722569
30
0.0
0
LWPOLYLINE
100
AcDbPolyline
8
Calque_1
90
95
70
0
10
85.433958
20
291.293819
30
0.0
10
89.938254
20
290.937475
30
0.0
10
94.369851
20
290.075720
30
0.0
10
98.663849
20
288.696331
30
0.0
10
102.755347
20
286.787083
30
0.0
10
100.604766
20
286.470246
30
0.0
10
98.548472
20
285.958056
30
0.0
10
97.960485
20
285.883004
30
0.0
10
97.329700
20
285.669631
30
0.0
10
96.431806
20
285.393611
30
0.0
10
96.680203
20
286.073140
30
0.0
10
96.715882
20
286.784709
30
0.0
10
96.566249
20
287.496330
30
0.0
10
96.258711
20
288.176014
30
0.0
10
95.279546
20
289.311621
30
0.0
10
94.662732
20
289.703568
30
0.0
10
93.997639
20
289.935625
30
0.0
10
93.184994
20
289.890061
30
0.0
10
92.401648
20
289.654233
30
0.0
10
91.686992
20
289.254501
30
0.0
10
91.080417
20
288.717228
30
0.0
10
90.621317
20
288.068773
30
0.0
10
90.349082
20
287.335498
30
0.0
10
90.303105
20
286.543763
30
0.0
10
90.522778
20
285.719931
30
0.0
10
90.993537
20
284.830997
30
0.0
10
91.755119
20
284.128031
30
0.0
10
92.630339
20
283.658775
30
0.0
10
93.442014
20
283.470972
30
0.0
10
92.617091
20
282.813795
30
0.0
10
91.881034
20
282.054518
30
0.0
10
90.542686
20
280.389841
30
0.0
10
89.161311
20
278.797292
30
0.0
10
88.371470
20
278.128175
30
0.0
10
87.471250
20
277.597222
30
0.0
10
84.307691
20
277.305631
30
0.0
10
82.703560
20
277.327092
30
0.0
10
81.156528
20
277.588403
30
0.0
10
79.500236
20
278.879243
30
0.0
10
78.090941
20
280.457690
30
0.0
10
76.737182
20
282.085365
30
0.0
10
75.247500
20
283.523889
30
0.0
10
76.013664
20
283.671110
30
0.0
10
76.726452
20
283.991632
30
0.0
10
77.353497
20
284.457148
30
0.0
10
77.862431
20
285.039352
30
0.0
10
78.220888
20
285.709935
30
0.0
10
78.396501
20
286.440590
30
0.0
10
78.356901
20
287.203010
30
0.0
10
78.069722
20
287.968889
30
0.0
10
77.681238
20
288.734533
30
0.0
10
77.093790
20
289.298760
30
0.0
10
76.365975
20
289.662350
30
0.0
10
75.556387
20
289.826083
30
0.0
10
74.723622
20
289.790740
30
0.0
10
73.926276
20
289.557101
30
0.0
10
73.222944
20
289.125946
30
0.0
10
72.672222
20
288.498056
30
0.0
10
72.198935
20
287.751652
30
0.0
10
71.983847
20
286.901261
30
0.0
10
72.044595
20
286.029060
30
0.0
10
72.398819
20
285.217222
30
0.0
10
71.453254
20
285.438315
30
0.0
10
70.553407
20
285.795828
30
0.0
10
69.638085
20
286.136561
30
0.0
10
68.646094
20
286.307315
30
0.0
10
67.276387
20
286.468213
30
0.0
10
66.704714
20
286.544804
30
0.0
10
66.620502
20
286.622876
30
0.0
10
66.736736
20
286.742986
30
0.0
10
70.846809
20
288.658179
30
0.0
10
75.157134
20
290.046273
30
0.0
10
79.605246
20
290.920432
30
0.0
10
84.128681
20
291.293819
30
0.0
10
83.418477
20
291.016601
30
0.0
10
82.914912
20
290.530284
30
0.0
10
82.614078
20
289.901692
30
0.0
10
82.512064
20
289.197650
30
0.0
10
82.604962
20
288.484983
30
0.0
10
82.888861
20
287.830515
30
0.0
10
83.359853
20
287.301070
30
0.0
10
84.014028
20
286.963472
30
0.0
10
84.675963
20
286.958832
30
0.0
10
85.323938
20
287.141997
30
0.0
10
85.915097
20
287.480518
30
0.0
10
86.406586
20
287.941947
30
0.0
10
86.755551
20
288.493835
30
0.0
10
86.919136
20
289.103736
30
0.0
10
86.854487
20
289.739199
30
0.0
10
86.518750
20
290.367778
30
0.0
10
85.860338
20
290.965449
30
0.0
10
85.037083
20
291.302639
30
0.0
10
85.319235
20
291.296368
30
0.0
10
85.433958
20
291.293828
30
0.0
10
85.433958
20
291.293819
30
0.0
0
LWPOLYLINE
100
AcDbPolyline
8
Calque_1
90
14
70
0
10
84.569653
20
289.953264
30
0.0
10
84.978544
20
289.928462
30
0.0
10
85.260008
20
289.765989
30
0.0
10
85.459336
20
289.204782
30
0.0
10
85.205003
20
288.623146
30
0.0
10
84.919390
20
288.435137
30
0.0
10
84.534375
20
288.374583
30
0.0
10
84.262024
20
288.384091
30
0.0
10
84.058991
20
288.541808
30
0.0
10
83.880390
20
289.112780
30
0.0
10
84.037601
20
289.709325
30
0.0
10
84.254333
20
289.899006
30
0.0
10
84.569653
20
289.953264
30
0.0
10
84.569653
20
289.953264
30
0.0
0
LWPOLYLINE
100
AcDbPolyline
8
Calque_1
90
19
70
0
10
93.909444
20
288.524514
30
0.0
10
94.377172
20
288.300185
30
0.0
10
94.770665
20
287.944380
30
0.0
10
95.253941
20
286.995769
30
0.0
10
95.303221
20
286.481674
30
0.0
10
95.197260
20
285.993527
30
0.0
10
94.915807
20
285.570684
30
0.0
10
94.438611
20
285.252500
30
0.0
10
93.802196
20
284.932057
30
0.0
10
93.170283
20
284.943520
30
0.0
10
92.593266
20
285.215850
30
0.0
10
92.121543
20
285.678008
30
0.0
10
91.805507
20
286.258958
30
0.0
10
91.695556
20
286.887659
30
0.0
10
91.842083
20
287.493075
30
0.0
10
92.295486
20
288.004167
30
0.0
10
93.062617
20
288.373355
30
0.0
10
93.909444
20
288.524514
30
0.0
10
93.909444
20
288.524514
30
0.0
0
LWPOLYLINE
100
AcDbPolyline
8
Calque_1
90
20
70
0
10
75.379792
20
288.427500
30
0.0
10
76.000616
20
288.335438
30
0.0
10
76.474581
20
288.004723
30
0.0
10
76.792884
20
287.508146
30
0.0
10
76.946723
20
286.918494
30
0.0
10
76.927296
20
286.308558
30
0.0
10
76.725800
20
285.751125
30
0.0
10
76.333431
20
285.318987
30
0.0
10
75.741389
20
285.084931
30
0.0
10
75.105880
20
284.886319
30
0.0
10
74.521543
20
284.981138
30
0.0
10
74.023340
20
285.303017
30
0.0
10
73.646235
20
285.785587
30
0.0
10
73.425191
20
286.362475
30
0.0
10
73.395171
20
286.967311
30
0.0
10
73.591138
20
287.533726
30
0.0
10
74.048056
20
287.995347
30
0.0
10
74.677903
20
288.320999
30
0.0
10
75.379792
20
288.427500
30
0.0
10
75.379792
20
288.427500
30
0.0
0
LWPOLYLINE
100
AcDbPolyline
8
Calque_1
90
46
70
0
10
104.854375
20
285.367153
30
0.0
10
107.470415
20
285.181474
30
0.0
10
109.973714
20
284.483112
30
0.0
10
112.303524
20
283.329611
30
0.0
10
114.399098
20
281.778517
30
0.0
10
116.199690
20
279.887376
30
0.0
10
117.644553
20
277.713732
30
0.0
10
118.672940
20
275.315130
30
0.0
10
119.224103
20
272.749116
30
0.0
10
119.365664
20
270.793852
30
0.0
10
119.239452
20
268.844560
30
0.0
10
118.853877
20
266.935154
30
0.0
10
118.217347
20
265.099548
30
0.0
10
117.338272
20
263.371656
30
0.0
10
116.225060
20
261.785392
30
0.0
10
114.886120
20
260.374669
30
0.0
10
113.329861
20
259.173403
30
0.0
10
111.706723
20
258.142407
30
0.0
10
109.968601
20
257.372967
30
0.0
10
108.144219
20
256.853713
30
0.0
10
106.262298
20
256.573278
30
0.0
10
104.351562
20
256.520293
30
0.0
10
102.440731
20
256.683391
30
0.0
10
100.558530
20
257.051203
30
0.0
10
98.733681
20
257.612361
30
0.0
10
98.102022
20
257.812957
30
0.0
10
97.562026
20
258.235948
30
0.0
10
97.025774
20
258.706538
30
0.0
10
96.405347
20
259.049931
30
0.0
10
94.732837
20
260.535664
30
0.0
10
93.300350
20
262.255723
30
0.0
10
92.130263
20
264.166384
30
0.0
10
91.244952
20
266.223923
30
0.0
10
90.666797
20
268.384618
30
0.0
10
90.418172
20
270.604745
30
0.0
10
90.521457
20
272.840581
30
0.0
10
90.999028
20
275.048403
30
0.0
10
91.780942
20
277.213888
30
0.0
10
92.943668
20
279.187118
30
0.0
10
94.432514
20
280.939128
30
0.0
10
96.192790
20
282.440955
30
0.0
10
98.169806
20
283.663635
30
0.0
10
100.308869
20
284.578203
30
0.0
10
102.555289
20
285.155697
30
0.0
10
104.854375
20
285.367153
30
0.0
10
104.854375
20
285.367153
30
0.0
0
LWPOLYLINE
100
AcDbPolyline
8
Calque_1
90
50
70
0
10
65.131597
20
285.173125
30
0.0
10
66.687877
20
285.029003
30
0.0
10
68.201503
20
284.684550
30
0.0
10
69.659047
20
284.154843
30
0.0
10
71.047080
20
283.454962
30
0.0
10
72.352176
20
282.599986
30
0.0
10
73.560906
20
281.604994
30
0.0
10
74.659842
20
280.485065
30
0.0
10
75.635556
20
279.255278
30
0.0
10
76.629038
20
277.703511
30
0.0
10
77.377319
20
276.031147
30
0.0
10
77.892729
20
274.268811
30
0.0
10
78.187598
20
272.447129
30
0.0
10
78.274256
20
270.596726
30
0.0
10
78.165033
20
268.748227
30
0.0
10
77.872259
20
266.932258
30
0.0
10
77.408264
20
265.179444
30
0.0
10
76.992320
20
264.636350
30
0.0
10
76.771010
20
263.999212
30
0.0
10
76.550827
20
263.356879
30
0.0
10
76.138264
20
262.798194
30
0.0
10
74.826067
20
261.235279
30
0.0
10
73.324520
20
259.845467
30
0.0
10
71.662037
20
258.650670
30
0.0
10
69.867035
20
257.672799
30
0.0
10
67.967928
20
256.933767
30
0.0
10
65.993133
20
256.455485
30
0.0
10
63.971065
20
256.259866
30
0.0
10
61.930139
20
256.368819
30
0.0
10
59.866476
20
256.834766
30
0.0
10
57.906376
20
257.603389
30
0.0
10
56.079467
20
258.647034
30
0.0
10
54.415379
20
259.938048
30
0.0
10
52.943739
20
261.448776
30
0.0
10
51.694176
20
263.151565
30
0.0
10
50.696317
20
265.018760
30
0.0
10
49.979792
20
267.022708
30
0.0
10
49.484598
20
269.313482
30
0.0
10
49.409033
20
271.637939
30
0.0
10
49.729306
20
273.937987
30
0.0
10
50.421628
20
276.155532
30
0.0
10
51.462210
20
278.232480
30
0.0
10
52.827263
20
280.110740
30
0.0
10
54.492998
20
281.732218
30
0.0
10
56.435625
20
283.038819
30
0.0
10
58.445350
20
284.124979
30
0.0
10
60.597135
20
284.776659
30
0.0
10
62.842157
20
285.092996
30
0.0
10
65.131597
20
285.173125
30
0.0
10
65.131597
20
285.173125
30
0.0
0
LWPOLYLINE
100
AcDbPolyline
8
Calque_1
90
22
70
0
10
84.260972
20
284.070694
30
0.0
10
83.500880
20
283.950026
30
0.0
10
82.859002
20
283.606093
30
0.0
10
82.353789
20
283.089966
30
0.0
10
82.003694
20
282.452716
30
0.0
10
81.827169
20
281.745413
30
0.0
10
81.842668
20
281.019127
30
0.0
10
82.068641
20
280.324929
30
0.0
10
82.523542
20
279.713889
30
0.0
10
83.196132
20
279.066610
30
0.0
10
84.014652
20
278.795374
30
0.0
10
84.890058
20
278.848725
30
0.0
10
85.733305
20
279.175208
30
0.0
10
86.455350
20
279.723366
30
0.0
10
86.967147
20
280.441743
30
0.0
10
87.179651
20
281.278884
30
0.0
10
87.003819
20
282.183333
30
0.0
10
86.575027
20
282.981150
30
0.0
10
85.956849
20
283.615107
30
0.0
10
85.176445
20
284.005017
30
0.0
10
84.260972
20
284.070694
30
0.0
10
84.260972
20
284.070694
30
0.0
0
LWPOLYLINE
100
AcDbPolyline
8
Calque_1
90
53
70
0
10
103.963611
20
284.044236
30
0.0
10
102.489831
20
283.947046
30
0.0
10
101.055951
20
283.663562
30
0.0
10
99.673529
20
283.207440
30
0.0
10
98.354121
20
282.592337
30
0.0
10
97.109284
20
281.831907
30
0.0
10
95.950573
20
280.939807
30
0.0
10
94.889545
20
279.929692
30
0.0
10
93.937757
20
278.815218
30
0.0
10
93.106764
20
277.610041
30
0.0
10
92.408125
20
276.327816
30
0.0
10
91.853394
20
274.982198
30
0.0
10
91.454128
20
273.586845
30
0.0
10
91.221884
20
272.155411
30
0.0
10
91.168219
20
270.701551
30
0.0
10
91.304687
20
269.238923
30
0.0
10
91.642847
20
267.781181
30
0.0
10
92.069182
20
266.243215
30
0.0
10
92.697377
20
264.789055
30
0.0
10
93.507968
20
263.430828
30
0.0
10
94.481492
20
262.180660
30
0.0
10
95.598483
20
261.050679
30
0.0
10
96.839479
20
260.053012
30
0.0
10
98.185014
20
259.199785
30
0.0
10
99.615625
20
258.503125
30
0.0
10
99.999315
20
258.211999
30
0.0
10
100.356373
20
258.093327
30
0.0
10
101.353056
20
257.779931
30
0.0
10
102.611106
20
257.495285
30
0.0
10
103.880379
20
257.406111
30
0.0
10
105.152089
20
257.485574
30
0.0
10
106.417448
20
257.706840
30
0.0
10
108.893969
20
258.467447
30
0.0
10
111.239653
20
259.473264
30
0.0
10
113.337239
20
261.069548
30
0.0
10
115.148589
20
262.992867
30
0.0
10
116.542258
20
265.215726
30
0.0
10
117.041387
20
266.430889
30
0.0
10
117.386806
20
267.710625
30
0.0
10
117.649311
20
270.250550
30
0.0
10
117.530681
20
272.807343
30
0.0
10
116.944828
20
275.277613
30
0.0
10
116.449789
20
276.447993
30
0.0
10
115.805661
20
277.557973
30
0.0
10
114.827909
20
279.063866
30
0.0
10
113.656837
20
280.404265
30
0.0
10
112.317319
20
281.562616
30
0.0
10
110.834228
20
282.522363
30
0.0
10
109.232438
20
283.266953
30
0.0
10
107.536823
20
283.779831
30
0.0
10
105.772256
20
284.044444
30
0.0
10
103.963611
20
284.044236
30
0.0
10
103.963611
20
284.044236
30
0.0
0
LWPOLYLINE
100
AcDbPolyline
8
Calque_1
90
46
70
0
10
64.082083
20
283.920764
30
0.0
10
61.436474
20
283.644304
30
0.0
10
58.917057
20
282.850737
30
0.0
10
56.625361
20
281.553694
30
0.0
10
55.596637
20
280.720628
30
0.0
10
54.662917
20
279.766806
30
0.0
10
53.424584
20
278.359250
30
0.0
10
52.467652
20
276.776950
30
0.0
10
51.780133
20
275.060151
30
0.0
10
51.350039
20
273.249103
30
0.0
10
51.165383
20
271.384052
30
0.0
10
51.214178
20
269.505246
30
0.0
10
51.484435
20
267.652933
30
0.0
10
51.964167
20
265.867361
30
0.0
10
53.042155
20
263.860293
30
0.0
10
54.440160
20
262.056622
30
0.0
10
56.075220
20
260.453963
30
0.0
10
57.864375
20
259.049931
30
0.0
10
59.592724
20
258.310693
30
0.0
10
61.406833
20
257.817803
30
0.0
10
63.271576
20
257.572590
30
0.0
10
65.151829
20
257.576387
30
0.0
10
67.012464
20
257.830522
30
0.0
10
68.818358
20
258.336326
30
0.0
10
70.534384
20
259.095130
30
0.0
10
72.125417
20
260.108264
30
0.0
10
73.829761
20
261.493175
30
0.0
10
75.297643
20
263.123036
30
0.0
10
76.418545
20
264.991762
30
0.0
10
77.081944
20
267.093264
30
0.0
10
77.416042
20
268.761486
30
0.0
10
77.544123
20
270.453773
30
0.0
10
77.467133
20
272.145143
30
0.0
10
77.186018
20
273.810615
30
0.0
10
76.701724
20
275.425207
30
0.0
10
76.015199
20
276.963938
30
0.0
10
75.127387
20
278.401826
30
0.0
10
74.039236
20
279.713889
30
0.0
10
72.321242
20
281.326799
30
0.0
10
71.431055
20
282.085572
30
0.0
10
70.449722
20
282.659583
30
0.0
10
68.905404
20
283.233460
30
0.0
10
67.346221
20
283.676270
30
0.0
10
65.746878
20
283.926032
30
0.0
10
64.082083
20
283.920764
30
0.0
10
64.082083
20
283.920764
30
0.0
0
LWPOLYLINE
100
AcDbPolyline
8
Calque_1
90
56
70
0
10
104.483958
20
282.641944
30
0.0
10
106.208372
20
282.595645
30
0.0
10
107.879893
20
282.261515
30
0.0
10
109.471074
20
281.664723
30
0.0
10
110.954473
20
280.830434
30
0.0
10
112.302641
20
279.783817
30
0.0
10
113.488136
20
278.550038
30
0.0
10
114.483510
20
277.154266
30
0.0
10
115.261319
20
275.621667
30
0.0
10
115.937606
20
273.748440
30
0.0
10
116.224551
20
271.757478
30
0.0
10
116.199655
20
269.731875
30
0.0
10
115.940417
20
267.754722
30
0.0
10
115.540330
20
266.432878
30
0.0
10
114.963461
20
265.179848
30
0.0
10
114.227473
20
264.009579
30
0.0
10
113.350031
20
262.936018
30
0.0
10
112.348801
20
261.973110
30
0.0
10
111.241447
20
261.134804
30
0.0
10
110.045635
20
260.435044
30
0.0
10
108.779028
20
259.887778
30
0.0
10
109.542034
20
261.238160
30
0.0
10
109.860630
20
262.722272
30
0.0
10
109.775416
20
264.248851
30
0.0
10
109.326994
20
265.726635
30
0.0
10
108.555967
20
267.064362
30
0.0
10
107.502935
20
268.170770
30
0.0
10
106.208500
20
268.954598
30
0.0
10
104.713264
20
269.324583
30
0.0
10
103.318402
20
269.341922
30
0.0
10
101.971372
20
269.025330
30
0.0
10
100.726572
20
268.417873
30
0.0
10
99.638400
20
267.562611
30
0.0
10
98.761252
20
266.502610
30
0.0
10
98.149526
20
265.280931
30
0.0
10
97.857620
20
263.940637
30
0.0
10
97.939931
20
262.524792
30
0.0
10
98.194564
20
261.543754
30
0.0
10
98.601389
20
260.610972
30
0.0
10
96.929994
20
261.712359
30
0.0
10
95.512986
20
263.089665
30
0.0
10
94.363040
20
264.690913
30
0.0
10
93.492828
20
266.464123
30
0.0
10
92.915023
20
268.357317
30
0.0
10
92.642297
20
270.318516
30
0.0
10
92.687325
20
272.295741
30
0.0
10
93.062778
20
274.237014
30
0.0
10
93.757190
20
275.996150
30
0.0
10
94.735079
20
277.621267
30
0.0
10
95.959456
20
279.078157
30
0.0
10
97.393328
20
280.332613
30
0.0
10
98.999705
20
281.350427
30
0.0
10
100.741597
20
282.097392
30
0.0
10
102.582011
20
282.539300
30
0.0
10
104.483958
20
282.641944
30
0.0
10
104.483958
20
282.641944
30
0.0
0
LWPOLYLINE
100
AcDbPolyline
8
Calque_1
90
18
70
0
10
84.340347
20
282.624306
30
0.0
10
84.880904
20
282.571930
30
0.0
10
85.288523
20
282.324949
30
0.0
10
85.555916
20
281.944838
30
0.0
10
85.675794
20
281.493072
30
0.0
10
85.640868
20
281.031126
30
0.0
10
85.443849
20
280.620476
30
0.0
10
85.077448
20
280.322595
30
0.0
10
84.534375
20
280.198958
30
0.0
10
84.044259
20
280.194190
30
0.0
10
83.656205
20
280.439029
30
0.0
10
83.385734
20
280.852661
30
0.0
10
83.248366
20
281.354276
30
0.0
10
83.259622
20
281.863060
30
0.0
10
83.435024
20
282.298201
30
0.0
10
83.790092
20
282.578887
30
0.0
10
84.340347
20
282.624306
30
0.0
10
84.340347
20
282.624306
30
0.0
0
LWPOLYLINE
100
AcDbPolyline
8
Calque_1
90
61
70
0
10
64.505417
20
282.527292
30
0.0
10
66.114836
20
282.461567
30
0.0
10
67.702386
20
282.154176
30
0.0
10
69.228239
20
281.629853
30
0.0
10
70.652569
20
280.913333
30
0.0
10
71.910381
20
279.899118
30
0.0
10
73.048423
20
278.746219
30
0.0
10
74.044064
20
277.471688
30
0.0
10
74.874673
20
276.092578
30
0.0
10
75.517619
20
274.625941
30
0.0
10
75.950271
20
273.088829
30
0.0
10
76.149997
20
271.498294
30
0.0
10
76.094167
20
269.871389
30
0.0
10
75.812545
20
267.713042
30
0.0
10
75.142970
20
265.659327
30
0.0
10
74.073663
20
263.795618
30
0.0
10
72.592847
20
262.207292
30
0.0
10
71.403589
20
261.283327
30
0.0
10
70.132222
20
260.478681
30
0.0
10
70.752770
20
261.693054
30
0.0
10
71.029106
20
262.980691
30
0.0
10
70.990037
20
264.288968
30
0.0
10
70.664371
20
265.565261
30
0.0
10
70.080915
20
266.756947
30
0.0
10
69.268475
20
267.811401
30
0.0
10
68.255859
20
268.676002
30
0.0
10
67.071875
20
269.298125
30
0.0
10
66.259812
20
269.562776
30
0.0
10
65.433786
20
269.680271
30
0.0
10
63.789437
20
269.516198
30
0.0
10
62.238009
20
268.890713
30
0.0
10
60.878683
20
267.888627
30
0.0
10
59.810642
20
266.594745
30
0.0
10
59.133067
20
265.093877
30
0.0
10
58.945139
20
263.470832
30
0.0
10
59.065788
20
262.639995
30
0.0
10
59.346042
20
261.810417
30
0.0
10
59.985380
20
260.516447
30
0.0
10
60.862986
20
259.367431
30
0.0
10
59.787242
20
259.666899
30
0.0
10
58.798414
20
260.113436
30
0.0
10
57.042355
20
261.357909
30
0.0
10
55.516507
20
262.921241
30
0.0
10
54.142569
20
264.623819
30
0.0
10
53.428513
20
266.067203
30
0.0
10
52.930968
20
267.600832
30
0.0
10
52.644158
20
269.194660
30
0.0
10
52.562310
20
270.818640
30
0.0
10
52.679646
20
272.442725
30
0.0
10
52.990393
20
274.036868
30
0.0
10
53.488774
20
275.571022
30
0.0
10
54.169014
20
277.015139
30
0.0
10
55.064962
20
278.286170
30
0.0
10
56.112841
20
279.403452
30
0.0
10
57.293271
20
280.360714
30
0.0
10
58.586872
20
281.151687
30
0.0
10
59.974265
20
281.770101
30
0.0
10
61.436071
20
282.209686
30
0.0
10
62.952910
20
282.464173
30
0.0
10
64.505403
20
282.527292
30
0.0
10
64.505417
20
282.527292
30
0.0
0
LWPOLYLINE
100
AcDbPolyline
8
Calque_1
90
453
70
0
10
77.505278
20
278.999514
30
0.0
10
78.609614
20
277.652079
30
0.0
10
80.013332
20
276.640216
30
0.0
10
81.635837
20
276.034163
30
0.0
10
83.396537
20
275.904160
30
0.0
10
85.365232
20
275.875156
30
0.0
10
87.332675
20
276.112618
30
0.0
10
88.257640
20
276.394991
30
0.0
10
89.112346
20
276.820441
30
0.0
10
89.873479
20
277.414456
30
0.0
10
90.517723
20
278.202521
30
0.0
10
90.897965
20
278.694220
30
0.0
10
90.949013
20
278.690039
30
0.0
10
90.531609
20
277.826528
30
0.0
10
89.779400
20
275.897354
30
0.0
10
89.283812
20
273.885484
30
0.0
10
89.047143
20
271.825797
30
0.0
10
89.071693
20
269.753173
30
0.0
10
89.359761
20
267.702492
30
0.0
10
89.913646
20
265.708634
30
0.0
10
90.735649
20
263.806477
30
0.0
10
91.828067
20
262.030903
30
0.0
10
93.256391
20
260.135159
30
0.0
10
94.941331
20
258.476667
30
0.0
10
94.094782
20
258.763557
30
0.0
10
93.341359
20
259.196750
30
0.0
10
91.863345
20
260.090625
30
0.0
10
91.496090
20
259.833063
30
0.0
10
91.310156
20
259.492281
30
0.0
10
91.332618
20
258.647262
30
0.0
10
91.907442
20
256.906806
30
0.0
10
92.953749
20
255.309333
30
0.0
10
94.297736
20
253.956174
30
0.0
10
95.819286
20
252.783006
30
0.0
10
97.398278
20
251.725508
30
0.0
10
99.154262
20
250.105286
30
0.0
10
100.636688
20
248.238011
30
0.0
10
101.737755
20
246.146614
30
0.0
10
102.349664
20
243.854028
30
0.0
10
102.798985
20
242.959553
30
0.0
10
103.415251
20
242.216417
30
0.0
10
104.164353
20
241.600351
30
0.0
10
105.012177
20
241.087083
30
0.0
10
106.867552
20
240.271863
30
0.0
10
108.708484
20
239.576597
30
0.0
10
109.931264
20
239.265835
30
0.0
10
111.164528
20
239.175859
30
0.0
10
112.387274
20
239.290459
30
0.0
10
113.578503
20
239.593424
30
0.0
10
114.717216
20
240.068544
30
0.0
10
115.782411
20
240.699610
30
0.0
10
116.753089
20
241.470412
30
0.0
10
117.608251
20
242.364738
30
0.0
10
119.551788
20
244.744644
30
0.0
10
121.209090
20
247.347777
30
0.0
10
122.780133
20
250.020602
30
0.0
10
124.464891
20
252.609583
30
0.0
10
126.435432
20
255.481038
30
0.0
10
128.693002
20
258.139601
30
0.0
10
131.195171
20
260.564182
30
0.0
10
133.899506
20
262.733693
30
0.0
10
135.859419
20
263.691113
30
0.0
10
137.905040
20
264.513386
30
0.0
10
140.016491
20
265.174513
30
0.0
10
142.173892
20
265.648495
30
0.0
10
144.357365
20
265.909333
30
0.0
10
146.547031
20
265.931027
30
0.0
10
148.723012
20
265.687578
30
0.0
10
150.865428
20
265.152986
30
0.0
10
152.881330
20
264.263749
30
0.0
10
154.772676
20
263.146314
30
0.0
10
156.533503
20
261.826849
30
0.0
10
158.157850
20
260.331524
30
0.0
10
159.639753
20
258.686505
30
0.0
10
160.973251
20
256.917963
30
0.0
10
162.152381
20
255.052065
30
0.0
10
163.171180
20
253.114981
30
0.0
10
163.724620
20
251.490068
30
0.0
10
164.089417
20
249.817993
30
0.0
10
164.278105
20
248.114442
30
0.0
10
164.303220
20
246.395103
30
0.0
10
163.912864
20
242.971810
30
0.0
10
163.018622
20
239.673611
30
0.0
10
161.979201
20
237.723912
30
0.0
10
160.619734
20
236.040000
30
0.0
10
161.201972
20
237.965457
30
0.0
10
161.541590
20
239.997094
30
0.0
10
161.793558
20
241.890588
30
0.0
10
161.907489
20
243.834604
30
0.0
10
161.854117
20
245.790142
30
0.0
10
161.604170
20
247.718201
30
0.0
10
161.128382
20
249.579779
30
0.0
10
160.397483
20
251.335877
30
0.0
10
159.382203
20
252.947492
30
0.0
10
158.053275
20
254.375625
30
0.0
10
156.494310
20
255.645991
30
0.0
10
154.769640
20
256.620839
30
0.0
10
152.915205
20
257.325192
30
0.0
10
150.966942
20
257.784071
30
0.0
10
148.960790
20
258.022497
30
0.0
10
146.932687
20
258.065493
30
0.0
10
144.918573
20
257.938079
30
0.0
10
142.954386
20
257.665278
30
0.0
10
139.984953
20
256.910067
30
0.0
10
138.567805
20
256.331629
30
0.0
10
137.221784
20
255.616356
30
0.0
10
135.966450
20
254.762042
30
0.0
10
134.821361
20
253.766478
30
0.0
10
133.806077
20
252.627454
30
0.0
10
132.940160
20
251.342763
30
0.0
10
130.660228
20
247.707560
30
0.0
10
128.453796
20
244.018104
30
0.0
10
126.022264
20
240.504160
30
0.0
10
124.628774
20
238.884806
30
0.0
10
123.067036
20
237.395491
30
0.0
10
121.711068
20
236.104034
30
0.0
10
120.248144
20
234.982471
30
0.0
10
118.692439
20
234.016874
30
0.0
10
117.058128
20
233.193312
30
0.0
10
113.610386
20
231.916575
30
0.0
10
110.018314
20
231.040826
30
0.0
10
108.530198
20
230.734880
30
0.0
10
107.828074
20
230.519790
30
0.0
10
107.262095
20
230.033958
30
0.0
10
107.698117
20
229.663423
30
0.0
10
108.199184
20
229.461247
30
0.0
10
109.332119
20
229.405273
30
0.0
10
110.532228
20
229.552645
30
0.0
10
111.670843
20
229.589966
30
0.0
10
113.495940
20
229.750889
30
0.0
10
115.287711
20
230.055718
30
0.0
10
118.788092
20
231.006885
30
0.0
10
122.205607
20
232.263042
30
0.0
10
125.573877
20
233.643764
30
0.0
10
127.630662
20
234.239826
30
0.0
10
129.762633
20
234.310998
30
0.0
10
130.800116
20
234.119743
30
0.0
10
131.788357
20
233.761257
30
0.0
10
132.704679
20
233.223538
30
0.0
10
133.526400
20
232.494583
30
0.0
10
134.935204
20
230.908063
30
0.0
10
135.963089
20
229.093537
30
0.0
10
136.626660
20
227.113842
30
0.0
10
136.942522
20
225.031813
30
0.0
10
136.927281
20
222.910286
30
0.0
10
136.597540
20
220.812098
30
0.0
10
135.969906
20
218.800085
30
0.0
10
135.060984
20
216.937083
30
0.0
10
134.224656
20
215.806613
30
0.0
10
133.245940
20
214.805277
30
0.0
10
132.144486
20
213.948326
30
0.0
10
130.939942
20
213.251017
30
0.0
10
129.651958
20
212.728602
30
0.0
10
128.300183
20
212.396335
30
0.0
10
126.904266
20
212.269470
30
0.0
10
125.483857
20
212.363260
30
0.0
10
122.036292
20
212.571690
30
0.0
10
118.581155
20
212.624320
30
0.0
10
111.689456
20
212.403889
30
0.0
10
108.976220
20
212.858821
30
0.0
10
106.328213
20
213.673332
30
0.0
10
103.796573
20
214.801211
30
0.0
10
101.432442
20
216.196250
30
0.0
10
99.190366
20
217.989469
30
0.0
10
98.107756
20
218.951276
30
0.0
10
97.114563
20
220.020561
30
0.0
10
96.035883
20
221.213354
30
0.0
10
95.579508
20
221.772363
30
0.0
10
95.502619
20
221.944679
30
0.0
10
95.576331
20
222.008264
30
0.0
10
99.294982
20
220.705800
30
0.0
10
103.161741
20
219.785803
30
0.0
10
107.107531
20
219.328807
30
0.0
10
111.063275
20
219.415347
30
0.0
10
118.875467
20
220.562552
30
0.0
10
122.748638
20
221.295323
30
0.0
10
126.523761
20
222.387500
30
0.0
10
128.467403
20
223.467732
30
0.0
10
130.347700
20
224.764192
30
0.0
10
131.179048
20
225.521733
30
0.0
10
131.892504
20
226.367202
30
0.0
10
132.454049
20
227.311889
30
0.0
10
132.829664
20
228.367083
30
0.0
10
132.920139
20
229.150841
30
0.0
10
132.805326
20
229.882341
30
0.0
10
132.514154
20
230.548822
30
0.0
10
132.075549
20
231.137523
30
0.0
10
130.871753
20
232.030541
30
0.0
10
129.425359
20
232.459306
30
0.0
10
127.506508
20
232.645716
30
0.0
10
125.602512
20
232.369435
30
0.0
10
124.712017
20
232.038652
30
0.0
10
123.892353
20
231.569235
30
0.0
10
123.165894
20
230.953532
30
0.0
10
122.555011
20
230.183889
30
0.0
10
121.308136
20
228.627090
30
0.0
10
119.911470
20
227.224733
30
0.0
10
118.391562
20
225.957262
30
0.0
10
116.774963
20
224.805121
30
0.0
10
113.357890
20
222.768609
30
0.0
10
109.872650
20
220.958750
30
0.0
10
106.853742
20
224.530413
30
0.0
10
105.210760
20
226.208598
30
0.0
10
103.470422
20
227.778866
30
0.0
10
101.626476
20
229.214103
30
0.0
10
99.672667
20
230.487195
30
0.0
10
97.602745
20
231.571028
30
0.0
10
95.410455
20
232.438486
30
0.0
10
94.855382
20
232.592674
30
0.0
10
94.425790
20
232.839159
30
0.0
10
94.245450
20
233.224939
30
0.0
10
94.438131
20
233.797016
30
0.0
10
94.709827
20
234.923978
30
0.0
10
94.555652
20
235.073750
30
0.0
10
94.261333
20
235.022898
30
0.0
10
92.480706
20
233.940972
30
0.0
10
91.822624
20
233.750111
30
0.0
10
91.067533
20
233.772759
30
0.0
10
89.949525
20
234.152639
30
0.0
10
91.177995
20
235.795933
30
0.0
10
92.237145
20
237.542190
30
0.0
10
93.136302
20
239.375896
30
0.0
10
93.884795
20
241.281540
30
0.0
10
94.967102
20
245.246597
30
0.0
10
95.558692
20
249.313264
30
0.0
10
95.677294
20
250.890190
30
0.0
10
95.500635
20
251.414781
30
0.0
10
95.256225
20
251.446686
30
0.0
10
94.870775
20
251.262361
30
0.0
10
93.313211
20
250.687681
30
0.0
10
91.715230
20
250.317069
30
0.0
10
88.434656
20
250.017151
30
0.0
10
85.102336
20
250.020798
30
0.0
10
81.791550
20
249.986203
30
0.0
10
77.942639
20
250.126167
30
0.0
10
76.064414
20
250.425014
30
0.0
10
74.268553
20
251.041875
30
0.0
10
73.817909
20
250.921324
30
0.0
10
73.545999
20
250.656394
30
0.0
10
73.390357
20
249.834629
30
0.0
10
73.595639
20
248.012087
30
0.0
10
74.147497
20
244.390684
30
0.0
10
75.214058
20
240.892000
30
0.0
10
76.753093
20
237.581102
30
0.0
10
78.722372
20
234.523056
30
0.0
10
79.100337
20
234.100487
30
0.0
10
78.811138
20
233.855608
30
0.0
10
77.611122
20
233.632292
30
0.0
10
76.985312
20
234.439571
30
0.0
10
76.429402
20
235.374855
30
0.0
10
75.785255
20
236.175281
30
0.0
10
75.380675
20
236.442778
30
0.0
10
74.894734
20
236.577986
30
0.0
10
74.659545
20
236.185749
30
0.0
10
74.587398
20
235.760754
30
0.0
10
74.778337
20
234.848266
30
0.0
10
75.159766
20
233.912079
30
0.0
10
75.423900
20
233.023750
30
0.0
10
72.426736
20
231.870554
30
0.0
10
69.615036
20
230.278092
30
0.0
10
66.695862
20
228.471927
30
0.0
10
64.005509
20
226.348755
30
0.0
10
61.598977
20
223.922153
30
0.0
10
59.531261
20
221.205694
30
0.0
10
58.651429
20
221.196883
30
0.0
10
57.780882
20
221.556787
30
0.0
10
56.922261
20
222.046513
30
0.0
10
56.078205
20
222.427166
30
0.0
10
53.494780
20
223.823396
30
0.0
10
51.084702
20
225.504333
30
0.0
10
48.875074
20
227.444755
30
0.0
10
46.892997
20
229.619444
30
0.0
10
45.326026
20
231.037520
30
0.0
10
43.466622
20
232.036396
30
0.0
10
42.462836
20
232.326978
30
0.0
10
41.428635
20
232.450772
30
0.0
10
40.378251
20
232.387116
30
0.0
10
39.325914
20
232.115347
30
0.0
10
37.905627
20
231.563607
30
0.0
10
36.736194
20
230.565510
30
0.0
10
36.335466
20
229.938284
30
0.0
10
36.105353
20
229.246516
30
0.0
10
36.081824
20
228.505888
30
0.0
10
36.300845
20
227.732083
30
0.0
10
37.005683
20
226.420107
30
0.0
10
37.915013
20
225.265308
30
0.0
10
38.993939
20
224.257302
30
0.0
10
40.207566
20
223.385706
30
0.0
10
42.899345
20
222.010212
30
0.0
10
45.711192
20
221.055764
30
0.0
10
53.566453
20
219.881286
30
0.0
10
61.480359
20
219.168403
30
0.0
10
64.664525
20
219.475758
30
0.0
10
67.816874
20
220.118587
30
0.0
10
70.883362
20
221.031568
30
0.0
10
73.809942
20
222.149375
30
0.0
10
72.085461
20
219.920796
30
0.0
10
70.028647
20
217.964032
30
0.0
10
67.741403
20
216.243447
30
0.0
10
65.325636
20
214.723403
30
0.0
10
61.795754
20
213.327624
30
0.0
10
58.173067
20
212.130486
30
0.0
10
57.191367
20
212.058297
30
0.0
10
56.143180
20
212.183638
30
0.0
10
55.073652
20
212.355163
30
0.0
10
54.027928
20
212.421528
30
0.0
10
50.977927
20
212.592492
30
0.0
10
47.931180
20
212.513309
30
0.0
10
41.865914
20
211.980556
30
0.0
10
40.031716
20
212.293414
30
0.0
10
38.315745
20
212.939380
30
0.0
10
36.750513
20
213.879029
30
0.0
10
35.368528
20
215.072933
30
0.0
10
34.202302
20
216.481666
30
0.0
10
33.284344
20
218.065800
30
0.0
10
32.647165
20
219.785910
30
0.0
10
32.323275
20
221.602569
30
0.0
10
32.146173
20
223.332628
30
0.0
10
32.200463
20
225.079907
30
0.0
10
32.487252
20
226.802516
30
0.0
10
33.007645
20
228.458566
30
0.0
10
33.762747
20
230.006167
30
0.0
10
34.753666
20
231.403429
30
0.0
10
35.981506
20
232.608461
30
0.0
10
37.447372
20
233.579375
30
0.0
10
38.959305
20
233.999382
30
0.0
10
40.458348
20
234.057068
30
0.0
10
41.944733
20
233.830755
30
0.0
10
43.418691
20
233.398765
30
0.0
10
46.330250
20
232.231045
30
0.0
10
49.194872
20
231.180486
30
0.0
10
52.153914
20
230.329879
30
0.0
10
55.176012
20
229.673842
30
0.0
10
58.234815
20
229.303697
30
0.0
10
61.303970
20
229.310764
30
0.0
10
61.623113
20
229.626310
30
0.0
10
61.705641
20
229.919949
30
0.0
10
61.348402
20
230.412732
30
0.0
10
60.607350
20
230.731563
30
0.0
10
59.857581
20
230.818889
30
0.0
10
57.665345
20
231.198788
30
0.0
10
55.496936
20
231.740856
30
0.0
10
53.376018
20
232.450938
30
0.0
10
51.326255
20
233.334880
30
0.0
10
49.371311
20
234.398524
30
0.0
10
47.534849
20
235.647718
30
0.0
10
45.840535
20
237.088304
30
0.0
10
44.312033
20
238.726129
30
0.0
10
42.792720
20
240.494606
30
0.0
10
41.419363
20
242.370024
30
0.0
10
38.919269
20
246.297265
30
0.0
10
36.429253
20
250.219021
30
0.0
10
35.068493
20
252.087582
30
0.0
10
33.566817
20
253.846458
30
0.0
10
32.010876
20
255.084805
30
0.0
10
30.294829
20
256.041460
30
0.0
10
28.452803
20
256.744932
30
0.0
10
26.518920
20
257.223734
30
0.0
10
24.527304
20
257.506374
30
0.0
10
22.512080
20
257.621363
30
0.0
10
18.547303
20
257.462431
30
0.0
10
16.690156
20
257.144267
30
0.0
10
14.893287
20
256.562495
30
0.0
10
13.197049
20
255.734361
30
0.0
10
11.641794
20
254.677112
30
0.0
10
10.267875
20
253.407992
30
0.0
10
9.115643
20
251.944249
30
0.0
10
8.225451
20
250.303128
30
0.0
10
7.637650
20
248.501875
30
0.0
10
7.193887
20
246.008946
30
0.0
10
7.060317
20
243.456817
30
0.0
10
7.237463
20
240.907061
30
0.0
10
7.725845
20
238.421250
30
0.0
10
7.901398
20
237.813648
30
0.0
10
7.894884
20
237.115196
30
0.0
10
7.933937
20
236.436976
30
0.0
10
8.246192
20
235.890069
30
0.0
10
7.561263
20
236.585054
30
0.0
10
6.835081
20
237.618681
30
0.0
10
6.059589
20
239.224168
30
0.0
10
5.450728
20
240.902419
30
0.0
10
5.007619
20
242.635587
30
0.0
10
4.729382
20
244.405822
30
0.0
10
4.615138
20
246.195278
30
0.0
10
4.664010
20
247.986106
30
0.0
10
4.875117
20
249.760458
30
0.0
10
5.247581
20
251.500486
30
0.0
10
6.221364
20
253.533392
30
0.0
10
7.349567
20
255.511530
30
0.0
10
8.631313
20
257.404481
30
0.0
10
10.065729
20
259.181828
30
0.0
10
11.651939
20
260.813152
30
0.0
10
13.389067
20
262.268035
30
0.0
10
15.276240
20
263.516059
30
0.0
10
17.312581
20
264.526806
30
0.0
10
19.673237
20
265.138242
30
0.0
10
22.086329
20
265.450601
30
0.0
10
24.520550
20
265.474258
30
0.0
10
26.944591
20
265.219591
30
0.0
10
29.327144
20
264.696976
30
0.0
10
31.636900
20
263.916790
30
0.0
10
33.842551
20
262.889408
30
0.0
10
35.912789
20
261.625208
30
0.0
10
38.016020
20
260.042912
30
0.0
10
39.911112
20
258.243796
30
0.0
10
41.633813
20
256.270640
30
0.0
10
43.219872
20
254.166226
30
0.0
10
46.125057
20
249.734744
30
0.0
10
48.912650
20
245.291597
30
0.0
10
49.742210
20
243.976762
30
0.0
10
50.728562
20
242.718228
30
0.0
10
51.856862
20
241.565907
30
0.0
10
53.112261
20
240.569712
30
0.0
10
54.479915
20
239.779556
30
0.0
10
55.944974
20
239.245351
30
0.0
10
57.492594
20
239.017009
30
0.0
10
59.107928
20
239.144444
30
0.0
10
61.047162
20
239.679365
30
0.0
10
62.932348
20
240.438438
30
0.0
10
64.695672
20
241.436868
30
0.0
10
66.269317
20
242.689861
30
0.0
10
66.714962
20
244.075409
30
0.0
10
67.072258
20
245.504968
30
0.0
10
67.532997
20
246.898397
30
0.0
10
68.288970
20
248.175556
30
0.0
10
69.300462
20
249.511794
30
0.0
10
70.502612
20
250.678413
30
0.0
10
73.170322
20
252.771426
30
0.0
10
74.481602
20
253.832133
30
0.0
10
75.674978
20
254.991850
30
0.0
10
76.673309
20
256.317735
30
0.0
10
77.399456
20
257.876944
30
0.0
10
77.576734
20
259.391881
30
0.0
10
77.567025
20
260.928472
30
0.0
10
76.730515
20
260.057759
30
0.0
10
75.736765
20
259.312881
30
0.0
10
74.683597
20
258.738595
30
0.0
10
73.668831
20
258.379653
30
0.0
10
76.294706
20
260.769259
30
0.0
10
77.393360
20
262.142103
30
0.0
10
78.131470
20
263.724236
30
0.0
10
78.767321
20
264.872588
30
0.0
10
79.045218
20
265.488451
30
0.0
10
79.180984
20
266.158403
30
0.0
10
79.630702
20
269.497650
30
0.0
10
79.663070
20
271.195803
30
0.0
10
79.548956
20
272.887031
30
0.0
10
79.274744
20
274.551877
30
0.0
10
78.826818
20
276.170883
30
0.0
10
78.191562
20
277.724591
30
0.0
10
77.355359
20
279.193542
30
0.0
10
77.505289
20
278.999514
30
0.0
10
77.505278
20
278.999514
30
0.0
0
LWPOLYLINE
100
AcDbPolyline
8
Calque_1
90
34
70
0
10
64.919931
20
268.266250
30
0.0
10
66.127103
20
268.151525
30
0.0
10
67.221648
20
267.701400
30
0.0
10
68.162864
20
266.979169
30
0.0
10
68.910049
20
266.048128
30
0.0
10
69.422501
20
264.971570
30
0.0
10
69.659519
20
263.812789
30
0.0
10
69.580400
20
262.635079
30
0.0
10
69.144444
20
261.501736
30
0.0
10
68.859798
20
262.187184
30
0.0
10
68.379291
20
262.696957
30
0.0
10
67.764189
20
263.026798
30
0.0
10
67.075760
20
263.172451
30
0.0
10
66.375270
20
263.129660
30
0.0
10
65.723985
20
262.894168
30
0.0
10
65.183172
20
262.461719
30
0.0
10
64.814097
20
261.828056
30
0.0
10
64.602844
20
261.090295
30
0.0
10
64.615234
20
260.308979
30
0.0
10
64.852733
20
259.590466
30
0.0
10
65.316806
20
259.041111
30
0.0
10
63.864841
20
259.112021
30
0.0
10
62.594160
20
259.693232
30
0.0
10
61.561699
20
260.662623
30
0.0
10
60.824392
20
261.898070
30
0.0
10
60.439175
20
263.277453
30
0.0
10
60.462983
20
264.678648
30
0.0
10
60.952752
20
265.979533
30
0.0
10
61.390164
20
266.554196
30
0.0
10
61.965417
20
267.057986
30
0.0
10
63.352591
20
267.897739
30
0.0
10
64.119144
20
268.155653
30
0.0
10
64.919931
20
268.266250
30
0.0
10
64.919931
20
268.266250
30
0.0
0
LWPOLYLINE
100
AcDbPolyline
8
Calque_1
90
35
70
0
10
104.087083
20
267.966389
30
0.0
10
104.838930
20
267.920957
30
0.0
10
105.532211
20
267.737818
30
0.0
10
106.724801
20
267.022055
30
0.0
10
107.628300
20
265.946362
30
0.0
10
108.206154
20
264.638004
30
0.0
10
108.421812
20
263.224244
30
0.0
10
108.238718
20
261.832347
30
0.0
10
107.620322
20
260.589576
30
0.0
10
106.530069
20
259.623194
30
0.0
10
105.836024
20
259.259295
30
0.0
10
105.085183
20
259.049823
30
0.0
10
103.513819
20
258.970556
30
0.0
10
104.022747
20
259.501162
30
0.0
10
104.281760
20
260.132417
30
0.0
10
104.315707
20
260.808121
30
0.0
10
104.149440
20
261.472073
30
0.0
10
103.807808
20
262.068076
30
0.0
10
103.315664
20
262.539929
30
0.0
10
102.697856
20
262.831433
30
0.0
10
101.979236
20
262.886389
30
0.0
10
101.270884
20
262.792858
30
0.0
10
100.595806
20
262.533445
30
0.0
10
100.032565
20
262.102136
30
0.0
10
99.659722
20
261.492917
30
0.0
10
99.322444
20
262.529701
30
0.0
10
99.264091
20
263.596885
30
0.0
10
99.458427
20
264.645651
30
0.0
10
99.879216
20
265.627183
30
0.0
10
100.500219
20
266.492666
30
0.0
10
101.295201
20
267.193283
30
0.0
10
102.237925
20
267.680217
30
0.0
10
103.302153
20
267.904653
30
0.0
10
104.087083
20
267.966389
30
0.0
10
104.087083
20
267.966389
30
0.0
0
LWPOLYLINE
100
AcDbPolyline
8
Calque_1
90
13
70
0
10
67.001319
20
261.731042
30
0.0
10
67.515409
20
261.373212
30
0.0
10
67.915669
20
260.769849
30
0.0
10
68.244861
20
259.658472
30
0.0
10
67.791009
20
259.578692
30
0.0
10
67.301752
20
259.649286
30
0.0
10
66.424334
20
260.129436
30
0.0
10
66.139830
20
260.482914
30
0.0
10
66.027232
20
260.874608
30
0.0
10
66.138369
20
261.276479
30
0.0
10
66.525069
20
261.660486
30
0.0
10
67.001319
20
261.731042
30
0.0
10
67.001319
20
261.731042
30
0.0
0
LWPOLYLINE
100
AcDbPolyline
8
Calque_1
90
15
70
0
10
101.996875
20
261.484097
30
0.0
10
102.373280
20
261.374317
30
0.0
10
102.621702
20
261.152473
30
0.0
10
102.761614
20
260.526530
30
0.0
10
102.470650
20
259.914145
30
0.0
10
102.180476
20
259.709248
30
0.0
10
101.802847
20
259.623194
30
0.0
10
101.258381
20
259.505517
30
0.0
10
100.831763
20
259.611546
30
0.0
10
100.656973
20
259.932860
30
0.0
10
100.867986
20
260.461042
30
0.0
10
101.304819
20
261.133551
30
0.0
10
101.615614
20
261.378550
30
0.0
10
101.996875
20
261.484097
30
0.0
10
101.996875
20
261.484097
30
0.0
0
LWPOLYLINE
100
AcDbPolyline
8
Calque_1
90
56
70
0
10
114.952639
20
258.476667
30
0.0
10
114.447375
20
256.774317
30
0.0
10
113.762811
20
255.148284
30
0.0
10
111.975200
20
252.091080
30
0.0
10
109.828635
20
249.236878
30
0.0
10
107.561944
20
246.517500
30
0.0
10
107.486824
20
246.437221
30
0.0
10
107.433261
20
246.763766
30
0.0
10
107.344820
20
247.216327
30
0.0
10
107.165069
20
247.514097
30
0.0
10
106.852380
20
247.994307
30
0.0
10
106.441792
20
248.364756
30
0.0
10
105.442485
20
248.747945
30
0.0
10
104.398272
20
248.606814
30
0.0
10
103.931552
20
248.321863
30
0.0
10
103.540278
20
247.884514
30
0.0
10
103.311064
20
247.591684
30
0.0
10
103.138039
20
247.172277
30
0.0
10
102.994155
20
246.941419
30
0.0
10
102.852361
20
247.214236
30
0.0
10
101.514789
20
249.463766
30
0.0
10
99.781317
20
251.408020
30
0.0
10
97.786405
20
253.107465
30
0.0
10
95.664514
20
254.622569
30
0.0
10
94.241473
20
256.019104
30
0.0
10
93.614420
20
256.790756
30
0.0
10
93.106875
20
257.647639
30
0.0
10
98.557478
20
256.002840
30
0.0
10
101.314198
20
255.392425
30
0.0
10
103.875417
20
255.001806
30
0.0
10
102.913384
20
254.314961
30
0.0
10
102.165237
20
253.370505
30
0.0
10
101.947035
20
252.836654
30
0.0
10
101.873100
20
252.280380
30
0.0
10
101.973699
20
251.715673
30
0.0
10
102.279097
20
251.156528
30
0.0
10
103.098938
20
250.143501
30
0.0
10
104.240863
20
249.545298
30
0.0
10
104.863049
20
249.448775
30
0.0
10
105.482286
20
249.512380
30
0.0
10
106.070753
20
249.754922
30
0.0
10
106.600625
20
250.195208
30
0.0
10
107.200853
20
250.699902
30
0.0
10
107.570819
20
251.327923
30
0.0
10
107.729039
20
252.033389
30
0.0
10
107.694031
20
252.770416
30
0.0
10
107.484314
20
253.493120
30
0.0
10
107.118406
20
254.155617
30
0.0
10
106.614823
20
254.712025
30
0.0
10
105.992083
20
255.116458
30
0.0
10
108.436652
20
255.473277
30
0.0
10
110.796583
20
256.187588
30
0.0
10
113.007632
20
257.265917
30
0.0
10
115.005556
20
258.714792
30
0.0
10
114.952639
20
258.476667
30
0.0
10
114.952639
20
258.476667
30
0.0
0
LWPOLYLINE
100
AcDbPolyline
8
Calque_1
90
53
70
0
10
54.001458
20
258.353194
30
0.0
10
56.032054
20
257.057007
30
0.0
10
58.199284
20
255.999996
30
0.0
10
60.483486
20
255.244254
30
0.0
10
62.865000
20
254.851875
30
0.0
10
62.193874
20
254.534985
30
0.0
10
61.707667
20
254.064563
30
0.0
10
61.396408
20
253.480278
30
0.0
10
61.250126
20
252.821798
30
0.0
10
61.412608
20
251.440930
30
0.0
10
61.701431
20
250.797878
30
0.0
10
62.115347
20
250.239306
30
0.0
10
62.648121
20
249.721646
30
0.0
10
63.292077
20
249.446172
30
0.0
10
63.999141
20
249.386531
30
0.0
10
64.721238
20
249.516371
30
0.0
10
65.410294
20
249.809337
30
0.0
10
66.018235
20
250.239079
30
0.0
10
66.496985
20
250.779241
30
0.0
10
66.798472
20
251.403472
30
0.0
10
66.824084
20
252.463152
30
0.0
10
66.540172
20
253.484794
30
0.0
10
65.953257
20
254.343309
30
0.0
10
65.069861
20
254.913611
30
0.0
10
70.505047
20
255.960331
30
0.0
10
73.173481
20
256.688703
30
0.0
10
75.785486
20
257.594722
30
0.0
10
74.935999
20
256.248615
30
0.0
10
73.880700
20
255.101541
30
0.0
10
71.420383
20
253.144408
30
0.0
10
68.939961
20
251.203162
30
0.0
10
67.859532
20
250.075945
30
0.0
10
66.974861
20
248.757639
30
0.0
10
66.336123
20
247.566697
30
0.0
10
65.854792
20
246.499861
30
0.0
10
65.512174
20
247.428941
30
0.0
10
64.851197
20
248.160038
30
0.0
10
63.973233
20
248.517453
30
0.0
10
63.484559
20
248.501123
30
0.0
10
62.979653
20
248.325486
30
0.0
10
62.124359
20
247.927673
30
0.0
10
61.627483
20
247.196900
30
0.0
10
61.517856
20
246.302815
30
0.0
10
61.824306
20
245.415069
30
0.0
10
60.793296
20
247.019612
30
0.0
10
59.641783
20
248.562987
30
0.0
10
57.242327
20
251.600879
30
0.0
10
56.126924
20
253.162718
30
0.0
10
55.156100
20
254.798036
30
0.0
10
54.396123
20
256.540493
30
0.0
10
53.913264
20
258.423750
30
0.0
10
54.001458
20
258.353194
30
0.0
10
54.001458
20
258.353194
30
0.0
0
LWPOLYLINE
100
AcDbPolyline
8
Calque_1
90
61
70
0
10
146.861389
20
256.659861
30
0.0
10
148.656173
20
256.642157
30
0.0
10
150.470348
20
256.442722
30
0.0
10
152.257658
20
256.047805
30
0.0
10
153.971845
20
255.443655
30
0.0
10
155.566652
20
254.616521
30
0.0
10
156.995823
20
253.552652
30
0.0
10
158.213101
20
252.238296
30
0.0
10
159.172227
20
250.659704
30
0.0
10
159.906654
20
248.804133
30
0.0
10
160.323665
20
246.767157
30
0.0
10
160.469504
20
244.781008
30
0.0
10
160.390417
20
243.077917
30
0.0
10
159.870636
20
245.139923
30
0.0
10
159.094618
20
247.094536
30
0.0
10
158.033842
20
248.901741
30
0.0
10
156.659792
20
250.521528
30
0.0
10
154.617446
20
252.330921
30
0.0
10
153.459571
20
253.090843
30
0.0
10
152.230049
20
253.723089
30
0.0
10
150.943499
20
254.204289
30
0.0
10
149.614537
20
254.511074
30
0.0
10
148.257781
20
254.620073
30
0.0
10
146.887847
20
254.507917
30
0.0
10
145.594891
20
254.065027
30
0.0
10
144.454663
20
253.400064
30
0.0
10
143.455528
20
252.549100
30
0.0
10
142.585855
20
251.548205
30
0.0
10
141.188360
20
249.240904
30
0.0
10
140.169115
20
246.766725
30
0.0
10
137.800305
20
240.480200
30
0.0
10
136.383530
20
237.454199
30
0.0
10
135.499119
20
236.045441
30
0.0
10
134.452431
20
234.734722
30
0.0
10
134.078723
20
234.384336
30
0.0
10
133.704627
20
234.339534
30
0.0
10
132.953125
20
234.822917
30
0.0
10
131.488809
20
235.479082
30
0.0
10
129.986108
20
235.770423
30
0.0
10
128.460847
20
235.758517
30
0.0
10
126.928852
20
235.504941
30
0.0
10
123.907960
20
234.519083
30
0.0
10
121.050036
20
233.305464
30
0.0
10
119.463705
20
232.687514
30
0.0
10
118.968024
20
232.547625
30
0.0
10
119.494653
20
232.873819
30
0.0
10
121.457686
20
234.246019
30
0.0
10
123.299387
20
235.763790
30
0.0
10
125.021463
20
237.413381
30
0.0
10
126.625623
20
239.181041
30
0.0
10
129.487024
20
243.015563
30
0.0
10
131.897255
20
247.157349
30
0.0
10
133.524752
20
249.854034
30
0.0
10
135.480783
20
252.335328
30
0.0
10
136.608922
20
253.419356
30
0.0
10
137.851501
20
254.358520
30
0.0
10
139.219289
20
255.122482
30
0.0
10
140.723056
20
255.680903
30
0.0
10
143.757244
20
256.399889
30
0.0
10
146.861389
20
256.659861
30
0.0
10
146.861389
20
256.659861
30
0.0
0
LWPOLYLINE
100
AcDbPolyline
8
Calque_1
90
59
70
0
10
21.590000
20
256.262986
30
0.0
10
23.527944
20
256.213419
30
0.0
10
25.487090
20
255.981535
30
0.0
10
27.420948
20
255.551692
30
0.0
10
29.283025
20
254.908244
30
0.0
10
31.026832
20
254.035548
30
0.0
10
32.605877
20
252.917960
30
0.0
10
33.973670
20
251.539835
30
0.0
10
35.083719
20
249.885529
30
0.0
10
37.994896
20
245.073327
30
0.0
10
41.183257
20
240.417335
30
0.0
10
42.954477
20
238.242577
30
0.0
10
44.882708
20
236.220464
30
0.0
10
46.997187
20
234.388858
30
0.0
10
49.327153
20
232.785625
30
0.0
10
50.077411
20
232.335104
30
0.0
10
49.035465
20
232.679224
30
0.0
10
44.285234
20
234.602684
30
0.0
10
41.845940
20
235.289123
30
0.0
10
40.583325
20
235.427842
30
0.0
10
39.281806
20
235.378542
30
0.0
10
38.159025
20
235.354351
30
0.0
10
37.109824
20
235.032316
30
0.0
10
35.171944
20
234.020347
30
0.0
10
34.282086
20
234.785163
30
0.0
10
33.542101
20
235.672803
30
0.0
10
32.389767
20
237.707766
30
0.0
10
30.541736
20
242.054861
30
0.0
10
29.252316
20
245.354052
30
0.0
10
27.853350
20
248.684251
30
0.0
10
26.988993
20
250.229775
30
0.0
10
25.948698
20
251.625607
30
0.0
10
24.682947
20
252.819263
30
0.0
10
23.142222
20
253.758264
30
0.0
10
21.362437
20
254.111007
30
0.0
10
19.591473
20
254.089191
30
0.0
10
17.860892
20
253.733318
30
0.0
10
16.202259
20
253.083893
30
0.0
10
14.647137
20
252.181421
30
0.0
10
13.227090
20
251.066406
30
0.0
10
11.973680
20
249.779352
30
0.0
10
10.918472
20
248.360764
30
0.0
10
10.095634
20
246.997083
30
0.0
10
9.407222
20
245.529301
30
0.0
10
8.896761
20
244.024246
30
0.0
10
8.607778
20
242.548750
30
0.0
10
8.561876
20
244.963840
30
0.0
10
8.801245
20
247.350827
30
0.0
10
9.470746
20
249.622734
30
0.0
10
10.012065
20
250.688351
30
0.0
10
10.715241
20
251.692581
30
0.0
10
11.715165
20
252.877438
30
0.0
10
12.874473
20
253.856500
30
0.0
10
14.164819
20
254.645013
30
0.0
10
15.557857
20
255.258225
30
0.0
10
17.025240
20
255.711381
30
0.0
10
18.538622
20
256.019729
30
0.0
10
21.590000
20
256.262986
30
0.0
10
21.590000
20
256.262986
30
0.0
0
LWPOLYLINE
100
AcDbPolyline
8
Calque_1
90
20
70
0
10
104.898472
20
253.872917
30
0.0
10
105.422153
20
253.815679
30
0.0
10
105.839458
20
253.552048
30
0.0
10
106.136953
20
253.141740
30
0.0
10
106.301205
20
252.644471
30
0.0
10
106.318778
20
252.119960
30
0.0
10
106.176238
20
251.627923
30
0.0
10
105.860152
20
251.228077
30
0.0
10
105.357083
20
250.980139
30
0.0
10
104.873903
20
250.840958
30
0.0
10
104.387930
20
250.935172
30
0.0
10
103.943443
20
251.208017
30
0.0
10
103.584720
20
251.604727
30
0.0
10
103.356042
20
252.070538
30
0.0
10
103.301686
20
252.550686
30
0.0
10
103.465931
20
252.990405
30
0.0
10
103.893056
20
253.334931
30
0.0
10
104.363701
20
253.673181
30
0.0
10
104.898472
20
253.872917
30
0.0
10
104.898472
20
253.872917
30
0.0
0
LWPOLYLINE
100
AcDbPolyline
8
Calque_1
90
17
70
0
10
64.337847
20
253.793542
30
0.0
10
65.039080
20
253.209073
30
0.0
10
65.412740
20
252.302501
30
0.0
10
65.422169
20
251.839505
30
0.0
10
65.284231
20
251.429279
30
0.0
10
64.977103
20
251.116253
30
0.0
10
64.478958
20
250.944861
30
0.0
10
63.861021
20
250.767698
30
0.0
10
63.344673
20
250.955515
30
0.0
10
62.955425
20
251.399481
30
0.0
10
62.718793
20
251.990763
30
0.0
10
62.660289
20
252.620531
30
0.0
10
62.805426
20
253.179952
30
0.0
10
63.179719
20
253.560196
30
0.0
10
63.808681
20
253.652431
30
0.0
10
64.337847
20
253.793542
30
0.0
10
64.337847
20
253.793542
30
0.0
0
LWPOLYLINE
100
AcDbPolyline
8
Calque_1
90
48
70
0
10
94.121111
20
249.436736
30
0.0
10
93.607739
20
245.586955
30
0.0
10
92.606857
20
241.829474
30
0.0
10
91.906028
20
240.020658
30
0.0
10
91.062234
20
238.277291
30
0.0
10
90.068448
20
236.613498
30
0.0
10
88.917639
20
235.043403
30
0.0
10
88.423104
20
234.640112
30
0.0
10
88.348517
20
234.655204
30
0.0
10
88.952917
20
235.396181
30
0.0
10
89.591433
20
236.291019
30
0.0
10
90.079704
20
237.304508
30
0.0
10
90.402583
20
238.394850
30
0.0
10
90.544918
20
239.520251
30
0.0
10
90.491560
20
240.638915
30
0.0
10
90.227360
20
241.709046
30
0.0
10
89.737167
20
242.688849
30
0.0
10
89.005833
20
243.536528
30
0.0
10
87.872272
20
243.929105
30
0.0
10
86.681184
20
243.966675
30
0.0
10
85.494869
20
243.760509
30
0.0
10
84.375625
20
243.421875
30
0.0
10
82.815870
20
243.955637
30
0.0
10
81.967755
20
244.018246
30
0.0
10
81.135358
20
243.928359
30
0.0
10
80.364588
20
243.673737
30
0.0
10
79.701352
20
243.242145
30
0.0
10
79.191557
20
242.621344
30
0.0
10
78.881111
20
241.799097
30
0.0
10
78.533712
20
240.773589
30
0.0
10
78.422397
20
239.742890
30
0.0
10
78.517023
20
238.721129
30
0.0
10
78.787446
20
237.722433
30
0.0
10
79.735109
20
235.850741
30
0.0
10
81.024236
20
234.240833
30
0.0
10
79.127224
20
236.399304
30
0.0
10
77.612044
20
238.855255
30
0.0
10
76.455790
20
241.504307
30
0.0
10
75.635556
20
244.242083
30
0.0
10
75.177018
20
246.821773
30
0.0
10
74.894722
20
249.286806
30
0.0
10
77.960405
20
248.712918
30
0.0
10
81.109647
20
248.557996
30
0.0
10
87.435848
20
248.633693
30
0.0
10
90.840592
20
248.770961
30
0.0
10
92.518127
20
248.995046
30
0.0
10
94.121111
20
249.436736
30
0.0
10
94.121111
20
249.436736
30
0.0
0
LWPOLYLINE
100
AcDbPolyline
8
Calque_1
90
12
70
0
10
105.215972
20
247.390625
30
0.0
10
105.579123
20
247.288961
30
0.0
10
105.835961
20
247.065094
30
0.0
10
106.025731
20
246.432928
30
0.0
10
105.775343
20
245.858482
30
0.0
10
105.481985
20
245.706765
30
0.0
10
105.074861
20
245.706111
30
0.0
10
104.546138
20
246.090338
30
0.0
10
104.409870
20
246.605405
30
0.0
10
104.641375
20
247.091953
30
0.0
10
105.215972
20
247.390625
30
0.0
10
105.215972
20
247.390625
30
0.0
0
LWPOLYLINE
100
AcDbPolyline
8
Calque_1
90
12
70
0
10
63.958611
20
247.099583
30
0.0
10
64.244722
20
246.911731
30
0.0
10
64.386376
20
246.645495
30
0.0
10
64.313228
20
246.053157
30
0.0
10
63.892997
20
245.673148
30
0.0
10
63.600797
20
245.672321
30
0.0
10
63.279514
20
245.856042
30
0.0
10
62.917956
20
246.327792
30
0.0
10
62.997751
20
246.728779
30
0.0
10
63.388202
20
247.004284
30
0.0
10
63.958611
20
247.099583
30
0.0
10
63.958611
20
247.099583
30
0.0
0
LWPOLYLINE
100
AcDbPolyline
8
Calque_1
90
17
70
0
10
65.537292
20
245.335694
30
0.0
10
65.355477
20
244.392939
30
0.0
10
65.023897
20
243.509863
30
0.0
10
64.459711
20
242.793060
30
0.0
10
63.580078
20
242.349120
30
0.0
10
63.209713
20
242.226474
30
0.0
10
63.051375
20
242.601401
30
0.0
10
62.952160
20
243.164678
30
0.0
10
62.759167
20
243.607083
30
0.0
10
62.271817
20
244.584512
30
0.0
10
62.165321
20
244.852023
30
0.0
10
62.485764
20
244.586042
30
0.0
10
63.322185
20
244.257133
30
0.0
10
64.216377
20
244.341711
30
0.0
10
65.008143
20
244.735868
30
0.0
10
65.537292
20
245.335694
30
0.0
10
65.537292
20
245.335694
30
0.0
0
LWPOLYLINE
100
AcDbPolyline
8
Calque_1
90
12
70
0
10
103.540278
20
245.203403
30
0.0
10
104.203091
20
244.595078
30
0.0
10
105.038046
20
244.320894
30
0.0
10
105.906842
20
244.408589
30
0.0
10
106.671181
20
244.885903
30
0.0
10
106.166775
20
243.616033
30
0.0
10
105.815694
20
242.292986
30
0.0
10
104.882138
20
242.731200
30
0.0
10
104.139127
20
243.448368
30
0.0
10
103.665546
20
244.315449
30
0.0
10
103.540278
20
245.203403
30
0.0
10
103.540278
20
245.203403
30
0.0
0
LWPOLYLINE
100
AcDbPolyline
8
Calque_1
90
39
70
0
10
86.950903
20
242.601667
30
0.0
10
87.691935
20
242.470281
30
0.0
10
88.266080
20
242.114268
30
0.0
10
88.684465
20
241.583603
30
0.0
10
88.958217
20
240.928261
30
0.0
10
89.116333
20
239.443454
30
0.0
10
88.829444
20
238.059653
30
0.0
10
88.315046
20
236.981913
30
0.0
10
87.668657
20
235.909215
30
0.0
10
86.853009
20
235.007744
30
0.0
10
85.830833
20
234.443681
30
0.0
10
83.470378
20
234.381373
30
0.0
10
82.433298
20
234.686353
30
0.0
10
82.014215
20
235.048747
30
0.0
10
81.685694
20
235.599028
30
0.0
10
80.617223
20
237.185269
30
0.0
10
80.219531
20
238.106692
30
0.0
10
79.963986
20
239.063029
30
0.0
10
79.888928
20
240.016313
30
0.0
10
80.032697
20
240.928580
30
0.0
10
80.433631
20
241.761862
30
0.0
10
81.130069
20
242.478194
30
0.0
10
82.134390
20
242.549630
30
0.0
10
82.999792
20
242.337083
30
0.0
10
82.699504
20
241.942099
30
0.0
10
82.549429
20
241.477455
30
0.0
10
82.644788
20
240.494437
30
0.0
10
83.175617
20
239.698524
30
0.0
10
83.569880
20
239.467760
30
0.0
10
84.031667
20
239.400208
30
0.0
10
84.215274
20
239.697784
30
0.0
10
84.238717
20
240.020200
30
0.0
10
84.052649
20
240.686769
30
0.0
10
83.968538
20
241.294345
30
0.0
10
84.119427
20
241.543021
30
0.0
10
84.481458
20
241.737361
30
0.0
10
85.662302
20
242.334355
30
0.0
10
86.950903
20
242.601667
30
0.0
10
86.950903
20
242.601667
30
0.0
0
LWPOLYLINE
100
AcDbPolyline
8
Calque_1
90
12
70
0
10
83.052708
20
232.970833
30
0.0
10
84.971018
20
232.987527
30
0.0
10
85.840253
20
232.981169
30
0.0
10
86.047418
20
232.927029
30
0.0
10
86.024861
20
232.820903
30
0.0
10
85.210103
20
232.538094
30
0.0
10
84.365664
20
232.462312
30
0.0
10
83.532820
20
232.605512
30
0.0
10
82.752847
20
232.979653
30
0.0
10
83.034948
20
232.971355
30
0.0
10
83.052700
20
232.970791
30
0.0
10
83.052708
20
232.970833
30
0.0
0
LWPOLYLINE
100
AcDbPolyline
8
Calque_1
90
23
70
0
10
80.274583
20
232.662153
30
0.0
10
82.405962
20
231.572731
30
0.0
10
83.540863
20
231.164057
30
0.0
10
84.754861
20
231.057014
30
0.0
10
85.896522
20
231.194308
30
0.0
10
86.928976
20
231.646485
30
0.0
10
87.926092
20
232.200802
30
0.0
10
88.961736
20
232.644514
30
0.0
10
90.178037
20
232.546141
30
0.0
10
90.327040
20
232.351447
30
0.0
10
89.744248
20
232.003017
30
0.0
10
87.576297
20
230.724746
30
0.0
10
86.397331
20
230.202339
30
0.0
10
85.182633
20
229.819112
30
0.0
10
83.952897
20
229.621085
30
0.0
10
82.728819
20
229.654277
30
0.0
10
81.531094
20
229.964710
30
0.0
10
80.380417
20
230.598403
30
0.0
10
79.315841
20
231.416845
30
0.0
10
78.334306
20
232.335833
30
0.0
10
79.296546
20
232.541210
30
0.0
10
80.274583
20
232.662153
30
0.0
10
80.274583
20
232.662153
30
0.0
0
LWPOLYLINE
100
AcDbPolyline
8
Calque_1
90
30
70
0
10
92.595347
20
232.018333
30
0.0
10
92.090560
20
229.681571
30
0.0
10
91.664318
20
228.510179
30
0.0
10
91.103460
20
227.407714
30
0.0
10
90.393949
20
226.427375
30
0.0
10
89.521748
20
225.622362
30
0.0
10
88.472819
20
225.045874
30
0.0
10
87.233125
20
224.751111
30
0.0
10
85.805699
20
224.706072
30
0.0
10
84.421846
20
224.916441
30
0.0
10
83.102133
20
225.358086
30
0.0
10
81.867126
20
226.006874
30
0.0
10
80.737390
20
226.838673
30
0.0
10
79.733490
20
227.829348
30
0.0
10
78.875993
20
228.954768
30
0.0
10
78.185464
20
230.190801
30
0.0
10
77.840608
20
230.817074
30
0.0
10
78.049440
20
230.737109
30
0.0
10
79.080789
20
229.827437
30
0.0
10
80.203420
20
229.000973
30
0.0
10
81.437606
20
228.481957
30
0.0
10
82.747847
20
228.239046
30
0.0
10
84.098642
20
228.240901
30
0.0
10
85.454492
20
228.456181
30
0.0
10
86.779898
20
228.853544
30
0.0
10
88.039358
20
229.401650
30
0.0
10
89.197375
20
230.069157
30
0.0
10
90.860845
20
231.118810
30
0.0
10
92.595347
20
232.018333
30
0.0
10
92.595347
20
232.018333
30
0.0
0
LWPOLYLINE
100
AcDbPolyline
8
Calque_1
90
138
70
0
10
76.702708
20
229.989861
30
0.0
10
78.223746
20
227.499391
30
0.0
10
79.176111
20
226.379790
30
0.0
10
80.247878
20
225.387928
30
0.0
10
81.432675
20
224.556794
30
0.0
10
82.724130
20
223.919375
30
0.0
10
84.115872
20
223.508661
30
0.0
10
85.601528
20
223.357639
30
0.0
10
87.339915
20
223.335850
30
0.0
10
89.045508
20
223.680819
30
0.0
10
90.548260
20
224.470535
30
0.0
10
91.170431
20
225.056544
30
0.0
10
91.678125
20
225.782986
30
0.0
10
92.882296
20
223.299071
30
0.0
10
94.421829
20
221.042566
30
0.0
10
96.219254
20
218.975481
30
0.0
10
98.197103
20
217.059827
30
0.0
10
100.460942
20
215.188336
30
0.0
10
102.978502
20
213.678084
30
0.0
10
105.678083
20
212.478643
30
0.0
10
108.487986
20
211.539583
30
0.0
10
105.383426
20
210.697401
30
0.0
10
102.394967
20
209.543911
30
0.0
10
99.520552
20
208.120463
30
0.0
10
96.758125
20
206.468403
30
0.0
10
94.303850
20
204.862670
30
0.0
10
93.150916
20
203.966402
30
0.0
10
92.119097
20
202.993542
30
0.0
10
91.758976
20
202.928265
30
0.0
10
91.482689
20
202.730988
30
0.0
10
91.215949
20
202.129601
30
0.0
10
91.387555
20
201.567719
30
0.0
10
91.659198
20
201.419823
30
0.0
10
92.066181
20
201.423681
30
0.0
10
92.402634
20
201.357761
30
0.0
10
92.639860
20
201.052632
30
0.0
10
92.923181
20
200.758844
30
0.0
10
93.397917
20
200.726944
30
0.0
10
97.537384
20
200.666322
30
0.0
10
101.701879
20
200.670072
30
0.0
10
103.762613
20
200.548227
30
0.0
10
105.792525
20
200.265043
30
0.0
10
107.779256
20
199.761378
30
0.0
10
109.710446
20
198.978087
30
0.0
10
110.458194
20
198.643055
30
0.0
10
111.296113
20
198.376219
30
0.0
10
112.074073
20
198.053781
30
0.0
10
112.641944
20
197.551944
30
0.0
10
112.158478
20
195.643488
30
0.0
10
111.522893
20
193.772293
30
0.0
10
110.712616
20
191.974118
30
0.0
10
109.705069
20
190.284722
30
0.0
10
104.380250
20
192.464340
30
0.0
10
99.091205
20
194.838938
30
0.0
10
96.576334
20
196.230820
30
0.0
10
94.209891
20
197.829205
30
0.0
10
92.038369
20
199.686681
30
0.0
10
90.108264
20
201.855833
30
0.0
10
89.014531
20
203.318168
30
0.0
10
88.068530
20
204.859134
30
0.0
10
86.524656
20
208.121459
30
0.0
10
85.286509
20
211.531805
30
0.0
10
84.163958
20
214.979167
30
0.0
10
83.745055
20
213.171619
30
0.0
10
83.541367
20
211.322573
30
0.0
10
83.229409
20
209.507311
30
0.0
10
82.931741
20
208.635874
30
0.0
10
82.485698
20
207.801113
30
0.0
10
81.530095
20
205.595741
30
0.0
10
80.382759
20
203.482959
30
0.0
10
79.002099
20
201.524792
30
0.0
10
77.346528
20
199.783264
30
0.0
10
75.298688
20
197.856686
30
0.0
10
72.980903
20
196.308403
30
0.0
10
70.017569
20
194.570972
30
0.0
10
68.971183
20
197.704281
30
0.0
10
68.094931
20
200.894514
30
0.0
10
72.425874
20
200.768770
30
0.0
10
76.755625
20
200.771042
30
0.0
10
76.668620
20
201.135851
30
0.0
10
76.760150
20
201.333898
30
0.0
10
77.264069
20
201.451782
30
0.0
10
77.837881
20
201.568845
30
0.0
10
78.016777
20
201.765865
30
0.0
10
78.052083
20
202.129236
30
0.0
10
77.779886
20
202.663274
30
0.0
10
77.280608
20
202.958412
30
0.0
10
76.745938
20
203.238043
30
0.0
10
76.367569
20
203.725556
30
0.0
10
74.383241
20
205.238623
30
0.0
10
72.282642
20
206.608138
30
0.0
10
67.909722
20
208.946667
30
0.0
10
67.707734
20
210.303201
30
0.0
10
67.662185
20
211.725979
30
0.0
10
67.997917
20
214.494097
30
0.0
10
71.753154
20
217.706498
30
0.0
10
73.519126
20
219.439367
30
0.0
10
75.000556
20
221.426181
30
0.0
10
75.589337
20
221.994900
30
0.0
10
76.076370
20
222.726082
30
0.0
10
76.316538
20
223.530508
30
0.0
10
76.164722
20
224.318958
30
0.0
10
75.659091
20
224.410053
30
0.0
10
75.166315
20
224.354041
30
0.0
10
74.206308
20
223.951908
30
0.0
10
73.258654
20
223.414973
30
0.0
10
72.297307
20
223.045648
30
0.0
10
70.757926
20
222.396676
30
0.0
10
70.032690
20
222.133773
30
0.0
10
69.795066
20
222.125011
30
0.0
10
69.684155
20
222.238916
30
0.0
10
70.288297
20
223.626998
30
0.0
10
71.095993
20
224.895008
30
0.0
10
71.949197
20
226.133299
30
0.0
10
72.689861
20
227.432222
30
0.0
10
72.617794
20
227.877619
30
0.0
10
72.419272
20
228.103661
30
0.0
10
71.771271
20
228.070540
30
0.0
10
70.370347
20
227.273472
30
0.0
10
68.487181
20
226.032920
30
0.0
10
66.722750
20
224.630824
30
0.0
10
65.124063
20
223.052951
30
0.0
10
63.738125
20
221.285069
30
0.0
10
63.624515
20
220.993831
30
0.0
10
63.397110
20
220.800716
30
0.0
10
62.719553
20
220.628635
30
0.0
10
61.303958
20
220.579514
30
0.0
10
60.865069
20
220.633843
30
0.0
10
61.007297
20
220.959881
30
0.0
10
61.621458
20
221.814236
30
0.0
10
63.837838
20
224.315341
30
0.0
10
66.329233
20
226.518235
30
0.0
10
69.066272
20
228.424060
30
0.0
10
72.019583
20
230.033958
30
0.0
10
73.901720
20
230.946422
30
0.0
10
75.856042
20
231.692014
30
0.0
10
76.702708
20
229.989861
30
0.0
10
76.702708
20
229.989861
30
0.0
0
LWPOLYLINE
100
AcDbPolyline
8
Calque_1
90
22
70
0
10
94.323958
20
231.356875
30
0.0
10
96.034671
20
230.752750
30
0.0
10
97.681961
20
230.004978
30
0.0
10
100.778420
20
228.130477
30
0.0
10
103.597629
20
225.837332
30
0.0
10
106.123881
20
223.229502
30
0.0
10
107.366278
20
221.877100
30
0.0
10
107.935740
20
221.190542
30
0.0
10
108.232222
20
220.605972
30
0.0
10
103.874105
20
221.088720
30
0.0
10
99.597613
20
222.066375
30
0.0
10
97.521027
20
222.763089
30
0.0
10
95.502106
20
223.610287
30
0.0
10
93.553272
20
224.616886
30
0.0
10
91.686944
20
225.791806
30
0.0
10
92.481938
20
227.098284
30
0.0
10
93.162965
20
228.483590
30
0.0
10
93.668221
20
229.940730
30
0.0
10
93.935903
20
231.462708
30
0.0
10
94.208179
20
231.388450
30
0.0
10
94.323958
20
231.356875
30
0.0
10
94.323958
20
231.356875
30
0.0
0
LWPOLYLINE
100
AcDbPolyline
8
Calque_1
90
24
70
0
10
127.546806
20
231.259861
30
0.0
10
128.824458
20
231.176533
30
0.0
10
130.152242
20
230.771372
30
0.0
10
130.713269
20
230.427943
30
0.0
10
131.140832
20
229.979865
30
0.0
10
131.386265
20
229.419071
30
0.0
10
131.400903
20
228.737500
30
0.0
10
130.748947
20
227.392990
30
0.0
10
129.865317
20
226.239058
30
0.0
10
128.790114
20
225.262759
30
0.0
10
127.563436
20
224.451147
30
0.0
10
126.225383
20
223.791276
30
0.0
10
124.816054
20
223.270202
30
0.0
10
121.943966
20
222.592659
30
0.0
10
117.600465
20
221.826151
30
0.0
10
113.241667
20
221.143958
30
0.0
10
114.894952
20
221.970630
30
0.0
10
116.463330
20
222.919975
30
0.0
10
119.382461
20
225.120334
30
0.0
10
122.073261
20
227.612332
30
0.0
10
124.609931
20
230.263264
30
0.0
10
125.998174
20
230.988825
30
0.0
10
127.546806
20
231.259861
30
0.0
10
127.546806
20
231.259861
30
0.0
0
LWPOLYLINE
100
AcDbPolyline
8
Calque_1
90
26
70
0
10
41.424931
20
231.004097
30
0.0
10
42.533201
20
230.884654
30
0.0
10
43.531425
20
230.517715
30
0.0
10
44.441064
20
229.957462
30
0.0
10
45.283575
20
229.258078
30
0.0
10
46.853052
20
227.658646
30
0.0
10
48.411531
20
226.152878
30
0.0
10
50.076910
20
224.608204
30
0.0
10
51.892078
20
223.249045
30
0.0
10
53.825270
20
222.054294
30
0.0
10
55.844722
20
221.002847
30
0.0
10
51.455288
20
221.599715
30
0.0
10
47.006237
20
222.243597
30
0.0
10
44.858131
20
222.770796
30
0.0
10
42.813651
20
223.534900
30
0.0
10
40.912307
20
224.610960
30
0.0
10
39.193611
20
226.074028
30
0.0
10
38.335647
20
226.992807
30
0.0
10
37.731841
20
228.173952
30
0.0
10
37.623237
20
228.782161
30
0.0
10
37.695760
20
229.359059
30
0.0
10
37.988607
20
229.872346
30
0.0
10
38.540972
20
230.289722
30
0.0
10
39.932121
20
230.815376
30
0.0
10
41.424931
20
231.004097
30
0.0
10
41.424931
20
231.004097
30
0.0
0
LWPOLYLINE
100
AcDbPolyline
8
Calque_1
90
13
70
0
10
69.761806
20
225.280278
30
0.0
10
69.169343
20
224.282123
30
0.0
10
68.645666
20
223.215178
30
0.0
10
68.056084
20
222.208439
30
0.0
10
67.265903
20
221.390903
30
0.0
10
65.921939
20
221.083906
30
0.0
10
65.383348
20
221.045365
30
0.0
10
65.336778
20
221.161500
30
0.0
10
65.510833
20
221.408542
30
0.0
10
67.527416
20
223.588906
30
0.0
10
68.629926
20
224.554436
30
0.0
10
69.761806
20
225.280278
30
0.0
10
69.761806
20
225.280278
30
0.0
0
LWPOLYLINE
100
AcDbPolyline
8
Calque_1
90
17
70
0
10
66.331042
20
211.663056
30
0.0
10
66.290211
20
210.963506
30
0.0
10
66.311082
20
210.125812
30
0.0
10
66.139086
20
209.582695
30
0.0
10
65.901210
20
209.556828
30
0.0
10
65.519653
20
209.766875
30
0.0
10
63.405663
20
210.600071
30
0.0
10
61.259861
20
211.248542
30
0.0
10
62.117826
20
211.907098
30
0.0
10
63.166461
20
212.308976
30
0.0
10
64.258393
20
212.667911
30
0.0
10
65.246250
20
213.197639
30
0.0
10
66.149764
20
213.612005
30
0.0
10
66.339006
20
213.557952
30
0.0
10
66.408937
20
213.362667
30
0.0
10
66.331042
20
211.663056
30
0.0
10
66.331042
20
211.663056
30
0.0
0
LWPOLYLINE
100
AcDbPolyline
8
Calque_1
90
111
70
0
10
116.513681
20
211.239722
30
0.0
10
121.742599
20
211.131531
30
0.0
10
126.972706
20
210.686529
30
0.0
10
129.547313
20
210.248295
30
0.0
10
132.073144
20
209.618541
30
0.0
10
134.533844
20
208.761497
30
0.0
10
136.913056
20
207.641389
30
0.0
10
137.564519
20
207.144645
30
0.0
10
137.970123
20
206.532685
30
0.0
10
138.168550
20
205.834704
30
0.0
10
138.198483
20
205.079897
30
0.0
10
137.907602
20
203.516587
30
0.0
10
137.406944
20
202.076319
30
0.0
10
136.203318
20
199.201857
30
0.0
10
134.800736
20
196.375803
30
0.0
10
133.056432
20
193.782837
30
0.0
10
132.011519
20
192.631475
30
0.0
10
130.827639
20
191.607639
30
0.0
10
129.661919
20
191.062335
30
0.0
10
128.453253
20
190.757443
30
0.0
10
127.215459
20
190.656799
30
0.0
10
125.962361
20
190.724241
30
0.0
10
123.465531
20
191.218727
30
0.0
10
121.073333
20
191.951597
30
0.0
10
120.698503
20
191.766938
30
0.0
10
120.531672
20
191.510169
30
0.0
10
120.661148
20
190.867509
30
0.0
10
121.140032
20
190.198040
30
0.0
10
121.646597
20
189.676181
30
0.0
10
122.993026
20
188.190975
30
0.0
10
124.240666
20
186.574163
30
0.0
10
125.343579
20
184.843074
30
0.0
10
126.255826
20
183.015037
30
0.0
10
126.931468
20
181.107381
30
0.0
10
127.324566
20
179.137437
30
0.0
10
127.389181
20
177.122533
30
0.0
10
127.079375
20
175.080000
30
0.0
10
125.957805
20
172.123627
30
0.0
10
124.416126
20
169.315671
30
0.0
10
122.488485
20
166.790349
30
0.0
10
120.209028
20
164.681875
30
0.0
10
118.639590
20
163.874484
30
0.0
10
116.971565
20
163.270595
30
0.0
10
115.235553
20
162.874048
30
0.0
10
113.462153
20
162.688681
30
0.0
10
111.485839
20
162.545736
30
0.0
10
109.492988
20
162.628914
30
0.0
10
107.522529
20
162.943847
30
0.0
10
105.613394
20
163.496170
30
0.0
10
103.804511
20
164.291514
30
0.0
10
102.134811
20
165.335515
30
0.0
10
100.643224
20
166.633803
30
0.0
10
99.368681
20
168.192014
30
0.0
10
98.868731
20
168.735696
30
0.0
10
98.457103
20
169.378511
30
0.0
10
97.807639
20
170.652639
30
0.0
10
101.720977
20
168.918809
30
0.0
10
103.769596
20
168.209970
30
0.0
10
105.859323
20
167.656371
30
0.0
10
107.975016
20
167.295405
30
0.0
10
110.101532
20
167.164463
30
0.0
10
112.223727
20
167.300938
30
0.0
10
114.326458
20
167.742222
30
0.0
10
115.838802
20
168.521964
30
0.0
10
117.068583
20
169.614624
30
0.0
10
118.022455
20
170.955672
30
0.0
10
118.707073
20
172.480576
30
0.0
10
119.129093
20
174.124805
30
0.0
10
119.295169
20
175.823827
30
0.0
10
119.211957
20
177.513111
30
0.0
10
118.886111
20
179.128125
30
0.0
10
118.384607
20
180.736603
30
0.0
10
117.661647
20
182.212792
30
0.0
10
116.757862
20
183.578736
30
0.0
10
115.713882
20
184.856477
30
0.0
10
113.367856
20
187.235517
30
0.0
10
110.948611
20
189.526250
30
0.0
10
112.757704
20
193.152816
30
0.0
10
113.476449
20
195.034775
30
0.0
10
113.964861
20
196.996319
30
0.0
10
117.334011
20
195.435214
30
0.0
10
120.874731
20
194.197911
30
0.0
10
122.691669
20
193.783190
30
0.0
10
124.530186
20
193.548423
30
0.0
10
126.383179
20
193.526614
30
0.0
10
128.243542
20
193.750764
30
0.0
10
129.276746
20
194.172793
30
0.0
10
129.988519
20
194.977313
30
0.0
10
130.268775
20
196.001996
30
0.0
10
130.212683
20
196.546171
30
0.0
10
130.007431
20
197.084514
30
0.0
10
129.297307
20
198.641962
30
0.0
10
128.337692
20
200.011820
30
0.0
10
127.166458
20
201.193437
30
0.0
10
125.821481
20
202.186161
30
0.0
10
124.340636
20
202.989338
30
0.0
10
122.761796
20
203.602318
30
0.0
10
121.122837
20
204.024447
30
0.0
10
119.461633
20
204.255075
30
0.0
10
113.176056
20
204.684604
30
0.0
10
106.867941
20
204.589819
30
0.0
10
100.574458
20
204.062990
30
0.0
10
94.332778
20
203.196389
30
0.0
10
97.281923
20
205.185545
30
0.0
10
100.366045
20
207.002737
30
0.0
10
103.582075
20
208.532918
30
0.0
10
106.926944
20
209.661042
30
0.0
10
111.668736
20
210.738976
30
0.0
10
114.081454
20
211.102345
30
0.0
10
116.513681
20
211.239722
30
0.0
10
116.513681
20
211.239722
30
0.0
0
LWPOLYLINE
100
AcDbPolyline
8
Calque_1
90
123
70
0
10
49.203681
20
211.160347
30
0.0
10
54.217044
20
210.995991
30
0.0
10
56.704156
20
210.708106
30
0.0
10
59.165498
20
210.274479
30
0.0
10
61.591532
20
209.688655
30
0.0
10
63.972714
20
208.944182
30
0.0
10
66.299504
20
208.034605
30
0.0
10
68.562361
20
206.953472
30
0.0
10
71.802770
20
205.255407
30
0.0
10
74.850625
20
203.231667
30
0.0
10
67.796751
20
204.096139
30
0.0
10
60.669617
20
204.573245
30
0.0
10
57.103435
20
204.587612
30
0.0
10
53.548768
20
204.410430
30
0.0
10
50.015559
20
204.010128
30
0.0
10
46.513750
20
203.355139
30
0.0
10
45.194460
20
202.947606
30
0.0
10
43.952984
20
202.354926
30
0.0
10
42.804862
20
201.596703
30
0.0
10
41.765631
20
200.692539
30
0.0
10
40.850831
20
199.662038
30
0.0
10
40.076001
20
198.524803
30
0.0
10
39.456678
20
197.300437
30
0.0
10
39.008403
20
196.008542
30
0.0
10
39.017366
20
195.273956
30
0.0
10
39.256452
20
194.665142
30
0.0
10
39.679875
20
194.174860
30
0.0
10
40.241849
20
193.795871
30
0.0
10
41.598300
20
193.342813
30
0.0
10
42.959514
20
193.248056
30
0.0
10
44.609126
20
193.252364
30
0.0
10
46.232135
20
193.423470
30
0.0
10
49.394642
20
194.187671
30
0.0
10
52.439620
20
195.383852
30
0.0
10
55.359653
20
196.855208
30
0.0
10
55.847363
20
194.860287
30
0.0
10
56.536763
20
192.932521
30
0.0
10
57.400489
20
191.074329
30
0.0
10
58.411181
20
189.288125
30
0.0
10
56.662391
20
187.975298
30
0.0
10
55.027572
20
186.470973
30
0.0
10
53.552313
20
184.795753
30
0.0
10
52.282200
20
182.970240
30
0.0
10
51.262824
20
181.015036
30
0.0
10
50.539773
20
178.950741
30
0.0
10
50.158636
20
176.797959
30
0.0
10
50.165000
20
174.577292
30
0.0
10
50.399626
20
173.225455
30
0.0
10
50.842801
20
171.926682
30
0.0
10
51.478472
20
170.714010
30
0.0
10
52.290587
20
169.620474
30
0.0
10
53.263092
20
168.679109
30
0.0
10
54.379937
20
167.922952
30
0.0
10
55.625067
20
167.385038
30
0.0
10
56.982431
20
167.098403
30
0.0
10
58.918783
20
167.002284
30
0.0
10
60.848179
20
167.086443
30
0.0
10
62.760799
20
167.339672
30
0.0
10
64.646823
20
167.750766
30
0.0
10
68.299799
20
169.001720
30
0.0
10
71.728542
20
170.749653
30
0.0
10
71.245862
20
169.825184
30
0.0
10
70.640678
20
168.989300
30
0.0
10
70.023800
20
168.171491
30
0.0
10
69.506042
20
167.301250
30
0.0
10
68.415424
20
166.152626
30
0.0
10
67.202928
20
165.154809
30
0.0
10
65.885917
20
164.310752
30
0.0
10
64.481755
20
163.623407
30
0.0
10
63.007807
20
163.095727
30
0.0
10
61.481436
20
162.730665
30
0.0
10
59.920008
20
162.531174
30
0.0
10
58.340885
20
162.500207
30
0.0
10
56.578470
20
162.413856
30
0.0
10
54.810881
20
162.545708
30
0.0
10
53.071988
20
162.894179
30
0.0
10
51.395664
20
163.457682
30
0.0
10
49.815780
20
164.234632
30
0.0
10
48.366208
20
165.223443
30
0.0
10
47.080820
20
166.422531
30
0.0
10
45.993487
20
167.830309
30
0.0
10
44.546713
20
169.689621
30
0.0
10
43.375012
20
171.753602
30
0.0
10
42.526954
20
173.963811
30
0.0
10
42.051111
20
176.261806
30
0.0
10
42.169602
20
179.337097
30
0.0
10
42.448303
20
180.846065
30
0.0
10
42.873053
20
182.316879
30
0.0
10
43.443657
20
183.735262
30
0.0
10
44.159925
20
185.086937
30
0.0
10
45.021664
20
186.357627
30
0.0
10
46.028681
20
187.533056
30
0.0
10
47.611005
20
189.266328
30
0.0
10
48.396753
20
190.143002
30
0.0
10
48.983194
20
191.122569
30
0.0
10
48.895826
20
191.473396
30
0.0
10
48.683395
20
191.650030
30
0.0
10
48.004484
20
191.628005
30
0.0
10
46.478472
20
191.113764
30
0.0
10
44.722196
20
190.702195
30
0.0
10
42.901077
20
190.501546
30
0.0
10
41.071693
20
190.540860
30
0.0
10
39.290625
20
190.849181
30
0.0
10
37.884212
20
191.865182
30
0.0
10
36.655875
20
193.056847
30
0.0
10
35.582006
20
194.392307
30
0.0
10
34.638995
20
195.839692
30
0.0
10
33.051111
20
198.942761
30
0.0
10
31.703349
20
202.111103
30
0.0
10
31.227123
20
203.407505
30
0.0
10
30.949848
20
204.791170
30
0.0
10
30.971208
20
205.460409
30
0.0
10
31.144772
20
206.085084
30
0.0
10
31.504697
20
206.643069
30
0.0
10
32.085139
20
207.112236
30
0.0
10
33.958046
20
208.117027
30
0.0
10
35.909342
20
208.932253
30
0.0
10
37.924260
20
209.580970
30
0.0
10
39.988035
20
210.086234
30
0.0
10
44.203092
20
210.758634
30
0.0
10
48.436389
20
211.133903
30
0.0
10
49.203681
20
211.160347
30
0.0
10
49.203681
20
211.160347
30
0.0
0
LWPOLYLINE
100
AcDbPolyline
8
Calque_1
90
42
70
0
10
84.701944
20
208.840833
30
0.0
10
85.680689
20
206.448265
30
0.0
10
86.884059
20
204.168078
30
0.0
10
88.298392
20
202.017177
30
0.0
10
89.910024
20
200.012467
30
0.0
10
91.705291
20
198.170852
30
0.0
10
93.670531
20
196.509237
30
0.0
10
95.792080
20
195.044527
30
0.0
10
98.056274
20
193.793625
30
0.0
10
100.745899
20
192.509267
30
0.0
10
103.497369
20
191.345874
30
0.0
10
109.025972
20
189.067639
30
0.0
10
107.990709
20
187.275362
30
0.0
10
106.644722
20
185.689792
30
0.0
10
102.905050
20
186.968815
30
0.0
10
99.264292
20
188.480252
30
0.0
10
95.735259
20
190.234671
30
0.0
10
92.330764
20
192.242639
30
0.0
10
90.254926
20
193.733743
30
0.0
10
88.286749
20
195.412885
30
0.0
10
86.537003
20
197.303866
30
0.0
10
85.116458
20
199.430486
30
0.0
10
84.687941
20
199.601172
30
0.0
10
84.338767
20
199.549588
30
0.0
10
83.812180
20
198.988024
30
0.0
10
83.404155
20
198.162621
30
0.0
10
82.982153
20
197.490208
30
0.0
10
80.880669
20
195.198780
30
0.0
10
78.445481
20
193.230546
30
0.0
10
75.820208
20
191.537855
30
0.0
10
73.148472
20
190.073056
30
0.0
10
71.860422
20
191.652458
30
0.0
10
70.811319
20
193.406806
30
0.0
10
73.265613
20
194.795187
30
0.0
10
75.583376
20
196.377904
30
0.0
10
77.719971
20
198.181634
30
0.0
10
79.630764
20
200.233056
30
0.0
10
81.229643
20
202.226605
30
0.0
10
82.479348
20
204.446269
30
0.0
10
84.604931
20
209.105417
30
0.0
10
84.701944
20
208.840833
30
0.0
10
84.701944
20
208.840833
30
0.0
0
LWPOLYLINE
100
AcDbPolyline
8
Calque_1
90
19
70
0
10
111.169097
20
203.363958
30
0.0
10
112.217142
20
203.443761
30
0.0
10
113.025083
20
203.264901
30
0.0
10
113.292170
20
203.045935
30
0.0
10
113.443018
20
202.723260
30
0.0
10
113.321042
20
201.714722
30
0.0
10
113.088663
20
199.825510
30
0.0
10
112.952749
20
199.462907
30
0.0
10
112.727229
20
199.260933
30
0.0
10
112.382863
20
199.277964
30
0.0
10
111.890412
20
199.572376
30
0.0
10
109.577898
20
200.533549
30
0.0
10
107.213925
20
201.340877
30
0.0
10
104.783242
20
201.877862
30
0.0
10
102.270597
20
202.028009
30
0.0
10
96.899236
20
202.164514
30
0.0
10
104.002534
20
202.958504
30
0.0
10
111.169097
20
203.363958
30
0.0
10
111.169097
20
203.363958
30
0.0
0
LWPOLYLINE
100
AcDbPolyline
8
Calque_1
90
23
70
0
10
116.584236
20
203.205208
30
0.0
10
119.939438
20
202.788330
30
0.0
10
121.630347
20
202.415636
30
0.0
10
123.264607
20
201.889652
30
0.0
10
124.793078
20
201.177541
30
0.0
10
126.166621
20
200.246461
30
0.0
10
127.336095
20
199.063575
30
0.0
10
128.252361
20
197.596042
30
0.0
10
128.607372
20
196.904304
30
0.0
10
128.749712
20
196.149235
30
0.0
10
128.539747
20
195.509028
30
0.0
10
128.259016
20
195.287683
30
0.0
10
127.837847
20
195.161875
30
0.0
10
126.055125
20
194.919146
30
0.0
10
124.291103
20
194.943335
30
0.0
10
122.548729
20
195.193772
30
0.0
10
120.830950
20
195.629789
30
0.0
10
117.480965
20
196.895879
30
0.0
10
114.264722
20
198.416250
30
0.0
10
114.618057
20
200.872047
30
0.0
10
114.855625
20
203.346319
30
0.0
10
116.584236
20
203.205208
30
0.0
10
116.584236
20
203.205208
30
0.0
0
LWPOLYLINE
100
AcDbPolyline
8
Calque_1
90
22
70
0
10
58.208333
20
203.275764
30
0.0
10
58.536285
20
203.232671
30
0.0
10
58.774594
20
203.061600
30
0.0
10
59.066145
20
202.461136
30
0.0
10
59.250699
20
201.725590
30
0.0
10
59.495972
20
201.106181
30
0.0
10
59.543734
20
200.669179
30
0.0
10
59.376047
20
200.330859
30
0.0
10
58.600038
20
199.856944
30
0.0
10
57.579380
20
199.497792
30
0.0
10
56.725504
20
199.066758
30
0.0
10
56.409977
20
198.928072
30
0.0
10
56.206998
20
198.979142
30
0.0
10
56.039487
20
199.470032
30
0.0
10
55.963882
20
200.743192
30
0.0
10
55.804388
20
201.836803
30
0.0
10
55.926667
20
202.700899
30
0.0
10
56.136894
20
203.008265
30
0.0
10
56.469672
20
203.211915
30
0.0
10
57.572360
20
203.246286
30
0.0
10
58.208333
20
203.275764
30
0.0
10
58.208333
20
203.275764
30
0.0
0
LWPOLYLINE
100
AcDbPolyline
8
Calque_1
90
18
70
0
10
63.111944
20
203.028819
30
0.0
10
64.876450
20
202.985543
30
0.0
10
65.722415
20
202.900772
30
0.0
10
66.348681
20
202.534931
30
0.0
10
66.395734
20
202.200252
30
0.0
10
66.269641
20
201.990967
30
0.0
10
65.660250
20
201.826251
30
0.0
10
64.844976
20
201.796118
30
0.0
10
64.148284
20
201.655907
30
0.0
10
62.462757
20
201.315366
30
0.0
10
61.623144
20
201.138904
30
0.0
10
60.854167
20
201.159097
30
0.0
10
60.457471
20
202.582477
30
0.0
10
60.564382
20
203.095408
30
0.0
10
60.814536
20
203.177425
30
0.0
10
61.241683
20
203.095616
30
0.0
10
63.111944
20
203.028819
30
0.0
10
63.111944
20
203.028819
30
0.0
0
LWPOLYLINE
100
AcDbPolyline
8
Calque_1
90
26
70
0
10
53.631042
20
203.081736
30
0.0
10
54.086658
20
203.031490
30
0.0
10
54.361287
20
202.788271
30
0.0
10
54.542281
20
201.906377
30
0.0
10
54.523419
20
200.802978
30
0.0
10
54.654097
20
199.845000
30
0.0
10
54.834893
20
198.659321
30
0.0
10
54.753451
20
198.145762
30
0.0
10
54.230764
20
197.834167
30
0.0
10
51.101933
20
196.318838
30
0.0
10
47.789509
20
195.155586
30
0.0
10
46.088539
20
194.803654
30
0.0
10
44.370577
20
194.656938
30
0.0
10
42.645260
20
194.754504
30
0.0
10
40.922222
20
195.135417
30
0.0
10
40.605357
20
195.357101
30
0.0
10
40.465997
20
195.653452
30
0.0
10
40.574192
20
196.384390
30
0.0
10
41.319097
20
197.798889
30
0.0
10
42.452764
20
199.390161
30
0.0
10
43.871329
20
200.663459
30
0.0
10
45.535177
20
201.580131
30
0.0
10
47.404692
20
202.101530
30
0.0
10
50.496317
20
202.759930
30
0.0
10
53.631042
20
203.081736
30
0.0
10
53.631042
20
203.081736
30
0.0
0
LWPOLYLINE
100
AcDbPolyline
8
Calque_1
90
7
70
0
10
67.724514
20
202.746597
30
0.0
10
72.169514
20
202.173333
30
0.0
10
69.877653
20
202.190342
30
0.0
10
68.736998
20
202.234062
30
0.0
10
67.724514
20
202.517292
30
0.0
10
67.724514
20
202.746597
30
0.0
10
67.724514
20
202.746597
30
0.0
0
LWPOLYLINE
100
AcDbPolyline
8
Calque_1
90
13
70
0
10
66.322222
20
200.506458
30
0.0
10
66.625908
20
200.433367
30
0.0
10
66.834955
20
200.248316
30
0.0
10
67.055429
20
199.653678
30
0.0
10
67.310000
20
198.345694
30
0.0
10
68.729931
20
193.997708
30
0.0
10
66.805806
20
193.208250
30
0.0
10
64.928750
20
192.463125
30
0.0
10
62.907104
20
195.895436
30
0.0
10
61.321597
20
199.545139
30
0.0
10
63.788597
20
200.193117
30
0.0
10
66.322222
20
200.506458
30
0.0
10
66.322222
20
200.506458
30
0.0
0
LWPOLYLINE
100
AcDbPolyline
8
Calque_1
90
13
70
0
10
60.148611
20
198.460347
30
0.0
10
61.809974
20
195.069813
30
0.0
10
63.685208
20
191.801667
30
0.0
10
61.568188
20
190.829947
30
0.0
10
60.515407
20
190.363301
30
0.0
10
59.504792
20
190.046597
30
0.0
10
58.562930
20
191.830555
30
0.0
10
57.760802
20
193.680987
30
0.0
10
57.127318
20
195.590562
30
0.0
10
56.691389
20
197.551944
30
0.0
10
59.892847
20
198.980694
30
0.0
10
60.148611
20
198.460347
30
0.0
10
60.148611
20
198.460347
30
0.0
0
LWPOLYLINE
100
AcDbPolyline
8
Calque_1
90
31
70
0
10
84.631389
20
197.331458
30
0.0
10
87.367428
20
194.448449
30
0.0
10
90.427803
20
191.928794
30
0.0
10
93.753112
20
189.750584
30
0.0
10
97.283956
20
187.891912
30
0.0
10
99.312175
20
186.892515
30
0.0
10
101.403495
20
186.048619
30
0.0
10
105.674583
20
184.560903
30
0.0
10
103.448163
20
182.407260
30
0.0
10
100.991458
20
180.539236
30
0.0
10
97.155000
20
181.976806
30
0.0
10
97.889920
20
182.290788
30
0.0
10
98.604111
20
182.829206
30
0.0
10
98.939910
20
183.481614
30
0.0
10
98.854142
20
183.816051
30
0.0
10
98.539653
20
184.137569
30
0.0
10
95.360192
20
183.857229
30
0.0
10
92.152336
20
183.719335
30
0.0
10
88.941708
20
183.782244
30
0.0
10
85.753933
20
184.104312
30
0.0
10
82.640236
20
184.669937
30
0.0
10
79.609367
20
185.639928
30
0.0
10
76.768408
20
187.047665
30
0.0
10
75.452609
20
187.926119
30
0.0
10
74.224444
20
188.926528
30
0.0
10
77.089166
20
190.711058
30
0.0
10
79.875152
20
192.635843
30
0.0
10
82.437521
20
194.807202
30
0.0
10
83.589573
20
196.018573
30
0.0
10
84.631389
20
197.331458
30
0.0
10
84.631389
20
197.331458
30
0.0
0
LWPOLYLINE
100
AcDbPolyline
8
Calque_1
90
21
70
0
10
69.215000
20
192.639514
30
0.0
10
69.903706
20
192.203054
30
0.0
10
70.411226
20
191.477258
30
0.0
10
70.869643
20
190.673337
30
0.0
10
71.411042
20
190.002500
30
0.0
10
71.821072
20
189.546941
30
0.0
10
71.679859
20
189.212584
30
0.0
10
70.679028
20
188.723681
30
0.0
10
69.731607
20
188.181300
30
0.0
10
68.860965
20
188.041519
30
0.0
10
68.092410
20
188.390614
30
0.0
10
67.451252
20
189.314863
30
0.0
10
66.597954
20
190.172660
30
0.0
10
66.150889
20
190.944231
30
0.0
10
66.159362
20
191.280167
30
0.0
10
66.364995
20
191.573530
30
0.0
10
66.799655
20
191.817314
30
0.0
10
67.495208
20
192.004514
30
0.0
10
68.345028
20
192.365025
30
0.0
10
69.215000
20
192.639514
30
0.0
10
69.215000
20
192.639514
30
0.0
0
LWPOLYLINE
100
AcDbPolyline
8
Calque_1
90
11
70
0
10
64.584792
20
190.461111
30
0.0
10
67.627500
20
187.339028
30
0.0
10
65.020307
20
186.367635
30
0.0
10
63.691646
20
185.996696
30
0.0
10
62.379931
20
185.857361
30
0.0
10
61.220545
20
187.216318
30
0.0
10
60.263264
20
188.732500
30
0.0
10
62.440060
20
189.760413
30
0.0
10
63.533316
20
190.245310
30
0.0
10
64.584792
20
190.461111
30
0.0
10
64.584792
20
190.461111
30
0.0
0
LWPOLYLINE
100
AcDbPolyline
8
Calque_1
90
39
70
0
10
111.804097
20
186.942153
30
0.0
10
114.348168
20
184.411279
30
0.0
10
115.467689
20
182.985787
30
0.0
10
116.426397
20
181.464829
30
0.0
10
117.179939
20
179.856835
30
0.0
10
117.683963
20
178.170235
30
0.0
10
117.894114
20
176.413457
30
0.0
10
117.766042
20
174.594931
30
0.0
10
117.562940
20
173.458711
30
0.0
10
117.166635
20
172.384576
30
0.0
10
116.596908
20
171.397179
30
0.0
10
115.873544
20
170.521174
30
0.0
10
115.016325
20
169.781217
30
0.0
10
114.045035
20
169.201960
30
0.0
10
112.979457
20
168.808059
30
0.0
10
111.839375
20
168.624167
30
0.0
10
110.422509
20
168.458960
30
0.0
10
108.940297
20
168.509423
30
0.0
10
106.318403
20
169.012222
30
0.0
10
108.221955
20
168.894817
30
0.0
10
110.208064
20
168.903159
30
0.0
10
111.162136
20
169.050052
30
0.0
10
112.052918
20
169.343064
30
0.0
10
112.852435
20
169.820420
30
0.0
10
113.532708
20
170.520347
30
0.0
10
114.263510
20
171.910111
30
0.0
10
114.733145
20
173.405897
30
0.0
10
114.942406
20
174.961054
30
0.0
10
114.892083
20
176.528931
30
0.0
10
114.582967
20
178.062878
30
0.0
10
114.015850
20
179.516243
30
0.0
10
113.191523
20
180.842377
30
0.0
10
112.110777
20
181.994628
30
0.0
10
110.158361
20
183.688059
30
0.0
10
108.055833
20
185.195903
30
0.0
10
109.256731
20
186.697752
30
0.0
10
110.216597
20
188.362083
30
0.0
10
111.804097
20
186.942153
30
0.0
10
111.804097
20
186.942153
30
0.0
0
LWPOLYLINE
100
AcDbPolyline
8
Calque_1
90
16
70
0
10
73.421875
20
187.780000
30
0.0
10
74.863425
20
186.631420
30
0.0
10
76.431543
20
185.653081
30
0.0
10
79.771875
20
184.067014
30
0.0
10
77.491032
20
183.708702
30
0.0
10
76.354872
20
183.492737
30
0.0
10
75.238681
20
183.423194
30
0.0
10
72.590363
20
185.023439
30
0.0
10
71.265609
20
185.827179
30
0.0
10
70.026389
20
186.792222
30
0.0
10
70.888433
20
187.211971
30
0.0
10
71.824092
20
187.803042
30
0.0
10
72.709770
20
188.135648
30
0.0
10
73.095244
20
188.070717
30
0.0
10
73.421875
20
187.780000
30
0.0
10
73.421875
20
187.780000
30
0.0
0
LWPOLYLINE
100
AcDbPolyline
8
Calque_1
90
36
70
0
10
59.028542
20
188.044583
30
0.0
10
60.081815
20
186.509030
30
0.0
10
61.259861
20
185.054792
30
0.0
10
59.483008
20
183.778949
30
0.0
10
57.808953
20
182.358810
30
0.0
10
56.336793
20
180.741054
30
0.0
10
55.165625
20
178.872361
30
0.0
10
54.694572
20
177.706684
30
0.0
10
54.428174
20
176.473855
30
0.0
10
54.359113
20
175.206563
30
0.0
10
54.480076
20
173.937498
30
0.0
10
54.783746
20
172.699349
30
0.0
10
55.262809
20
171.524805
30
0.0
10
55.909947
20
170.446557
30
0.0
10
56.717847
20
169.497292
30
0.0
10
58.166675
20
168.897634
30
0.0
10
59.726173
20
168.678549
30
0.0
10
62.900278
20
168.800556
30
0.0
10
60.198032
20
168.421183
30
0.0
10
58.794601
20
168.368891
30
0.0
10
57.410826
20
168.464583
30
0.0
10
56.087603
20
168.750547
30
0.0
10
54.865829
20
169.269076
30
0.0
10
53.786398
20
170.062459
30
0.0
10
52.890208
20
171.172986
30
0.0
10
52.018354
20
172.945259
30
0.0
10
51.597200
20
174.811073
30
0.0
10
51.578076
20
176.723405
30
0.0
10
51.912311
20
178.635232
30
0.0
10
52.551236
20
180.499529
30
0.0
10
53.446180
20
182.269275
30
0.0
10
54.548473
20
183.897444
30
0.0
10
55.809444
20
185.337014
30
0.0
10
57.351785
20
186.784303
30
0.0
10
59.028542
20
188.044583
30
0.0
10
59.028542
20
188.044583
30
0.0
0
LWPOLYLINE
100
AcDbPolyline
8
Calque_1
90
15
70
0
10
68.465347
20
186.130764
30
0.0
10
71.010845
20
184.403581
30
0.0
10
72.296996
20
183.579435
30
0.0
10
73.651181
20
182.876389
30
0.0
10
73.248255
20
182.573536
30
0.0
10
72.594476
20
182.288294
30
0.0
10
71.243472
20
181.685764
30
0.0
10
69.769500
20
180.913994
30
0.0
10
69.046906
20
180.500311
30
0.0
10
68.333056
20
180.257014
30
0.0
10
65.794389
20
182.266068
30
0.0
10
63.473542
20
184.525625
30
0.0
10
65.989619
20
185.258518
30
0.0
10
68.465347
20
186.130764
30
0.0
10
68.465347
20
186.130764
30
0.0
0
LWPOLYLINE
100
AcDbPolyline
8
Calque_1
90
40
70
0
10
107.279722
20
184.049375
30
0.0
10
109.656451
20
182.333685
30
0.0
10
110.782936
20
181.331311
30
0.0
10
111.794471
20
180.230921
30
0.0
10
112.635782
20
179.031266
30
0.0
10
113.251593
20
177.731099
30
0.0
10
113.586632
20
176.329172
30
0.0
10
113.585625
20
174.824236
30
0.0
10
113.255673
20
173.284552
30
0.0
10
112.609222
20
171.842325
30
0.0
10
112.142482
20
171.240449
30
0.0
10
111.566823
20
170.762165
30
0.0
10
110.872316
20
170.440550
30
0.0
10
110.049028
20
170.308681
30
0.0
10
106.156438
20
170.393765
30
0.0
10
104.236896
20
170.670099
30
0.0
10
102.429028
20
171.217083
30
0.0
10
102.259336
20
172.254680
30
0.0
10
101.728336
20
173.231170
30
0.0
10
100.910478
20
173.866485
30
0.0
10
100.417241
20
173.968681
30
0.0
10
99.880208
20
173.880556
30
0.0
10
99.672812
20
173.516397
30
0.0
10
99.709514
20
173.202618
30
0.0
10
100.217346
20
172.675411
30
0.0
10
100.807963
20
172.197356
30
0.0
10
100.948147
20
171.945018
30
0.0
10
100.885625
20
171.666875
30
0.0
10
98.983064
20
172.352486
30
0.0
10
97.463681
20
173.077986
30
0.0
10
100.374537
20
174.431889
30
0.0
10
101.690333
20
175.334498
30
0.0
10
102.755347
20
176.499931
30
0.0
10
102.957160
20
177.314920
30
0.0
10
102.925269
20
178.162048
30
0.0
10
102.693765
20
178.967457
30
0.0
10
102.296736
20
179.657292
30
0.0
10
104.821306
20
181.853389
30
0.0
10
107.279722
20
184.049375
30
0.0
10
107.279722
20
184.049375
30
0.0
0
LWPOLYLINE
100
AcDbPolyline
8
Calque_1
90
31
70
0
10
63.376528
20
182.655903
30
0.0
10
64.293429
20
181.743735
30
0.0
10
65.322895
20
180.892819
30
0.0
10
67.212986
20
179.260417
30
0.0
10
66.783649
20
178.892227
30
0.0
10
66.489310
20
178.446324
30
0.0
10
66.290417
20
177.428286
30
0.0
10
66.585881
20
176.420115
30
0.0
10
67.345278
20
175.635625
30
0.0
10
68.448624
20
174.888121
30
0.0
10
69.647153
20
174.303889
30
0.0
10
68.628360
20
173.775776
30
0.0
10
67.716977
20
172.995627
30
0.0
10
67.069536
20
172.029557
30
0.0
10
66.842569
20
170.943681
30
0.0
10
62.343285
20
170.144301
30
0.0
10
60.080847
20
170.079694
30
0.0
10
58.975886
20
170.246802
30
0.0
10
57.899653
20
170.590903
30
0.0
10
56.884169
20
171.630243
30
0.0
10
56.201256
20
172.863200
30
0.0
10
55.834422
20
174.225917
30
0.0
10
55.767177
20
175.654538
30
0.0
10
55.983027
20
177.085204
30
0.0
10
56.465481
20
178.454058
30
0.0
10
57.198048
20
179.697244
30
0.0
10
58.164236
20
180.750903
30
0.0
10
60.057418
20
182.430471
30
0.0
10
62.062431
20
183.978819
30
0.0
10
63.376528
20
182.655903
30
0.0
10
63.376528
20
182.655903
30
0.0
0
LWPOLYLINE
100
AcDbPolyline
8
Calque_1
90
18
70
0
10
81.826806
20
182.717639
30
0.0
10
84.352740
20
182.672060
30
0.0
10
86.885547
20
182.490636
30
0.0
10
91.880972
20
181.985625
30
0.0
10
91.985707
20
181.826087
30
0.0
10
91.894193
20
181.708138
30
0.0
10
91.314786
20
181.559938
30
0.0
10
89.917072
20
181.354810
30
0.0
10
87.402177
20
181.140764
30
0.0
10
84.873950
20
181.080240
30
0.0
10
82.364059
20
181.290452
30
0.0
10
79.904167
20
181.888611
30
0.0
10
78.413244
20
182.290042
30
0.0
10
78.245602
20
182.383602
30
0.0
10
78.275881
20
182.463454
30
0.0
10
79.161979
20
182.560057
30
0.0
10
81.826806
20
182.717639
30
0.0
10
81.826806
20
182.717639
30
0.0
0
LWPOLYLINE
100
AcDbPolyline
8
Calque_1
90
30
70
0
10
75.432708
20
181.703403
30
0.0
10
78.824234
20
180.706805
30
0.0
10
80.544485
20
180.261810
30
0.0
10
82.311875
20
180.010069
30
0.0
10
85.353580
20
179.739002
30
0.0
10
88.420068
20
179.765695
30
0.0
10
91.450914
20
180.146086
30
0.0
10
94.385694
20
180.936111
30
0.0
10
95.704125
20
180.877667
30
0.0
10
96.986987
20
180.571202
30
0.0
10
99.474514
20
179.639653
30
0.0
10
97.707448
20
178.608057
30
0.0
10
95.868553
20
177.723089
30
0.0
10
93.968057
20
176.985356
30
0.0
10
92.016187
20
176.395466
30
0.0
10
90.023170
20
175.954026
30
0.0
10
87.999232
20
175.661642
30
0.0
10
85.954601
20
175.518923
30
0.0
10
83.899505
20
175.526476
30
0.0
10
81.709885
20
175.536601
30
0.0
10
79.529264
20
175.781405
30
0.0
10
77.381787
20
176.228097
30
0.0
10
75.291597
20
176.843889
30
0.0
10
72.397730
20
177.949424
30
0.0
10
71.004727
20
178.597778
30
0.0
10
69.832361
20
179.410347
30
0.0
10
72.549342
20
180.818833
30
0.0
10
73.973028
20
181.378101
30
0.0
10
75.432708
20
181.703403
30
0.0
10
75.432708
20
181.703403
30
0.0
0
LWPOLYLINE
100
AcDbPolyline
8
Calque_1
90
43
70
0
10
101.194306
20
178.695972
30
0.0
10
101.489856
20
178.219897
30
0.0
10
101.543125
20
177.749303
30
0.0
10
101.402007
20
177.292291
30
0.0
10
101.114394
20
176.856962
30
0.0
10
100.291260
20
176.083762
30
0.0
10
99.456875
20
175.494514
30
0.0
10
97.639060
20
174.686631
30
0.0
10
95.758028
20
174.063361
30
0.0
10
93.826788
20
173.601980
30
0.0
10
91.858355
20
173.279763
30
0.0
10
87.861953
20
172.961926
30
0.0
10
83.872917
20
172.928056
30
0.0
10
80.505099
20
173.173951
30
0.0
10
77.155947
20
173.632417
30
0.0
10
73.857988
20
174.351654
30
0.0
10
70.643750
20
175.379861
30
0.0
10
70.738073
20
174.699570
30
0.0
10
70.605779
20
174.770644
30
0.0
10
70.274190
20
175.241135
30
0.0
10
69.770625
20
175.759097
30
0.0
10
68.962005
20
176.159467
30
0.0
10
68.196915
20
176.790412
30
0.0
10
67.826215
20
177.556134
30
0.0
10
67.898404
20
177.959599
30
0.0
10
68.200764
20
178.360833
30
0.0
10
69.428655
20
177.930752
30
0.0
10
70.600053
20
177.302126
30
0.0
10
71.780051
20
176.675540
30
0.0
10
73.033740
20
176.251581
30
0.0
10
74.866541
20
175.437988
30
0.0
10
76.765512
20
174.865366
30
0.0
10
78.715740
20
174.494474
30
0.0
10
80.702312
20
174.286071
30
0.0
10
84.724836
20
174.199772
30
0.0
10
88.713776
20
174.292544
30
0.0
10
91.969783
20
174.899695
30
0.0
10
95.116811
20
175.926135
30
0.0
10
98.133946
20
177.293963
30
0.0
10
101.000278
20
178.925278
30
0.0
10
101.182576
20
178.709832
30
0.0
10
101.194317
20
178.695975
30
0.0
10
101.194306
20
178.695972
30
0.0
0
LWPOLYLINE
100
AcDbPolyline
8
Calque_1
90
4
70
0
10
70.423264
20
174.859514
30
0.0
10
70.637981
20
175.398582
30
0.0
10
70.423264
20
174.859514
30
0.0
10
70.423264
20
174.859514
30
0.0
0
LWPOLYLINE
100
AcDbPolyline
8
Calque_1
90
9
70
0
10
70.096944
20
174.101042
30
0.0
10
72.645764
20
173.192639
30
0.0
10
70.441746
20
172.283889
30
0.0
10
68.324236
20
171.499306
30
0.0
10
68.751704
20
172.179966
30
0.0
10
69.283295
20
172.814161
30
0.0
10
69.778533
20
173.441362
30
0.0
10
70.096944
20
174.101042
30
0.0
10
70.096944
20
174.101042
30
0.0
0
LWPOLYLINE
100
AcDbPolyline
8
Calque_1
90
28
70
0
10
74.039236
20
172.857500
30
0.0
10
76.679103
20
172.289294
30
0.0
10
79.366086
20
171.877085
30
0.0
10
84.811997
20
171.503117
30
0.0
10
90.238159
20
171.700507
30
0.0
10
95.505764
20
172.434167
30
0.0
10
96.502361
20
170.123472
30
0.0
10
97.323933
20
168.601556
30
0.0
10
97.366445
20
168.296467
30
0.0
10
97.251078
20
168.059478
30
0.0
10
96.931468
20
167.909563
30
0.0
10
96.361250
20
167.865694
30
0.0
10
93.627532
20
167.270400
30
0.0
10
90.866333
20
166.842629
30
0.0
10
88.086309
20
166.581615
30
0.0
10
85.296116
20
166.486589
30
0.0
10
82.504413
20
166.556786
30
0.0
10
79.719855
20
166.791438
30
0.0
10
76.951100
20
167.189779
30
0.0
10
74.206806
20
167.751042
30
0.0
10
73.617196
20
167.919849
30
0.0
10
72.807743
20
168.022810
30
0.0
10
72.175269
20
168.203758
30
0.0
10
72.049406
20
168.368425
30
0.0
10
72.116597
20
168.606528
30
0.0
10
73.232700
20
170.722828
30
0.0
10
74.039236
20
172.857500
30
0.0
10
74.039236
20
172.857500
30
0.0
  0
ENDSEC
  0
SECTION
  2
OBJECTS
  0
DICTIONARY
  5
C
330
0
100
AcDbDictionary
  3
ACAD_GROUP
350
D
  3
ACAD_MLINESTYLE
350
17
  0
DICTIONARY
  5
D
330
C
100
AcDbDictionary
  0
DICTIONARY
  5
1A
330
C
100
AcDbDictionary
  0
DICTIONARY
  5
17
330
C
100
AcDbDictionary
  3
STANDARD
350
18
  0
DICTIONARY
  5
19
330
C
100
AcDbDictionary
  0
ENDSEC
  0
EOF
