999
Inkscape export via OpenSCAD DXF Export
  0
SECTION
  2
HEADER
  9
$ACADVER
  1
AC1014
  9
$HANDSEED
  5
FFFF
  9
$MEASUREMENT
 70
     1
  0
ENDSEC
  0
SECTION
  2
TABLES
  0
TABLE
  2
VPORT
  5
8
330
0
100
AcDbSymbolTable
 70
     4
  0
VPORT
  5
2E
330
8
100
AcDbSymbolTableRecord
100
AcDbViewportTableRecord
  2
*ACTIVE
 70
     0
 10
0.0
 20
0.0
 11
1.0
 21
1.0
 12
210.0
 22
148.5
 13
0.0
 23
0.0
 14
10.0
 24
10.0
 15
10.0
 25
10.0
 16
0.0
 26
0.0
 36
1.0
 17
0.0
 27
0.0
 37
0.0
 40
341.0
 41
1.24
 42
50.0
 43
0.0
 44
0.0
 50
0.0
 51
0.0
 71
     0
 72
   100
 73
     1
 74
     3
 75
     0
 76
     0
 77
     0
 78
     0
  0
ENDTAB
  0
TABLE
  2
LTYPE
  5
5
330
0
100
AcDbSymbolTable
 70
     1
  0
LTYPE
  5
14
330
5
100
AcDbSymbolTableRecord
100
AcDbLinetypeTableRecord
  2
BYBLOCK
 70
     0
  3

 72
    65
 73
     0
 40
0.0
  0
LTYPE
  5
15
330
5
100
AcDbSymbolTableRecord
100
AcDbLinetypeTableRecord
  2
BYLAYER
 70
     0
  3

 72
    65
 73
     0
 40
0.0
  0
LTYPE
  5
16
330
5
100
AcDbSymbolTableRecord
100
AcDbLinetypeTableRecord
  2
CONTINUOUS
 70
     0
  3
Solid line
 72
    65
 73
     0
 40
0.0
  0
ENDTAB
  0
TABLE
0
TABLE
2
LAYER
5
2
330
0
100
AcDbSymbolTable
70
1
0
LAYER
5
10
330
2
100
AcDbSymbolTableRecord
100
AcDbLayerTableRecord
2
Calque_1
70
0
62
7
6
CONTINUOUS
0
ENDTAB
0
ENDSEC
  0
ENDTAB
  0
TABLE
  2
STYLE
  5
3
330
0
100
AcDbSymbolTable
 70
     1
  0
STYLE
  5
11
330
3
100
AcDbSymbolTableRecord
100
AcDbTextStyleTableRecord
  2
STANDARD
 70
     0
 40
0.0
 41
1.0
 50
0.0
 71
     0
 42
2.5
  3
txt
  4

  0
ENDTAB
  0
TABLE
  2
VIEW
  5
6
330
0
100
AcDbSymbolTable
 70
     0
  0
ENDTAB
  0
TABLE
  2
UCS
  5
7
330
0
100
AcDbSymbolTable
 70
     0
  0
ENDTAB
  0
TABLE
  2
APPID
  5
9
330
0
100
AcDbSymbolTable
 70
     2
  0
APPID
  5
12
330
9
100
AcDbSymbolTableRecord
100
AcDbRegAppTableRecord
  2
ACAD
 70
     0
  0
ENDTAB
  0
TABLE
  2
DIMSTYLE
  5
A
330
0
100
AcDbSymbolTable
 70
     1
  0
DIMSTYLE
105
27
330
A
100
AcDbSymbolTableRecord
100
AcDbDimStyleTableRecord
  2
ISO-25
 70
     0
  3

  4

  5

  6

  7

 40
1.0
 41
2.5
 42
0.625
 43
3.75
 44
1.25
 45
0.0
 46
0.0
 47
0.0
 48
0.0
140
2.5
141
2.5
142
0.0
143
0.03937007874016
144
1.0
145
0.0
146
1.0
147
0.625
 71
     0
 72
     0
 73
     0
 74
     0
 75
     0
 76
     0
 77
     1
 78
     8
170
     0
171
     3
172
     1
173
     0
174
     0
175
     0
176
     0
177
     0
178
     0
270
     2
271
     2
272
     2
273
     2
274
     3
340
11
275
     0
280
     0
281
     0
282
     0
283
     0
284
     8
285
     0
286
     0
287
     3
288
     0
  0
ENDTAB
  0
TABLE
  2
BLOCK_RECORD
  5
1
330
0
100
AcDbSymbolTable
 70
     1
  0
BLOCK_RECORD
  5
1F
330
1
100
AcDbSymbolTableRecord
100
AcDbBlockTableRecord
  2
*MODEL_SPACE
  0
BLOCK_RECORD
  5
1B
330
1
100
AcDbSymbolTableRecord
100
AcDbBlockTableRecord
  2
*PAPER_SPACE
  0
ENDTAB
  0
ENDSEC
  0
SECTION
  2
BLOCKS
  0
BLOCK
  5
20
330
1F
100
AcDbEntity
  8
0
100
AcDbBlockBegin
  2
*MODEL_SPACE
 70
     0
 10
0.0
 20
0.0
 30
0.0
  3
*MODEL_SPACE
  1

  0
ENDBLK
  5
21
330
1F
100
AcDbEntity
  8
0
100
AcDbBlockEnd
  0
BLOCK
  5
1C
330
1B
100
AcDbEntity
 67
     1
  8
0
100
AcDbBlockBegin
  2
*PAPER_SPACE
  1

  0
ENDBLK
  5
1D
330
1B
100
AcDbEntity
 67
     1
  8
0
100
AcDbBlockEnd
  0
ENDSEC
  0
SECTION
  2
ENTITIES
0
DIMENSION
5
83
100
AcDbEntity
62
256
370
-1
6
ByLayer
1
total_width
3
Standard
70
0
71
5
72
1
41
1.0
100
AcDbAlignedDimension
13
164.962527
23
0.000000
33
0.0
14
425.316010
24
0.000000
34
0.0
50
0.000000
100
AcDbRotatedDimension
0
DIMENSION
5
83
100
AcDbEntity
62
256
370
-1
6
ByLayer
1
total_height
3
Standard
70
0
71
5
72
1
41
1.0
100
AcDbAlignedDimension
13
0.000000
23
-151.963086
33
0.0
14
0.000000
24
100.731140
34
0.0
50
90.000000
100
AcDbRotatedDimension
0
DIMENSION
8
Calque_1
5
83
100
AcDbEntity
62
256
370
-1
6
ByLayer
1
Calque_1_width
3
Standard
70
0
71
5
72
1
41
1.0
100
AcDbAlignedDimension
13
164.962527
23
0.000000
33
0.0
14
425.316010
24
0.000000
34
0.0
50
0.000000
100
AcDbRotatedDimension
0
DIMENSION
8
Calque_1
5
83
100
AcDbEntity
62
256
370
-1
6
ByLayer
1
Calque_1_height
3
Standard
70
0
71
5
72
1
41
1.0
100
AcDbAlignedDimension
13
0.000000
23
-151.963086
33
0.0
14
0.000000
24
100.731140
34
0.0
50
90.000000
100
AcDbRotatedDimension
0
LWPOLYLINE
100
AcDbPolyline
8
Calque_1
90
57
70
0
10
291.878258
20
-151.847408
30
0.0
10
287.545072
20
-151.191508
30
0.0
10
283.223229
20
-150.110555
30
0.0
10
278.962997
20
-148.629647
30
0.0
10
274.814646
20
-146.773881
30
0.0
10
270.828445
20
-144.568356
30
0.0
10
267.054662
20
-142.038170
30
0.0
10
263.543567
20
-139.208420
30
0.0
10
260.345428
20
-136.104205
30
0.0
10
257.889678
20
-133.120239
30
0.0
10
257.091997
20
-131.801934
30
0.0
10
256.573847
20
-130.576781
30
0.0
10
256.329776
20
-129.427805
30
0.0
10
256.354336
20
-128.338032
30
0.0
10
256.642076
20
-127.290488
30
0.0
10
257.187548
20
-126.268196
30
0.0
10
257.944920
20
-125.288932
30
0.0
10
258.905379
20
-124.325208
30
0.0
10
261.402796
20
-122.456774
30
0.0
10
264.614268
20
-120.687684
30
0.0
10
268.474265
20
-119.042729
30
0.0
10
272.917258
20
-117.546697
30
0.0
10
277.877717
20
-116.224378
30
0.0
10
283.290113
20
-115.100561
30
0.0
10
289.088915
20
-114.200036
30
0.0
10
294.818142
20
-113.712644
30
0.0
10
301.530180
20
-113.514550
30
0.0
10
307.940033
20
-113.615292
30
0.0
10
312.762702
20
-114.024409
30
0.0
10
319.422995
20
-115.350891
30
0.0
10
322.485693
20
-116.175425
30
0.0
10
325.344360
20
-117.098412
30
0.0
10
327.979694
20
-118.113044
30
0.0
10
330.372395
20
-119.212513
30
0.0
10
332.503165
20
-120.390013
30
0.0
10
334.352702
20
-121.638736
30
0.0
10
336.056326
20
-123.110270
30
0.0
10
337.242976
20
-124.582857
30
0.0
10
337.936325
20
-126.094063
30
0.0
10
338.160050
20
-127.681452
30
0.0
10
337.921293
20
-129.141352
30
0.0
10
337.154555
20
-130.737753
30
0.0
10
335.775879
20
-132.606278
30
0.0
10
333.701305
20
-134.882550
30
0.0
10
330.726914
20
-137.696794
30
0.0
10
327.433180
20
-140.359243
30
0.0
10
323.887154
20
-142.832492
30
0.0
10
320.155884
20
-145.079133
30
0.0
10
316.306421
20
-147.061760
30
0.0
10
312.405814
20
-148.742965
30
0.0
10
308.521114
20
-150.085342
30
0.0
10
304.719369
20
-151.051484
30
0.0
10
301.629247
20
-151.534817
30
0.0
10
298.132994
20
-151.848787
30
0.0
10
294.719651
20
-151.963086
30
0.0
10
291.878258
20
-151.847408
30
0.0
10
291.878258
20
-151.847408
30
0.0
0
LWPOLYLINE
100
AcDbPolyline
8
Calque_1
90
67
70
0
10
357.653138
20
-114.778789
30
0.0
10
354.636274
20
-114.157797
30
0.0
10
351.848321
20
-113.200147
30
0.0
10
349.436818
20
-111.967981
30
0.0
10
347.549301
20
-110.523442
30
0.0
10
346.488482
20
-109.315151
30
0.0
10
345.583168
20
-107.909168
30
0.0
10
344.832865
20
-106.318048
30
0.0
10
344.237084
20
-104.554344
30
0.0
10
343.795330
20
-102.630611
30
0.0
10
343.507113
20
-100.559404
30
0.0
10
343.371941
20
-98.353277
30
0.0
10
343.389320
20
-96.024783
30
0.0
10
343.879769
20
-91.050917
30
0.0
10
344.974523
20
-85.738241
30
0.0
10
346.669646
20
-80.187190
30
0.0
10
348.961202
20
-74.498199
30
0.0
10
350.378054
20
-71.603116
30
0.0
10
352.073845
20
-68.503284
30
0.0
10
353.841137
20
-65.560645
30
0.0
10
355.472492
20
-63.137146
30
0.0
10
357.601261
20
-60.421087
30
0.0
10
360.352382
20
-57.187619
30
0.0
10
366.237943
20
-50.860479
30
0.0
10
370.918891
20
-46.484687
30
0.0
10
375.439779
20
-42.850546
30
0.0
10
379.777430
20
-39.968070
30
0.0
10
383.908663
20
-37.847272
30
0.0
10
385.889630
20
-37.075631
30
0.0
10
387.810301
20
-36.498164
30
0.0
10
389.667778
20
-36.116123
30
0.0
10
391.459163
20
-35.930760
30
0.0
10
393.181560
20
-35.943325
30
0.0
10
394.832071
20
-36.155071
30
0.0
10
396.407798
20
-36.567249
30
0.0
10
397.905845
20
-37.181111
30
0.0
10
399.256642
20
-37.954564
30
0.0
10
400.306787
20
-38.881652
30
0.0
10
401.245881
20
-40.173902
30
0.0
10
402.263525
20
-42.042841
30
0.0
10
403.359506
20
-44.446509
30
0.0
10
404.317629
20
-47.018525
30
0.0
10
405.135186
20
-49.745682
30
0.0
10
405.809471
20
-52.614776
30
0.0
10
406.337778
20
-55.612601
30
0.0
10
406.717399
20
-58.725954
30
0.0
10
406.945629
20
-61.941627
30
0.0
10
407.019760
20
-65.246418
30
0.0
10
406.804869
20
-70.507413
30
0.0
10
406.157685
20
-75.428850
30
0.0
10
405.055711
20
-80.063752
30
0.0
10
403.476449
20
-84.465141
30
0.0
10
401.397401
20
-88.686041
30
0.0
10
398.796069
20
-92.779474
30
0.0
10
395.649956
20
-96.798464
30
0.0
10
391.936563
20
-100.796032
30
0.0
10
388.567743
20
-103.920582
30
0.0
10
385.091690
20
-106.667998
30
0.0
10
381.520484
20
-109.032456
30
0.0
10
377.866204
20
-111.008134
30
0.0
10
374.140932
20
-112.589208
30
0.0
10
370.356746
20
-113.769856
30
0.0
10
366.525729
20
-114.544254
30
0.0
10
362.659958
20
-114.906579
30
0.0
10
359.873550
20
-114.921434
30
0.0
10
357.653138
20
-114.778789
30
0.0
10
357.653138
20
-114.778789
30
0.0
0
LWPOLYLINE
100
AcDbPolyline
8
Calque_1
90
68
70
0
10
226.826033
20
-114.328164
30
0.0
10
222.633120
20
-113.337884
30
0.0
10
218.530102
20
-111.893425
30
0.0
10
214.535517
20
-110.007118
30
0.0
10
210.667907
20
-107.691300
30
0.0
10
206.945812
20
-104.958302
30
0.0
10
203.387772
20
-101.820458
30
0.0
10
200.012329
20
-98.290103
30
0.0
10
196.838022
20
-94.379569
30
0.0
10
195.513354
20
-92.426698
30
0.0
10
194.212008
20
-90.153860
30
0.0
10
192.955954
20
-87.615365
30
0.0
10
191.767164
20
-84.865526
30
0.0
10
189.679257
20
-78.949061
30
0.0
10
188.824083
20
-75.891058
30
0.0
10
188.124056
20
-72.838958
30
0.0
10
187.725262
20
-69.674192
30
0.0
10
187.628911
20
-64.689368
30
0.0
10
187.747438
20
-59.635442
30
0.0
10
187.936268
20
-58.159714
30
0.0
10
188.259144
20
-56.787146
30
0.0
10
188.974484
20
-54.535194
30
0.0
10
189.822401
20
-52.539981
30
0.0
10
190.809063
20
-50.794429
30
0.0
10
191.940636
20
-49.291464
30
0.0
10
193.223287
20
-48.024011
30
0.0
10
194.663181
20
-46.984992
30
0.0
10
196.266485
20
-46.167333
30
0.0
10
198.039366
20
-45.563958
30
0.0
10
200.075245
20
-45.131242
30
0.0
10
202.136888
20
-44.923299
30
0.0
10
204.243112
20
-44.943262
30
0.0
10
206.412736
20
-45.194265
30
0.0
10
208.664578
20
-45.679441
30
0.0
10
211.017455
20
-46.401924
30
0.0
10
213.490186
20
-47.364848
30
0.0
10
216.101589
20
-48.571346
30
0.0
10
220.349639
20
-50.927728
30
0.0
10
224.439356
20
-53.729709
30
0.0
10
228.453910
20
-57.040012
30
0.0
10
232.476472
20
-60.921362
30
0.0
10
236.000859
20
-64.746634
30
0.0
10
238.796994
20
-68.246782
30
0.0
10
241.118645
20
-71.770072
30
0.0
10
243.219580
20
-75.664764
30
0.0
10
244.459629
20
-78.350846
30
0.0
10
245.543558
20
-81.066379
30
0.0
10
247.241309
20
-86.512317
30
0.0
10
248.309338
20
-91.855618
30
0.0
10
248.606114
20
-94.442853
30
0.0
10
248.744148
20
-96.949319
30
0.0
10
248.723003
20
-99.356644
30
0.0
10
248.542243
20
-101.646458
30
0.0
10
248.201430
20
-103.800392
30
0.0
10
247.700128
20
-105.800074
30
0.0
10
247.037898
20
-107.627136
30
0.0
10
246.214305
20
-109.263205
30
0.0
10
245.228912
20
-110.689913
30
0.0
10
244.081280
20
-111.888890
30
0.0
10
242.797408
20
-112.750046
30
0.0
10
241.107041
20
-113.474474
30
0.0
10
239.088707
20
-114.051076
30
0.0
10
236.820934
20
-114.468750
30
0.0
10
234.382252
20
-114.716396
30
0.0
10
231.851189
20
-114.782914
30
0.0
10
229.306273
20
-114.657204
30
0.0
10
226.826033
20
-114.328164
30
0.0
10
226.826033
20
-114.328164
30
0.0
0
LWPOLYLINE
100
AcDbPolyline
8
Calque_1
90
82
70
0
10
292.301591
20
-99.234271
30
0.0
10
289.324674
20
-98.702347
30
0.0
10
286.364906
20
-97.959912
30
0.0
10
283.445588
20
-97.017101
30
0.0
10
280.590016
20
-95.884046
30
0.0
10
277.821491
20
-94.570882
30
0.0
10
275.163309
20
-93.087741
30
0.0
10
272.638770
20
-91.444757
30
0.0
10
270.271172
20
-89.652064
30
0.0
10
267.668150
20
-87.340190
30
0.0
10
265.306298
20
-84.860975
30
0.0
10
263.195254
20
-82.230298
30
0.0
10
261.344655
20
-79.464033
30
0.0
10
259.764139
20
-76.578057
30
0.0
10
258.463344
20
-73.588247
30
0.0
10
257.451906
20
-70.510479
30
0.0
10
256.739463
20
-67.360629
30
0.0
10
256.433792
20
-64.588086
30
0.0
10
256.335238
20
-61.275435
30
0.0
10
256.443065
20
-57.949846
30
0.0
10
256.756538
20
-55.138488
30
0.0
10
257.423575
20
-52.111754
30
0.0
10
258.343181
20
-49.178796
30
0.0
10
259.504240
20
-46.349700
30
0.0
10
260.895638
20
-43.634546
30
0.0
10
262.506258
20
-41.043418
30
0.0
10
264.324985
20
-38.586399
30
0.0
10
266.340705
20
-36.273573
30
0.0
10
268.542301
20
-34.115021
30
0.0
10
270.918658
20
-32.120827
30
0.0
10
273.458661
20
-30.301074
30
0.0
10
276.151195
20
-28.665844
30
0.0
10
278.985143
20
-27.225222
30
0.0
10
281.949391
20
-25.989288
30
0.0
10
285.032824
20
-24.968128
30
0.0
10
288.224325
20
-24.171823
30
0.0
10
291.512780
20
-23.610456
30
0.0
10
294.996788
20
-23.383118
30
0.0
10
299.285614
20
-23.422669
30
0.0
10
303.554115
20
-23.698677
30
0.0
10
306.977147
20
-24.180714
30
0.0
10
310.141986
20
-24.958027
30
0.0
10
313.193901
20
-25.929287
30
0.0
10
316.125463
20
-27.090590
30
0.0
10
318.929247
20
-28.438029
30
0.0
10
321.597825
20
-29.967701
30
0.0
10
324.123770
20
-31.675698
30
0.0
10
326.499654
20
-33.558118
30
0.0
10
328.718051
20
-35.611053
30
0.0
10
330.783933
20
-37.822731
30
0.0
10
332.625350
20
-40.105679
30
0.0
10
334.248077
20
-42.471000
30
0.0
10
335.657889
20
-44.929794
30
0.0
10
336.860561
20
-47.493164
30
0.0
10
337.861869
20
-50.172210
30
0.0
10
338.667587
20
-52.978035
30
0.0
10
339.283492
20
-55.921739
30
0.0
10
339.513776
20
-58.422554
30
0.0
10
339.559964
20
-61.699894
30
0.0
10
339.430923
20
-65.044999
30
0.0
10
339.135522
20
-67.749108
30
0.0
10
338.483005
20
-70.720781
30
0.0
10
337.586514
20
-73.603207
30
0.0
10
336.456524
20
-76.386669
30
0.0
10
335.103509
20
-79.061456
30
0.0
10
333.537941
20
-81.617851
30
0.0
10
331.770296
20
-84.046141
30
0.0
10
329.811047
20
-86.336611
30
0.0
10
327.670668
20
-88.479548
30
0.0
10
325.359633
20
-90.465236
30
0.0
10
322.888415
20
-92.283962
30
0.0
10
320.267488
20
-93.926011
30
0.0
10
317.507327
20
-95.381669
30
0.0
10
314.618405
20
-96.641222
30
0.0
10
311.611197
20
-97.694955
30
0.0
10
308.496175
20
-98.533154
30
0.0
10
305.283814
20
-99.146105
30
0.0
10
302.466822
20
-99.392779
30
0.0
10
298.770774
20
-99.493728
30
0.0
10
295.085690
20
-99.442908
30
0.0
10
292.301591
20
-99.234271
30
0.0
10
292.301591
20
-99.234271
30
0.0
0
LWPOLYLINE
100
AcDbPolyline
8
Calque_1
90
53
70
0
10
177.566741
20
-40.938731
30
0.0
10
176.059885
20
-39.444849
30
0.0
10
174.568120
20
-37.712273
30
0.0
10
171.739133
20
-33.706088
30
0.0
10
169.298322
20
-29.270273
30
0.0
10
168.291777
20
-27.000659
30
0.0
10
167.464229
20
-24.754923
30
0.0
10
166.171108
20
-20.304662
30
0.0
10
165.354421
20
-16.157034
30
0.0
10
164.967213
20
-11.987641
30
0.0
10
164.962527
20
-7.472086
30
0.0
10
165.167072
20
-4.295332
30
0.0
10
165.553641
20
-1.266943
30
0.0
10
166.130035
20
1.637717
30
0.0
10
166.904057
20
4.443283
30
0.0
10
167.883509
20
7.174392
30
0.0
10
169.076193
20
9.855679
30
0.0
10
170.489911
20
12.511779
30
0.0
10
172.132464
20
15.167329
30
0.0
10
174.508716
20
18.275082
30
0.0
10
177.556081
20
21.551483
30
0.0
10
180.896327
20
24.620780
30
0.0
10
184.151222
20
27.107226
30
0.0
10
186.997344
20
28.860139
30
0.0
10
187.852577
20
29.104828
30
0.0
10
188.836709
20
29.149527
30
0.0
10
190.147425
20
28.996908
30
0.0
10
191.325803
20
28.530510
30
0.0
10
192.380528
20
27.737516
30
0.0
10
193.320281
20
26.605112
30
0.0
10
194.153747
20
25.120481
30
0.0
10
194.889609
20
23.270810
30
0.0
10
195.536549
20
21.043282
30
0.0
10
196.103251
20
18.425082
30
0.0
10
196.490535
20
14.274455
30
0.0
10
196.620234
20
8.272683
30
0.0
10
196.492162
20
1.856490
30
0.0
10
196.106130
20
-3.537400
30
0.0
10
195.275501
20
-9.614922
30
0.0
10
194.252323
20
-15.359974
30
0.0
10
193.056373
20
-20.707964
30
0.0
10
191.707425
20
-25.594302
30
0.0
10
190.225258
20
-29.954396
30
0.0
10
188.629647
20
-33.723657
30
0.0
10
186.940370
20
-36.837494
30
0.0
10
185.177201
20
-39.231315
30
0.0
10
183.904942
20
-40.501652
30
0.0
10
182.698628
20
-41.349646
30
0.0
10
181.469878
20
-41.823266
30
0.0
10
180.130312
20
-41.970479
30
0.0
10
178.757114
20
-41.792033
30
0.0
10
177.566741
20
-40.938731
30
0.0
10
177.566741
20
-40.938731
30
0.0
0
LWPOLYLINE
100
AcDbPolyline
8
Calque_1
90
54
70
0
10
407.372256
20
-40.244718
30
0.0
10
406.414054
20
-39.658610
30
0.0
10
405.460697
20
-38.855524
30
0.0
10
403.581861
20
-36.630457
30
0.0
10
401.762436
20
-33.633599
30
0.0
10
400.029112
20
-29.929034
30
0.0
10
398.408579
20
-25.580845
30
0.0
10
396.927526
20
-20.653115
30
0.0
10
395.612642
20
-15.209927
30
0.0
10
394.490617
20
-9.315364
30
0.0
10
393.781230
20
-4.637926
30
0.0
10
393.341606
20
-0.491136
30
0.0
10
393.117565
20
3.815039
30
0.0
10
393.054925
20
8.970632
30
0.0
10
393.100925
20
13.695499
30
0.0
10
393.286425
20
17.052639
30
0.0
10
393.682670
20
19.788245
30
0.0
10
394.360908
20
22.648507
30
0.0
10
395.125442
20
24.955669
30
0.0
10
396.079639
20
26.887139
30
0.0
10
397.199620
20
28.426329
30
0.0
10
398.461509
20
29.556652
30
0.0
10
399.841426
20
30.261520
30
0.0
10
401.315495
20
30.524346
30
0.0
10
402.859839
20
30.328542
30
0.0
10
404.450578
20
29.657521
30
0.0
10
408.209533
20
27.243097
30
0.0
10
411.651266
20
24.470251
30
0.0
10
414.756486
20
21.365708
30
0.0
10
417.505900
20
17.956193
30
0.0
10
419.880215
20
14.268430
30
0.0
10
421.860139
20
10.329143
30
0.0
10
423.426380
20
6.165056
30
0.0
10
424.559645
20
1.802893
30
0.0
10
425.015076
20
-1.451826
30
0.0
10
425.275890
20
-5.432554
30
0.0
10
425.316010
20
-9.446540
30
0.0
10
425.109358
20
-12.801034
30
0.0
10
424.591123
20
-16.159566
30
0.0
10
423.863925
20
-19.437916
30
0.0
10
422.935055
20
-22.618119
30
0.0
10
421.811806
20
-25.682214
30
0.0
10
420.501472
20
-28.612236
30
0.0
10
419.011346
20
-31.390223
30
0.0
10
417.348719
20
-33.998211
30
0.0
10
415.520886
20
-36.418236
30
0.0
10
413.094685
20
-39.103778
30
0.0
10
412.075551
20
-39.968907
30
0.0
10
411.134151
20
-40.539827
30
0.0
10
410.231803
20
-40.834704
30
0.0
10
409.329827
20
-40.871702
30
0.0
10
408.389538
20
-40.668985
30
0.0
10
407.372256
20
-40.244718
30
0.0
10
407.372256
20
-40.244718
30
0.0
0
LWPOLYLINE
100
AcDbPolyline
8
Calque_1
90
74
70
0
10
236.627828
20
-30.955825
30
0.0
10
234.080051
20
-30.308843
30
0.0
10
231.640809
20
-29.496576
30
0.0
10
229.313572
20
-28.522800
30
0.0
10
227.101809
20
-27.391289
30
0.0
10
225.008990
20
-26.105821
30
0.0
10
223.038586
20
-24.670171
30
0.0
10
221.194065
20
-23.088115
30
0.0
10
219.478899
20
-21.363427
30
0.0
10
217.896556
20
-19.499885
30
0.0
10
216.450506
20
-17.501263
30
0.0
10
215.144220
20
-15.371338
30
0.0
10
213.981167
20
-13.113885
30
0.0
10
212.964818
20
-10.732680
30
0.0
10
212.098641
20
-8.231499
30
0.0
10
211.386107
20
-5.614117
30
0.0
10
210.830685
20
-2.884310
30
0.0
10
210.383411
20
0.836078
30
0.0
10
210.398972
20
5.725077
30
0.0
10
210.833454
20
11.623877
30
0.0
10
211.262354
20
14.362002
30
0.0
10
211.848749
20
17.023932
30
0.0
10
212.604932
20
19.658158
30
0.0
10
213.543196
20
22.313171
30
0.0
10
216.015135
20
27.879527
30
0.0
10
217.511202
20
30.647722
30
0.0
10
219.163445
20
33.149443
30
0.0
10
221.167845
20
35.652946
30
0.0
10
223.720383
20
38.426490
30
0.0
10
226.648125
20
41.274451
30
0.0
10
229.654771
20
43.828080
30
0.0
10
232.746214
20
46.090720
30
0.0
10
235.928345
20
48.065712
30
0.0
10
239.207053
20
49.756400
30
0.0
10
242.588230
20
51.166125
30
0.0
10
246.077768
20
52.298230
30
0.0
10
249.681557
20
53.156057
30
0.0
10
253.244457
20
53.609895
30
0.0
10
257.121715
20
53.683998
30
0.0
10
260.948902
20
53.388823
30
0.0
10
264.361589
20
52.734827
30
0.0
10
268.097046
20
51.467552
30
0.0
10
271.596118
20
49.751666
30
0.0
10
274.833668
20
47.611696
30
0.0
10
277.784560
20
45.072164
30
0.0
10
280.423658
20
42.157597
30
0.0
10
282.725826
20
38.892518
30
0.0
10
284.665928
20
35.301454
30
0.0
10
286.218828
20
31.408927
30
0.0
10
287.199892
20
27.996946
30
0.0
10
287.822305
20
24.586849
30
0.0
10
288.119879
20
20.918497
30
0.0
10
288.126424
20
16.731749
30
0.0
10
287.691470
20
10.835324
30
0.0
10
287.262518
20
8.096255
30
0.0
10
286.676846
20
5.434445
30
0.0
10
285.922650
20
2.803269
30
0.0
10
284.988127
20
0.156100
30
0.0
10
282.530889
20
-5.372720
30
0.0
10
280.153262
20
-9.659136
30
0.0
10
277.450479
20
-13.622184
30
0.0
10
274.441577
20
-17.244783
30
0.0
10
271.145593
20
-20.509850
30
0.0
10
267.581565
20
-23.400303
30
0.0
10
263.768530
20
-25.899063
30
0.0
10
259.725525
20
-27.989046
30
0.0
10
255.471589
20
-29.653172
30
0.0
10
252.799290
20
-30.453954
30
0.0
10
250.314048
20
-30.968733
30
0.0
10
247.585355
20
-31.264433
30
0.0
10
244.182700
20
-31.407974
30
0.0
10
239.667707
20
-31.397979
30
0.0
10
236.627828
20
-30.955825
30
0.0
10
236.627828
20
-30.955825
30
0.0
0
LWPOLYLINE
100
AcDbPolyline
8
Calque_1
90
82
70
0
10
346.028095
20
-28.853806
30
0.0
10
342.004769
20
-28.007072
30
0.0
10
338.053462
20
-26.800668
30
0.0
10
334.213361
20
-25.256472
30
0.0
10
330.523652
20
-23.396362
30
0.0
10
327.023523
20
-21.242215
30
0.0
10
323.752160
20
-18.815909
30
0.0
10
320.748749
20
-16.139321
30
0.0
10
318.052478
20
-13.234330
30
0.0
10
315.888996
20
-10.525305
30
0.0
10
313.944250
20
-7.807220
30
0.0
10
312.211840
20
-5.067533
30
0.0
10
310.685371
20
-2.293700
30
0.0
10
309.358441
20
0.526823
30
0.0
10
308.224655
20
3.406579
30
0.0
10
307.277612
20
6.358112
30
0.0
10
306.510916
20
9.393966
30
0.0
10
306.004129
20
12.903006
30
0.0
10
305.753752
20
17.213448
30
0.0
10
305.779574
20
21.562356
30
0.0
10
306.101383
20
25.186794
30
0.0
10
306.678172
20
28.194482
30
0.0
10
307.434730
20
31.066504
30
0.0
10
308.372024
20
33.804889
30
0.0
10
309.491017
20
36.411662
30
0.0
10
310.792674
20
38.888851
30
0.0
10
312.277961
20
41.238483
30
0.0
10
313.947841
20
43.462584
30
0.0
10
315.803280
20
45.563182
30
0.0
10
317.656635
20
47.365500
30
0.0
10
319.597012
20
48.981087
30
0.0
10
321.632255
20
50.414118
30
0.0
10
323.770209
20
51.668771
30
0.0
10
326.018719
20
52.749222
30
0.0
10
328.385630
20
53.659646
30
0.0
10
330.878788
20
54.404222
30
0.0
10
333.506036
20
54.987124
30
0.0
10
336.502402
20
55.288700
30
0.0
10
340.291219
20
55.328660
30
0.0
10
344.109389
20
55.123570
30
0.0
10
347.193814
20
54.689994
30
0.0
10
350.114820
20
53.936948
30
0.0
10
352.962283
20
52.983348
30
0.0
10
355.729724
20
51.835365
30
0.0
10
358.410666
20
50.499173
30
0.0
10
360.998629
20
48.980942
30
0.0
10
363.487135
20
47.286843
30
0.0
10
365.869706
20
45.423049
30
0.0
10
368.139864
20
43.395731
30
0.0
10
370.291129
20
41.211061
30
0.0
10
372.317023
20
38.875210
30
0.0
10
374.211069
20
36.394351
30
0.0
10
375.966787
20
33.774653
30
0.0
10
377.577699
20
31.022290
30
0.0
10
379.037326
20
28.143433
30
0.0
10
380.339191
20
25.144253
30
0.0
10
381.476814
20
22.030923
30
0.0
10
382.663945
20
18.145356
30
0.0
10
383.432512
20
14.721684
30
0.0
10
383.875531
20
11.228947
30
0.0
10
384.086015
20
7.136188
30
0.0
10
384.076486
20
2.948188
30
0.0
10
383.777095
20
-0.722089
30
0.0
10
383.154256
20
-4.132518
30
0.0
10
382.174383
20
-7.540976
30
0.0
10
381.282378
20
-9.923586
30
0.0
10
380.232628
20
-12.224614
30
0.0
10
379.035623
20
-14.428826
30
0.0
10
377.701852
20
-16.520991
30
0.0
10
376.241807
20
-18.485876
30
0.0
10
374.665976
20
-20.308247
30
0.0
10
372.984851
20
-21.972872
30
0.0
10
371.208921
20
-23.464519
30
0.0
10
368.792878
20
-25.063926
30
0.0
10
365.972961
20
-26.482261
30
0.0
10
362.871692
20
-27.665683
30
0.0
10
359.611591
20
-28.560351
30
0.0
10
356.699980
20
-28.953707
30
0.0
10
352.913897
20
-29.145652
30
0.0
10
349.080787
20
-29.118310
30
0.0
10
346.028095
20
-28.853806
30
0.0
10
346.028095
20
-28.853806
30
0.0
0
LWPOLYLINE
100
AcDbPolyline
8
Calque_1
90
49
70
0
10
392.349369
20
41.254303
30
0.0
10
390.540515
20
41.948997
30
0.0
10
388.486046
20
42.932098
30
0.0
10
383.739398
20
45.685933
30
0.0
10
378.307688
20
49.360617
30
0.0
10
372.389178
20
53.800964
30
0.0
10
366.182130
20
58.851784
30
0.0
10
359.884808
20
64.357889
30
0.0
10
353.695473
20
70.164090
30
0.0
10
347.812388
20
76.115199
30
0.0
10
342.957222
20
81.553332
30
0.0
10
341.144363
20
83.856666
30
0.0
10
339.752958
20
85.864512
30
0.0
10
338.791734
20
87.563118
30
0.0
10
338.269422
20
88.938735
30
0.0
10
338.194748
20
89.977613
30
0.0
10
338.576440
20
90.666001
30
0.0
10
339.409215
20
91.003831
30
0.0
10
340.952433
20
91.310186
30
0.0
10
345.496060
20
91.782231
30
0.0
10
350.859043
20
91.989661
30
0.0
10
355.693105
20
91.840001
30
0.0
10
360.756997
20
91.219524
30
0.0
10
365.300186
20
90.255132
30
0.0
10
369.582512
20
88.877883
30
0.0
10
373.863814
20
87.018835
30
0.0
10
376.865171
20
85.413518
30
0.0
10
379.681084
20
83.606741
30
0.0
10
382.307905
20
81.602086
30
0.0
10
384.741984
20
79.403138
30
0.0
10
386.979675
20
77.013480
30
0.0
10
389.017327
20
74.436695
30
0.0
10
390.851292
20
71.676368
30
0.0
10
392.477921
20
68.736082
30
0.0
10
393.654579
20
66.211616
30
0.0
10
394.669174
20
63.640228
30
0.0
10
395.524731
20
61.008579
30
0.0
10
396.224273
20
58.303327
30
0.0
10
396.770826
20
55.511134
30
0.0
10
397.167412
20
52.618661
30
0.0
10
397.417057
20
49.612567
30
0.0
10
397.522785
20
46.479512
30
0.0
10
397.570480
20
42.087361
30
0.0
10
396.778621
20
41.403999
30
0.0
10
395.994472
20
40.931036
30
0.0
10
395.036340
20
40.749833
30
0.0
10
393.842036
20
40.858290
30
0.0
10
392.349369
20
41.254303
30
0.0
10
392.349369
20
41.254303
30
0.0
0
LWPOLYLINE
100
AcDbPolyline
8
Calque_1
90
46
70
0
10
193.468992
20
42.815218
30
0.0
10
192.677144
20
43.498684
30
0.0
10
192.733809
20
47.824662
30
0.0
10
192.995891
20
52.654381
30
0.0
10
193.650373
20
57.283993
30
0.0
10
194.693187
20
61.703228
30
0.0
10
196.120265
20
65.901815
30
0.0
10
197.927538
20
69.869482
30
0.0
10
200.110939
20
73.595958
30
0.0
10
202.666400
20
77.070972
30
0.0
10
205.589852
20
80.284254
30
0.0
10
208.107026
20
82.591464
30
0.0
10
210.780958
20
84.675842
30
0.0
10
213.618406
20
86.540753
30
0.0
10
216.626127
20
88.189565
30
0.0
10
219.810882
20
89.625645
30
0.0
10
223.179427
20
90.852359
30
0.0
10
226.738521
20
91.873073
30
0.0
10
230.494922
20
92.691155
30
0.0
10
233.042134
20
93.035940
30
0.0
10
236.081374
20
93.246967
30
0.0
10
242.708736
20
93.294537
30
0.0
10
248.522601
20
92.887450
30
0.0
10
250.544970
20
92.530157
30
0.0
10
251.668562
20
92.079294
30
0.0
10
252.051368
20
91.390368
30
0.0
10
251.977867
20
90.351464
30
0.0
10
251.456645
20
88.976113
30
0.0
10
250.496289
20
87.277849
30
0.0
10
249.105385
20
85.270204
30
0.0
10
247.292518
20
82.966711
30
0.0
10
242.435242
20
77.526310
30
0.0
10
236.480872
20
71.506918
30
0.0
10
230.211963
20
65.635319
30
0.0
10
223.836348
20
60.073594
30
0.0
10
217.561862
20
54.983825
30
0.0
10
211.596337
20
50.528093
30
0.0
10
206.147608
20
46.868479
30
0.0
10
201.423509
20
44.167065
30
0.0
10
199.398144
20
43.226333
30
0.0
10
197.631874
20
42.585932
30
0.0
10
196.204647
20
42.237979
30
0.0
10
195.094583
20
42.156932
30
0.0
10
194.212444
20
42.347707
30
0.0
10
193.468992
20
42.815218
30
0.0
10
193.468992
20
42.815218
30
0.0
0
LWPOLYLINE
100
AcDbPolyline
8
Calque_1
90
60
70
0
10
288.506210
20
56.120474
30
0.0
10
284.240080
20
56.893911
30
0.0
10
280.003739
20
57.981772
30
0.0
10
276.028589
20
59.315808
30
0.0
10
272.546033
20
60.827772
30
0.0
10
268.614084
20
63.121631
30
0.0
10
265.160991
20
65.788934
30
0.0
10
263.670182
20
67.212745
30
0.0
10
262.366488
20
68.670059
30
0.0
10
261.272377
20
70.140923
30
0.0
10
260.410314
20
71.605384
30
0.0
10
259.771164
20
72.920387
30
0.0
10
259.434585
20
73.915955
30
0.0
10
259.303690
20
75.029147
30
0.0
10
259.281589
20
76.697023
30
0.0
10
259.303922
20
78.376519
30
0.0
10
259.442224
20
79.510073
30
0.0
10
259.803444
20
80.566595
30
0.0
10
260.494534
20
82.014995
30
0.0
10
261.319535
20
83.462320
30
0.0
10
262.379165
20
84.963219
30
0.0
10
265.102287
20
88.026409
30
0.0
10
268.463852
20
91.005897
30
0.0
10
272.263811
20
93.703014
30
0.0
10
275.726396
20
95.608509
30
0.0
10
279.785993
20
97.394026
30
0.0
10
284.088597
20
98.919400
30
0.0
10
288.280207
20
100.044469
30
0.0
10
292.053876
20
100.539994
30
0.0
10
296.796481
20
100.731140
30
0.0
10
301.496573
20
100.610368
30
0.0
10
305.142702
20
100.170139
30
0.0
10
310.390046
20
98.750715
30
0.0
10
315.401458
20
96.849239
30
0.0
10
320.075133
20
94.537239
30
0.0
10
324.309267
20
91.886243
30
0.0
10
328.002056
20
88.967780
30
0.0
10
329.613632
20
87.430601
30
0.0
10
331.051695
20
85.853378
30
0.0
10
332.303519
20
84.245052
30
0.0
10
333.356379
20
82.614564
30
0.0
10
334.197550
20
80.970855
30
0.0
10
334.814305
20
79.322866
30
0.0
10
335.264661
20
77.237402
30
0.0
10
335.291176
20
74.743040
30
0.0
10
335.016581
20
72.179222
30
0.0
10
334.083575
20
69.892476
30
0.0
10
332.598775
20
67.498725
30
0.0
10
330.598878
20
65.281260
30
0.0
10
328.106802
20
63.252466
30
0.0
10
325.145463
20
61.424729
30
0.0
10
321.737781
20
59.810434
30
0.0
10
317.906673
20
58.421965
30
0.0
10
313.675055
20
57.271709
30
0.0
10
309.065845
20
56.372050
30
0.0
10
304.665512
20
55.970783
30
0.0
10
298.736657
20
55.782428
30
0.0
10
292.832487
20
55.825989
30
0.0
10
288.506210
20
56.120474
30
0.0
10
288.506210
20
56.120474
30
0.0
  0
ENDSEC
  0
SECTION
  2
OBJECTS
  0
DICTIONARY
  5
C
330
0
100
AcDbDictionary
  3
ACAD_GROUP
350
D
  3
ACAD_MLINESTYLE
350
17
  0
DICTIONARY
  5
D
330
C
100
AcDbDictionary
  0
DICTIONARY
  5
1A
330
C
100
AcDbDictionary
  0
DICTIONARY
  5
17
330
C
100
AcDbDictionary
  3
STANDARD
350
18
  0
DICTIONARY
  5
19
330
C
100
AcDbDictionary
  0
ENDSEC
  0
EOF
