999
Inkscape export via OpenSCAD DXF Export
  0
SECTION
  2
HEADER
  9
$ACADVER
  1
AC1014
  9
$HANDSEED
  5
FFFF
  9
$MEASUREMENT
 70
     1
  0
ENDSEC
  0
SECTION
  2
TABLES
  0
TABLE
  2
VPORT
  5
8
330
0
100
AcDbSymbolTable
 70
     4
  0
VPORT
  5
2E
330
8
100
AcDbSymbolTableRecord
100
AcDbViewportTableRecord
  2
*ACTIVE
 70
     0
 10
0.0
 20
0.0
 11
1.0
 21
1.0
 12
210.0
 22
148.5
 13
0.0
 23
0.0
 14
10.0
 24
10.0
 15
10.0
 25
10.0
 16
0.0
 26
0.0
 36
1.0
 17
0.0
 27
0.0
 37
0.0
 40
341.0
 41
1.24
 42
50.0
 43
0.0
 44
0.0
 50
0.0
 51
0.0
 71
     0
 72
   100
 73
     1
 74
     3
 75
     0
 76
     0
 77
     0
 78
     0
  0
ENDTAB
  0
TABLE
  2
LTYPE
  5
5
330
0
100
AcDbSymbolTable
 70
     1
  0
LTYPE
  5
14
330
5
100
AcDbSymbolTableRecord
100
AcDbLinetypeTableRecord
  2
BYBLOCK
 70
     0
  3

 72
    65
 73
     0
 40
0.0
  0
LTYPE
  5
15
330
5
100
AcDbSymbolTableRecord
100
AcDbLinetypeTableRecord
  2
BYLAYER
 70
     0
  3

 72
    65
 73
     0
 40
0.0
  0
LTYPE
  5
16
330
5
100
AcDbSymbolTableRecord
100
AcDbLinetypeTableRecord
  2
CONTINUOUS
 70
     0
  3
Solid line
 72
    65
 73
     0
 40
0.0
  0
ENDTAB
  0
TABLE
0
TABLE
2
LAYER
5
2
330
0
100
AcDbSymbolTable
70
1
0
LAYER
5
10
330
2
100
AcDbSymbolTableRecord
100
AcDbLayerTableRecord
2
Calque_1
70
0
62
7
6
CONTINUOUS
0
ENDTAB
0
ENDSEC
  0
ENDTAB
  0
TABLE
  2
STYLE
  5
3
330
0
100
AcDbSymbolTable
 70
     1
  0
STYLE
  5
11
330
3
100
AcDbSymbolTableRecord
100
AcDbTextStyleTableRecord
  2
STANDARD
 70
     0
 40
0.0
 41
1.0
 50
0.0
 71
     0
 42
2.5
  3
txt
  4

  0
ENDTAB
  0
TABLE
  2
VIEW
  5
6
330
0
100
AcDbSymbolTable
 70
     0
  0
ENDTAB
  0
TABLE
  2
UCS
  5
7
330
0
100
AcDbSymbolTable
 70
     0
  0
ENDTAB
  0
TABLE
  2
APPID
  5
9
330
0
100
AcDbSymbolTable
 70
     2
  0
APPID
  5
12
330
9
100
AcDbSymbolTableRecord
100
AcDbRegAppTableRecord
  2
ACAD
 70
     0
  0
ENDTAB
  0
TABLE
  2
DIMSTYLE
  5
A
330
0
100
AcDbSymbolTable
 70
     1
  0
DIMSTYLE
105
27
330
A
100
AcDbSymbolTableRecord
100
AcDbDimStyleTableRecord
  2
ISO-25
 70
     0
  3

  4

  5

  6

  7

 40
1.0
 41
2.5
 42
0.625
 43
3.75
 44
1.25
 45
0.0
 46
0.0
 47
0.0
 48
0.0
140
2.5
141
2.5
142
0.0
143
0.03937007874016
144
1.0
145
0.0
146
1.0
147
0.625
 71
     0
 72
     0
 73
     0
 74
     0
 75
     0
 76
     0
 77
     1
 78
     8
170
     0
171
     3
172
     1
173
     0
174
     0
175
     0
176
     0
177
     0
178
     0
270
     2
271
     2
272
     2
273
     2
274
     3
340
11
275
     0
280
     0
281
     0
282
     0
283
     0
284
     8
285
     0
286
     0
287
     3
288
     0
  0
ENDTAB
  0
TABLE
  2
BLOCK_RECORD
  5
1
330
0
100
AcDbSymbolTable
 70
     1
  0
BLOCK_RECORD
  5
1F
330
1
100
AcDbSymbolTableRecord
100
AcDbBlockTableRecord
  2
*MODEL_SPACE
  0
BLOCK_RECORD
  5
1B
330
1
100
AcDbSymbolTableRecord
100
AcDbBlockTableRecord
  2
*PAPER_SPACE
  0
ENDTAB
  0
ENDSEC
  0
SECTION
  2
BLOCKS
  0
BLOCK
  5
20
330
1F
100
AcDbEntity
  8
0
100
AcDbBlockBegin
  2
*MODEL_SPACE
 70
     0
 10
0.0
 20
0.0
 30
0.0
  3
*MODEL_SPACE
  1

  0
ENDBLK
  5
21
330
1F
100
AcDbEntity
  8
0
100
AcDbBlockEnd
  0
BLOCK
  5
1C
330
1B
100
AcDbEntity
 67
     1
  8
0
100
AcDbBlockBegin
  2
*PAPER_SPACE
  1

  0
ENDBLK
  5
1D
330
1B
100
AcDbEntity
 67
     1
  8
0
100
AcDbBlockEnd
  0
ENDSEC
  0
SECTION
  2
ENTITIES
0
DIMENSION
5
83
100
AcDbEntity
62
256
370
-1
6
ByLayer
1
total_width
3
Standard
70
0
71
5
72
1
41
1.0
100
AcDbAlignedDimension
13
163.789676
23
0.000000
33
0.0
14
406.500782
24
0.000000
34
0.0
50
0.000000
100
AcDbRotatedDimension
0
DIMENSION
5
83
100
AcDbEntity
62
256
370
-1
6
ByLayer
1
total_height
3
Standard
70
0
71
5
72
1
41
1.0
100
AcDbAlignedDimension
13
0.000000
23
101.803103
33
0.0
14
0.000000
24
193.917894
34
0.0
50
90.000000
100
AcDbRotatedDimension
0
DIMENSION
8
Calque_1
5
83
100
AcDbEntity
62
256
370
-1
6
ByLayer
1
Calque_1_width
3
Standard
70
0
71
5
72
1
41
1.0
100
AcDbAlignedDimension
13
163.789676
23
0.000000
33
0.0
14
406.500782
24
0.000000
34
0.0
50
0.000000
100
AcDbRotatedDimension
0
DIMENSION
8
Calque_1
5
83
100
AcDbEntity
62
256
370
-1
6
ByLayer
1
Calque_1_height
3
Standard
70
0
71
5
72
1
41
1.0
100
AcDbAlignedDimension
13
0.000000
23
101.803103
33
0.0
14
0.000000
24
193.917894
34
0.0
50
90.000000
100
AcDbRotatedDimension
0
LWPOLYLINE
100
AcDbPolyline
8
Calque_1
90
225
70
0
10
213.813565
20
101.869360
30
0.0
10
212.368499
20
102.024252
30
0.0
10
211.767454
20
102.230630
30
0.0
10
212.131778
20
102.615785
30
0.0
10
213.007708
20
103.200509
30
0.0
10
214.336397
20
104.154960
30
0.0
10
215.266565
20
105.159457
30
0.0
10
215.674237
20
106.039375
30
0.0
10
215.643395
20
106.378046
30
0.0
10
215.435437
20
106.620086
30
0.0
10
210.130350
20
107.187189
30
0.0
10
204.548995
20
107.753431
30
0.0
10
202.641378
20
108.119137
30
0.0
10
200.690232
20
108.636998
30
0.0
10
199.633839
20
109.001339
30
0.0
10
199.136448
20
109.302418
30
0.0
10
199.105714
20
109.418927
30
0.0
10
199.224733
20
109.507252
30
0.0
10
199.925364
20
109.582860
30
0.0
10
200.733396
20
109.715718
30
0.0
10
201.687020
20
110.085713
30
0.0
10
202.696178
20
110.649980
30
0.0
10
203.670812
20
111.365652
30
0.0
10
204.464172
20
112.030458
30
0.0
10
200.707478
20
113.392883
30
0.0
10
193.529759
20
116.104567
30
0.0
10
189.805460
20
117.818666
30
0.0
10
187.478929
20
119.409435
30
0.0
10
186.676819
20
120.126709
30
0.0
10
186.367454
20
120.588880
30
0.0
10
187.009950
20
120.780816
30
0.0
10
188.554676
20
120.928989
30
0.0
10
190.430944
20
121.155913
30
0.0
10
191.869116
20
121.537697
30
0.0
10
192.996335
20
122.029402
30
0.0
10
188.980897
20
124.108482
30
0.0
10
184.575037
20
126.508577
30
0.0
10
180.553858
20
128.897867
30
0.0
10
177.623394
20
130.836768
30
0.0
10
176.787815
20
131.499952
30
0.0
10
176.489676
20
131.885694
30
0.0
10
177.125602
20
132.085331
30
0.0
10
178.676898
20
132.176566
30
0.0
10
180.258081
20
132.261729
30
0.0
10
181.561854
20
132.475363
30
0.0
10
182.479147
20
132.791452
30
0.0
10
182.900890
20
133.183981
30
0.0
10
182.535341
20
133.723573
30
0.0
10
181.510977
20
134.574634
30
0.0
10
177.054121
20
138.087062
30
0.0
10
172.417630
20
141.776412
30
0.0
10
170.744473
20
143.026193
30
0.0
10
174.158789
20
143.167305
30
0.0
10
177.573107
20
143.308416
30
0.0
10
175.690838
20
145.482850
30
0.0
10
171.127454
20
150.739725
30
0.0
10
169.279349
20
152.976172
30
0.0
10
167.803900
20
154.970753
30
0.0
10
166.882993
20
156.459110
30
0.0
10
166.698515
20
157.176883
30
0.0
10
167.207380
20
157.159747
30
0.0
10
168.199099
20
156.886824
30
0.0
10
169.504525
20
156.560944
30
0.0
10
170.846032
20
156.452505
30
0.0
10
172.187911
20
156.561508
30
0.0
10
173.494454
20
156.887953
30
0.0
10
174.833116
20
157.344080
30
0.0
10
174.179730
20
158.046162
30
0.0
10
170.637558
20
160.719052
30
0.0
10
168.491562
20
162.303425
30
0.0
10
166.766910
20
163.846842
30
0.0
10
165.435863
20
165.377204
30
0.0
10
164.470681
20
166.922417
30
0.0
10
163.789676
20
168.416812
30
0.0
10
167.206938
20
168.567305
30
0.0
10
170.624201
20
168.567305
30
0.0
10
170.439416
20
169.343416
30
0.0
10
169.220813
20
172.770321
30
0.0
10
167.005192
20
177.462421
30
0.0
10
165.200787
20
181.113067
30
0.0
10
173.512113
20
181.333661
30
0.0
10
181.823436
20
181.408416
30
0.0
10
179.862113
20
184.009130
30
0.0
10
177.900787
20
186.869390
30
0.0
10
178.407246
20
187.141303
30
0.0
10
179.800327
20
187.351494
30
0.0
10
184.488582
20
187.512713
30
0.0
10
186.955624
20
187.436869
30
0.0
10
189.164690
20
187.232207
30
0.0
10
193.919472
20
186.292765
30
0.0
10
195.512551
20
185.967523
30
0.0
10
196.481140
20
185.978842
30
0.0
10
196.962002
20
186.364145
30
0.0
10
197.091898
20
187.160855
30
0.0
10
196.917909
20
187.847610
30
0.0
10
196.411830
20
188.606163
30
0.0
10
195.597494
20
189.408346
30
0.0
10
194.498733
20
190.225986
30
0.0
10
193.775044
20
190.787452
30
0.0
10
193.638983
20
191.075963
30
0.0
10
197.389407
20
190.292546
30
0.0
10
204.824446
20
188.286332
30
0.0
10
207.251923
20
187.628725
30
0.0
10
208.638599
20
187.414014
30
0.0
10
209.037837
20
187.473493
30
0.0
10
209.292316
20
187.644594
30
0.0
10
209.520917
20
188.322860
30
0.0
10
209.518931
20
189.045004
30
0.0
10
209.205512
20
189.724815
30
0.0
10
208.438721
20
190.561570
30
0.0
10
207.076616
20
191.754550
30
0.0
10
205.454363
20
193.233591
30
0.0
10
204.970693
20
193.912457
30
0.0
10
205.837505
20
193.900083
30
0.0
10
207.408955
20
193.641124
30
0.0
10
211.299374
20
192.654954
30
0.0
10
213.430281
20
191.892546
30
0.0
10
215.517763
20
190.957330
30
0.0
10
217.551192
20
189.854560
30
0.0
10
219.519940
20
188.589492
30
0.0
10
221.283900
20
187.481795
30
0.0
10
221.669466
20
187.458397
30
0.0
10
221.980122
20
187.695607
30
0.0
10
222.517943
20
188.435161
30
0.0
10
222.627499
20
189.236505
30
0.0
10
222.289073
20
190.256548
30
0.0
10
221.482948
20
191.652202
30
0.0
10
220.602137
20
193.155537
30
0.0
10
220.334010
20
193.879045
30
0.0
10
220.755954
20
193.895899
30
0.0
10
221.605400
20
193.605607
30
0.0
10
224.294722
20
192.264706
30
0.0
10
227.817829
20
190.178581
30
0.0
10
231.590571
20
187.669473
30
0.0
10
234.354692
20
185.718767
30
0.0
10
234.984962
20
186.500949
30
0.0
10
235.567297
20
187.444212
30
0.0
10
235.933488
20
188.535148
30
0.0
10
236.071972
20
189.721570
30
0.0
10
235.971182
20
190.951289
30
0.0
10
235.869613
20
192.481314
30
0.0
10
236.873414
20
191.763199
30
0.0
10
239.070291
20
189.797879
30
0.0
10
243.918226
20
185.021899
30
0.0
10
245.371655
20
183.597453
30
0.0
10
245.851464
20
183.253324
30
0.0
10
246.119340
20
183.193897
30
0.0
10
246.664386
20
183.741960
30
0.0
10
247.011814
20
184.610472
30
0.0
10
247.170219
20
185.835005
30
0.0
10
247.148198
20
187.451129
30
0.0
10
247.002839
20
189.875082
30
0.0
10
250.916389
20
185.913944
30
0.0
10
254.198734
20
182.435386
30
0.0
10
256.594712
20
179.634499
30
0.0
10
257.922314
20
177.997196
30
0.0
10
258.636011
20
177.316193
30
0.0
10
258.971229
20
177.565507
30
0.0
10
259.232621
20
178.264783
30
0.0
10
259.463009
20
180.721233
30
0.0
10
259.538567
20
182.103494
30
0.0
10
259.720230
20
182.678416
30
0.0
10
260.495603
20
182.070636
30
0.0
10
261.960663
20
180.512260
30
0.0
10
265.544983
20
176.133510
30
0.0
10
267.989079
20
172.676752
30
0.0
10
270.122223
20
169.253760
30
0.0
10
271.940675
20
165.873746
30
0.0
10
273.440695
20
162.545916
30
0.0
10
274.618543
20
159.279482
30
0.0
10
275.470480
20
156.083651
30
0.0
10
275.992765
20
152.967633
30
0.0
10
276.181659
20
149.940638
30
0.0
10
276.101972
20
147.363546
30
0.0
10
275.786173
20
145.168455
30
0.0
10
275.179358
20
143.101733
30
0.0
10
274.226618
20
140.909744
30
0.0
10
273.482809
20
139.619583
30
0.0
10
272.515158
20
138.298181
30
0.0
10
270.094415
20
135.732170
30
0.0
10
267.336558
20
133.552748
30
0.0
10
265.947515
20
132.714582
30
0.0
10
264.613757
20
132.100954
30
0.0
10
264.095937
20
131.952272
30
0.0
10
263.637358
20
132.027707
30
0.0
10
262.100862
20
133.199314
30
0.0
10
256.064705
20
137.925628
30
0.0
10
249.303009
20
142.776907
30
0.0
10
244.472856
20
145.899378
30
0.0
10
239.554752
20
148.887204
30
0.0
10
234.540043
20
151.744852
30
0.0
10
229.420077
20
154.476786
30
0.0
10
224.186199
20
157.087472
30
0.0
10
218.829757
20
159.581373
30
0.0
10
213.342096
20
161.962957
30
0.0
10
207.714565
20
164.236686
30
0.0
10
199.869204
20
167.103625
30
0.0
10
195.479137
20
168.459727
30
0.0
10
199.263243
20
166.298932
30
0.0
10
209.818240
20
160.508919
30
0.0
10
220.426795
20
154.252306
30
0.0
10
230.317683
20
147.999710
30
0.0
10
238.719676
20
142.221753
30
0.0
10
244.665392
20
137.621916
30
0.0
10
250.702841
20
132.531728
30
0.0
10
255.576654
20
128.052210
30
0.0
10
257.184893
20
126.385522
30
0.0
10
258.031460
20
125.284384
30
0.0
10
258.228169
20
124.834478
30
0.0
10
258.280996
20
124.385212
30
0.0
10
257.930515
20
122.913333
30
0.0
10
256.170961
20
118.849771
30
0.0
10
254.249060
20
115.740792
30
0.0
10
251.827467
20
112.905367
30
0.0
10
248.928872
20
110.356793
30
0.0
10
245.575963
20
108.108371
30
0.0
10
241.791430
20
106.173398
30
0.0
10
237.597963
20
104.565173
30
0.0
10
233.018249
20
103.296996
30
0.0
10
228.074979
20
102.382163
30
0.0
10
225.053102
20
102.089604
30
0.0
10
221.110842
20
101.886551
30
0.0
10
217.085297
20
101.803103
30
0.0
10
213.813565
20
101.869360
30
0.0
10
213.813565
20
101.869360
30
0.0
0
LWPOLYLINE
100
AcDbPolyline
8
Calque_1
90
231
70
0
10
344.714407
20
102.558953
30
0.0
10
338.473460
20
103.395619
30
0.0
10
332.585991
20
104.735897
30
0.0
10
329.849062
20
105.574190
30
0.0
10
327.289602
20
106.513546
30
0.0
10
324.937312
20
107.545684
30
0.0
10
322.821893
20
108.662325
30
0.0
10
320.733705
20
110.001391
30
0.0
10
318.792377
20
111.497888
30
0.0
10
317.010842
20
113.136289
30
0.0
10
315.402034
20
114.901064
30
0.0
10
313.978885
20
116.776685
30
0.0
10
312.754329
20
118.747622
30
0.0
10
311.741298
20
120.798348
30
0.0
10
310.952727
20
122.913333
30
0.0
10
310.598827
20
124.385397
30
0.0
10
310.651173
20
124.834427
30
0.0
10
310.847881
20
125.284384
30
0.0
10
312.371688
20
127.044096
30
0.0
10
315.448329
20
130.041306
30
0.0
10
319.253527
20
133.502460
30
0.0
10
322.963004
20
136.654005
30
0.0
10
327.437956
20
140.147118
30
0.0
10
332.301032
20
143.704647
30
0.0
10
337.535319
20
147.315813
30
0.0
10
343.123905
20
150.969836
30
0.0
10
355.296327
20
158.363328
30
0.0
10
368.683004
20
165.798880
30
0.0
10
372.747628
20
168.089607
30
0.0
10
372.901520
20
168.244519
30
0.0
10
372.715186
20
168.235741
30
0.0
10
371.331208
20
167.733956
30
0.0
10
363.603004
20
164.655499
30
0.0
10
350.401501
20
159.095106
30
0.0
10
344.267803
20
156.271094
30
0.0
10
338.444611
20
153.417435
30
0.0
10
332.931276
20
150.533801
30
0.0
10
327.727151
20
147.619864
30
0.0
10
322.831587
20
144.675296
30
0.0
10
318.243938
20
141.699769
30
0.0
10
311.863842
20
137.179703
30
0.0
10
306.838011
20
133.244083
30
0.0
10
305.596731
20
132.279580
30
0.0
10
304.845861
20
131.878416
30
0.0
10
302.783776
20
132.878304
30
0.0
10
300.619159
20
134.360415
30
0.0
10
298.722821
20
136.033461
30
0.0
10
297.101030
20
137.886443
30
0.0
10
295.760055
20
139.908364
30
0.0
10
294.706164
20
142.088227
30
0.0
10
293.945624
20
144.415035
30
0.0
10
293.484703
20
146.877790
30
0.0
10
293.329670
20
149.465494
30
0.0
10
293.526237
20
152.658620
30
0.0
10
294.105460
20
155.989059
30
0.0
10
295.051628
20
159.419228
30
0.0
10
296.349028
20
162.911543
30
0.0
10
297.981948
20
166.428420
30
0.0
10
299.934675
20
169.932277
30
0.0
10
302.191495
20
173.385530
30
0.0
10
304.736698
20
176.750595
30
0.0
10
308.261618
20
180.699261
30
0.0
10
309.726337
20
182.121477
30
0.0
10
310.508452
20
182.678416
30
0.0
10
310.733747
20
182.452920
30
0.0
10
310.827448
20
181.910768
30
0.0
10
311.444076
20
179.300213
30
0.0
10
312.060675
20
177.457305
30
0.0
10
313.650743
20
179.150638
30
0.0
10
318.227287
20
184.371749
30
0.0
10
322.241870
20
188.884101
30
0.0
10
323.269977
20
189.868676
30
0.0
10
323.187060
20
187.425216
30
0.0
10
323.221530
20
185.275643
30
0.0
10
323.386200
20
184.692355
30
0.0
10
323.685747
20
184.200657
30
0.0
10
324.227719
20
183.569420
30
0.0
10
324.662521
20
183.367211
30
0.0
10
325.090323
20
183.597267
30
0.0
10
325.611292
20
184.262820
30
0.0
10
326.723540
20
185.643316
30
0.0
10
328.308945
20
187.331232
30
0.0
10
329.964841
20
188.919558
30
0.0
10
331.288559
20
190.001284
30
0.0
10
334.150141
20
191.737070
30
0.0
10
335.824294
20
192.488988
30
0.0
10
335.352249
20
191.005176
30
0.0
10
334.987050
20
189.809918
30
0.0
10
335.022243
20
188.723561
30
0.0
10
335.470688
20
187.689750
30
0.0
10
336.345248
20
186.652133
30
0.0
10
337.324531
20
185.702983
30
0.0
10
340.099819
20
187.661582
30
0.0
10
343.878741
20
190.175177
30
0.0
10
347.405067
20
192.263784
30
0.0
10
350.095708
20
193.605656
30
0.0
10
350.945429
20
193.896020
30
0.0
10
351.367570
20
193.879045
30
0.0
10
351.099437
20
193.155537
30
0.0
10
350.218615
20
191.652202
30
0.0
10
349.417856
20
190.269976
30
0.0
10
349.077919
20
189.259619
30
0.0
10
349.176878
20
188.456106
30
0.0
10
349.692807
20
187.694413
30
0.0
10
349.963588
20
187.441397
30
0.0
10
350.237859
20
187.382973
30
0.0
10
351.293599
20
187.919858
30
0.0
10
353.421639
20
189.124282
30
0.0
10
355.757551
20
190.241252
30
0.0
10
361.477955
20
192.399766
30
0.0
10
366.050251
20
193.826925
30
0.0
10
366.809629
20
193.917894
30
0.0
10
366.989670
20
193.696998
30
0.0
10
364.873004
20
191.163334
30
0.0
10
363.189185
20
189.188385
30
0.0
10
362.852509
20
188.566667
30
0.0
10
362.756337
20
188.046974
30
0.0
10
362.919433
20
187.193971
30
0.0
10
366.941100
20
188.304815
30
0.0
10
373.920847
20
190.195221
30
0.0
10
378.042819
20
191.145082
30
0.0
10
377.740905
20
190.583408
30
0.0
10
376.507107
20
189.232999
30
0.0
10
375.350950
20
187.997106
30
0.0
10
374.762010
20
187.144067
30
0.0
10
374.679287
20
186.541695
30
0.0
10
375.041781
20
186.057801
30
0.0
10
375.410457
20
185.918654
30
0.0
10
376.105074
20
185.963416
30
0.0
10
379.204559
20
186.721432
30
0.0
10
382.389839
20
187.529054
30
0.0
10
384.974218
20
188.031464
30
0.0
10
387.084178
20
188.248034
30
0.0
10
388.846201
20
188.198135
30
0.0
10
392.024066
20
187.599329
30
0.0
10
393.289344
20
187.230877
30
0.0
10
393.800782
20
186.951751
30
0.0
10
391.761754
20
184.731165
30
0.0
10
389.722699
20
182.678416
30
0.0
10
398.111754
20
182.678416
30
0.0
10
406.500782
20
182.527475
30
0.0
10
404.587033
20
179.634697
30
0.0
10
401.807200
20
175.340638
30
0.0
10
400.452227
20
172.437173
30
0.0
10
399.727448
20
170.250052
30
0.0
10
400.677673
20
170.054630
30
0.0
10
403.114115
20
169.978416
30
0.0
10
405.732040
20
169.900730
30
0.0
10
406.318337
20
169.794764
30
0.0
10
406.500782
20
169.636176
30
0.0
10
405.340340
20
166.951345
30
0.0
10
404.342437
20
165.227141
30
0.0
10
402.988081
20
163.465235
30
0.0
10
401.099659
20
161.459254
30
0.0
10
398.499556
20
159.002827
30
0.0
10
397.185236
20
157.668957
30
0.0
10
397.099035
20
157.338195
30
0.0
10
397.285803
20
157.059121
30
0.0
10
398.112930
20
156.664976
30
0.0
10
399.450158
20
156.494515
30
0.0
10
401.091604
20
156.555317
30
0.0
10
402.831385
20
156.854961
30
0.0
10
404.294901
20
157.152551
30
0.0
10
405.001137
20
157.178817
30
0.0
10
404.837493
20
156.548483
30
0.0
10
404.108225
20
155.277870
30
0.0
10
401.844115
20
152.216743
30
0.0
10
397.275671
20
147.590288
30
0.0
10
394.618125
20
144.927685
30
0.0
10
394.439189
20
144.457467
30
0.0
10
394.727910
20
144.158715
30
0.0
10
395.435877
20
143.853588
30
0.0
10
396.372292
20
143.750719
30
0.0
10
397.495883
20
143.850175
30
0.0
10
398.765381
20
144.152026
30
0.0
10
400.558931
20
144.575359
30
0.0
10
400.678751
20
144.502378
30
0.0
10
400.590224
20
144.277853
30
0.0
10
399.774583
20
143.360757
30
0.0
10
395.494115
20
139.560468
30
0.0
10
390.220990
20
134.926114
30
0.0
10
388.475672
20
133.278232
30
0.0
10
389.203636
20
132.801240
30
0.0
10
390.386270
20
132.410208
30
0.0
10
392.571760
20
132.208779
30
0.0
10
394.436360
20
132.070477
30
0.0
10
395.211893
20
131.900113
30
0.0
10
394.893452
20
131.421350
30
0.0
10
394.045218
20
130.627112
30
0.0
10
391.401893
20
128.641713
30
0.0
10
388.418627
20
126.913516
30
0.0
10
384.020286
20
124.613956
30
0.0
10
380.038307
20
122.511721
30
0.0
10
379.043886
20
121.881274
30
0.0
10
378.750463
20
121.552542
30
0.0
10
379.195038
20
121.049620
30
0.0
10
380.024171
20
120.681298
30
0.0
10
381.124613
20
120.480954
30
0.0
10
382.383115
20
120.481961
30
0.0
10
383.734814
20
120.539315
30
0.0
10
383.772324
20
120.420090
30
0.0
10
383.499670
20
120.170026
30
0.0
10
381.666059
20
119.081637
30
0.0
10
378.586852
20
117.604811
30
0.0
10
374.995465
20
116.070599
30
0.0
10
371.625312
20
114.810056
30
0.0
10
367.312476
20
113.360523
30
0.0
10
368.211298
20
112.643331
30
0.0
10
370.131047
20
111.418806
30
0.0
10
370.997039
20
111.101740
30
0.0
10
371.773450
20
110.993968
30
0.0
10
372.427367
20
110.920441
30
0.0
10
372.582500
20
110.708212
30
0.0
10
372.243036
20
110.369811
30
0.0
10
371.413165
20
109.917768
30
0.0
10
369.836687
20
109.292521
30
0.0
10
368.026156
20
108.804930
30
0.0
10
365.886034
20
108.434237
30
0.0
10
363.320782
20
108.159687
30
0.0
10
358.290798
20
107.702698
30
0.0
10
355.279713
20
107.298221
30
0.0
10
353.764889
20
106.847504
30
0.0
10
353.405251
20
106.573944
30
0.0
10
353.223689
20
106.251791
30
0.0
10
353.491719
20
105.685589
30
0.0
10
354.304515
20
104.840680
30
0.0
10
356.379131
20
103.029463
30
0.0
10
357.253004
20
102.261626
30
0.0
10
352.314115
20
102.292163
30
0.0
10
344.714407
20
102.558950
30
0.0
10
344.714407
20
102.558953
30
0.0
  0
ENDSEC
  0
SECTION
  2
OBJECTS
  0
DICTIONARY
  5
C
330
0
100
AcDbDictionary
  3
ACAD_GROUP
350
D
  3
ACAD_MLINESTYLE
350
17
  0
DICTIONARY
  5
D
330
C
100
AcDbDictionary
  0
DICTIONARY
  5
1A
330
C
100
AcDbDictionary
  0
DICTIONARY
  5
17
330
C
100
AcDbDictionary
  3
STANDARD
350
18
  0
DICTIONARY
  5
19
330
C
100
AcDbDictionary
  0
ENDSEC
  0
EOF
