solid OpenSCAD_Model
  facet normal -2.22045e-16 0 1
    outer loop
      vertex 166.849 0 -7.36104e-15
      vertex 164.513 -190 -7.87968e-15
      vertex 173.405 -190 -5.90528e-15
    endloop
  endfacet
  facet normal -2.22045e-16 0 1
    outer loop
      vertex 173.405 0 -5.90528e-15
      vertex 166.849 0 -7.36104e-15
      vertex 173.405 -190 -5.90528e-15
    endloop
  endfacet
  facet normal 0 -1 0
    outer loop
      vertex 183.405 -190 -15.5
      vertex 176.014 -190 -16.5
      vertex 200 -190 -16.5
    endloop
  endfacet
  facet normal 0 -1 0
    outer loop
      vertex 183.405 -190 -15.5
      vertex 173.405 -190 -3.5
      vertex 164.513 -190 -3
    endloop
  endfacet
  facet normal 0 -1 0
    outer loop
      vertex 164.513 -190 -3
      vertex 176.014 -190 -16.5
      vertex 183.405 -190 -15.5
    endloop
  endfacet
  facet normal 0 -1 0
    outer loop
      vertex 173.405 -190 -5.90528e-15
      vertex 164.513 -190 -3
      vertex 173.405 -190 -3.5
    endloop
  endfacet
  facet normal 0 -1 0
    outer loop
      vertex 164.513 -190 -7.87968e-15
      vertex 164.513 -190 -3
      vertex 173.405 -190 -5.90528e-15
    endloop
  endfacet
  facet normal 0 -1 0
    outer loop
      vertex 200 -190 -15.5
      vertex 183.405 -190 -15.5
      vertex 200 -190 -16.5
    endloop
  endfacet
  facet normal -0.999924 0.0122925 -2.22028e-16
    outer loop
      vertex 164.513 -190 -7.87968e-15
      vertex 166.849 0 -7.36104e-15
      vertex 164.513 -190 -3
    endloop
  endfacet
  facet normal -0.999924 0.0122925 -2.22028e-16
    outer loop
      vertex 164.513 -190 -3
      vertex 166.849 0 -7.36104e-15
      vertex 166.849 0 -3
    endloop
  endfacet
  facet normal 0 1 0
    outer loop
      vertex 200 0 -16.5
      vertex 183.405 0 -15.5
      vertex 200 0 -15.5
    endloop
  endfacet
  facet normal 0 1 0
    outer loop
      vertex 178.35 0 -16.5
      vertex 183.405 0 -15.5
      vertex 200 0 -16.5
    endloop
  endfacet
  facet normal 0 1 0
    outer loop
      vertex 173.405 0 -3.5
      vertex 183.405 0 -15.5
      vertex 178.35 0 -16.5
    endloop
  endfacet
  facet normal 0 1 0
    outer loop
      vertex 173.405 0 -3.5
      vertex 178.35 0 -16.5
      vertex 166.849 0 -3
    endloop
  endfacet
  facet normal 0 1 0
    outer loop
      vertex 173.405 0 -3.5
      vertex 166.849 0 -3
      vertex 173.405 0 -5.90528e-15
    endloop
  endfacet
  facet normal 0 1 0
    outer loop
      vertex 166.849 0 -3
      vertex 166.849 0 -7.36104e-15
      vertex 173.405 0 -5.90528e-15
    endloop
  endfacet
  facet normal 1 2.22045e-16 2.22045e-16
    outer loop
      vertex 173.405 -190 -5.90528e-15
      vertex 173.405 -190 -3.5
      vertex 173.405 0 -3.5
    endloop
  endfacet
  facet normal 1 2.22045e-16 2.22045e-16
    outer loop
      vertex 173.405 0 -5.90528e-15
      vertex 173.405 -190 -5.90528e-15
      vertex 173.405 0 -3.5
    endloop
  endfacet
  facet normal -0.761186 0.00935762 -0.648466
    outer loop
      vertex 164.513 -190 -3
      vertex 166.849 0 -3
      vertex 176.014 -190 -16.5
    endloop
  endfacet
  facet normal -0.761186 0.00935762 -0.648466
    outer loop
      vertex 176.014 -190 -16.5
      vertex 166.849 0 -3
      vertex 178.35 0 -16.5
    endloop
  endfacet
  facet normal 0.768221 1.70579e-16 0.640184
    outer loop
      vertex 173.405 -190 -3.5
      vertex 183.405 -190 -15.5
      vertex 183.405 0 -15.5
    endloop
  endfacet
  facet normal 0.768221 1.70579e-16 0.640184
    outer loop
      vertex 173.405 0 -3.5
      vertex 173.405 -190 -3.5
      vertex 183.405 0 -15.5
    endloop
  endfacet
  facet normal -2.22045e-16 0 1
    outer loop
      vertex 183.405 -190 -15.5
      vertex 200 -190 -15.5
      vertex 200 0 -15.5
    endloop
  endfacet
  facet normal -2.22045e-16 0 1
    outer loop
      vertex 183.405 0 -15.5
      vertex 183.405 -190 -15.5
      vertex 200 0 -15.5
    endloop
  endfacet
  facet normal 1 0 4.44089e-16
    outer loop
      vertex 200 0 -15.5
      vertex 200 -190 -15.5
      vertex 200 -190 -16.5
    endloop
  endfacet
  facet normal 1 0 4.44089e-16
    outer loop
      vertex 200 0 -16.5
      vertex 200 0 -15.5
      vertex 200 -190 -16.5
    endloop
  endfacet
  facet normal 2.22045e-16 0 -1
    outer loop
      vertex 176.014 -190 -16.5
      vertex 178.35 0 -16.5
      vertex 200 -190 -16.5
    endloop
  endfacet
  facet normal 2.22045e-16 0 -1
    outer loop
      vertex 200 -190 -16.5
      vertex 178.35 0 -16.5
      vertex 200 0 -16.5
    endloop
  endfacet
endsolid OpenSCAD_Model
