999
Inkscape export via OpenSCAD DXF Export
  0
SECTION
  2
HEADER
  9
$ACADVER
  1
AC1014
  9
$HANDSEED
  5
FFFF
  9
$MEASUREMENT
 70
     1
  0
ENDSEC
  0
SECTION
  2
TABLES
  0
TABLE
  2
VPORT
  5
8
330
0
100
AcDbSymbolTable
 70
     4
  0
VPORT
  5
2E
330
8
100
AcDbSymbolTableRecord
100
AcDbViewportTableRecord
  2
*ACTIVE
 70
     0
 10
0.0
 20
0.0
 11
1.0
 21
1.0
 12
210.0
 22
148.5
 13
0.0
 23
0.0
 14
10.0
 24
10.0
 15
10.0
 25
10.0
 16
0.0
 26
0.0
 36
1.0
 17
0.0
 27
0.0
 37
0.0
 40
341.0
 41
1.24
 42
50.0
 43
0.0
 44
0.0
 50
0.0
 51
0.0
 71
     0
 72
   100
 73
     1
 74
     3
 75
     0
 76
     0
 77
     0
 78
     0
  0
ENDTAB
  0
TABLE
  2
LTYPE
  5
5
330
0
100
AcDbSymbolTable
 70
     1
  0
LTYPE
  5
14
330
5
100
AcDbSymbolTableRecord
100
AcDbLinetypeTableRecord
  2
BYBLOCK
 70
     0
  3

 72
    65
 73
     0
 40
0.0
  0
LTYPE
  5
15
330
5
100
AcDbSymbolTableRecord
100
AcDbLinetypeTableRecord
  2
BYLAYER
 70
     0
  3

 72
    65
 73
     0
 40
0.0
  0
LTYPE
  5
16
330
5
100
AcDbSymbolTableRecord
100
AcDbLinetypeTableRecord
  2
CONTINUOUS
 70
     0
  3
Solid line
 72
    65
 73
     0
 40
0.0
  0
ENDTAB
  0
TABLE
0
TABLE
2
LAYER
5
2
330
0
100
AcDbSymbolTable
70
1
0
LAYER
5
10
330
2
100
AcDbSymbolTableRecord
100
AcDbLayerTableRecord
2
Layer_1
70
0
62
7
6
CONTINUOUS
0
ENDTAB
0
ENDSEC
  0
ENDTAB
  0
TABLE
  2
STYLE
  5
3
330
0
100
AcDbSymbolTable
 70
     1
  0
STYLE
  5
11
330
3
100
AcDbSymbolTableRecord
100
AcDbTextStyleTableRecord
  2
STANDARD
 70
     0
 40
0.0
 41
1.0
 50
0.0
 71
     0
 42
2.5
  3
txt
  4

  0
ENDTAB
  0
TABLE
  2
VIEW
  5
6
330
0
100
AcDbSymbolTable
 70
     0
  0
ENDTAB
  0
TABLE
  2
UCS
  5
7
330
0
100
AcDbSymbolTable
 70
     0
  0
ENDTAB
  0
TABLE
  2
APPID
  5
9
330
0
100
AcDbSymbolTable
 70
     2
  0
APPID
  5
12
330
9
100
AcDbSymbolTableRecord
100
AcDbRegAppTableRecord
  2
ACAD
 70
     0
  0
ENDTAB
  0
TABLE
  2
DIMSTYLE
  5
A
330
0
100
AcDbSymbolTable
 70
     1
  0
DIMSTYLE
105
27
330
A
100
AcDbSymbolTableRecord
100
AcDbDimStyleTableRecord
  2
ISO-25
 70
     0
  3

  4

  5

  6

  7

 40
1.0
 41
2.5
 42
0.625
 43
3.75
 44
1.25
 45
0.0
 46
0.0
 47
0.0
 48
0.0
140
2.5
141
2.5
142
0.0
143
0.03937007874016
144
1.0
145
0.0
146
1.0
147
0.625
 71
     0
 72
     0
 73
     0
 74
     0
 75
     0
 76
     0
 77
     1
 78
     8
170
     0
171
     3
172
     1
173
     0
174
     0
175
     0
176
     0
177
     0
178
     0
270
     2
271
     2
272
     2
273
     2
274
     3
340
11
275
     0
280
     0
281
     0
282
     0
283
     0
284
     8
285
     0
286
     0
287
     3
288
     0
  0
ENDTAB
  0
TABLE
  2
BLOCK_RECORD
  5
1
330
0
100
AcDbSymbolTable
 70
     1
  0
BLOCK_RECORD
  5
1F
330
1
100
AcDbSymbolTableRecord
100
AcDbBlockTableRecord
  2
*MODEL_SPACE
  0
BLOCK_RECORD
  5
1B
330
1
100
AcDbSymbolTableRecord
100
AcDbBlockTableRecord
  2
*PAPER_SPACE
  0
ENDTAB
  0
ENDSEC
  0
SECTION
  2
BLOCKS
  0
BLOCK
  5
20
330
1F
100
AcDbEntity
  8
0
100
AcDbBlockBegin
  2
*MODEL_SPACE
 70
     0
 10
0.0
 20
0.0
 30
0.0
  3
*MODEL_SPACE
  1

  0
ENDBLK
  5
21
330
1F
100
AcDbEntity
  8
0
100
AcDbBlockEnd
  0
BLOCK
  5
1C
330
1B
100
AcDbEntity
 67
     1
  8
0
100
AcDbBlockBegin
  2
*PAPER_SPACE
  1

  0
ENDBLK
  5
1D
330
1B
100
AcDbEntity
 67
     1
  8
0
100
AcDbBlockEnd
  0
ENDSEC
  0
SECTION
  2
ENTITIES
0
DIMENSION
5
83
100
AcDbEntity
62
256
370
-1
6
ByLayer
1
total_width
3
Standard
70
0
71
5
72
1
41
1.0
100
AcDbAlignedDimension
13
-0.148068
23
0.000000
33
0.0
14
289.913822
24
0.000000
34
0.0
50
0.000000
100
AcDbRotatedDimension
0
DIMENSION
5
83
100
AcDbEntity
62
256
370
-1
6
ByLayer
1
total_height
3
Standard
70
0
71
5
72
1
41
1.0
100
AcDbAlignedDimension
13
0.000000
23
1.605830
33
0.0
14
0.000000
24
288.303154
34
0.0
50
90.000000
100
AcDbRotatedDimension
0
DIMENSION
8
Layer_1
5
83
100
AcDbEntity
62
256
370
-1
6
ByLayer
1
Layer_1_width
3
Standard
70
0
71
5
72
1
41
1.0
100
AcDbAlignedDimension
13
-0.148068
23
0.000000
33
0.0
14
289.913822
24
0.000000
34
0.0
50
0.000000
100
AcDbRotatedDimension
0
DIMENSION
8
Layer_1
5
83
100
AcDbEntity
62
256
370
-1
6
ByLayer
1
Layer_1_height
3
Standard
70
0
71
5
72
1
41
1.0
100
AcDbAlignedDimension
13
0.000000
23
1.605830
33
0.0
14
0.000000
24
288.303154
34
0.0
50
90.000000
100
AcDbRotatedDimension
0
LWPOLYLINE
100
AcDbPolyline
8
Layer_1
90
408
70
0
10
83.164389
20
1.980015
30
0.0
10
81.305191
20
2.784292
30
0.0
10
80.482393
20
3.782362
30
0.0
10
79.503282
20
5.491663
30
0.0
10
78.725083
20
7.214512
30
0.0
10
78.505022
20
8.253222
30
0.0
10
78.554515
20
8.541286
30
0.0
10
78.381643
20
8.528106
30
0.0
10
78.262040
20
8.506064
30
0.0
10
78.216839
20
8.638868
30
0.0
10
78.348493
20
9.399044
30
0.0
10
78.761655
20
12.924197
30
0.0
10
78.907956
20
15.393021
30
0.0
10
78.111844
20
15.696184
30
0.0
10
77.176529
20
15.893620
30
0.0
10
76.045735
20
15.942592
30
0.0
10
74.883141
20
15.912072
30
0.0
10
74.300283
20
16.077420
30
0.0
10
74.094945
20
16.620356
30
0.0
10
74.064913
20
17.722596
30
0.0
10
74.018975
20
19.909818
30
0.0
10
74.175027
20
21.179821
30
0.0
10
74.208274
20
21.932147
30
0.0
10
73.766799
20
22.398821
30
0.0
10
73.293191
20
22.610687
30
0.0
10
72.994613
20
22.597217
30
0.0
10
72.733258
20
19.684887
30
0.0
10
72.499558
20
16.139679
30
0.0
10
72.316689
20
15.391378
30
0.0
10
72.080363
20
15.261957
30
0.0
10
71.891115
20
15.289516
30
0.0
10
71.812401
20
15.123188
30
0.0
10
71.728469
20
14.970693
30
0.0
10
71.447471
20
14.924603
30
0.0
10
70.119068
20
15.154938
30
0.0
10
69.547470
20
15.580754
30
0.0
10
68.953342
20
16.528828
30
0.0
10
68.395641
20
17.881402
30
0.0
10
67.933322
20
19.520718
30
0.0
10
67.635586
20
21.354393
30
0.0
10
67.581769
20
23.688550
30
0.0
10
68.282160
20
32.750932
30
0.0
10
68.758249
20
37.407708
30
0.0
10
69.164005
20
39.947599
30
0.0
10
69.403177
20
60.690932
30
0.0
10
69.638731
20
84.538710
30
0.0
10
69.987451
20
93.428710
30
0.0
10
70.267009
20
101.048710
30
0.0
10
70.535202
20
116.570932
30
0.0
10
70.788730
20
134.127258
30
0.0
10
71.096500
20
146.451243
30
0.0
10
71.507219
20
154.954827
30
0.0
10
72.069596
20
161.049950
30
0.0
10
72.485967
20
165.254265
30
0.0
10
74.752987
20
186.138710
30
0.0
10
75.639856
20
195.517595
30
0.0
10
75.907768
20
199.559729
30
0.0
10
75.916779
20
201.319517
30
0.0
10
71.459032
20
201.411050
30
0.0
10
61.001461
20
201.371129
30
0.0
10
44.194943
20
201.274508
30
0.0
10
31.896631
20
201.344945
30
0.0
10
23.200970
20
201.596319
30
0.0
10
17.202401
20
202.042514
30
0.0
10
11.794180
20
202.740663
30
0.0
10
7.808701
20
203.518049
30
0.0
10
4.835815
20
204.477017
30
0.0
10
2.465374
20
205.719914
30
0.0
10
1.325072
20
206.587926
30
0.0
10
0.503704
20
207.515228
30
0.0
10
0.009811
20
208.489472
30
0.0
10
-0.148068
20
209.498311
30
0.0
10
0.243571
20
210.820847
30
0.0
10
1.187392
20
212.374381
30
0.0
10
2.377390
20
213.740253
30
0.0
10
3.507562
20
214.499802
30
0.0
10
3.883160
20
214.679765
30
0.0
10
4.044727
20
214.978091
30
0.0
10
3.788102
20
216.338350
30
0.0
10
3.635389
20
217.520851
30
0.0
10
3.876795
20
218.701180
30
0.0
10
4.513104
20
219.881447
30
0.0
10
5.545102
20
221.063764
30
0.0
10
6.595200
20
221.993435
30
0.0
10
7.164278
20
222.346198
30
0.0
10
8.010158
20
222.947399
30
0.0
10
8.629511
20
223.606668
30
0.0
10
7.623815
20
224.228223
30
0.0
10
6.884752
20
224.820086
30
0.0
10
6.484277
20
225.573177
30
0.0
10
6.372047
20
226.669049
30
0.0
10
6.497717
20
228.289254
30
0.0
10
6.747227
20
231.788211
30
0.0
10
6.760181
20
233.269937
30
0.0
10
7.747959
20
233.302378
30
0.0
10
9.220197
20
233.286179
30
0.0
10
9.610569
20
233.424572
30
0.0
10
9.837092
20
233.888678
30
0.0
10
10.216504
20
236.746039
30
0.0
10
10.412052
20
239.831488
30
0.0
10
10.429070
20
241.454265
30
0.0
10
12.404626
20
241.482347
30
0.0
10
15.509070
20
241.597688
30
0.0
10
19.742403
20
241.857869
30
0.0
10
25.216009
20
242.235631
30
0.0
10
27.720126
20
242.632001
30
0.0
10
29.948361
20
242.912420
30
0.0
10
35.517308
20
243.610867
30
0.0
10
38.294738
20
244.012106
30
0.0
10
41.730725
20
244.225918
30
0.0
10
59.112404
20
244.363460
30
0.0
10
78.444626
20
244.417599
30
0.0
10
78.904180
20
249.638710
30
0.0
10
79.658223
20
256.979974
30
0.0
10
80.545493
20
263.502135
30
0.0
10
81.530107
20
268.975250
30
0.0
10
82.576182
20
273.169374
30
0.0
10
83.236793
20
274.885856
30
0.0
10
84.162821
20
276.834681
30
0.0
10
85.071720
20
278.464761
30
0.0
10
85.680942
20
279.225006
30
0.0
10
85.852259
20
279.461212
30
0.0
10
85.923515
20
279.897008
30
0.0
10
86.290083
20
281.190062
30
0.0
10
87.152862
20
283.265453
30
0.0
10
88.156470
20
285.334105
30
0.0
10
88.945522
20
286.606937
30
0.0
10
89.592404
20
287.496551
30
0.0
10
89.884826
20
287.763647
30
0.0
10
90.620970
20
288.025243
30
0.0
10
92.577691
20
288.303154
30
0.0
10
93.563039
20
288.183136
30
0.0
10
94.208752
20
287.879821
30
0.0
10
94.826746
20
287.456488
30
0.0
10
95.324535
20
287.112573
30
0.0
10
96.076900
20
286.176558
30
0.0
10
97.935268
20
283.102609
30
0.0
10
99.189187
20
280.542043
30
0.0
10
99.682864
20
278.707599
30
0.0
10
101.020045
20
274.235244
30
0.0
10
101.577572
20
271.519489
30
0.0
10
101.790079
20
270.450513
30
0.0
10
102.108355
20
269.731978
30
0.0
10
102.448402
20
269.486837
30
0.0
10
102.726228
20
269.838049
30
0.0
10
103.465445
20
271.321001
30
0.0
10
103.979327
20
271.861586
30
0.0
10
104.598275
20
272.279832
30
0.0
10
105.088393
20
272.587456
30
0.0
10
105.404235
20
272.934902
30
0.0
10
105.745130
20
274.121984
30
0.0
10
106.164596
20
276.575493
30
0.0
10
106.620273
20
278.053255
30
0.0
10
107.130804
20
279.146280
30
0.0
10
107.756352
20
279.910582
30
0.0
10
108.525373
20
280.371153
30
0.0
10
109.466321
20
280.552983
30
0.0
10
110.900182
20
280.413479
30
0.0
10
112.529885
20
279.852300
30
0.0
10
114.758693
20
279.516046
30
0.0
10
116.077204
20
279.451075
30
0.0
10
115.986382
20
276.468781
30
0.0
10
115.833895
20
273.345377
30
0.0
10
115.832484
20
272.922043
30
0.0
10
116.010093
20
271.902350
30
0.0
10
115.978405
20
271.752504
30
0.0
10
115.868512
20
271.775002
30
0.0
10
115.731687
20
271.586274
30
0.0
10
115.706405
20
270.980242
30
0.0
10
115.944907
20
269.733677
30
0.0
10
115.991554
20
269.469302
30
0.0
10
115.842982
20
269.255528
30
0.0
10
115.696796
20
268.990559
30
0.0
10
115.839144
20
268.547599
30
0.0
10
115.981490
20
268.104639
30
0.0
10
115.835306
20
267.839670
30
0.0
10
115.684428
20
267.629628
30
0.0
10
115.725527
20
267.374226
30
0.0
10
115.995791
20
263.111598
30
0.0
10
116.235957
20
258.127136
30
0.0
10
116.571178
20
254.718710
30
0.0
10
116.894585
20
251.473154
30
0.0
10
117.163387
20
247.169265
30
0.0
10
117.296291
20
243.712043
30
0.0
10
119.037165
20
243.691526
30
0.0
10
126.140258
20
243.500179
30
0.0
10
145.775204
20
243.363468
30
0.0
10
183.713591
20
243.543763
30
0.0
10
228.445814
20
243.678987
30
0.0
10
232.255814
20
243.822880
30
0.0
10
247.010642
20
244.449978
30
0.0
10
251.292356
20
244.649513
30
0.0
10
253.152814
20
244.861252
30
0.0
10
255.942243
20
245.025687
30
0.0
10
262.457432
20
245.111487
30
0.0
10
269.773443
20
245.062127
30
0.0
10
271.219557
20
244.955912
30
0.0
10
271.630134
20
244.779447
30
0.0
10
271.678530
20
244.559110
30
0.0
10
271.864365
20
244.780012
30
0.0
10
272.152049
20
244.965316
30
0.0
10
272.543508
20
244.958916
30
0.0
10
272.888536
20
244.795453
30
0.0
10
273.036925
20
244.509572
30
0.0
10
273.202730
20
244.370771
30
0.0
10
273.601369
20
244.417675
30
0.0
10
274.008575
20
244.459554
30
0.0
10
274.165814
20
244.283210
30
0.0
10
274.269442
20
244.081610
30
0.0
10
274.518591
20
244.037299
30
0.0
10
275.524123
20
243.878547
30
0.0
10
276.543025
20
243.399620
30
0.0
10
278.312062
20
242.042121
30
0.0
10
279.528036
20
241.317568
30
0.0
10
282.297952
20
239.737670
30
0.0
10
283.997146
20
238.559806
30
0.0
10
284.153790
20
238.464562
30
0.0
10
284.397450
20
238.535281
30
0.0
10
285.368704
20
237.867403
30
0.0
10
287.308459
20
235.952894
30
0.0
10
289.913822
20
233.181612
30
0.0
10
289.913822
20
231.132854
30
0.0
10
289.801709
20
229.428315
30
0.0
10
289.507055
20
228.284224
30
0.0
10
288.929517
20
227.499435
30
0.0
10
288.016664
20
226.537199
30
0.0
10
287.100504
20
225.720443
30
0.0
10
286.513044
20
225.372092
30
0.0
10
286.362285
20
225.223855
30
0.0
10
286.297060
20
224.873795
30
0.0
10
286.241141
20
224.542014
30
0.0
10
285.996352
20
224.803239
30
0.0
10
285.790989
20
225.026895
30
0.0
10
285.861450
20
224.645499
30
0.0
10
286.167615
20
222.175615
30
0.0
10
286.158475
20
221.088635
30
0.0
10
286.016982
20
220.712352
30
0.0
10
285.819204
20
220.705344
30
0.0
10
285.736933
20
220.445451
30
0.0
10
285.649134
20
220.134708
30
0.0
10
285.438060
20
220.005461
30
0.0
10
285.278209
20
219.922558
30
0.0
10
285.313600
20
219.723239
30
0.0
10
285.348990
20
219.523920
30
0.0
10
285.189140
20
219.441017
30
0.0
10
284.978066
20
219.321556
30
0.0
10
284.890266
20
219.034340
30
0.0
10
284.794558
20
218.687971
30
0.0
10
284.564441
20
218.426290
30
0.0
10
284.373320
20
218.376422
30
0.0
10
284.444242
20
218.621300
30
0.0
10
284.471480
20
218.757454
30
0.0
10
284.248296
20
218.528180
30
0.0
10
283.910666
20
218.236450
30
0.0
10
283.662910
20
218.222441
30
0.0
10
283.533134
20
218.261089
30
0.0
10
283.479155
20
218.095960
30
0.0
10
283.306398
20
217.844966
30
0.0
10
282.894998
20
217.597390
30
0.0
10
281.997489
20
217.409545
30
0.0
10
281.847999
20
217.368262
30
0.0
10
281.785822
20
217.190487
30
0.0
10
281.555293
20
216.875105
30
0.0
10
280.994687
20
216.538352
30
0.0
10
280.300480
20
216.274299
30
0.0
10
279.669147
20
216.177018
30
0.0
10
279.209600
20
216.107136
30
0.0
10
278.897357
20
215.913239
30
0.0
10
278.744080
20
215.798269
30
0.0
10
278.685690
20
215.976810
30
0.0
10
278.516484
20
216.183364
30
0.0
10
277.928674
20
216.036426
30
0.0
10
277.306611
20
215.891702
30
0.0
10
276.980170
20
216.067076
30
0.0
10
276.783648
20
216.170608
30
0.0
10
276.585759
20
215.866348
30
0.0
10
276.475929
20
215.341858
30
0.0
10
276.141369
20
214.877591
30
0.0
10
275.780213
20
214.592245
30
0.0
10
275.506369
20
214.548407
30
0.0
10
275.356880
20
214.537296
30
0.0
10
275.294702
20
214.330636
30
0.0
10
275.242361
20
214.138674
30
0.0
10
275.116519
20
214.162905
30
0.0
10
274.817314
20
214.167326
30
0.0
10
274.348166
20
213.927718
30
0.0
10
273.256273
20
213.514265
30
0.0
10
272.901985
20
213.426470
30
0.0
10
272.754626
20
213.215387
30
0.0
10
272.680410
20
213.050172
30
0.0
10
272.501975
20
213.072655
30
0.0
10
272.240311
20
213.062800
30
0.0
10
272.080746
20
212.753979
30
0.0
10
272.056519
20
212.286572
30
0.0
10
272.200870
20
211.800962
30
0.0
10
272.471044
20
210.993746
30
0.0
10
272.610684
20
209.934611
30
0.0
10
272.608170
20
208.808698
30
0.0
10
272.451884
20
207.801151
30
0.0
10
272.107574
20
207.061182
30
0.0
10
271.546784
20
206.454803
30
0.0
10
270.847455
20
206.044877
30
0.0
10
270.087530
20
205.894265
30
0.0
10
269.778653
20
205.797545
30
0.0
10
269.650182
20
205.565005
30
0.0
10
269.595632
20
205.387016
30
0.0
10
269.464482
20
205.421447
30
0.0
10
269.210080
20
205.450307
30
0.0
10
268.859203
20
205.258927
30
0.0
10
267.945759
20
205.035840
30
0.0
10
265.093287
20
204.927558
30
0.0
10
248.765737
20
204.991431
30
0.0
10
238.605737
20
205.027759
30
0.0
10
236.912404
20
204.885417
30
0.0
10
234.090182
20
204.658956
30
0.0
10
226.392267
20
203.939847
30
0.0
10
218.991293
20
203.480848
30
0.0
10
213.911293
20
203.222866
30
0.0
10
206.212499
20
202.886570
30
0.0
10
196.836848
20
202.658588
30
0.0
10
185.406848
20
202.359765
30
0.0
10
177.363515
20
202.067374
30
0.0
10
170.166848
20
201.797308
30
0.0
10
161.841293
20
201.496143
30
0.0
10
157.483646
20
201.297592
30
0.0
10
155.527457
20
201.083514
30
0.0
10
155.239427
20
200.968351
30
0.0
10
154.892457
20
201.007624
30
0.0
10
154.617767
20
201.041987
30
0.0
10
154.503515
20
200.915016
30
0.0
10
153.985373
20
200.735887
30
0.0
10
152.739626
20
200.644853
30
0.0
10
148.717960
20
200.462941
30
0.0
10
130.302960
20
200.100015
30
0.0
10
114.145737
20
199.890696
30
0.0
10
114.131400
20
199.011924
30
0.0
10
114.004985
20
197.004265
30
0.0
10
113.444483
20
189.948710
30
0.0
10
113.154186
20
186.279821
30
0.0
10
112.874256
20
182.893154
30
0.0
10
112.306331
20
175.978710
30
0.0
10
111.862802
20
169.571803
30
0.0
10
111.564220
20
165.773927
30
0.0
10
111.345043
20
164.252707
30
0.0
10
111.213839
20
163.730367
30
0.0
10
111.126770
20
162.334059
30
0.0
10
110.616489
20
154.670932
30
0.0
10
110.300522
20
150.515043
30
0.0
10
110.120942
20
148.608117
30
0.0
10
109.944871
20
147.877753
30
0.0
10
109.831460
20
147.401925
30
0.0
10
109.802529
20
146.106975
30
0.0
10
109.591698
20
141.124265
30
0.0
10
109.215905
20
135.479821
30
0.0
10
108.940326
20
130.682043
30
0.0
10
108.639455
20
125.602043
30
0.0
10
108.357752
20
121.368710
30
0.0
10
107.793889
20
111.914265
30
0.0
10
107.515067
20
106.410932
30
0.0
10
107.235498
20
100.202043
30
0.0
10
106.947358
20
94.134265
30
0.0
10
106.680294
20
88.772043
30
0.0
10
106.269977
20
80.378601
30
0.0
10
105.997815
20
78.047223
30
0.0
10
105.799461
20
76.424446
30
0.0
10
105.593992
20
73.108710
30
0.0
10
105.226314
20
68.241825
30
0.0
10
104.846984
20
60.354426
30
0.0
10
104.084823
20
36.285568
30
0.0
10
103.870450
20
32.008883
30
0.0
10
103.539253
20
29.088901
30
0.0
10
102.539181
20
25.349061
30
0.0
10
102.012564
20
23.895726
30
0.0
10
101.601377
20
23.129581
30
0.0
10
100.762681
20
21.148156
30
0.0
10
99.731277
20
18.357596
30
0.0
10
99.176453
20
16.946485
30
0.0
10
98.916112
20
16.523152
30
0.0
10
97.629955
20
14.335929
30
0.0
10
96.791478
20
12.890863
30
0.0
10
96.275598
20
12.289818
30
0.0
10
96.121864
20
12.241459
30
0.0
10
96.154076
20
12.125198
30
0.0
10
96.111448
20
11.850017
30
0.0
10
95.777781
20
11.419642
30
0.0
10
95.395751
20
10.908355
30
0.0
10
95.236854
20
10.438723
30
0.0
10
95.163573
20
10.173264
30
0.0
10
94.987387
20
10.152916
30
0.0
10
94.703438
20
9.993415
30
0.0
10
94.371073
20
9.393456
30
0.0
10
93.919970
20
8.550360
30
0.0
10
93.350543
20
7.806323
30
0.0
10
92.888875
20
7.212739
30
0.0
10
92.696854
20
6.731339
30
0.0
10
92.613951
20
6.499024
30
0.0
10
92.414632
20
6.504263
30
0.0
10
92.214846
20
6.518928
30
0.0
10
92.130824
20
6.309247
30
0.0
10
91.639784
20
5.497064
30
0.0
10
90.470557
20
4.233330
30
0.0
10
89.073265
20
2.962563
30
0.0
10
87.898029
20
2.129282
30
0.0
10
86.872006
20
1.755907
30
0.0
10
85.717480
20
1.605830
30
0.0
10
84.469821
20
1.680162
30
0.0
10
83.164398
20
1.980015
30
0.0
10
83.164389
20
1.980015
30
0.0
  0
ENDSEC
  0
SECTION
  2
OBJECTS
  0
DICTIONARY
  5
C
330
0
100
AcDbDictionary
  3
ACAD_GROUP
350
D
  3
ACAD_MLINESTYLE
350
17
  0
DICTIONARY
  5
D
330
C
100
AcDbDictionary
  0
DICTIONARY
  5
1A
330
C
100
AcDbDictionary
  0
DICTIONARY
  5
17
330
C
100
AcDbDictionary
  3
STANDARD
350
18
  0
DICTIONARY
  5
19
330
C
100
AcDbDictionary
  0
ENDSEC
  0
EOF
