999
Inkscape export via OpenSCAD DXF Export
  0
SECTION
  2
HEADER
  9
$ACADVER
  1
AC1014
  9
$HANDSEED
  5
FFFF
  9
$MEASUREMENT
 70
     1
  0
ENDSEC
  0
SECTION
  2
TABLES
  0
TABLE
  2
VPORT
  5
8
330
0
100
AcDbSymbolTable
 70
     4
  0
VPORT
  5
2E
330
8
100
AcDbSymbolTableRecord
100
AcDbViewportTableRecord
  2
*ACTIVE
 70
     0
 10
0.0
 20
0.0
 11
1.0
 21
1.0
 12
210.0
 22
148.5
 13
0.0
 23
0.0
 14
10.0
 24
10.0
 15
10.0
 25
10.0
 16
0.0
 26
0.0
 36
1.0
 17
0.0
 27
0.0
 37
0.0
 40
341.0
 41
1.24
 42
50.0
 43
0.0
 44
0.0
 50
0.0
 51
0.0
 71
     0
 72
   100
 73
     1
 74
     3
 75
     0
 76
     0
 77
     0
 78
     0
  0
ENDTAB
  0
TABLE
  2
LTYPE
  5
5
330
0
100
AcDbSymbolTable
 70
     1
  0
LTYPE
  5
14
330
5
100
AcDbSymbolTableRecord
100
AcDbLinetypeTableRecord
  2
BYBLOCK
 70
     0
  3

 72
    65
 73
     0
 40
0.0
  0
LTYPE
  5
15
330
5
100
AcDbSymbolTableRecord
100
AcDbLinetypeTableRecord
  2
BYLAYER
 70
     0
  3

 72
    65
 73
     0
 40
0.0
  0
LTYPE
  5
16
330
5
100
AcDbSymbolTableRecord
100
AcDbLinetypeTableRecord
  2
CONTINUOUS
 70
     0
  3
Solid line
 72
    65
 73
     0
 40
0.0
  0
ENDTAB
  0
TABLE
0
TABLE
2
LAYER
5
2
330
0
100
AcDbSymbolTable
70
1
0
LAYER
5
10
330
2
100
AcDbSymbolTableRecord
100
AcDbLayerTableRecord
2
Layer_1
70
0
62
7
6
CONTINUOUS
0
ENDTAB
0
ENDSEC
  0
ENDTAB
  0
TABLE
  2
STYLE
  5
3
330
0
100
AcDbSymbolTable
 70
     1
  0
STYLE
  5
11
330
3
100
AcDbSymbolTableRecord
100
AcDbTextStyleTableRecord
  2
STANDARD
 70
     0
 40
0.0
 41
1.0
 50
0.0
 71
     0
 42
2.5
  3
txt
  4

  0
ENDTAB
  0
TABLE
  2
VIEW
  5
6
330
0
100
AcDbSymbolTable
 70
     0
  0
ENDTAB
  0
TABLE
  2
UCS
  5
7
330
0
100
AcDbSymbolTable
 70
     0
  0
ENDTAB
  0
TABLE
  2
APPID
  5
9
330
0
100
AcDbSymbolTable
 70
     2
  0
APPID
  5
12
330
9
100
AcDbSymbolTableRecord
100
AcDbRegAppTableRecord
  2
ACAD
 70
     0
  0
ENDTAB
  0
TABLE
  2
DIMSTYLE
  5
A
330
0
100
AcDbSymbolTable
 70
     1
  0
DIMSTYLE
105
27
330
A
100
AcDbSymbolTableRecord
100
AcDbDimStyleTableRecord
  2
ISO-25
 70
     0
  3

  4

  5

  6

  7

 40
1.0
 41
2.5
 42
0.625
 43
3.75
 44
1.25
 45
0.0
 46
0.0
 47
0.0
 48
0.0
140
2.5
141
2.5
142
0.0
143
0.03937007874016
144
1.0
145
0.0
146
1.0
147
0.625
 71
     0
 72
     0
 73
     0
 74
     0
 75
     0
 76
     0
 77
     1
 78
     8
170
     0
171
     3
172
     1
173
     0
174
     0
175
     0
176
     0
177
     0
178
     0
270
     2
271
     2
272
     2
273
     2
274
     3
340
11
275
     0
280
     0
281
     0
282
     0
283
     0
284
     8
285
     0
286
     0
287
     3
288
     0
  0
ENDTAB
  0
TABLE
  2
BLOCK_RECORD
  5
1
330
0
100
AcDbSymbolTable
 70
     1
  0
BLOCK_RECORD
  5
1F
330
1
100
AcDbSymbolTableRecord
100
AcDbBlockTableRecord
  2
*MODEL_SPACE
  0
BLOCK_RECORD
  5
1B
330
1
100
AcDbSymbolTableRecord
100
AcDbBlockTableRecord
  2
*PAPER_SPACE
  0
ENDTAB
  0
ENDSEC
  0
SECTION
  2
BLOCKS
  0
BLOCK
  5
20
330
1F
100
AcDbEntity
  8
0
100
AcDbBlockBegin
  2
*MODEL_SPACE
 70
     0
 10
0.0
 20
0.0
 30
0.0
  3
*MODEL_SPACE
  1

  0
ENDBLK
  5
21
330
1F
100
AcDbEntity
  8
0
100
AcDbBlockEnd
  0
BLOCK
  5
1C
330
1B
100
AcDbEntity
 67
     1
  8
0
100
AcDbBlockBegin
  2
*PAPER_SPACE
  1

  0
ENDBLK
  5
1D
330
1B
100
AcDbEntity
 67
     1
  8
0
100
AcDbBlockEnd
  0
ENDSEC
  0
SECTION
  2
ENTITIES
0
DIMENSION
5
83
100
AcDbEntity
62
256
370
-1
6
ByLayer
1
total_width
3
Standard
70
0
71
5
72
1
41
1.0
100
AcDbAlignedDimension
13
1.135086
23
0.000000
33
0.0
14
291.196974
24
0.000000
34
0.0
50
0.000000
100
AcDbRotatedDimension
0
DIMENSION
5
83
100
AcDbEntity
62
256
370
-1
6
ByLayer
1
total_height
3
Standard
70
0
71
5
72
1
41
1.0
100
AcDbAlignedDimension
13
0.000000
23
-0.960473
33
0.0
14
0.000000
24
285.736846
34
0.0
50
90.000000
100
AcDbRotatedDimension
0
DIMENSION
8
Layer_1
5
83
100
AcDbEntity
62
256
370
-1
6
ByLayer
1
Layer_1_width
3
Standard
70
0
71
5
72
1
41
1.0
100
AcDbAlignedDimension
13
1.135086
23
0.000000
33
0.0
14
291.196974
24
0.000000
34
0.0
50
0.000000
100
AcDbRotatedDimension
0
DIMENSION
8
Layer_1
5
83
100
AcDbEntity
62
256
370
-1
6
ByLayer
1
Layer_1_height
3
Standard
70
0
71
5
72
1
41
1.0
100
AcDbAlignedDimension
13
0.000000
23
-0.960473
33
0.0
14
0.000000
24
285.736846
34
0.0
50
90.000000
100
AcDbRotatedDimension
0
LWPOLYLINE
100
AcDbPolyline
8
Layer_1
90
457
70
0
10
84.447544
20
-0.586288
30
0.0
10
82.588346
20
0.217988
30
0.0
10
81.765548
20
1.216059
30
0.0
10
80.786436
20
2.925360
30
0.0
10
80.008237
20
4.648209
30
0.0
10
79.788176
20
5.686919
30
0.0
10
79.837670
20
5.974983
30
0.0
10
79.664797
20
5.961803
30
0.0
10
79.545195
20
5.939760
30
0.0
10
79.499993
20
6.072565
30
0.0
10
79.631647
20
6.832741
30
0.0
10
80.044809
20
10.357894
30
0.0
10
80.191110
20
12.826718
30
0.0
10
79.394998
20
13.129881
30
0.0
10
78.459684
20
13.327317
30
0.0
10
77.328889
20
13.376289
30
0.0
10
76.166296
20
13.345769
30
0.0
10
75.583438
20
13.511117
30
0.0
10
75.378100
20
14.054052
30
0.0
10
75.348067
20
15.156293
30
0.0
10
75.302130
20
17.343515
30
0.0
10
75.458182
20
18.613515
30
0.0
10
75.491428
20
19.365838
30
0.0
10
75.049953
20
19.832518
30
0.0
10
74.576346
20
20.044378
30
0.0
10
74.277768
20
20.030920
30
0.0
10
74.016413
20
17.118584
30
0.0
10
73.782712
20
13.573375
30
0.0
10
73.599843
20
12.825075
30
0.0
10
73.363517
20
12.695654
30
0.0
10
73.174269
20
12.723213
30
0.0
10
73.095556
20
12.556885
30
0.0
10
73.011623
20
12.404390
30
0.0
10
72.730625
20
12.358299
30
0.0
10
71.402222
20
12.588635
30
0.0
10
70.830624
20
13.014451
30
0.0
10
70.236497
20
13.962525
30
0.0
10
69.678795
20
15.315099
30
0.0
10
69.216476
20
16.954415
30
0.0
10
68.918741
20
18.788087
30
0.0
10
68.864923
20
21.122242
30
0.0
10
69.565314
20
30.184623
30
0.0
10
70.041403
20
34.841399
30
0.0
10
70.447160
20
37.381290
30
0.0
10
70.686332
20
58.124623
30
0.0
10
70.921886
20
81.972401
30
0.0
10
71.270605
20
90.862401
30
0.0
10
71.550163
20
98.482401
30
0.0
10
71.818356
20
114.004623
30
0.0
10
72.071885
20
131.560949
30
0.0
10
72.379654
20
143.884934
30
0.0
10
72.790374
20
152.388518
30
0.0
10
73.352750
20
158.483641
30
0.0
10
73.769121
20
162.687957
30
0.0
10
76.036142
20
183.572401
30
0.0
10
76.923010
20
192.951286
30
0.0
10
77.190922
20
196.993421
30
0.0
10
77.199933
20
198.753208
30
0.0
10
72.742187
20
198.844741
30
0.0
10
62.284616
20
198.804821
30
0.0
10
45.478097
20
198.708200
30
0.0
10
33.179785
20
198.778636
30
0.0
10
24.484124
20
199.030010
30
0.0
10
18.485556
20
199.476205
30
0.0
10
13.077334
20
200.174355
30
0.0
10
9.091855
20
200.951740
30
0.0
10
6.118968
20
201.910708
30
0.0
10
3.748526
20
203.153605
30
0.0
10
2.608226
20
204.021617
30
0.0
10
1.786859
20
204.948919
30
0.0
10
1.292965
20
205.923164
30
0.0
10
1.135086
20
206.932002
30
0.0
10
1.526726
20
208.254538
30
0.0
10
2.470547
20
209.808072
30
0.0
10
3.660545
20
211.173944
30
0.0
10
4.790717
20
211.933494
30
0.0
10
5.166315
20
212.113456
30
0.0
10
5.327882
20
212.411782
30
0.0
10
5.071257
20
213.772042
30
0.0
10
4.918544
20
214.954542
30
0.0
10
5.159950
20
216.134871
30
0.0
10
5.796258
20
217.315138
30
0.0
10
6.828254
20
218.497455
30
0.0
10
7.878355
20
219.427126
30
0.0
10
8.447433
20
219.779890
30
0.0
10
9.293312
20
220.381091
30
0.0
10
9.912663
20
221.040359
30
0.0
10
8.906970
20
221.661914
30
0.0
10
8.167907
20
222.253777
30
0.0
10
7.767432
20
223.006868
30
0.0
10
7.655202
20
224.102740
30
0.0
10
7.780872
20
225.722945
30
0.0
10
8.030382
20
229.221902
30
0.0
10
8.043336
20
230.703628
30
0.0
10
9.031114
20
230.736069
30
0.0
10
10.503352
20
230.719870
30
0.0
10
10.893724
20
230.858263
30
0.0
10
11.120247
20
231.322369
30
0.0
10
11.499658
20
234.179730
30
0.0
10
11.695207
20
237.265179
30
0.0
10
11.712222
20
238.887957
30
0.0
10
13.687778
20
238.916038
30
0.0
10
16.792222
20
239.031379
30
0.0
10
21.025556
20
239.291560
30
0.0
10
26.499161
20
239.669322
30
0.0
10
29.003278
20
240.065693
30
0.0
10
31.231513
20
240.346111
30
0.0
10
36.800460
20
241.044558
30
0.0
10
39.577889
20
241.445798
30
0.0
10
43.013877
20
241.659609
30
0.0
10
60.395556
20
241.797151
30
0.0
10
79.727778
20
241.851290
30
0.0
10
80.187332
20
247.072401
30
0.0
10
80.941375
20
254.413665
30
0.0
10
81.828645
20
260.935826
30
0.0
10
82.813259
20
266.408941
30
0.0
10
83.859333
20
270.603066
30
0.0
10
84.519944
20
272.319547
30
0.0
10
85.445973
20
274.268373
30
0.0
10
86.354872
20
275.898453
30
0.0
10
86.964094
20
276.658697
30
0.0
10
87.135411
20
276.894903
30
0.0
10
87.206667
20
277.330699
30
0.0
10
87.573234
20
278.623753
30
0.0
10
88.436014
20
280.699145
30
0.0
10
89.439622
20
282.767796
30
0.0
10
90.228674
20
284.040629
30
0.0
10
90.875556
20
284.930242
30
0.0
10
91.167977
20
285.197338
30
0.0
10
91.904121
20
285.458934
30
0.0
10
93.860843
20
285.736846
30
0.0
10
94.846190
20
285.616828
30
0.0
10
95.491904
20
285.313512
30
0.0
10
96.109897
20
284.890179
30
0.0
10
96.607687
20
284.546264
30
0.0
10
97.360052
20
283.610249
30
0.0
10
99.218420
20
280.536300
30
0.0
10
100.472339
20
277.975735
30
0.0
10
100.966016
20
276.141290
30
0.0
10
102.303196
20
271.668935
30
0.0
10
102.860723
20
268.953180
30
0.0
10
103.073231
20
267.884205
30
0.0
10
103.391506
20
267.165669
30
0.0
10
103.731554
20
266.920529
30
0.0
10
104.009379
20
267.271740
30
0.0
10
104.748596
20
268.754692
30
0.0
10
105.262478
20
269.295277
30
0.0
10
105.881427
20
269.713524
30
0.0
10
106.371545
20
270.021147
30
0.0
10
106.687386
20
270.368593
30
0.0
10
107.028282
20
271.555676
30
0.0
10
107.447747
20
274.009185
30
0.0
10
107.903425
20
275.486946
30
0.0
10
108.413955
20
276.579972
30
0.0
10
109.039504
20
277.344274
30
0.0
10
109.808524
20
277.804844
30
0.0
10
110.749472
20
277.986675
30
0.0
10
112.183333
20
277.847170
30
0.0
10
113.813036
20
277.285991
30
0.0
10
116.041845
20
276.949737
30
0.0
10
117.360356
20
276.884766
30
0.0
10
117.269534
20
273.902472
30
0.0
10
117.117046
20
270.779068
30
0.0
10
117.115635
20
270.355735
30
0.0
10
117.293245
20
269.336042
30
0.0
10
117.261556
20
269.186195
30
0.0
10
117.151664
20
269.208693
30
0.0
10
117.014839
20
269.019965
30
0.0
10
116.989557
20
268.413933
30
0.0
10
117.228058
20
267.167368
30
0.0
10
117.274705
20
266.902993
30
0.0
10
117.126134
20
266.689219
30
0.0
10
116.979948
20
266.424250
30
0.0
10
117.122296
20
265.981290
30
0.0
10
117.264641
20
265.538330
30
0.0
10
117.118457
20
265.273361
30
0.0
10
116.967579
20
265.063319
30
0.0
10
117.008679
20
264.807917
30
0.0
10
117.278943
20
260.545289
30
0.0
10
117.519109
20
255.560827
30
0.0
10
117.854329
20
252.152401
30
0.0
10
118.177736
20
248.906846
30
0.0
10
118.446539
20
244.602957
30
0.0
10
118.579443
20
241.145735
30
0.0
10
120.320316
20
241.125217
30
0.0
10
127.423410
20
240.933870
30
0.0
10
147.058356
20
240.797160
30
0.0
10
184.996743
20
240.977454
30
0.0
10
229.728965
20
241.112678
30
0.0
10
233.538965
20
241.256572
30
0.0
10
248.293794
20
241.883669
30
0.0
10
252.575507
20
242.083204
30
0.0
10
254.435966
20
242.294943
30
0.0
10
257.225394
20
242.459378
30
0.0
10
263.740584
20
242.545179
30
0.0
10
271.056595
20
242.495819
30
0.0
10
272.502708
20
242.389603
30
0.0
10
272.913286
20
242.213138
30
0.0
10
272.961681
20
241.992802
30
0.0
10
273.147516
20
242.213703
30
0.0
10
273.435200
20
242.399008
30
0.0
10
273.826660
20
242.392607
30
0.0
10
274.171688
20
242.229145
30
0.0
10
274.320076
20
241.943263
30
0.0
10
274.485882
20
241.804462
30
0.0
10
274.884521
20
241.851366
30
0.0
10
275.291727
20
241.893245
30
0.0
10
275.448965
20
241.716901
30
0.0
10
275.552594
20
241.512552
30
0.0
10
275.801743
20
241.461634
30
0.0
10
276.957161
20
241.295642
30
0.0
10
277.389768
20
241.146100
30
0.0
10
277.609631
20
240.947946
30
0.0
10
277.592533
20
240.050224
30
0.0
10
277.377858
20
238.723404
30
0.0
10
277.314997
20
238.517027
30
0.0
10
276.973512
20
238.396523
30
0.0
10
274.037854
20
238.184566
30
0.0
10
268.816743
20
237.627397
30
0.0
10
266.589552
20
237.378265
30
0.0
10
264.801624
20
237.337165
30
0.0
10
263.716873
20
237.343265
30
0.0
10
263.180299
20
237.207648
30
0.0
10
262.724280
20
237.061494
30
0.0
10
261.833196
20
237.042297
30
0.0
10
260.368567
20
236.964161
30
0.0
10
255.853012
20
236.717431
30
0.0
10
243.416743
20
236.201774
30
0.0
10
224.084521
20
235.343333
30
0.0
10
218.016743
20
235.076884
30
0.0
10
208.138965
20
234.804768
30
0.0
10
198.919764
20
234.483213
30
0.0
10
198.428851
20
234.284828
30
0.0
10
198.049522
20
233.969948
30
0.0
10
197.889968
20
233.663345
30
0.0
10
198.058377
20
233.489794
30
0.0
10
200.601328
20
233.347730
30
0.0
10
207.151187
20
233.532513
30
0.0
10
217.311187
20
233.938784
30
0.0
10
231.563410
20
234.512592
30
0.0
10
237.772298
20
234.893666
30
0.0
10
246.060115
20
235.188608
30
0.0
10
251.986782
20
235.331881
30
0.0
10
257.668965
20
235.648884
30
0.0
10
263.877854
20
235.919329
30
0.0
10
267.828965
20
236.182586
30
0.0
10
272.689656
20
236.542815
30
0.0
10
274.266324
20
236.883710
30
0.0
10
275.452927
20
237.142734
30
0.0
10
278.121605
20
237.226045
30
0.0
10
280.581498
20
237.510038
30
0.0
10
282.394583
20
237.652720
30
0.0
10
283.024340
20
237.452175
30
0.0
10
283.827051
20
237.015954
30
0.0
10
285.280298
20
236.003959
30
0.0
10
285.436941
20
235.901327
30
0.0
10
285.680602
20
235.968963
30
0.0
10
286.651855
20
235.301086
30
0.0
10
288.591611
20
233.386576
30
0.0
10
291.196974
20
230.615295
30
0.0
10
291.196974
20
228.566537
30
0.0
10
291.084861
20
226.861998
30
0.0
10
290.790207
20
225.717907
30
0.0
10
290.212668
20
224.933117
30
0.0
10
289.299816
20
223.970882
30
0.0
10
288.383656
20
223.154126
30
0.0
10
287.796196
20
222.805775
30
0.0
10
287.645436
20
222.657538
30
0.0
10
287.580211
20
222.307477
30
0.0
10
287.524292
20
221.975697
30
0.0
10
287.279503
20
222.236922
30
0.0
10
287.074141
20
222.460578
30
0.0
10
287.144601
20
222.079182
30
0.0
10
287.450766
20
219.609298
30
0.0
10
287.441626
20
218.522318
30
0.0
10
287.300134
20
218.146035
30
0.0
10
287.102356
20
218.139027
30
0.0
10
287.020085
20
217.879134
30
0.0
10
286.932285
20
217.568391
30
0.0
10
286.721211
20
217.439144
30
0.0
10
286.561361
20
217.356241
30
0.0
10
286.596751
20
217.156922
30
0.0
10
286.632142
20
216.957602
30
0.0
10
286.472291
20
216.874700
30
0.0
10
286.261217
20
216.755238
30
0.0
10
286.173418
20
216.468023
30
0.0
10
286.077709
20
216.121654
30
0.0
10
285.847592
20
215.859972
30
0.0
10
285.656472
20
215.810104
30
0.0
10
285.727394
20
216.054982
30
0.0
10
285.754632
20
216.191137
30
0.0
10
285.531447
20
215.961863
30
0.0
10
285.193818
20
215.670132
30
0.0
10
284.946062
20
215.656123
30
0.0
10
284.816285
20
215.694772
30
0.0
10
284.762307
20
215.529643
30
0.0
10
284.589550
20
215.278649
30
0.0
10
284.178149
20
215.031073
30
0.0
10
283.280640
20
214.843227
30
0.0
10
283.131151
20
214.801945
30
0.0
10
283.068974
20
214.624169
30
0.0
10
282.838444
20
214.308788
30
0.0
10
282.277839
20
213.972035
30
0.0
10
281.583632
20
213.707982
30
0.0
10
280.952298
20
213.610701
30
0.0
10
280.492752
20
213.540819
30
0.0
10
280.180508
20
213.346922
30
0.0
10
280.027232
20
213.231952
30
0.0
10
279.968841
20
213.410492
30
0.0
10
279.799636
20
213.617047
30
0.0
10
279.211826
20
213.470109
30
0.0
10
278.589763
20
213.325385
30
0.0
10
278.263322
20
213.500758
30
0.0
10
278.066800
20
213.604291
30
0.0
10
277.868911
20
213.300031
30
0.0
10
277.759081
20
212.775540
30
0.0
10
277.424521
20
212.311274
30
0.0
10
277.063364
20
212.025928
30
0.0
10
276.789521
20
211.982090
30
0.0
10
276.640031
20
211.970979
30
0.0
10
276.577854
20
211.764318
30
0.0
10
276.525513
20
211.572357
30
0.0
10
276.399670
20
211.596588
30
0.0
10
276.100465
20
211.601009
30
0.0
10
275.631317
20
211.361401
30
0.0
10
274.539425
20
210.947957
30
0.0
10
274.185137
20
210.860161
30
0.0
10
274.037778
20
210.649078
30
0.0
10
273.954875
20
210.489232
30
0.0
10
273.755556
20
210.524623
30
0.0
10
273.556236
20
210.555122
30
0.0
10
273.473333
20
210.383512
30
0.0
10
273.390554
20
210.211827
30
0.0
10
273.191534
20
210.242139
30
0.0
10
273.009683
20
210.183562
30
0.0
10
272.979868
20
209.770957
30
0.0
10
272.971773
20
209.334293
30
0.0
10
272.443606
20
209.098020
30
0.0
10
267.546667
20
208.832947
30
0.0
10
260.491111
20
208.545851
30
0.0
10
252.588889
20
208.274198
30
0.0
10
245.807189
20
207.985761
30
0.0
10
242.527257
20
207.587424
30
0.0
10
242.025869
20
207.374567
30
0.0
10
242.993333
20
207.206830
30
0.0
10
256.138398
20
207.178101
30
0.0
10
271.544059
20
207.411966
30
0.0
10
273.413182
20
207.404559
30
0.0
10
273.725967
20
207.228883
30
0.0
10
273.864378
20
206.883909
30
0.0
10
273.913637
20
205.994542
30
0.0
10
273.685177
20
205.077954
30
0.0
10
273.237109
20
204.281302
30
0.0
10
272.627542
20
203.751742
30
0.0
10
271.370682
20
203.327957
30
0.0
10
271.061805
20
203.231237
30
0.0
10
270.933333
20
202.998697
30
0.0
10
270.878784
20
202.820707
30
0.0
10
270.747634
20
202.855139
30
0.0
10
270.493231
20
202.883998
30
0.0
10
270.142355
20
202.692618
30
0.0
10
269.228911
20
202.469532
30
0.0
10
266.376439
20
202.361250
30
0.0
10
250.048889
20
202.425122
30
0.0
10
239.888889
20
202.461450
30
0.0
10
238.195556
20
202.319108
30
0.0
10
235.373333
20
202.092647
30
0.0
10
227.675418
20
201.373538
30
0.0
10
220.274444
20
200.914539
30
0.0
10
215.194444
20
200.656557
30
0.0
10
207.495651
20
200.320261
30
0.0
10
198.120000
20
200.092279
30
0.0
10
186.690000
20
199.793456
30
0.0
10
178.646667
20
199.501066
30
0.0
10
171.450000
20
199.230999
30
0.0
10
163.124444
20
198.929834
30
0.0
10
158.766798
20
198.731283
30
0.0
10
156.810608
20
198.517205
30
0.0
10
156.522579
20
198.402042
30
0.0
10
156.175608
20
198.441316
30
0.0
10
155.900919
20
198.475679
30
0.0
10
155.786667
20
198.348707
30
0.0
10
155.268524
20
198.169578
30
0.0
10
154.022778
20
198.078544
30
0.0
10
150.001111
20
197.896632
30
0.0
10
131.586111
20
197.533706
30
0.0
10
115.428889
20
197.324387
30
0.0
10
115.414552
20
196.445615
30
0.0
10
115.288136
20
194.437957
30
0.0
10
114.727634
20
187.382401
30
0.0
10
114.437338
20
183.713512
30
0.0
10
114.157407
20
180.326846
30
0.0
10
113.589483
20
173.412401
30
0.0
10
113.145954
20
167.005494
30
0.0
10
112.847372
20
163.207619
30
0.0
10
112.628195
20
161.686398
30
0.0
10
112.496991
20
161.164059
30
0.0
10
112.409921
20
159.767750
30
0.0
10
111.910789
20
152.104623
30
0.0
10
111.491672
20
147.306846
30
0.0
10
111.054696
20
140.956846
30
0.0
10
110.763002
20
136.845350
30
0.0
10
110.488620
20
133.035350
30
0.0
10
110.223478
20
128.115735
30
0.0
10
109.922606
20
123.035735
30
0.0
10
109.640903
20
118.802401
30
0.0
10
109.077040
20
109.347957
30
0.0
10
108.798219
20
103.844623
30
0.0
10
108.518650
20
97.635735
30
0.0
10
108.230509
20
91.567957
30
0.0
10
107.963445
20
86.205735
30
0.0
10
107.553129
20
77.812292
30
0.0
10
107.280967
20
75.480915
30
0.0
10
107.082613
20
73.858137
30
0.0
10
106.877144
20
70.542401
30
0.0
10
106.509466
20
65.675517
30
0.0
10
106.130136
20
57.788117
30
0.0
10
105.367974
20
33.719259
30
0.0
10
105.153601
20
29.442574
30
0.0
10
104.822405
20
26.522593
30
0.0
10
103.822333
20
22.782752
30
0.0
10
103.295716
20
21.329419
30
0.0
10
102.884529
20
20.563276
30
0.0
10
102.045832
20
18.581850
30
0.0
10
101.014428
20
15.791293
30
0.0
10
100.459605
20
14.380182
30
0.0
10
100.199263
20
13.956848
30
0.0
10
98.913106
20
11.769626
30
0.0
10
98.074630
20
10.324560
30
0.0
10
97.558750
20
9.723515
30
0.0
10
97.405015
20
9.675156
30
0.0
10
97.437228
20
9.558895
30
0.0
10
97.394600
20
9.283714
30
0.0
10
97.060933
20
8.853339
30
0.0
10
96.678903
20
8.342051
30
0.0
10
96.520006
20
7.872420
30
0.0
10
96.446725
20
7.606961
30
0.0
10
96.270538
20
7.586613
30
0.0
10
95.986589
20
7.427112
30
0.0
10
95.654224
20
6.827153
30
0.0
10
95.203121
20
5.984057
30
0.0
10
94.633694
20
5.240020
30
0.0
10
94.172027
20
4.646436
30
0.0
10
93.980006
20
4.165036
30
0.0
10
93.897103
20
3.932721
30
0.0
10
93.697783
20
3.937960
30
0.0
10
93.497998
20
3.952625
30
0.0
10
93.413975
20
3.742944
30
0.0
10
92.922936
20
2.930761
30
0.0
10
91.753709
20
1.667027
30
0.0
10
90.356417
20
0.396260
30
0.0
10
89.181181
20
-0.437021
30
0.0
10
88.155157
20
-0.810396
30
0.0
10
87.000632
20
-0.960473
30
0.0
10
85.752973
20
-0.886141
30
0.0
10
84.447549
20
-0.586288
30
0.0
10
84.447544
20
-0.586288
30
0.0
0
LWPOLYLINE
100
AcDbPolyline
8
Layer_1
90
65
70
0
10
105.958705
20
68.778512
30
0.0
10
106.420751
20
74.070179
30
0.0
10
106.841256
20
79.855735
30
0.0
10
107.111924
20
85.782401
30
0.0
10
107.405427
20
91.850179
30
0.0
10
107.931136
20
101.586846
30
0.0
10
108.225347
20
107.090179
30
0.0
10
108.658747
20
115.980179
30
0.0
10
109.108423
20
124.870179
30
0.0
10
109.936565
20
136.723512
30
0.0
10
110.409787
20
143.067573
30
0.0
10
110.624518
20
144.435729
30
0.0
10
110.874593
20
145.044205
30
0.0
10
111.195251
20
145.464411
30
0.0
10
110.843560
20
145.221966
30
0.0
10
110.576330
20
145.056021
30
0.0
10
110.450743
20
145.165333
30
0.0
10
110.529534
20
146.637939
30
0.0
10
110.748252
20
148.027175
30
0.0
10
111.022638
20
148.842688
30
0.0
10
111.193274
20
149.117246
30
0.0
10
110.973317
20
149.031164
30
0.0
10
110.802606
20
148.999602
30
0.0
10
110.714362
20
149.194865
30
0.0
10
110.755915
20
150.458655
30
0.0
10
111.213175
20
156.196846
30
0.0
10
111.796031
20
163.111290
30
0.0
10
112.125458
20
167.344623
30
0.0
10
112.241319
20
168.457658
30
0.0
10
112.438606
20
169.152118
30
0.0
10
112.549848
20
169.410914
30
0.0
10
112.297495
20
169.322380
30
0.0
10
112.055756
20
169.219643
30
0.0
10
112.211976
20
169.434417
30
0.0
10
112.392718
20
169.876229
30
0.0
10
112.390741
20
170.463599
30
0.0
10
112.093852
20
170.991857
30
0.0
10
111.587684
20
171.181111
30
0.0
10
111.049927
20
171.025616
30
0.0
10
110.658272
20
170.519623
30
0.0
10
110.138277
20
167.607758
30
0.0
10
109.666806
20
163.252401
30
0.0
10
109.508208
20
161.700179
30
0.0
10
109.352379
20
160.006846
30
0.0
10
108.830988
20
153.797957
30
0.0
10
108.520473
20
149.705735
30
0.0
10
108.203334
20
145.754623
30
0.0
10
107.949373
20
142.509068
30
0.0
10
107.677156
20
138.416846
30
0.0
10
106.541118
20
119.931290
30
0.0
10
106.281686
20
112.170179
30
0.0
10
105.965557
20
101.445735
30
0.0
10
105.687597
20
93.261290
30
0.0
10
105.407979
20
88.040179
30
0.0
10
104.975352
20
81.616096
30
0.0
10
104.527189
20
77.174623
30
0.0
10
104.289349
20
75.481290
30
0.0
10
104.046596
20
73.646846
30
0.0
10
103.693385
20
70.461547
30
0.0
10
103.706354
20
68.442419
30
0.0
10
104.120511
20
68.231316
30
0.0
10
104.856833
20
68.143512
30
0.0
10
105.656795
20
68.270404
30
0.0
10
105.958705
20
68.778512
30
0.0
10
105.958705
20
68.778512
30
0.0
0
LWPOLYLINE
100
AcDbPolyline
8
Layer_1
90
40
70
0
10
39.911091
20
207.461090
30
0.0
10
39.979540
20
211.323485
30
0.0
10
39.915464
20
219.329458
30
0.0
10
39.772895
20
227.301159
30
0.0
10
39.605867
20
231.060738
30
0.0
10
37.075038
20
231.200608
30
0.0
10
31.607278
20
231.250589
30
0.0
10
26.048290
20
231.208615
30
0.0
10
23.243777
20
231.072619
30
0.0
10
23.058464
20
230.822426
30
0.0
10
22.940468
20
230.163696
30
0.0
10
22.860000
20
227.145540
30
0.0
10
22.860000
20
223.365735
30
0.0
10
25.682222
20
223.365735
30
0.0
10
28.074606
20
223.281323
30
0.0
10
28.431450
20
223.114896
30
0.0
10
28.504444
20
222.811509
30
0.0
10
28.428757
20
222.508631
30
0.0
10
28.073305
20
222.331466
30
0.0
10
25.752778
20
222.176509
30
0.0
10
23.001111
20
222.095735
30
0.0
10
22.921313
20
218.920735
30
0.0
10
22.841514
20
215.745735
30
0.0
10
25.672979
20
215.745735
30
0.0
10
28.079955
20
215.661114
30
0.0
10
28.433744
20
215.491786
30
0.0
10
28.504444
20
215.181290
30
0.0
10
28.440864
20
214.873829
30
0.0
10
28.136913
20
214.704164
30
0.0
10
26.128639
20
214.616846
30
0.0
10
23.306416
20
214.445540
30
0.0
10
23.078405
20
214.219482
30
0.0
10
22.942533
20
213.633183
30
0.0
10
22.860000
20
210.635540
30
0.0
10
22.860000
20
206.996846
30
0.0
10
31.296472
20
206.996846
30
0.0
10
38.382278
20
207.072774
30
0.0
10
39.562040
20
207.212833
30
0.0
10
39.911091
20
207.461090
30
0.0
10
39.911091
20
207.461090
30
0.0
0
LWPOLYLINE
100
AcDbPolyline
8
Layer_1
90
31
70
0
10
52.303954
20
209.767099
30
0.0
10
53.214502
20
212.027870
30
0.0
10
53.686750
20
212.826227
30
0.0
10
53.796488
20
212.687077
30
0.0
10
53.842225
20
212.194415
30
0.0
10
53.802458
20
210.164674
30
0.0
10
53.689027
20
206.982503
30
0.0
10
57.959515
20
207.060230
30
0.0
10
62.230000
20
207.137957
30
0.0
10
62.303595
20
219.030488
30
0.0
10
62.377187
20
230.923019
30
0.0
10
61.598040
20
231.127289
30
0.0
10
59.628795
20
231.299236
30
0.0
10
56.592305
20
231.301469
30
0.0
10
53.745828
20
231.163085
30
0.0
10
52.346623
20
230.913181
30
0.0
10
51.234427
20
228.727957
30
0.0
10
49.907777
20
225.764623
30
0.0
10
49.389335
20
224.635735
30
0.0
10
49.389112
20
227.678480
30
0.0
10
49.302210
20
230.222582
30
0.0
10
49.152433
20
230.713068
30
0.0
10
48.895000
20
230.924035
30
0.0
10
44.732222
20
231.126846
30
0.0
10
41.063333
20
231.126846
30
0.0
10
40.989747
20
219.061846
30
0.0
10
40.916163
20
206.996846
30
0.0
10
46.070255
20
206.996846
30
0.0
10
51.224347
20
206.996846
30
0.0
10
52.303954
20
209.767099
30
0.0
10
52.303954
20
209.767099
30
0.0
0
LWPOLYLINE
100
AcDbPolyline
8
Layer_1
90
17
70
0
10
72.374955
20
207.254723
30
0.0
10
72.539394
20
210.654890
30
0.0
10
72.650222
20
217.901711
30
0.0
10
72.674866
20
225.440291
30
0.0
10
72.580754
20
229.715735
30
0.0
10
72.390000
20
231.409068
30
0.0
10
68.221273
20
231.487201
30
0.0
10
64.916726
20
231.471870
30
0.0
10
64.195780
20
231.373769
30
0.0
10
63.937927
20
231.204979
30
0.0
10
63.700469
20
219.243924
30
0.0
10
63.701287
20
207.349623
30
0.0
10
65.084920
20
207.097412
30
0.0
10
67.998659
20
206.986509
30
0.0
10
70.932128
20
207.033437
30
0.0
10
72.374955
20
207.254723
30
0.0
10
72.374955
20
207.254723
30
0.0
0
LWPOLYLINE
100
AcDbPolyline
8
Layer_1
90
60
70
0
10
109.966012
20
207.827121
30
0.0
10
111.175868
20
208.526119
30
0.0
10
112.072629
20
209.342663
30
0.0
10
112.747778
20
210.242401
30
0.0
10
112.747778
20
219.325743
30
0.0
10
112.747778
20
228.409085
30
0.0
10
111.901111
20
229.300394
30
0.0
10
110.993712
20
230.083561
30
0.0
10
109.883998
20
230.753600
30
0.0
10
108.605252
20
231.302532
30
0.0
10
107.190755
20
231.722380
30
0.0
10
105.673790
20
232.005168
30
0.0
10
104.087638
20
232.142918
30
0.0
10
102.465581
20
232.127653
30
0.0
10
100.840901
20
231.951395
30
0.0
10
97.931111
20
231.318091
30
0.0
10
97.043862
20
230.752607
30
0.0
10
96.129172
20
229.833325
30
0.0
10
95.350942
20
228.753762
30
0.0
10
94.873072
20
227.707436
30
0.0
10
94.628733
20
226.184422
30
0.0
10
94.549590
20
224.304628
30
0.0
10
94.634701
20
222.631590
30
0.0
10
94.883120
20
221.728846
30
0.0
10
96.084151
20
221.473115
30
0.0
10
99.081898
20
221.390179
30
0.0
10
101.668541
20
221.433025
30
0.0
10
103.017845
20
221.684884
30
0.0
10
103.347011
20
221.947000
30
0.0
10
103.509060
20
222.330736
30
0.0
10
103.521439
20
223.555560
30
0.0
10
103.551189
20
224.712248
30
0.0
10
103.731108
20
224.919692
30
0.0
10
104.069453
20
225.008141
30
0.0
10
104.434485
20
224.998240
30
0.0
10
104.627370
20
224.620800
30
0.0
10
104.740874
20
221.480363
30
0.0
10
104.651788
20
215.409796
30
0.0
10
104.427581
20
214.321839
30
0.0
10
104.258062
20
214.132553
30
0.0
10
104.045504
20
214.129391
30
0.0
10
103.771817
20
214.696674
30
0.0
10
103.575564
20
215.908817
30
0.0
10
103.434453
20
217.580179
30
0.0
10
99.137775
20
217.658047
30
0.0
10
94.841100
20
217.735915
30
0.0
10
94.658214
20
217.007242
30
0.0
10
94.567299
20
215.783876
30
0.0
10
94.633664
20
213.938685
30
0.0
10
94.819615
20
212.032161
30
0.0
10
95.087454
20
210.624795
30
0.0
10
95.566490
20
209.711703
30
0.0
10
96.398356
20
208.858395
30
0.0
10
97.523386
20
208.113599
30
0.0
10
98.881912
20
207.526041
30
0.0
10
101.246846
20
207.147769
30
0.0
10
104.498684
20
207.088596
30
0.0
10
107.713162
20
207.323415
30
0.0
10
109.966021
20
207.827121
30
0.0
10
109.966012
20
207.827121
30
0.0
0
LWPOLYLINE
100
AcDbPolyline
8
Layer_1
90
29
70
0
10
152.599743
20
207.299585
30
0.0
10
153.505041
20
207.281269
30
0.0
10
153.522652
20
218.850058
30
0.0
10
153.365271
20
231.116056
30
0.0
10
153.209878
20
231.512242
30
0.0
10
152.825056
20
231.729470
30
0.0
10
150.325701
20
231.893384
30
0.0
10
143.626171
20
231.781773
30
0.0
10
140.604258
20
231.578541
30
0.0
10
138.791160
20
231.325756
30
0.0
10
137.840089
20
230.895329
30
0.0
10
136.845748
20
230.176111
30
0.0
10
135.961816
20
229.298734
30
0.0
10
135.341978
20
228.393834
30
0.0
10
134.869376
20
226.776549
30
0.0
10
134.546796
20
224.244628
30
0.0
10
134.392785
20
221.022013
30
0.0
10
134.425888
20
217.332642
30
0.0
10
134.631072
20
213.621288
30
0.0
10
134.890129
20
211.484272
30
0.0
10
135.452258
20
210.392541
30
0.0
10
136.430458
20
209.268821
30
0.0
10
137.661285
20
208.270144
30
0.0
10
138.981296
20
207.553546
30
0.0
10
139.907237
20
207.246897
30
0.0
10
141.050766
20
207.097174
30
0.0
10
146.050006
20
207.151311
30
0.0
10
152.599748
20
207.299574
30
0.0
10
152.599743
20
207.299585
30
0.0
0
LWPOLYLINE
100
AcDbPolyline
8
Layer_1
90
14
70
0
10
143.368889
20
219.535042
30
0.0
10
143.446736
20
224.305384
30
0.0
10
143.616931
20
224.949062
30
0.0
10
143.939427
20
225.059068
30
0.0
10
144.261423
20
224.954052
30
0.0
10
144.422650
20
224.326600
30
0.0
10
144.433315
20
219.629945
30
0.0
10
144.289573
20
215.058583
30
0.0
10
144.130641
20
214.314686
30
0.0
10
143.862778
20
214.105919
30
0.0
10
143.592903
20
214.198739
30
0.0
10
143.444540
20
214.871696
30
0.0
10
143.368889
20
219.535042
30
0.0
10
143.368889
20
219.535042
30
0.0
0
LWPOLYLINE
100
AcDbPolyline
8
Layer_1
90
32
70
0
10
166.328606
20
210.101290
30
0.0
10
167.498889
20
213.064623
30
0.0
10
167.578992
20
210.030735
30
0.0
10
167.659095
20
206.996846
30
0.0
10
171.852686
20
206.996846
30
0.0
10
175.310116
20
207.077690
30
0.0
10
175.972226
20
207.212082
30
0.0
10
176.215853
20
207.438755
30
0.0
10
176.365351
20
211.448026
30
0.0
10
176.393842
20
219.563777
30
0.0
10
176.314521
20
227.594059
30
0.0
10
176.140587
20
231.346925
30
0.0
10
174.703258
20
231.553974
30
0.0
10
171.763180
20
231.706964
30
0.0
10
168.723877
20
231.758005
30
0.0
10
166.988871
20
231.659204
30
0.0
10
166.217544
20
230.722901
30
0.0
10
165.035969
20
228.563571
30
0.0
10
163.976007
20
226.529302
30
0.0
10
163.453755
20
225.764570
30
0.0
10
163.263600
20
228.457097
30
0.0
10
163.145911
20
230.342089
30
0.0
10
162.934309
20
231.288759
30
0.0
10
161.675100
20
231.467294
30
0.0
10
158.868474
20
231.488149
30
0.0
10
155.081111
20
231.409068
30
0.0
10
155.007553
20
219.196579
30
0.0
10
154.933994
20
206.984089
30
0.0
10
160.046159
20
207.061023
30
0.0
10
165.158324
20
207.137957
30
0.0
10
166.328606
20
210.101290
30
0.0
10
166.328606
20
210.101290
30
0.0
0
LWPOLYLINE
100
AcDbPolyline
8
Layer_1
90
16
70
0
10
186.252643
20
207.411512
30
0.0
10
186.475543
20
210.549724
30
0.0
10
186.548889
20
219.713502
30
0.0
10
186.548889
20
231.832401
30
0.0
10
182.191101
20
231.832401
30
0.0
10
179.049216
20
231.754839
30
0.0
10
177.668027
20
231.564965
30
0.0
10
177.546188
20
227.731378
30
0.0
10
177.508353
20
219.600407
30
0.0
10
177.552796
20
211.428645
30
0.0
10
177.677792
20
207.472684
30
0.0
10
177.909048
20
207.245208
30
0.0
10
178.536340
20
207.124519
30
0.0
10
181.902416
20
207.128206
30
0.0
10
186.252643
20
207.411512
30
0.0
10
186.252643
20
207.411512
30
0.0
0
LWPOLYLINE
100
AcDbPolyline
8
Layer_1
90
7
70
0
10
240.906066
20
207.767078
30
0.0
10
240.792189
20
207.728602
30
0.0
10
240.757837
20
207.396661
30
0.0
10
240.814387
20
207.103689
30
0.0
10
240.928344
20
207.226151
30
0.0
10
240.906077
20
207.767078
30
0.0
10
240.906066
20
207.767078
30
0.0
0
LWPOLYLINE
100
AcDbPolyline
8
Layer_1
90
36
70
0
10
83.315485
20
208.378213
30
0.0
10
83.512135
20
212.782401
30
0.0
10
83.707444
20
216.291363
30
0.0
10
83.919663
20
216.314273
30
0.0
10
84.140867
20
216.026541
30
0.0
10
84.488579
20
214.757957
30
0.0
10
84.656007
20
210.454068
30
0.0
10
84.666675
20
207.279068
30
0.0
10
88.460018
20
207.279068
30
0.0
10
91.196183
20
207.357746
30
0.0
10
92.420169
20
207.548965
30
0.0
10
92.659674
20
207.692879
30
0.0
10
93.001270
20
207.659882
30
0.0
10
93.122516
20
207.702152
30
0.0
10
93.218004
20
207.989785
30
0.0
10
93.343528
20
209.643883
30
0.0
10
93.415564
20
219.666651
30
0.0
10
93.415564
20
231.832401
30
0.0
10
89.080913
20
231.832401
30
0.0
10
84.746262
20
231.832401
30
0.0
10
84.543423
20
228.101073
30
0.0
10
84.189556
20
224.125372
30
0.0
10
84.025193
20
223.953494
30
0.0
10
83.871306
20
223.980725
30
0.0
10
83.601217
20
224.606794
30
0.0
10
83.255564
20
227.965336
30
0.0
10
83.114444
20
231.409068
30
0.0
10
78.471666
20
231.409068
30
0.0
10
73.828890
20
231.409068
30
0.0
10
73.891668
20
219.589449
30
0.0
10
74.115473
20
207.509288
30
0.0
10
75.525806
20
207.340771
30
0.0
10
78.734341
20
207.304719
30
0.0
10
83.192185
20
207.360695
30
0.0
10
83.315485
20
208.378213
30
0.0
10
83.315485
20
208.378213
30
0.0
0
LWPOLYLINE
100
AcDbPolyline
8
Layer_1
90
36
70
0
10
128.367674
20
207.742302
30
0.0
10
129.839497
20
208.351784
30
0.0
10
131.137426
20
209.166635
30
0.0
10
132.276936
20
210.303957
30
0.0
10
132.642418
20
210.977483
30
0.0
10
132.898025
20
211.847953
30
0.0
10
133.158547
20
214.560823
30
0.0
10
133.216354
20
219.204771
30
0.0
10
133.150390
20
224.326074
30
0.0
10
132.804633
20
227.415558
30
0.0
10
132.466806
20
228.454652
30
0.0
10
131.987000
20
229.293332
30
0.0
10
130.505409
20
230.779501
30
0.0
10
129.616110
20
231.193184
30
0.0
10
128.144297
20
231.529105
30
0.0
10
124.149229
20
231.934017
30
0.0
10
119.912400
20
231.926952
30
0.0
10
118.138387
20
231.747902
30
0.0
10
116.826007
20
231.440626
30
0.0
10
115.829607
20
230.940000
30
0.0
10
115.133340
20
230.212922
30
0.0
10
114.656052
20
229.134536
30
0.0
10
114.316586
20
227.579990
30
0.0
10
114.079611
20
224.450530
30
0.0
10
114.025610
20
220.054680
30
0.0
10
114.144496
20
215.745810
30
0.0
10
114.426179
20
212.877293
30
0.0
10
114.978301
20
210.835444
30
0.0
10
115.727142
20
209.473715
30
0.0
10
116.878541
20
208.543875
30
0.0
10
118.638337
20
207.797696
30
0.0
10
120.669623
20
207.410812
30
0.0
10
123.393759
20
207.270196
30
0.0
10
126.172519
20
207.379481
30
0.0
10
128.367674
20
207.742302
30
0.0
10
128.367674
20
207.742302
30
0.0
0
LWPOLYLINE
100
AcDbPolyline
8
Layer_1
90
15
70
0
10
123.048889
20
219.438141
30
0.0
10
123.122381
20
223.900984
30
0.0
10
123.230787
20
224.780186
30
0.0
10
123.401667
20
224.989252
30
0.0
10
123.570781
20
224.707930
30
0.0
10
123.705192
20
223.952675
30
0.0
10
123.895556
20
220.802956
30
0.0
10
123.942973
20
215.262469
30
0.0
10
123.773049
20
214.110013
30
0.0
10
123.634244
20
213.850983
30
0.0
10
123.457473
20
213.770179
30
0.0
10
123.248900
20
213.986549
30
0.0
10
123.124530
20
214.819495
30
0.0
10
123.048889
20
219.438141
30
0.0
10
123.048889
20
219.438141
30
0.0
0
LWPOLYLINE
100
AcDbPolyline
8
Layer_1
90
33
70
0
10
189.437346
20
233.361326
30
0.0
10
189.590903
20
233.509604
30
0.0
10
189.649013
20
233.378852
30
0.0
10
190.214252
20
233.207726
30
0.0
10
191.475437
20
233.141451
30
0.0
10
192.790739
20
233.185550
30
0.0
10
193.518327
20
233.345550
30
0.0
10
193.498910
20
233.958161
30
0.0
10
193.250835
20
234.195721
30
0.0
10
192.544023
20
234.322457
30
0.0
10
188.595711
20
234.331719
30
0.0
10
185.114981
20
234.191232
30
0.0
10
183.660443
20
233.957684
30
0.0
10
183.504130
20
233.811948
30
0.0
10
183.448777
20
233.953281
30
0.0
10
182.580668
20
234.132807
30
0.0
10
180.652946
20
234.211918
30
0.0
10
178.670293
20
234.178799
30
0.0
10
177.637392
20
234.021633
30
0.0
10
176.671122
20
234.090176
30
0.0
10
175.701300
20
234.155166
30
0.0
10
170.388387
20
233.936707
30
0.0
10
164.751531
20
233.834229
30
0.0
10
164.097384
20
233.723160
30
0.0
10
164.115078
20
233.521129
30
0.0
10
164.296722
20
233.350988
30
0.0
10
164.484513
20
233.344703
30
0.0
10
165.241122
20
233.238074
30
0.0
10
169.374223
20
233.058289
30
0.0
10
177.591731
20
233.033201
30
0.0
10
185.682992
20
233.141361
30
0.0
10
189.437357
20
233.361323
30
0.0
10
189.437346
20
233.361326
30
0.0
0
LWPOLYLINE
100
AcDbPolyline
8
Layer_1
90
39
70
0
10
162.136667
20
237.321073
30
0.0
10
168.768889
20
237.581629
30
0.0
10
176.247778
20
237.904720
30
0.0
10
182.372233
20
238.217889
30
0.0
10
189.970288
20
238.412327
30
0.0
10
207.010000
20
238.403246
30
0.0
10
221.967778
20
238.182401
30
0.0
10
224.225556
20
238.182401
30
0.0
10
224.225556
20
239.255718
30
0.0
10
224.225556
20
240.329034
30
0.0
10
215.053333
20
240.305610
30
0.0
10
198.684444
20
240.125210
30
0.0
10
190.447605
20
239.987067
30
0.0
10
189.028299
20
240.032983
30
0.0
10
188.523632
20
240.158451
30
0.0
10
188.323617
20
240.172761
30
0.0
10
188.237901
20
239.962938
30
0.0
10
188.178602
20
239.770089
30
0.0
10
188.026235
20
239.875726
30
0.0
10
187.651446
20
240.070877
30
0.0
10
187.057689
20
240.162941
30
0.0
10
186.508314
20
240.136746
30
0.0
10
186.266667
20
239.977117
30
0.0
10
186.006155
20
239.908397
30
0.0
10
185.379820
20
240.028369
30
0.0
10
184.241034
20
240.127008
30
0.0
10
182.235105
20
240.010402
30
0.0
10
180.198889
20
240.019405
30
0.0
10
149.295556
20
239.893088
30
0.0
10
118.674444
20
239.796853
30
0.0
10
118.588877
20
238.957536
30
0.0
10
118.570647
20
238.495152
30
0.0
10
118.681790
20
238.221111
30
0.0
10
119.576655
20
237.947031
30
0.0
10
124.601111
20
237.593799
30
0.0
10
130.668889
20
237.190638
30
0.0
10
145.944861
20
237.103913
30
0.0
10
162.136667
20
237.321062
30
0.0
10
162.136667
20
237.321073
30
0.0
  0
ENDSEC
  0
SECTION
  2
OBJECTS
  0
DICTIONARY
  5
C
330
0
100
AcDbDictionary
  3
ACAD_GROUP
350
D
  3
ACAD_MLINESTYLE
350
17
  0
DICTIONARY
  5
D
330
C
100
AcDbDictionary
  0
DICTIONARY
  5
1A
330
C
100
AcDbDictionary
  0
DICTIONARY
  5
17
330
C
100
AcDbDictionary
  3
STANDARD
350
18
  0
DICTIONARY
  5
19
330
C
100
AcDbDictionary
  0
ENDSEC
  0
EOF
