999
Inkscape export via OpenSCAD DXF Export
  0
SECTION
  2
HEADER
  9
$ACADVER
  1
AC1014
  9
$HANDSEED
  5
FFFF
  9
$MEASUREMENT
 70
     1
  0
ENDSEC
  0
SECTION
  2
TABLES
  0
TABLE
  2
VPORT
  5
8
330
0
100
AcDbSymbolTable
 70
     4
  0
VPORT
  5
2E
330
8
100
AcDbSymbolTableRecord
100
AcDbViewportTableRecord
  2
*ACTIVE
 70
     0
 10
0.0
 20
0.0
 11
1.0
 21
1.0
 12
210.0
 22
148.5
 13
0.0
 23
0.0
 14
10.0
 24
10.0
 15
10.0
 25
10.0
 16
0.0
 26
0.0
 36
1.0
 17
0.0
 27
0.0
 37
0.0
 40
341.0
 41
1.24
 42
50.0
 43
0.0
 44
0.0
 50
0.0
 51
0.0
 71
     0
 72
   100
 73
     1
 74
     3
 75
     0
 76
     0
 77
     0
 78
     0
  0
ENDTAB
  0
TABLE
  2
LTYPE
  5
5
330
0
100
AcDbSymbolTable
 70
     1
  0
LTYPE
  5
14
330
5
100
AcDbSymbolTableRecord
100
AcDbLinetypeTableRecord
  2
BYBLOCK
 70
     0
  3

 72
    65
 73
     0
 40
0.0
  0
LTYPE
  5
15
330
5
100
AcDbSymbolTableRecord
100
AcDbLinetypeTableRecord
  2
BYLAYER
 70
     0
  3

 72
    65
 73
     0
 40
0.0
  0
LTYPE
  5
16
330
5
100
AcDbSymbolTableRecord
100
AcDbLinetypeTableRecord
  2
CONTINUOUS
 70
     0
  3
Solid line
 72
    65
 73
     0
 40
0.0
  0
ENDTAB
  0
TABLE
0
TABLE
2
LAYER
5
2
330
0
100
AcDbSymbolTable
70
1
0
LAYER
5
10
330
2
100
AcDbSymbolTableRecord
100
AcDbLayerTableRecord
2
Layer_1
70
0
62
7
6
CONTINUOUS
0
ENDTAB
0
ENDSEC
  0
ENDTAB
  0
TABLE
  2
STYLE
  5
3
330
0
100
AcDbSymbolTable
 70
     1
  0
STYLE
  5
11
330
3
100
AcDbSymbolTableRecord
100
AcDbTextStyleTableRecord
  2
STANDARD
 70
     0
 40
0.0
 41
1.0
 50
0.0
 71
     0
 42
2.5
  3
txt
  4

  0
ENDTAB
  0
TABLE
  2
VIEW
  5
6
330
0
100
AcDbSymbolTable
 70
     0
  0
ENDTAB
  0
TABLE
  2
UCS
  5
7
330
0
100
AcDbSymbolTable
 70
     0
  0
ENDTAB
  0
TABLE
  2
APPID
  5
9
330
0
100
AcDbSymbolTable
 70
     2
  0
APPID
  5
12
330
9
100
AcDbSymbolTableRecord
100
AcDbRegAppTableRecord
  2
ACAD
 70
     0
  0
ENDTAB
  0
TABLE
  2
DIMSTYLE
  5
A
330
0
100
AcDbSymbolTable
 70
     1
  0
DIMSTYLE
105
27
330
A
100
AcDbSymbolTableRecord
100
AcDbDimStyleTableRecord
  2
ISO-25
 70
     0
  3

  4

  5

  6

  7

 40
1.0
 41
2.5
 42
0.625
 43
3.75
 44
1.25
 45
0.0
 46
0.0
 47
0.0
 48
0.0
140
2.5
141
2.5
142
0.0
143
0.03937007874016
144
1.0
145
0.0
146
1.0
147
0.625
 71
     0
 72
     0
 73
     0
 74
     0
 75
     0
 76
     0
 77
     1
 78
     8
170
     0
171
     3
172
     1
173
     0
174
     0
175
     0
176
     0
177
     0
178
     0
270
     2
271
     2
272
     2
273
     2
274
     3
340
11
275
     0
280
     0
281
     0
282
     0
283
     0
284
     8
285
     0
286
     0
287
     3
288
     0
  0
ENDTAB
  0
TABLE
  2
BLOCK_RECORD
  5
1
330
0
100
AcDbSymbolTable
 70
     1
  0
BLOCK_RECORD
  5
1F
330
1
100
AcDbSymbolTableRecord
100
AcDbBlockTableRecord
  2
*MODEL_SPACE
  0
BLOCK_RECORD
  5
1B
330
1
100
AcDbSymbolTableRecord
100
AcDbBlockTableRecord
  2
*PAPER_SPACE
  0
ENDTAB
  0
ENDSEC
  0
SECTION
  2
BLOCKS
  0
BLOCK
  5
20
330
1F
100
AcDbEntity
  8
0
100
AcDbBlockBegin
  2
*MODEL_SPACE
 70
     0
 10
0.0
 20
0.0
 30
0.0
  3
*MODEL_SPACE
  1

  0
ENDBLK
  5
21
330
1F
100
AcDbEntity
  8
0
100
AcDbBlockEnd
  0
BLOCK
  5
1C
330
1B
100
AcDbEntity
 67
     1
  8
0
100
AcDbBlockBegin
  2
*PAPER_SPACE
  1

  0
ENDBLK
  5
1D
330
1B
100
AcDbEntity
 67
     1
  8
0
100
AcDbBlockEnd
  0
ENDSEC
  0
SECTION
  2
ENTITIES
0
DIMENSION
5
83
100
AcDbEntity
62
256
370
-1
6
ByLayer
1
total_width
3
Standard
70
0
71
5
72
1
41
1.0
100
AcDbAlignedDimension
13
1.135086
23
0.000000
33
0.0
14
291.196974
24
0.000000
34
0.0
50
0.000000
100
AcDbRotatedDimension
0
DIMENSION
5
83
100
AcDbEntity
62
256
370
-1
6
ByLayer
1
total_height
3
Standard
70
0
71
5
72
1
41
1.0
100
AcDbAlignedDimension
13
0.000000
23
1.605830
33
0.0
14
0.000000
24
288.303154
34
0.0
50
90.000000
100
AcDbRotatedDimension
0
DIMENSION
8
Layer_1
5
83
100
AcDbEntity
62
256
370
-1
6
ByLayer
1
Layer_1_width
3
Standard
70
0
71
5
72
1
41
1.0
100
AcDbAlignedDimension
13
1.135086
23
0.000000
33
0.0
14
291.196974
24
0.000000
34
0.0
50
0.000000
100
AcDbRotatedDimension
0
DIMENSION
8
Layer_1
5
83
100
AcDbEntity
62
256
370
-1
6
ByLayer
1
Layer_1_height
3
Standard
70
0
71
5
72
1
41
1.0
100
AcDbAlignedDimension
13
0.000000
23
1.605830
33
0.0
14
0.000000
24
288.303154
34
0.0
50
90.000000
100
AcDbRotatedDimension
0
LWPOLYLINE
100
AcDbPolyline
8
Layer_1
90
457
70
0
10
84.447544
20
1.980015
30
0.0
10
82.588346
20
2.784292
30
0.0
10
81.765548
20
3.782362
30
0.0
10
80.786436
20
5.491663
30
0.0
10
80.008237
20
7.214512
30
0.0
10
79.788176
20
8.253222
30
0.0
10
79.837670
20
8.541286
30
0.0
10
79.664797
20
8.528106
30
0.0
10
79.545195
20
8.506064
30
0.0
10
79.499993
20
8.638868
30
0.0
10
79.631647
20
9.399044
30
0.0
10
80.044809
20
12.924197
30
0.0
10
80.191110
20
15.393021
30
0.0
10
79.394998
20
15.696184
30
0.0
10
78.459684
20
15.893620
30
0.0
10
77.328889
20
15.942592
30
0.0
10
76.166296
20
15.912072
30
0.0
10
75.583438
20
16.077420
30
0.0
10
75.378100
20
16.620356
30
0.0
10
75.348067
20
17.722596
30
0.0
10
75.302130
20
19.909818
30
0.0
10
75.458182
20
21.179821
30
0.0
10
75.491428
20
21.932147
30
0.0
10
75.049953
20
22.398821
30
0.0
10
74.576346
20
22.610687
30
0.0
10
74.277768
20
22.597217
30
0.0
10
74.016413
20
19.684887
30
0.0
10
73.782712
20
16.139679
30
0.0
10
73.599843
20
15.391378
30
0.0
10
73.363517
20
15.261957
30
0.0
10
73.174269
20
15.289516
30
0.0
10
73.095556
20
15.123188
30
0.0
10
73.011623
20
14.970693
30
0.0
10
72.730625
20
14.924603
30
0.0
10
71.402222
20
15.154938
30
0.0
10
70.830624
20
15.580754
30
0.0
10
70.236497
20
16.528828
30
0.0
10
69.678795
20
17.881402
30
0.0
10
69.216476
20
19.520718
30
0.0
10
68.918741
20
21.354393
30
0.0
10
68.864923
20
23.688550
30
0.0
10
69.565314
20
32.750932
30
0.0
10
70.041403
20
37.407708
30
0.0
10
70.447160
20
39.947599
30
0.0
10
70.686332
20
60.690932
30
0.0
10
70.921886
20
84.538710
30
0.0
10
71.270605
20
93.428710
30
0.0
10
71.550163
20
101.048710
30
0.0
10
71.818356
20
116.570932
30
0.0
10
72.071885
20
134.127258
30
0.0
10
72.379654
20
146.451243
30
0.0
10
72.790374
20
154.954827
30
0.0
10
73.352750
20
161.049950
30
0.0
10
73.769121
20
165.254265
30
0.0
10
76.036142
20
186.138710
30
0.0
10
76.923010
20
195.517595
30
0.0
10
77.190922
20
199.559729
30
0.0
10
77.199933
20
201.319517
30
0.0
10
72.742187
20
201.411050
30
0.0
10
62.284616
20
201.371129
30
0.0
10
45.478097
20
201.274508
30
0.0
10
33.179786
20
201.344945
30
0.0
10
24.484124
20
201.596319
30
0.0
10
18.485555
20
202.042514
30
0.0
10
13.077334
20
202.740663
30
0.0
10
9.091855
20
203.518049
30
0.0
10
6.118970
20
204.477017
30
0.0
10
3.748529
20
205.719914
30
0.0
10
2.608227
20
206.587926
30
0.0
10
1.786859
20
207.515228
30
0.0
10
1.292965
20
208.489472
30
0.0
10
1.135086
20
209.498311
30
0.0
10
1.526725
20
210.820847
30
0.0
10
2.470546
20
212.374381
30
0.0
10
3.660545
20
213.740253
30
0.0
10
4.790716
20
214.499802
30
0.0
10
5.166315
20
214.679765
30
0.0
10
5.327881
20
214.978091
30
0.0
10
5.071256
20
216.338350
30
0.0
10
4.918544
20
217.520851
30
0.0
10
5.159949
20
218.701180
30
0.0
10
5.796259
20
219.881447
30
0.0
10
6.828256
20
221.063764
30
0.0
10
7.878355
20
221.993435
30
0.0
10
8.447433
20
222.346198
30
0.0
10
9.293312
20
222.947399
30
0.0
10
9.912666
20
223.606668
30
0.0
10
8.906969
20
224.228223
30
0.0
10
8.167907
20
224.820086
30
0.0
10
7.767432
20
225.573177
30
0.0
10
7.655201
20
226.669049
30
0.0
10
7.780872
20
228.289254
30
0.0
10
8.030382
20
231.788211
30
0.0
10
8.043336
20
233.269937
30
0.0
10
9.031113
20
233.302378
30
0.0
10
10.503351
20
233.286179
30
0.0
10
10.893723
20
233.424572
30
0.0
10
11.120246
20
233.888678
30
0.0
10
11.499659
20
236.746039
30
0.0
10
11.695206
20
239.831488
30
0.0
10
11.712224
20
241.454265
30
0.0
10
13.687780
20
241.482347
30
0.0
10
16.792224
20
241.597688
30
0.0
10
21.025558
20
241.857869
30
0.0
10
26.499163
20
242.235631
30
0.0
10
29.003281
20
242.632001
30
0.0
10
31.231515
20
242.912420
30
0.0
10
36.800463
20
243.610867
30
0.0
10
39.577892
20
244.012106
30
0.0
10
43.013880
20
244.225918
30
0.0
10
60.395558
20
244.363460
30
0.0
10
79.727781
20
244.417599
30
0.0
10
80.187334
20
249.638710
30
0.0
10
80.941377
20
256.979974
30
0.0
10
81.828647
20
263.502135
30
0.0
10
82.813261
20
268.975250
30
0.0
10
83.859336
20
273.169374
30
0.0
10
84.519947
20
274.885856
30
0.0
10
85.445976
20
276.834681
30
0.0
10
86.354875
20
278.464761
30
0.0
10
86.964097
20
279.225006
30
0.0
10
87.135414
20
279.461212
30
0.0
10
87.206669
20
279.897008
30
0.0
10
87.573237
20
281.190062
30
0.0
10
88.436017
20
283.265453
30
0.0
10
89.439625
20
285.334105
30
0.0
10
90.228677
20
286.606937
30
0.0
10
90.875558
20
287.496551
30
0.0
10
91.167980
20
287.763647
30
0.0
10
91.904124
20
288.025243
30
0.0
10
93.860846
20
288.303154
30
0.0
10
94.846193
20
288.183136
30
0.0
10
95.491907
20
287.879821
30
0.0
10
96.109900
20
287.456488
30
0.0
10
96.607690
20
287.112573
30
0.0
10
97.360055
20
286.176558
30
0.0
10
99.218423
20
283.102609
30
0.0
10
100.472342
20
280.542043
30
0.0
10
100.966019
20
278.707599
30
0.0
10
102.303199
20
274.235244
30
0.0
10
102.860726
20
271.519489
30
0.0
10
103.073234
20
270.450513
30
0.0
10
103.391509
20
269.731978
30
0.0
10
103.731557
20
269.486837
30
0.0
10
104.009382
20
269.838049
30
0.0
10
104.748599
20
271.321001
30
0.0
10
105.262481
20
271.861586
30
0.0
10
105.881430
20
272.279832
30
0.0
10
106.371548
20
272.587456
30
0.0
10
106.687389
20
272.934902
30
0.0
10
107.028285
20
274.121984
30
0.0
10
107.447750
20
276.575493
30
0.0
10
107.903428
20
278.053255
30
0.0
10
108.413958
20
279.146280
30
0.0
10
109.039507
20
279.910582
30
0.0
10
109.808527
20
280.371153
30
0.0
10
110.749475
20
280.552983
30
0.0
10
112.183336
20
280.413479
30
0.0
10
113.813039
20
279.852300
30
0.0
10
116.041847
20
279.516046
30
0.0
10
117.360359
20
279.451075
30
0.0
10
117.269537
20
276.468781
30
0.0
10
117.117049
20
273.345377
30
0.0
10
117.115638
20
272.922043
30
0.0
10
117.293248
20
271.902350
30
0.0
10
117.261559
20
271.752504
30
0.0
10
117.151666
20
271.775002
30
0.0
10
117.014842
20
271.586274
30
0.0
10
116.989559
20
270.980242
30
0.0
10
117.228061
20
269.733677
30
0.0
10
117.274708
20
269.469302
30
0.0
10
117.126137
20
269.255528
30
0.0
10
116.979951
20
268.990559
30
0.0
10
117.122298
20
268.547599
30
0.0
10
117.264644
20
268.104639
30
0.0
10
117.118460
20
267.839670
30
0.0
10
116.967582
20
267.629628
30
0.0
10
117.008681
20
267.374226
30
0.0
10
117.278946
20
263.111598
30
0.0
10
117.519111
20
258.127136
30
0.0
10
117.854332
20
254.718710
30
0.0
10
118.177739
20
251.473154
30
0.0
10
118.446542
20
247.169265
30
0.0
10
118.579446
20
243.712043
30
0.0
10
120.320319
20
243.691526
30
0.0
10
127.423412
20
243.500179
30
0.0
10
147.058358
20
243.363468
30
0.0
10
184.996746
20
243.543763
30
0.0
10
229.728968
20
243.678987
30
0.0
10
233.538968
20
243.822880
30
0.0
10
248.293797
20
244.449978
30
0.0
10
252.575510
20
244.649513
30
0.0
10
254.435968
20
244.861252
30
0.0
10
257.225397
20
245.025687
30
0.0
10
263.740587
20
245.111487
30
0.0
10
271.056597
20
245.062127
30
0.0
10
272.502711
20
244.955912
30
0.0
10
272.913289
20
244.779447
30
0.0
10
272.961684
20
244.559110
30
0.0
10
273.147519
20
244.780012
30
0.0
10
273.435203
20
244.965316
30
0.0
10
273.826663
20
244.958916
30
0.0
10
274.171690
20
244.795453
30
0.0
10
274.320079
20
244.509572
30
0.0
10
274.485885
20
244.370771
30
0.0
10
274.884523
20
244.417675
30
0.0
10
275.291730
20
244.459554
30
0.0
10
275.448968
20
244.283210
30
0.0
10
275.552596
20
244.078861
30
0.0
10
275.801746
20
244.027943
30
0.0
10
276.957163
20
243.861951
30
0.0
10
277.389771
20
243.712408
30
0.0
10
277.609633
20
243.514255
30
0.0
10
277.592536
20
242.616533
30
0.0
10
277.377861
20
241.289713
30
0.0
10
277.315000
20
241.083336
30
0.0
10
276.973514
20
240.962832
30
0.0
10
274.037857
20
240.750875
30
0.0
10
268.816746
20
240.193706
30
0.0
10
266.589554
20
239.944574
30
0.0
10
264.801627
20
239.903474
30
0.0
10
263.716876
20
239.909574
30
0.0
10
263.180302
20
239.773957
30
0.0
10
262.724283
20
239.627802
30
0.0
10
261.833199
20
239.608606
30
0.0
10
260.368570
20
239.530469
30
0.0
10
255.853015
20
239.283740
30
0.0
10
243.416746
20
238.768083
30
0.0
10
224.084523
20
237.909642
30
0.0
10
218.016746
20
237.643193
30
0.0
10
208.138968
20
237.371077
30
0.0
10
198.919767
20
237.049522
30
0.0
10
198.428854
20
236.851137
30
0.0
10
198.049525
20
236.536256
30
0.0
10
197.889970
20
236.229654
30
0.0
10
198.058380
20
236.056102
30
0.0
10
200.601331
20
235.914039
30
0.0
10
207.151190
20
236.098822
30
0.0
10
217.311190
20
236.505092
30
0.0
10
231.563412
20
237.078901
30
0.0
10
237.772301
20
237.459974
30
0.0
10
246.060118
20
237.754916
30
0.0
10
251.986785
20
237.898189
30
0.0
10
257.668968
20
238.215193
30
0.0
10
263.877857
20
238.485638
30
0.0
10
267.828968
20
238.748895
30
0.0
10
272.689659
20
239.109124
30
0.0
10
274.266327
20
239.450019
30
0.0
10
275.452930
20
239.709043
30
0.0
10
278.121607
20
239.792354
30
0.0
10
280.581501
20
240.076347
30
0.0
10
282.394583
20
240.219029
30
0.0
10
283.024340
20
240.018484
30
0.0
10
283.827051
20
239.582263
30
0.0
10
285.280298
20
238.570268
30
0.0
10
285.436941
20
238.467635
30
0.0
10
285.680602
20
238.535272
30
0.0
10
286.651855
20
237.867395
30
0.0
10
288.591611
20
235.952885
30
0.0
10
291.196974
20
233.181604
30
0.0
10
291.196974
20
231.132846
30
0.0
10
291.084861
20
229.428306
30
0.0
10
290.790207
20
228.284216
30
0.0
10
290.212668
20
227.499426
30
0.0
10
289.299816
20
226.537191
30
0.0
10
288.383656
20
225.720434
30
0.0
10
287.796196
20
225.372083
30
0.0
10
287.645436
20
225.223847
30
0.0
10
287.580211
20
224.873786
30
0.0
10
287.524292
20
224.542006
30
0.0
10
287.279503
20
224.803231
30
0.0
10
287.074141
20
225.026886
30
0.0
10
287.144601
20
224.645491
30
0.0
10
287.450766
20
222.175607
30
0.0
10
287.441626
20
221.088627
30
0.0
10
287.300134
20
220.712343
30
0.0
10
287.102356
20
220.705335
30
0.0
10
287.020085
20
220.445443
30
0.0
10
286.932285
20
220.134700
30
0.0
10
286.721211
20
220.005453
30
0.0
10
286.561361
20
219.922550
30
0.0
10
286.596751
20
219.723231
30
0.0
10
286.632142
20
219.523911
30
0.0
10
286.472291
20
219.441008
30
0.0
10
286.261217
20
219.321547
30
0.0
10
286.173418
20
219.034332
30
0.0
10
286.077709
20
218.687963
30
0.0
10
285.847592
20
218.426281
30
0.0
10
285.656472
20
218.376413
30
0.0
10
285.727394
20
218.621291
30
0.0
10
285.754632
20
218.757445
30
0.0
10
285.531447
20
218.528172
30
0.0
10
285.193818
20
218.236441
30
0.0
10
284.946062
20
218.222432
30
0.0
10
284.816285
20
218.261081
30
0.0
10
284.762307
20
218.095951
30
0.0
10
284.589550
20
217.844958
30
0.0
10
284.178149
20
217.597381
30
0.0
10
283.280640
20
217.409536
30
0.0
10
283.131151
20
217.368254
30
0.0
10
283.068974
20
217.190478
30
0.0
10
282.838445
20
216.875097
30
0.0
10
282.277840
20
216.538344
30
0.0
10
281.583634
20
216.274291
30
0.0
10
280.952301
20
216.177010
30
0.0
10
280.492755
20
216.107128
30
0.0
10
280.180511
20
215.913231
30
0.0
10
280.027235
20
215.798261
30
0.0
10
279.968844
20
215.976801
30
0.0
10
279.799639
20
216.183355
30
0.0
10
279.211828
20
216.036418
30
0.0
10
278.589765
20
215.891694
30
0.0
10
278.263325
20
216.067067
30
0.0
10
278.066803
20
216.170600
30
0.0
10
277.868913
20
215.866339
30
0.0
10
277.759084
20
215.341849
30
0.0
10
277.424523
20
214.877582
30
0.0
10
277.063367
20
214.592237
30
0.0
10
276.789523
20
214.548398
30
0.0
10
276.640034
20
214.537288
30
0.0
10
276.577857
20
214.330627
30
0.0
10
276.525516
20
214.138666
30
0.0
10
276.399673
20
214.162897
30
0.0
10
276.100468
20
214.167317
30
0.0
10
275.631320
20
213.927710
30
0.0
10
274.539428
20
213.514265
30
0.0
10
274.185139
20
213.426470
30
0.0
10
274.037781
20
213.215387
30
0.0
10
273.954878
20
213.055541
30
0.0
10
273.755558
20
213.090932
30
0.0
10
273.556239
20
213.121430
30
0.0
10
273.473336
20
212.949821
30
0.0
10
273.390557
20
212.778135
30
0.0
10
273.191537
20
212.808447
30
0.0
10
273.009686
20
212.749870
30
0.0
10
272.979871
20
212.337266
30
0.0
10
272.971776
20
211.900602
30
0.0
10
272.443609
20
211.664328
30
0.0
10
267.546669
20
211.399255
30
0.0
10
260.491114
20
211.112159
30
0.0
10
252.588892
20
210.840506
30
0.0
10
245.807192
20
210.552070
30
0.0
10
242.527260
20
210.153733
30
0.0
10
242.025872
20
209.940875
30
0.0
10
242.993336
20
209.773139
30
0.0
10
256.138401
20
209.744410
30
0.0
10
271.544062
20
209.978275
30
0.0
10
273.413185
20
209.970868
30
0.0
10
273.725970
20
209.795192
30
0.0
10
273.864380
20
209.450218
30
0.0
10
273.913640
20
208.560851
30
0.0
10
273.685180
20
207.644263
30
0.0
10
273.237112
20
206.847610
30
0.0
10
272.627544
20
206.318050
30
0.0
10
271.370685
20
205.894265
30
0.0
10
271.061808
20
205.797545
30
0.0
10
270.933336
20
205.565005
30
0.0
10
270.878786
20
205.387016
30
0.0
10
270.747637
20
205.421447
30
0.0
10
270.493234
20
205.450307
30
0.0
10
270.142358
20
205.258927
30
0.0
10
269.228914
20
205.035840
30
0.0
10
266.376441
20
204.927558
30
0.0
10
250.048892
20
204.991431
30
0.0
10
239.888892
20
205.027759
30
0.0
10
238.195558
20
204.885417
30
0.0
10
235.373336
20
204.658956
30
0.0
10
227.675421
20
203.939847
30
0.0
10
220.274447
20
203.480848
30
0.0
10
215.194447
20
203.222866
30
0.0
10
207.495654
20
202.886570
30
0.0
10
198.120003
20
202.658588
30
0.0
10
186.690003
20
202.359765
30
0.0
10
178.646669
20
202.067374
30
0.0
10
171.450003
20
201.797308
30
0.0
10
163.124447
20
201.496143
30
0.0
10
158.766800
20
201.297592
30
0.0
10
156.810611
20
201.083514
30
0.0
10
156.522582
20
200.968351
30
0.0
10
156.175611
20
201.007624
30
0.0
10
155.900922
20
201.041987
30
0.0
10
155.786669
20
200.915016
30
0.0
10
155.268527
20
200.735887
30
0.0
10
154.022781
20
200.644853
30
0.0
10
150.001114
20
200.462941
30
0.0
10
131.586114
20
200.100015
30
0.0
10
115.428892
20
199.890696
30
0.0
10
115.414555
20
199.011924
30
0.0
10
115.288139
20
197.004265
30
0.0
10
114.727637
20
189.948710
30
0.0
10
114.437341
20
186.279821
30
0.0
10
114.157410
20
182.893154
30
0.0
10
113.589486
20
175.978710
30
0.0
10
113.145957
20
169.571803
30
0.0
10
112.847375
20
165.773927
30
0.0
10
112.628197
20
164.252707
30
0.0
10
112.496993
20
163.730367
30
0.0
10
112.409924
20
162.334059
30
0.0
10
111.910791
20
154.670932
30
0.0
10
111.491674
20
149.873154
30
0.0
10
111.054698
20
143.523154
30
0.0
10
110.763005
20
139.411659
30
0.0
10
110.488623
20
135.601659
30
0.0
10
110.223481
20
130.682043
30
0.0
10
109.922609
20
125.602043
30
0.0
10
109.640906
20
121.368710
30
0.0
10
109.077043
20
111.914265
30
0.0
10
108.798222
20
106.410932
30
0.0
10
108.518652
20
100.202043
30
0.0
10
108.230512
20
94.134265
30
0.0
10
107.963448
20
88.772043
30
0.0
10
107.553131
20
80.378601
30
0.0
10
107.280970
20
78.047223
30
0.0
10
107.082615
20
76.424446
30
0.0
10
106.877146
20
73.108710
30
0.0
10
106.509469
20
68.241825
30
0.0
10
106.130138
20
60.354426
30
0.0
10
105.367977
20
36.285568
30
0.0
10
105.153604
20
32.008883
30
0.0
10
104.822408
20
29.088901
30
0.0
10
103.822336
20
25.349061
30
0.0
10
103.295718
20
23.895726
30
0.0
10
102.884532
20
23.129581
30
0.0
10
102.045835
20
21.148156
30
0.0
10
101.014431
20
18.357596
30
0.0
10
100.459608
20
16.946485
30
0.0
10
100.199266
20
16.523152
30
0.0
10
98.913109
20
14.335929
30
0.0
10
98.074632
20
12.890863
30
0.0
10
97.558753
20
12.289818
30
0.0
10
97.405018
20
12.241459
30
0.0
10
97.437231
20
12.125198
30
0.0
10
97.394603
20
11.850017
30
0.0
10
97.060935
20
11.419642
30
0.0
10
96.678906
20
10.908355
30
0.0
10
96.520008
20
10.438723
30
0.0
10
96.446728
20
10.173264
30
0.0
10
96.270541
20
10.152916
30
0.0
10
95.986592
20
9.993415
30
0.0
10
95.654227
20
9.393456
30
0.0
10
95.203124
20
8.550360
30
0.0
10
94.633697
20
7.806323
30
0.0
10
94.172030
20
7.212739
30
0.0
10
93.980008
20
6.731339
30
0.0
10
93.897106
20
6.499024
30
0.0
10
93.697786
20
6.504263
30
0.0
10
93.498001
20
6.518928
30
0.0
10
93.413978
20
6.309247
30
0.0
10
92.922939
20
5.497064
30
0.0
10
91.753712
20
4.233330
30
0.0
10
90.356420
20
2.962563
30
0.0
10
89.181184
20
2.129282
30
0.0
10
88.155160
20
1.755907
30
0.0
10
87.000635
20
1.605830
30
0.0
10
85.752976
20
1.680162
30
0.0
10
84.447552
20
1.980015
30
0.0
10
84.447544
20
1.980015
30
0.0
0
LWPOLYLINE
100
AcDbPolyline
8
Layer_1
90
65
70
0
10
105.958705
20
71.344821
30
0.0
10
106.420751
20
76.636488
30
0.0
10
106.841256
20
82.422043
30
0.0
10
107.111924
20
88.348710
30
0.0
10
107.405427
20
94.416488
30
0.0
10
107.931136
20
104.153154
30
0.0
10
108.225347
20
109.656488
30
0.0
10
108.658747
20
118.546488
30
0.0
10
109.108423
20
127.436488
30
0.0
10
109.936565
20
139.289821
30
0.0
10
110.409787
20
145.633882
30
0.0
10
110.624518
20
147.002037
30
0.0
10
110.874593
20
147.610514
30
0.0
10
111.195251
20
148.030720
30
0.0
10
110.843560
20
147.788274
30
0.0
10
110.576330
20
147.622329
30
0.0
10
110.450743
20
147.731642
30
0.0
10
110.529534
20
149.204248
30
0.0
10
110.748252
20
150.593484
30
0.0
10
111.022638
20
151.408996
30
0.0
10
111.193274
20
151.683555
30
0.0
10
110.973317
20
151.597473
30
0.0
10
110.802606
20
151.565911
30
0.0
10
110.714362
20
151.761174
30
0.0
10
110.755915
20
153.024964
30
0.0
10
111.213175
20
158.763154
30
0.0
10
111.796031
20
165.677599
30
0.0
10
112.125458
20
169.910932
30
0.0
10
112.241319
20
171.023967
30
0.0
10
112.438606
20
171.718427
30
0.0
10
112.549848
20
171.977223
30
0.0
10
112.297495
20
171.888689
30
0.0
10
112.055756
20
171.785952
30
0.0
10
112.211976
20
172.000726
30
0.0
10
112.392718
20
172.442537
30
0.0
10
112.390741
20
173.029908
30
0.0
10
112.093852
20
173.558166
30
0.0
10
111.587684
20
173.747420
30
0.0
10
111.049927
20
173.591924
30
0.0
10
110.658272
20
173.085932
30
0.0
10
110.138277
20
170.174066
30
0.0
10
109.666806
20
165.818710
30
0.0
10
109.508208
20
164.266488
30
0.0
10
109.352379
20
162.573154
30
0.0
10
108.830988
20
156.364265
30
0.0
10
108.520473
20
152.272043
30
0.0
10
108.203334
20
148.320932
30
0.0
10
107.949373
20
145.075377
30
0.0
10
107.677156
20
140.983154
30
0.0
10
106.541118
20
122.497599
30
0.0
10
106.281686
20
114.736488
30
0.0
10
105.965557
20
104.012043
30
0.0
10
105.687597
20
95.827599
30
0.0
10
105.407979
20
90.606488
30
0.0
10
104.975352
20
84.182405
30
0.0
10
104.527189
20
79.740932
30
0.0
10
104.289349
20
78.047599
30
0.0
10
104.046596
20
76.213154
30
0.0
10
103.693385
20
73.027856
30
0.0
10
103.706354
20
71.008728
30
0.0
10
104.120511
20
70.797625
30
0.0
10
104.856833
20
70.709821
30
0.0
10
105.656795
20
70.836713
30
0.0
10
105.958705
20
71.344821
30
0.0
10
105.958705
20
71.344821
30
0.0
0
LWPOLYLINE
100
AcDbPolyline
8
Layer_1
90
16
70
0
10
31.744025
20
210.072684
30
0.0
10
31.862188
20
214.015701
30
0.0
10
31.900675
20
222.180047
30
0.0
10
31.860047
20
230.305358
30
0.0
10
31.740864
20
234.131273
30
0.0
10
30.358880
20
234.321153
30
0.0
10
27.214790
20
234.398710
30
0.0
10
22.854005
20
234.398710
30
0.0
10
22.927558
20
222.192599
30
0.0
10
23.001111
20
209.986488
30
0.0
10
24.412222
20
209.832742
30
0.0
10
28.704822
20
209.670342
30
0.0
10
31.028483
20
209.747636
30
0.0
10
31.535754
20
209.872370
30
0.0
10
31.744025
20
210.072684
30
0.0
10
31.744025
20
210.072684
30
0.0
0
LWPOLYLINE
100
AcDbPolyline
8
Layer_1
90
32
70
0
10
41.829897
20
212.597043
30
0.0
10
41.910000
20
215.630932
30
0.0
10
43.080282
20
212.667599
30
0.0
10
44.250565
20
209.704265
30
0.0
10
49.362730
20
209.627332
30
0.0
10
54.474895
20
209.550398
30
0.0
10
54.401336
20
221.762887
30
0.0
10
54.327778
20
233.975377
30
0.0
10
50.540415
20
234.054458
30
0.0
10
47.733789
20
234.033603
30
0.0
10
46.474580
20
233.855068
30
0.0
10
46.262982
20
232.908398
30
0.0
10
46.145289
20
231.023406
30
0.0
10
45.955133
20
228.330879
30
0.0
10
45.432882
20
229.095611
30
0.0
10
44.372919
20
231.129880
30
0.0
10
43.191345
20
233.289210
30
0.0
10
42.420018
20
234.225513
30
0.0
10
40.685012
20
234.324315
30
0.0
10
37.645709
20
234.273277
30
0.0
10
34.705631
20
234.120288
30
0.0
10
33.268302
20
233.913234
30
0.0
10
33.094368
20
230.160368
30
0.0
10
33.015047
20
222.130086
30
0.0
10
33.043538
20
214.014335
30
0.0
10
33.193036
20
210.005064
30
0.0
10
33.436663
20
209.778391
30
0.0
10
34.098773
20
209.643998
30
0.0
10
37.556203
20
209.563154
30
0.0
10
41.749794
20
209.563154
30
0.0
10
41.829897
20
212.597043
30
0.0
10
41.829897
20
212.597043
30
0.0
0
LWPOLYLINE
100
AcDbPolyline
8
Layer_1
90
30
70
0
10
70.347250
20
210.126696
30
0.0
10
71.704744
20
210.826558
30
0.0
10
72.956672
20
211.811821
30
0.0
10
73.946768
20
212.935496
30
0.0
10
74.518766
20
214.050592
30
0.0
10
74.777823
20
216.187608
30
0.0
10
74.983007
20
219.898962
30
0.0
10
75.016110
20
223.588333
30
0.0
10
74.862098
20
226.810949
30
0.0
10
74.539518
20
229.342869
30
0.0
10
74.066916
20
230.960154
30
0.0
10
73.447078
20
231.865054
30
0.0
10
72.563147
20
232.742431
30
0.0
10
71.568805
20
233.461649
30
0.0
10
70.617735
20
233.892076
30
0.0
10
68.804636
20
234.144861
30
0.0
10
65.782724
20
234.348093
30
0.0
10
59.083194
20
234.459704
30
0.0
10
56.583839
20
234.295790
30
0.0
10
56.199017
20
234.078562
30
0.0
10
56.043624
20
233.682376
30
0.0
10
55.886178
20
221.457935
30
0.0
10
55.903732
20
209.930706
30
0.0
10
58.053777
20
209.889838
30
0.0
10
60.346734
20
209.706063
30
0.0
10
64.665349
20
209.563154
30
0.0
10
68.341176
20
209.668682
30
0.0
10
69.419249
20
209.840369
30
0.0
10
70.347261
20
210.126696
30
0.0
10
70.347250
20
210.126696
30
0.0
0
LWPOLYLINE
100
AcDbPolyline
8
Layer_1
90
13
70
0
10
65.099260
20
216.806859
30
0.0
10
64.911111
20
222.310192
30
0.0
10
64.989160
20
226.890423
30
0.0
10
65.157666
20
227.515868
30
0.0
10
65.475556
20
227.625377
30
0.0
10
65.793734
20
227.512929
30
0.0
10
65.962208
20
226.866904
30
0.0
10
66.040000
20
222.122043
30
0.0
10
65.964620
20
217.721141
30
0.0
10
65.849364
20
216.860142
30
0.0
10
65.663705
20
216.618710
30
0.0
10
65.099260
20
216.806859
30
0.0
10
65.099260
20
216.806859
30
0.0
0
LWPOLYLINE
100
AcDbPolyline
8
Layer_1
90
65
70
0
10
111.195556
20
210.332899
30
0.0
10
112.507996
20
211.035565
30
0.0
10
113.422618
20
211.778022
30
0.0
10
114.036632
20
212.663815
30
0.0
10
114.447247
20
213.796488
30
0.0
10
114.714254
20
215.377626
30
0.0
10
114.843284
20
217.273580
30
0.0
10
114.819224
20
218.967528
30
0.0
10
114.626963
20
219.942647
30
0.0
10
114.307444
20
220.109939
30
0.0
10
113.534451
20
220.208060
30
0.0
10
110.186287
20
220.224869
30
0.0
10
105.974444
20
220.146488
30
0.0
10
105.833333
20
218.475125
30
0.0
10
105.637081
20
217.262983
30
0.0
10
105.363394
20
216.695700
30
0.0
10
105.150835
20
216.698862
30
0.0
10
104.981316
20
216.888147
30
0.0
10
104.757109
20
217.976105
30
0.0
10
104.668024
20
224.046672
30
0.0
10
104.781527
20
227.187108
30
0.0
10
104.974412
20
227.564548
30
0.0
10
105.339444
20
227.574450
30
0.0
10
105.677785
20
227.486001
30
0.0
10
105.857704
20
227.278557
30
0.0
10
105.887458
20
226.121869
30
0.0
10
105.899829
20
224.897045
30
0.0
10
106.061872
20
224.513308
30
0.0
10
106.391031
20
224.251193
30
0.0
10
107.740332
20
223.999334
30
0.0
10
110.327000
20
223.956488
30
0.0
10
113.324747
20
224.039424
30
0.0
10
114.525778
20
224.295154
30
0.0
10
114.774192
20
225.197898
30
0.0
10
114.859301
20
226.870936
30
0.0
10
114.780160
20
228.750731
30
0.0
10
114.535825
20
230.273744
30
0.0
10
114.057955
20
231.320071
30
0.0
10
113.279725
20
232.399634
30
0.0
10
112.365036
20
233.318916
30
0.0
10
111.477786
20
233.884399
30
0.0
10
108.567996
20
234.517703
30
0.0
10
106.943316
20
234.693961
30
0.0
10
105.321260
20
234.709227
30
0.0
10
103.735108
20
234.571477
30
0.0
10
102.218142
20
234.288689
30
0.0
10
100.803645
20
233.868841
30
0.0
10
99.524899
20
233.319908
30
0.0
10
98.415186
20
232.649870
30
0.0
10
97.507786
20
231.866702
30
0.0
10
96.661120
20
230.975394
30
0.0
10
96.661120
20
221.892052
30
0.0
10
96.690251
20
215.979472
30
0.0
10
96.926455
20
212.877159
30
0.0
10
97.191964
20
212.031392
30
0.0
10
97.592948
20
211.470039
30
0.0
10
98.912945
20
210.643035
30
0.0
10
100.089896
20
210.165306
30
0.0
10
101.581491
20
209.868359
30
0.0
10
103.610023
20
209.724350
30
0.0
10
106.397786
20
209.705431
30
0.0
10
109.500719
20
209.846812
30
0.0
10
110.412909
20
210.032218
30
0.0
10
111.195564
20
210.332899
30
0.0
10
111.195556
20
210.332899
30
0.0
0
LWPOLYLINE
100
AcDbPolyline
8
Layer_1
90
17
70
0
10
145.707602
20
209.915932
30
0.0
10
145.708420
20
221.810233
30
0.0
10
145.470962
20
233.771288
30
0.0
10
145.213109
20
233.940074
30
0.0
10
144.492163
20
234.038175
30
0.0
10
141.187616
20
234.053510
30
0.0
10
137.018889
20
233.975377
30
0.0
10
136.828135
20
232.282043
30
0.0
10
136.734023
20
228.006599
30
0.0
10
136.758667
20
220.468019
30
0.0
10
136.869494
20
213.221198
30
0.0
10
137.033934
20
209.821032
30
0.0
10
138.476761
20
209.599746
30
0.0
10
141.410230
20
209.552817
30
0.0
10
144.323969
20
209.663721
30
0.0
10
145.707602
20
209.915932
30
0.0
10
145.707602
20
209.915932
30
0.0
0
LWPOLYLINE
100
AcDbPolyline
8
Layer_1
90
32
70
0
10
155.606152
20
212.738154
30
0.0
10
155.566597
20
214.763464
30
0.0
10
155.612422
20
215.254746
30
0.0
10
155.722228
20
215.392979
30
0.0
10
156.194517
20
214.593894
30
0.0
10
157.104935
20
212.333408
30
0.0
10
158.184542
20
209.563154
30
0.0
10
163.338634
20
209.563154
30
0.0
10
168.492726
20
209.563154
30
0.0
10
168.419142
20
221.628154
30
0.0
10
168.345556
20
233.693154
30
0.0
10
164.676667
20
233.693154
30
0.0
10
160.513889
20
233.490344
30
0.0
10
160.256456
20
233.279377
30
0.0
10
160.106679
20
232.788891
30
0.0
10
160.019777
20
230.244788
30
0.0
10
160.019554
20
227.202043
30
0.0
10
159.501112
20
228.330932
30
0.0
10
158.174461
20
231.294265
30
0.0
10
157.062266
20
233.479490
30
0.0
10
155.663376
20
233.729233
30
0.0
10
152.817367
20
233.867769
30
0.0
10
149.781714
20
233.865883
30
0.0
10
147.813889
20
233.694359
30
0.0
10
147.037778
20
233.490852
30
0.0
10
147.037778
20
221.715152
30
0.0
10
147.093046
20
213.343294
30
0.0
10
147.225927
20
209.751303
30
0.0
10
151.566685
20
209.563154
30
0.0
10
155.719297
20
209.563154
30
0.0
10
155.606152
20
212.738154
30
0.0
10
155.606152
20
212.738154
30
0.0
0
LWPOLYLINE
100
AcDbPolyline
8
Layer_1
90
40
70
0
10
186.548889
20
213.201848
30
0.0
10
186.466355
20
216.199492
30
0.0
10
186.330484
20
216.785791
30
0.0
10
186.102473
20
217.011848
30
0.0
10
183.280250
20
217.183154
30
0.0
10
181.271976
20
217.270473
30
0.0
10
180.968025
20
217.440138
30
0.0
10
180.904444
20
217.747599
30
0.0
10
180.975145
20
218.058095
30
0.0
10
181.328933
20
218.227422
30
0.0
10
183.735909
20
218.312043
30
0.0
10
186.567374
20
218.312043
30
0.0
10
186.487576
20
221.487043
30
0.0
10
186.407778
20
224.662043
30
0.0
10
183.656111
20
224.742818
30
0.0
10
181.335584
20
224.897775
30
0.0
10
180.980132
20
225.074940
30
0.0
10
180.904444
20
225.377818
30
0.0
10
180.977439
20
225.681205
30
0.0
10
181.334283
20
225.847632
30
0.0
10
183.726667
20
225.932043
30
0.0
10
186.548889
20
225.932043
30
0.0
10
186.548889
20
229.711848
30
0.0
10
186.468421
20
232.730004
30
0.0
10
186.350425
20
233.388732
30
0.0
10
186.165112
20
233.638923
30
0.0
10
183.360598
20
233.774921
30
0.0
10
177.801610
20
233.816897
30
0.0
10
172.333851
20
233.766915
30
0.0
10
169.803022
20
233.627041
30
0.0
10
169.635994
20
229.867462
30
0.0
10
169.493425
20
221.895761
30
0.0
10
169.429349
20
213.889788
30
0.0
10
169.497798
20
210.027393
30
0.0
10
169.846849
20
209.779136
30
0.0
10
171.026611
20
209.639077
30
0.0
10
178.112417
20
209.563149
30
0.0
10
186.548889
20
209.563154
30
0.0
10
186.548889
20
213.201848
30
0.0
10
186.548889
20
213.201848
30
0.0
0
LWPOLYLINE
100
AcDbPolyline
8
Layer_1
90
7
70
0
10
240.906066
20
210.333387
30
0.0
10
240.792189
20
210.294911
30
0.0
10
240.757837
20
209.962970
30
0.0
10
240.814387
20
209.669998
30
0.0
10
240.928344
20
209.792460
30
0.0
10
240.906077
20
210.333387
30
0.0
10
240.906066
20
210.333387
30
0.0
0
LWPOLYLINE
100
AcDbPolyline
8
Layer_1
90
38
70
0
10
91.860404
20
210.833154
30
0.0
10
92.851006
20
211.420246
30
0.0
10
93.643737
20
212.129468
30
0.0
10
94.258939
20
213.030073
30
0.0
10
94.716958
20
214.191309
30
0.0
10
95.038137
20
215.682429
30
0.0
10
95.242820
20
217.572684
30
0.0
10
95.384078
20
222.827599
30
0.0
10
95.278038
20
228.034027
30
0.0
10
94.864675
20
231.278141
30
0.0
10
94.501099
20
232.330541
30
0.0
10
94.010714
20
233.091817
30
0.0
10
93.376861
20
233.628454
30
0.0
10
92.582881
20
234.006935
30
0.0
10
91.270502
20
234.314211
30
0.0
10
89.496489
20
234.493261
30
0.0
10
85.259660
20
234.500326
30
0.0
10
81.264591
20
234.095414
30
0.0
10
79.792779
20
233.759493
30
0.0
10
78.903480
20
233.345809
30
0.0
10
77.421887
20
231.859640
30
0.0
10
76.942080
20
231.020961
30
0.0
10
76.604252
20
229.981867
30
0.0
10
76.258494
20
226.892383
30
0.0
10
76.192535
20
221.771080
30
0.0
10
76.251277
20
217.125971
30
0.0
10
76.511699
20
214.405342
30
0.0
10
76.765498
20
213.533273
30
0.0
10
77.127268
20
212.862202
30
0.0
10
78.251456
20
211.749564
30
0.0
10
79.666417
20
210.811307
30
0.0
10
81.258456
20
210.242774
30
0.0
10
83.338853
20
209.972903
30
0.0
10
86.218889
20
209.930627
30
0.0
10
89.848912
20
210.098806
30
0.0
10
90.828556
20
210.358667
30
0.0
10
91.860404
20
210.833154
30
0.0
10
91.860404
20
210.833154
30
0.0
0
LWPOLYLINE
100
AcDbPolyline
8
Layer_1
90
15
70
0
10
85.457527
20
217.818154
30
0.0
10
85.416250
20
220.643122
30
0.0
10
85.528415
20
223.815405
30
0.0
10
85.742559
20
226.423414
30
0.0
10
86.007222
20
227.555560
30
0.0
10
86.178102
20
227.346495
30
0.0
10
86.286508
20
226.467293
30
0.0
10
86.360000
20
222.004450
30
0.0
10
86.284359
20
217.385803
30
0.0
10
86.159989
20
216.552857
30
0.0
10
85.951416
20
216.336488
30
0.0
10
85.758879
20
216.418115
30
0.0
10
85.617264
20
216.677632
30
0.0
10
85.457527
20
217.818154
30
0.0
10
85.457527
20
217.818154
30
0.0
0
LWPOLYLINE
100
AcDbPolyline
8
Layer_1
90
36
70
0
10
124.752882
20
213.020377
30
0.0
10
124.920310
20
217.324265
30
0.0
10
125.268022
20
218.592849
30
0.0
10
125.489226
20
218.880581
30
0.0
10
125.701445
20
218.857672
30
0.0
10
125.896754
20
215.348710
30
0.0
10
126.093403
20
210.944522
30
0.0
10
126.216704
20
209.927004
30
0.0
10
130.674547
20
209.871028
30
0.0
10
133.883083
20
209.907080
30
0.0
10
135.293416
20
210.075597
30
0.0
10
135.517221
20
222.155758
30
0.0
10
135.579999
20
233.975377
30
0.0
10
130.937223
20
233.975377
30
0.0
10
126.294444
20
233.975377
30
0.0
10
126.153333
20
230.531645
30
0.0
10
125.807681
20
227.173103
30
0.0
10
125.537592
20
226.547033
30
0.0
10
125.383705
20
226.519803
30
0.0
10
125.219341
20
226.691681
30
0.0
10
124.865474
20
230.667382
30
0.0
10
124.662636
20
234.398710
30
0.0
10
120.327984
20
234.398710
30
0.0
10
115.993333
20
234.398710
30
0.0
10
115.993333
20
222.232959
30
0.0
10
116.065369
20
212.210192
30
0.0
10
116.190894
20
210.556094
30
0.0
10
116.286381
20
210.268461
30
0.0
10
116.407627
20
210.226190
30
0.0
10
116.749223
20
210.259188
30
0.0
10
116.988728
20
210.115274
30
0.0
10
118.212714
20
209.924055
30
0.0
10
120.948879
20
209.845377
30
0.0
10
124.742222
20
209.845377
30
0.0
10
124.752890
20
213.020377
30
0.0
10
124.752882
20
213.020377
30
0.0
0
LWPOLYLINE
100
AcDbPolyline
8
Layer_1
90
33
70
0
10
189.437346
20
235.927635
30
0.0
10
189.590903
20
236.075913
30
0.0
10
189.649013
20
235.945161
30
0.0
10
190.214252
20
235.774035
30
0.0
10
191.475437
20
235.707759
30
0.0
10
192.790739
20
235.751859
30
0.0
10
193.518327
20
235.911858
30
0.0
10
193.498910
20
236.524470
30
0.0
10
193.250835
20
236.762030
30
0.0
10
192.544023
20
236.888766
30
0.0
10
188.595711
20
236.898028
30
0.0
10
185.114981
20
236.757541
30
0.0
10
183.660443
20
236.523993
30
0.0
10
183.504130
20
236.378257
30
0.0
10
183.448777
20
236.519590
30
0.0
10
182.580668
20
236.699115
30
0.0
10
180.652946
20
236.778227
30
0.0
10
178.670293
20
236.745108
30
0.0
10
177.637392
20
236.587942
30
0.0
10
176.671122
20
236.656485
30
0.0
10
175.701300
20
236.721475
30
0.0
10
170.388387
20
236.503015
30
0.0
10
164.751531
20
236.400538
30
0.0
10
164.097384
20
236.289469
30
0.0
10
164.115078
20
236.087437
30
0.0
10
164.296722
20
235.917297
30
0.0
10
164.484513
20
235.911012
30
0.0
10
165.241122
20
235.804383
30
0.0
10
169.374223
20
235.624598
30
0.0
10
177.591731
20
235.599509
30
0.0
10
185.682992
20
235.707670
30
0.0
10
189.437357
20
235.927632
30
0.0
10
189.437346
20
235.927635
30
0.0
0
LWPOLYLINE
100
AcDbPolyline
8
Layer_1
90
39
70
0
10
162.136667
20
239.887382
30
0.0
10
168.768889
20
240.147938
30
0.0
10
176.247778
20
240.471029
30
0.0
10
182.372233
20
240.784198
30
0.0
10
189.970288
20
240.978636
30
0.0
10
207.010000
20
240.969554
30
0.0
10
221.967778
20
240.748710
30
0.0
10
224.225556
20
240.748710
30
0.0
10
224.225556
20
241.822026
30
0.0
10
224.225556
20
242.895343
30
0.0
10
215.053333
20
242.871919
30
0.0
10
198.684444
20
242.691519
30
0.0
10
190.447605
20
242.553376
30
0.0
10
189.028299
20
242.599291
30
0.0
10
188.523632
20
242.724759
30
0.0
10
188.323617
20
242.739070
30
0.0
10
188.237901
20
242.529247
30
0.0
10
188.178602
20
242.336398
30
0.0
10
188.026235
20
242.442035
30
0.0
10
187.651446
20
242.637186
30
0.0
10
187.057689
20
242.729250
30
0.0
10
186.508314
20
242.703054
30
0.0
10
186.266667
20
242.543426
30
0.0
10
186.006155
20
242.474706
30
0.0
10
185.379820
20
242.594678
30
0.0
10
184.241034
20
242.693317
30
0.0
10
182.235105
20
242.576711
30
0.0
10
180.198889
20
242.585714
30
0.0
10
149.295556
20
242.459397
30
0.0
10
118.674444
20
242.363162
30
0.0
10
118.588877
20
241.523845
30
0.0
10
118.570647
20
241.061461
30
0.0
10
118.681790
20
240.787420
30
0.0
10
119.576655
20
240.513339
30
0.0
10
124.601111
20
240.160107
30
0.0
10
130.668889
20
239.756947
30
0.0
10
145.944861
20
239.670221
30
0.0
10
162.136667
20
239.887371
30
0.0
10
162.136667
20
239.887382
30
0.0
  0
ENDSEC
  0
SECTION
  2
OBJECTS
  0
DICTIONARY
  5
C
330
0
100
AcDbDictionary
  3
ACAD_GROUP
350
D
  3
ACAD_MLINESTYLE
350
17
  0
DICTIONARY
  5
D
330
C
100
AcDbDictionary
  0
DICTIONARY
  5
1A
330
C
100
AcDbDictionary
  0
DICTIONARY
  5
17
330
C
100
AcDbDictionary
  3
STANDARD
350
18
  0
DICTIONARY
  5
19
330
C
100
AcDbDictionary
  0
ENDSEC
  0
EOF
