999
Inkscape export via OpenSCAD DXF Export
  0
SECTION
  2
HEADER
  9
$ACADVER
  1
AC1014
  9
$HANDSEED
  5
FFFF
  9
$MEASUREMENT
 70
     1
  0
ENDSEC
  0
SECTION
  2
TABLES
  0
TABLE
  2
VPORT
  5
8
330
0
100
AcDbSymbolTable
 70
     4
  0
VPORT
  5
2E
330
8
100
AcDbSymbolTableRecord
100
AcDbViewportTableRecord
  2
*ACTIVE
 70
     0
 10
0.0
 20
0.0
 11
1.0
 21
1.0
 12
210.0
 22
148.5
 13
0.0
 23
0.0
 14
10.0
 24
10.0
 15
10.0
 25
10.0
 16
0.0
 26
0.0
 36
1.0
 17
0.0
 27
0.0
 37
0.0
 40
341.0
 41
1.24
 42
50.0
 43
0.0
 44
0.0
 50
0.0
 51
0.0
 71
     0
 72
   100
 73
     1
 74
     3
 75
     0
 76
     0
 77
     0
 78
     0
  0
ENDTAB
  0
TABLE
  2
LTYPE
  5
5
330
0
100
AcDbSymbolTable
 70
     1
  0
LTYPE
  5
14
330
5
100
AcDbSymbolTableRecord
100
AcDbLinetypeTableRecord
  2
BYBLOCK
 70
     0
  3

 72
    65
 73
     0
 40
0.0
  0
LTYPE
  5
15
330
5
100
AcDbSymbolTableRecord
100
AcDbLinetypeTableRecord
  2
BYLAYER
 70
     0
  3

 72
    65
 73
     0
 40
0.0
  0
LTYPE
  5
16
330
5
100
AcDbSymbolTableRecord
100
AcDbLinetypeTableRecord
  2
CONTINUOUS
 70
     0
  3
Solid line
 72
    65
 73
     0
 40
0.0
  0
ENDTAB
  0
TABLE
0
TABLE
2
LAYER
5
2
330
0
100
AcDbSymbolTable
70
1
0
LAYER
5
10
330
2
100
AcDbSymbolTableRecord
100
AcDbLayerTableRecord
2
Calque_1
70
0
62
7
6
CONTINUOUS
0
ENDTAB
0
ENDSEC
  0
ENDTAB
  0
TABLE
  2
STYLE
  5
3
330
0
100
AcDbSymbolTable
 70
     1
  0
STYLE
  5
11
330
3
100
AcDbSymbolTableRecord
100
AcDbTextStyleTableRecord
  2
STANDARD
 70
     0
 40
0.0
 41
1.0
 50
0.0
 71
     0
 42
2.5
  3
txt
  4

  0
ENDTAB
  0
TABLE
  2
VIEW
  5
6
330
0
100
AcDbSymbolTable
 70
     0
  0
ENDTAB
  0
TABLE
  2
UCS
  5
7
330
0
100
AcDbSymbolTable
 70
     0
  0
ENDTAB
  0
TABLE
  2
APPID
  5
9
330
0
100
AcDbSymbolTable
 70
     2
  0
APPID
  5
12
330
9
100
AcDbSymbolTableRecord
100
AcDbRegAppTableRecord
  2
ACAD
 70
     0
  0
ENDTAB
  0
TABLE
  2
DIMSTYLE
  5
A
330
0
100
AcDbSymbolTable
 70
     1
  0
DIMSTYLE
105
27
330
A
100
AcDbSymbolTableRecord
100
AcDbDimStyleTableRecord
  2
ISO-25
 70
     0
  3

  4

  5

  6

  7

 40
1.0
 41
2.5
 42
0.625
 43
3.75
 44
1.25
 45
0.0
 46
0.0
 47
0.0
 48
0.0
140
2.5
141
2.5
142
0.0
143
0.03937007874016
144
1.0
145
0.0
146
1.0
147
0.625
 71
     0
 72
     0
 73
     0
 74
     0
 75
     0
 76
     0
 77
     1
 78
     8
170
     0
171
     3
172
     1
173
     0
174
     0
175
     0
176
     0
177
     0
178
     0
270
     2
271
     2
272
     2
273
     2
274
     3
340
11
275
     0
280
     0
281
     0
282
     0
283
     0
284
     8
285
     0
286
     0
287
     3
288
     0
  0
ENDTAB
  0
TABLE
  2
BLOCK_RECORD
  5
1
330
0
100
AcDbSymbolTable
 70
     1
  0
BLOCK_RECORD
  5
1F
330
1
100
AcDbSymbolTableRecord
100
AcDbBlockTableRecord
  2
*MODEL_SPACE
  0
BLOCK_RECORD
  5
1B
330
1
100
AcDbSymbolTableRecord
100
AcDbBlockTableRecord
  2
*PAPER_SPACE
  0
ENDTAB
  0
ENDSEC
  0
SECTION
  2
BLOCKS
  0
BLOCK
  5
20
330
1F
100
AcDbEntity
  8
0
100
AcDbBlockBegin
  2
*MODEL_SPACE
 70
     0
 10
0.0
 20
0.0
 30
0.0
  3
*MODEL_SPACE
  1

  0
ENDBLK
  5
21
330
1F
100
AcDbEntity
  8
0
100
AcDbBlockEnd
  0
BLOCK
  5
1C
330
1B
100
AcDbEntity
 67
     1
  8
0
100
AcDbBlockBegin
  2
*PAPER_SPACE
  1

  0
ENDBLK
  5
1D
330
1B
100
AcDbEntity
 67
     1
  8
0
100
AcDbBlockEnd
  0
ENDSEC
  0
SECTION
  2
ENTITIES
0
DIMENSION
5
83
100
AcDbEntity
62
256
370
-1
6
ByLayer
1
total_width
3
Standard
70
0
71
5
72
1
41
1.0
100
AcDbAlignedDimension
13
-7.415282
23
0.000000
33
0.0
14
211.293924
24
0.000000
34
0.0
50
0.000000
100
AcDbRotatedDimension
0
DIMENSION
5
83
100
AcDbEntity
62
256
370
-1
6
ByLayer
1
total_height
3
Standard
70
0
71
5
72
1
41
1.0
100
AcDbAlignedDimension
13
0.000000
23
142.904990
33
0.0
14
0.000000
24
246.287015
34
0.0
50
90.000000
100
AcDbRotatedDimension
0
DIMENSION
8
Calque_1
5
83
100
AcDbEntity
62
256
370
-1
6
ByLayer
1
Calque_1_width
3
Standard
70
0
71
5
72
1
41
1.0
100
AcDbAlignedDimension
13
-7.415282
23
0.000000
33
0.0
14
211.293924
24
0.000000
34
0.0
50
0.000000
100
AcDbRotatedDimension
0
DIMENSION
8
Calque_1
5
83
100
AcDbEntity
62
256
370
-1
6
ByLayer
1
Calque_1_height
3
Standard
70
0
71
5
72
1
41
1.0
100
AcDbAlignedDimension
13
0.000000
23
142.904990
33
0.0
14
0.000000
24
246.287015
34
0.0
50
90.000000
100
AcDbRotatedDimension
0
LWPOLYLINE
100
AcDbPolyline
8
Calque_1
90
1631
70
0
10
14.453810
20
143.278909
30
0.0
10
11.794808
20
143.786423
30
0.0
10
9.331536
20
144.439404
30
0.0
10
7.042815
20
145.248761
30
0.0
10
4.907466
20
146.225404
30
0.0
10
2.904308
20
147.380239
30
0.0
10
1.012162
20
148.724175
30
0.0
10
-0.790152
20
150.268122
30
0.0
10
-2.523815
20
152.022986
30
0.0
10
-4.201524
20
154.093913
30
0.0
10
-5.413053
20
156.142418
30
0.0
10
-6.173844
20
158.200648
30
0.0
10
-6.499338
20
160.300753
30
0.0
10
-6.489208
20
162.004320
30
0.0
10
-6.266548
20
163.388986
30
0.0
10
-5.837903
20
164.430379
30
0.0
10
-5.209814
20
165.104125
30
0.0
10
-4.596240
20
165.511524
30
0.0
10
-5.021676
20
164.493314
30
0.0
10
-5.747371
20
162.075033
30
0.0
10
-5.833909
20
160.199918
30
0.0
10
-5.374165
20
158.157206
30
0.0
10
-4.425128
20
156.023749
30
0.0
10
-3.043788
20
153.876399
30
0.0
10
-1.287133
20
151.792010
30
0.0
10
0.787847
20
149.847433
30
0.0
10
3.124164
20
148.119522
30
0.0
10
5.664829
20
146.685128
30
0.0
10
9.271633
20
145.186423
30
0.0
10
12.860423
20
144.259537
30
0.0
10
16.883105
20
143.823555
30
0.0
10
21.791588
20
143.797560
30
0.0
10
26.758365
20
144.061616
30
0.0
10
30.560089
20
144.667104
30
0.0
10
33.694160
20
145.427665
30
0.0
10
36.744021
20
146.363808
30
0.0
10
39.708323
20
147.474882
30
0.0
10
42.585719
20
148.760232
30
0.0
10
45.374862
20
150.219207
30
0.0
10
48.074403
20
151.851153
30
0.0
10
50.682995
20
153.655419
30
0.0
10
53.199290
20
155.631350
30
0.0
10
56.842762
20
158.818656
30
0.0
10
56.830271
20
158.918618
30
0.0
10
56.472885
20
158.773817
30
0.0
10
54.772326
20
157.817895
30
0.0
10
52.595655
20
156.665683
30
0.0
10
50.288553
20
155.672492
30
0.0
10
47.888905
20
154.846891
30
0.0
10
45.434595
20
154.197449
30
0.0
10
42.963507
20
153.732736
30
0.0
10
40.513526
20
153.461323
30
0.0
10
38.122536
20
153.391778
30
0.0
10
35.828422
20
153.532672
30
0.0
10
32.612422
20
154.023417
30
0.0
10
29.607056
20
154.747252
30
0.0
10
26.840454
20
155.689347
30
0.0
10
24.340749
20
156.834874
30
0.0
10
22.136075
20
158.169004
30
0.0
10
20.254563
20
159.676910
30
0.0
10
18.724346
20
161.343762
30
0.0
10
17.573557
20
163.154731
30
0.0
10
16.752935
20
165.138899
30
0.0
10
16.243575
20
167.203808
30
0.0
10
16.031428
20
169.325424
30
0.0
10
16.102443
20
171.479712
30
0.0
10
16.442571
20
173.642637
30
0.0
10
17.037761
20
175.790163
30
0.0
10
17.873964
20
177.898256
30
0.0
10
18.937130
20
179.942880
30
0.0
10
20.213210
20
181.900000
30
0.0
10
21.688152
20
183.745581
30
0.0
10
23.347908
20
185.455589
30
0.0
10
25.178427
20
187.005987
30
0.0
10
27.165660
20
188.372741
30
0.0
10
29.295556
20
189.531816
30
0.0
10
31.554067
20
190.459177
30
0.0
10
33.927141
20
191.130788
30
0.0
10
35.802180
20
191.388881
30
0.0
10
37.887864
20
191.421595
30
0.0
10
39.950241
20
191.237469
30
0.0
10
41.755362
20
190.845043
30
0.0
10
43.224131
20
190.287661
30
0.0
10
44.673780
20
189.538196
30
0.0
10
46.079326
20
188.618565
30
0.0
10
47.415785
20
187.550682
30
0.0
10
48.658174
20
186.356462
30
0.0
10
49.781510
20
185.057820
30
0.0
10
50.760808
20
183.676672
30
0.0
10
51.571085
20
182.234932
30
0.0
10
52.461982
20
180.100739
30
0.0
10
53.008951
20
178.034349
30
0.0
10
53.211305
20
176.031596
30
0.0
10
53.068358
20
174.088314
30
0.0
10
52.579421
20
172.200339
30
0.0
10
51.743808
20
170.363504
30
0.0
10
50.560832
20
168.573645
30
0.0
10
49.029806
20
166.826595
30
0.0
10
47.431430
20
165.435438
30
0.0
10
45.605723
20
164.242896
30
0.0
10
43.640783
20
163.298630
30
0.0
10
41.624710
20
162.652302
30
0.0
10
39.966530
20
162.405777
30
0.0
10
37.957256
20
162.322217
30
0.0
10
35.927761
20
162.401936
30
0.0
10
34.208918
20
162.645247
30
0.0
10
32.688884
20
163.111535
30
0.0
10
31.305343
20
163.786923
30
0.0
10
30.078691
20
164.647962
30
0.0
10
29.029327
20
165.671206
30
0.0
10
28.177648
20
166.833209
30
0.0
10
27.544051
20
168.110522
30
0.0
10
27.148935
20
169.479700
30
0.0
10
27.012697
20
170.917296
30
0.0
10
27.119755
20
172.144562
30
0.0
10
27.450483
20
173.206149
30
0.0
10
28.019212
20
174.133747
30
0.0
10
28.840272
20
174.959051
30
0.0
10
29.725172
20
175.576459
30
0.0
10
30.702826
20
176.057312
30
0.0
10
32.843361
20
176.598625
30
0.0
10
35.075802
20
176.561536
30
0.0
10
36.168339
20
176.319386
30
0.0
10
37.214073
20
175.924590
30
0.0
10
38.442697
20
175.352996
30
0.0
10
37.172697
20
175.548410
30
0.0
10
35.752679
20
175.688330
30
0.0
10
34.384870
20
175.668589
30
0.0
10
33.086082
20
175.494879
30
0.0
10
31.873129
20
175.172893
30
0.0
10
30.762824
20
174.708322
30
0.0
10
29.771981
20
174.106860
30
0.0
10
28.917412
20
173.374198
30
0.0
10
28.215931
20
172.516028
30
0.0
10
27.792532
20
171.605631
30
0.0
10
27.599378
20
170.558497
30
0.0
10
27.646518
20
169.518280
30
0.0
10
27.944002
20
168.628634
30
0.0
10
28.787342
20
167.465605
30
0.0
10
29.986366
20
166.289885
30
0.0
10
31.411299
20
165.212887
30
0.0
10
32.932367
20
164.346025
30
0.0
10
34.146935
20
163.802433
30
0.0
10
35.110542
20
163.500870
30
0.0
10
37.589034
20
163.342891
30
0.0
10
39.687184
20
163.428459
30
0.0
10
41.542891
20
163.712683
30
0.0
10
43.328419
20
164.233675
30
0.0
10
45.216030
20
165.029542
30
0.0
10
47.071290
20
166.036505
30
0.0
10
48.504328
20
167.134833
30
0.0
10
49.632232
20
168.434146
30
0.0
10
50.572091
20
170.044066
30
0.0
10
51.183940
20
171.472653
30
0.0
10
51.626999
20
172.912273
30
0.0
10
51.904984
20
174.354345
30
0.0
10
52.021609
20
175.790286
30
0.0
10
51.980587
20
177.211513
30
0.0
10
51.785633
20
178.609445
30
0.0
10
51.440462
20
179.975498
30
0.0
10
50.948787
20
181.301091
30
0.0
10
49.540784
20
183.796567
30
0.0
10
47.591337
20
186.027213
30
0.0
10
46.422857
20
187.021769
30
0.0
10
45.130160
20
187.924370
30
0.0
10
43.716959
20
188.726435
30
0.0
10
42.186967
20
189.419381
30
0.0
10
40.736035
20
189.895743
30
0.0
10
39.232270
20
190.190843
30
0.0
10
37.687318
20
190.310248
30
0.0
10
36.112824
20
190.259527
30
0.0
10
34.520435
20
190.044247
30
0.0
10
32.921797
20
189.669976
30
0.0
10
29.752357
20
188.466732
30
0.0
10
26.697672
20
186.694337
30
0.0
10
23.850911
20
184.397332
30
0.0
10
21.305242
20
181.620260
30
0.0
10
20.174431
20
180.065618
30
0.0
10
19.153832
20
178.407662
30
0.0
10
17.817557
20
175.475861
30
0.0
10
17.062707
20
172.514620
30
0.0
10
16.908911
20
171.058827
30
0.0
10
16.907185
20
169.638716
30
0.0
10
17.059765
20
168.268634
30
0.0
10
17.368889
20
166.962928
30
0.0
10
17.949259
20
165.349582
30
0.0
10
18.669506
20
163.847627
30
0.0
10
19.530444
20
162.456132
30
0.0
10
20.532885
20
161.174168
30
0.0
10
21.677642
20
160.000805
30
0.0
10
22.965528
20
158.935113
30
0.0
10
24.397357
20
157.976163
30
0.0
10
25.973941
20
157.123024
30
0.0
10
28.840931
20
155.890784
30
0.0
10
31.582790
20
155.113267
30
0.0
10
34.602136
20
154.707804
30
0.0
10
38.301586
20
154.591722
30
0.0
10
42.446274
20
154.707349
30
0.0
10
45.357141
20
155.098811
30
0.0
10
49.847777
20
156.305771
30
0.0
10
53.858918
20
157.954665
30
0.0
10
55.722941
20
158.963809
30
0.0
10
57.513008
20
160.106202
30
0.0
10
60.932495
20
162.821091
30
0.0
10
65.732942
20
166.717907
30
0.0
10
70.500119
20
169.992798
30
0.0
10
72.371814
20
171.259888
30
0.0
10
69.797594
20
170.384821
30
0.0
10
67.419738
20
169.535498
30
0.0
10
65.491856
20
169.059644
30
0.0
10
63.822424
20
168.924743
30
0.0
10
62.219919
20
169.098277
30
0.0
10
60.629299
20
169.485060
30
0.0
10
59.306842
20
169.962326
30
0.0
10
58.335708
20
170.493512
30
0.0
10
57.799055
20
171.042055
30
0.0
10
57.488232
20
172.232882
30
0.0
10
57.662901
20
173.509979
30
0.0
10
58.255482
20
174.659598
30
0.0
10
59.198394
20
175.467991
30
0.0
10
59.789985
20
175.670599
30
0.0
10
60.434417
20
175.719575
30
0.0
10
61.719406
20
175.426709
30
0.0
10
62.728576
20
174.729553
30
0.0
10
63.028234
20
174.273166
30
0.0
10
63.137141
20
173.768265
30
0.0
10
63.048565
20
173.326371
30
0.0
10
62.811644
20
172.931341
30
0.0
10
62.065597
20
172.360892
30
0.0
10
61.244670
20
172.214950
30
0.0
10
60.914148
20
172.350554
30
0.0
10
60.694530
20
172.651548
30
0.0
10
60.614600
20
173.055378
30
0.0
10
60.730924
20
173.255657
30
0.0
10
61.002790
20
173.233683
30
0.0
10
61.389486
20
172.970759
30
0.0
10
61.820104
20
172.734875
30
0.0
10
62.199528
20
172.795168
30
0.0
10
62.469734
20
173.117466
30
0.0
10
62.572697
20
173.667596
30
0.0
10
62.482250
20
174.022697
30
0.0
10
62.235858
20
174.346437
30
0.0
10
61.424917
20
174.842121
30
0.0
10
60.439238
20
175.039212
30
0.0
10
59.578186
20
174.822277
30
0.0
10
59.071128
20
174.289569
30
0.0
10
58.718387
20
173.532343
30
0.0
10
58.560786
20
172.679400
30
0.0
10
58.639148
20
171.859540
30
0.0
10
59.048515
20
170.974151
30
0.0
10
59.759158
20
170.358819
30
0.0
10
60.852712
20
169.968018
30
0.0
10
62.410811
20
169.756225
30
0.0
10
64.786486
20
169.720706
30
0.0
10
67.000044
20
170.068112
30
0.0
10
69.427761
20
170.893527
30
0.0
10
72.445911
20
172.292031
30
0.0
10
76.533567
20
174.332709
30
0.0
10
73.669881
20
174.523102
30
0.0
10
71.205510
20
174.824878
30
0.0
10
68.501873
20
175.351174
30
0.0
10
66.190659
20
175.959117
30
0.0
10
64.903556
20
176.505835
30
0.0
10
64.090127
20
177.645547
30
0.0
10
63.853596
20
178.505474
30
0.0
10
63.982478
20
179.417965
30
0.0
10
64.462868
20
180.341122
30
0.0
10
65.280859
20
181.233048
30
0.0
10
66.364298
20
181.939802
30
0.0
10
67.817644
20
182.093821
30
0.0
10
69.154134
20
181.971123
30
0.0
10
70.181792
20
181.676126
30
0.0
10
70.940656
20
181.157639
30
0.0
10
71.573671
20
180.490482
30
0.0
10
72.007361
20
179.770223
30
0.0
10
72.168252
20
179.092427
30
0.0
10
72.004297
20
178.431626
30
0.0
10
71.571642
20
177.856354
30
0.0
10
70.959102
20
177.450023
30
0.0
10
70.255494
20
177.296043
30
0.0
10
69.210313
20
177.530545
30
0.0
10
68.484795
20
178.105305
30
0.0
10
68.225599
20
178.827203
30
0.0
10
68.316703
20
179.182979
30
0.0
10
68.579385
20
179.503119
30
0.0
10
68.983446
20
179.674155
30
0.0
10
69.326862
20
179.558374
30
0.0
10
69.526275
20
179.224783
30
0.0
10
69.498323
20
178.742389
30
0.0
10
69.470877
20
178.256493
30
0.0
10
69.976122
20
178.142709
30
0.0
10
70.536796
20
178.231766
30
0.0
10
70.960361
20
178.487085
30
0.0
10
71.228172
20
178.890892
30
0.0
10
71.321586
20
179.425412
30
0.0
10
71.142371
20
180.091030
30
0.0
10
70.622525
20
180.618152
30
0.0
10
69.788745
20
180.989068
30
0.0
10
68.667729
20
181.186067
30
0.0
10
66.628119
20
181.107890
30
0.0
10
65.877343
20
180.871416
30
0.0
10
65.315328
20
180.511825
30
0.0
10
64.949131
20
180.035473
30
0.0
10
64.785811
20
179.448714
30
0.0
10
64.832422
20
178.757906
30
0.0
10
65.096023
20
177.969402
30
0.0
10
66.048774
20
176.491162
30
0.0
10
67.386896
20
175.986232
30
0.0
10
69.793347
20
175.614877
30
0.0
10
72.880438
20
175.417251
30
0.0
10
76.260475
20
175.433509
30
0.0
10
82.704536
20
175.928003
30
0.0
10
85.280379
20
176.252356
30
0.0
10
86.447545
20
176.523482
30
0.0
10
83.249790
20
177.706899
30
0.0
10
77.620254
20
179.700662
30
0.0
10
71.665196
20
182.168055
30
0.0
10
65.642531
20
184.995075
30
0.0
10
59.810173
20
188.067717
30
0.0
10
57.688352
20
189.332359
30
0.0
10
57.091166
20
189.803493
30
0.0
10
56.783701
20
190.212295
30
0.0
10
56.751383
20
190.592608
30
0.0
10
56.979641
20
190.978274
30
0.0
10
58.159591
20
191.901043
30
0.0
10
59.205999
20
192.681977
30
0.0
10
59.159788
20
192.809831
30
0.0
10
58.794591
20
192.853543
30
0.0
10
57.845475
20
192.940222
30
0.0
10
54.247141
20
193.211609
30
0.0
10
51.152854
20
193.505082
30
0.0
10
48.104738
20
193.973977
30
0.0
10
45.185068
20
194.603157
30
0.0
10
42.476118
20
195.377481
30
0.0
10
39.353890
20
196.661853
30
0.0
10
34.846621
20
198.747175
30
0.0
10
30.737310
20
200.781072
30
0.0
10
28.808951
20
201.911169
30
0.0
10
28.997772
20
201.962932
30
0.0
10
29.668199
20
201.737153
30
0.0
10
30.681586
20
201.424465
30
0.0
10
29.127662
20
203.004836
30
0.0
10
27.959541
20
204.312712
30
0.0
10
27.221046
20
205.721367
30
0.0
10
26.829962
20
207.459861
30
0.0
10
26.704075
20
209.757254
30
0.0
10
26.824980
20
211.858430
30
0.0
10
27.244450
20
213.802669
30
0.0
10
27.995802
20
215.699253
30
0.0
10
29.112354
20
217.657464
30
0.0
10
30.162726
20
219.070464
30
0.0
10
31.379494
20
220.321445
30
0.0
10
32.759477
20
221.408760
30
0.0
10
34.299494
20
222.330760
30
0.0
10
35.996367
20
223.085799
30
0.0
10
37.846913
20
223.672229
30
0.0
10
39.847954
20
224.088401
30
0.0
10
41.996309
20
224.332669
30
0.0
10
43.860620
20
224.350839
30
0.0
10
45.681871
20
224.140307
30
0.0
10
47.451875
20
223.704811
30
0.0
10
49.162444
20
223.048088
30
0.0
10
50.805391
20
222.173877
30
0.0
10
52.372527
20
221.085914
30
0.0
10
53.855666
20
219.787939
30
0.0
10
55.246620
20
218.283687
30
0.0
10
56.247196
20
217.007253
30
0.0
10
56.950922
20
215.891257
30
0.0
10
57.440215
20
214.781972
30
0.0
10
57.797491
20
213.525671
30
0.0
10
58.131462
20
212.078633
30
0.0
10
62.962635
20
211.929730
30
0.0
10
66.367266
20
211.747876
30
0.0
10
69.176796
20
211.390504
30
0.0
10
71.801382
20
210.784931
30
0.0
10
74.651181
20
209.858476
30
0.0
10
76.157205
20
209.388395
30
0.0
10
76.885868
20
209.295138
30
0.0
10
76.893558
20
209.722630
30
0.0
10
76.425761
20
210.535895
30
0.0
10
74.010128
20
213.396148
30
0.0
10
71.681720
20
216.028296
30
0.0
10
69.935360
20
218.216241
30
0.0
10
68.905406
20
219.778494
30
0.0
10
68.701070
20
220.268269
30
0.0
10
68.726219
20
220.533562
30
0.0
10
69.834990
20
220.694690
30
0.0
10
72.049945
20
220.526086
30
0.0
10
74.756111
20
220.101837
30
0.0
10
77.338515
20
219.496029
30
0.0
10
79.164028
20
219.027673
30
0.0
10
80.057619
20
218.915876
30
0.0
10
80.276018
20
219.411051
30
0.0
10
80.478204
20
220.402016
30
0.0
10
81.604173
20
225.319869
30
0.0
10
83.325835
20
230.792634
30
0.0
10
84.930754
20
234.659117
30
0.0
10
86.150329
20
237.082264
30
0.0
10
91.622485
20
234.462993
30
0.0
10
95.982126
20
232.373918
30
0.0
10
97.007402
20
232.016825
30
0.0
10
97.499966
20
232.019505
30
0.0
10
100.949876
20
235.273772
30
0.0
10
103.134632
20
237.380001
30
0.0
10
104.233147
20
238.256043
30
0.0
10
104.653266
20
238.075030
30
0.0
10
105.227771
20
237.560754
30
0.0
10
106.716918
20
235.705006
30
0.0
10
108.454541
20
233.033972
30
0.0
10
110.194592
20
229.892827
30
0.0
10
111.700970
20
227.250666
30
0.0
10
114.193419
20
228.817863
30
0.0
10
115.977115
20
229.898289
30
0.0
10
116.994034
20
230.293357
30
0.0
10
117.308697
20
230.014764
30
0.0
10
117.446314
20
229.283489
30
0.0
10
117.207422
20
226.131104
30
0.0
10
116.972252
20
224.307277
30
0.0
10
117.924140
20
225.032315
30
0.0
10
127.015384
20
231.468316
30
0.0
10
129.702089
20
233.148155
30
0.0
10
130.314493
20
233.319037
30
0.0
10
130.784148
20
233.202431
30
0.0
10
131.493562
20
232.879201
30
0.0
10
131.393684
20
227.242024
30
0.0
10
131.457302
20
221.604886
30
0.0
10
136.927723
20
224.614315
30
0.0
10
137.851095
20
225.355813
30
0.0
10
138.516652
20
226.271467
30
0.0
10
138.919544
20
227.352215
30
0.0
10
139.054919
20
228.588992
30
0.0
10
138.908580
20
230.000545
30
0.0
10
138.650015
20
230.454852
30
0.0
10
138.200615
20
230.925400
30
0.0
10
137.410550
20
231.514943
30
0.0
10
136.589948
20
231.864940
30
0.0
10
135.804615
20
231.957264
30
0.0
10
135.120360
20
231.773791
30
0.0
10
134.525720
20
231.320377
30
0.0
10
134.068586
20
230.706875
30
0.0
10
133.792936
20
230.011816
30
0.0
10
133.742746
20
229.313730
30
0.0
10
133.975745
20
228.659668
30
0.0
10
134.635675
20
228.427589
30
0.0
10
135.266635
20
228.453027
30
0.0
10
135.251658
20
228.921478
30
0.0
10
135.221960
20
229.388254
30
0.0
10
135.649233
20
229.507154
30
0.0
10
136.030438
20
229.405911
30
0.0
10
136.209616
20
229.118274
30
0.0
10
136.181815
20
228.668378
30
0.0
10
135.942081
20
228.080360
30
0.0
10
135.500435
20
227.675556
30
0.0
10
134.601526
20
227.689222
30
0.0
10
133.620776
20
227.859547
30
0.0
10
133.095819
20
228.090150
30
0.0
10
132.884842
20
228.505506
30
0.0
10
132.846030
20
229.230091
30
0.0
10
132.960734
20
230.302963
30
0.0
10
133.301417
20
231.200433
30
0.0
10
133.862933
20
231.913317
30
0.0
10
134.640139
20
232.432432
30
0.0
10
136.029151
20
232.841624
30
0.0
10
137.297124
20
232.714805
30
0.0
10
138.404205
20
232.065006
30
0.0
10
139.310539
20
230.905260
30
0.0
10
139.760496
20
229.776405
30
0.0
10
139.889446
20
228.591668
30
0.0
10
139.698489
20
227.393330
30
0.0
10
139.188726
20
226.223673
30
0.0
10
138.725263
20
225.564215
30
0.0
10
138.100906
20
224.954169
30
0.0
10
135.950297
20
223.534158
30
0.0
10
133.505535
20
221.980242
30
0.0
10
135.211707
20
222.163972
30
0.0
10
139.533412
20
222.575579
30
0.0
10
144.672913
20
222.587793
30
0.0
10
150.240670
20
222.213776
30
0.0
10
155.847141
20
221.466691
30
0.0
10
163.514199
20
219.995157
30
0.0
10
172.921586
20
217.936195
30
0.0
10
178.824446
20
216.787807
30
0.0
10
185.273216
20
215.869837
30
0.0
10
191.320963
20
215.295375
30
0.0
10
196.020758
20
215.177512
30
0.0
10
198.661499
20
215.378903
30
0.0
10
200.776332
20
215.786232
30
0.0
10
202.588227
20
216.460940
30
0.0
10
204.320154
20
217.464469
30
0.0
10
206.343833
20
219.108622
30
0.0
10
207.067843
20
219.985590
30
0.0
10
207.622228
20
220.946709
30
0.0
10
208.023683
20
222.027646
30
0.0
10
208.288902
20
223.264069
30
0.0
10
208.477414
20
226.346045
30
0.0
10
208.363348
20
228.576224
30
0.0
10
208.008698
20
230.653077
30
0.0
10
207.382786
20
232.705787
30
0.0
10
206.454934
20
234.863540
30
0.0
10
205.768896
20
236.170236
30
0.0
10
205.025890
20
237.290297
30
0.0
10
202.727193
20
239.824637
30
0.0
10
201.274565
20
241.179804
30
0.0
10
199.832081
20
242.325970
30
0.0
10
198.379684
20
243.271961
30
0.0
10
196.897316
20
244.026605
30
0.0
10
195.364920
20
244.598729
30
0.0
10
193.762439
20
244.997159
30
0.0
10
192.069816
20
245.230723
30
0.0
10
190.266992
20
245.308248
30
0.0
10
187.187734
20
245.091752
30
0.0
10
184.559356
20
244.411898
30
0.0
10
183.387553
20
243.888088
30
0.0
10
182.296440
20
243.236288
30
0.0
10
180.313570
20
241.532521
30
0.0
10
179.168731
20
240.149619
30
0.0
10
178.333201
20
238.763640
30
0.0
10
177.808011
20
237.397701
30
0.0
10
177.594196
20
236.074919
30
0.0
10
177.692787
20
234.818412
30
0.0
10
178.104817
20
233.651295
30
0.0
10
178.831319
20
232.596688
30
0.0
10
179.873326
20
231.677705
30
0.0
10
181.028026
20
231.065311
30
0.0
10
182.204620
20
230.717204
30
0.0
10
183.354187
20
230.732932
30
0.0
10
184.330588
20
231.462358
30
0.0
10
185.130915
20
232.121387
30
0.0
10
185.319587
20
232.105183
30
0.0
10
185.447850
20
231.889293
30
0.0
10
185.500487
20
231.473560
30
0.0
10
185.354301
20
231.074463
30
0.0
10
184.571046
20
230.384863
30
0.0
10
183.309255
20
229.937858
30
0.0
10
181.780098
20
229.850813
30
0.0
10
180.398194
20
230.140772
30
0.0
10
179.179915
20
230.750618
30
0.0
10
178.168817
20
231.650849
30
0.0
10
177.408459
20
232.811959
30
0.0
10
177.051587
20
233.863852
30
0.0
10
176.908351
20
235.056846
30
0.0
10
176.967045
20
236.344652
30
0.0
10
177.215967
20
237.680984
30
0.0
10
177.643411
20
239.019554
30
0.0
10
178.237674
20
240.314075
30
0.0
10
178.987051
20
241.518258
30
0.0
10
179.879839
20
242.585817
30
0.0
10
181.874488
20
244.338831
30
0.0
10
183.924713
20
245.484869
30
0.0
10
186.234605
20
246.106680
30
0.0
10
189.008252
20
246.287015
30
0.0
10
191.442743
20
246.173389
30
0.0
10
193.591689
20
245.820657
30
0.0
10
195.671416
20
245.177894
30
0.0
10
197.898252
20
244.194173
30
0.0
10
199.718630
20
243.172976
30
0.0
10
201.413358
20
241.971264
30
0.0
10
202.976871
20
240.595703
30
0.0
10
204.403600
20
239.052958
30
0.0
10
205.687980
20
237.349694
30
0.0
10
206.824442
20
235.492578
30
0.0
10
207.807420
20
233.488273
30
0.0
10
208.631347
20
231.343447
30
0.0
10
209.043719
20
229.849482
30
0.0
10
209.293457
20
228.329062
30
0.0
10
209.382736
20
226.804186
30
0.0
10
209.313732
20
225.296848
30
0.0
10
209.088617
20
223.829047
30
0.0
10
208.709568
20
222.422780
30
0.0
10
208.178759
20
221.100043
30
0.0
10
207.498363
20
219.882834
30
0.0
10
206.475073
20
218.565492
30
0.0
10
205.219958
20
217.335055
30
0.0
10
203.871543
20
216.311455
30
0.0
10
202.568353
20
215.614618
30
0.0
10
201.547095
20
215.271751
30
0.0
10
200.274266
20
215.082792
30
0.0
10
194.652697
20
214.980713
30
0.0
10
188.471790
20
215.111913
30
0.0
10
182.940475
20
215.777901
30
0.0
10
174.282668
20
217.300761
30
0.0
10
162.620475
20
219.727584
30
0.0
10
156.210615
20
220.915812
30
0.0
10
149.904512
20
221.596685
30
0.0
10
143.321216
20
221.844949
30
0.0
10
140.615581
20
221.800913
30
0.0
10
138.944858
20
221.642097
30
0.0
10
138.129241
20
221.463821
30
0.0
10
139.279178
20
220.957658
30
0.0
10
140.265701
20
220.369503
30
0.0
10
141.190790
20
219.553442
30
0.0
10
141.922143
20
218.647050
30
0.0
10
142.327458
20
217.787901
30
0.0
10
142.427438
20
216.805790
30
0.0
10
142.249518
20
215.890361
30
0.0
10
141.833026
20
215.075355
30
0.0
10
141.217288
20
214.394513
30
0.0
10
140.441631
20
213.881577
30
0.0
10
139.545382
20
213.570289
30
0.0
10
138.567868
20
213.494389
30
0.0
10
137.548417
20
213.687619
30
0.0
10
136.607509
20
214.124063
30
0.0
10
135.829279
20
214.721863
30
0.0
10
135.299465
20
215.397546
30
0.0
10
135.103808
20
216.067639
30
0.0
10
135.310054
20
216.731848
30
0.0
10
135.845117
20
217.332749
30
0.0
10
136.583486
20
217.768195
30
0.0
10
137.399646
20
217.936043
30
0.0
10
138.067923
20
217.791126
30
0.0
10
138.693321
20
217.420247
30
0.0
10
139.156255
20
216.919210
30
0.0
10
139.337141
20
216.383821
30
0.0
10
139.197553
20
216.048113
30
0.0
10
138.877647
20
215.973051
30
0.0
10
138.525709
20
216.138652
30
0.0
10
138.290026
20
216.524932
30
0.0
10
138.004960
20
216.937178
30
0.0
10
137.514907
20
217.079488
30
0.0
10
136.938671
20
216.950390
30
0.0
10
136.395054
20
216.548413
30
0.0
10
136.118112
20
216.000444
30
0.0
10
136.193630
20
215.444886
30
0.0
10
136.582451
20
214.968740
30
0.0
10
137.245417
20
214.659011
30
0.0
10
138.152286
20
214.566537
30
0.0
10
139.237727
20
214.633435
30
0.0
10
140.237960
20
214.826793
30
0.0
10
140.889208
20
215.113696
30
0.0
10
141.213093
20
215.688644
30
0.0
10
141.292488
20
216.551402
30
0.0
10
141.134891
20
217.525826
30
0.0
10
140.747798
20
218.435771
30
0.0
10
139.981899
20
219.331286
30
0.0
10
138.890756
20
220.157516
30
0.0
10
137.650728
20
220.803112
30
0.0
10
136.438174
20
221.156726
30
0.0
10
135.179126
20
221.162501
30
0.0
10
133.786304
20
220.893598
30
0.0
10
132.506454
20
220.418685
30
0.0
10
131.586317
20
219.806434
30
0.0
10
131.272126
20
219.401462
30
0.0
10
131.048006
20
218.862586
30
0.0
10
130.763188
20
217.021843
30
0.0
10
130.158843
20
212.539265
30
0.0
10
129.899181
20
210.064374
30
0.0
10
130.632961
20
210.108896
30
0.0
10
132.102193
20
210.437293
30
0.0
10
134.680475
20
211.288572
30
0.0
10
136.288969
20
211.803447
30
0.0
10
137.333016
20
211.969255
30
0.0
10
137.526799
20
210.677033
30
0.0
10
137.651196
20
208.816836
30
0.0
10
137.538997
20
206.662460
30
0.0
10
137.216564
20
204.322173
30
0.0
10
136.710261
20
201.904239
30
0.0
10
136.046452
20
199.516925
30
0.0
10
135.251500
20
197.268498
30
0.0
10
134.351768
20
195.267223
30
0.0
10
133.373622
20
193.621368
30
0.0
10
132.846030
20
192.765616
30
0.0
10
134.342364
20
192.637355
30
0.0
10
135.464047
20
192.552003
30
0.0
10
136.380379
20
192.295060
30
0.0
10
137.225207
20
191.810141
30
0.0
10
138.132380
20
191.040860
30
0.0
10
139.140412
20
189.752530
30
0.0
10
139.400690
20
189.112076
30
0.0
10
139.497913
20
188.495783
30
0.0
10
139.431658
20
187.919919
30
0.0
10
139.201503
20
187.400750
30
0.0
10
138.807026
20
186.954544
30
0.0
10
138.247803
20
186.597565
30
0.0
10
137.502697
20
186.241183
30
0.0
10
138.747065
20
185.865749
30
0.0
10
140.825626
20
185.389483
30
0.0
10
143.481231
20
184.997715
30
0.0
10
146.360494
20
184.732399
30
0.0
10
149.110028
20
184.635488
30
0.0
10
152.221551
20
184.749359
30
0.0
10
155.235774
20
185.078240
30
0.0
10
158.106550
20
185.607701
30
0.0
10
160.787731
20
186.323314
30
0.0
10
163.233169
20
187.210648
30
0.0
10
165.396716
20
188.255273
30
0.0
10
167.232225
20
189.442761
30
0.0
10
168.693547
20
190.758681
30
0.0
10
169.750416
20
192.064590
30
0.0
10
170.668863
20
193.508031
30
0.0
10
171.438739
20
195.057311
30
0.0
10
172.049894
20
196.680737
30
0.0
10
172.492178
20
198.346615
30
0.0
10
172.755440
20
200.023253
30
0.0
10
172.829531
20
201.678956
30
0.0
10
172.704300
20
203.282032
30
0.0
10
172.269252
20
205.290637
30
0.0
10
171.553380
20
207.045043
30
0.0
10
170.487606
20
208.676525
30
0.0
10
169.002854
20
210.316356
30
0.0
10
166.711687
20
212.237925
30
0.0
10
164.283021
20
213.658114
30
0.0
10
161.755802
20
214.574581
30
0.0
10
159.168977
20
214.984982
30
0.0
10
156.561490
20
214.886976
30
0.0
10
153.972290
20
214.278221
30
0.0
10
151.440321
20
213.156373
30
0.0
10
149.004531
20
211.519091
30
0.0
10
147.988112
20
210.605022
30
0.0
10
147.170821
20
209.641582
30
0.0
10
146.550900
20
208.622794
30
0.0
10
146.126593
20
207.542682
30
0.0
10
145.896143
20
206.395267
30
0.0
10
145.857792
20
205.174573
30
0.0
10
146.009785
20
203.874623
30
0.0
10
146.350363
20
202.489439
30
0.0
10
146.981813
20
200.926384
30
0.0
10
147.866078
20
199.531602
30
0.0
10
148.985556
20
198.316404
30
0.0
10
150.322645
20
197.292095
30
0.0
10
151.859742
20
196.469984
30
0.0
10
153.579246
20
195.861379
30
0.0
10
155.463553
20
195.477588
30
0.0
10
157.495062
20
195.329919
30
0.0
10
159.261453
20
195.262895
30
0.0
10
159.219003
20
195.176321
30
0.0
10
158.669363
20
195.025926
30
0.0
10
157.609079
20
194.855142
30
0.0
10
156.443639
20
194.823196
30
0.0
10
153.948398
20
195.142475
30
0.0
10
151.485853
20
195.917082
30
0.0
10
149.358217
20
197.080337
30
0.0
10
148.288996
20
198.029922
30
0.0
10
147.273730
20
199.258911
30
0.0
10
146.414343
20
200.626152
30
0.0
10
145.812756
20
201.990490
30
0.0
10
145.510782
20
203.513530
30
0.0
10
145.432871
20
205.375731
30
0.0
10
145.573665
20
207.257982
30
0.0
10
145.927803
20
208.841169
30
0.0
10
146.681777
20
210.367610
30
0.0
10
147.808768
20
211.752326
30
0.0
10
149.254160
20
212.967991
30
0.0
10
150.963336
20
213.987281
30
0.0
10
152.881682
20
214.782871
30
0.0
10
154.954579
20
215.327436
30
0.0
10
157.127412
20
215.593650
30
0.0
10
159.345565
20
215.554189
30
0.0
10
161.271441
20
215.269597
30
0.0
10
163.097300
20
214.777173
30
0.0
10
164.814301
20
214.082593
30
0.0
10
166.413607
20
213.191534
30
0.0
10
167.886376
20
212.109674
30
0.0
10
169.223770
20
210.842687
30
0.0
10
170.416950
20
209.396252
30
0.0
10
171.457075
20
207.776046
30
0.0
10
172.292415
20
206.089245
30
0.0
10
172.898944
20
204.399503
30
0.0
10
173.276694
20
202.705241
30
0.0
10
173.425698
20
201.004879
30
0.0
10
173.345988
20
199.296837
30
0.0
10
173.037595
20
197.579536
30
0.0
10
172.500552
20
195.851395
30
0.0
10
171.734892
20
194.110834
30
0.0
10
170.383323
20
191.793769
30
0.0
10
168.321098
20
189.454086
30
0.0
10
166.853808
20
187.924348
30
0.0
10
169.393808
20
189.285308
30
0.0
10
176.830199
20
193.174528
30
0.0
10
181.561859
20
195.323433
30
0.0
10
187.337298
20
197.460520
30
0.0
10
192.394919
20
198.874971
30
0.0
10
196.348284
20
199.402883
30
0.0
10
200.907907
20
199.521144
30
0.0
10
205.254141
20
199.244344
30
0.0
10
207.091096
20
198.962357
30
0.0
10
208.567336
20
198.587076
30
0.0
10
209.751586
20
198.191632
30
0.0
10
208.622697
20
198.355908
30
0.0
10
205.800475
20
198.767998
30
0.0
10
202.152722
20
199.029644
30
0.0
10
197.956810
20
198.881926
30
0.0
10
193.577664
20
198.353615
30
0.0
10
189.380213
20
197.473478
30
0.0
10
186.088016
20
196.489822
30
0.0
10
182.624587
20
195.157390
30
0.0
10
178.382688
20
193.218369
30
0.0
10
172.755080
20
190.414942
30
0.0
10
166.627889
20
187.376669
30
0.0
10
162.349161
20
185.562470
30
0.0
10
158.733630
20
184.547580
30
0.0
10
154.596030
20
183.907231
30
0.0
10
150.937734
20
183.601368
30
0.0
10
146.946798
20
183.528892
30
0.0
10
142.859923
20
183.687285
30
0.0
10
138.913808
20
184.074030
30
0.0
10
135.396766
20
184.436757
30
0.0
10
131.966557
20
184.605261
30
0.0
10
128.870252
20
184.574335
30
0.0
10
126.354919
20
184.338771
30
0.0
10
124.642131
20
184.045812
30
0.0
10
123.903108
20
183.808410
30
0.0
10
123.859818
20
183.678169
30
0.0
10
124.013241
20
183.522967
30
0.0
10
124.847920
20
183.085885
30
0.0
10
126.340551
20
182.176002
30
0.0
10
128.011163
20
180.897179
30
0.0
10
129.793348
20
179.509815
30
0.0
10
131.402166
20
178.548717
30
0.0
10
132.818030
20
178.023508
30
0.0
10
134.021356
20
177.943813
30
0.0
10
134.957096
20
178.175344
30
0.0
10
135.655310
20
178.595851
30
0.0
10
136.133479
20
179.220871
30
0.0
10
136.409083
20
180.065938
30
0.0
10
136.367373
20
181.008837
30
0.0
10
135.887852
20
181.738275
30
0.0
10
135.021193
20
182.209071
30
0.0
10
133.818071
20
182.376043
30
0.0
10
132.987429
20
182.270458
30
0.0
10
132.558866
20
182.011744
30
0.0
10
132.591464
20
181.686961
30
0.0
10
133.144302
20
181.383171
30
0.0
10
133.494270
20
181.143407
30
0.0
10
133.627556
20
180.789479
30
0.0
10
133.537252
20
180.435246
30
0.0
10
133.216447
20
180.194569
30
0.0
10
132.768006
20
180.285734
30
0.0
10
132.276417
20
180.707311
30
0.0
10
131.880016
20
181.301116
30
0.0
10
131.717141
20
181.908968
30
0.0
10
131.871400
20
182.568856
30
0.0
10
132.310815
20
183.071856
30
0.0
10
133.000341
20
183.392402
30
0.0
10
133.904934
20
183.504932
30
0.0
10
134.984905
20
183.316570
30
0.0
10
135.883566
20
182.803457
30
0.0
10
136.574713
20
182.043545
30
0.0
10
137.032141
20
181.114791
30
0.0
10
137.229648
20
180.095147
30
0.0
10
137.141029
20
179.062570
30
0.0
10
136.740081
20
178.095014
30
0.0
10
136.000600
20
177.270434
30
0.0
10
135.087362
20
176.809484
30
0.0
10
133.642309
20
176.814098
30
0.0
10
131.894047
20
177.174805
30
0.0
10
130.214686
20
177.957490
30
0.0
10
128.552747
20
179.193251
30
0.0
10
126.856747
20
180.913189
30
0.0
10
126.091296
20
181.649079
30
0.0
10
125.234194
20
182.207895
30
0.0
10
124.265750
20
182.599895
30
0.0
10
123.166268
20
182.835337
30
0.0
10
122.018834
20
182.844710
30
0.0
10
121.132719
20
182.305580
30
0.0
10
120.321987
20
181.608221
30
0.0
10
121.433452
20
181.256066
30
0.0
10
127.116603
20
178.532526
30
0.0
10
130.156391
20
177.045242
30
0.0
10
133.077066
20
175.800087
30
0.0
10
135.886079
20
174.795242
30
0.0
10
138.590879
20
174.028890
30
0.0
10
141.198919
20
173.499214
30
0.0
10
143.717648
20
173.204396
30
0.0
10
146.154516
20
173.142618
30
0.0
10
148.516975
20
173.312064
30
0.0
10
150.349667
20
173.629786
30
0.0
10
152.444421
20
174.156740
30
0.0
10
157.181606
20
175.747270
30
0.0
10
162.251509
20
177.901507
30
0.0
10
167.177110
20
180.437306
30
0.0
10
170.118387
20
182.018387
30
0.0
10
173.087969
20
183.440872
30
0.0
10
176.061589
20
184.696572
30
0.0
10
179.014979
20
185.777297
30
0.0
10
181.923870
20
186.674857
30
0.0
10
184.763997
20
187.381063
30
0.0
10
187.511089
20
187.887727
30
0.0
10
190.140881
20
188.186657
30
0.0
10
191.767520
20
188.235256
30
0.0
10
193.331740
20
188.130556
30
0.0
10
194.839537
20
187.870479
30
0.0
10
196.296908
20
187.452946
30
0.0
10
197.709850
20
186.875881
30
0.0
10
199.084360
20
186.137203
30
0.0
10
201.742074
20
184.166703
30
0.0
10
203.946905
20
182.033857
30
0.0
10
205.870716
20
179.780007
30
0.0
10
207.509611
20
177.413313
30
0.0
10
208.859692
20
174.941932
30
0.0
10
209.917061
20
172.374023
30
0.0
10
210.677821
20
169.717744
30
0.0
10
211.138075
20
166.981254
30
0.0
10
211.293924
20
164.172709
30
0.0
10
211.147254
20
161.441273
30
0.0
10
210.486179
20
159.023249
30
0.0
10
209.494528
20
156.597876
30
0.0
10
208.269638
20
154.380172
30
0.0
10
206.775977
20
152.314149
30
0.0
10
204.978014
20
150.343821
30
0.0
10
203.276454
20
148.797164
30
0.0
10
201.522822
20
147.479730
30
0.0
10
199.699356
20
146.384502
30
0.0
10
197.788295
20
145.504461
30
0.0
10
195.771878
20
144.832588
30
0.0
10
193.632342
20
144.361866
30
0.0
10
191.351926
20
144.085275
30
0.0
10
188.912870
20
143.995799
30
0.0
10
186.280185
20
144.137025
30
0.0
10
183.751389
20
144.562180
30
0.0
10
181.291934
20
145.279193
30
0.0
10
178.867268
20
146.295992
30
0.0
10
176.583306
20
147.667672
30
0.0
10
174.492140
20
149.446100
30
0.0
10
172.696992
20
151.528726
30
0.0
10
171.301080
20
153.813001
30
0.0
10
170.240475
20
155.958990
30
0.0
10
170.240475
20
159.924740
30
0.0
10
170.357812
20
163.533407
30
0.0
10
170.894460
20
165.866043
30
0.0
10
171.678079
20
167.849488
30
0.0
10
172.670033
20
169.719012
30
0.0
10
173.851965
20
171.455384
30
0.0
10
175.205520
20
173.039376
30
0.0
10
176.712340
20
174.451758
30
0.0
10
178.354070
20
175.673301
30
0.0
10
180.112352
20
176.684776
30
0.0
10
181.968831
20
177.466954
30
0.0
10
183.865477
20
177.883864
30
0.0
10
186.754493
20
177.976729
30
0.0
10
189.764211
20
177.826869
30
0.0
10
190.729552
20
177.583840
30
0.0
10
191.775644
20
177.156823
30
0.0
10
193.333632
20
176.273993
30
0.0
10
194.679826
20
175.138299
30
0.0
10
195.797285
20
173.786416
30
0.0
10
196.669064
20
172.255020
30
0.0
10
197.278221
20
170.580785
30
0.0
10
197.607811
20
168.800388
30
0.0
10
197.640893
20
166.950503
30
0.0
10
197.360523
20
165.067805
30
0.0
10
196.615477
20
162.831303
30
0.0
10
195.534112
20
160.952574
30
0.0
10
194.161078
20
159.492355
30
0.0
10
192.541023
20
158.511388
30
0.0
10
191.082281
20
158.119119
30
0.0
10
189.214081
20
157.903560
30
0.0
10
187.294554
20
157.886688
30
0.0
10
185.681832
20
158.090479
30
0.0
10
183.852728
20
158.781900
30
0.0
10
182.301676
20
159.829200
30
0.0
10
181.226195
20
161.060986
30
0.0
10
180.928520
20
161.692502
30
0.0
10
180.823808
20
162.305866
30
0.0
10
180.969346
20
162.796809
30
0.0
10
181.356608
20
162.825637
30
0.0
10
181.911570
20
162.421812
30
0.0
10
182.560206
20
161.614794
30
0.0
10
183.642650
20
160.403432
30
0.0
10
184.994289
20
159.516600
30
0.0
10
186.537248
20
158.957202
30
0.0
10
188.193652
20
158.728144
30
0.0
10
189.885626
20
158.832328
30
0.0
10
191.535295
20
159.272660
30
0.0
10
193.064784
20
160.052043
30
0.0
10
194.396219
20
161.173381
30
0.0
10
195.419905
20
162.477130
30
0.0
10
196.033932
20
163.852750
30
0.0
10
196.300287
20
165.514068
30
0.0
10
196.280955
20
167.674915
30
0.0
10
196.092532
20
169.328645
30
0.0
10
195.728201
20
170.870054
30
0.0
10
195.197766
20
172.283775
30
0.0
10
194.511029
20
173.554439
30
0.0
10
193.677794
20
174.666676
30
0.0
10
192.707864
20
175.605117
30
0.0
10
191.611043
20
176.354395
30
0.0
10
190.397133
20
176.899140
30
0.0
10
188.399399
20
177.319980
30
0.0
10
185.994328
20
177.443869
30
0.0
10
183.596378
20
177.274713
30
0.0
10
181.620010
20
176.816417
30
0.0
10
179.610472
20
175.866725
30
0.0
10
177.724851
20
174.568771
30
0.0
10
175.992507
20
172.962964
30
0.0
10
174.442804
20
171.089711
30
0.0
10
173.105104
20
168.989419
30
0.0
10
172.008770
20
166.702497
30
0.0
10
171.183163
20
164.269351
30
0.0
10
170.657647
20
161.730389
30
0.0
10
170.542113
20
160.155458
30
0.0
10
170.627107
20
158.544144
30
0.0
10
170.902030
20
156.927218
30
0.0
10
171.356286
20
155.335448
30
0.0
10
171.979276
20
153.799602
30
0.0
10
172.760402
20
152.350450
30
0.0
10
173.689068
20
151.018760
30
0.0
10
174.754675
20
149.835301
30
0.0
10
176.680560
20
148.383954
30
0.0
10
179.305846
20
146.960633
30
0.0
10
182.227511
20
145.756258
30
0.0
10
185.042531
20
144.961750
30
0.0
10
186.828961
20
144.686233
30
0.0
10
188.652355
20
144.563261
30
0.0
10
192.334348
20
144.764743
30
0.0
10
195.937140
20
145.545781
30
0.0
10
197.661533
20
146.147254
30
0.0
10
199.309363
20
146.885960
30
0.0
10
201.690604
20
148.236958
30
0.0
10
203.709894
20
149.726297
30
0.0
10
205.385680
20
151.384354
30
0.0
10
206.736408
20
153.241509
30
0.0
10
207.780526
20
155.328138
30
0.0
10
208.536480
20
157.674619
30
0.0
10
209.022717
20
160.311330
30
0.0
10
209.257686
20
163.268650
30
0.0
10
209.279671
20
165.869927
30
0.0
10
209.139099
20
168.271868
30
0.0
10
208.826553
20
170.507246
30
0.0
10
208.332615
20
172.608833
30
0.0
10
207.647870
20
174.609402
30
0.0
10
206.762899
20
176.541726
30
0.0
10
205.668288
20
178.438576
30
0.0
10
204.354619
20
180.332726
30
0.0
10
202.892473
20
182.071676
30
0.0
10
201.278591
20
183.580199
30
0.0
10
199.489990
20
184.877245
30
0.0
10
197.503692
20
185.981762
30
0.0
10
196.283759
20
186.535964
30
0.0
10
195.256974
20
186.856724
30
0.0
10
192.304760
20
187.122132
30
0.0
10
188.449271
20
187.055787
30
0.0
10
184.646332
20
186.513083
30
0.0
10
180.751960
20
185.464247
30
0.0
10
176.622171
20
183.879508
30
0.0
10
170.519715
20
181.020642
30
0.0
10
165.930710
20
178.528651
30
0.0
10
163.184432
20
176.942891
30
0.0
10
160.237173
20
175.552336
30
0.0
10
157.151858
20
174.373448
30
0.0
10
153.991415
20
173.422693
30
0.0
10
150.818771
20
172.716532
30
0.0
10
147.696853
20
172.271431
30
0.0
10
144.688589
20
172.103851
30
0.0
10
141.856906
20
172.230258
30
0.0
10
138.564821
20
172.708722
30
0.0
10
135.518147
20
173.477925
30
0.0
10
132.478406
20
174.612460
30
0.0
10
129.207119
20
176.186921
30
0.0
10
126.441194
20
177.578265
30
0.0
10
127.611127
20
175.777882
30
0.0
10
128.590242
20
174.280009
30
0.0
10
129.417880
20
172.734269
30
0.0
10
130.112859
20
171.101374
30
0.0
10
130.694001
20
169.342033
30
0.0
10
131.202142
20
168.000596
30
0.0
10
131.895930
20
166.910791
30
0.0
10
132.815829
20
166.023029
30
0.0
10
134.002300
20
165.287724
30
0.0
10
135.180218
20
164.817115
30
0.0
10
136.293046
20
164.626202
30
0.0
10
137.321646
20
164.715891
30
0.0
10
138.246880
20
165.087087
30
0.0
10
138.736669
20
165.482211
30
0.0
10
139.078512
20
165.984681
30
0.0
10
139.273309
20
166.569746
30
0.0
10
139.321961
20
167.212653
30
0.0
10
138.984426
20
168.572978
30
0.0
10
138.073105
20
169.867635
30
0.0
10
137.197123
20
170.545107
30
0.0
10
136.344867
20
170.801251
30
0.0
10
135.515409
20
170.636116
30
0.0
10
134.707822
20
170.049753
30
0.0
10
134.209128
20
169.428661
30
0.0
10
134.071455
20
168.900352
30
0.0
10
134.297673
20
168.432530
30
0.0
10
134.890654
20
167.992900
30
0.0
10
135.631217
20
167.708216
30
0.0
10
136.267035
20
167.938657
30
0.0
10
136.804610
20
168.175794
30
0.0
10
137.112866
20
167.938093
30
0.0
10
137.343594
20
167.343242
30
0.0
10
137.177879
20
166.915853
30
0.0
10
136.617854
20
166.657943
30
0.0
10
135.665653
20
166.571525
30
0.0
10
134.981427
20
166.744957
30
0.0
10
134.363198
20
167.226114
30
0.0
10
133.865075
20
167.956285
30
0.0
10
133.541163
20
168.876761
30
0.0
10
133.586007
20
169.781006
30
0.0
10
134.076133
20
170.495134
30
0.0
10
134.890439
20
171.001105
30
0.0
10
135.907826
20
171.280881
30
0.0
10
137.007193
20
171.316421
30
0.0
10
138.067438
20
171.089687
30
0.0
10
138.967463
20
170.582638
30
0.0
10
139.586166
20
169.777236
30
0.0
10
139.824973
20
168.876287
30
0.0
10
139.888055
20
167.761976
30
0.0
10
139.779917
20
166.656335
30
0.0
10
139.505066
20
165.781399
30
0.0
10
138.992386
20
164.997945
30
0.0
10
138.355536
20
164.341748
30
0.0
10
137.647453
20
163.857688
30
0.0
10
136.921071
20
163.590643
30
0.0
10
135.867743
20
163.668570
30
0.0
10
134.270451
20
164.362414
30
0.0
10
133.092249
20
165.073111
30
0.0
10
132.014553
20
165.975578
30
0.0
10
130.897312
20
167.205901
30
0.0
10
129.600475
20
168.900166
30
0.0
10
129.036030
20
169.676587
30
0.0
10
128.977678
20
167.065721
30
0.0
10
128.763874
20
164.490263
30
0.0
10
128.287004
20
161.974718
30
0.0
10
127.820274
20
159.688489
30
0.0
10
127.841271
20
158.950452
30
0.0
10
128.009001
20
158.169829
30
0.0
10
128.475664
20
156.921533
30
0.0
10
129.149336
20
155.860084
30
0.0
10
130.010649
20
155.009605
30
0.0
10
131.040237
20
154.394220
30
0.0
10
132.056225
20
154.059932
30
0.0
10
132.915558
20
154.048870
30
0.0
10
133.674136
20
154.371809
30
0.0
10
134.387855
20
155.039524
30
0.0
10
135.167742
20
156.368803
30
0.0
10
135.315460
20
157.032709
30
0.0
10
135.303287
20
157.684958
30
0.0
10
135.132415
20
158.317173
30
0.0
10
134.804039
20
158.920980
30
0.0
10
133.679548
20
160.009858
30
0.0
10
132.764874
20
160.424992
30
0.0
10
131.678760
20
160.638009
30
0.0
10
130.711903
20
160.621134
30
0.0
10
130.155005
20
160.346595
30
0.0
10
130.021215
20
159.820622
30
0.0
10
130.180682
20
159.280839
30
0.0
10
130.575819
20
158.830100
30
0.0
10
131.149036
20
158.571256
30
0.0
10
131.785760
20
158.363216
30
0.0
10
131.962170
20
158.113995
30
0.0
10
131.686357
20
157.864197
30
0.0
10
130.966408
20
157.654429
30
0.0
10
130.065363
20
157.603865
30
0.0
10
129.555296
20
157.977805
30
0.0
10
129.262674
20
158.650136
30
0.0
10
129.196824
20
159.461205
30
0.0
10
129.350548
20
160.277716
30
0.0
10
129.716651
20
160.966371
30
0.0
10
130.055396
20
161.308223
30
0.0
10
130.461022
20
161.510835
30
0.0
10
131.916286
20
161.632636
30
0.0
10
133.278641
20
161.514258
30
0.0
10
134.309999
20
161.125003
30
0.0
10
135.094816
20
160.413694
30
0.0
10
135.717545
20
159.329152
30
0.0
10
136.128869
20
158.029547
30
0.0
10
135.929243
20
156.601288
30
0.0
10
135.436811
20
155.278733
30
0.0
10
134.664571
20
154.224303
30
0.0
10
134.123873
20
153.731491
30
0.0
10
133.627306
20
153.455028
30
0.0
10
132.078386
20
153.307080
30
0.0
10
130.491686
20
153.468151
30
0.0
10
129.920999
20
153.766309
30
0.0
10
129.252751
20
154.295612
30
0.0
10
128.427864
20
155.137667
30
0.0
10
127.764368
20
156.100054
30
0.0
10
127.267320
20
157.158214
30
0.0
10
126.941774
20
158.287589
30
0.0
10
126.792785
20
159.463624
30
0.0
10
126.825408
20
160.661759
30
0.0
10
127.044697
20
161.857438
30
0.0
10
127.455707
20
163.026103
30
0.0
10
127.967065
20
164.414326
30
0.0
10
128.228024
20
165.789735
30
0.0
10
128.254309
20
167.310900
30
0.0
10
128.061644
20
169.136389
30
0.0
10
127.282594
20
172.496615
30
0.0
10
126.788425
20
173.826703
30
0.0
10
126.323307
20
174.612174
30
0.0
10
126.255768
20
174.620715
30
0.0
10
126.274028
20
174.437324
30
0.0
10
126.539560
20
173.624397
30
0.0
10
126.929304
20
171.791161
30
0.0
10
127.044876
20
168.405969
30
0.0
10
126.934626
20
164.717439
30
0.0
10
126.697339
20
163.532273
30
0.0
10
126.264526
20
162.197080
30
0.0
10
124.661648
20
158.383463
30
0.0
10
123.742746
20
156.713309
30
0.0
10
122.733283
20
155.183976
30
0.0
10
121.624068
20
153.782754
30
0.0
10
120.405914
20
152.496934
30
0.0
10
119.069631
20
151.313803
30
0.0
10
117.606030
20
150.220653
30
0.0
10
114.947353
20
148.616432
30
0.0
10
112.337683
20
147.526157
30
0.0
10
109.645798
20
146.907530
30
0.0
10
106.740475
20
146.718253
30
0.0
10
103.730435
20
146.963106
30
0.0
10
101.142742
20
147.697643
30
0.0
10
99.979957
20
148.259801
30
0.0
10
98.889973
20
148.957893
30
0.0
10
96.884702
20
150.779888
30
0.0
10
95.746127
20
152.265424
30
0.0
10
94.948781
20
153.861125
30
0.0
10
94.456003
20
155.663557
30
0.0
10
94.231130
20
157.769285
30
0.0
10
94.183722
20
159.299518
30
0.0
10
94.266557
20
160.321845
30
0.0
10
94.557814
20
161.242266
30
0.0
10
95.135672
20
162.466778
30
0.0
10
96.188286
20
164.230010
30
0.0
10
97.484309
20
165.781860
30
0.0
10
98.994168
20
167.106439
30
0.0
10
100.688293
20
168.187856
30
0.0
10
102.537113
20
169.010221
30
0.0
10
104.511056
20
169.557646
30
0.0
10
106.580552
20
169.814240
30
0.0
10
108.716030
20
169.764113
30
0.0
10
110.613324
20
169.368632
30
0.0
10
112.353705
20
168.602227
30
0.0
10
113.888226
20
167.526396
30
0.0
10
115.167937
20
166.202636
30
0.0
10
116.143888
20
164.692446
30
0.0
10
116.767132
20
163.057325
30
0.0
10
116.988719
20
161.358770
30
0.0
10
116.759699
20
159.658280
30
0.0
10
116.329968
20
158.590635
30
0.0
10
115.673900
20
157.577014
30
0.0
10
114.829350
20
156.644633
30
0.0
10
113.834173
20
155.820711
30
0.0
10
112.726224
20
155.132466
30
0.0
10
111.543357
20
154.607115
30
0.0
10
110.323428
20
154.271877
30
0.0
10
109.104292
20
154.153970
30
0.0
10
107.005018
20
154.389370
30
0.0
10
105.193267
20
155.064100
30
0.0
10
103.758322
20
156.130321
30
0.0
10
103.210051
20
156.795292
30
0.0
10
102.789462
20
157.540197
30
0.0
10
102.491354
20
158.242436
30
0.0
10
102.402183
20
158.723133
30
0.0
10
102.531013
20
159.201430
30
0.0
10
102.886905
20
159.896470
30
0.0
10
103.575078
20
160.940651
30
0.0
10
104.368849
20
161.652528
30
0.0
10
105.346556
20
162.082601
30
0.0
10
106.586539
20
162.281372
30
0.0
10
108.000287
20
162.254393
30
0.0
10
108.927697
20
161.780834
30
0.0
10
109.703808
20
160.897741
30
0.0
10
109.558093
20
160.579286
30
0.0
10
109.183402
20
160.473607
30
0.0
10
108.673418
20
160.580559
30
0.0
10
108.121823
20
160.899998
30
0.0
10
107.398465
20
161.318903
30
0.0
10
106.637569
20
161.462797
30
0.0
10
105.830731
20
161.331747
30
0.0
10
104.969550
20
160.925822
30
0.0
10
103.985957
20
160.037873
30
0.0
10
103.723528
20
159.529292
30
0.0
10
103.614634
20
158.988455
30
0.0
10
103.859324
20
157.842457
30
0.0
10
104.723768
20
156.664766
30
0.0
10
105.655077
20
155.884434
30
0.0
10
106.656364
20
155.370095
30
0.0
10
107.822099
20
155.086985
30
0.0
10
109.246752
20
155.000340
30
0.0
10
111.056886
20
155.175284
30
0.0
10
112.838718
20
155.918226
30
0.0
10
114.261927
20
156.800144
30
0.0
10
115.153847
20
157.771049
30
0.0
10
115.614615
20
158.993294
30
0.0
10
115.744368
20
160.629237
30
0.0
10
115.660102
20
161.855921
30
0.0
10
115.413952
20
163.019902
30
0.0
10
115.011190
20
164.113026
30
0.0
10
114.457086
20
165.127136
30
0.0
10
113.756913
20
166.054077
30
0.0
10
112.915943
20
166.885693
30
0.0
10
111.939447
20
167.613828
30
0.0
10
110.832697
20
168.230326
30
0.0
10
109.080856
20
168.839606
30
0.0
10
106.599363
20
168.970487
30
0.0
10
104.081899
20
168.833631
30
0.0
10
103.209182
20
168.584194
30
0.0
10
102.224919
20
168.144423
30
0.0
10
100.397427
20
166.990459
30
0.0
10
98.604586
20
165.394460
30
0.0
10
97.031166
20
163.545514
30
0.0
10
95.861937
20
161.632709
30
0.0
10
95.073102
20
159.607468
30
0.0
10
94.899184
20
157.393486
30
0.0
10
95.032722
20
155.252952
30
0.0
10
95.312709
20
154.526331
30
0.0
10
95.824223
20
153.668940
30
0.0
10
96.776713
20
152.370854
30
0.0
10
97.860033
20
151.229036
30
0.0
10
99.060731
20
150.244362
30
0.0
10
100.365352
20
149.417710
30
0.0
10
101.760444
20
148.749957
30
0.0
10
103.232553
20
148.241980
30
0.0
10
104.768225
20
147.894656
30
0.0
10
106.354008
20
147.708863
30
0.0
10
107.976447
20
147.685477
30
0.0
10
109.622089
20
147.825376
30
0.0
10
111.277481
20
148.129437
30
0.0
10
112.929170
20
148.598537
30
0.0
10
114.563701
20
149.233553
30
0.0
10
116.167622
20
150.035363
30
0.0
10
117.727479
20
151.004843
30
0.0
10
119.229818
20
152.142871
30
0.0
10
120.827261
20
153.632075
30
0.0
10
122.246269
20
155.283795
30
0.0
10
123.476805
20
157.076805
30
0.0
10
124.508835
20
158.989877
30
0.0
10
125.332326
20
161.001786
30
0.0
10
125.937240
20
163.091304
30
0.0
10
126.313545
20
165.237206
30
0.0
10
126.451205
20
167.418265
30
0.0
10
126.227669
20
170.619703
30
0.0
10
125.520323
20
173.505497
30
0.0
10
124.342735
20
176.036656
30
0.0
10
123.581840
20
177.157062
30
0.0
10
122.708472
20
178.174188
30
0.0
10
121.699896
20
179.120063
30
0.0
10
121.056609
20
179.533891
30
0.0
10
120.903312
20
179.531224
30
0.0
10
120.878973
20
179.383470
30
0.0
10
121.267347
20
178.636598
30
0.0
10
122.098460
20
177.203274
30
0.0
10
122.684989
20
175.783880
30
0.0
10
123.027572
20
174.413762
30
0.0
10
123.126845
20
173.128269
30
0.0
10
122.983443
20
171.962748
30
0.0
10
122.598003
20
170.952547
30
0.0
10
121.971162
20
170.133013
30
0.0
10
121.103557
20
169.539492
30
0.0
10
119.835662
20
169.155309
30
0.0
10
118.656214
20
169.225744
30
0.0
10
117.610603
20
169.738893
30
0.0
10
116.744219
20
170.682851
30
0.0
10
116.308457
20
171.618499
30
0.0
10
116.183626
20
172.547436
30
0.0
10
116.326378
20
173.409062
30
0.0
10
116.693361
20
174.142774
30
0.0
10
117.241226
20
174.687970
30
0.0
10
117.926621
20
174.984050
30
0.0
10
118.706196
20
174.970411
30
0.0
10
119.536602
20
174.586453
30
0.0
10
120.258116
20
173.766123
30
0.0
10
120.566235
20
172.797463
30
0.0
10
120.430895
20
171.989583
30
0.0
10
120.187533
20
171.742534
30
0.0
10
119.822033
20
171.651598
30
0.0
10
119.402878
20
171.793789
30
0.0
10
119.113283
20
172.119517
30
0.0
10
119.034702
20
172.477517
30
0.0
10
119.248589
20
172.716524
30
0.0
10
119.531374
20
172.895888
30
0.0
10
119.537183
20
173.140580
30
0.0
10
118.748934
20
173.761018
30
0.0
10
117.795394
20
174.156577
30
0.0
10
117.529337
20
174.053479
30
0.0
10
117.202856
20
173.748120
30
0.0
10
116.870807
20
173.245780
30
0.0
10
116.775040
20
172.683384
30
0.0
10
116.888358
20
172.100087
30
0.0
10
117.183564
20
171.535043
30
0.0
10
117.633460
20
171.027407
30
0.0
10
118.210849
20
170.616332
30
0.0
10
118.888533
20
170.340974
30
0.0
10
119.639314
20
170.240487
30
0.0
10
120.704119
20
170.417184
30
0.0
10
121.585022
20
171.117002
30
0.0
10
122.067090
20
171.792941
30
0.0
10
122.355398
20
172.568443
30
0.0
10
122.452991
20
173.427589
30
0.0
10
122.362916
20
174.354464
30
0.0
10
122.088221
20
175.333149
30
0.0
10
121.631953
20
176.347728
30
0.0
10
120.186882
20
178.420902
30
0.0
10
119.090067
20
179.686871
30
0.0
10
118.450834
20
178.200929
30
0.0
10
117.899244
20
177.162426
30
0.0
10
117.195093
20
176.215674
30
0.0
10
116.375361
20
175.385110
30
0.0
10
115.477028
20
174.695172
30
0.0
10
114.537075
20
174.170299
30
0.0
10
113.592482
20
173.834928
30
0.0
10
112.680230
20
173.713497
30
0.0
10
111.837298
20
173.830444
30
0.0
10
111.278945
20
173.957630
30
0.0
10
110.762312
20
173.933489
30
0.0
10
109.261944
20
173.311996
30
0.0
10
107.609998
20
172.663763
30
0.0
10
105.845133
20
172.498265
30
0.0
10
104.054898
20
172.335922
30
0.0
10
102.286570
20
171.906933
30
0.0
10
100.827079
20
171.546927
30
0.0
10
99.409918
20
171.475646
30
0.0
10
97.992954
20
171.695296
30
0.0
10
96.534055
20
172.208081
30
0.0
10
95.727442
20
172.653349
30
0.0
10
95.171390
20
173.174913
30
0.0
10
94.849664
20
173.793867
30
0.0
10
94.746030
20
174.531306
30
0.0
10
94.704313
20
174.903500
30
0.0
10
94.452517
20
175.087864
30
0.0
10
92.558808
20
175.085707
30
0.0
10
90.833556
20
174.895252
30
0.0
10
89.580361
20
174.469310
30
0.0
10
88.669046
20
173.738301
30
0.0
10
87.969437
20
172.632645
30
0.0
10
87.553135
20
171.302558
30
0.0
10
87.679986
20
170.143308
30
0.0
10
88.353434
20
169.145615
30
0.0
10
89.576921
20
168.300198
30
0.0
10
90.215190
20
168.071094
30
0.0
10
90.864701
20
168.014323
30
0.0
10
92.078669
20
168.352212
30
0.0
10
92.583735
20
168.714086
30
0.0
10
92.981263
20
169.182724
30
0.0
10
93.241556
20
169.741732
30
0.0
10
93.334919
20
170.374718
30
0.0
10
93.195117
20
170.832180
30
0.0
10
92.831081
20
171.242447
30
0.0
10
92.325869
20
171.538069
30
0.0
10
91.762538
20
171.651598
30
0.0
10
91.317803
20
171.601590
30
0.0
10
91.111407
20
171.452391
30
0.0
10
91.143894
20
171.205240
30
0.0
10
91.415808
20
170.861376
30
0.0
10
91.623534
20
170.452933
30
0.0
10
91.444386
20
170.154862
30
0.0
10
90.991808
20
170.041116
30
0.0
10
90.379242
20
170.185649
30
0.0
10
89.836849
20
170.665443
30
0.0
10
89.636387
20
171.336458
30
0.0
10
89.784807
20
172.018060
30
0.0
10
90.289058
20
172.529617
30
0.0
10
91.075490
20
172.800906
30
0.0
10
91.851850
20
172.807807
30
0.0
10
92.575254
20
172.587660
30
0.0
10
93.202819
20
172.177804
30
0.0
10
93.691659
20
171.615581
30
0.0
10
93.998892
20
170.938330
30
0.0
10
94.081632
20
170.183391
30
0.0
10
93.896996
20
169.388106
30
0.0
10
93.476116
20
168.643509
30
0.0
10
92.906434
20
168.031374
30
0.0
10
92.224314
20
167.562551
30
0.0
10
91.466120
20
167.247890
30
0.0
10
90.668217
20
167.098241
30
0.0
10
89.866968
20
167.124454
30
0.0
10
89.098738
20
167.337381
30
0.0
10
88.399891
20
167.747872
30
0.0
10
87.737800
20
168.425929
30
0.0
10
87.256904
20
169.244215
30
0.0
10
86.958361
20
170.154185
30
0.0
10
86.843332
20
171.107292
30
0.0
10
86.912974
20
172.054992
30
0.0
10
87.168447
20
172.948738
30
0.0
10
87.610911
20
173.739986
30
0.0
10
88.241525
20
174.380190
30
0.0
10
88.530813
20
174.704632
30
0.0
10
88.420977
20
174.910194
30
0.0
10
87.946387
20
174.980645
30
0.0
10
87.141411
20
174.899753
30
0.0
10
85.958309
20
174.433117
30
0.0
10
84.350098
20
173.425707
30
0.0
10
82.498497
20
172.005051
30
0.0
10
80.585223
20
170.298676
30
0.0
10
79.399514
20
168.908454
30
0.0
10
78.503754
20
167.336655
30
0.0
10
77.904279
20
165.658408
30
0.0
10
77.607427
20
163.948844
30
0.0
10
77.619538
20
162.283093
30
0.0
10
77.946948
20
160.736286
30
0.0
10
78.595995
20
159.383554
30
0.0
10
79.573018
20
158.300026
30
0.0
10
80.200330
20
157.847184
30
0.0
10
80.821771
20
157.572845
30
0.0
10
82.818574
20
157.328795
30
0.0
10
84.850114
20
157.348201
30
0.0
10
86.279363
20
157.890169
30
0.0
10
87.310592
20
158.591902
30
0.0
10
88.071353
20
159.418181
30
0.0
10
88.558213
20
160.322856
30
0.0
10
88.767742
20
161.259779
30
0.0
10
88.696509
20
162.182800
30
0.0
10
88.341081
20
163.045771
30
0.0
10
87.698029
20
163.802543
30
0.0
10
86.763919
20
164.406965
30
0.0
10
85.388188
20
164.852437
30
0.0
10
84.816530
20
164.789955
30
0.0
10
84.164972
20
164.545728
30
0.0
10
83.631110
20
164.162083
30
0.0
10
83.539617
20
163.756884
30
0.0
10
83.866866
20
163.405908
30
0.0
10
84.589233
20
163.184932
30
0.0
10
85.279517
20
162.964604
30
0.0
10
85.572840
20
162.634074
30
0.0
10
85.440258
20
162.311033
30
0.0
10
84.852826
20
162.113173
30
0.0
10
84.133480
20
162.222509
30
0.0
10
83.403670
20
162.618094
30
0.0
10
82.837849
20
163.172070
30
0.0
10
82.610475
20
163.756581
30
0.0
10
82.753199
20
164.591829
30
0.0
10
83.147479
20
165.299539
30
0.0
10
83.742471
20
165.860389
30
0.0
10
84.487333
20
166.255056
30
0.0
10
85.331224
20
166.464215
30
0.0
10
86.223300
20
166.468544
30
0.0
10
87.112719
20
166.248719
30
0.0
10
87.948640
20
165.785418
30
0.0
10
89.090861
20
164.605025
30
0.0
10
89.703268
20
163.240882
30
0.0
10
89.820277
20
161.781122
30
0.0
10
89.476309
20
160.313880
30
0.0
10
88.705782
20
158.927289
30
0.0
10
87.543114
20
157.709484
30
0.0
10
86.022725
20
156.748599
30
0.0
10
84.179032
20
156.132768
30
0.0
10
82.753482
20
155.970797
30
0.0
10
81.506122
20
156.136646
30
0.0
10
80.367227
20
156.650168
30
0.0
10
79.267070
20
157.531213
30
0.0
10
78.117986
20
158.812447
30
0.0
10
77.368054
20
160.091210
30
0.0
10
76.958728
20
161.503403
30
0.0
10
76.831461
20
163.184932
30
0.0
10
76.999923
20
165.301598
30
0.0
10
77.848220
20
167.418265
30
0.0
10
79.400442
20
170.110894
30
0.0
10
80.493808
20
171.380894
30
0.0
10
81.058252
20
172.074932
30
0.0
10
80.352697
20
171.519727
30
0.0
10
78.085863
20
169.421404
30
0.0
10
76.049550
20
166.846661
30
0.0
10
74.180102
20
163.702288
30
0.0
10
72.413865
20
159.895078
30
0.0
10
71.361404
20
157.895853
30
0.0
10
70.044193
20
156.168201
30
0.0
10
68.635090
20
154.901949
30
0.0
10
67.950098
20
154.501168
30
0.0
10
67.306955
20
154.286922
30
0.0
10
66.569971
20
154.244860
30
0.0
10
65.860849
20
154.381506
30
0.0
10
65.197756
20
154.680288
30
0.0
10
64.598855
20
155.124632
30
0.0
10
63.666293
20
156.383716
30
0.0
10
63.368962
20
157.165310
30
0.0
10
63.208484
20
158.026175
30
0.0
10
63.236628
20
159.326278
30
0.0
10
63.871218
20
160.345135
30
0.0
10
64.718735
20
161.134273
30
0.0
10
65.756242
20
161.761981
30
0.0
10
66.879680
20
162.177999
30
0.0
10
67.984991
20
162.332067
30
0.0
10
68.925569
20
162.177231
30
0.0
10
69.607769
20
161.594649
30
0.0
10
69.967065
20
160.968040
30
0.0
10
70.158108
20
160.270337
30
0.0
10
70.166217
20
159.602228
30
0.0
10
69.976709
20
159.064403
30
0.0
10
69.276704
20
158.466514
30
0.0
10
68.413342
20
158.240256
30
0.0
10
67.680105
20
158.398190
30
0.0
10
67.453996
20
158.625153
30
0.0
10
67.370475
20
158.952874
30
0.0
10
67.407555
20
159.217230
30
0.0
10
67.551671
20
159.354354
30
0.0
10
68.358252
20
159.320262
30
0.0
10
69.191919
20
159.293991
30
0.0
10
69.319107
20
159.483500
30
0.0
10
69.346030
20
159.858709
30
0.0
10
69.211869
20
160.445501
30
0.0
10
68.862007
20
160.969956
30
0.0
10
68.375373
20
161.347010
30
0.0
10
67.830898
20
161.491598
30
0.0
10
66.219270
20
160.915769
30
0.0
10
65.487556
20
160.448632
30
0.0
10
64.890572
20
159.879237
30
0.0
10
64.437730
20
159.237431
30
0.0
10
64.138442
20
158.553063
30
0.0
10
64.002118
20
157.855979
30
0.0
10
64.038172
20
157.176028
30
0.0
10
64.256015
20
156.543057
30
0.0
10
64.665058
20
155.986913
30
0.0
10
65.528757
20
155.320889
30
0.0
10
66.414308
20
155.028060
30
0.0
10
67.321445
20
155.108244
30
0.0
10
68.249897
20
155.561257
30
0.0
10
69.199398
20
156.386917
30
0.0
10
70.169679
20
157.585042
30
0.0
10
71.160471
20
159.155449
30
0.0
10
72.171506
20
161.097955
30
0.0
10
74.504501
20
165.461147
30
0.0
10
76.884565
20
168.864135
30
0.0
10
78.123595
20
170.243672
30
0.0
10
79.412009
20
171.428900
30
0.0
10
80.762345
20
172.435069
30
0.0
10
82.187141
20
173.277424
30
0.0
10
83.595655
20
174.067467
30
0.0
10
83.897447
20
174.405017
30
0.0
10
83.067511
20
174.301138
30
0.0
10
81.080839
20
173.766896
30
0.0
10
78.657152
20
172.930791
30
0.0
10
76.194432
20
171.806524
30
0.0
10
73.629269
20
170.361696
30
0.0
10
70.898252
20
168.563907
30
0.0
10
65.394919
20
164.737580
30
0.0
10
60.123905
20
160.789387
30
0.0
10
54.793622
20
156.207803
30
0.0
10
52.177704
20
153.925709
30
0.0
10
49.697532
20
152.037854
30
0.0
10
47.124757
20
150.384193
30
0.0
10
44.231029
20
148.804682
30
0.0
10
40.669492
20
147.166725
30
0.0
10
36.920307
20
145.773101
30
0.0
10
33.054354
20
144.636962
30
0.0
10
29.142510
20
143.771462
30
0.0
10
25.255656
20
143.189754
30
0.0
10
21.464668
20
142.904990
30
0.0
10
17.840427
20
142.930325
30
0.0
10
14.453810
20
143.278909
30
0.0
10
14.453810
20
143.278909
30
0.0
0
LWPOLYLINE
100
AcDbPolyline
8
Calque_1
90
15
70
0
10
100.508503
20
172.951793
30
0.0
10
100.845922
20
173.141112
30
0.0
10
100.926795
20
173.350811
30
0.0
10
100.319919
20
173.826634
30
0.0
10
98.093849
20
175.413832
30
0.0
10
96.502782
20
176.710951
30
0.0
10
96.192837
20
175.521830
30
0.0
10
96.038693
20
174.414941
30
0.0
10
96.229036
20
174.083144
30
0.0
10
96.644979
20
173.709408
30
0.0
10
97.516494
20
173.192921
30
0.0
10
98.549926
20
172.875076
30
0.0
10
99.596765
20
172.784992
30
0.0
10
100.508503
20
172.951793
30
0.0
10
100.508503
20
172.951793
30
0.0
0
LWPOLYLINE
100
AcDbPolyline
8
Calque_1
90
32
70
0
10
106.213275
20
173.912306
30
0.0
10
107.917581
20
174.313094
30
0.0
10
109.511308
20
174.906083
30
0.0
10
110.793936
20
175.601457
30
0.0
10
111.564948
20
176.309400
30
0.0
10
111.856196
20
177.226695
30
0.0
10
111.888331
20
178.540055
30
0.0
10
111.674915
20
180.039076
30
0.0
10
111.229510
20
181.513357
30
0.0
10
110.428380
20
182.763772
30
0.0
10
109.085468
20
184.192175
30
0.0
10
107.515929
20
185.502236
30
0.0
10
106.034919
20
186.397628
30
0.0
10
104.703792
20
187.125419
30
0.0
10
103.286825
20
188.086056
30
0.0
10
102.131705
20
188.838935
30
0.0
10
101.430125
20
189.067224
30
0.0
10
98.965340
20
187.554554
30
0.0
10
96.254229
20
185.357125
30
0.0
10
95.145908
20
184.080165
30
0.0
10
94.846965
20
183.494130
30
0.0
10
94.714831
20
182.902359
30
0.0
10
94.747006
20
182.274328
30
0.0
10
94.940987
20
181.579514
30
0.0
10
95.804363
20
179.867437
30
0.0
10
97.373348
20
177.626746
30
0.0
10
99.132926
20
175.861844
30
0.0
10
101.034003
20
174.613146
30
0.0
10
103.027488
20
173.921066
30
0.0
10
104.341586
20
173.660208
30
0.0
10
106.213275
20
173.912306
30
0.0
10
106.213275
20
173.912306
30
0.0
0
LWPOLYLINE
100
AcDbPolyline
8
Calque_1
90
16
70
0
10
114.250436
20
175.472563
30
0.0
10
115.393539
20
176.010888
30
0.0
10
116.305749
20
176.741561
30
0.0
10
116.995342
20
177.673171
30
0.0
10
117.470595
20
178.814308
30
0.0
10
117.760914
20
180.339680
30
0.0
10
116.414544
20
179.874050
30
0.0
10
114.283149
20
179.100910
30
0.0
10
113.597174
20
178.840239
30
0.0
10
113.372697
20
178.418014
30
0.0
10
113.088143
20
177.641475
30
0.0
10
112.404003
20
176.477737
30
0.0
10
111.435312
20
175.038265
30
0.0
10
112.227411
20
175.038265
30
0.0
10
114.250436
20
175.472563
30
0.0
10
114.250436
20
175.472563
30
0.0
0
LWPOLYLINE
100
AcDbPolyline
8
Calque_1
90
14
70
0
10
93.526164
20
177.038210
30
0.0
10
95.845077
20
177.455219
30
0.0
10
95.278738
20
178.554968
30
0.0
10
94.429128
20
179.551893
30
0.0
10
93.018017
20
179.008454
30
0.0
10
91.585978
20
178.520450
30
0.0
10
89.877697
20
178.113003
30
0.0
10
88.116363
20
177.624137
30
0.0
10
88.052865
20
177.361966
30
0.0
10
88.466586
20
177.036427
30
0.0
10
89.147278
20
176.824451
30
0.0
10
90.217893
20
176.754081
30
0.0
10
93.526164
20
177.038120
30
0.0
10
93.526164
20
177.038210
30
0.0
0
LWPOLYLINE
100
AcDbPolyline
8
Calque_1
90
33
70
0
10
91.271067
20
179.438397
30
0.0
10
92.751966
20
179.797088
30
0.0
10
93.497714
20
180.119370
30
0.0
10
93.761239
20
180.608614
30
0.0
10
93.795466
20
181.468187
30
0.0
10
93.893306
20
182.519801
30
0.0
10
94.201758
20
183.488156
30
0.0
10
94.754904
20
184.449602
30
0.0
10
95.586829
20
185.480487
30
0.0
10
96.476484
20
186.468265
30
0.0
10
90.178481
20
186.642918
30
0.0
10
85.357451
20
186.862758
30
0.0
10
82.610475
20
187.146050
30
0.0
10
79.205884
20
188.193058
30
0.0
10
75.696030
20
189.728369
30
0.0
10
72.785317
20
191.010944
30
0.0
10
70.290970
20
191.796337
30
0.0
10
67.891526
20
192.160030
30
0.0
10
65.265523
20
192.177502
30
0.0
10
62.468811
20
191.921498
30
0.0
10
60.385475
20
191.412776
30
0.0
10
58.621586
20
190.595426
30
0.0
10
59.538808
20
189.873000
30
0.0
10
66.875674
20
185.559416
30
0.0
10
71.078481
20
183.126236
30
0.0
10
74.037147
20
181.564893
30
0.0
10
76.393575
20
180.566214
30
0.0
10
78.789665
20
179.821026
30
0.0
10
81.962284
20
179.146847
30
0.0
10
85.133520
20
178.857323
30
0.0
10
88.253179
20
178.953994
30
0.0
10
91.271067
20
179.438397
30
0.0
10
91.271067
20
179.438397
30
0.0
0
LWPOLYLINE
100
AcDbPolyline
8
Calque_1
90
33
70
0
10
118.546787
20
182.227523
30
0.0
10
120.428252
20
183.630664
30
0.0
10
121.728762
20
184.638853
30
0.0
10
122.991837
20
185.827988
30
0.0
10
125.331143
20
188.644472
30
0.0
10
127.297091
20
191.870869
30
0.0
10
128.740603
20
195.297929
30
0.0
10
129.060628
20
196.571004
30
0.0
10
128.886438
20
197.202929
30
0.0
10
128.321031
20
197.566448
30
0.0
10
127.586331
20
197.603456
30
0.0
10
126.798250
20
197.331812
30
0.0
10
126.072697
20
196.769376
30
0.0
10
125.281792
20
195.922709
30
0.0
10
121.898816
20
195.922709
30
0.0
10
119.188832
20
195.790546
30
0.0
10
116.681361
20
195.383597
30
0.0
10
114.307051
20
194.686172
30
0.0
10
111.996550
20
193.682582
30
0.0
10
109.918405
20
192.422068
30
0.0
10
107.690758
20
190.779774
30
0.0
10
105.913933
20
189.233680
30
0.0
10
105.382179
20
188.646077
30
0.0
10
105.188252
20
188.261767
30
0.0
10
107.550495
20
186.500469
30
0.0
10
109.354455
20
185.186770
30
0.0
10
110.856898
20
183.818301
30
0.0
10
112.065579
20
182.387056
30
0.0
10
112.988251
20
180.885026
30
0.0
10
113.673901
20
179.535123
30
0.0
10
115.945722
20
180.717053
30
0.0
10
118.546787
20
182.227523
30
0.0
10
118.546787
20
182.227523
30
0.0
0
LWPOLYLINE
100
AcDbPolyline
8
Calque_1
90
16
70
0
10
121.285516
20
186.140187
30
0.0
10
122.290911
20
188.193314
30
0.0
10
123.279743
20
190.236212
30
0.0
10
124.230435
20
192.596661
30
0.0
10
125.007524
20
194.537245
30
0.0
10
125.212951
20
194.753892
30
0.0
10
125.350654
20
194.563544
30
0.0
10
125.361013
20
193.701624
30
0.0
10
125.084437
20
192.394958
30
0.0
10
124.589347
20
190.892612
30
0.0
10
123.944166
20
189.443652
30
0.0
10
122.368485
20
187.141988
30
0.0
10
121.614022
20
186.290497
30
0.0
10
121.377601
20
186.104181
30
0.0
10
121.285516
20
186.140187
30
0.0
10
121.285516
20
186.140187
30
0.0
0
LWPOLYLINE
100
AcDbPolyline
8
Calque_1
90
15
70
0
10
143.808698
20
184.207450
30
0.0
10
140.586660
20
185.067424
30
0.0
10
137.432297
20
185.590746
30
0.0
10
133.686088
20
185.934722
30
0.0
10
130.331498
20
186.037479
30
0.0
10
128.351994
20
185.837146
30
0.0
10
128.258722
20
185.703832
30
0.0
10
128.772610
20
185.588333
30
0.0
10
131.879772
20
185.377152
30
0.0
10
135.807747
20
185.084042
30
0.0
10
139.337141
20
184.654155
30
0.0
10
142.927815
20
184.136927
30
0.0
10
143.684146
20
184.101001
30
0.0
10
143.808698
20
184.207450
30
0.0
10
143.808698
20
184.207450
30
0.0
0
LWPOLYLINE
100
AcDbPolyline
8
Calque_1
90
41
70
0
10
129.315726
20
186.615466
30
0.0
10
130.891602
20
186.816741
30
0.0
10
132.702393
20
186.866723
30
0.0
10
133.861968
20
186.863790
30
0.0
10
134.493169
20
186.971949
30
0.0
10
134.702724
20
187.238806
30
0.0
10
134.597363
20
187.711968
30
0.0
10
134.609864
20
188.207358
30
0.0
10
134.853866
20
188.840856
30
0.0
10
135.167085
20
189.230264
30
0.0
10
135.573884
20
189.496295
30
0.0
10
136.501361
20
189.669276
30
0.0
10
137.302576
20
189.381885
30
0.0
10
137.551547
20
189.072452
30
0.0
10
137.643808
20
188.656210
30
0.0
10
137.466033
20
188.361296
30
0.0
10
136.838298
20
188.393255
30
0.0
10
136.189894
20
188.421607
30
0.0
10
135.737380
20
188.253930
30
0.0
10
135.553131
20
187.944457
30
0.0
10
135.709525
20
187.547423
30
0.0
10
136.059292
20
187.284455
30
0.0
10
136.508688
20
187.170982
30
0.0
10
137.526037
20
187.325326
30
0.0
10
138.400924
20
187.876070
30
0.0
10
138.672240
20
188.258097
30
0.0
10
138.772697
20
188.688829
30
0.0
10
138.669063
20
189.253325
30
0.0
10
138.372217
20
189.779731
30
0.0
10
137.283231
20
190.671642
30
0.0
10
135.674416
20
191.271302
30
0.0
10
133.714450
20
191.485454
30
0.0
10
132.190550
20
191.372072
30
0.0
10
131.788803
20
191.208683
30
0.0
10
131.521160
20
190.948190
30
0.0
10
128.959407
20
188.199602
30
0.0
10
127.571754
20
186.668559
30
0.0
10
127.288751
20
186.250063
30
0.0
10
127.342697
20
186.143139
30
0.0
10
129.315726
20
186.615466
30
0.0
10
129.315726
20
186.615466
30
0.0
0
LWPOLYLINE
100
AcDbPolyline
8
Calque_1
90
20
70
0
10
127.514014
20
188.676504
30
0.0
10
129.339224
20
190.407383
30
0.0
10
131.002764
20
192.336894
30
0.0
10
132.489994
20
194.436837
30
0.0
10
133.786278
20
196.679012
30
0.0
10
134.876977
20
199.035221
30
0.0
10
135.747452
20
201.477262
30
0.0
10
136.383065
20
203.976936
30
0.0
10
136.769179
20
206.506043
30
0.0
10
136.909720
20
208.621754
30
0.0
10
136.826780
20
208.921989
30
0.0
10
136.634810
20
208.836673
30
0.0
10
132.883173
20
200.816858
30
0.0
10
129.565454
20
193.881178
30
0.0
10
128.362995
20
191.771385
30
0.0
10
127.125705
20
189.925487
30
0.0
10
125.662672
20
187.782803
30
0.0
10
125.189829
20
186.891598
30
0.0
10
127.514014
20
188.676504
30
0.0
10
127.514014
20
188.676504
30
0.0
0
LWPOLYLINE
100
AcDbPolyline
8
Calque_1
90
40
70
0
10
92.196525
20
187.424098
30
0.0
10
92.501583
20
187.547992
30
0.0
10
92.459201
20
187.698450
30
0.0
10
91.067636
20
188.279454
30
0.0
10
87.242137
20
189.967823
30
0.0
10
83.776078
20
191.928441
30
0.0
10
82.058420
20
193.238620
30
0.0
10
80.576349
20
194.673859
30
0.0
10
79.340356
20
196.213629
30
0.0
10
78.360930
20
197.837400
30
0.0
10
77.648560
20
199.524641
30
0.0
10
77.213738
20
201.254823
30
0.0
10
77.066952
20
203.007417
30
0.0
10
77.218692
20
204.761892
30
0.0
10
77.530475
20
206.983774
30
0.0
10
76.956697
20
207.539347
30
0.0
10
75.476818
20
208.342212
30
0.0
10
73.453021
20
209.218764
30
0.0
10
71.247488
20
209.995399
30
0.0
10
68.689885
20
210.599529
30
0.0
10
65.830545
20
210.965661
30
0.0
10
62.891927
20
211.075531
30
0.0
10
60.096487
20
210.910877
30
0.0
10
56.882896
20
210.429124
30
0.0
10
57.425145
20
209.402026
30
0.0
10
59.148012
20
207.101560
30
0.0
10
61.478272
20
204.255579
30
0.0
10
63.842697
20
201.591936
30
0.0
10
66.887754
20
198.465466
30
0.0
10
69.721355
20
195.803514
30
0.0
10
72.397235
20
193.571095
30
0.0
10
74.969130
20
191.733224
30
0.0
10
77.490777
20
190.254915
30
0.0
10
80.015911
20
189.101184
30
0.0
10
82.598269
20
188.237045
30
0.0
10
85.291586
20
187.627513
30
0.0
10
89.207615
20
187.244532
30
0.0
10
90.965837
20
187.259640
30
0.0
10
92.196525
20
187.424098
30
0.0
10
92.196525
20
187.424098
30
0.0
0
LWPOLYLINE
100
AcDbPolyline
8
Calque_1
90
113
70
0
10
99.476701
20
188.584932
30
0.0
10
100.796368
20
189.303324
30
0.0
10
101.661527
20
189.639137
30
0.0
10
102.224893
20
189.626968
30
0.0
10
102.639182
20
189.301418
30
0.0
10
103.202470
20
188.816908
30
0.0
10
103.842649
20
188.758227
30
0.0
10
104.695929
20
189.156333
30
0.0
10
105.898521
20
190.042183
30
0.0
10
106.964455
20
190.917638
30
0.0
10
107.496856
20
191.486478
30
0.0
10
107.649853
20
191.989802
30
0.0
10
107.577571
20
192.668710
30
0.0
10
107.129782
20
194.887036
30
0.0
10
106.508148
20
196.979343
30
0.0
10
105.717583
20
198.937366
30
0.0
10
104.762998
20
200.752839
30
0.0
10
103.649305
20
202.417498
30
0.0
10
102.381415
20
203.923078
30
0.0
10
100.964242
20
205.261313
30
0.0
10
99.402697
20
206.423939
30
0.0
10
97.319784
20
207.650740
30
0.0
10
94.804551
20
208.932611
30
0.0
10
92.312371
20
210.051251
30
0.0
10
90.298617
20
210.788356
30
0.0
10
88.995463
20
211.268989
30
0.0
10
88.716594
20
211.479180
30
0.0
10
88.674338
20
211.675767
30
0.0
10
88.652008
20
212.686779
30
0.0
10
88.306086
20
214.462690
30
0.0
10
87.751551
20
216.514706
30
0.0
10
87.103385
20
218.354031
30
0.0
10
86.357265
20
220.482551
30
0.0
10
86.260078
20
221.100421
30
0.0
10
86.370981
20
221.322709
30
0.0
10
89.262737
20
220.334932
30
0.0
10
92.135370
20
219.347154
30
0.0
10
94.933330
20
221.887154
30
0.0
10
97.000275
20
223.681029
30
0.0
10
98.142487
20
224.427154
30
0.0
10
99.918049
20
223.961049
30
0.0
10
101.793243
20
223.021984
30
0.0
10
102.488318
20
222.586244
30
0.0
10
102.911906
20
222.537935
30
0.0
10
103.157319
20
222.924192
30
0.0
10
103.317870
20
223.792154
30
0.0
10
103.689619
20
225.283413
30
0.0
10
104.396410
20
227.002806
30
0.0
10
105.348980
20
228.763145
30
0.0
10
106.458066
20
230.377245
30
0.0
10
107.691648
20
231.952892
30
0.0
10
106.248793
20
234.398912
30
0.0
10
105.131549
20
236.126413
30
0.0
10
104.471546
20
236.844932
30
0.0
10
103.558890
20
236.140282
30
0.0
10
101.834205
20
234.446127
30
0.0
10
100.107734
20
232.490650
30
0.0
10
98.457032
20
230.321467
30
0.0
10
96.970014
20
228.062649
30
0.0
10
95.734598
20
225.838265
30
0.0
10
94.858733
20
224.173992
30
0.0
10
93.014131
20
225.232325
30
0.0
10
91.528507
20
226.344256
30
0.0
10
93.179669
20
225.642231
30
0.0
10
94.846665
20
225.007231
30
0.0
10
96.282225
20
227.770598
30
0.0
10
97.333454
20
230.077141
30
0.0
10
97.342502
20
230.513379
30
0.0
10
97.090924
20
230.783637
30
0.0
10
92.011168
20
233.517270
30
0.0
10
87.328299
20
235.716043
30
0.0
10
87.058079
20
235.462538
30
0.0
10
86.664411
20
234.791442
30
0.0
10
85.726426
20
232.732997
30
0.0
10
84.953729
20
230.613740
30
0.0
10
84.766672
20
229.866630
30
0.0
10
84.785705
20
229.506705
30
0.0
10
86.642284
20
228.667599
30
0.0
10
88.123378
20
227.954587
30
0.0
10
87.942914
20
227.902455
30
0.0
10
87.109201
20
228.100869
30
0.0
10
85.117424
20
228.378265
30
0.0
10
84.092867
20
228.378265
30
0.0
10
83.211210
20
225.719421
30
0.0
10
82.451644
20
223.031323
30
0.0
10
81.863520
20
220.302140
30
0.0
10
81.397483
20
217.543703
30
0.0
10
82.074535
20
217.119021
30
0.0
10
84.349434
20
215.032417
30
0.0
10
87.002482
20
212.227808
30
0.0
10
87.316043
20
211.747648
30
0.0
10
86.672818
20
211.828937
30
0.0
10
84.361816
20
212.192615
30
0.0
10
82.968894
20
212.221422
30
0.0
10
82.526281
20
212.003238
30
0.0
10
82.029771
20
211.570467
30
0.0
10
81.018606
20
210.401903
30
0.0
10
79.790536
20
208.727518
30
0.0
10
78.660444
20
207.001376
30
0.0
10
77.943210
20
205.677546
30
0.0
10
77.651715
20
204.496097
30
0.0
10
77.530475
20
203.042741
30
0.0
10
77.722821
20
201.390882
30
0.0
10
78.372441
20
199.773011
30
0.0
10
79.588203
20
197.990683
30
0.0
10
81.478978
20
195.845451
30
0.0
10
84.375203
20
193.123802
30
0.0
10
87.397402
20
190.978132
30
0.0
10
90.650742
20
189.345117
30
0.0
10
94.240390
20
188.161435
30
0.0
10
97.190684
20
187.469920
30
0.0
10
99.476701
20
188.584932
30
0.0
10
99.476701
20
188.584932
30
0.0
0
LWPOLYLINE
100
AcDbPolyline
8
Calque_1
90
67
70
0
10
110.504292
20
193.341183
30
0.0
10
111.505228
20
193.975523
30
0.0
10
112.146502
20
194.542594
30
0.0
10
112.620471
20
195.264764
30
0.0
10
113.119490
20
196.364398
30
0.0
10
113.824344
20
198.368442
30
0.0
10
114.357771
20
200.438265
30
0.0
10
114.818367
20
203.451965
30
0.0
10
115.249975
20
207.428502
30
0.0
10
115.836531
20
216.242709
30
0.0
10
116.038236
20
219.658555
30
0.0
10
116.146659
20
220.287643
30
0.0
10
116.200176
20
220.342507
30
0.0
10
116.252246
20
220.228070
30
0.0
10
116.431270
20
218.134628
30
0.0
10
116.528015
20
213.561598
30
0.0
10
116.405547
20
208.068424
30
0.0
10
115.954115
20
203.442955
30
0.0
10
115.170970
20
199.666472
30
0.0
10
114.654145
20
198.090750
30
0.0
10
114.053360
20
196.720255
30
0.0
10
113.372697
20
195.118006
30
0.0
10
114.139371
20
195.175436
30
0.0
10
115.982651
20
195.677247
30
0.0
10
118.550772
20
196.351652
30
0.0
10
121.060154
20
196.824043
30
0.0
10
123.527704
20
197.152575
30
0.0
10
124.766256
20
199.571532
30
0.0
10
126.661895
20
203.714236
30
0.0
10
128.203337
20
208.028602
30
0.0
10
129.370036
20
212.448362
30
0.0
10
130.141444
20
216.907244
30
0.0
10
130.482007
20
220.890413
30
0.0
10
130.738897
20
226.049932
30
0.0
10
130.828062
20
230.981301
30
0.0
10
130.731373
20
231.834872
30
0.0
10
130.525049
20
232.047154
30
0.0
10
129.908238
20
231.867914
30
0.0
10
128.910552
20
231.363600
30
0.0
10
126.069317
20
229.580192
30
0.0
10
122.594862
20
227.097809
30
0.0
10
119.080706
20
224.317330
30
0.0
10
116.046817
20
221.887154
30
0.0
10
115.912697
20
225.142638
30
0.0
10
115.877430
20
227.313066
30
0.0
10
115.772738
20
227.878632
30
0.0
10
115.556133
20
228.110666
30
0.0
10
115.187207
20
228.018844
30
0.0
10
114.625556
20
227.612842
30
0.0
10
112.762453
20
225.896998
30
0.0
10
110.472576
20
223.331629
30
0.0
10
108.127153
20
219.964189
30
0.0
10
105.867561
20
216.019173
30
0.0
10
103.835177
20
211.721078
30
0.0
10
102.093581
20
207.144285
30
0.0
10
101.899481
20
206.355716
30
0.0
10
101.898218
20
205.840380
30
0.0
10
102.146010
20
205.374517
30
0.0
10
102.699078
20
204.734370
30
0.0
10
104.606261
20
202.327778
30
0.0
10
106.073020
20
199.738240
30
0.0
10
107.213315
20
196.720657
30
0.0
10
108.141104
20
193.029932
30
0.0
10
108.316358
20
192.484939
30
0.0
10
108.509740
20
192.264497
30
0.0
10
110.504292
20
193.341183
30
0.0
10
110.504292
20
193.341183
30
0.0
0
LWPOLYLINE
100
AcDbPolyline
8
Calque_1
90
136
70
0
10
56.975398
20
195.624048
30
0.0
10
56.394136
20
196.423586
30
0.0
10
56.138075
20
197.065698
30
0.0
10
56.177496
20
197.729508
30
0.0
10
56.482686
20
198.594140
30
0.0
10
56.870299
20
199.221633
30
0.0
10
57.432460
20
199.734092
30
0.0
10
58.122397
20
200.120983
30
0.0
10
58.893337
20
200.371773
30
0.0
10
59.698511
20
200.475930
30
0.0
10
60.491144
20
200.422919
30
0.0
10
61.224467
20
200.202209
30
0.0
10
61.851707
20
199.803265
30
0.0
10
62.462233
20
199.062233
30
0.0
10
62.753820
20
198.249978
30
0.0
10
62.711391
20
197.463244
30
0.0
10
62.319874
20
196.798775
30
0.0
10
61.767503
20
196.408189
30
0.0
10
61.153910
20
196.228866
30
0.0
10
60.565615
20
196.270703
30
0.0
10
60.089141
20
196.543598
30
0.0
10
59.805618
20
196.906593
30
0.0
10
59.812990
20
197.151619
30
0.0
10
60.120715
20
197.290189
30
0.0
10
60.738252
20
197.333821
30
0.0
10
61.535074
20
197.445722
30
0.0
10
61.685290
20
197.622510
30
0.0
10
61.726030
20
197.912667
30
0.0
10
61.441343
20
198.460501
30
0.0
10
60.729273
20
198.913536
30
0.0
10
59.802804
20
199.178451
30
0.0
10
58.874922
20
199.161921
30
0.0
10
58.225081
20
198.891508
30
0.0
10
57.696235
20
198.426470
30
0.0
10
57.340621
20
197.829528
30
0.0
10
57.210475
20
197.163401
30
0.0
10
57.476357
20
196.427176
30
0.0
10
58.167260
20
195.650057
30
0.0
10
59.123072
20
194.973398
30
0.0
10
60.183677
20
194.538553
30
0.0
10
62.063189
20
194.330928
30
0.0
10
64.857446
20
194.236279
30
0.0
10
67.391952
20
194.268389
30
0.0
10
68.492209
20
194.441043
30
0.0
10
66.869187
20
196.674127
30
0.0
10
63.274715
20
200.915615
30
0.0
10
59.568045
20
205.036110
30
0.0
10
57.608425
20
206.906217
30
0.0
10
57.276810
20
206.576030
30
0.0
10
56.911480
20
205.749665
30
0.0
10
56.174000
20
204.371582
30
0.0
10
54.935617
20
202.876716
30
0.0
10
53.431916
20
201.510848
30
0.0
10
51.898482
20
200.519757
30
0.0
10
50.958149
20
200.100709
30
0.0
10
50.094106
20
199.863122
30
0.0
10
47.473808
20
199.732983
30
0.0
10
44.873562
20
199.859677
30
0.0
10
44.054093
20
200.092915
30
0.0
10
43.185086
20
200.506108
30
0.0
10
41.785390
20
201.451218
30
0.0
10
40.686994
20
202.609370
30
0.0
10
39.969546
20
203.874279
30
0.0
10
39.712697
20
205.139661
30
0.0
10
39.941349
20
206.311995
30
0.0
10
40.563500
20
207.342290
30
0.0
10
41.483444
20
208.118432
30
0.0
10
42.605475
20
208.528309
30
0.0
10
43.301855
20
208.553835
30
0.0
10
43.656071
20
208.410680
30
0.0
10
43.608079
20
208.173430
30
0.0
10
43.097839
20
207.916671
30
0.0
10
41.686728
20
207.025899
30
0.0
10
40.998125
20
206.209939
30
0.0
10
40.841586
20
205.037714
30
0.0
10
41.002329
20
203.808942
30
0.0
10
41.455074
20
202.699893
30
0.0
10
42.155596
20
201.788065
30
0.0
10
43.059669
20
201.150952
30
0.0
10
44.526680
20
200.707676
30
0.0
10
46.383059
20
200.497931
30
0.0
10
48.293683
20
200.536911
30
0.0
10
49.923429
20
200.839805
30
0.0
10
52.024100
20
201.777451
30
0.0
10
53.887288
20
203.135342
30
0.0
10
55.415744
20
204.826063
30
0.0
10
56.512217
20
206.762199
30
0.0
10
56.922769
20
207.744792
30
0.0
10
55.235562
20
209.373869
30
0.0
10
54.208439
20
210.422059
30
0.0
10
53.905868
20
211.019492
30
0.0
10
54.035142
20
211.204341
30
0.0
10
54.356178
20
211.342701
30
0.0
10
55.587697
20
211.568223
30
0.0
10
56.714988
20
211.851487
30
0.0
10
56.889067
20
212.105211
30
0.0
10
56.925495
20
212.520557
30
0.0
10
56.817968
20
213.326990
30
0.0
10
56.516138
20
214.234935
30
0.0
10
55.421570
20
216.219659
30
0.0
10
53.825789
20
218.203317
30
0.0
10
51.912794
20
219.914500
30
0.0
10
49.992469
20
221.172884
30
0.0
10
48.038841
20
222.138089
30
0.0
10
46.055690
20
222.809683
30
0.0
10
44.046793
20
223.187236
30
0.0
10
42.015929
20
223.270317
30
0.0
10
39.966875
20
223.058495
30
0.0
10
37.903410
20
222.551339
30
0.0
10
35.829313
20
221.748419
30
0.0
10
34.489588
20
221.032165
30
0.0
10
33.178396
20
220.135766
30
0.0
10
30.767681
20
217.939465
30
0.0
10
29.731188
20
216.708030
30
0.0
10
28.849294
20
215.433383
30
0.0
10
28.153513
20
214.149757
30
0.0
10
27.675363
20
212.891385
30
0.0
10
27.399082
20
211.564940
30
0.0
10
27.321408
20
210.197030
30
0.0
10
27.436408
20
208.808500
30
0.0
10
27.738148
20
207.420195
30
0.0
10
28.220696
20
206.052960
30
0.0
10
28.878119
20
204.727640
30
0.0
10
29.704484
20
203.465081
30
0.0
10
30.693857
20
202.286126
30
0.0
10
31.563401
20
201.441292
30
0.0
10
32.474924
20
200.776710
30
0.0
10
35.450080
20
199.356149
30
0.0
10
39.815660
20
197.664553
30
0.0
10
44.002584
20
196.367316
30
0.0
10
48.153910
20
195.426030
30
0.0
10
52.412697
20
194.802290
30
0.0
10
56.112684
20
194.459793
30
0.0
10
57.751509
20
194.441153
30
0.0
10
56.975398
20
195.624048
30
0.0
10
56.975398
20
195.624048
30
0.0
0
LWPOLYLINE
100
AcDbPolyline
8
Calque_1
90
25
70
0
10
135.136740
20
207.070487
30
0.0
10
136.238067
20
209.683492
30
0.0
10
136.568809
20
210.813767
30
0.0
10
133.257860
20
209.790229
30
0.0
10
130.758657
20
208.784513
30
0.0
10
130.142011
20
208.395992
30
0.0
10
129.828629
20
208.022505
30
0.0
10
127.794077
20
203.824932
30
0.0
10
125.096479
20
198.790855
30
0.0
10
124.097141
20
197.168077
30
0.0
10
124.314497
20
197.012304
30
0.0
10
124.845675
20
197.093689
30
0.0
10
125.509343
20
197.359538
30
0.0
10
126.124166
20
197.757154
30
0.0
10
126.882181
20
198.255452
30
0.0
10
127.527171
20
198.462709
30
0.0
10
128.165135
20
198.223354
30
0.0
10
128.894389
20
197.643968
30
0.0
10
129.499833
20
196.932574
30
0.0
10
129.766368
20
196.297196
30
0.0
10
129.891764
20
196.352385
30
0.0
10
130.229485
20
196.889615
30
0.0
10
131.429194
20
199.184100
30
0.0
10
135.136740
20
207.070487
30
0.0
10
135.136740
20
207.070487
30
0.0
0
LWPOLYLINE
100
AcDbPolyline
8
Calque_1
90
31
70
0
10
101.519363
20
207.105325
30
0.0
10
101.895796
20
208.514137
30
0.0
10
102.816464
20
210.924180
30
0.0
10
103.968423
20
213.571805
30
0.0
10
105.038731
20
215.693358
30
0.0
10
106.317141
20
218.211421
30
0.0
10
105.927486
20
218.899631
30
0.0
10
104.960561
20
219.969271
30
0.0
10
103.719426
20
221.116124
30
0.0
10
102.507141
20
222.035972
30
0.0
10
101.087451
20
222.826727
30
0.0
10
99.655712
20
223.454359
30
0.0
10
98.215394
20
223.965825
30
0.0
10
95.140156
20
221.216478
30
0.0
10
92.782137
20
218.968767
30
0.0
10
91.431277
20
217.425477
30
0.0
10
90.788410
20
216.084812
30
0.0
10
90.102957
20
214.279561
30
0.0
10
89.584484
20
212.613902
30
0.0
10
89.442558
20
211.692014
30
0.0
10
90.216373
20
211.266700
30
0.0
10
91.928752
20
210.688353
30
0.0
10
94.040437
20
209.977496
30
0.0
10
96.286564
20
209.056530
30
0.0
10
98.365529
20
208.059223
30
0.0
10
99.975724
20
207.119346
30
0.0
10
100.683058
20
206.696233
30
0.0
10
101.161891
20
206.552987
30
0.0
10
101.433550
20
206.689414
30
0.0
10
101.519363
20
207.105319
30
0.0
10
101.519363
20
207.105325
30
0.0
0
LWPOLYLINE
100
AcDbPolyline
8
Calque_1
90
8
70
0
10
78.377141
20
208.481598
30
0.0
10
78.094919
20
209.046043
30
0.0
10
77.893546
20
208.958831
30
0.0
10
77.812697
20
208.481598
30
0.0
10
77.893546
20
208.004365
30
0.0
10
78.094919
20
207.917154
30
0.0
10
78.377141
20
208.481598
30
0.0
10
78.377141
20
208.481598
30
0.0
0
LWPOLYLINE
100
AcDbPolyline
8
Calque_1
90
16
70
0
10
80.743854
20
211.045048
30
0.0
10
82.078085
20
212.416534
30
0.0
10
82.953225
20
213.105423
30
0.0
10
83.075764
20
213.214115
30
0.0
10
83.049385
20
213.386340
30
0.0
10
82.600586
20
213.891542
30
0.0
10
80.473834
20
215.336026
30
0.0
10
77.384424
20
216.961324
30
0.0
10
74.143808
20
218.289885
30
0.0
10
71.140357
20
219.200865
30
0.0
10
70.656072
20
219.214577
30
0.0
10
70.666771
20
218.969605
30
0.0
10
74.870439
20
213.866552
30
0.0
10
78.941586
20
209.196577
30
0.0
10
80.743854
20
211.045048
30
0.0
10
80.743854
20
211.045048
30
0.0
0
LWPOLYLINE
100
AcDbPolyline
8
Calque_1
90
17
70
0
10
85.364532
20
212.862836
30
0.0
10
84.541861
20
213.760670
30
0.0
10
83.123846
20
214.944447
30
0.0
10
81.432103
20
216.165461
30
0.0
10
79.788252
20
217.175002
30
0.0
10
76.311302
20
218.651486
30
0.0
10
74.719576
20
219.155242
30
0.0
10
73.948778
20
219.246200
30
0.0
10
75.332288
20
218.653937
30
0.0
10
77.260583
20
217.883795
30
0.0
10
79.328005
20
216.818472
30
0.0
10
81.277311
20
215.603976
30
0.0
10
82.851255
20
214.386314
30
0.0
10
84.627097
20
212.907068
30
0.0
10
85.646754
20
212.300181
30
0.0
10
85.364532
20
212.862836
30
0.0
10
85.364532
20
212.862836
30
0.0
0
LWPOLYLINE
100
AcDbPolyline
8
Calque_1
90
13
70
0
10
90.513323
20
216.526227
30
0.0
10
91.140200
20
218.036930
30
0.0
10
91.202846
20
218.749314
30
0.0
10
89.383808
20
219.494683
30
0.0
10
87.471069
20
220.126982
30
0.0
10
87.388098
20
219.991963
30
0.0
10
87.471370
20
219.483664
30
0.0
10
88.105985
20
217.475318
30
0.0
10
89.101501
20
214.619932
30
0.0
10
89.329285
20
214.549376
30
0.0
10
89.771022
20
215.130075
30
0.0
10
90.513323
20
216.526227
30
0.0
10
90.513323
20
216.526227
30
0.0
0
LWPOLYLINE
100
AcDbPolyline
8
Calque_1
90
18
70
0
10
108.738704
20
221.771860
30
0.0
10
109.761510
20
223.476065
30
0.0
10
110.022116
20
224.068877
30
0.0
10
110.120154
20
224.646261
30
0.0
10
109.842417
20
226.227033
30
0.0
10
108.956080
20
229.162964
30
0.0
10
108.253299
20
231.499888
30
0.0
10
106.970144
20
229.868520
30
0.0
10
105.869523
20
228.301422
30
0.0
10
104.939055
20
226.636909
30
0.0
10
104.222153
20
224.962953
30
0.0
10
103.762226
20
223.367528
30
0.0
10
103.446749
20
221.847888
30
0.0
10
105.093612
20
220.346127
30
0.0
10
106.314114
20
219.319850
30
0.0
10
106.935897
20
218.961266
30
0.0
10
108.738704
20
221.771860
30
0.0
10
108.738704
20
221.771860
30
0.0
0
LWPOLYLINE
100
AcDbPolyline
8
Calque_1
90
8
70
0
10
110.712682
20
226.176014
30
0.0
10
110.285428
20
226.600121
30
0.0
10
110.610359
20
225.678423
30
0.0
10
110.882031
20
225.238310
30
0.0
10
111.054789
20
225.234541
30
0.0
10
110.996502
20
225.637720
30
0.0
10
110.712682
20
226.176014
30
0.0
10
110.712682
20
226.176014
30
0.0
0
LWPOLYLINE
100
AcDbPolyline
8
Calque_1
90
38
70
0
10
163.116655
20
197.304162
30
0.0
10
163.965866
20
198.733708
30
0.0
10
164.330131
20
200.298647
30
0.0
10
164.193623
20
201.786793
30
0.0
10
163.932631
20
202.435761
30
0.0
10
163.540511
20
202.985961
30
0.0
10
162.646733
20
203.702425
30
0.0
10
161.547717
20
204.219052
30
0.0
10
160.336121
20
204.534864
30
0.0
10
159.104604
20
204.648881
30
0.0
10
157.945824
20
204.560124
30
0.0
10
156.952441
20
204.267615
30
0.0
10
156.217113
20
203.770373
30
0.0
10
155.832500
20
203.067419
30
0.0
10
155.530026
20
201.950624
30
0.0
10
155.419777
20
201.936230
30
0.0
10
155.285118
20
202.202786
30
0.0
10
155.152965
20
202.879081
30
0.0
10
155.307853
20
203.505563
30
0.0
10
155.715462
20
204.062486
30
0.0
10
156.341470
20
204.530105
30
0.0
10
157.151555
20
204.888674
30
0.0
10
158.111394
20
205.118448
30
0.0
10
159.186667
20
205.199682
30
0.0
10
160.343051
20
205.112630
30
0.0
10
161.512938
20
204.801272
30
0.0
10
162.587397
20
204.261135
30
0.0
10
163.529890
20
203.540826
30
0.0
10
164.303881
20
202.688956
30
0.0
10
164.872834
20
201.754133
30
0.0
10
165.200212
20
200.784968
30
0.0
10
165.249478
20
199.830069
30
0.0
10
164.984097
20
198.938045
30
0.0
10
164.043036
20
197.646082
30
0.0
10
162.912411
20
196.700971
30
0.0
10
162.631240
20
196.652218
30
0.0
10
163.116655
20
197.304162
30
0.0
10
163.116655
20
197.304162
30
0.0
0
LWPOLYLINE
100
AcDbPolyline
8
Calque_1
90
7
70
0
10
209.969131
20
198.068775
30
0.0
10
210.510058
20
198.091043
30
0.0
10
210.632520
20
197.977083
30
0.0
10
210.339548
20
197.920535
30
0.0
10
210.007607
20
197.954889
30
0.0
10
209.969131
20
198.068764
30
0.0
10
209.969131
20
198.068775
30
0.0
0
LWPOLYLINE
100
AcDbPolyline
8
Calque_1
90
33
70
0
10
-7.415282
20
198.265058
30
0.0
10
-6.858871
20
199.558527
30
0.0
10
-5.660475
20
201.358292
30
0.0
10
-4.567941
20
202.405373
30
0.0
10
-2.965642
20
203.502979
30
0.0
10
-1.051463
20
204.531468
30
0.0
10
0.976712
20
205.371199
30
0.0
10
3.476756
20
206.096320
30
0.0
10
6.130473
20
206.591113
30
0.0
10
8.887338
20
206.856925
30
0.0
10
11.696824
20
206.895106
30
0.0
10
14.508407
20
206.707001
30
0.0
10
17.271559
20
206.293960
30
0.0
10
19.935757
20
205.657328
30
0.0
10
22.450473
20
204.798454
30
0.0
10
23.356122
20
204.394796
30
0.0
10
23.487882
20
204.236708
30
0.0
10
21.635886
20
204.685763
30
0.0
10
18.396069
20
205.521646
30
0.0
10
15.151170
20
206.035011
30
0.0
10
11.906722
20
206.225259
30
0.0
10
8.668255
20
206.091789
30
0.0
10
6.125416
20
205.769779
30
0.0
10
3.757030
20
205.285110
30
0.0
10
1.565649
20
204.638959
30
0.0
10
-0.446178
20
203.832502
30
0.0
10
-2.275900
20
202.866917
30
0.0
10
-3.920964
20
201.743379
30
0.0
10
-5.378821
20
200.463066
30
0.0
10
-6.646921
20
199.027154
30
0.0
10
-7.188286
20
198.395830
30
0.0
10
-7.415282
20
198.265058
30
0.0
10
-7.415282
20
198.265058
30
0.0
  0
ENDSEC
  0
SECTION
  2
OBJECTS
  0
DICTIONARY
  5
C
330
0
100
AcDbDictionary
  3
ACAD_GROUP
350
D
  3
ACAD_MLINESTYLE
350
17
  0
DICTIONARY
  5
D
330
C
100
AcDbDictionary
  0
DICTIONARY
  5
1A
330
C
100
AcDbDictionary
  0
DICTIONARY
  5
17
330
C
100
AcDbDictionary
  3
STANDARD
350
18
  0
DICTIONARY
  5
19
330
C
100
AcDbDictionary
  0
ENDSEC
  0
EOF
