999
Inkscape export via OpenSCAD DXF Export
  0
SECTION
  2
HEADER
  9
$ACADVER
  1
AC1014
  9
$HANDSEED
  5
FFFF
  9
$MEASUREMENT
 70
     1
  0
ENDSEC
  0
SECTION
  2
TABLES
  0
TABLE
  2
VPORT
  5
8
330
0
100
AcDbSymbolTable
 70
     4
  0
VPORT
  5
2E
330
8
100
AcDbSymbolTableRecord
100
AcDbViewportTableRecord
  2
*ACTIVE
 70
     0
 10
0.0
 20
0.0
 11
1.0
 21
1.0
 12
210.0
 22
148.5
 13
0.0
 23
0.0
 14
10.0
 24
10.0
 15
10.0
 25
10.0
 16
0.0
 26
0.0
 36
1.0
 17
0.0
 27
0.0
 37
0.0
 40
341.0
 41
1.24
 42
50.0
 43
0.0
 44
0.0
 50
0.0
 51
0.0
 71
     0
 72
   100
 73
     1
 74
     3
 75
     0
 76
     0
 77
     0
 78
     0
  0
ENDTAB
  0
TABLE
  2
LTYPE
  5
5
330
0
100
AcDbSymbolTable
 70
     1
  0
LTYPE
  5
14
330
5
100
AcDbSymbolTableRecord
100
AcDbLinetypeTableRecord
  2
BYBLOCK
 70
     0
  3

 72
    65
 73
     0
 40
0.0
  0
LTYPE
  5
15
330
5
100
AcDbSymbolTableRecord
100
AcDbLinetypeTableRecord
  2
BYLAYER
 70
     0
  3

 72
    65
 73
     0
 40
0.0
  0
LTYPE
  5
16
330
5
100
AcDbSymbolTableRecord
100
AcDbLinetypeTableRecord
  2
CONTINUOUS
 70
     0
  3
Solid line
 72
    65
 73
     0
 40
0.0
  0
ENDTAB
  0
TABLE
0
TABLE
2
LAYER
5
2
330
0
100
AcDbSymbolTable
70
1
0
LAYER
5
10
330
2
100
AcDbSymbolTableRecord
100
AcDbLayerTableRecord
2
Calque_1
70
0
62
7
6
CONTINUOUS
0
ENDTAB
0
ENDSEC
  0
ENDTAB
  0
TABLE
  2
STYLE
  5
3
330
0
100
AcDbSymbolTable
 70
     1
  0
STYLE
  5
11
330
3
100
AcDbSymbolTableRecord
100
AcDbTextStyleTableRecord
  2
STANDARD
 70
     0
 40
0.0
 41
1.0
 50
0.0
 71
     0
 42
2.5
  3
txt
  4

  0
ENDTAB
  0
TABLE
  2
VIEW
  5
6
330
0
100
AcDbSymbolTable
 70
     0
  0
ENDTAB
  0
TABLE
  2
UCS
  5
7
330
0
100
AcDbSymbolTable
 70
     0
  0
ENDTAB
  0
TABLE
  2
APPID
  5
9
330
0
100
AcDbSymbolTable
 70
     2
  0
APPID
  5
12
330
9
100
AcDbSymbolTableRecord
100
AcDbRegAppTableRecord
  2
ACAD
 70
     0
  0
ENDTAB
  0
TABLE
  2
DIMSTYLE
  5
A
330
0
100
AcDbSymbolTable
 70
     1
  0
DIMSTYLE
105
27
330
A
100
AcDbSymbolTableRecord
100
AcDbDimStyleTableRecord
  2
ISO-25
 70
     0
  3

  4

  5

  6

  7

 40
1.0
 41
2.5
 42
0.625
 43
3.75
 44
1.25
 45
0.0
 46
0.0
 47
0.0
 48
0.0
140
2.5
141
2.5
142
0.0
143
0.03937007874016
144
1.0
145
0.0
146
1.0
147
0.625
 71
     0
 72
     0
 73
     0
 74
     0
 75
     0
 76
     0
 77
     1
 78
     8
170
     0
171
     3
172
     1
173
     0
174
     0
175
     0
176
     0
177
     0
178
     0
270
     2
271
     2
272
     2
273
     2
274
     3
340
11
275
     0
280
     0
281
     0
282
     0
283
     0
284
     8
285
     0
286
     0
287
     3
288
     0
  0
ENDTAB
  0
TABLE
  2
BLOCK_RECORD
  5
1
330
0
100
AcDbSymbolTable
 70
     1
  0
BLOCK_RECORD
  5
1F
330
1
100
AcDbSymbolTableRecord
100
AcDbBlockTableRecord
  2
*MODEL_SPACE
  0
BLOCK_RECORD
  5
1B
330
1
100
AcDbSymbolTableRecord
100
AcDbBlockTableRecord
  2
*PAPER_SPACE
  0
ENDTAB
  0
ENDSEC
  0
SECTION
  2
BLOCKS
  0
BLOCK
  5
20
330
1F
100
AcDbEntity
  8
0
100
AcDbBlockBegin
  2
*MODEL_SPACE
 70
     0
 10
0.0
 20
0.0
 30
0.0
  3
*MODEL_SPACE
  1

  0
ENDBLK
  5
21
330
1F
100
AcDbEntity
  8
0
100
AcDbBlockEnd
  0
BLOCK
  5
1C
330
1B
100
AcDbEntity
 67
     1
  8
0
100
AcDbBlockBegin
  2
*PAPER_SPACE
  1

  0
ENDBLK
  5
1D
330
1B
100
AcDbEntity
 67
     1
  8
0
100
AcDbBlockEnd
  0
ENDSEC
  0
SECTION
  2
ENTITIES
0
DIMENSION
5
83
100
AcDbEntity
62
256
370
-1
6
ByLayer
1
total_width
3
Standard
70
0
71
5
72
1
41
1.0
100
AcDbAlignedDimension
13
8.132944
23
0.000000
33
0.0
14
201.621319
24
0.000000
34
0.0
50
0.000000
100
AcDbRotatedDimension
0
DIMENSION
5
83
100
AcDbEntity
62
256
370
-1
6
ByLayer
1
total_height
3
Standard
70
0
71
5
72
1
41
1.0
100
AcDbAlignedDimension
13
0.000000
23
153.805112
33
0.0
14
0.000000
24
265.347014
34
0.0
50
90.000000
100
AcDbRotatedDimension
0
DIMENSION
8
Calque_1
5
83
100
AcDbEntity
62
256
370
-1
6
ByLayer
1
Calque_1_width
3
Standard
70
0
71
5
72
1
41
1.0
100
AcDbAlignedDimension
13
8.132944
23
0.000000
33
0.0
14
201.621319
24
0.000000
34
0.0
50
0.000000
100
AcDbRotatedDimension
0
DIMENSION
8
Calque_1
5
83
100
AcDbEntity
62
256
370
-1
6
ByLayer
1
Calque_1_height
3
Standard
70
0
71
5
72
1
41
1.0
100
AcDbAlignedDimension
13
0.000000
23
153.805112
33
0.0
14
0.000000
24
265.347014
34
0.0
50
90.000000
100
AcDbRotatedDimension
0
LWPOLYLINE
100
AcDbPolyline
8
Calque_1
90
1544
70
0
10
103.769583
20
265.347014
30
0.0
10
102.914097
20
264.967778
30
0.0
10
102.211426
20
264.442603
30
0.0
10
101.749931
20
263.927083
30
0.0
10
101.024671
20
262.862684
30
0.0
10
100.752433
20
262.822469
30
0.0
10
100.391736
20
263.009861
30
0.0
10
99.898606
20
263.217377
30
0.0
10
99.382928
20
263.255029
30
0.0
10
98.361976
20
262.873685
30
0.0
10
97.484985
20
261.971732
30
0.0
10
96.908056
20
260.655069
30
0.0
10
96.529530
20
259.691636
30
0.0
10
96.017292
20
259.173403
30
0.0
10
95.467813
20
258.732193
30
0.0
10
94.976597
20
258.053333
30
0.0
10
94.483439
20
257.417733
30
0.0
10
93.891806
20
257.294861
30
0.0
10
93.223295
20
257.155283
30
0.0
10
92.558701
20
256.662539
30
0.0
10
92.049131
20
255.970019
30
0.0
10
91.845694
20
255.231111
30
0.0
10
91.954061
20
254.437752
30
0.0
10
92.277252
20
253.532887
30
0.0
10
93.556667
20
251.421111
30
0.0
10
94.231222
20
250.290179
30
0.0
10
94.420972
20
249.419097
30
0.0
10
94.448562
20
248.885204
30
0.0
10
94.680156
20
248.472256
30
0.0
10
95.154779
20
248.138059
30
0.0
10
95.911458
20
247.840417
30
0.0
10
96.549076
20
247.478017
30
0.0
10
96.828681
20
246.914375
30
0.0
10
97.085802
20
246.166797
30
0.0
10
97.574221
20
245.552532
30
0.0
10
98.240147
20
245.085734
30
0.0
10
99.029787
20
244.780558
30
0.0
10
99.889349
20
244.651159
30
0.0
10
100.765042
20
244.711691
30
0.0
10
101.603074
20
244.976308
30
0.0
10
102.349653
20
245.459167
30
0.0
10
103.184511
20
246.045417
30
0.0
10
103.474739
20
246.077890
30
0.0
10
103.751944
20
245.961875
30
0.0
10
104.267401
20
245.839812
30
0.0
10
104.880833
20
246.252917
30
0.0
10
105.637836
20
246.735352
30
0.0
10
106.547708
20
247.046667
30
0.0
10
107.447577
20
247.081627
30
0.0
10
107.623576
20
246.834561
30
0.0
10
107.747153
20
246.332292
30
0.0
10
107.875834
20
245.046442
30
0.0
10
107.765650
20
243.685792
30
0.0
10
107.419848
20
242.257719
30
0.0
10
106.841678
20
240.769603
30
0.0
10
106.034387
20
239.228825
30
0.0
10
105.001224
20
237.642762
30
0.0
10
102.270278
20
234.364306
30
0.0
10
100.065417
20
232.230000
30
0.0
10
99.880208
20
234.135000
30
0.0
10
99.575278
20
236.562537
30
0.0
10
98.728046
20
239.004299
30
0.0
10
97.413996
20
241.295648
30
0.0
10
95.708611
20
243.271944
30
0.0
10
94.533453
20
244.135635
30
0.0
10
92.974583
20
245.018194
30
0.0
10
91.908404
20
245.501946
30
0.0
10
91.005305
20
245.772551
30
0.0
10
88.459028
20
245.917778
30
0.0
10
85.915419
20
245.775992
30
0.0
10
85.006316
20
245.512178
30
0.0
10
83.943472
20
245.044653
30
0.0
10
82.327374
20
244.092921
30
0.0
10
80.856255
20
242.865485
30
0.0
10
79.603623
20
241.433379
30
0.0
10
78.642986
20
239.867639
30
0.0
10
78.235921
20
238.951721
30
0.0
10
78.002733
20
238.107765
30
0.0
10
77.875694
20
235.616667
30
0.0
10
78.017606
20
233.125818
30
0.0
10
78.259551
20
232.290349
30
0.0
10
78.678264
20
231.383333
30
0.0
10
79.367754
20
230.194284
30
0.0
10
80.150321
20
229.153225
30
0.0
10
81.020306
20
228.263894
30
0.0
10
81.972052
20
227.530028
30
0.0
10
82.999900
20
226.955365
30
0.0
10
84.098192
20
226.543640
30
0.0
10
85.261268
20
226.298592
30
0.0
10
86.483472
20
226.223958
30
0.0
10
87.685325
20
226.320067
30
0.0
10
88.833428
20
226.578174
30
0.0
10
89.911476
20
226.987649
30
0.0
10
90.903161
20
227.537864
30
0.0
10
91.792177
20
228.218190
30
0.0
10
92.562216
20
229.017998
30
0.0
10
93.196972
20
229.926658
30
0.0
10
93.680139
20
230.933542
30
0.0
10
94.035886
20
232.260954
30
0.0
10
93.882986
20
233.588194
30
0.0
10
93.490212
20
234.776160
30
0.0
10
92.900083
20
236.090062
30
0.0
10
92.300902
20
237.154038
30
0.0
10
91.880972
20
237.592222
30
0.0
10
91.210694
20
236.251667
30
0.0
10
90.614563
20
234.990698
30
0.0
10
89.852500
20
233.843958
30
0.0
10
88.970556
20
232.785625
30
0.0
10
87.233125
20
232.953194
30
0.0
10
85.635382
20
232.988193
30
0.0
10
85.200657
20
232.770018
30
0.0
10
84.746042
20
232.327014
30
0.0
10
84.133095
20
231.557267
30
0.0
10
83.846264
20
230.883746
30
0.0
10
83.870415
20
230.230712
30
0.0
10
84.190417
20
229.522431
30
0.0
10
84.769619
20
228.854239
30
0.0
10
85.578144
20
228.275599
30
0.0
10
86.473326
20
227.868378
30
0.0
10
87.312500
20
227.714444
30
0.0
10
88.073686
20
227.823951
30
0.0
10
88.832849
20
228.136829
30
0.0
10
89.568407
20
228.629612
30
0.0
10
90.258777
20
229.278835
30
0.0
10
91.417625
20
230.952743
30
0.0
10
92.136736
20
232.970833
30
0.0
10
92.604167
20
234.487778
30
0.0
10
92.722957
20
233.924278
30
0.0
10
92.575095
20
232.596322
30
0.0
10
92.249947
20
231.047722
30
0.0
10
91.836875
20
229.822292
30
0.0
10
91.054640
20
228.658470
30
0.0
10
89.817222
20
227.829097
30
0.0
10
88.364716
20
227.249179
30
0.0
10
86.915075
20
226.968612
30
0.0
10
85.494200
20
226.978993
30
0.0
10
84.127990
20
227.271923
30
0.0
10
82.842343
20
227.839001
30
0.0
10
81.663159
20
228.671825
30
0.0
10
80.616338
20
229.761996
30
0.0
10
79.727778
20
231.101111
30
0.0
10
79.168469
20
232.182925
30
0.0
10
78.867548
20
233.057883
30
0.0
10
78.722361
20
235.616667
30
0.0
10
78.847399
20
238.068648
30
0.0
10
79.419097
20
239.708889
30
0.0
10
80.280250
20
241.096986
30
0.0
10
81.408503
20
242.375777
30
0.0
10
82.728268
20
243.472061
30
0.0
10
84.163958
20
244.312639
30
0.0
10
85.963790
20
244.935973
30
0.0
10
88.459028
20
245.071111
30
0.0
10
90.937560
20
244.938762
30
0.0
10
92.692361
20
244.339097
30
0.0
10
94.249845
20
243.406464
30
0.0
10
95.671191
20
242.145428
30
0.0
10
96.926038
20
240.587754
30
0.0
10
97.984028
20
238.765208
30
0.0
10
98.558653
20
237.522887
30
0.0
10
98.876699
20
236.560775
30
0.0
10
99.042361
20
234.179097
30
0.0
10
99.012561
20
232.764685
30
0.0
10
98.850401
20
231.703194
30
0.0
10
98.449083
20
230.574378
30
0.0
10
97.701806
20
228.957986
30
0.0
10
96.757351
20
226.747238
30
0.0
10
95.970546
20
224.469063
30
0.0
10
95.432010
20
222.420106
30
0.0
10
95.232361
20
220.897014
30
0.0
10
95.178833
20
220.351744
30
0.0
10
95.024208
20
220.126402
30
0.0
10
94.777427
20
220.224629
30
0.0
10
94.447431
20
220.650069
30
0.0
10
93.759365
20
221.385587
30
0.0
10
92.728374
20
222.052844
30
0.0
10
91.516216
20
222.565520
30
0.0
10
90.284653
20
222.837292
30
0.0
10
88.994306
20
222.819322
30
0.0
10
87.808511
20
222.513442
30
0.0
10
86.758375
20
221.954200
30
0.0
10
85.875008
20
221.176140
30
0.0
10
85.189518
20
220.213810
30
0.0
10
84.733012
20
219.101757
30
0.0
10
84.536600
20
217.874527
30
0.0
10
84.631389
20
216.566667
30
0.0
10
85.049644
20
215.526806
30
0.0
10
85.822735
20
214.462356
30
0.0
10
86.767444
20
213.581347
30
0.0
10
87.700556
20
213.091806
30
0.0
10
88.687408
20
212.952213
30
0.0
10
89.507464
20
213.051622
30
0.0
10
90.133222
20
213.342445
30
0.0
10
90.537183
20
213.777094
30
0.0
10
90.691849
20
214.307984
30
0.0
10
90.569718
20
214.887526
30
0.0
10
90.143291
20
215.468135
30
0.0
10
89.385069
20
216.002222
30
0.0
10
88.499520
20
216.616825
30
0.0
10
87.952240
20
217.323989
30
0.0
10
87.761982
20
218.086850
30
0.0
10
87.947500
20
218.868542
30
0.0
10
88.390720
20
219.437646
30
0.0
10
89.035759
20
219.838845
30
0.0
10
89.791511
20
220.032705
30
0.0
10
90.566875
20
219.979792
30
0.0
10
91.116077
20
219.688670
30
0.0
10
91.420272
20
219.227547
30
0.0
10
91.438880
20
218.719213
30
0.0
10
91.131319
20
218.286458
30
0.0
10
90.801384
20
217.860504
30
0.0
10
90.774734
20
217.382192
30
0.0
10
91.021185
20
216.972367
30
0.0
10
91.510556
20
216.751875
30
0.0
10
92.066961
20
216.751352
30
0.0
10
92.491318
20
216.909007
30
0.0
10
92.779143
20
217.198428
30
0.0
10
92.925948
20
217.593201
30
0.0
10
92.778559
20
218.593156
30
0.0
10
92.013264
20
219.697569
30
0.0
10
90.987974
20
220.438899
30
0.0
10
89.909969
20
220.709231
30
0.0
10
88.847327
20
220.506806
30
0.0
10
87.868125
20
219.829861
30
0.0
10
87.449697
20
219.293484
30
0.0
10
87.192676
20
218.704341
30
0.0
10
87.091567
20
218.089530
30
0.0
10
87.140877
20
217.476149
30
0.0
10
87.335112
20
216.891296
30
0.0
10
87.668778
20
216.362069
30
0.0
10
88.136382
20
215.915568
30
0.0
10
88.732431
20
215.578889
30
0.0
10
89.689274
20
214.966909
30
0.0
10
89.911979
20
214.637873
30
0.0
10
89.966835
20
214.321511
30
0.0
10
89.855814
20
214.038849
30
0.0
10
89.580891
20
213.810914
30
0.0
10
88.547222
20
213.603333
30
0.0
10
87.590405
20
213.842457
30
0.0
10
86.639330
20
214.476918
30
0.0
10
85.835222
20
215.382346
30
0.0
10
85.319306
20
216.434375
30
0.0
10
85.161445
20
217.382242
30
0.0
10
85.232659
20
218.334292
30
0.0
10
85.510259
20
219.256496
30
0.0
10
85.971553
20
220.114823
30
0.0
10
86.593850
20
220.875243
30
0.0
10
87.354461
20
221.503724
30
0.0
10
88.230695
20
221.966237
30
0.0
10
89.199861
20
222.228750
30
0.0
10
90.496423
20
222.231295
30
0.0
10
91.986806
20
221.655486
30
0.0
10
93.267583
20
220.838992
30
0.0
10
94.184970
20
219.762126
30
0.0
10
94.814663
20
218.300204
30
0.0
10
95.232361
20
216.328542
30
0.0
10
95.865005
20
213.232351
30
0.0
10
96.319579
20
211.915815
30
0.0
10
96.919017
20
210.656982
30
0.0
10
98.710587
20
208.022409
30
0.0
10
101.555903
20
204.748611
30
0.0
10
105.912357
20
199.863068
30
0.0
10
108.020556
20
197.040417
30
0.0
10
108.583844
20
195.914658
30
0.0
10
108.549728
20
195.518305
30
0.0
10
108.338056
20
195.029583
30
0.0
10
107.818107
20
194.367016
30
0.0
10
107.094514
20
194.032986
30
0.0
10
106.367407
20
193.705512
30
0.0
10
105.789236
20
193.151042
30
0.0
10
105.480657
20
192.382050
30
0.0
10
105.353191
20
191.412499
30
0.0
10
105.412880
20
190.430274
30
0.0
10
105.665764
20
189.623264
30
0.0
10
105.771119
20
189.270173
30
0.0
10
105.577249
20
188.912790
30
0.0
10
103.778403
20
187.638889
30
0.0
10
101.594335
20
186.378839
30
0.0
10
101.055204
20
186.211547
30
0.0
10
100.876806
20
186.351250
30
0.0
10
101.891042
20
186.959792
30
0.0
10
102.789492
20
187.620338
30
0.0
10
103.636669
20
188.645009
30
0.0
10
104.312178
20
189.856741
30
0.0
10
104.695625
20
191.078472
30
0.0
10
104.724294
20
192.050453
30
0.0
10
104.476585
20
192.908744
30
0.0
10
103.967979
20
193.621396
30
0.0
10
103.213958
20
194.156458
30
0.0
10
102.336418
20
194.730382
30
0.0
10
101.502986
20
195.470556
30
0.0
10
100.878744
20
196.295414
30
0.0
10
100.938518
20
196.580093
30
0.0
10
101.211944
20
196.952222
30
0.0
10
101.607221
20
197.851407
30
0.0
10
101.723472
20
199.412847
30
0.0
10
101.575362
20
201.118467
30
0.0
10
101.276556
20
201.641896
30
0.0
10
100.726875
20
202.235069
30
0.0
10
100.143821
20
202.778371
30
0.0
10
99.668053
20
203.058532
30
0.0
10
99.119769
20
203.140833
30
0.0
10
98.319167
20
203.090556
30
0.0
10
97.090036
20
203.081515
30
0.0
10
96.867368
20
203.285087
30
0.0
10
96.740486
20
203.690278
30
0.0
10
96.390895
20
204.672715
30
0.0
10
95.836613
20
205.689543
30
0.0
10
95.194077
20
206.555610
30
0.0
10
94.579722
20
207.085764
30
0.0
10
93.839605
20
207.277670
30
0.0
10
92.924910
20
207.142554
30
0.0
10
91.812361
20
206.674772
30
0.0
10
90.478681
20
205.868681
30
0.0
10
89.129306
20
204.969097
30
0.0
10
88.353194
20
205.754028
30
0.0
10
87.483951
20
206.384010
30
0.0
10
86.360000
20
206.547778
30
0.0
10
85.230542
20
206.383559
30
0.0
10
84.189913
20
205.879084
30
0.0
10
83.209067
20
205.016630
30
0.0
10
82.258958
20
203.778472
30
0.0
10
81.315489
20
202.572740
30
0.0
10
80.953067
20
202.422633
30
0.0
10
80.521528
20
202.464375
30
0.0
10
80.094499
20
202.499504
30
0.0
10
79.680746
20
202.376091
30
0.0
10
78.572431
20
201.494236
30
0.0
10
77.516270
20
200.639763
30
0.0
10
77.173982
20
200.545250
30
0.0
10
76.870278
20
200.629931
30
0.0
10
76.128320
20
200.858853
30
0.0
10
75.258848
20
200.879578
30
0.0
10
74.405751
20
200.704924
30
0.0
10
73.712917
20
200.347708
30
0.0
10
73.030078
20
199.634419
30
0.0
10
72.603976
20
198.733743
30
0.0
10
72.412640
20
197.572896
30
0.0
10
72.434097
20
196.079097
30
0.0
10
72.472257
20
194.503972
30
0.0
10
72.372309
20
194.249364
30
0.0
10
72.178333
20
194.244653
30
0.0
10
69.868045
20
194.940583
30
0.0
10
67.262011
20
195.311404
30
0.0
10
64.086864
20
195.375949
30
0.0
10
60.069236
20
195.153056
30
0.0
10
57.624795
20
195.065433
30
0.0
10
55.768246
20
195.293773
30
0.0
10
54.249795
20
195.901546
30
0.0
10
52.819653
20
196.952222
30
0.0
10
51.641958
20
198.226463
30
0.0
10
50.842146
20
199.678495
30
0.0
10
50.387268
20
201.390168
30
0.0
10
50.244375
20
203.443333
30
0.0
10
50.403162
20
205.782647
30
0.0
10
51.188056
20
207.888333
30
0.0
10
52.157831
20
209.596782
30
0.0
10
53.376007
20
211.071038
30
0.0
10
54.829739
20
212.298906
30
0.0
10
56.506181
20
213.268194
30
0.0
10
57.448341
20
213.665529
30
0.0
10
58.326842
20
213.892724
30
0.0
10
60.942361
20
214.017847
30
0.0
10
63.529214
20
213.891474
30
0.0
10
64.337916
20
213.665596
30
0.0
10
65.175694
20
213.268194
30
0.0
10
66.249394
20
212.613959
30
0.0
10
67.194358
20
211.862093
30
0.0
10
68.006142
20
211.019748
30
0.0
10
68.680300
20
210.094074
30
0.0
10
69.212384
20
209.092222
30
0.0
10
69.597949
20
208.021344
30
0.0
10
69.832548
20
206.888590
30
0.0
10
69.911736
20
205.701111
30
0.0
10
69.827204
20
204.456621
30
0.0
10
69.579311
20
203.294812
30
0.0
10
69.176611
20
202.228183
30
0.0
10
68.627660
20
201.269234
30
0.0
10
67.941010
20
200.430463
30
0.0
10
67.125216
20
199.724369
30
0.0
10
66.188834
20
199.163451
30
0.0
10
65.140417
20
198.760208
30
0.0
10
63.845756
20
198.501852
30
0.0
10
62.603807
20
198.485039
30
0.0
10
61.432370
20
198.700241
30
0.0
10
60.349244
20
199.137930
30
0.0
10
59.372228
20
199.788578
30
0.0
10
58.519122
20
200.642656
30
0.0
10
57.807724
20
201.690634
30
0.0
10
57.255833
20
202.922986
30
0.0
10
56.973745
20
204.039205
30
0.0
10
56.867778
20
205.101389
30
0.0
10
56.885417
20
206.124444
30
0.0
10
57.264653
20
205.101389
30
0.0
10
58.292226
20
203.055886
30
0.0
10
59.708282
20
201.175579
30
0.0
10
61.258513
20
199.743437
30
0.0
10
62.004473
20
199.283856
30
0.0
10
62.688611
20
199.042431
30
0.0
10
63.461182
20
198.984230
30
0.0
10
64.181520
20
199.098035
30
0.0
10
64.834513
20
199.369784
30
0.0
10
65.405048
20
199.785413
30
0.0
10
65.878011
20
200.330860
30
0.0
10
66.238291
20
200.992063
30
0.0
10
66.470774
20
201.754959
30
0.0
10
66.560347
20
202.605486
30
0.0
10
66.429002
20
203.947141
30
0.0
10
65.946657
20
204.873945
30
0.0
10
65.050167
20
205.453656
30
0.0
10
63.676389
20
205.754028
30
0.0
10
62.104380
20
206.037403
30
0.0
10
60.708032
20
206.525417
30
0.0
10
59.444282
20
207.238483
30
0.0
10
58.270069
20
208.197014
30
0.0
10
56.973611
20
209.370000
30
0.0
10
56.728506
20
208.804727
30
0.0
10
56.467440
20
207.414283
30
0.0
10
56.171042
20
203.990139
30
0.0
10
56.293407
20
201.778398
30
0.0
10
56.516415
20
201.060926
30
0.0
10
56.903056
20
200.321250
30
0.0
10
57.576158
20
199.350515
30
0.0
10
58.348643
20
198.577849
30
0.0
10
59.249411
20
197.980148
30
0.0
10
60.307361
20
197.534306
30
0.0
10
61.686570
20
197.226064
30
0.0
10
63.076218
20
197.189954
30
0.0
10
64.444302
20
197.411431
30
0.0
10
65.758819
20
197.875946
30
0.0
10
66.987768
20
198.568955
30
0.0
10
68.099146
20
199.475909
30
0.0
10
69.060951
20
200.582264
30
0.0
10
69.841181
20
201.873472
30
0.0
10
70.336351
20
202.942884
30
0.0
10
70.591718
20
203.783830
30
0.0
10
70.617292
20
206.045069
30
0.0
10
70.465759
20
207.414245
30
0.0
10
70.167681
20
208.675682
30
0.0
10
69.722538
20
209.830026
30
0.0
10
69.129813
20
210.877919
30
0.0
10
68.388985
20
211.820004
30
0.0
10
67.499538
20
212.656925
30
0.0
10
66.460952
20
213.389325
30
0.0
10
65.272708
20
214.017847
30
0.0
10
63.670568
20
214.585454
30
0.0
10
61.987400
20
214.881246
30
0.0
10
60.266439
20
214.914056
30
0.0
10
58.550921
20
214.692719
30
0.0
10
56.884081
20
214.226068
30
0.0
10
55.309155
20
213.522937
30
0.0
10
53.869378
20
212.592160
30
0.0
10
52.607986
20
211.442569
30
0.0
10
51.446394
20
210.295835
30
0.0
10
51.290013
20
210.286417
30
0.0
10
51.373264
20
210.622361
30
0.0
10
51.409233
20
211.511886
30
0.0
10
51.136975
20
212.807446
30
0.0
10
50.649928
20
214.179041
30
0.0
10
50.041528
20
215.296667
30
0.0
10
49.014574
20
216.344177
30
0.0
10
47.699378
20
217.168551
30
0.0
10
46.296282
20
217.672140
30
0.0
10
45.005625
20
217.757292
30
0.0
10
43.779784
20
217.477179
30
0.0
10
42.707093
20
217.001790
30
0.0
10
41.806091
20
216.356961
30
0.0
10
41.095321
20
215.568528
30
0.0
10
40.593321
20
214.662327
30
0.0
10
40.318632
20
213.664196
30
0.0
10
40.289794
20
212.599970
30
0.0
10
40.525347
20
211.495486
30
0.0
10
41.037549
20
210.532814
30
0.0
10
41.819691
20
209.770328
30
0.0
10
42.788099
20
209.268493
30
0.0
10
43.859097
20
209.087778
30
0.0
10
44.782220
20
209.236428
30
0.0
10
45.441293
20
209.678205
30
0.0
10
45.829615
20
210.406852
30
0.0
10
45.940486
20
211.416111
30
0.0
10
45.740157
20
212.484800
30
0.0
10
45.023264
20
213.294653
30
0.0
10
44.299729
20
214.162728
30
0.0
10
44.187449
20
214.562606
30
0.0
10
44.232833
20
214.916563
30
0.0
10
44.429387
20
215.207239
30
0.0
10
44.770614
20
215.417273
30
0.0
10
45.861111
20
215.525972
30
0.0
10
46.628971
20
215.329314
30
0.0
10
47.072018
20
214.958037
30
0.0
10
47.156555
20
214.467238
30
0.0
10
46.848889
20
213.912014
30
0.0
10
46.612941
20
213.547603
30
0.0
10
46.528441
20
213.178611
30
0.0
10
46.725091
20
212.541596
30
0.0
10
47.261453
20
212.230398
30
0.0
10
47.601592
20
212.268676
30
0.0
10
47.960139
20
212.474444
30
0.0
10
48.255265
20
212.853524
30
0.0
10
48.386737
20
213.331494
30
0.0
10
48.217221
20
214.431138
30
0.0
10
47.568591
20
215.467453
30
0.0
10
47.101171
20
215.866261
30
0.0
10
46.557847
20
216.134514
30
0.0
10
45.760529
20
216.312474
30
0.0
10
45.068647
20
216.271712
30
0.0
10
44.446679
20
216.003601
30
0.0
10
43.859097
20
215.499514
30
0.0
10
43.438196
20
214.929986
30
0.0
10
43.360308
20
214.413677
30
0.0
10
43.644262
20
213.851588
30
0.0
10
44.308889
20
213.144722
30
0.0
10
45.117073
20
212.178301
30
0.0
10
45.234940
20
211.721841
30
0.0
10
45.226111
20
211.142708
30
0.0
10
44.999892
20
210.237042
30
0.0
10
44.344167
20
209.810972
30
0.0
10
43.476849
20
209.705248
30
0.0
10
42.677980
20
209.960451
30
0.0
10
41.987157
20
210.503512
30
0.0
10
41.443976
20
211.261357
30
0.0
10
41.088031
20
212.160917
30
0.0
10
40.958921
20
213.129119
30
0.0
10
41.096239
20
214.092893
30
0.0
10
41.539583
20
214.979167
30
0.0
10
42.117553
20
215.629104
30
0.0
10
42.790556
20
216.162998
30
0.0
10
44.328440
20
216.857376
30
0.0
10
45.966791
20
217.011728
30
0.0
10
46.765379
20
216.870592
30
0.0
10
47.519167
20
216.575486
30
0.0
10
48.785856
20
215.603331
30
0.0
10
49.874446
20
214.198479
30
0.0
10
50.636472
20
212.601887
30
0.0
10
50.923472
20
211.054514
30
0.0
10
50.076806
20
207.773681
30
0.0
10
49.502624
20
205.565387
30
0.0
10
49.242490
20
203.516122
30
0.0
10
49.298090
20
201.646538
30
0.0
10
49.671111
20
199.977292
30
0.0
10
50.600948
20
198.196908
30
0.0
10
52.050511
20
196.583324
30
0.0
10
53.869212
20
195.271046
30
0.0
10
55.906458
20
194.394583
30
0.0
10
57.079444
20
194.050625
30
0.0
10
55.906458
20
193.168681
30
0.0
10
54.838934
20
192.106921
30
0.0
10
53.948542
20
190.743333
30
0.0
10
53.154021
20
189.276925
30
0.0
10
52.436942
20
188.259244
30
0.0
10
51.664274
20
187.537722
30
0.0
10
50.702986
20
186.959792
30
0.0
10
49.235717
20
186.306420
30
0.0
10
47.789335
20
185.831280
30
0.0
10
46.399690
20
185.535131
30
0.0
10
45.102630
20
185.418730
30
0.0
10
43.934004
20
185.482834
30
0.0
10
42.929661
20
185.728203
30
0.0
10
42.125451
20
186.155594
30
0.0
10
41.557222
20
186.765764
30
0.0
10
40.895693
20
187.328638
30
0.0
10
40.603042
20
187.372173
30
0.0
10
40.481250
20
187.197917
30
0.0
10
40.790056
20
186.446487
30
0.0
10
41.599448
20
185.692924
30
0.0
10
42.733891
20
185.063472
30
0.0
10
44.017847
20
184.684375
30
0.0
10
45.449645
20
184.665919
30
0.0
10
47.246465
20
184.952115
30
0.0
10
49.155381
20
185.485881
30
0.0
10
50.923472
20
186.210139
30
0.0
10
52.863750
20
187.074444
30
0.0
10
53.331181
20
186.157222
30
0.0
10
53.657755
20
185.471578
30
0.0
10
54.179072
20
184.941454
30
0.0
10
54.881194
20
184.568770
30
0.0
10
55.750183
20
184.355446
30
0.0
10
56.772100
20
184.303404
30
0.0
10
57.933008
20
184.414563
30
0.0
10
60.616042
20
185.134167
30
0.0
10
62.334888
20
185.683987
30
0.0
10
63.539484
20
185.826086
30
0.0
10
64.466370
20
185.545055
30
0.0
10
65.352083
20
184.825486
30
0.0
10
65.944479
20
184.039393
30
0.0
10
66.138633
20
183.259293
30
0.0
10
65.935103
20
182.477359
30
0.0
10
65.334444
20
181.685764
30
0.0
10
64.656027
20
181.132515
30
0.0
10
64.025909
20
180.901365
30
0.0
10
63.404035
20
180.987449
30
0.0
10
62.750347
20
181.385903
30
0.0
10
62.106528
20
181.915069
30
0.0
10
62.935556
20
182.311944
30
0.0
10
63.590919
20
182.799519
30
0.0
10
63.764583
20
183.546667
30
0.0
10
63.610976
20
184.263257
30
0.0
10
62.865000
20
184.481528
30
0.0
10
62.159662
20
184.408749
30
0.0
10
61.683378
20
184.031642
30
0.0
10
61.436308
20
183.350311
30
0.0
10
61.418611
20
182.364861
30
0.0
10
61.666705
20
181.493921
30
0.0
10
62.216017
20
180.823156
30
0.0
10
63.019265
20
180.391871
30
0.0
10
64.029167
20
180.239375
30
0.0
10
64.907647
20
180.379619
30
0.0
10
65.648543
20
180.765807
30
0.0
10
66.231372
20
181.346117
30
0.0
10
66.635653
20
182.068731
30
0.0
10
66.840901
20
182.881829
30
0.0
10
66.826637
20
183.733591
30
0.0
10
66.572377
20
184.572200
30
0.0
10
66.057639
20
185.345833
30
0.0
10
64.955248
20
186.221431
30
0.0
10
63.621982
20
186.562943
30
0.0
10
61.925659
20
186.377480
30
0.0
10
59.734097
20
185.672153
30
0.0
10
58.229430
20
185.261295
30
0.0
10
56.691389
20
185.098889
30
0.0
10
55.284274
20
185.236713
30
0.0
10
54.398333
20
185.830903
30
0.0
10
54.015303
20
186.262344
30
0.0
10
53.816971
20
186.672183
30
0.0
10
53.833889
20
187.965208
30
0.0
10
54.038787
20
188.997246
30
0.0
10
54.396305
20
189.971555
30
0.0
10
54.896300
20
190.876972
30
0.0
10
55.528631
20
191.702337
30
0.0
10
56.283155
20
192.436491
30
0.0
10
57.149731
20
193.068271
30
0.0
10
58.118218
20
193.586518
30
0.0
10
59.178472
20
193.980069
30
0.0
10
61.120360
20
194.337297
30
0.0
10
63.746944
20
194.588611
30
0.0
10
66.053470
20
194.638466
30
0.0
10
68.048275
20
194.492486
30
0.0
10
69.872380
20
194.132189
30
0.0
10
71.666806
20
193.539097
30
0.0
10
72.922280
20
192.858676
30
0.0
10
73.280664
20
192.390081
30
0.0
10
73.607083
20
191.695833
30
0.0
10
73.925779
20
190.698727
30
0.0
10
73.862847
20
190.222986
30
0.0
10
73.227847
20
189.367500
30
0.0
10
73.044704
20
188.731070
30
0.0
10
73.203019
20
188.104789
30
0.0
10
73.726527
20
187.443996
30
0.0
10
74.638958
20
186.704028
30
0.0
10
75.691500
20
185.795090
30
0.0
10
75.809099
20
185.506705
30
0.0
10
75.649260
20
185.327261
30
0.0
10
74.482303
20
185.289847
30
0.0
10
72.160694
20
185.672153
30
0.0
10
69.480543
20
186.294731
30
0.0
10
66.942276
20
187.064993
30
0.0
10
64.378410
20
188.040624
30
0.0
10
61.621458
20
189.279306
30
0.0
10
57.582274
20
190.945204
30
0.0
10
56.336607
20
191.227089
30
0.0
10
55.694792
20
191.113750
30
0.0
10
55.691678
20
190.966696
30
0.0
10
55.926184
20
190.783443
30
0.0
10
57.052986
20
190.337639
30
0.0
10
61.833125
20
188.335625
30
0.0
10
64.452149
20
187.159088
30
0.0
10
66.731717
20
186.295503
30
0.0
10
69.079941
20
185.607517
30
0.0
10
71.904931
20
184.957778
30
0.0
10
75.362153
20
184.252222
30
0.0
10
75.476806
20
183.731875
30
0.0
10
75.745624
20
182.923501
30
0.0
10
76.427370
20
181.931251
30
0.0
10
77.334979
20
180.983828
30
0.0
10
78.281389
20
180.309931
30
0.0
10
79.388678
20
179.908193
30
0.0
10
80.581413
20
179.768169
30
0.0
10
81.797121
20
179.890206
30
0.0
10
82.973333
20
180.274653
30
0.0
10
84.019455
20
180.655808
30
0.0
10
84.252933
20
180.557237
30
0.0
10
84.463819
20
180.265833
30
0.0
10
84.896704
20
179.902778
30
0.0
10
85.524359
20
179.756550
30
0.0
10
86.219262
20
179.834096
30
0.0
10
86.853889
20
180.142361
30
0.0
10
87.710669
20
180.413781
30
0.0
10
89.393889
20
180.389306
30
0.0
10
91.333125
20
180.384253
30
0.0
10
93.098056
20
180.680347
30
0.0
10
94.835486
20
181.068403
30
0.0
10
94.191667
20
178.907639
30
0.0
10
93.652275
20
176.801653
30
0.0
10
93.459653
20
174.674306
30
0.0
10
93.510661
20
173.187646
30
0.0
10
93.711567
20
171.810314
30
0.0
10
94.070220
20
170.526943
30
0.0
10
94.594468
20
169.322168
30
0.0
10
95.292159
20
168.180625
30
0.0
10
96.171142
20
167.086949
30
0.0
10
98.504375
20
164.981736
30
0.0
10
99.958130
20
163.711872
30
0.0
10
100.959054
20
162.444798
30
0.0
10
101.537412
20
161.132095
30
0.0
10
101.723472
20
159.725347
30
0.0
10
101.549582
20
158.327182
30
0.0
10
101.063416
20
157.103797
30
0.0
10
100.318229
20
156.088166
30
0.0
10
99.367275
20
155.313260
30
0.0
10
98.263811
20
154.812053
30
0.0
10
97.061091
20
154.617517
30
0.0
10
95.812370
20
154.762624
30
0.0
10
94.570903
20
155.280347
30
0.0
10
93.555295
20
156.062810
30
0.0
10
92.939306
20
156.938403
30
0.0
10
92.575889
20
158.558326
30
0.0
10
92.737043
20
160.088572
30
0.0
10
92.987430
20
160.725879
30
0.0
10
93.336673
20
161.227744
30
0.0
10
93.774010
20
161.556490
30
0.0
10
94.288681
20
161.674444
30
0.0
10
94.681099
20
161.641654
30
0.0
10
94.865228
20
161.428253
30
0.0
10
94.791389
20
159.769444
30
0.0
10
94.742165
20
158.033120
30
0.0
10
94.936464
20
157.562912
30
0.0
10
95.329375
20
157.088333
30
0.0
10
96.210302
20
156.464691
30
0.0
10
97.225167
20
156.264527
30
0.0
10
98.260070
20
156.487290
30
0.0
10
99.201111
20
157.132431
30
0.0
10
99.862822
20
158.038851
30
0.0
10
100.030139
20
159.187361
30
0.0
10
99.915874
20
160.238507
30
0.0
10
99.584322
20
161.019826
30
0.0
10
99.052345
20
161.506684
30
0.0
10
98.336806
20
161.674444
30
0.0
10
97.673033
20
161.535650
30
0.0
10
97.340208
20
161.092361
30
0.0
10
97.302596
20
160.563720
30
0.0
10
97.510883
20
160.119259
30
0.0
10
97.920465
20
159.812982
30
0.0
10
98.486736
20
159.698889
30
0.0
10
98.935688
20
159.598470
30
0.0
10
99.216015
20
159.330500
30
0.0
10
99.337970
20
158.944908
30
0.0
10
99.311811
20
158.491623
30
0.0
10
98.856163
20
157.581691
30
0.0
10
98.447185
20
157.224903
30
0.0
10
97.931111
20
157.000139
30
0.0
10
97.237387
20
156.894477
30
0.0
10
96.668522
20
156.978601
30
0.0
10
96.173122
20
157.271931
30
0.0
10
95.699792
20
157.793889
30
0.0
10
95.262550
20
158.655663
30
0.0
10
95.452847
20
159.857639
30
0.0
10
95.594971
20
160.801164
30
0.0
10
95.497654
20
161.550765
30
0.0
10
95.205663
20
162.089404
30
0.0
10
94.763767
20
162.400042
30
0.0
10
94.216734
20
162.465641
30
0.0
10
93.609333
20
162.269160
30
0.0
10
92.986333
20
161.793561
30
0.0
10
92.392500
20
161.021806
30
0.0
10
92.003205
20
160.078480
30
0.0
10
91.873833
20
158.996580
30
0.0
10
92.003795
20
157.842501
30
0.0
10
92.392500
20
156.682639
30
0.0
10
92.872504
20
155.843970
30
0.0
10
93.498363
20
155.180368
30
0.0
10
94.334172
20
154.639516
30
0.0
10
95.444028
20
154.169097
30
0.0
10
96.909062
20
153.805112
30
0.0
10
98.442639
20
154.116181
30
0.0
10
99.722346
20
154.730401
30
0.0
10
100.859617
20
155.706458
30
0.0
10
101.740899
20
156.921457
30
0.0
10
102.252639
20
158.252500
30
0.0
10
102.387877
20
159.488864
30
0.0
10
102.319286
20
160.777453
30
0.0
10
102.071851
20
161.921429
30
0.0
10
101.670556
20
162.723958
30
0.0
10
101.460570
20
163.061212
30
0.0
10
101.595653
20
163.201129
30
0.0
10
103.125764
20
162.917986
30
0.0
10
104.436954
20
162.632601
30
0.0
10
105.560763
20
162.542392
30
0.0
10
106.706204
20
162.648799
30
0.0
10
108.082292
20
162.953264
30
0.0
10
109.448929
20
163.395536
30
0.0
10
110.720359
20
163.986463
30
0.0
10
111.887700
20
164.717834
30
0.0
10
112.942071
20
165.581440
30
0.0
10
113.874590
20
166.569072
30
0.0
10
114.676375
20
167.672521
30
0.0
10
115.338547
20
168.883576
30
0.0
10
115.852222
20
170.194028
30
0.0
10
116.277020
20
172.082497
30
0.0
10
116.351611
20
173.955647
30
0.0
10
116.092926
20
175.774834
30
0.0
10
115.517897
20
177.501415
30
0.0
10
114.643457
20
179.096747
30
0.0
10
113.486537
20
180.522188
30
0.0
10
112.064070
20
181.739093
30
0.0
10
110.392986
20
182.708819
30
0.0
10
108.653655
20
183.264484
30
0.0
10
106.753170
20
183.443269
30
0.0
10
104.871221
20
183.246010
30
0.0
10
103.187500
20
182.673542
30
0.0
10
101.636487
20
181.674683
30
0.0
10
100.384716
20
180.417373
30
0.0
10
99.452481
20
178.978244
30
0.0
10
98.860079
20
177.433927
30
0.0
10
98.627806
20
175.861056
30
0.0
10
98.775959
20
174.336262
30
0.0
10
99.324832
20
172.936176
30
0.0
10
100.294722
20
171.737431
30
0.0
10
101.957760
20
170.481952
30
0.0
10
103.663750
20
169.717778
30
0.0
10
104.113673
20
169.639307
30
0.0
10
104.157639
20
169.797153
30
0.0
10
103.903254
20
170.666011
30
0.0
10
103.719027
20
172.063778
30
0.0
10
103.648273
20
173.512243
30
0.0
10
103.734306
20
174.533194
30
0.0
10
104.187030
20
175.342791
30
0.0
10
105.251250
20
175.909028
30
0.0
10
106.156284
20
176.339391
30
0.0
10
106.718163
20
176.858028
30
0.0
10
107.005197
20
177.565827
30
0.0
10
107.085694
20
178.563681
30
0.0
10
106.907804
20
179.531725
30
0.0
10
106.393775
20
180.255397
30
0.0
10
105.573066
20
180.708680
30
0.0
10
104.475139
20
180.865556
30
0.0
10
103.416263
20
180.728024
30
0.0
10
102.501886
20
180.320945
30
0.0
10
101.742902
20
179.652596
30
0.0
10
101.150208
20
178.731250
30
0.0
10
100.757541
20
177.593565
30
0.0
10
100.624739
20
176.342871
30
0.0
10
100.752467
20
174.985498
30
0.0
10
101.141389
20
173.527778
30
0.0
10
101.600000
20
171.905000
30
0.0
10
100.629861
20
173.492500
30
0.0
10
100.154296
20
174.536896
30
0.0
10
99.861095
20
175.544809
30
0.0
10
99.750480
20
176.517888
30
0.0
10
99.822673
20
177.457780
30
0.0
10
100.077895
20
178.366136
30
0.0
10
100.516369
20
179.244604
30
0.0
10
101.138316
20
180.094833
30
0.0
10
101.943958
20
180.918472
30
0.0
10
103.008147
20
181.724436
30
0.0
10
104.153543
20
182.269157
30
0.0
10
105.444303
20
182.575099
30
0.0
10
106.944583
20
182.664722
30
0.0
10
108.153065
20
182.555219
30
0.0
10
109.338100
20
182.252511
30
0.0
10
110.479727
20
181.770569
30
0.0
10
111.557980
20
181.123367
30
0.0
10
112.552896
20
180.324875
30
0.0
10
113.444512
20
179.389067
30
0.0
10
114.212863
20
178.329914
30
0.0
10
114.837986
20
177.161389
30
0.0
10
115.457762
20
175.348655
30
0.0
10
115.499444
20
173.148542
30
0.0
10
115.240938
20
171.067222
30
0.0
10
114.653328
20
169.231541
30
0.0
10
113.717074
20
167.599291
30
0.0
10
112.412639
20
166.128264
30
0.0
10
111.407287
20
165.312471
30
0.0
10
110.286632
20
164.631792
30
0.0
10
109.080599
20
164.093478
30
0.0
10
107.819111
20
163.704777
30
0.0
10
106.532092
20
163.472940
30
0.0
10
105.249465
20
163.405217
30
0.0
10
104.001154
20
163.508857
30
0.0
10
102.817083
20
163.791111
30
0.0
10
100.612964
20
164.677852
30
0.0
10
98.716158
20
165.786210
30
0.0
10
97.136535
20
167.101547
30
0.0
10
95.883964
20
168.609226
30
0.0
10
94.968315
20
170.294610
30
0.0
10
94.399458
20
172.143063
30
0.0
10
94.187262
20
174.139947
30
0.0
10
94.341597
20
176.270625
30
0.0
10
94.641542
20
177.848732
30
0.0
10
95.035255
20
179.191847
30
0.0
10
95.561673
20
180.346836
30
0.0
10
96.259731
20
181.360562
30
0.0
10
97.168365
20
182.279891
30
0.0
10
98.326512
20
183.151687
30
0.0
10
101.547083
20
184.940139
30
0.0
10
105.965625
20
187.233194
30
0.0
10
106.388697
20
187.480689
30
0.0
10
106.720677
20
187.540307
30
0.0
10
107.658958
20
187.030347
30
0.0
10
109.528681
20
185.442847
30
0.0
10
110.378776
20
184.779202
30
0.0
10
111.151458
20
184.534444
30
0.0
10
111.701762
20
184.415857
30
0.0
10
111.883472
20
184.058194
30
0.0
10
112.244803
20
183.377196
30
0.0
10
113.118194
20
182.400139
30
0.0
10
114.453946
20
181.355039
30
0.0
10
115.976053
20
180.660297
30
0.0
10
117.824300
20
180.271032
30
0.0
10
120.138472
20
180.142361
30
0.0
10
122.256327
20
180.043305
30
0.0
10
123.225278
20
179.789583
30
0.0
10
123.743573
20
179.511756
30
0.0
10
124.398174
20
179.465928
30
0.0
10
125.035180
20
179.637049
30
0.0
10
125.500694
20
180.010069
30
0.0
10
125.744528
20
180.323148
30
0.0
10
125.982740
20
180.427508
30
0.0
10
126.991181
20
180.010069
30
0.0
10
127.814847
20
179.680708
30
0.0
10
128.672214
20
179.505851
30
0.0
10
130.411110
20
179.602160
30
0.0
10
132.053999
20
180.264020
30
0.0
10
132.791358
20
180.796103
30
0.0
10
133.447014
20
181.456458
30
0.0
10
134.029194
20
182.322241
30
0.0
10
134.364236
20
183.140972
30
0.0
10
134.504061
20
183.573357
30
0.0
10
134.800562
20
183.867532
30
0.0
10
136.392708
20
184.358056
30
0.0
10
139.259028
20
184.966597
30
0.0
10
142.992995
20
185.984951
30
0.0
10
147.161250
20
187.709444
30
0.0
10
152.382361
20
189.905486
30
0.0
10
154.028840
20
190.566347
30
0.0
10
154.244767
20
190.763731
30
0.0
10
154.110972
20
190.902083
30
0.0
10
153.271337
20
190.914255
30
0.0
10
151.893389
20
190.559472
30
0.0
10
150.098469
20
189.877695
30
0.0
10
148.007917
20
188.908889
30
0.0
10
145.631542
20
187.801506
30
0.0
10
143.337604
20
186.918974
30
0.0
10
140.915993
20
186.189143
30
0.0
10
138.156597
20
185.539861
30
0.0
10
134.822786
20
184.872530
30
0.0
10
134.475462
20
184.934185
30
0.0
10
134.373056
20
185.204722
30
0.0
10
134.599145
20
185.732631
30
0.0
10
135.466667
20
186.492361
30
0.0
10
136.384378
20
187.279525
30
0.0
10
136.844096
20
188.022049
30
0.0
10
136.862043
20
188.773634
30
0.0
10
136.454444
20
189.587986
30
0.0
10
135.845903
20
190.434653
30
0.0
10
136.427986
20
191.572361
30
0.0
10
137.077296
20
192.498277
30
0.0
10
137.830278
20
193.133403
30
0.0
10
139.122327
20
193.635816
30
0.0
10
140.785561
20
194.038956
30
0.0
10
142.633619
20
194.306820
30
0.0
10
144.480139
20
194.403403
30
0.0
10
146.852060
20
194.321125
30
0.0
10
148.928767
20
194.073840
30
0.0
10
150.721238
20
193.656114
30
0.0
10
152.240452
20
193.062513
30
0.0
10
153.497387
20
192.287605
30
0.0
10
154.503021
20
191.325955
30
0.0
10
155.268335
20
190.172129
30
0.0
10
155.804306
20
188.820694
30
0.0
10
156.058080
20
187.678413
30
0.0
10
156.062218
20
186.771628
30
0.0
10
155.807312
20
186.031686
30
0.0
10
155.283958
20
185.389931
30
0.0
10
154.371956
20
184.940292
30
0.0
10
153.048785
20
184.804724
30
0.0
10
151.478391
20
184.981603
30
0.0
10
149.824722
20
185.469306
30
0.0
10
148.221842
20
186.045187
30
0.0
10
147.039448
20
186.318595
30
0.0
10
146.087729
20
186.312878
30
0.0
10
145.176875
20
186.051389
30
0.0
10
144.400293
20
185.635510
30
0.0
10
143.787982
20
185.092828
30
0.0
10
143.346857
20
184.452762
30
0.0
10
143.083830
20
183.744736
30
0.0
10
143.005814
20
182.998171
30
0.0
10
143.119724
20
182.242489
30
0.0
10
143.432472
20
181.507110
30
0.0
10
143.950972
20
180.821458
30
0.0
10
144.813759
20
180.179570
30
0.0
10
145.952986
20
180.018889
30
0.0
10
146.683157
20
180.088393
30
0.0
10
147.304647
20
180.288687
30
0.0
10
147.809222
20
180.607443
30
0.0
10
148.188647
20
181.032333
30
0.0
10
148.434686
20
181.551028
30
0.0
10
148.539105
20
182.151201
30
0.0
10
148.290139
20
183.546667
30
0.0
10
147.890369
20
184.134275
30
0.0
10
147.090694
20
184.199306
30
0.0
10
146.327759
20
183.983393
30
0.0
10
146.173472
20
183.264444
30
0.0
10
146.320160
20
182.547190
30
0.0
10
146.808472
20
182.135556
30
0.0
10
147.228004
20
181.867927
30
0.0
10
147.399353
20
181.572117
30
0.0
10
147.358486
20
181.277456
30
0.0
10
147.141371
20
181.013272
30
0.0
10
146.322269
20
180.693659
30
0.0
10
145.792218
20
180.696889
30
0.0
10
145.229792
20
180.847917
30
0.0
10
144.311804
20
181.530264
30
0.0
10
143.850822
20
182.512484
30
0.0
10
143.885297
20
183.606101
30
0.0
10
144.453681
20
184.622639
30
0.0
10
145.340150
20
185.368547
30
0.0
10
145.822150
20
185.544652
30
0.0
10
146.394266
20
185.587118
30
0.0
10
148.001648
20
185.263919
30
0.0
10
150.547917
20
184.384514
30
0.0
10
152.050635
20
184.026147
30
0.0
10
153.549340
20
184.013646
30
0.0
10
154.887888
20
184.329894
30
0.0
10
155.910139
20
184.957778
30
0.0
10
156.508038
20
185.680955
30
0.0
10
156.756806
20
186.280694
30
0.0
10
156.871458
20
186.792222
30
0.0
10
158.917569
20
185.927917
30
0.0
10
162.153234
20
184.759765
30
0.0
10
163.586163
20
184.471708
30
0.0
10
164.895215
20
184.381224
30
0.0
10
166.079935
20
184.488487
30
0.0
10
167.139867
20
184.793668
30
0.0
10
168.074554
20
185.296939
30
0.0
10
168.883542
20
185.998472
30
0.0
10
169.245689
20
186.536427
30
0.0
10
169.165764
20
186.906875
30
0.0
10
168.782635
20
186.945798
30
0.0
10
168.195625
20
186.457083
30
0.0
10
167.581780
20
185.927064
30
0.0
10
166.855923
20
185.536440
30
0.0
10
166.023476
20
185.285405
30
0.0
10
165.089861
20
185.174150
30
0.0
10
162.940812
20
185.371746
30
0.0
10
160.452153
20
186.130764
30
0.0
10
158.967894
20
186.814904
30
0.0
10
157.857319
20
187.586134
30
0.0
10
157.016695
20
188.535877
30
0.0
10
156.342292
20
189.755556
30
0.0
10
155.790330
20
190.807772
30
0.0
10
155.149486
20
191.711302
30
0.0
10
154.408309
20
192.481421
30
0.0
10
153.555347
20
193.133403
30
0.0
10
153.023405
20
193.529291
30
0.0
10
152.839637
20
193.804110
30
0.0
10
153.002700
20
193.977290
30
0.0
10
153.511250
20
194.068264
30
0.0
10
154.454537
20
194.319838
30
0.0
10
155.672074
20
194.873581
30
0.0
10
156.931474
20
195.608954
30
0.0
10
158.000347
20
196.405417
30
0.0
10
158.927841
20
197.488136
30
0.0
10
159.773056
20
198.874861
30
0.0
10
160.425912
20
200.640792
30
0.0
10
160.557986
20
203.020000
30
0.0
10
160.398864
20
205.478222
30
0.0
10
159.781875
20
207.694306
30
0.0
10
159.239780
20
209.481638
30
0.0
10
159.014583
20
210.772292
30
0.0
10
159.220533
20
212.372918
30
0.0
10
159.792668
20
213.792283
30
0.0
10
160.662421
20
214.985906
30
0.0
10
161.761223
20
215.909305
30
0.0
10
163.020506
20
216.518000
30
0.0
10
164.371702
20
216.767508
30
0.0
10
165.746241
20
216.613349
30
0.0
10
167.075556
20
216.011042
30
0.0
10
167.760224
20
215.438522
30
0.0
10
168.283766
20
214.746538
30
0.0
10
168.641692
20
213.972193
30
0.0
10
168.829511
20
213.152593
30
0.0
10
168.842735
20
212.324844
30
0.0
10
168.676873
20
211.526050
30
0.0
10
168.327435
20
210.793317
30
0.0
10
167.789931
20
210.163750
30
0.0
10
166.644513
20
209.485817
30
0.0
10
166.100330
20
209.390257
30
0.0
10
165.606253
20
209.448116
30
0.0
10
165.185595
20
209.652756
30
0.0
10
164.861673
20
209.997538
30
0.0
10
164.657800
20
210.475823
30
0.0
10
164.597292
20
211.080972
30
0.0
10
164.811019
20
211.980777
30
0.0
10
165.488056
20
212.747847
30
0.0
10
166.123118
20
213.460536
30
0.0
10
166.350117
20
214.194658
30
0.0
10
166.168135
20
214.913135
30
0.0
10
165.576250
20
215.578889
30
0.0
10
165.033258
20
215.892556
30
0.0
10
164.446106
20
216.036354
30
0.0
10
163.251922
20
215.859561
30
0.0
10
162.218895
20
215.138943
30
0.0
10
161.833190
20
214.602959
30
0.0
10
161.572222
20
213.964931
30
0.0
10
161.429820
20
212.999692
30
0.0
10
161.819167
20
212.368611
30
0.0
10
162.222748
20
212.068800
30
0.0
10
162.585293
20
211.980790
30
0.0
10
162.886360
20
212.069859
30
0.0
10
163.105506
20
212.301285
30
0.0
10
163.216264
20
213.052318
30
0.0
10
163.066992
20
213.502481
30
0.0
10
162.754028
20
213.956111
30
0.0
10
162.411405
20
214.479253
30
0.0
10
162.806944
20
214.899792
30
0.0
10
163.434784
20
215.178137
30
0.0
10
164.201984
20
215.281614
30
0.0
10
164.930917
20
215.207409
30
0.0
10
165.443958
20
214.952708
30
0.0
10
165.723260
20
214.532731
30
0.0
10
165.732433
20
214.087721
30
0.0
10
165.467282
20
213.601159
30
0.0
10
164.923611
20
213.056528
30
0.0
10
164.359837
20
212.434411
30
0.0
10
164.017342
20
211.746579
30
0.0
10
163.884768
20
211.038854
30
0.0
10
163.950754
20
210.357056
30
0.0
10
164.203943
20
209.747006
30
0.0
10
164.632973
20
209.254525
30
0.0
10
165.226487
20
208.925435
30
0.0
10
165.973125
20
208.805556
30
0.0
10
167.270695
20
209.038391
30
0.0
10
168.328595
20
209.713083
30
0.0
10
169.108343
20
210.793906
30
0.0
10
169.571458
20
212.245139
30
0.0
10
169.607083
20
213.225131
30
0.0
10
169.360696
20
214.191794
30
0.0
10
168.833840
20
215.142040
30
0.0
10
168.028056
20
216.072778
30
0.0
10
166.682297
20
217.020942
30
0.0
10
165.208570
20
217.452936
30
0.0
10
163.693492
20
217.410129
30
0.0
10
162.223684
20
216.933888
30
0.0
10
160.885762
20
216.065581
30
0.0
10
159.766348
20
214.846576
30
0.0
10
158.952058
20
213.318241
30
0.0
10
158.529514
20
211.521944
30
0.0
10
158.370764
20
209.996181
30
0.0
10
157.559375
20
210.931042
30
0.0
10
156.568443
20
211.867821
30
0.0
10
155.309435
20
212.760405
30
0.0
10
153.881144
20
213.547492
30
0.0
10
152.382361
20
214.167778
30
0.0
10
150.569911
20
214.604707
30
0.0
10
148.725413
20
214.706156
30
0.0
10
146.903957
20
214.493346
30
0.0
10
145.160631
20
213.987499
30
0.0
10
143.550525
20
213.209838
30
0.0
10
142.128728
20
212.181586
30
0.0
10
140.950329
20
210.923964
30
0.0
10
140.070417
20
209.458194
30
0.0
10
139.356568
20
207.287837
30
0.0
10
139.157012
20
205.144053
30
0.0
10
139.432806
20
203.101389
30
0.0
10
140.145013
20
201.234390
30
0.0
10
141.254692
20
199.617602
30
0.0
10
142.722904
20
198.325570
30
0.0
10
144.510709
20
197.432840
30
0.0
10
146.579167
20
197.013958
30
0.0
10
148.132694
20
196.999425
30
0.0
10
149.427970
20
197.218289
30
0.0
10
150.555616
20
197.696585
30
0.0
10
151.606250
20
198.460347
30
0.0
10
152.539639
20
199.485543
30
0.0
10
153.186233
20
200.684650
30
0.0
10
153.560979
20
202.092317
30
0.0
10
153.678819
20
203.743194
30
0.0
10
153.374744
20
207.171519
30
0.0
10
153.102882
20
208.536358
30
0.0
10
152.840972
20
209.087778
30
0.0
10
151.588611
20
207.985347
30
0.0
10
150.499192
20
207.046466
30
0.0
10
149.249762
20
206.312831
30
0.0
10
147.835815
20
205.782659
30
0.0
10
146.252847
20
205.454167
30
0.0
10
144.774689
20
205.100180
30
0.0
10
143.815162
20
204.485288
30
0.0
10
143.329235
20
203.561085
30
0.0
10
143.271875
20
202.279167
30
0.0
10
143.483074
20
201.153199
30
0.0
10
143.886884
20
200.246854
30
0.0
10
144.496923
20
199.538662
30
0.0
10
145.326806
20
199.007153
30
0.0
10
146.340784
20
198.737637
30
0.0
10
147.397702
20
198.878877
30
0.0
10
148.503964
20
199.432623
30
0.0
10
149.665972
20
200.400625
30
0.0
10
150.662661
20
201.539125
30
0.0
10
151.579522
20
202.843933
30
0.0
10
152.251778
20
204.053772
30
0.0
10
152.514653
20
204.907361
30
0.0
10
152.611486
20
205.304009
30
0.0
10
152.840972
20
205.586458
30
0.0
10
152.982823
20
205.560930
30
0.0
10
153.045160
20
205.293683
30
0.0
10
152.966426
20
204.258656
30
0.0
10
152.675034
20
202.930620
30
0.0
10
152.241250
20
201.758819
30
0.0
10
151.708534
20
200.887448
30
0.0
10
151.060520
20
200.118549
30
0.0
10
149.491842
20
198.928534
30
0.0
10
147.681705
20
198.269513
30
0.0
10
146.731867
20
198.164355
30
0.0
10
145.776597
20
198.222222
30
0.0
10
144.486486
20
198.531279
30
0.0
10
143.352668
20
199.032554
30
0.0
10
142.376734
20
199.702519
30
0.0
10
141.560272
20
200.517642
30
0.0
10
140.904871
20
201.454394
30
0.0
10
140.412120
20
202.489245
30
0.0
10
140.083610
20
203.598664
30
0.0
10
139.920927
20
204.759121
30
0.0
10
139.925663
20
205.947086
30
0.0
10
140.099406
20
207.139029
30
0.0
10
140.443745
20
208.311419
30
0.0
10
140.960269
20
209.440727
30
0.0
10
141.650567
20
210.503422
30
0.0
10
142.516229
20
211.475974
30
0.0
10
143.558844
20
212.334852
30
0.0
10
144.780000
20
213.056528
30
0.0
10
145.599162
20
213.410616
30
0.0
10
146.425007
20
213.619687
30
0.0
10
148.995694
20
213.744444
30
0.0
10
151.684230
20
213.604554
30
0.0
10
152.608260
20
213.326618
30
0.0
10
153.714097
20
212.818403
30
0.0
10
155.200580
20
211.926067
30
0.0
10
156.501423
20
210.819872
30
0.0
10
157.601193
20
209.530275
30
0.0
10
158.484456
20
208.087732
30
0.0
10
159.135777
20
206.522699
30
0.0
10
159.539723
20
204.865632
30
0.0
10
159.680858
20
203.146988
30
0.0
10
159.543750
20
201.397222
30
0.0
10
158.942628
20
199.266633
30
0.0
10
157.877255
20
197.511929
30
0.0
10
156.337646
20
196.121191
30
0.0
10
154.313819
20
195.082500
30
0.0
10
153.494852
20
194.830327
30
0.0
10
152.490315
20
194.732638
30
0.0
10
148.201944
20
194.967847
30
0.0
10
144.841527
20
195.150058
30
0.0
10
142.251900
20
195.104238
30
0.0
10
140.200923
20
194.811628
30
0.0
10
138.456458
20
194.253472
30
0.0
10
137.398125
20
193.909514
30
0.0
10
137.565694
20
195.258889
30
0.0
10
137.690219
20
196.540246
30
0.0
10
137.585492
20
197.701384
30
0.0
10
137.275116
20
198.712282
30
0.0
10
136.782697
20
199.542916
30
0.0
10
136.131837
20
200.163263
30
0.0
10
135.346141
20
200.543302
30
0.0
10
134.449211
20
200.653009
30
0.0
10
133.464653
20
200.462361
30
0.0
10
132.789938
20
200.287390
30
0.0
10
132.314921
20
200.300026
30
0.0
10
132.028919
20
200.504072
30
0.0
10
131.921250
20
200.903333
30
0.0
10
130.959931
20
201.688264
30
0.0
10
130.077421
20
202.134746
30
0.0
10
129.337153
20
202.173333
30
0.0
10
128.979465
20
202.128026
30
0.0
10
128.696878
20
202.222869
30
0.0
10
128.146528
20
202.975903
30
0.0
10
127.463795
20
203.972492
30
0.0
10
126.550208
20
205.004375
30
0.0
10
125.407146
20
205.880837
30
0.0
10
124.080764
20
206.195000
30
0.0
10
122.760859
20
206.163277
30
0.0
10
121.708333
20
205.462986
30
0.0
10
120.783190
20
204.783284
30
0.0
10
120.509694
20
204.842240
30
0.0
10
120.182569
20
205.127847
30
0.0
10
119.336627
20
205.763185
30
0.0
10
118.190193
20
206.409171
30
0.0
10
117.052169
20
206.910590
30
0.0
10
116.231458
20
207.112222
30
0.0
10
115.475094
20
206.780860
30
0.0
10
114.607526
20
205.950041
30
0.0
10
113.837550
20
204.864671
30
0.0
10
113.373958
20
203.769653
30
0.0
10
113.103086
20
203.047985
30
0.0
10
112.791875
20
202.764236
30
0.0
10
111.751181
20
202.834792
30
0.0
10
111.220386
20
203.065250
30
0.0
10
110.618271
20
203.644369
30
0.0
10
109.373891
20
205.525435
30
0.0
10
108.365655
20
207.831683
30
0.0
10
108.058722
20
208.942279
30
0.0
10
107.941181
20
209.916806
30
0.0
10
108.031590
20
210.827934
30
0.0
10
108.303958
20
211.703981
30
0.0
10
108.733766
20
212.518315
30
0.0
10
109.296493
20
213.244306
30
0.0
10
109.967618
20
213.855323
30
0.0
10
110.722621
20
214.324735
30
0.0
10
111.536982
20
214.625912
30
0.0
10
112.386181
20
214.732222
30
0.0
10
113.414609
20
214.654791
30
0.0
10
114.311486
20
214.313336
30
0.0
10
115.363575
20
213.544120
30
0.0
10
116.857639
20
212.183403
30
0.0
10
119.024413
20
210.439955
30
0.0
10
120.066379
20
209.842609
30
0.0
10
121.090555
20
209.425231
30
0.0
10
122.104309
20
209.185605
30
0.0
10
123.115012
20
209.121519
30
0.0
10
124.130032
20
209.230759
30
0.0
10
125.156736
20
209.511111
30
0.0
10
126.357709
20
210.048845
30
0.0
10
127.367609
20
210.740279
30
0.0
10
128.180172
20
211.572855
30
0.0
10
128.789136
20
212.534015
30
0.0
10
129.188239
20
213.611201
30
0.0
10
129.371218
20
214.791854
30
0.0
10
129.331809
20
216.063418
30
0.0
10
129.063750
20
217.413333
30
0.0
10
128.480426
20
218.633745
30
0.0
10
127.537898
20
219.772064
30
0.0
10
126.456508
20
220.612961
30
0.0
10
125.456597
20
220.941111
30
0.0
10
124.307933
20
220.772327
30
0.0
10
123.261319
20
220.313837
30
0.0
10
122.364782
20
219.637434
30
0.0
10
121.666349
20
218.814913
30
0.0
10
121.214044
20
217.918066
30
0.0
10
121.055895
20
217.018689
30
0.0
10
121.239927
20
216.188573
30
0.0
10
121.814167
20
215.499514
30
0.0
10
122.568605
20
215.078134
30
0.0
10
123.295833
20
215.402500
30
0.0
10
123.678989
20
215.706091
30
0.0
10
123.897570
20
216.076713
30
0.0
10
124.019028
20
217.554444
30
0.0
10
124.140409
20
219.035984
30
0.0
10
124.361461
20
219.407811
30
0.0
10
124.751042
20
219.715208
30
0.0
10
125.516889
20
220.047375
30
0.0
10
126.462014
20
219.662292
30
0.0
10
127.164510
20
219.142735
30
0.0
10
127.744714
20
218.432156
30
0.0
10
128.192392
20
217.574454
30
0.0
10
128.497313
20
216.613528
30
0.0
10
128.649246
20
215.593276
30
0.0
10
128.637958
20
214.557598
30
0.0
10
128.453217
20
213.550391
30
0.0
10
128.084792
20
212.615556
30
0.0
10
127.250564
20
211.555629
30
0.0
10
126.039852
20
210.706231
30
0.0
10
124.597044
20
210.143423
30
0.0
10
123.066528
20
209.943264
30
0.0
10
121.625827
20
210.104250
30
0.0
10
120.251934
20
210.610844
30
0.0
10
118.838950
20
211.517866
30
0.0
10
117.280972
20
212.880139
30
0.0
10
115.898465
20
214.104561
30
0.0
10
114.671954
20
214.943062
30
0.0
10
113.548302
20
215.424790
30
0.0
10
112.474375
20
215.578889
30
0.0
10
111.447892
20
215.453643
30
0.0
10
110.480304
20
215.096557
30
0.0
10
109.596201
20
214.535611
30
0.0
10
108.820170
20
213.798783
30
0.0
10
108.176801
20
212.914051
30
0.0
10
107.690680
20
211.909395
30
0.0
10
107.386398
20
210.812792
30
0.0
10
107.288542
20
209.652222
30
0.0
10
107.306181
20
208.100000
30
0.0
10
106.618264
20
209.564028
30
0.0
10
105.740534
20
211.997730
30
0.0
10
105.280819
20
214.589159
30
0.0
10
105.253907
20
217.172745
30
0.0
10
105.674583
20
219.582917
30
0.0
10
106.176832
20
220.791322
30
0.0
10
106.968862
20
222.072626
30
0.0
10
107.940574
20
223.271037
30
0.0
10
108.981875
20
224.230764
30
0.0
10
110.181319
20
225.139167
30
0.0
10
111.795278
20
224.169028
30
0.0
10
113.157562
20
223.484125
30
0.0
10
114.176528
20
223.198889
30
0.0
10
114.857514
20
223.035743
30
0.0
10
115.375972
20
222.599167
30
0.0
10
115.866651
20
222.165562
30
0.0
10
116.557778
20
222.193472
30
0.0
10
117.315252
20
222.196548
30
0.0
10
118.057083
20
221.690764
30
0.0
10
118.774739
20
221.128921
30
0.0
10
119.482693
20
220.827693
30
0.0
10
120.253953
20
220.768382
30
0.0
10
121.161528
20
220.932292
30
0.0
10
122.096004
20
221.364708
30
0.0
10
122.939706
20
222.043239
30
0.0
10
123.507270
20
222.781453
30
0.0
10
123.613333
20
223.392917
30
0.0
10
123.646059
20
223.716344
30
0.0
10
123.948472
20
223.939722
30
0.0
10
125.124931
20
224.339859
30
0.0
10
125.739878
20
224.662410
30
0.0
10
125.948601
20
225.042541
30
0.0
10
125.906389
20
225.615417
30
0.0
10
125.913165
20
226.447116
30
0.0
10
126.329722
20
227.052986
30
0.0
10
127.060453
20
227.927304
30
0.0
10
127.771556
20
229.113456
30
0.0
10
128.310753
20
230.318887
30
0.0
10
128.525764
20
231.251042
30
0.0
10
128.401442
20
232.120170
30
0.0
10
128.042068
20
232.784767
30
0.0
10
127.476956
20
233.209463
30
0.0
10
126.735417
20
233.358889
30
0.0
10
125.897302
20
233.541382
30
0.0
10
125.341944
20
234.346667
30
0.0
10
124.760222
20
235.217391
30
0.0
10
124.469685
20
235.333557
30
0.0
10
124.142500
20
235.263889
30
0.0
10
123.454583
20
236.736736
30
0.0
10
122.710430
20
238.233970
30
0.0
10
121.748596
20
239.226974
30
0.0
10
121.238826
20
239.497855
30
0.0
10
120.737968
20
239.598835
30
0.0
10
120.267132
20
239.515301
30
0.0
10
119.847431
20
239.232639
30
0.0
10
119.632624
20
239.138467
30
0.0
10
119.340140
20
239.253560
30
0.0
10
118.356944
20
240.220417
30
0.0
10
117.377660
20
241.161812
30
0.0
10
116.536597
20
241.525202
30
0.0
10
115.721559
20
241.319985
30
0.0
10
114.820347
20
240.555556
30
0.0
10
113.926770
20
239.780115
30
0.0
10
113.591555
20
239.744233
30
0.0
10
113.188750
20
239.885278
30
0.0
10
112.599341
20
240.052417
30
0.0
10
112.017375
20
240.032662
30
0.0
10
111.464746
20
239.845029
30
0.0
10
110.963347
20
239.508533
30
0.0
10
110.201812
20
238.465017
30
0.0
10
109.985463
20
237.796026
30
0.0
10
109.907917
20
237.054236
30
0.0
10
109.795379
20
236.340718
30
0.0
10
109.471994
20
235.805703
30
0.0
10
108.956466
20
235.467211
30
0.0
10
108.267500
20
235.343264
30
0.0
10
107.596121
20
235.121148
30
0.0
10
106.891667
20
234.602431
30
0.0
10
106.317130
20
233.784587
30
0.0
10
106.336042
20
232.609236
30
0.0
10
106.615552
20
231.487853
30
0.0
10
107.041597
20
230.580764
30
0.0
10
107.764792
20
229.204931
30
0.0
10
108.061488
20
228.716069
30
0.0
10
108.505625
20
228.411181
30
0.0
10
108.897240
20
228.125748
30
0.0
10
109.061250
20
227.679167
30
0.0
10
109.378750
20
226.515000
30
0.0
10
109.515503
20
226.185494
30
0.0
10
109.496758
20
225.921833
30
0.0
10
108.884861
20
225.333194
30
0.0
10
107.562782
20
224.211272
30
0.0
10
106.455549
20
222.922718
30
0.0
10
105.568696
20
221.484022
30
0.0
10
104.907761
20
219.911674
30
0.0
10
104.478276
20
218.222164
30
0.0
10
104.285780
20
216.431981
30
0.0
10
104.335805
20
214.557615
30
0.0
10
104.633889
20
212.615556
30
0.0
10
105.103862
20
210.795846
30
0.0
10
105.712896
20
209.225960
30
0.0
10
106.560743
20
207.692816
30
0.0
10
107.747153
20
205.983333
30
0.0
10
109.098195
20
204.129210
30
0.0
10
109.705836
20
203.083425
30
0.0
10
109.704551
20
202.486588
30
0.0
10
109.228819
20
201.979306
30
0.0
10
108.618593
20
201.175430
30
0.0
10
108.276319
20
200.083125
30
0.0
10
108.064653
20
198.848403
30
0.0
10
106.988681
20
200.224236
30
0.0
10
102.675972
20
205.057292
30
0.0
10
100.359865
20
207.637244
30
0.0
10
98.737464
20
209.763938
30
0.0
10
97.626905
20
211.709097
30
0.0
10
96.846319
20
213.744444
30
0.0
10
96.369243
20
216.046194
30
0.0
10
96.218330
20
218.672642
30
0.0
10
96.392436
20
221.374992
30
0.0
10
96.890417
20
223.904444
30
0.0
10
97.736913
20
226.484425
30
0.0
10
98.801514
20
228.630110
30
0.0
10
100.330497
20
230.747910
30
0.0
10
102.570139
20
233.244236
30
0.0
10
105.735771
20
236.955658
30
0.0
10
106.898296
20
238.662036
30
0.0
10
107.790542
20
240.289916
30
0.0
10
108.419947
20
241.855089
30
0.0
10
108.793948
20
243.373348
30
0.0
10
108.919982
20
244.860485
30
0.0
10
108.805486
20
246.332292
30
0.0
10
108.702282
20
247.690123
30
0.0
10
108.851917
20
248.045513
30
0.0
10
109.167083
20
248.360764
30
0.0
10
109.969653
20
248.872292
30
0.0
10
110.736941
20
249.987325
30
0.0
10
111.319028
20
251.438750
30
0.0
10
111.526285
20
251.831959
30
0.0
10
112.024583
20
252.320694
30
0.0
10
112.522882
20
252.856748
30
0.0
10
112.730139
20
253.370208
30
0.0
10
112.884387
20
253.867415
30
0.0
10
113.259306
20
254.357986
30
0.0
10
113.703269
20
255.064331
30
0.0
10
113.974699
20
256.075677
30
0.0
10
114.031749
20
257.132171
30
0.0
10
113.832569
20
257.973958
30
0.0
10
113.163399
20
258.811483
30
0.0
10
112.733463
20
258.983721
30
0.0
10
112.165694
20
259.041111
30
0.0
10
111.451293
20
259.167114
30
0.0
10
110.919189
20
259.502424
30
0.0
10
110.587005
20
260.028206
30
0.0
10
110.472361
20
260.725625
30
0.0
10
110.335280
20
261.737899
30
0.0
10
109.970110
20
262.661424
30
0.0
10
109.445961
20
263.371112
30
0.0
10
108.831944
20
263.741875
30
0.0
10
108.068252
20
263.771957
30
0.0
10
107.244444
20
263.591944
30
0.0
10
106.430054
20
263.429014
30
0.0
10
105.850972
20
263.980000
30
0.0
10
105.258178
20
264.605590
30
0.0
10
104.563333
20
265.100069
30
0.0
10
103.769583
20
265.347014
30
0.0
10
103.769583
20
265.347014
30
0.0
0
LWPOLYLINE
100
AcDbPolyline
8
Calque_1
90
25
70
0
10
103.937153
20
264.967778
30
0.0
10
104.430633
20
264.740499
30
0.0
10
105.102938
20
264.212506
30
0.0
10
105.695059
20
263.614562
30
0.0
10
105.947986
20
263.177431
30
0.0
10
105.614925
20
262.588058
30
0.0
10
104.819097
20
261.634028
30
0.0
10
104.026955
20
260.665976
30
0.0
10
103.699028
20
260.037708
30
0.0
10
103.505000
20
259.155764
30
0.0
10
103.396660
20
258.967586
30
0.0
10
103.282165
20
258.993681
30
0.0
10
102.967014
20
259.764306
30
0.0
10
102.614236
20
260.875556
30
0.0
10
102.764167
20
259.676111
30
0.0
10
102.755347
20
258.476667
30
0.0
10
102.270278
20
259.676111
30
0.0
10
101.564722
20
261.607569
30
0.0
10
101.382865
20
262.030226
30
0.0
10
101.361406
20
262.386997
30
0.0
10
101.882222
20
263.362639
30
0.0
10
102.937717
20
264.533575
30
0.0
10
103.459871
20
264.855112
30
0.0
10
103.937153
20
264.967778
30
0.0
10
103.937153
20
264.967778
30
0.0
0
LWPOLYLINE
100
AcDbPolyline
8
Calque_1
90
33
70
0
10
107.755972
20
263.556667
30
0.0
10
108.364614
20
263.449088
30
0.0
10
108.984370
20
263.172775
30
0.0
10
109.494840
20
262.797367
30
0.0
10
109.775625
20
262.392500
30
0.0
10
109.793705
20
261.842610
30
0.0
10
109.608056
20
261.237153
30
0.0
10
108.407141
20
259.684919
30
0.0
10
107.750530
20
259.078852
30
0.0
10
107.359097
20
258.900000
30
0.0
10
107.030264
20
258.782140
30
0.0
10
106.512431
20
258.326736
30
0.0
10
105.838214
20
257.745711
30
0.0
10
105.443651
20
257.629438
30
0.0
10
105.433547
20
257.930165
30
0.0
10
105.912708
20
258.600139
30
0.0
10
106.926944
20
260.028889
30
0.0
10
107.225959
20
260.606108
30
0.0
10
106.618264
20
259.905417
30
0.0
10
105.295347
20
258.353194
30
0.0
10
104.869386
20
257.952146
30
0.0
10
104.951389
20
258.617778
30
0.0
10
105.118958
20
259.464444
30
0.0
10
104.572153
20
258.758889
30
0.0
10
104.108032
20
258.291907
30
0.0
10
103.845951
20
258.283288
30
0.0
10
103.810269
20
258.699883
30
0.0
10
104.025347
20
259.508542
30
0.0
10
104.688357
20
260.641993
30
0.0
10
105.791846
20
261.977877
30
0.0
10
106.944743
20
263.091124
30
0.0
10
107.755972
20
263.556667
30
0.0
10
107.755972
20
263.556667
30
0.0
0
LWPOLYLINE
100
AcDbPolyline
8
Calque_1
90
38
70
0
10
99.545069
20
262.877569
30
0.0
10
100.095054
20
262.794850
30
0.0
10
100.575058
20
262.435830
30
0.0
10
101.011908
20
261.783948
30
0.0
10
101.432431
20
260.822639
30
0.0
10
102.102708
20
258.503125
30
0.0
10
102.029739
20
257.875670
30
0.0
10
101.736188
20
257.757239
30
0.0
10
101.290759
20
258.124199
30
0.0
10
100.762153
20
258.952917
30
0.0
10
100.257392
20
259.848066
30
0.0
10
100.038958
20
260.090625
30
0.0
10
100.612222
20
258.714792
30
0.0
10
100.983879
20
257.859634
30
0.0
10
101.038390
20
257.455173
30
0.0
10
100.809263
20
257.559254
30
0.0
10
100.330000
20
258.229722
30
0.0
10
99.919410
20
258.818811
30
0.0
10
99.747917
20
258.900000
30
0.0
10
100.312361
20
257.771111
30
0.0
10
100.848072
20
256.690850
30
0.0
10
100.686219
20
256.640674
30
0.0
10
100.241806
20
256.950903
30
0.0
10
99.822341
20
257.273965
30
0.0
10
99.986042
20
257.003819
30
0.0
10
100.218511
20
256.562558
30
0.0
10
100.250625
20
256.183611
30
0.0
10
100.134628
20
256.139373
30
0.0
10
99.909154
20
256.283246
30
0.0
10
99.258785
20
256.976520
30
0.0
10
98.557531
20
257.945822
30
0.0
10
98.063403
20
258.873542
30
0.0
10
97.772361
20
260.884375
30
0.0
10
97.917192
20
261.998340
30
0.0
10
98.183342
20
262.304294
30
0.0
10
98.654306
20
262.586528
30
0.0
10
99.545069
20
262.877569
30
0.0
10
99.545069
20
262.877569
30
0.0
0
LWPOLYLINE
100
AcDbPolyline
8
Calque_1
90
10
70
0
10
110.146042
20
260.646250
30
0.0
10
110.190139
20
260.619792
30
0.0
10
109.658573
20
259.831498
30
0.0
10
108.382153
20
258.397292
30
0.0
10
106.406597
20
256.501111
30
0.0
10
106.251723
20
256.611717
30
0.0
10
106.461597
20
256.997438
30
0.0
10
108.214583
20
258.917639
30
0.0
10
110.146042
20
260.646250
30
0.0
10
110.146042
20
260.646250
30
0.0
0
LWPOLYLINE
100
AcDbPolyline
8
Calque_1
90
14
70
0
10
97.049167
20
260.214097
30
0.0
10
97.341862
20
259.955828
30
0.0
10
97.595972
20
259.270417
30
0.0
10
98.067011
20
258.198294
30
0.0
10
98.945347
20
256.871528
30
0.0
10
99.720674
20
255.758381
30
0.0
10
99.950764
20
255.204653
30
0.0
10
99.713913
20
255.260794
30
0.0
10
99.321068
20
255.648481
30
0.0
10
98.298648
20
257.059087
30
0.0
10
97.346018
20
258.717667
30
0.0
10
96.925694
20
259.905417
30
0.0
10
97.049167
20
260.214097
30
0.0
10
97.049167
20
260.214097
30
0.0
0
LWPOLYLINE
100
AcDbPolyline
8
Calque_1
90
10
70
0
10
110.401806
20
259.305694
30
0.0
10
110.915497
20
259.247921
30
0.0
10
110.952436
20
259.030944
30
0.0
10
109.555139
20
258.053333
30
0.0
10
107.834831
20
257.169869
30
0.0
10
107.950461
20
257.423694
30
0.0
10
108.637917
20
258.150347
30
0.0
10
109.623467
20
258.964829
30
0.0
10
110.401806
20
259.305694
30
0.0
10
110.401806
20
259.305694
30
0.0
0
LWPOLYLINE
100
AcDbPolyline
8
Calque_1
90
15
70
0
10
96.370069
20
258.758889
30
0.0
10
96.846765
20
258.579639
30
0.0
10
97.181458
20
258.123889
30
0.0
10
98.433819
20
256.218889
30
0.0
10
99.188011
20
255.134556
30
0.0
10
99.183212
20
254.898814
30
0.0
10
98.962986
20
254.754861
30
0.0
10
98.252137
20
254.595363
30
0.0
10
97.410764
20
255.125278
30
0.0
10
96.444913
20
256.167833
30
0.0
10
95.880075
20
257.364131
30
0.0
10
95.820407
20
258.349405
30
0.0
10
96.012562
20
258.648919
30
0.0
10
96.370069
20
258.758889
30
0.0
10
96.370069
20
258.758889
30
0.0
0
LWPOLYLINE
100
AcDbPolyline
8
Calque_1
90
46
70
0
10
112.315625
20
258.679514
30
0.0
10
112.544931
20
258.653056
30
0.0
10
113.086041
20
258.360885
30
0.0
10
113.424023
20
257.836751
30
0.0
10
113.540741
20
257.129866
30
0.0
10
113.418056
20
256.289444
30
0.0
10
113.179931
20
255.116458
30
0.0
10
112.954121
20
254.688945
30
0.0
10
112.447917
20
254.208056
30
0.0
10
111.417323
20
253.831241
30
0.0
10
109.799302
20
253.511164
30
0.0
10
108.306145
20
253.356529
30
0.0
10
107.650139
20
253.476042
30
0.0
10
109.272917
20
253.943472
30
0.0
10
112.089678
20
254.590768
30
0.0
10
112.783213
20
254.864105
30
0.0
10
113.012361
20
255.107639
30
0.0
10
112.883640
20
255.246482
30
0.0
10
112.518472
20
255.125278
30
0.0
10
109.868081
20
254.433850
30
0.0
10
106.239028
20
253.767083
30
0.0
10
105.557257
20
253.730893
30
0.0
10
105.674583
20
253.934653
30
0.0
10
106.582986
20
254.234514
30
0.0
10
108.194983
20
254.693397
30
0.0
10
108.985407
20
255.039532
30
0.0
10
109.255278
20
255.266389
30
0.0
10
107.941181
20
254.948889
30
0.0
10
106.133194
20
254.543194
30
0.0
10
105.993404
20
254.590838
30
0.0
10
106.093589
20
254.706122
30
0.0
10
106.944583
20
255.090000
30
0.0
10
107.822219
20
255.461879
30
0.0
10
107.996416
20
255.579127
30
0.0
10
107.950000
20
255.627986
30
0.0
10
107.757845
20
255.742756
30
0.0
10
108.091111
20
256.077778
30
0.0
10
108.347520
20
256.345362
30
0.0
10
107.553125
20
256.060139
30
0.0
10
106.410435
20
255.669351
30
0.0
10
106.233184
20
255.675833
30
0.0
10
106.304640
20
255.803377
30
0.0
10
108.867222
20
257.321319
30
0.0
10
111.116018
20
258.389462
30
0.0
10
112.315625
20
258.679514
30
0.0
10
112.315625
20
258.679514
30
0.0
0
LWPOLYLINE
100
AcDbPolyline
8
Calque_1
90
12
70
0
10
95.399931
20
257.568264
30
0.0
10
95.514583
20
257.233125
30
0.0
10
95.767219
20
256.547674
30
0.0
10
96.378889
20
255.619167
30
0.0
10
97.155000
20
254.534375
30
0.0
10
96.412610
20
254.951361
30
0.0
10
95.666281
20
255.827852
30
0.0
10
95.174832
20
256.780799
30
0.0
10
95.105569
20
257.166240
30
0.0
10
95.197083
20
257.427153
30
0.0
10
95.399931
20
257.568264
30
0.0
10
95.399931
20
257.568264
30
0.0
0
LWPOLYLINE
100
AcDbPolyline
8
Calque_1
90
38
70
0
10
103.557917
20
257.559444
30
0.0
10
104.732820
20
257.427954
30
0.0
10
104.778215
20
257.207534
30
0.0
10
104.501597
20
256.853889
30
0.0
10
104.323827
20
256.501087
30
0.0
10
104.536875
20
256.086597
30
0.0
10
104.715972
20
255.731731
30
0.0
10
104.263472
20
255.654444
30
0.0
10
103.820576
20
255.754255
30
0.0
10
103.796042
20
256.077778
30
0.0
10
103.764603
20
256.405695
30
0.0
10
103.435893
20
256.501636
30
0.0
10
102.971962
20
256.372419
30
0.0
10
102.534861
20
256.024861
30
0.0
10
102.297577
20
255.659386
30
0.0
10
102.631875
20
255.725000
30
0.0
10
103.060854
20
255.788258
30
0.0
10
103.264308
20
255.642002
30
0.0
10
103.208871
20
255.378495
30
0.0
10
102.861181
20
255.090000
30
0.0
10
102.448050
20
254.677745
30
0.0
10
102.287917
20
254.093403
30
0.0
10
102.216455
20
253.620233
30
0.0
10
102.028266
20
253.422302
30
0.0
10
101.762645
20
253.509209
30
0.0
10
101.458889
20
253.890556
30
0.0
10
101.226680
20
254.117211
30
0.0
10
101.167847
20
253.467222
30
0.0
10
101.082733
20
252.819434
30
0.0
10
100.894444
20
252.550000
30
0.0
10
100.651134
20
252.667553
30
0.0
10
100.515186
20
252.988711
30
0.0
10
100.535042
20
254.052829
30
0.0
10
100.893349
20
255.364335
30
0.0
10
101.529444
20
256.545208
30
0.0
10
102.375301
20
257.371656
30
0.0
10
103.557917
20
257.559444
30
0.0
10
103.557917
20
257.559444
30
0.0
0
LWPOLYLINE
100
AcDbPolyline
8
Calque_1
90
36
70
0
10
94.077014
20
256.739236
30
0.0
10
94.645972
20
256.514886
30
0.0
10
95.373472
20
255.645625
30
0.0
10
96.017474
20
254.875425
30
0.0
10
96.713060
20
254.426758
30
0.0
10
97.572289
20
254.254590
30
0.0
10
98.707222
20
254.313889
30
0.0
10
99.427313
20
254.373260
30
0.0
10
99.557665
20
254.358383
30
0.0
10
99.500972
20
254.313889
30
0.0
10
99.260836
20
254.154720
30
0.0
10
99.483333
20
253.943472
30
0.0
10
99.567873
20
253.724571
30
0.0
10
99.024722
20
253.528958
30
0.0
10
97.767189
20
253.111082
30
0.0
10
97.985763
20
252.960015
30
0.0
10
98.760139
20
252.823403
30
0.0
10
99.641026
20
252.671526
30
0.0
10
99.271667
20
252.594097
30
0.0
10
98.622442
20
252.491920
30
0.0
10
98.240931
20
252.301055
30
0.0
10
98.191785
20
252.082527
30
0.0
10
98.539653
20
251.897361
30
0.0
10
98.585477
20
251.844987
30
0.0
10
98.342045
20
251.797981
30
0.0
10
97.163819
20
251.738611
30
0.0
10
95.450913
20
251.834348
30
0.0
10
94.999414
20
252.085651
30
0.0
10
94.553264
20
252.558819
30
0.0
10
93.912256
20
253.510135
30
0.0
10
93.501698
20
254.512186
30
0.0
10
93.356750
20
255.441546
30
0.0
10
93.512569
20
256.174792
30
0.0
10
93.785041
20
256.567765
30
0.0
10
94.077014
20
256.739236
30
0.0
10
94.077014
20
256.739236
30
0.0
0
LWPOLYLINE
100
AcDbPolyline
8
Calque_1
90
24
70
0
10
92.992222
20
256.571667
30
0.0
10
93.099343
20
256.285285
30
0.0
10
93.115694
20
255.292847
30
0.0
10
93.271967
20
253.863794
30
0.0
10
93.918264
20
252.717569
30
0.0
10
94.702624
20
251.892558
30
0.0
10
95.461667
20
251.385833
30
0.0
10
96.203648
20
251.260925
30
0.0
10
97.276389
20
251.261791
30
0.0
10
99.536250
20
251.597500
30
0.0
10
99.977993
20
251.645435
30
0.0
10
100.010970
20
251.480505
30
0.0
10
99.700753
20
251.206503
30
0.0
10
99.112917
20
250.927222
30
0.0
10
97.192743
20
250.480378
30
0.0
10
95.655694
20
250.486250
30
0.0
10
94.550929
20
251.151894
30
0.0
10
93.404545
20
252.396018
30
0.0
10
92.501791
20
253.845015
30
0.0
10
92.127917
20
255.125278
30
0.0
10
92.271718
20
255.632881
30
0.0
10
92.621806
20
256.201250
30
0.0
10
92.992222
20
256.571667
30
0.0
10
92.992222
20
256.571667
30
0.0
0
LWPOLYLINE
100
AcDbPolyline
8
Calque_1
90
9
70
0
10
103.293333
20
254.807778
30
0.0
10
103.552350
20
254.724875
30
0.0
10
103.557917
20
254.525556
30
0.0
10
103.116944
20
254.243333
30
0.0
10
102.929880
20
254.326236
30
0.0
10
102.852361
20
254.525556
30
0.0
10
102.982099
20
254.724875
30
0.0
10
103.293333
20
254.807778
30
0.0
10
103.293333
20
254.807778
30
0.0
0
LWPOLYLINE
100
AcDbPolyline
8
Calque_1
90
10
70
0
10
112.589028
20
253.440764
30
0.0
10
111.918750
20
252.849861
30
0.0
10
111.108958
20
252.313365
30
0.0
10
110.786598
20
252.397694
30
0.0
10
110.348889
20
252.699931
30
0.0
10
109.999421
20
253.031329
30
0.0
10
110.243056
20
253.114444
30
0.0
10
111.636528
20
253.273194
30
0.0
10
112.589028
20
253.440764
30
0.0
10
112.589028
20
253.440764
30
0.0
0
LWPOLYLINE
100
AcDbPolyline
8
Calque_1
90
41
70
0
10
105.136597
20
253.361389
30
0.0
10
105.524653
20
253.255556
30
0.0
10
108.064653
20
252.832222
30
0.0
10
109.719780
20
252.506363
30
0.0
10
110.534097
20
251.976736
30
0.0
10
110.874035
20
251.307001
30
0.0
10
110.746602
20
250.773120
30
0.0
10
110.186598
20
250.419918
30
0.0
10
109.228819
20
250.292222
30
0.0
10
108.417630
20
250.216881
30
0.0
10
107.672494
20
249.944321
30
0.0
10
105.833333
20
248.528333
30
0.0
10
105.319660
20
248.152994
30
0.0
10
104.882866
20
248.075803
30
0.0
10
104.462694
20
248.306457
30
0.0
10
103.998889
20
248.854653
30
0.0
10
103.434799
20
249.950695
30
0.0
10
103.483357
20
250.182139
30
0.0
10
103.769583
20
250.107014
30
0.0
10
103.865199
20
250.085064
30
0.0
10
103.865074
20
250.185933
30
0.0
10
103.602014
20
250.680278
30
0.0
10
103.218135
20
251.568242
30
0.0
10
103.352312
20
251.609775
30
0.0
10
103.690208
20
251.288819
30
0.0
10
104.071507
20
250.984024
30
0.0
10
104.483958
20
250.856667
30
0.0
10
104.740270
20
250.958219
30
0.0
10
104.404583
20
251.412292
30
0.0
10
104.053291
20
251.912953
30
0.0
10
104.360486
20
252.153125
30
0.0
10
104.636702
20
252.356521
30
0.0
10
104.651528
20
252.602917
30
0.0
10
104.690526
20
252.718166
30
0.0
10
105.057222
20
252.576458
30
0.0
10
105.528825
20
252.431603
30
0.0
10
105.796844
20
252.530318
30
0.0
10
105.796476
20
252.786600
30
0.0
10
105.462917
20
253.114444
30
0.0
10
105.136597
20
253.361389
30
0.0
10
105.136597
20
253.361389
30
0.0
0
LWPOLYLINE
100
AcDbPolyline
8
Calque_1
90
8
70
0
10
99.765556
20
252.232500
30
0.0
10
100.083056
20
252.179583
30
0.0
10
100.202578
20
252.062685
30
0.0
10
99.906667
20
252.003194
30
0.0
10
99.574726
20
252.038397
30
0.0
10
99.536250
20
252.153125
30
0.0
10
99.765556
20
252.232500
30
0.0
10
99.765556
20
252.232500
30
0.0
0
LWPOLYLINE
100
AcDbPolyline
8
Calque_1
90
10
70
0
10
105.021944
20
252.179583
30
0.0
10
104.704444
20
252.091389
30
0.0
10
104.321886
20
251.868836
30
0.0
10
104.695625
20
251.518125
30
0.0
10
105.318772
20
251.155644
30
0.0
10
105.145417
20
251.518125
30
0.0
10
104.981882
20
251.841496
30
0.0
10
105.030764
20
252.091389
30
0.0
10
105.021944
20
252.179583
30
0.0
10
105.021944
20
252.179583
30
0.0
0
LWPOLYLINE
100
AcDbPolyline
8
Calque_1
90
8
70
0
10
100.744514
20
251.588681
30
0.0
10
100.823889
20
251.571042
30
0.0
10
100.831789
20
251.354484
30
0.0
10
100.629861
20
251.059514
30
0.0
10
100.388529
20
250.884311
30
0.0
10
100.471111
20
251.218264
30
0.0
10
100.744514
20
251.588681
30
0.0
10
100.744514
20
251.588681
30
0.0
0
LWPOLYLINE
100
AcDbPolyline
8
Calque_1
90
37
70
0
10
101.820486
20
251.077153
30
0.0
10
102.129167
20
250.768472
30
0.0
10
102.482496
20
250.395399
30
0.0
10
102.649514
20
250.768472
30
0.0
10
102.704018
20
250.871389
30
0.0
10
102.753972
20
250.772020
30
0.0
10
102.817083
20
250.062917
30
0.0
10
102.738082
20
249.060516
30
0.0
10
102.458760
20
248.148963
30
0.0
10
101.999207
20
247.374179
30
0.0
10
101.379514
20
246.782083
30
0.0
10
100.804564
20
246.462406
30
0.0
10
100.234544
20
246.397359
30
0.0
10
99.511610
20
246.604049
30
0.0
10
98.477917
20
247.099583
30
0.0
10
97.075625
20
247.822778
30
0.0
10
98.178056
20
248.784097
30
0.0
10
99.055223
20
249.412994
30
0.0
10
99.326809
20
249.490364
30
0.0
10
99.483333
20
249.410278
30
0.0
10
99.707272
20
249.302637
30
0.0
10
99.986042
20
249.621944
30
0.0
10
100.209291
20
249.895470
30
0.0
10
100.303542
20
249.780694
30
0.0
10
100.383800
20
249.565414
30
0.0
10
100.568125
20
249.569028
30
0.0
10
100.793607
20
249.537288
30
0.0
10
100.965000
20
249.233889
30
0.0
10
101.018596
20
249.119262
30
0.0
10
101.069109
20
249.174527
30
0.0
10
101.141389
20
249.727778
30
0.0
10
101.232096
20
250.423333
30
0.0
10
101.441250
20
250.151111
30
0.0
10
101.642746
20
249.835360
30
0.0
10
101.705833
20
250.433333
30
0.0
10
101.820486
20
251.077153
30
0.0
10
101.820486
20
251.077153
30
0.0
0
LWPOLYLINE
100
AcDbPolyline
8
Calque_1
90
17
70
0
10
99.448056
20
250.618542
30
0.0
10
99.675025
20
250.566201
30
0.0
10
99.663043
20
250.389718
30
0.0
10
98.892431
20
249.815972
30
0.0
10
97.454861
20
248.757639
30
0.0
10
96.599375
20
248.069722
30
0.0
10
95.885000
20
248.228472
30
0.0
10
95.350718
20
248.420400
30
0.0
10
94.975954
20
248.733108
30
0.0
10
94.793334
20
249.124227
30
0.0
10
94.835486
20
249.551389
30
0.0
10
95.280897
20
249.907445
30
0.0
10
96.396528
20
250.010000
30
0.0
10
97.671901
20
250.131041
30
0.0
10
98.786597
20
250.424514
30
0.0
10
99.448056
20
250.618542
30
0.0
10
99.448056
20
250.618542
30
0.0
0
LWPOLYLINE
100
AcDbPolyline
8
Calque_1
90
14
70
0
10
109.810903
20
250.027639
30
0.0
10
110.089207
20
249.958343
30
0.0
10
110.190139
20
249.771875
30
0.0
10
109.835386
20
249.307068
30
0.0
10
108.964114
20
248.646584
30
0.0
10
107.865802
20
247.984302
30
0.0
10
106.829931
20
247.514097
30
0.0
10
105.732341
20
247.221482
30
0.0
10
105.313496
20
247.315913
30
0.0
10
105.575698
20
247.787248
30
0.0
10
106.521250
20
248.625347
30
0.0
10
108.287093
20
249.641104
30
0.0
10
109.810903
20
250.027639
30
0.0
10
109.810903
20
250.027639
30
0.0
0
LWPOLYLINE
100
AcDbPolyline
8
Calque_1
90
22
70
0
10
103.266875
20
248.528333
30
0.0
10
103.293333
20
248.528333
30
0.0
10
103.301069
20
248.034636
30
0.0
10
102.982648
20
247.186671
30
0.0
10
102.477816
20
246.281934
30
0.0
10
101.926319
20
245.617917
30
0.0
10
101.129661
20
245.135608
30
0.0
10
100.258481
20
244.953031
30
0.0
10
99.339275
20
245.072029
30
0.0
10
98.398542
20
245.494444
30
0.0
10
97.392600
20
246.376313
30
0.0
10
97.207244
20
246.776343
30
0.0
10
97.287292
20
247.073125
30
0.0
10
97.817024
20
246.964072
30
0.0
10
98.883611
20
246.491042
30
0.0
10
100.253124
20
245.920299
30
0.0
10
100.671331
20
245.987355
30
0.0
10
101.185486
20
246.261736
30
0.0
10
101.961774
20
246.892193
30
0.0
10
102.623056
20
247.699306
30
0.0
10
103.266875
20
248.528333
30
0.0
10
103.266875
20
248.528333
30
0.0
0
LWPOLYLINE
100
AcDbPolyline
8
Calque_1
90
12
70
0
10
103.751944
20
247.866875
30
0.0
10
104.045946
20
247.776675
30
0.0
10
104.413403
20
247.452361
30
0.0
10
104.768367
20
246.920207
30
0.0
10
104.528056
20
246.508681
30
0.0
10
104.119087
20
246.260167
30
0.0
10
103.763244
20
246.285342
30
0.0
10
103.511993
20
246.558888
30
0.0
10
103.416806
20
247.055486
30
0.0
10
103.502981
20
247.646403
30
0.0
10
103.751944
20
247.866875
30
0.0
10
103.751944
20
247.866875
30
0.0
0
LWPOLYLINE
100
AcDbPolyline
8
Calque_1
90
26
70
0
10
116.795903
20
241.340486
30
0.0
10
118.004167
20
240.008750
30
0.0
10
118.989980
20
238.746888
30
0.0
10
119.003760
20
238.351129
30
0.0
10
118.789097
20
237.865625
30
0.0
10
118.356944
20
236.683819
30
0.0
10
117.942431
20
235.475556
30
0.0
10
117.536736
20
234.628889
30
0.0
10
117.669028
20
235.898889
30
0.0
10
117.801319
20
237.168889
30
0.0
10
117.439722
20
236.040000
30
0.0
10
117.109545
20
235.238350
30
0.0
10
116.990545
20
235.218105
30
0.0
10
116.875278
20
235.422639
30
0.0
10
116.681250
20
236.498611
30
0.0
10
116.598347
20
236.843705
30
0.0
10
116.399028
20
236.886667
30
0.0
10
116.199708
20
236.843710
30
0.0
10
116.116806
20
236.983681
30
0.0
10
115.270139
20
238.156667
30
0.0
10
114.423472
20
239.188542
30
0.0
10
114.547715
20
239.595272
30
0.0
10
114.878258
20
240.059763
30
0.0
10
115.905139
20
240.873056
30
0.0
10
116.795903
20
241.340486
30
0.0
10
116.795903
20
241.340486
30
0.0
0
LWPOLYLINE
100
AcDbPolyline
8
Calque_1
90
34
70
0
10
112.183333
20
239.682431
30
0.0
10
112.751000
20
239.586401
30
0.0
10
113.360751
20
239.284208
30
0.0
10
114.802708
20
238.015556
30
0.0
10
115.627039
20
236.993636
30
0.0
10
116.256016
20
235.941973
30
0.0
10
116.592697
20
235.056181
30
0.0
10
116.540139
20
234.531875
30
0.0
10
116.241213
20
234.601633
30
0.0
10
115.790486
20
235.034583
30
0.0
10
115.226042
20
235.722500
30
0.0
10
115.420069
20
234.964028
30
0.0
10
115.472986
20
234.205556
30
0.0
10
114.255903
20
235.607847
30
0.0
10
113.438662
20
236.593685
30
0.0
10
113.087507
20
236.860239
30
0.0
10
113.247789
20
236.443271
30
0.0
10
113.964861
20
235.378542
30
0.0
10
114.987917
20
233.817500
30
0.0
10
114.909742
20
233.647095
30
0.0
10
114.700812
20
233.697624
30
0.0
10
114.044236
20
234.373125
30
0.0
10
113.632080
20
234.833587
30
0.0
10
113.373958
20
234.937569
30
0.0
10
112.933636
20
235.045911
30
0.0
10
112.183482
20
235.601188
30
0.0
10
111.397975
20
236.367052
30
0.0
10
110.851597
20
237.107153
30
0.0
10
110.586958
20
237.870527
30
0.0
10
110.605411
20
238.551493
30
0.0
10
110.896888
20
239.112216
30
0.0
10
111.451319
20
239.514861
30
0.0
10
112.183333
20
239.682431
30
0.0
10
112.183333
20
239.682431
30
0.0
0
LWPOLYLINE
100
AcDbPolyline
8
Calque_1
90
37
70
0
10
120.729375
20
239.056250
30
0.0
10
121.537669
20
238.929808
30
0.0
10
122.125131
20
238.509488
30
0.0
10
122.488597
20
237.849733
30
0.0
10
122.624902
20
237.004988
30
0.0
10
122.530880
20
236.029698
30
0.0
10
122.203368
20
234.978307
30
0.0
10
121.639199
20
233.905259
30
0.0
10
120.835208
20
232.865000
30
0.0
10
120.321083
20
232.383773
30
0.0
10
120.023217
20
232.254047
30
0.0
10
119.985825
20
232.465076
30
0.0
10
120.253125
20
233.006111
30
0.0
10
120.592801
20
233.605778
30
0.0
10
120.217847
20
233.305972
30
0.0
10
119.738035
20
233.004646
30
0.0
10
119.344722
20
233.164861
30
0.0
10
119.157461
20
233.599304
30
0.0
10
119.494653
20
234.346667
30
0.0
10
120.182569
20
235.898889
30
0.0
10
120.193553
20
236.061497
30
0.0
10
120.089203
20
235.982674
30
0.0
10
119.609306
20
235.193333
30
0.0
10
118.945635
20
234.126581
30
0.0
10
118.771891
20
234.099801
30
0.0
10
118.630347
20
234.346667
30
0.0
10
118.469867
20
234.641677
30
0.0
10
118.392222
20
234.558333
30
0.0
10
118.303758
20
234.309184
30
0.0
10
118.118819
20
234.205556
30
0.0
10
118.177541
20
234.877381
30
0.0
10
118.678231
20
236.377060
30
0.0
10
119.329164
20
237.930901
30
0.0
10
119.838611
20
238.765208
30
0.0
10
120.491250
20
239.029792
30
0.0
10
120.729375
20
239.056250
30
0.0
10
120.729375
20
239.056250
30
0.0
0
LWPOLYLINE
100
AcDbPolyline
8
Calque_1
90
12
70
0
10
110.269514
20
237.221806
30
0.0
10
110.684028
20
236.727917
30
0.0
10
112.386181
20
234.911111
30
0.0
10
113.894306
20
233.288333
30
0.0
10
114.115361
20
232.740263
30
0.0
10
113.889918
20
232.749948
30
0.0
10
112.068681
20
234.461319
30
0.0
10
110.741008
20
235.990394
30
0.0
10
110.190139
20
236.930764
30
0.0
10
110.243056
20
237.212986
30
0.0
10
110.269514
20
237.221806
30
0.0
10
110.269514
20
237.221806
30
0.0
0
LWPOLYLINE
100
AcDbPolyline
8
Calque_1
90
15
70
0
10
123.004792
20
236.383958
30
0.0
10
123.207639
20
236.251667
30
0.0
10
123.322981
20
236.023104
30
0.0
10
123.298780
20
235.671924
30
0.0
10
122.793125
20
234.426042
30
0.0
10
122.024009
20
233.120467
30
0.0
10
121.205625
20
232.097708
30
0.0
10
120.572960
20
231.554516
30
0.0
10
120.379443
20
231.532382
30
0.0
10
121.293819
20
232.882639
30
0.0
10
122.539519
20
234.657850
30
0.0
10
122.808541
20
235.322557
30
0.0
10
122.890139
20
235.934167
30
0.0
10
123.004792
20
236.383958
30
0.0
10
123.004792
20
236.383958
30
0.0
0
LWPOLYLINE
100
AcDbPolyline
8
Calque_1
90
12
70
0
10
109.996111
20
235.607847
30
0.0
10
110.548058
20
235.306357
30
0.0
10
111.407222
20
234.593611
30
0.0
10
112.336520
20
233.507855
30
0.0
10
112.058537
20
233.542303
30
0.0
10
111.292569
20
234.002708
30
0.0
10
109.819722
20
234.849375
30
0.0
10
109.539603
20
235.056315
30
0.0
10
109.489319
20
235.310509
30
0.0
10
109.648335
20
235.523755
30
0.0
10
109.996111
20
235.607847
30
0.0
10
109.996111
20
235.607847
30
0.0
0
LWPOLYLINE
100
AcDbPolyline
8
Calque_1
90
8
70
0
10
120.667639
20
235.193333
30
0.0
10
120.085556
20
234.487778
30
0.0
10
119.503472
20
233.570556
30
0.0
10
119.549505
20
233.363322
30
0.0
10
119.696033
20
233.423232
30
0.0
10
120.217847
20
234.276111
30
0.0
10
120.667639
20
235.193333
30
0.0
10
120.667639
20
235.193333
30
0.0
0
LWPOLYLINE
100
AcDbPolyline
8
Calque_1
90
15
70
0
10
124.036667
20
235.052222
30
0.0
10
124.379539
20
234.943129
30
0.0
10
124.561680
20
234.645666
30
0.0
10
124.494968
20
233.664536
30
0.0
10
123.938931
20
232.466642
30
0.0
10
122.995972
20
231.409792
30
0.0
10
121.928819
20
230.836528
30
0.0
10
121.391203
20
230.943709
30
0.0
10
121.227481
20
231.212237
30
0.0
10
121.440886
20
231.716244
30
0.0
10
122.034653
20
232.529861
30
0.0
10
123.313472
20
234.487778
30
0.0
10
123.599384
20
234.885974
30
0.0
10
124.036667
20
235.052222
30
0.0
10
124.036667
20
235.052222
30
0.0
0
LWPOLYLINE
100
AcDbPolyline
8
Calque_1
90
32
70
0
10
108.038194
20
234.752361
30
0.0
10
109.098044
20
234.637894
30
0.0
10
110.190139
20
234.196736
30
0.0
10
112.871250
20
232.759167
30
0.0
10
113.996303
20
232.118962
30
0.0
10
114.016679
20
232.019168
30
0.0
10
113.700278
20
232.044792
30
0.0
10
112.851710
20
232.100869
30
0.0
10
112.443578
20
231.957405
30
0.0
10
112.535914
20
231.692270
30
0.0
10
113.188750
20
231.383333
30
0.0
10
114.554194
20
230.767535
30
0.0
10
114.567883
20
230.620302
30
0.0
10
114.000139
20
230.695417
30
0.0
10
112.024583
20
231.295139
30
0.0
10
111.311315
20
231.492958
30
0.0
10
111.158242
20
231.491813
30
0.0
10
111.177917
20
231.418611
30
0.0
10
113.294583
20
230.580764
30
0.0
10
114.407325
20
230.165088
30
0.0
10
114.493641
20
230.060335
30
0.0
10
114.284544
20
230.024456
30
0.0
10
110.763403
20
230.571944
30
0.0
10
108.861423
20
231.042894
30
0.0
10
107.642780
20
231.589666
30
0.0
10
106.994465
20
232.286830
30
0.0
10
106.803472
20
233.208958
30
0.0
10
106.901192
20
233.929591
30
0.0
10
107.138611
20
234.426042
30
0.0
10
107.515896
20
234.653053
30
0.0
10
108.038194
20
234.752361
30
0.0
10
108.038194
20
234.752361
30
0.0
0
LWPOLYLINE
100
AcDbPolyline
8
Calque_1
90
12
70
0
10
125.068542
20
233.888056
30
0.0
10
125.271389
20
233.579375
30
0.0
10
125.241242
20
232.976077
30
0.0
10
124.733403
20
232.124167
30
0.0
10
123.569236
20
230.986458
30
0.0
10
123.472871
20
231.007033
30
0.0
10
123.519013
20
231.181638
30
0.0
10
123.983750
20
231.877222
30
0.0
10
124.606189
20
232.789356
30
0.0
10
124.936250
20
233.500000
30
0.0
10
125.068542
20
233.888056
30
0.0
10
125.068542
20
233.888056
30
0.0
0
LWPOLYLINE
100
AcDbPolyline
8
Calque_1
90
42
70
0
10
116.187361
20
233.861597
30
0.0
10
116.485465
20
233.806851
30
0.0
10
116.707708
20
233.614653
30
0.0
10
116.956116
20
233.369385
30
0.0
10
117.192778
20
233.579375
30
0.0
10
117.563327
20
233.820391
30
0.0
10
118.029415
20
233.658670
30
0.0
10
118.537741
20
233.182563
30
0.0
10
119.035005
20
232.480419
30
0.0
10
119.783144
20
230.751420
30
0.0
10
119.927419
20
229.901265
30
0.0
10
119.847431
20
229.178472
30
0.0
10
119.661163
20
228.872917
30
0.0
10
119.454805
20
228.871414
30
0.0
10
119.286009
20
229.133683
30
0.0
10
119.212431
20
229.619444
30
0.0
10
119.143153
20
230.193505
30
0.0
10
118.824375
20
229.901667
30
0.0
10
118.267115
20
229.437925
30
0.0
10
118.135018
20
229.616045
30
0.0
10
118.092361
20
230.069236
30
0.0
10
117.925183
20
230.683706
30
0.0
10
117.527917
20
231.233403
30
0.0
10
117.192218
20
231.637506
30
0.0
10
117.128444
20
231.945898
30
0.0
10
117.319528
20
232.098684
30
0.0
10
117.748403
20
232.035972
30
0.0
10
118.045673
20
231.979659
30
0.0
10
117.951250
20
232.159444
30
0.0
10
117.034028
20
232.635694
30
0.0
10
116.562492
20
232.699774
30
0.0
10
116.566597
20
232.388750
30
0.0
10
116.553899
20
232.048455
30
0.0
10
116.107986
20
231.947778
30
0.0
10
115.663141
20
232.026407
30
0.0
10
115.834583
20
232.371111
30
0.0
10
116.042976
20
232.791028
30
0.0
10
115.834583
20
233.208958
30
0.0
10
115.647024
20
233.584697
30
0.0
10
115.966875
20
233.817500
30
0.0
10
116.187361
20
233.861597
30
0.0
10
116.187361
20
233.861597
30
0.0
0
LWPOLYLINE
100
AcDbPolyline
8
Calque_1
90
32
70
0
10
126.329722
20
232.988472
30
0.0
10
126.717778
20
232.653333
30
0.0
10
126.943453
20
232.192525
30
0.0
10
127.022085
20
231.630250
30
0.0
10
126.789957
20
230.347535
30
0.0
10
126.124864
20
229.097650
30
0.0
10
125.130278
20
228.173056
30
0.0
10
123.974931
20
227.758542
30
0.0
10
122.074491
20
228.047029
30
0.0
10
121.633613
20
228.169409
30
0.0
10
121.734792
20
228.234792
30
0.0
10
122.175841
20
228.312724
30
0.0
10
122.209871
20
228.452861
30
0.0
10
121.135069
20
228.843333
30
0.0
10
120.473122
20
229.043071
30
0.0
10
121.408472
20
229.099097
30
0.0
10
122.228990
20
229.195515
30
0.0
10
122.577904
20
229.384711
30
0.0
10
122.419273
20
229.592055
30
0.0
10
121.717153
20
229.742917
30
0.0
10
121.056134
20
229.924217
30
0.0
10
120.764653
20
230.254444
30
0.0
10
120.798431
20
230.460501
30
0.0
10
121.012891
20
230.575013
30
0.0
10
122.219861
20
230.580764
30
0.0
10
123.114391
20
230.549144
30
0.0
10
123.710777
20
230.674082
30
0.0
10
124.260646
20
231.069862
30
0.0
10
125.015625
20
231.850764
30
0.0
10
125.878433
20
232.735256
30
0.0
10
126.329722
20
232.988472
30
0.0
10
126.329722
20
232.988472
30
0.0
0
LWPOLYLINE
100
AcDbPolyline
8
Calque_1
90
25
70
0
10
127.379236
20
232.873819
30
0.0
10
127.776111
20
232.468125
30
0.0
10
128.131595
20
231.779385
30
0.0
10
128.128889
20
230.986458
30
0.0
10
127.786179
20
229.978944
30
0.0
10
127.201826
20
228.878445
30
0.0
10
126.507739
20
227.899296
30
0.0
10
125.835833
20
227.255833
30
0.0
10
124.954710
20
226.876691
30
0.0
10
123.864558
20
226.701587
30
0.0
10
122.706119
20
226.739666
30
0.0
10
121.620139
20
227.000069
30
0.0
10
120.420694
20
227.423403
30
0.0
10
120.350139
20
227.652708
30
0.0
10
120.924001
20
227.727811
30
0.0
10
122.308056
20
227.599792
30
0.0
10
123.780121
20
227.471323
30
0.0
10
124.825136
20
227.617214
30
0.0
10
125.647895
20
228.107171
30
0.0
10
126.453194
20
229.010903
30
0.0
10
127.104432
20
230.157600
30
0.0
10
127.264583
20
231.586181
30
0.0
10
127.352778
20
232.865000
30
0.0
10
127.379236
20
232.873819
30
0.0
10
127.379236
20
232.873819
30
0.0
0
LWPOLYLINE
100
AcDbPolyline
8
Calque_1
90
12
70
0
10
107.147431
20
231.171667
30
0.0
10
107.861806
20
230.960000
30
0.0
10
110.684028
20
230.254444
30
0.0
10
112.730139
20
229.804653
30
0.0
10
112.213106
20
229.708341
30
0.0
10
111.014776
20
229.718661
30
0.0
10
108.690833
20
229.972222
30
0.0
10
107.562473
20
230.505802
30
0.0
10
107.214326
20
230.819135
30
0.0
10
107.085694
20
231.109931
30
0.0
10
107.147431
20
231.171667
30
0.0
10
107.147431
20
231.171667
30
0.0
0
LWPOLYLINE
100
AcDbPolyline
8
Calque_1
90
9
70
0
10
116.892917
20
231.065833
30
0.0
10
117.272153
20
230.898264
30
0.0
10
117.429261
20
230.628806
30
0.0
10
117.289792
20
230.422014
30
0.0
10
117.031364
20
230.384096
30
0.0
10
116.813542
20
230.545486
30
0.0
10
116.725697
20
230.895462
30
0.0
10
116.892917
20
231.065833
30
0.0
10
116.892917
20
231.065833
30
0.0
0
LWPOLYLINE
100
AcDbPolyline
8
Calque_1
90
12
70
0
10
108.214583
20
229.584167
30
0.0
10
109.317014
20
229.487153
30
0.0
10
110.271615
20
229.286671
30
0.0
10
110.276448
20
229.150127
30
0.0
10
110.031389
20
228.940347
30
0.0
10
109.559384
20
228.663559
30
0.0
10
109.145867
20
228.583826
30
0.0
10
108.756187
20
228.702198
30
0.0
10
108.355694
20
229.019722
30
0.0
10
108.016749
20
229.436442
30
0.0
10
108.214583
20
229.584167
30
0.0
10
108.214583
20
229.584167
30
0.0
0
LWPOLYLINE
100
AcDbPolyline
8
Calque_1
90
48
70
0
10
115.049653
20
229.548889
30
0.0
10
115.156229
20
229.509345
30
0.0
10
114.935000
20
229.310764
30
0.0
10
114.618310
20
228.954593
30
0.0
10
115.005556
20
228.614028
30
0.0
10
115.755208
20
228.278889
30
0.0
10
115.794844
20
228.353211
30
0.0
10
115.587639
20
228.525833
30
0.0
10
115.370609
20
228.759281
30
0.0
10
115.517083
20
228.966806
30
0.0
10
115.702928
20
229.003026
30
0.0
10
115.832671
20
228.870773
30
0.0
10
115.869861
20
228.208333
30
0.0
10
115.933616
20
228.058844
30
0.0
10
116.134444
20
227.996667
30
0.0
10
116.283908
20
227.894857
30
0.0
10
116.213819
20
227.643889
30
0.0
10
115.956649
20
227.128799
30
0.0
10
115.951897
20
226.876175
30
0.0
10
116.161891
20
226.923623
30
0.0
10
116.548958
20
227.308750
30
0.0
10
117.009117
20
227.784141
30
0.0
10
117.217890
20
227.835838
30
0.0
10
117.147319
20
227.518158
30
0.0
10
116.769444
20
226.885417
30
0.0
10
116.533243
20
226.466074
30
0.0
10
116.628333
20
226.409167
30
0.0
10
116.886162
20
226.470406
30
0.0
10
116.943093
20
226.244702
30
0.0
10
116.478403
20
225.147986
30
0.0
10
116.008912
20
224.564203
30
0.0
10
115.484872
20
224.372372
30
0.0
10
114.851261
20
224.572758
30
0.0
10
114.053056
20
225.165625
30
0.0
10
113.235973
20
225.794334
30
0.0
10
112.424538
20
226.237230
30
0.0
10
111.607153
20
226.499306
30
0.0
10
110.772222
20
226.585556
30
0.0
10
110.109034
20
226.704810
30
0.0
10
109.634514
20
226.991250
30
0.0
10
109.456332
20
227.348685
30
0.0
10
109.481816
20
227.715191
30
0.0
10
110.047412
20
228.405475
30
0.0
10
111.138574
20
228.922222
30
0.0
10
112.562569
20
229.125556
30
0.0
10
114.423472
20
229.398958
30
0.0
10
115.049653
20
229.548889
30
0.0
10
115.049653
20
229.548889
30
0.0
0
LWPOLYLINE
100
AcDbPolyline
8
Calque_1
90
8
70
0
10
115.605278
20
227.970208
30
0.0
10
115.190764
20
227.749722
30
0.0
10
115.015561
20
227.508390
30
0.0
10
115.349514
20
227.590972
30
0.0
10
115.662863
20
227.774520
30
0.0
10
115.702292
20
227.943750
30
0.0
10
115.605278
20
227.970208
30
0.0
10
115.605278
20
227.970208
30
0.0
0
LWPOLYLINE
100
AcDbPolyline
8
Calque_1
90
34
70
0
10
118.321667
20
227.423403
30
0.0
10
118.547867
20
227.182801
30
0.0
10
118.656806
20
226.515000
30
0.0
10
118.721295
20
225.886581
30
0.0
10
118.939028
20
226.021111
30
0.0
10
119.162548
20
226.257807
30
0.0
10
119.221250
20
225.880000
30
0.0
10
119.512292
20
224.892222
30
0.0
10
119.698626
20
224.722525
30
0.0
10
119.626944
20
225.209722
30
0.0
10
119.584144
20
225.763130
30
0.0
10
119.721669
20
226.093888
30
0.0
10
119.988221
20
226.152337
30
0.0
10
120.332500
20
225.888819
30
0.0
10
120.681208
20
225.647972
30
0.0
10
121.046875
20
225.633056
30
0.0
10
121.574126
20
225.465296
30
0.0
10
122.350996
20
224.940463
30
0.0
10
123.007178
20
224.347412
30
0.0
10
123.172361
20
223.975000
30
0.0
10
121.549583
20
223.101875
30
0.0
10
119.979722
20
222.352222
30
0.0
10
118.806736
20
223.278264
30
0.0
10
118.233244
20
223.818406
30
0.0
10
117.894322
20
224.306031
30
0.0
10
117.624931
20
225.747708
30
0.0
10
117.603694
20
226.805702
30
0.0
10
117.667577
20
226.901026
30
0.0
10
117.783681
20
226.726667
30
0.0
10
118.013099
20
226.329810
30
0.0
10
118.065903
20
226.797222
30
0.0
10
118.152539
20
227.276308
30
0.0
10
118.321667
20
227.423403
30
0.0
10
118.321667
20
227.423403
30
0.0
0
LWPOLYLINE
100
AcDbPolyline
8
Calque_1
90
16
70
0
10
120.491250
20
226.903056
30
0.0
10
121.196806
20
226.700208
30
0.0
10
123.595694
20
226.373889
30
0.0
10
124.850270
20
226.189173
30
0.0
10
125.491875
20
225.924097
30
0.0
10
125.678757
20
225.504205
30
0.0
10
125.636771
20
225.162858
30
0.0
10
125.354767
20
224.880221
30
0.0
10
124.821597
20
224.636458
30
0.0
10
124.149266
20
224.415895
30
0.0
10
123.716209
20
224.389386
30
0.0
10
123.304474
20
224.605476
30
0.0
10
122.696111
20
225.112708
30
0.0
10
121.143889
20
226.391528
30
0.0
10
120.491250
20
226.903056
30
0.0
10
120.491250
20
226.903056
30
0.0
0
LWPOLYLINE
100
AcDbPolyline
8
Calque_1
90
15
70
0
10
110.613472
20
226.285694
30
0.0
10
112.059493
20
225.911821
30
0.0
10
113.612083
20
224.998056
30
0.0
10
115.014375
20
224.045556
30
0.0
10
115.194959
20
223.962653
30
0.0
10
115.270139
20
223.763333
30
0.0
10
115.049228
20
223.517110
30
0.0
10
114.453208
20
223.517778
30
0.0
10
113.582146
20
223.749262
30
0.0
10
112.536111
20
224.195486
30
0.0
10
110.743339
20
225.350029
30
0.0
10
110.283762
20
225.849656
30
0.0
10
110.251875
20
226.179861
30
0.0
10
110.613472
20
226.285694
30
0.0
10
110.613472
20
226.285694
30
0.0
0
LWPOLYLINE
100
AcDbPolyline
8
Calque_1
90
7
70
0
10
119.891528
20
225.924097
30
0.0
10
119.865069
20
225.906458
30
0.0
10
119.909167
20
225.474306
30
0.0
10
120.212973
20
225.185109
30
0.0
10
120.164931
20
225.606597
30
0.0
10
119.891528
20
225.924097
30
0.0
10
119.891528
20
225.924097
30
0.0
0
LWPOLYLINE
100
AcDbPolyline
8
Calque_1
90
22
70
0
10
117.060486
20
224.804028
30
0.0
10
117.827778
20
223.842708
30
0.0
10
118.534194
20
222.973460
30
0.0
10
119.274167
20
222.361042
30
0.0
10
119.733169
20
222.146236
30
0.0
10
120.158071
20
222.115354
30
0.0
10
121.602500
20
222.705000
30
0.0
10
122.764933
20
223.184162
30
0.0
10
123.063640
20
223.220548
30
0.0
10
123.163542
20
223.119514
30
0.0
10
122.910052
20
222.435053
30
0.0
10
122.052292
20
221.699583
30
0.0
10
121.384010
20
221.365978
30
0.0
10
120.671160
20
221.225683
30
0.0
10
119.945979
20
221.265294
30
0.0
10
119.240701
20
221.471406
30
0.0
10
118.587562
20
221.830616
30
0.0
10
118.018797
20
222.329517
30
0.0
10
117.566643
20
222.954706
30
0.0
10
117.263333
20
223.692778
30
0.0
10
117.060486
20
224.804028
30
0.0
10
117.060486
20
224.804028
30
0.0
0
LWPOLYLINE
100
AcDbPolyline
8
Calque_1
90
11
70
0
10
116.557778
20
224.248403
30
0.0
10
116.702968
20
224.114056
30
0.0
10
116.840000
20
223.639861
30
0.0
10
116.893398
20
222.987113
30
0.0
10
116.645972
20
222.607986
30
0.0
10
116.044814
20
222.384020
30
0.0
10
115.711111
20
222.828472
30
0.0
10
115.731017
20
223.325282
30
0.0
10
116.090347
20
223.860347
30
0.0
10
116.557778
20
224.248403
30
0.0
10
116.557778
20
224.248403
30
0.0
0
LWPOLYLINE
100
AcDbPolyline
8
Calque_1
90
166
70
0
10
26.978681
20
213.215278
30
0.0
10
26.123194
20
213.082986
30
0.0
10
24.936248
20
212.489952
30
0.0
10
24.256699
20
211.676596
30
0.0
10
24.132789
20
211.243008
30
0.0
10
24.166439
20
210.821193
30
0.0
10
24.367884
20
210.433433
30
0.0
10
24.747361
20
210.102014
30
0.0
10
25.294888
20
209.940701
30
0.0
10
25.772276
20
210.135687
30
0.0
10
26.127466
20
210.642361
30
0.0
10
26.308403
20
211.416111
30
0.0
10
26.474365
20
212.169026
30
0.0
10
26.749375
20
212.562639
30
0.0
10
27.413016
20
212.554371
30
0.0
10
28.335634
20
212.253337
30
0.0
10
29.269896
20
211.765201
30
0.0
10
29.968472
20
211.195625
30
0.0
10
30.443610
20
210.447577
30
0.0
10
30.569227
20
209.702706
30
0.0
10
30.345959
20
208.959051
30
0.0
10
29.774444
20
208.214653
30
0.0
10
29.102854
20
207.684477
30
0.0
10
28.423786
20
207.444685
30
0.0
10
27.710083
20
207.490658
30
0.0
10
26.934583
20
207.817778
30
0.0
10
26.134353
20
208.153807
30
0.0
10
25.403431
20
208.182009
30
0.0
10
24.690638
20
207.893598
30
0.0
10
23.944792
20
207.279792
30
0.0
10
23.201229
20
206.294606
30
0.0
10
22.949850
20
205.306121
30
0.0
10
23.191532
20
204.296849
30
0.0
10
23.927153
20
203.249306
30
0.0
10
24.483145
20
202.694584
30
0.0
10
24.993668
20
202.366034
30
0.0
10
26.546528
20
202.093958
30
0.0
10
28.076844
20
202.110925
30
0.0
10
29.307014
20
202.420278
30
0.0
10
30.444722
20
202.878889
30
0.0
10
30.524097
20
201.511875
30
0.0
10
30.812749
20
199.716935
30
0.0
10
31.564107
20
198.237131
30
0.0
10
32.681972
20
197.107376
30
0.0
10
34.070142
20
196.362579
30
0.0
10
35.632418
20
196.037650
30
0.0
10
37.272599
20
196.167501
30
0.0
10
38.894485
20
196.787041
30
0.0
10
40.401875
20
197.931181
30
0.0
10
41.303605
20
199.014011
30
0.0
10
41.610139
20
199.862639
30
0.0
10
41.287712
20
202.088149
30
0.0
10
40.710556
20
204.087153
30
0.0
10
40.538077
20
204.338472
30
0.0
10
40.326155
20
204.375778
30
0.0
10
39.422917
20
203.699097
30
0.0
10
38.471940
20
202.973745
30
0.0
10
37.507129
20
202.452412
30
0.0
10
36.536687
20
202.137704
30
0.0
10
35.568819
20
202.032222
30
0.0
10
34.842866
20
201.902003
30
0.0
10
34.256105
20
201.546069
30
0.0
10
33.822017
20
201.016505
30
0.0
10
33.554081
20
200.365397
30
0.0
10
33.465778
20
199.644829
30
0.0
10
33.570588
20
198.906888
30
0.0
10
33.881993
20
198.203657
30
0.0
10
34.413472
20
197.587222
30
0.0
10
35.047485
20
197.182031
30
0.0
10
35.725209
20
197.008449
30
0.0
10
36.434535
20
197.060213
30
0.0
10
37.163356
20
197.331060
30
0.0
10
37.899567
20
197.814725
30
0.0
10
38.631058
20
198.504946
30
0.0
10
40.031458
20
200.480000
30
0.0
10
40.507708
20
201.326667
30
0.0
10
40.331319
20
200.480000
30
0.0
10
39.749586
20
199.030430
30
0.0
10
38.734952
20
197.815660
30
0.0
10
37.449145
20
196.980560
30
0.0
10
36.755090
20
196.750658
30
0.0
10
36.053889
20
196.670000
30
0.0
10
35.028259
20
196.863977
30
0.0
10
33.893215
20
197.371010
30
0.0
10
32.850730
20
198.078753
30
0.0
10
32.102778
20
198.874861
30
0.0
10
31.638394
20
199.726484
30
0.0
10
31.345065
20
200.615111
30
0.0
10
31.221084
20
201.527202
30
0.0
10
31.264746
20
202.449216
30
0.0
10
31.474347
20
203.367613
30
0.0
10
31.848183
20
204.268852
30
0.0
10
32.384547
20
205.139392
30
0.0
10
33.081736
20
205.965694
30
0.0
10
34.468361
20
207.142469
30
0.0
10
36.045069
20
207.694306
30
0.0
10
37.793490
20
207.872660
30
0.0
10
39.473964
20
207.656846
30
0.0
10
41.035427
20
207.087594
30
0.0
10
42.426809
20
206.205635
30
0.0
10
43.597046
20
205.051700
30
0.0
10
44.495069
20
203.666520
30
0.0
10
45.069812
20
202.090825
30
0.0
10
45.270208
20
200.365347
30
0.0
10
45.069143
20
198.919655
30
0.0
10
44.490090
20
197.444593
30
0.0
10
43.560262
20
195.994543
30
0.0
10
42.306875
20
194.623889
30
0.0
10
41.216515
20
193.538012
30
0.0
10
40.504502
20
192.625781
30
0.0
10
40.067495
20
191.724826
30
0.0
10
39.802153
20
190.672778
30
0.0
10
39.731414
20
189.833673
30
0.0
10
39.824190
20
189.663582
30
0.0
10
40.013819
20
189.614444
30
0.0
10
40.372813
20
189.922044
30
0.0
10
40.631181
20
190.805069
30
0.0
10
40.813149
20
191.483475
30
0.0
10
41.170036
20
192.156338
30
0.0
10
42.739028
20
193.980069
30
0.0
10
44.582003
20
196.133513
30
0.0
10
45.660556
20
198.064275
30
0.0
10
45.938792
20
199.012857
30
0.0
10
46.056661
20
199.985816
30
0.0
10
45.852292
20
202.111597
30
0.0
10
45.437266
20
203.472284
30
0.0
10
44.795668
20
204.719875
30
0.0
10
43.954553
20
205.832762
30
0.0
10
42.940974
20
206.789336
30
0.0
10
41.781988
20
207.567990
30
0.0
10
40.504648
20
208.147115
30
0.0
10
39.136008
20
208.505104
30
0.0
10
37.703125
20
208.620347
30
0.0
10
35.979963
20
208.465339
30
0.0
10
34.521440
20
208.015455
30
0.0
10
33.262492
20
207.241837
30
0.0
10
32.138056
20
206.115625
30
0.0
10
30.759604
20
204.509321
30
0.0
10
29.723772
20
203.512594
30
0.0
10
28.836748
20
202.968511
30
0.0
10
27.904722
20
202.720139
30
0.0
10
26.979333
20
202.666361
30
0.0
10
26.113078
20
202.775331
30
0.0
10
25.333781
20
203.027062
30
0.0
10
24.669265
20
203.401566
30
0.0
10
24.147354
20
203.878856
30
0.0
10
23.795872
20
204.438945
30
0.0
10
23.642641
20
205.061845
30
0.0
10
23.715486
20
205.727569
30
0.0
10
24.120260
20
206.529426
30
0.0
10
24.729722
20
207.191597
30
0.0
10
25.514251
20
207.606793
30
0.0
10
26.458333
20
207.288611
30
0.0
10
27.509486
20
206.912404
30
0.0
10
28.447647
20
206.852917
30
0.0
10
29.319398
20
207.114905
30
0.0
10
30.171319
20
207.703125
30
0.0
10
30.975239
20
208.620169
30
0.0
10
31.167917
20
209.661042
30
0.0
10
31.071278
20
210.364114
30
0.0
10
30.799179
20
211.029276
30
0.0
10
29.835513
20
212.173808
30
0.0
10
28.490740
20
212.950517
30
0.0
10
27.742258
20
213.155898
30
0.0
10
26.978681
20
213.215278
30
0.0
10
26.978681
20
213.215278
30
0.0
0
LWPOLYLINE
100
AcDbPolyline
8
Calque_1
90
165
70
0
10
183.021111
20
212.906597
30
0.0
10
182.122801
20
212.834955
30
0.0
10
181.234495
20
212.580165
30
0.0
10
180.401650
20
212.144633
30
0.0
10
179.669722
20
211.530764
30
0.0
10
179.006913
20
210.719388
30
0.0
10
178.668658
20
209.985115
30
0.0
10
178.632499
20
209.245351
30
0.0
10
178.875972
20
208.417500
30
0.0
10
179.624835
20
207.354229
30
0.0
10
180.714581
20
206.732832
30
0.0
10
182.000683
20
206.598787
30
0.0
10
183.338611
20
206.997569
30
0.0
10
184.141808
20
207.254580
30
0.0
10
184.857618
20
207.153459
30
0.0
10
185.479793
20
206.696581
30
0.0
10
186.002083
20
205.886319
30
0.0
10
186.310903
20
204.954610
30
0.0
10
186.072639
20
204.113611
30
0.0
10
185.484913
20
203.319030
30
0.0
10
184.620882
20
202.753548
30
0.0
10
183.547869
20
202.446969
30
0.0
10
182.333194
20
202.429097
30
0.0
10
181.195023
20
202.638289
30
0.0
10
180.286105
20
203.059414
30
0.0
10
179.437208
20
203.806995
30
0.0
10
178.479097
20
204.995556
30
0.0
10
177.440102
20
206.228482
30
0.0
10
176.352834
20
207.157246
30
0.0
10
175.166736
20
207.816554
30
0.0
10
173.831250
20
208.241111
30
0.0
10
171.867591
20
208.425629
30
0.0
10
169.980295
20
208.132298
30
0.0
10
168.234054
20
207.417768
30
0.0
10
166.693561
20
206.338687
30
0.0
10
165.423508
20
204.951706
30
0.0
10
164.488588
20
203.313475
30
0.0
10
163.953494
20
201.480644
30
0.0
10
163.882917
20
199.509861
30
0.0
10
164.168125
20
197.966067
30
0.0
10
164.761168
20
196.544840
30
0.0
10
165.713245
20
195.153121
30
0.0
10
167.075556
20
193.697847
30
0.0
10
168.557909
20
192.072023
30
0.0
10
168.939648
20
191.395284
30
0.0
10
169.183403
20
190.663958
30
0.0
10
169.474621
20
189.771073
30
0.0
10
169.744819
20
189.375019
30
0.0
10
169.943771
20
189.504373
30
0.0
10
170.021250
20
190.187708
30
0.0
10
169.880138
20
191.138363
30
0.0
10
169.434756
20
192.122905
30
0.0
10
168.652030
20
193.195978
30
0.0
10
167.498889
20
194.412222
30
0.0
10
166.187584
20
195.848944
30
0.0
10
165.307779
20
197.235715
30
0.0
10
164.813564
20
198.665948
30
0.0
10
164.659028
20
200.233056
30
0.0
10
164.741306
20
201.324212
30
0.0
10
164.978392
20
202.354296
30
0.0
10
165.858485
20
204.201475
30
0.0
10
167.182308
20
205.715054
30
0.0
10
168.832863
20
206.835490
30
0.0
10
170.693152
20
207.503243
30
0.0
10
172.646175
20
207.658773
30
0.0
10
173.620900
20
207.525848
30
0.0
10
174.574934
20
207.242539
30
0.0
10
175.493652
20
206.801404
30
0.0
10
176.362431
20
206.195000
30
0.0
10
177.376059
20
205.135247
30
0.0
10
178.079658
20
203.925766
30
0.0
10
178.476037
20
202.629024
30
0.0
10
178.568003
20
201.307489
30
0.0
10
178.358366
20
200.023630
30
0.0
10
177.849934
20
198.839913
30
0.0
10
177.045514
20
197.818806
30
0.0
10
175.947917
20
197.022778
30
0.0
10
175.097161
20
196.667462
30
0.0
10
174.239480
20
196.494000
30
0.0
10
173.393882
20
196.496398
30
0.0
10
172.579375
20
196.668666
30
0.0
10
171.814969
20
197.004812
30
0.0
10
171.119670
20
197.498844
30
0.0
10
170.512488
20
198.144769
30
0.0
10
170.012431
20
198.936597
30
0.0
10
169.614544
20
199.879705
30
0.0
10
169.459696
20
200.547342
30
0.0
10
169.561371
20
200.724902
30
0.0
10
169.933056
20
200.197778
30
0.0
10
170.991233
20
198.540736
30
0.0
10
172.094908
20
197.422504
30
0.0
10
173.244341
20
196.843037
30
0.0
10
174.439792
20
196.802292
30
0.0
10
175.231330
20
197.142465
30
0.0
10
175.891385
20
197.784133
30
0.0
10
176.343787
20
198.627207
30
0.0
10
176.512361
20
199.571597
30
0.0
10
176.321410
20
200.317559
30
0.0
10
175.832418
20
201.020756
30
0.0
10
175.174075
20
201.543973
30
0.0
10
174.475069
20
201.750000
30
0.0
10
173.461869
20
201.864067
30
0.0
10
172.432113
20
202.185547
30
0.0
10
171.444876
20
202.690538
30
0.0
10
170.559236
20
203.355139
30
0.0
10
169.342153
20
204.254722
30
0.0
10
168.733424
20
202.331257
30
0.0
10
168.327917
20
200.012569
30
0.0
10
168.486010
20
199.019324
30
0.0
10
168.957802
20
198.115287
30
0.0
10
169.743036
20
197.299995
30
0.0
10
170.841458
20
196.572986
30
0.0
10
172.357684
20
195.969122
30
0.0
10
173.860196
20
195.772757
30
0.0
10
175.290910
20
195.951453
30
0.0
10
176.591742
20
196.472770
30
0.0
10
177.704610
20
197.304271
30
0.0
10
178.571428
20
198.413517
30
0.0
10
179.134114
20
199.768068
30
0.0
10
179.334583
20
201.335486
30
0.0
10
179.334583
20
202.817153
30
0.0
10
180.375278
20
202.279167
30
0.0
10
181.260590
20
201.929235
30
0.0
10
182.176793
20
201.750490
30
0.0
10
183.092527
20
201.735046
30
0.0
10
183.976431
20
201.875019
30
0.0
10
184.797143
20
202.162525
30
0.0
10
185.523304
20
202.589678
30
0.0
10
186.123552
20
203.148594
30
0.0
10
186.566528
20
203.831389
30
0.0
10
186.846361
20
204.704237
30
0.0
10
186.821850
20
205.533819
30
0.0
10
186.486675
20
206.341214
30
0.0
10
185.834514
20
207.147500
30
0.0
10
185.193362
20
207.680487
30
0.0
10
184.569252
20
207.912652
30
0.0
10
183.845759
20
207.859255
30
0.0
10
182.906458
20
207.535556
30
0.0
10
182.043623
20
207.221827
30
0.0
10
181.413347
20
207.156458
30
0.0
10
180.852735
20
207.357807
30
0.0
10
180.198889
20
207.844236
30
0.0
10
179.719415
20
208.360119
30
0.0
10
179.439129
20
208.916518
30
0.0
10
179.351502
20
209.493813
30
0.0
10
179.450004
20
210.072383
30
0.0
10
179.728106
20
210.632609
30
0.0
10
180.179279
20
211.154869
30
0.0
10
180.796994
20
211.619544
30
0.0
10
181.574722
20
212.007014
30
0.0
10
182.491411
20
212.290780
30
0.0
10
183.101728
20
212.255630
30
0.0
10
183.460069
20
211.877891
30
0.0
10
183.620833
20
211.133889
30
0.0
10
183.803147
20
210.360139
30
0.0
10
184.161369
20
209.853465
30
0.0
10
184.641789
20
209.658479
30
0.0
10
185.190694
20
209.819792
30
0.0
10
185.588930
20
210.237653
30
0.0
10
185.759228
20
210.789557
30
0.0
10
185.693765
20
211.381336
30
0.0
10
185.384722
20
211.918819
30
0.0
10
184.330929
20
212.644851
30
0.0
10
183.021111
20
212.906597
30
0.0
10
183.021111
20
212.906597
30
0.0
0
LWPOLYLINE
100
AcDbPolyline
8
Calque_1
90
33
70
0
10
93.627222
20
206.785903
30
0.0
10
94.290330
20
206.656300
30
0.0
10
94.888403
20
206.186181
30
0.0
10
95.865794
20
204.613767
30
0.0
10
96.221481
20
203.724061
30
0.0
10
96.361250
20
203.037639
30
0.0
10
95.981929
20
202.578701
30
0.0
10
95.073611
20
202.058681
30
0.0
10
92.939306
20
200.876875
30
0.0
10
92.083819
20
200.268333
30
0.0
10
92.242569
20
201.361944
30
0.0
10
92.392500
20
202.455556
30
0.0
10
91.995625
20
201.326667
30
0.0
10
91.581111
20
199.747986
30
0.0
10
91.402180
20
199.308934
30
0.0
10
91.014335
20
198.816373
30
0.0
10
90.590173
20
198.452275
30
0.0
10
90.302292
20
198.398611
30
0.0
10
90.443403
20
199.642153
30
0.0
10
90.672708
20
201.326667
30
0.0
10
90.626835
20
201.396634
30
0.0
10
90.520548
20
201.170171
30
0.0
10
90.187639
20
200.003750
30
0.0
10
89.517361
20
197.922361
30
0.0
10
89.391937
20
198.763368
30
0.0
10
89.367431
20
201.070903
30
0.0
10
89.415592
20
203.209878
30
0.0
10
89.654017
20
204.390562
30
0.0
10
90.333437
20
205.139524
30
0.0
10
91.704583
20
205.983333
30
0.0
10
92.802324
20
206.561485
30
0.0
10
93.627222
20
206.785903
30
0.0
10
93.627222
20
206.785903
30
0.0
0
LWPOLYLINE
100
AcDbPolyline
8
Calque_1
90
30
70
0
10
116.072708
20
206.503681
30
0.0
10
116.619514
20
206.450764
30
0.0
10
117.758112
20
206.047124
30
0.0
10
119.097778
20
205.304236
30
0.0
10
120.579444
20
204.316458
30
0.0
10
120.597083
20
200.912153
30
0.0
10
120.508889
20
197.516667
30
0.0
10
120.103194
20
198.857222
30
0.0
10
119.521111
20
200.903333
30
0.0
10
119.274655
20
201.398749
30
0.0
10
119.344722
20
200.762222
30
0.0
10
119.653403
20
198.786667
30
0.0
10
119.820972
20
197.657778
30
0.0
10
119.256528
20
198.301597
30
0.0
10
118.725283
20
199.210237
30
0.0
10
118.242292
20
200.488819
30
0.0
10
117.699881
20
201.972828
30
0.0
10
117.634181
20
201.792637
30
0.0
10
117.730764
20
200.973889
30
0.0
10
117.800245
20
200.125682
30
0.0
10
117.360347
20
200.338889
30
0.0
10
116.681250
20
200.903333
30
0.0
10
115.129028
20
201.723542
30
0.0
10
113.620903
20
202.482014
30
0.0
10
113.636258
20
202.930373
30
0.0
10
113.938226
20
203.806977
30
0.0
10
114.917361
20
205.657014
30
0.0
10
115.501582
20
206.316458
30
0.0
10
116.072708
20
206.503681
30
0.0
10
116.072708
20
206.503681
30
0.0
0
LWPOLYLINE
100
AcDbPolyline
8
Calque_1
90
47
70
0
10
85.910208
20
205.974514
30
0.0
10
86.765694
20
205.930417
30
0.0
10
87.775470
20
205.642405
30
0.0
10
88.125881
20
205.332584
30
0.0
10
88.388379
20
204.875603
30
0.0
10
88.694860
20
203.410305
30
0.0
10
88.785347
20
201.026806
30
0.0
10
88.612625
20
197.899677
30
0.0
10
88.517619
20
197.681957
30
0.0
10
88.406045
20
197.707303
30
0.0
10
88.141528
20
198.522083
30
0.0
10
87.956319
20
199.351111
30
0.0
10
87.929861
20
198.451528
30
0.0
10
87.823901
20
197.766366
30
0.0
10
87.621181
20
197.384375
30
0.0
10
87.400909
20
197.497685
30
0.0
10
87.189585
20
198.164119
30
0.0
10
86.739236
20
201.414861
30
0.0
10
86.623711
20
202.423865
30
0.0
10
86.570809
20
202.603101
30
0.0
10
86.624583
20
200.197778
30
0.0
10
86.647275
20
198.169405
30
0.0
10
86.538683
20
197.344941
30
0.0
10
86.296653
20
197.721999
30
0.0
10
85.919028
20
199.298194
30
0.0
10
85.478056
20
200.832778
30
0.0
10
85.622602
20
199.202438
30
0.0
10
86.068958
20
197.163889
30
0.0
10
86.111157
20
196.793618
30
0.0
10
85.857292
20
196.670000
30
0.0
10
85.482546
20
196.897983
30
0.0
10
85.142917
20
197.446111
30
0.0
10
84.904406
20
197.905736
30
0.0
10
84.984167
20
197.022778
30
0.0
10
85.018214
20
196.158049
30
0.0
10
84.860694
20
195.823333
30
0.0
10
84.421237
20
196.342039
30
0.0
10
83.898052
20
197.621062
30
0.0
10
83.432855
20
199.244762
30
0.0
10
83.167361
20
200.797500
30
0.0
10
83.179713
20
202.500169
30
0.0
10
83.740625
20
204.104792
30
0.0
10
84.192502
20
204.970615
30
0.0
10
84.655645
20
205.541139
30
0.0
10
85.203675
20
205.860919
30
0.0
10
85.910208
20
205.974514
30
0.0
10
85.910208
20
205.974514
30
0.0
0
LWPOLYLINE
100
AcDbPolyline
8
Calque_1
90
47
70
0
10
123.066528
20
205.692292
30
0.0
10
123.375208
20
205.692292
30
0.0
10
124.521053
20
205.629639
30
0.0
10
125.267139
20
205.374505
30
0.0
10
125.790453
20
204.810833
30
0.0
10
126.267986
20
203.822569
30
0.0
10
126.698329
20
202.260308
30
0.0
10
126.792999
20
200.536980
30
0.0
10
126.556812
20
198.756499
30
0.0
10
125.994583
20
197.022778
30
0.0
10
125.476844
20
195.987759
30
0.0
10
125.112382
20
195.589140
30
0.0
10
124.935462
20
195.836784
30
0.0
10
124.980347
20
196.740556
30
0.0
10
125.064012
20
197.608022
30
0.0
10
124.839236
20
197.163889
30
0.0
10
124.519016
20
196.568194
30
0.0
10
124.242607
20
196.402671
30
0.0
10
124.083714
20
196.653035
30
0.0
10
124.116042
20
197.305000
30
0.0
10
124.424722
20
199.492222
30
0.0
10
124.470817
20
199.996995
30
0.0
10
124.440392
20
200.069524
30
0.0
10
124.116042
20
198.857222
30
0.0
10
123.731969
20
197.511816
30
0.0
10
123.454583
20
196.952222
30
0.0
10
123.339455
20
197.801976
30
0.0
10
123.339931
20
199.845000
30
0.0
10
123.419306
20
202.737778
30
0.0
10
123.163542
20
200.374167
30
0.0
10
122.766667
20
197.622500
30
0.0
10
122.538395
20
197.275617
30
0.0
10
122.298096
20
197.273440
30
0.0
10
122.100260
20
197.578085
30
0.0
10
121.999375
20
198.151667
30
0.0
10
121.946458
20
199.068889
30
0.0
10
121.840625
20
198.151667
30
0.0
10
121.682051
20
197.503878
30
0.0
10
121.461389
20
197.234444
30
0.0
10
121.272872
20
198.189825
30
0.0
10
121.196806
20
200.550556
30
0.0
10
121.297377
20
203.428939
30
0.0
10
121.465967
20
204.189641
30
0.0
10
121.752431
20
204.783889
30
0.0
10
122.318526
20
205.479076
30
0.0
10
123.066528
20
205.692292
30
0.0
10
123.066528
20
205.692292
30
0.0
0
LWPOLYLINE
100
AcDbPolyline
8
Calque_1
90
18
70
0
10
83.035069
20
203.981319
30
0.0
10
82.911597
20
203.443333
30
0.0
10
82.679008
20
202.129375
30
0.0
10
82.714980
20
200.504254
30
0.0
10
82.999192
20
198.774402
30
0.0
10
83.511319
20
197.146250
30
0.0
10
84.031169
20
195.637388
30
0.0
10
84.022847
20
194.941389
30
0.0
10
83.842836
20
194.996273
30
0.0
10
83.580721
20
195.432861
30
0.0
10
82.823403
20
197.428472
30
0.0
10
82.232631
20
199.589498
30
0.0
10
82.007047
20
201.379653
30
0.0
10
82.147749
20
202.753055
30
0.0
10
82.655833
20
203.663819
30
0.0
10
83.008611
20
203.972500
30
0.0
10
83.035069
20
203.981319
30
0.0
10
83.035069
20
203.981319
30
0.0
0
LWPOLYLINE
100
AcDbPolyline
8
Calque_1
90
16
70
0
10
127.432153
20
203.117014
30
0.0
10
127.617361
20
202.967083
30
0.0
10
127.913266
20
202.074565
30
0.0
10
127.941882
20
200.707567
30
0.0
10
127.715634
20
199.052602
30
0.0
10
127.246944
20
197.296181
30
0.0
10
126.276806
20
194.712083
30
0.0
10
126.043072
20
194.414429
30
0.0
10
125.862292
20
194.712083
30
0.0
10
125.971923
20
195.514749
30
0.0
10
126.470833
20
196.828750
30
0.0
10
127.105262
20
198.649157
30
0.0
10
127.255764
20
200.973889
30
0.0
10
127.293421
20
202.613339
30
0.0
10
127.432153
20
203.117014
30
0.0
10
127.432153
20
203.117014
30
0.0
0
LWPOLYLINE
100
AcDbPolyline
8
Calque_1
90
42
70
0
10
98.671944
20
202.605486
30
0.0
10
99.492332
20
202.498611
30
0.0
10
100.179505
20
202.180507
30
0.0
10
100.732463
20
201.651559
30
0.0
10
101.150208
20
200.912153
30
0.0
10
101.338209
20
200.016349
30
0.0
10
100.815069
20
198.989514
30
0.0
10
100.122880
20
198.148907
30
0.0
10
99.439236
20
197.604861
30
0.0
10
96.297581
20
196.163786
30
0.0
10
94.385694
20
195.408819
30
0.0
10
95.655694
20
196.264306
30
0.0
10
96.649603
20
196.882995
30
0.0
10
96.871830
20
197.102860
30
0.0
10
95.161806
20
196.326042
30
0.0
10
93.212708
20
195.311806
30
0.0
10
92.836059
20
195.540094
30
0.0
10
92.736458
20
195.911528
30
0.0
10
95.258661
20
197.605217
30
0.0
10
97.252014
20
199.139444
30
0.0
10
97.444904
20
199.431444
30
0.0
10
97.190939
20
199.349331
30
0.0
10
94.720833
20
197.710694
30
0.0
10
93.003736
20
196.652775
30
0.0
10
92.579522
20
196.543577
30
0.0
10
92.321944
20
196.661181
30
0.0
10
92.125880
20
196.971867
30
0.0
10
92.313125
20
197.146250
30
0.0
10
93.442014
20
198.310417
30
0.0
10
94.226944
20
199.351111
30
0.0
10
92.983403
20
198.292778
30
0.0
10
92.002216
20
197.545330
30
0.0
10
91.387083
20
197.234444
30
0.0
10
90.976438
20
197.358808
30
0.0
10
90.909574
20
197.699656
30
0.0
10
91.143033
20
198.208621
30
0.0
10
91.633356
20
198.837340
30
0.0
10
93.210755
20
200.260573
30
0.0
10
95.294097
20
201.582431
30
0.0
10
97.135470
20
202.350192
30
0.0
10
98.671944
20
202.605486
30
0.0
10
98.671944
20
202.605486
30
0.0
0
LWPOLYLINE
100
AcDbPolyline
8
Calque_1
90
42
70
0
10
111.283750
20
202.402639
30
0.0
10
112.884274
20
202.097638
30
0.0
10
114.824719
20
201.251989
30
0.0
10
116.762978
20
200.029165
30
0.0
10
118.356944
20
198.592639
30
0.0
10
119.255371
20
197.444783
30
0.0
10
119.223738
20
197.227050
30
0.0
10
118.930208
20
197.093333
30
0.0
10
118.590667
20
197.063252
30
0.0
10
118.200516
20
197.197527
30
0.0
10
117.095764
20
198.054653
30
0.0
10
115.672681
20
199.175454
30
0.0
10
115.824973
20
198.872859
30
0.0
10
116.619514
20
198.001736
30
0.0
10
117.723786
20
196.610232
30
0.0
10
117.783483
20
196.235553
30
0.0
10
117.501458
20
196.105556
30
0.0
10
114.935000
20
197.675417
30
0.0
10
112.553750
20
199.130625
30
0.0
10
112.780667
20
198.803933
30
0.0
10
113.550059
20
198.153078
30
0.0
10
115.905139
20
196.511250
30
0.0
10
116.825773
20
195.846965
30
0.0
10
117.157500
20
195.417639
30
0.0
10
116.966888
20
195.168828
30
0.0
10
116.571844
20
195.169625
30
0.0
10
114.776250
20
196.017361
30
0.0
10
113.012361
20
196.828750
30
0.0
10
114.141250
20
196.105556
30
0.0
10
115.229886
20
195.426839
30
0.0
10
115.154227
20
195.352163
30
0.0
10
114.617500
20
195.514653
30
0.0
10
112.579746
20
196.383687
30
0.0
10
110.966533
20
197.272846
30
0.0
10
109.785829
20
198.168556
30
0.0
10
109.045599
20
199.057245
30
0.0
10
108.753810
20
199.925342
30
0.0
10
108.918428
20
200.759272
30
0.0
10
109.547419
20
201.545465
30
0.0
10
110.648750
20
202.270347
30
0.0
10
111.283750
20
202.402639
30
0.0
10
111.283750
20
202.402639
30
0.0
0
LWPOLYLINE
100
AcDbPolyline
8
Calque_1
90
19
70
0
10
80.274583
20
202.032222
30
0.0
10
80.735683
20
201.928780
30
0.0
10
81.083513
20
201.591747
30
0.0
10
81.344379
20
200.981062
30
0.0
10
81.544583
20
200.056667
30
0.0
10
82.426528
20
196.916944
30
0.0
10
83.096806
20
194.870833
30
0.0
10
82.897437
20
194.728587
30
0.0
10
82.418166
20
194.710002
30
0.0
10
81.332917
20
194.994306
30
0.0
10
80.705619
20
195.614552
30
0.0
10
80.072476
20
196.642087
30
0.0
10
79.549206
20
197.851148
30
0.0
10
79.251528
20
199.015972
30
0.0
10
79.218163
20
200.140473
30
0.0
10
79.406978
20
201.104730
30
0.0
10
79.773832
20
201.778670
30
0.0
10
80.274583
20
202.032222
30
0.0
10
80.274583
20
202.032222
30
0.0
0
LWPOLYLINE
100
AcDbPolyline
8
Calque_1
90
20
70
0
10
129.848681
20
201.697083
30
0.0
10
130.183378
20
201.589141
30
0.0
10
130.430316
20
201.256698
30
0.0
10
130.721806
20
199.845000
30
0.0
10
130.655532
20
198.513425
30
0.0
10
130.273321
20
197.117324
30
0.0
10
129.654536
20
195.865773
30
0.0
10
128.878542
20
194.967847
30
0.0
10
127.635986
20
194.439733
30
0.0
10
127.075611
20
194.379306
30
0.0
10
126.841250
20
194.518056
30
0.0
10
127.529167
20
196.467153
30
0.0
10
128.077160
20
198.193320
30
0.0
10
128.419931
20
199.765625
30
0.0
10
128.708709
20
200.998426
30
0.0
10
128.944288
20
201.322403
30
0.0
10
129.284236
20
201.538333
30
0.0
10
129.742847
20
201.688264
30
0.0
10
129.848681
20
201.697083
30
0.0
10
129.848681
20
201.697083
30
0.0
0
LWPOLYLINE
100
AcDbPolyline
8
Calque_1
90
13
70
0
10
78.634167
20
201.185556
30
0.0
10
78.748819
20
199.518681
30
0.0
10
78.911942
20
198.003460
30
0.0
10
79.383819
20
196.819931
30
0.0
10
79.992361
20
195.664583
30
0.0
10
79.745417
20
195.541111
30
0.0
10
79.419998
20
195.678028
30
0.0
10
79.080491
20
196.098780
30
0.0
10
78.325486
20
197.851806
30
0.0
10
77.953708
20
199.279708
30
0.0
10
78.175556
20
200.285972
30
0.0
10
78.634167
20
201.185556
30
0.0
10
78.634167
20
201.185556
30
0.0
0
LWPOLYLINE
100
AcDbPolyline
8
Calque_1
90
100
70
0
10
15.389931
20
201.132639
30
0.0
10
14.174082
20
201.006032
30
0.0
10
12.981401
20
200.646987
30
0.0
10
11.839843
20
200.061132
30
0.0
10
10.777361
20
199.254097
30
0.0
10
9.859838
20
198.281948
30
0.0
10
9.132746
20
197.207031
30
0.0
10
8.599974
20
196.050307
30
0.0
10
8.265411
20
194.832735
30
0.0
10
8.132944
20
193.575278
30
0.0
10
8.206463
20
192.298895
30
0.0
10
8.489857
20
191.024547
30
0.0
10
8.987014
20
189.773194
30
0.0
10
9.701192
20
188.546648
30
0.0
10
10.606378
20
187.361840
30
0.0
10
11.672453
20
186.242249
30
0.0
10
12.869301
20
185.211351
30
0.0
10
14.166806
20
184.292624
30
0.0
10
15.534849
20
183.509545
30
0.0
10
16.943314
20
182.885590
30
0.0
10
18.362083
20
182.444236
30
0.0
10
20.257133
20
182.101873
30
0.0
10
22.208643
20
181.994423
30
0.0
10
24.267290
20
182.133501
30
0.0
10
26.483750
20
182.530721
30
0.0
10
28.908700
20
183.197700
30
0.0
10
31.592816
20
184.146052
30
0.0
10
37.941250
20
186.933333
30
0.0
10
42.480338
20
189.013842
30
0.0
10
45.833016
20
190.260421
30
0.0
10
48.639707
20
190.866512
30
0.0
10
51.540833
20
191.025556
30
0.0
10
53.072838
20
191.111637
30
0.0
10
53.377067
20
191.241460
30
0.0
10
53.463472
20
191.448889
30
0.0
10
53.178064
20
191.722964
30
0.0
10
52.396104
20
191.855219
30
0.0
10
49.788130
20
191.743180
30
0.0
10
46.530744
20
191.210593
30
0.0
10
43.515139
20
190.355278
30
0.0
10
37.800139
20
187.727083
30
0.0
10
33.992501
20
185.945471
30
0.0
10
30.549311
20
184.568456
30
0.0
10
27.429434
20
183.590142
30
0.0
10
24.591734
20
183.004633
30
0.0
10
21.995076
20
182.806031
30
0.0
10
19.598325
20
182.988441
30
0.0
10
17.360344
20
183.545966
30
0.0
10
15.240000
20
184.472708
30
0.0
10
13.795612
20
185.440118
30
0.0
10
12.279211
20
186.775987
30
0.0
10
10.893830
20
188.280928
30
0.0
10
9.842500
20
189.755556
30
0.0
10
9.156425
20
191.289646
30
0.0
10
9.013472
20
193.283333
30
0.0
10
9.148819
20
195.190144
30
0.0
10
9.630833
20
196.528889
30
0.0
10
10.746186
20
198.152189
30
0.0
10
12.089119
20
199.347088
30
0.0
10
13.614019
20
200.083183
30
0.0
10
15.275278
20
200.330069
30
0.0
10
16.624706
20
200.167855
30
0.0
10
17.858592
20
199.725457
30
0.0
10
18.937844
20
199.050073
30
0.0
10
19.823368
20
198.188895
30
0.0
10
20.476071
20
197.189118
30
0.0
10
20.856860
20
196.097937
30
0.0
10
20.926640
20
194.962545
30
0.0
10
20.646319
20
193.830139
30
0.0
10
20.231806
20
192.860000
30
0.0
10
20.222986
20
193.944792
30
0.0
10
20.103840
20
194.761306
30
0.0
10
19.790453
20
195.457160
30
0.0
10
19.324835
20
196.011631
30
0.0
10
18.748998
20
196.403998
30
0.0
10
18.104953
20
196.613539
30
0.0
10
17.434711
20
196.619532
30
0.0
10
16.780283
20
196.401255
30
0.0
10
16.183681
20
195.937986
30
0.0
10
15.426448
20
195.259773
30
0.0
10
14.566621
20
194.745803
30
0.0
10
13.580462
20
194.384748
30
0.0
10
12.444236
20
194.165278
30
0.0
10
11.050764
20
193.988889
30
0.0
10
12.241389
20
192.489583
30
0.0
10
13.628407
20
190.994111
30
0.0
10
14.962035
20
190.148468
30
0.0
10
16.357475
20
189.906734
30
0.0
10
17.929931
20
190.222986
30
0.0
10
19.494806
20
191.031851
30
0.0
10
20.629667
20
192.177053
30
0.0
10
21.331478
20
193.557715
30
0.0
10
21.597206
20
195.072966
30
0.0
10
21.423818
20
196.621930
30
0.0
10
20.808278
20
198.103733
30
0.0
10
19.747554
20
199.417501
30
0.0
10
18.238611
20
200.462361
30
0.0
10
16.841382
20
200.971117
30
0.0
10
15.389931
20
201.132639
30
0.0
10
15.389931
20
201.132639
30
0.0
0
LWPOLYLINE
100
AcDbPolyline
8
Calque_1
90
108
70
0
10
194.257083
20
200.868056
30
0.0
10
193.034148
20
200.705537
30
0.0
10
191.867782
20
200.300580
30
0.0
10
190.784816
20
199.659013
30
0.0
10
189.812083
20
198.786667
30
0.0
10
189.163039
20
197.974481
30
0.0
10
188.675838
20
197.128139
30
0.0
10
188.351411
20
196.258218
30
0.0
10
188.190691
20
195.375296
30
0.0
10
188.194612
20
194.489949
30
0.0
10
188.364106
20
193.612756
30
0.0
10
188.700105
20
192.754293
30
0.0
10
189.203542
20
191.925139
30
0.0
10
189.790326
20
191.260283
30
0.0
10
190.497021
20
190.696188
30
0.0
10
192.135358
20
189.911974
30
0.0
10
193.848984
20
189.655888
30
0.0
10
194.649791
20
189.751952
30
0.0
10
195.368333
20
190.011319
30
0.0
10
196.223486
20
190.683393
30
0.0
10
197.268628
20
191.769281
30
0.0
10
198.152962
20
192.871361
30
0.0
10
198.525694
20
193.592014
30
0.0
10
198.229606
20
193.772877
30
0.0
10
197.520278
20
193.847778
30
0.0
10
196.623139
20
193.958103
30
0.0
10
195.701523
20
194.282354
30
0.0
10
194.776472
20
194.810446
30
0.0
10
193.869028
20
195.532292
30
0.0
10
193.133219
20
196.139465
30
0.0
10
192.534718
20
196.437134
30
0.0
10
191.950732
20
196.458771
30
0.0
10
191.258472
20
196.237847
30
0.0
10
190.501941
20
195.734240
30
0.0
10
189.938274
20
194.992280
30
0.0
10
189.622397
20
194.112427
30
0.0
10
189.609236
20
193.195139
30
0.0
10
189.767986
20
192.295556
30
0.0
10
189.362292
20
193.142222
30
0.0
10
189.076021
20
193.915080
30
0.0
10
188.949936
20
194.685688
30
0.0
10
189.128800
20
196.179241
30
0.0
10
189.799828
20
197.541050
30
0.0
10
190.863964
20
198.689284
30
0.0
10
192.222153
20
199.542113
30
0.0
10
193.775340
20
200.017706
30
0.0
10
195.424470
20
200.034232
30
0.0
10
197.070486
20
199.509861
30
0.0
10
197.973084
20
198.941741
30
0.0
10
198.788762
20
198.217091
30
0.0
10
199.501492
20
197.365720
30
0.0
10
200.095242
20
196.417441
30
0.0
10
200.553984
20
195.402064
30
0.0
10
200.861687
20
194.349401
30
0.0
10
201.002323
20
193.289262
30
0.0
10
200.959861
20
192.251458
30
0.0
10
200.443308
20
190.443833
30
0.0
10
199.414401
20
188.614243
30
0.0
10
197.925706
20
186.837167
30
0.0
10
196.029792
20
185.187083
30
0.0
10
194.350258
20
184.081909
30
0.0
10
192.661967
20
183.323799
30
0.0
10
190.803300
20
182.857922
30
0.0
10
188.612639
20
182.629444
30
0.0
10
185.251537
20
182.705783
30
0.0
10
183.562804
20
182.974306
30
0.0
10
181.767266
20
183.426229
30
0.0
10
177.551723
20
184.969776
30
0.0
10
171.996806
20
187.515417
30
0.0
10
167.991843
20
189.358033
30
0.0
10
164.861519
20
190.534523
30
0.0
10
162.106199
20
191.200262
30
0.0
10
159.226250
20
191.510625
30
0.0
10
156.975447
20
191.565203
30
0.0
10
156.576418
20
191.458672
30
0.0
10
156.474583
20
191.246042
30
0.0
10
156.605071
20
191.028531
30
0.0
10
157.075375
20
190.873824
30
0.0
10
159.508472
20
190.663958
30
0.0
10
162.179367
20
190.408029
30
0.0
10
164.700772
20
189.799425
30
0.0
10
167.748111
20
188.619875
30
0.0
10
171.996806
20
186.651111
30
0.0
10
175.774145
20
184.896643
30
0.0
10
178.828239
20
183.625104
30
0.0
10
181.429950
20
182.733269
30
0.0
10
183.850139
20
182.117917
30
0.0
10
186.027945
20
181.843849
30
0.0
10
188.458164
20
181.830735
30
0.0
10
190.802461
20
182.062636
30
0.0
10
192.722500
20
182.523611
30
0.0
10
195.201516
20
183.696386
30
0.0
10
197.465831
20
185.320049
30
0.0
10
199.375929
20
187.276308
30
0.0
10
200.792292
20
189.446875
30
0.0
10
201.469462
20
191.177511
30
0.0
10
201.621319
20
193.115764
30
0.0
10
201.544292
20
194.299517
30
0.0
10
201.323893
20
195.415187
30
0.0
10
200.964855
20
196.454961
30
0.0
10
200.471909
20
197.411024
30
0.0
10
199.849788
20
198.275562
30
0.0
10
199.103224
20
199.040759
30
0.0
10
198.236949
20
199.698801
30
0.0
10
197.255694
20
200.241875
30
0.0
10
195.761415
20
200.737981
30
0.0
10
194.257083
20
200.868056
30
0.0
10
194.257083
20
200.868056
30
0.0
0
LWPOLYLINE
100
AcDbPolyline
8
Calque_1
90
33
70
0
10
75.132847
20
200.585833
30
0.0
10
75.175327
20
200.325062
30
0.0
10
74.762431
20
199.589236
30
0.0
10
74.368312
20
198.771388
30
0.0
10
74.136466
20
197.772808
30
0.0
10
74.126403
20
195.510416
30
0.0
10
74.331592
20
194.385082
30
0.0
10
74.665864
20
193.355976
30
0.0
10
75.120923
20
192.492336
30
0.0
10
75.688472
20
191.863403
30
0.0
10
76.433315
20
191.426495
30
0.0
10
77.548136
20
191.002909
30
0.0
10
80.980139
20
190.161250
30
0.0
10
82.201217
20
189.845805
30
0.0
10
82.301995
20
189.721432
30
0.0
10
82.109028
20
189.596806
30
0.0
10
81.159622
20
189.413691
30
0.0
10
79.831495
20
189.385234
30
0.0
10
78.414027
20
189.502251
30
0.0
10
77.196597
20
189.755556
30
0.0
10
76.183060
20
190.191793
30
0.0
10
75.290301
20
190.822725
30
0.0
10
74.525866
20
191.634049
30
0.0
10
73.897303
20
192.611461
30
0.0
10
73.412159
20
193.740656
30
0.0
10
73.077980
20
195.007331
30
0.0
10
72.902314
20
196.397181
30
0.0
10
72.892708
20
197.895903
30
0.0
10
73.179744
20
198.741464
30
0.0
10
73.898125
20
199.659792
30
0.0
10
74.689148
20
200.364555
30
0.0
10
75.132847
20
200.585833
30
0.0
10
75.132847
20
200.585833
30
0.0
0
LWPOLYLINE
100
AcDbPolyline
8
Calque_1
90
16
70
0
10
131.400903
20
200.568194
30
0.0
10
131.601023
20
200.414508
30
0.0
10
131.885972
20
199.880278
30
0.0
10
132.066023
20
199.000855
30
0.0
10
131.753681
20
197.693056
30
0.0
10
131.295774
20
196.526710
30
0.0
10
130.854097
20
195.752778
30
0.0
10
130.394570
20
195.316691
30
0.0
10
130.185837
20
195.313507
30
0.0
10
130.242884
20
195.706348
30
0.0
10
130.580694
20
196.458333
30
0.0
10
131.055677
20
197.728601
30
0.0
10
131.215694
20
199.139444
30
0.0
10
131.257220
20
200.189363
30
0.0
10
131.400903
20
200.568194
30
0.0
10
131.400903
20
200.568194
30
0.0
0
LWPOLYLINE
100
AcDbPolyline
8
Calque_1
90
29
70
0
10
134.646458
20
200.312431
30
0.0
10
135.784167
20
199.783264
30
0.0
10
136.561399
20
198.995550
30
0.0
10
137.011156
20
197.861887
30
0.0
10
137.153855
20
196.492808
30
0.0
10
137.009918
20
194.998847
30
0.0
10
136.599763
20
193.490538
30
0.0
10
135.943808
20
192.078415
30
0.0
10
135.062475
20
190.873012
30
0.0
10
133.976181
20
189.984861
30
0.0
10
132.560696
20
189.401530
30
0.0
10
130.580694
20
189.164653
30
0.0
10
128.528403
20
189.137770
30
0.0
10
127.765237
20
189.316933
30
0.0
10
128.303966
20
189.673515
30
0.0
10
130.157361
20
190.178889
30
0.0
10
132.440605
20
190.786639
30
0.0
10
133.879167
20
191.334236
30
0.0
10
134.634128
20
192.001879
30
0.0
10
135.232753
20
192.941225
30
0.0
10
135.664571
20
194.070503
30
0.0
10
135.919114
20
195.307943
30
0.0
10
135.985912
20
196.571772
30
0.0
10
135.854495
20
197.780221
30
0.0
10
135.514393
20
198.851517
30
0.0
10
134.955139
20
199.703889
30
0.0
10
134.607700
20
200.149002
30
0.0
10
134.646458
20
200.312431
30
0.0
10
134.646458
20
200.312431
30
0.0
0
LWPOLYLINE
100
AcDbPolyline
8
Calque_1
90
51
70
0
10
76.394028
20
200.144861
30
0.0
10
76.727872
20
200.038612
30
0.0
10
77.040128
20
199.655908
30
0.0
10
77.725764
20
197.957639
30
0.0
10
78.317039
20
196.533455
30
0.0
10
79.063453
20
195.554454
30
0.0
10
80.113365
20
194.884077
30
0.0
10
81.615139
20
194.385764
30
0.0
10
83.520139
20
193.891875
30
0.0
10
82.250139
20
193.838958
30
0.0
10
81.265626
20
193.763851
30
0.0
10
81.906181
20
193.565556
30
0.0
10
82.985354
20
193.171191
30
0.0
10
82.886662
20
193.047252
30
0.0
10
82.338333
20
193.001111
30
0.0
10
81.261855
20
193.235962
30
0.0
10
79.877708
20
193.803681
30
0.0
10
78.764609
20
194.301685
30
0.0
10
78.618766
20
194.291481
30
0.0
10
78.731181
20
194.112361
30
0.0
10
80.018819
20
193.265694
30
0.0
10
80.733194
20
192.807083
30
0.0
10
79.551389
20
193.124583
30
0.0
10
78.387222
20
193.468542
30
0.0
10
78.739529
20
193.197484
30
0.0
10
79.739845
20
192.736262
30
0.0
10
81.959097
20
191.969236
30
0.0
10
82.562173
20
191.772948
30
0.0
10
82.814583
20
191.537083
30
0.0
10
82.669503
20
191.387671
30
0.0
10
82.320694
20
191.404792
30
0.0
10
81.156528
20
191.739931
30
0.0
10
79.666042
20
191.986875
30
0.0
10
79.063456
20
191.947577
30
0.0
10
79.206222
20
191.729918
30
0.0
10
81.324097
20
190.999097
30
0.0
10
82.648623
20
190.606926
30
0.0
10
82.648376
20
190.528776
30
0.0
10
82.250139
20
190.505208
30
0.0
10
80.849900
20
190.695798
30
0.0
10
78.872292
20
191.157847
30
0.0
10
77.042932
20
191.778379
30
0.0
10
75.850591
20
192.540357
30
0.0
10
75.121790
20
193.607677
30
0.0
10
74.683056
20
195.144236
30
0.0
10
74.516759
20
196.618212
30
0.0
10
74.620808
20
197.884014
30
0.0
10
74.991901
20
198.922044
30
0.0
10
75.626736
20
199.712708
30
0.0
10
76.394028
20
200.144861
30
0.0
10
76.394028
20
200.144861
30
0.0
0
LWPOLYLINE
100
AcDbPolyline
8
Calque_1
90
52
70
0
10
133.544028
20
199.906736
30
0.0
10
133.988454
20
199.737039
30
0.0
10
134.549444
20
199.254097
30
0.0
10
135.035147
20
198.717074
30
0.0
10
135.303409
20
198.215550
30
0.0
10
135.440208
20
196.590625
30
0.0
10
135.303606
20
194.956459
30
0.0
10
134.928368
20
193.520474
30
0.0
10
134.359258
20
192.406891
30
0.0
10
133.641042
20
191.739931
30
0.0
10
130.580694
20
190.760972
30
0.0
10
128.036698
20
190.224208
30
0.0
10
127.357894
20
190.184268
30
0.0
10
127.123472
20
190.302361
30
0.0
10
128.640417
20
190.734514
30
0.0
10
130.623432
20
191.379869
30
0.0
10
130.907294
20
191.634782
30
0.0
10
130.457222
20
191.704653
30
0.0
10
127.617361
20
191.122569
30
0.0
10
127.268552
20
191.105446
30
0.0
10
127.123472
20
191.254861
30
0.0
10
127.428753
20
191.503882
30
0.0
10
128.164167
20
191.722292
30
0.0
10
130.428479
20
192.546625
30
0.0
10
131.478870
20
193.076599
30
0.0
10
131.921250
20
193.433264
30
0.0
10
130.801181
20
193.001111
30
0.0
10
129.773581
20
192.535514
30
0.0
10
129.347532
20
192.455137
30
0.0
10
129.564522
20
192.722712
30
0.0
10
130.466042
20
193.300972
30
0.0
10
131.542777
20
193.969015
30
0.0
10
131.817838
20
194.248916
30
0.0
10
130.104444
20
193.547917
30
0.0
10
128.694388
20
192.961508
30
0.0
10
127.626181
20
192.718889
30
0.0
10
127.034738
20
192.806505
30
0.0
10
126.995518
20
193.003243
30
0.0
10
127.414945
20
193.209940
30
0.0
10
128.199444
20
193.327431
30
0.0
10
128.828928
20
193.392870
30
0.0
10
127.829028
20
193.547917
30
0.0
10
126.417917
20
193.733125
30
0.0
10
127.829028
20
193.962431
30
0.0
10
129.589457
20
194.404152
30
0.0
10
130.834936
20
195.119753
30
0.0
10
131.710761
20
196.233447
30
0.0
10
132.362222
20
197.869444
30
0.0
10
132.948157
20
199.422407
30
0.0
10
133.232823
20
199.790537
30
0.0
10
133.544028
20
199.906736
30
0.0
10
133.544028
20
199.906736
30
0.0
0
LWPOLYLINE
100
AcDbPolyline
8
Calque_1
90
19
70
0
10
101.308958
20
198.477986
30
0.0
10
101.361875
20
198.477986
30
0.0
10
101.347608
20
198.221134
30
0.0
10
101.017917
20
197.525486
30
0.0
10
100.389370
20
196.868029
30
0.0
10
99.307536
20
196.122587
30
0.0
10
98.141621
20
195.511944
30
0.0
10
97.260833
20
195.258889
30
0.0
10
95.902639
20
194.509236
30
0.0
10
94.114075
20
193.580402
30
0.0
10
93.495599
20
193.443429
30
0.0
10
93.256806
20
193.592014
30
0.0
10
93.674189
20
194.074492
30
0.0
10
94.727017
20
194.780797
30
0.0
10
97.543056
20
196.149653
30
0.0
10
99.015995
20
196.850090
30
0.0
10
100.294722
20
197.710694
30
0.0
10
101.308958
20
198.477986
30
0.0
10
101.308958
20
198.477986
30
0.0
0
LWPOLYLINE
100
AcDbPolyline
8
Calque_1
90
17
70
0
10
108.664375
20
198.142847
30
0.0
10
109.440486
20
197.587222
30
0.0
10
110.765509
20
196.727309
30
0.0
10
112.615486
20
195.832153
30
0.0
10
114.516050
20
194.941021
30
0.0
10
115.958056
20
194.094722
30
0.0
10
117.069306
20
193.283333
30
0.0
10
116.187361
20
193.283333
30
0.0
10
115.505726
20
193.374556
30
0.0
10
115.111389
20
193.592014
30
0.0
10
112.342083
20
195.100139
30
0.0
10
110.748923
20
195.892862
30
0.0
10
109.693482
20
196.558258
30
0.0
10
109.045120
20
197.195740
30
0.0
10
108.673194
20
197.904722
30
0.0
10
108.664375
20
198.142847
30
0.0
10
108.664375
20
198.142847
30
0.0
0
LWPOLYLINE
100
AcDbPolyline
8
Calque_1
90
56
70
0
10
89.111667
20
196.943403
30
0.0
10
89.463674
20
196.826399
30
0.0
10
89.587917
20
196.493611
30
0.0
10
89.743489
20
196.178110
30
0.0
10
90.319931
20
196.229028
30
0.0
10
90.949025
20
196.266713
30
0.0
10
91.431181
20
196.096736
30
0.0
10
91.652452
20
195.760825
30
0.0
10
91.647911
20
195.393679
30
0.0
10
91.449016
20
195.098044
30
0.0
10
91.087222
20
194.976667
30
0.0
10
90.801632
20
194.793934
30
0.0
10
90.857917
20
194.130000
30
0.0
10
90.912122
20
193.467256
30
0.0
10
90.628611
20
193.283333
30
0.0
10
90.183805
20
193.426572
30
0.0
10
89.816985
20
193.753497
30
0.0
10
89.648721
20
194.109924
30
0.0
10
89.799583
20
194.341667
30
0.0
10
90.048733
20
194.503480
30
0.0
10
90.152361
20
194.729722
30
0.0
10
89.785758
20
194.919374
30
0.0
10
88.968965
20
194.913179
30
0.0
10
88.126509
20
194.753520
30
0.0
10
87.682917
20
194.482778
30
0.0
10
87.713098
20
194.268670
30
0.0
10
88.000417
20
194.297569
30
0.0
10
88.714792
20
194.288750
30
0.0
10
88.893141
20
194.018856
30
0.0
10
88.820362
20
193.685777
30
0.0
10
88.558096
20
193.402831
30
0.0
10
88.167986
20
193.283333
30
0.0
10
87.548879
20
193.216835
30
0.0
10
87.086023
20
192.997965
30
0.0
10
86.740816
20
192.597665
30
0.0
10
86.474653
20
191.986875
30
0.0
10
86.121791
20
191.214682
30
0.0
10
85.815091
20
191.016177
30
0.0
10
85.626505
20
191.369167
30
0.0
10
85.627986
20
192.251458
30
0.0
10
85.553733
20
192.619065
30
0.0
10
85.306200
20
192.654045
30
0.0
10
85.023327
20
192.410561
30
0.0
10
84.843056
20
191.942778
30
0.0
10
84.661193
20
191.426565
30
0.0
10
84.349167
20
191.016736
30
0.0
10
83.986523
20
190.896857
30
0.0
10
83.754930
20
191.141565
30
0.0
10
83.701394
20
191.630334
30
0.0
10
83.872917
20
192.242639
30
0.0
10
84.507917
20
193.777222
30
0.0
10
85.189131
20
194.746090
30
0.0
10
86.580486
20
195.823333
30
0.0
10
88.082908
20
196.665201
30
0.0
10
89.111667
20
196.943403
30
0.0
10
89.111667
20
196.943403
30
0.0
0
LWPOLYLINE
100
AcDbPolyline
8
Calque_1
90
53
70
0
10
121.170347
20
196.652361
30
0.0
10
121.892151
20
196.527519
30
0.0
10
122.607917
20
196.105556
30
0.0
10
123.586875
20
195.541111
30
0.0
10
124.124629
20
195.278887
30
0.0
10
124.775944
20
194.590493
30
0.0
10
125.425831
20
193.623345
30
0.0
10
125.959306
20
192.524861
30
0.0
10
126.356335
20
191.266363
30
0.0
10
126.311569
20
190.960336
30
0.0
10
126.118056
20
190.734514
30
0.0
10
125.890550
20
190.612245
30
0.0
10
125.684973
20
190.692643
30
0.0
10
125.165556
20
191.625278
30
0.0
10
124.618750
20
192.860000
30
0.0
10
124.601111
20
191.916319
30
0.0
10
124.483834
20
191.198017
30
0.0
10
124.098403
20
191.078472
30
0.0
10
123.711207
20
191.349257
30
0.0
10
123.454583
20
191.872222
30
0.0
10
123.091851
20
192.483774
30
0.0
10
122.308056
20
192.895278
30
0.0
10
121.612830
20
193.263487
30
0.0
10
121.218925
20
193.708025
30
0.0
10
121.224065
20
194.035026
30
0.0
10
121.725972
20
194.050625
30
0.0
10
122.167616
20
194.031556
30
0.0
10
122.325694
20
194.262292
30
0.0
10
121.975349
20
194.555133
30
0.0
10
121.185653
20
194.739379
30
0.0
10
120.348616
20
194.764456
30
0.0
10
119.856250
20
194.579792
30
0.0
10
119.832051
20
194.351877
30
0.0
10
120.015000
20
194.191736
30
0.0
10
120.276388
20
193.990610
30
0.0
10
120.331712
20
193.692264
30
0.0
10
120.193402
20
193.385685
30
0.0
10
119.873889
20
193.159861
30
0.0
10
119.426912
20
193.108492
30
0.0
10
119.108466
20
193.271582
30
0.0
10
118.996342
20
193.566224
30
0.0
10
119.168333
20
193.909514
30
0.0
10
119.320844
20
194.280117
30
0.0
10
118.903750
20
194.720903
30
0.0
10
118.463112
20
195.233747
30
0.0
10
118.444127
20
195.688697
30
0.0
10
118.796064
20
195.972841
30
0.0
10
119.468194
20
195.973264
30
0.0
10
120.133254
20
195.932946
30
0.0
10
120.447153
20
196.229028
30
0.0
10
120.717847
20
196.535994
30
0.0
10
121.170347
20
196.652361
30
0.0
10
121.170347
20
196.652361
30
0.0
0
LWPOLYLINE
100
AcDbPolyline
8
Calque_1
90
15
70
0
10
100.347639
20
195.770417
30
0.0
10
100.676514
20
195.672654
30
0.0
10
100.991458
20
195.382361
30
0.0
10
101.345923
20
194.945383
30
0.0
10
101.389953
20
194.644031
30
0.0
10
101.117878
20
194.469310
30
0.0
10
100.524028
20
194.412222
30
0.0
10
98.619028
20
194.156458
30
0.0
10
96.643155
20
193.728861
30
0.0
10
95.860844
20
193.735431
30
0.0
10
96.298875
20
194.144337
30
0.0
10
97.984028
20
194.923750
30
0.0
10
99.570136
20
195.565167
30
0.0
10
100.347639
20
195.770417
30
0.0
10
100.347639
20
195.770417
30
0.0
0
LWPOLYLINE
100
AcDbPolyline
8
Calque_1
90
11
70
0
10
109.775625
20
195.541111
30
0.0
10
112.263627
20
194.561653
30
0.0
10
114.423472
20
193.433264
30
0.0
10
114.109103
20
193.310660
30
0.0
10
113.435694
20
193.415625
30
0.0
10
109.343472
20
194.262292
30
0.0
10
108.523264
20
194.385764
30
0.0
10
108.563812
20
194.586620
30
0.0
10
108.932762
20
194.981512
30
0.0
10
109.775625
20
195.541111
30
0.0
10
109.775625
20
195.541111
30
0.0
0
LWPOLYLINE
100
AcDbPolyline
8
Calque_1
90
49
70
0
10
101.494167
20
193.988889
30
0.0
10
102.814832
20
193.783351
30
0.0
10
103.707847
20
193.203958
30
0.0
10
104.045312
20
192.711164
30
0.0
10
104.218496
20
192.155970
30
0.0
10
104.105062
20
190.957362
30
0.0
10
103.433629
20
189.806079
30
0.0
10
102.270278
20
188.900069
30
0.0
10
101.513199
20
188.652959
30
0.0
10
100.543942
20
188.501562
30
0.0
10
99.659537
20
188.474453
30
0.0
10
99.157014
20
188.600208
30
0.0
10
95.091250
20
189.323403
30
0.0
10
92.162172
20
189.831450
30
0.0
10
90.947330
20
190.183836
30
0.0
10
90.996006
20
190.291649
30
0.0
10
91.489152
20
190.348540
30
0.0
10
93.830069
20
190.293542
30
0.0
10
96.299795
20
190.242622
30
0.0
10
97.692986
20
190.364097
30
0.0
10
97.773298
20
190.474422
30
0.0
10
97.381363
20
190.560659
30
0.0
10
95.170625
20
190.663958
30
0.0
10
92.694898
20
190.796466
30
0.0
10
91.711288
20
191.016851
30
0.0
10
91.803652
20
191.132519
30
0.0
10
92.298597
20
191.237180
30
0.0
10
94.535625
20
191.369514
30
0.0
10
97.631250
20
191.422431
30
0.0
10
94.879583
20
191.519444
30
0.0
10
92.936215
20
191.642447
30
0.0
10
92.127917
20
191.810486
30
0.0
10
92.824096
20
191.966490
30
0.0
10
94.500347
20
192.057431
30
0.0
10
96.304628
20
192.158361
30
0.0
10
97.304931
20
192.339653
30
0.0
10
97.289293
20
192.428306
30
0.0
10
96.902795
20
192.483756
30
0.0
10
95.214722
20
192.480764
30
0.0
10
93.314477
20
192.482919
30
0.0
10
92.846831
20
192.561475
30
0.0
10
92.692361
20
192.692431
30
0.0
10
93.100819
20
192.915427
30
0.0
10
94.174028
20
193.001111
30
0.0
10
96.008031
20
193.171217
30
0.0
10
98.336806
20
193.574375
30
0.0
10
100.104356
20
193.890545
30
0.0
10
101.494167
20
193.988889
30
0.0
10
101.494167
20
193.988889
30
0.0
0
LWPOLYLINE
100
AcDbPolyline
8
Calque_1
90
47
70
0
10
108.558542
20
193.768403
30
0.0
10
109.718185
20
193.701649
30
0.0
10
111.063264
20
193.433264
30
0.0
10
115.058472
20
192.807083
30
0.0
10
116.754110
20
192.590765
30
0.0
10
117.226335
20
192.360558
30
0.0
10
116.526434
20
192.203683
30
0.0
10
114.705694
20
192.207361
30
0.0
10
113.015660
20
192.225621
30
0.0
10
112.582076
20
192.179356
30
0.0
10
112.518472
20
192.101528
30
0.0
10
113.612083
20
191.872222
30
0.0
10
115.305417
20
191.660556
30
0.0
10
115.760342
20
191.541666
30
0.0
10
115.803305
20
191.454527
30
0.0
10
114.423472
20
191.281319
30
0.0
10
113.569035
20
191.194936
30
0.0
10
113.447516
20
191.139631
30
0.0
10
115.693472
20
191.069653
30
0.0
10
117.917069
20
190.947051
30
0.0
10
118.368521
20
190.850229
30
0.0
10
118.402521
20
190.744144
30
0.0
10
117.286505
20
190.547446
30
0.0
10
114.705694
20
190.443472
30
0.0
10
112.311350
20
190.361080
30
0.0
10
112.048129
20
190.270223
30
0.0
10
112.306806
20
190.134792
30
0.0
10
113.814069
20
189.984478
30
0.0
10
116.257917
20
190.011319
30
0.0
10
118.721960
20
190.078089
30
0.0
10
118.857017
20
189.980613
30
0.0
10
118.462778
20
189.773194
30
0.0
10
117.062346
20
189.400900
30
0.0
10
114.943819
20
189.058819
30
0.0
10
111.177917
20
188.476736
30
0.0
10
109.343472
20
188.220972
30
0.0
10
108.614541
20
188.307580
30
0.0
10
107.918536
20
188.542595
30
0.0
10
106.723371
20
189.361008
30
0.0
10
105.954107
20
190.482527
30
0.0
10
105.790479
20
191.096427
30
0.0
10
105.806875
20
191.713472
30
0.0
10
106.120966
20
192.581134
30
0.0
10
106.689034
20
193.214156
30
0.0
10
107.503939
20
193.610570
30
0.0
10
108.558542
20
193.768403
30
0.0
10
108.558542
20
193.768403
30
0.0
0
LWPOLYLINE
100
AcDbPolyline
8
Calque_1
90
10
70
0
10
88.176806
20
192.718889
30
0.0
10
88.576620
20
192.595416
30
0.0
10
88.741250
20
192.295556
30
0.0
10
88.576620
20
191.995695
30
0.0
10
88.176806
20
191.872222
30
0.0
10
87.776991
20
191.995695
30
0.0
10
87.612361
20
192.295556
30
0.0
10
87.776991
20
192.595416
30
0.0
10
88.176806
20
192.718889
30
0.0
10
88.176806
20
192.718889
30
0.0
0
LWPOLYLINE
100
AcDbPolyline
8
Calque_1
90
11
70
0
10
121.761250
20
192.436667
30
0.0
10
122.161065
20
192.313194
30
0.0
10
122.325694
20
192.013333
30
0.0
10
122.226581
20
191.746528
30
0.0
10
121.982752
20
191.604252
30
0.0
10
121.674474
20
191.606985
30
0.0
10
121.382014
20
191.775208
30
0.0
10
121.211256
20
192.029507
30
0.0
10
121.226612
20
192.240112
30
0.0
10
121.761250
20
192.436667
30
0.0
10
121.761250
20
192.436667
30
0.0
0
LWPOLYLINE
100
AcDbPolyline
8
Calque_1
90
15
70
0
10
19.393958
20
192.083889
30
0.0
10
19.499792
20
192.057431
30
0.0
10
19.349276
20
191.824055
30
0.0
10
18.785417
20
191.466528
30
0.0
10
17.814800
20
191.159530
30
0.0
10
16.622346
20
191.046168
30
0.0
10
15.450889
20
191.129757
30
0.0
10
14.543264
20
191.413611
30
0.0
10
14.255958
20
191.606423
30
0.0
10
14.342170
20
191.700819
30
0.0
10
15.980833
20
191.651736
30
0.0
10
17.707376
20
191.643362
30
0.0
10
18.723681
20
191.863403
30
0.0
10
19.393958
20
192.083889
30
0.0
10
19.393958
20
192.083889
30
0.0
0
LWPOLYLINE
100
AcDbPolyline
8
Calque_1
90
14
70
0
10
190.217778
20
192.013333
30
0.0
10
191.082083
20
191.695833
30
0.0
10
192.336560
20
191.380311
30
0.0
10
193.966042
20
191.387153
30
0.0
10
195.268119
20
191.423352
30
0.0
10
195.487769
20
191.351865
30
0.0
10
195.447708
20
191.219583
30
0.0
10
194.744759
20
190.975232
30
0.0
10
193.520938
20
190.841326
30
0.0
10
192.228627
20
190.841427
30
0.0
10
191.320208
20
190.999097
30
0.0
10
190.367708
20
191.695833
30
0.0
10
190.217778
20
192.013333
30
0.0
10
190.217778
20
192.013333
30
0.0
0
LWPOLYLINE
100
AcDbPolyline
8
Calque_1
90
9
70
0
10
117.228056
20
191.872222
30
0.0
10
117.810139
20
191.757569
30
0.0
10
117.675598
20
191.585552
30
0.0
10
117.368314
20
191.486421
30
0.0
10
117.032793
20
191.483177
30
0.0
10
116.813542
20
191.598819
30
0.0
10
116.866542
20
191.791187
30
0.0
10
117.228056
20
191.872222
30
0.0
10
117.228056
20
191.872222
30
0.0
0
LWPOLYLINE
100
AcDbPolyline
8
Calque_1
90
19
70
0
10
74.824167
20
190.002500
30
0.0
10
76.208819
20
189.570347
30
0.0
10
77.716037
20
189.104449
30
0.0
10
79.489653
20
188.935347
30
0.0
10
80.934376
20
188.802408
30
0.0
10
81.266605
20
188.672043
30
0.0
10
81.342721
20
188.512667
30
0.0
10
80.738543
20
188.147634
30
0.0
10
79.145694
20
187.788819
30
0.0
10
77.973831
20
187.487908
30
0.0
10
76.940833
20
187.047986
30
0.0
10
75.926597
20
186.510000
30
0.0
10
74.674236
20
187.356667
30
0.0
10
73.848947
20
188.051086
30
0.0
10
73.530691
20
188.630288
30
0.0
10
73.709242
20
189.190040
30
0.0
10
74.374375
20
189.826111
30
0.0
10
74.824167
20
190.002500
30
0.0
10
74.824167
20
190.002500
30
0.0
0
LWPOLYLINE
100
AcDbPolyline
8
Calque_1
90
67
70
0
10
90.346389
20
189.896667
30
0.0
10
91.034306
20
189.429236
30
0.0
10
91.971443
20
188.776750
30
0.0
10
93.680139
20
187.868194
30
0.0
10
95.834443
20
186.682410
30
0.0
10
97.087755
20
185.609405
30
0.0
10
97.392309
20
185.095267
30
0.0
10
97.490540
20
184.585412
30
0.0
10
97.388756
20
184.071869
30
0.0
10
97.093264
20
183.546667
30
0.0
10
96.841771
20
183.266584
30
0.0
10
96.534808
20
183.147380
30
0.0
10
95.241181
20
183.343819
30
0.0
10
93.680241
20
183.615247
30
0.0
10
92.295720
20
183.650027
30
0.0
10
90.999276
20
183.441303
30
0.0
10
89.702569
20
182.982222
30
0.0
10
87.718194
20
182.276667
30
0.0
10
87.210405
20
182.528420
30
0.0
10
86.771917
20
183.215532
30
0.0
10
86.447174
20
184.235781
30
0.0
10
86.280625
20
185.486944
30
0.0
10
86.252678
20
186.866963
30
0.0
10
86.361774
20
186.814700
30
0.0
10
86.589306
20
186.368889
30
0.0
10
86.927386
20
185.839421
30
0.0
10
86.880347
20
187.074444
30
0.0
10
86.829700
20
188.313777
30
0.0
10
87.171389
20
187.780000
30
0.0
10
87.594722
20
186.598194
30
0.0
10
87.868125
20
186.104306
30
0.0
10
88.004772
20
186.178761
30
0.0
10
87.973958
20
186.580556
30
0.0
10
87.903589
20
187.060919
30
0.0
10
88.291458
20
186.651111
30
0.0
10
88.624996
20
186.333940
30
0.0
10
88.326736
20
187.180278
30
0.0
10
87.912231
20
188.563923
30
0.0
10
88.050454
20
188.567255
30
0.0
10
88.414931
20
188.062222
30
0.0
10
89.614375
20
186.651111
30
0.0
10
90.293472
20
186.086667
30
0.0
10
89.799583
20
186.668750
30
0.0
10
89.323575
20
187.427553
30
0.0
10
89.356576
20
187.574974
30
0.0
10
89.587917
20
187.497778
30
0.0
10
89.801028
20
187.414585
30
0.0
10
89.848489
20
187.541444
30
0.0
10
89.437986
20
188.494375
30
0.0
10
89.185022
20
189.113959
30
0.0
10
89.238305
20
189.306281
30
0.0
10
89.519311
20
189.079421
30
0.0
10
89.949514
20
188.441458
30
0.0
10
90.359197
20
187.872992
30
0.0
10
90.637431
20
187.744722
30
0.0
10
90.669304
20
187.973973
30
0.0
10
90.487500
20
188.265069
30
0.0
10
90.134970
20
188.705437
30
0.0
10
90.170059
20
188.868926
30
0.0
10
90.504980
20
188.745920
30
0.0
10
91.051944
20
188.326806
30
0.0
10
91.512781
20
187.953336
30
0.0
10
91.577761
20
188.018133
30
0.0
10
90.610972
20
189.261667
30
0.0
10
90.302680
20
189.710135
30
0.0
10
90.346389
20
189.896667
30
0.0
10
90.346389
20
189.896667
30
0.0
0
LWPOLYLINE
100
AcDbPolyline
8
Calque_1
90
21
70
0
10
135.193264
20
189.808472
30
0.0
10
135.531564
20
189.734376
30
0.0
10
135.872361
20
189.464514
30
0.0
10
136.317241
20
188.897433
30
0.0
10
136.369958
20
188.330544
30
0.0
10
136.021741
20
187.733122
30
0.0
10
135.263819
20
187.074444
30
0.0
10
133.973457
20
186.281126
30
0.0
10
133.648224
20
186.330894
30
0.0
10
133.341181
20
186.633472
30
0.0
10
132.631457
20
187.010789
30
0.0
10
131.400903
20
187.347847
30
0.0
10
129.445484
20
187.818482
30
0.0
10
128.609044
20
188.226722
30
0.0
10
128.621885
20
188.391593
30
0.0
10
128.928203
20
188.521844
30
0.0
10
130.439583
20
188.653125
30
0.0
10
132.239533
20
188.830216
30
0.0
10
133.826250
20
189.323403
30
0.0
10
135.193264
20
189.808472
30
0.0
10
135.193264
20
189.808472
30
0.0
0
LWPOLYLINE
100
AcDbPolyline
8
Calque_1
90
64
70
0
10
119.671042
20
189.570347
30
0.0
10
119.653403
20
188.908889
30
0.0
10
119.388819
20
188.009306
30
0.0
10
119.253883
20
187.981556
30
0.0
10
119.309444
20
188.273889
30
0.0
10
119.417405
20
188.640305
30
0.0
10
119.360322
20
188.725395
30
0.0
10
118.630347
20
188.000486
30
0.0
10
118.299146
20
187.575158
30
0.0
10
118.462778
20
187.630069
30
0.0
10
118.921189
20
187.875569
30
0.0
10
119.203611
20
187.665347
30
0.0
10
119.340916
20
187.547704
30
0.0
10
119.520214
20
187.591244
30
0.0
10
120.059097
20
188.194514
30
0.0
10
120.543230
20
188.766239
30
0.0
10
120.823986
20
188.916129
30
0.0
10
120.832541
20
188.667728
30
0.0
10
120.500069
20
188.044583
30
0.0
10
120.147292
20
187.180278
30
0.0
10
120.412685
20
187.359042
30
0.0
10
120.870486
20
187.974028
30
0.0
10
121.327836
20
188.569878
30
0.0
10
121.434607
20
188.577471
30
0.0
10
121.470208
20
188.397361
30
0.0
10
121.560985
20
188.083168
30
0.0
10
121.787708
20
188.079861
30
0.0
10
121.975461
20
188.081343
30
0.0
10
121.920000
20
187.709444
30
0.0
10
121.870926
20
187.116218
30
0.0
10
121.999375
20
186.474722
30
0.0
10
122.148424
20
186.129664
30
0.0
10
122.269456
20
186.076461
30
0.0
10
122.616736
20
187.003889
30
0.0
10
122.916875
20
187.738664
30
0.0
10
123.225137
20
188.181880
30
0.0
10
123.414407
20
188.212489
30
0.0
10
123.357569
20
187.709444
30
0.0
10
123.066528
20
186.086667
30
0.0
10
122.907778
20
184.957778
30
0.0
10
123.304653
20
185.804444
30
0.0
10
123.710347
20
186.651111
30
0.0
10
123.719167
20
185.328194
30
0.0
10
123.467289
20
183.364845
30
0.0
10
123.173974
20
182.644994
30
0.0
10
122.801944
20
182.214931
30
0.0
10
122.449157
20
182.052094
30
0.0
10
122.016324
20
182.059370
30
0.0
10
120.209028
20
182.726458
30
0.0
10
118.931473
20
183.145533
30
0.0
10
117.590083
20
183.320204
30
0.0
10
116.054449
20
183.255328
30
0.0
10
114.194167
20
182.955764
30
0.0
10
113.373093
20
182.918978
30
0.0
10
112.862431
20
183.299722
30
0.0
10
112.585727
20
183.784559
30
0.0
10
112.491389
20
184.270814
30
0.0
10
112.581311
20
184.760962
30
0.0
10
112.857384
20
185.257477
30
0.0
10
113.975555
20
186.279498
30
0.0
10
115.861042
20
187.356667
30
0.0
10
118.868472
20
188.997083
30
0.0
10
119.671042
20
189.570347
30
0.0
10
119.671042
20
189.570347
30
0.0
0
LWPOLYLINE
100
AcDbPolyline
8
Calque_1
90
55
70
0
10
83.193819
20
189.341042
30
0.0
10
83.220278
20
189.252847
30
0.0
10
82.875140
20
188.815568
30
0.0
10
82.172246
20
188.234068
30
0.0
10
80.133472
20
186.968611
30
0.0
10
79.641238
20
186.654962
30
0.0
10
79.648403
20
186.518819
30
0.0
10
81.121250
20
187.074444
30
0.0
10
82.355910
20
187.581874
30
0.0
10
81.359375
20
186.615833
30
0.0
10
80.036725
20
185.384782
30
0.0
10
81.597500
20
186.412986
30
0.0
10
82.322227
20
186.913808
30
0.0
10
82.626839
20
187.007373
30
0.0
10
82.064931
20
185.875000
30
0.0
10
81.630663
20
185.090020
30
0.0
10
81.638644
20
184.985654
30
0.0
10
81.800347
20
185.081250
30
0.0
10
83.140903
20
186.915694
30
0.0
10
83.607113
20
187.610363
30
0.0
10
83.772607
20
187.655231
30
0.0
10
83.185000
20
186.086667
30
0.0
10
82.779306
20
185.240000
30
0.0
10
83.361389
20
185.945556
30
0.0
10
84.278611
20
187.568333
30
0.0
10
84.584744
20
188.216122
30
0.0
10
84.843056
20
188.485556
30
0.0
10
85.006365
20
188.461676
30
0.0
10
85.040609
20
188.301345
30
0.0
10
84.649028
20
187.039167
30
0.0
10
84.364814
20
186.095880
30
0.0
10
84.657847
20
186.368889
30
0.0
10
85.257569
20
187.568333
30
0.0
10
85.463621
20
188.087021
30
0.0
10
85.659967
20
188.184216
30
0.0
10
85.774177
20
187.902915
30
0.0
10
85.733819
20
187.286111
30
0.0
10
85.391404
20
185.986850
30
0.0
10
84.880935
20
184.865990
30
0.0
10
84.214825
20
183.945365
30
0.0
10
83.405486
20
183.246806
30
0.0
10
82.239629
20
182.671281
30
0.0
10
81.050694
20
182.356042
30
0.0
10
80.338351
20
182.319516
30
0.0
10
79.782713
20
182.482794
30
0.0
10
78.184375
20
183.925903
30
0.0
10
77.005534
20
185.280340
30
0.0
10
76.685069
20
186.033750
30
0.0
10
77.055377
20
186.363447
30
0.0
10
77.867505
20
186.744760
30
0.0
10
80.353958
20
187.480139
30
0.0
10
81.235452
20
187.901106
30
0.0
10
82.258958
20
188.670764
30
0.0
10
83.193819
20
189.341042
30
0.0
10
83.193819
20
189.341042
30
0.0
0
LWPOLYLINE
100
AcDbPolyline
8
Calque_1
90
58
70
0
10
126.726597
20
189.332222
30
0.0
10
127.908403
20
188.362083
30
0.0
10
128.934768
20
187.550444
30
0.0
10
130.236736
20
187.092083
30
0.0
10
132.426452
20
186.376507
30
0.0
10
133.084945
20
185.966568
30
0.0
10
133.323542
20
185.583958
30
0.0
10
132.859089
20
184.864022
30
0.0
10
131.744861
20
183.617222
30
0.0
10
130.300864
20
182.315727
30
0.0
10
129.784158
20
182.067438
30
0.0
10
129.275417
20
182.003264
30
0.0
10
128.383758
20
182.135868
30
0.0
10
127.499648
20
182.486854
30
0.0
10
126.658184
20
183.019746
30
0.0
10
125.894460
20
183.698069
30
0.0
10
125.243573
20
184.485349
30
0.0
10
124.740618
20
185.345111
30
0.0
10
124.420692
20
186.240880
30
0.0
10
124.318889
20
187.136181
30
0.0
10
124.336528
20
188.062222
30
0.0
10
124.856875
20
186.889236
30
0.0
10
125.348081
20
185.927792
30
0.0
10
125.649178
20
185.583193
30
0.0
10
125.690824
20
185.867363
30
0.0
10
125.403681
20
186.792222
30
0.0
10
125.102153
20
187.772278
30
0.0
10
125.115398
20
188.170414
30
0.0
10
125.385233
20
187.950009
30
0.0
10
125.853472
20
187.074444
30
0.0
10
126.779514
20
185.592778
30
0.0
10
126.919753
20
185.522130
30
0.0
10
126.932187
20
185.646776
30
0.0
10
126.576667
20
186.465903
30
0.0
10
126.126543
20
187.465579
30
0.0
10
126.103499
20
187.783323
30
0.0
10
126.442715
20
187.426922
30
0.0
10
127.079375
20
186.404167
30
0.0
10
128.296458
20
184.649097
30
0.0
10
128.382046
20
184.644621
30
0.0
10
128.358829
20
184.790997
30
0.0
10
128.023056
20
185.434028
30
0.0
10
127.453494
20
186.595771
30
0.0
10
127.703025
20
186.556938
30
0.0
10
128.322917
20
186.139583
30
0.0
10
129.657417
20
185.278250
30
0.0
10
128.675694
20
186.342431
30
0.0
10
127.264583
20
187.665347
30
0.0
10
128.561042
20
186.950972
30
0.0
10
130.254375
20
186.227778
30
0.0
10
130.297515
20
186.293595
30
0.0
10
130.120497
20
186.470547
30
0.0
10
129.240139
20
187.047986
30
0.0
10
127.264292
20
188.493672
30
0.0
10
126.705078
20
189.089148
30
0.0
10
126.629422
20
189.267274
30
0.0
10
126.726597
20
189.332222
30
0.0
10
126.726597
20
189.332222
30
0.0
0
LWPOLYLINE
100
AcDbPolyline
8
Calque_1
90
16
70
0
10
93.062778
20
189.023542
30
0.0
10
97.278472
20
188.459097
30
0.0
10
100.335946
20
188.062236
30
0.0
10
101.785208
20
188.185694
30
0.0
10
102.487002
20
188.379560
30
0.0
10
102.755400
20
188.339268
30
0.0
10
102.582799
20
188.089898
30
0.0
10
101.961597
20
187.656528
30
0.0
10
100.965637
20
187.234269
30
0.0
10
99.757950
20
187.133246
30
0.0
10
98.154986
20
187.362215
30
0.0
10
95.973194
20
187.929931
30
0.0
10
93.371050
20
188.743304
30
0.0
10
92.926599
20
188.948184
30
0.0
10
93.062778
20
189.023542
30
0.0
10
93.062778
20
189.023542
30
0.0
0
LWPOLYLINE
100
AcDbPolyline
8
Calque_1
90
8
70
0
10
88.591319
20
188.970625
30
0.0
10
89.023472
20
188.485556
30
0.0
10
89.208681
20
187.727083
30
0.0
10
89.013501
20
187.809717
30
0.0
10
88.741250
20
188.203333
30
0.0
10
88.556042
20
188.952986
30
0.0
10
88.591319
20
188.970625
30
0.0
10
88.591319
20
188.970625
30
0.0
0
LWPOLYLINE
100
AcDbPolyline
8
Calque_1
90
15
70
0
10
116.619514
20
188.723681
30
0.0
10
116.937014
20
188.653125
30
0.0
10
114.397014
20
187.771181
30
0.0
10
112.060795
20
187.160029
30
0.0
10
110.291525
20
186.895294
30
0.0
10
108.972066
20
186.969284
30
0.0
10
107.985278
20
187.374306
30
0.0
10
107.358340
20
187.830171
30
0.0
10
107.207786
20
188.061975
30
0.0
10
108.355694
20
187.885833
30
0.0
10
109.701102
20
187.740333
30
0.0
10
111.724722
20
188.018125
30
0.0
10
114.715983
20
188.521532
30
0.0
10
116.619514
20
188.723681
30
0.0
10
116.619514
20
188.723681
30
0.0
0
LWPOLYLINE
100
AcDbPolyline
8
Calque_1
90
8
70
0
10
121.417292
20
187.771181
30
0.0
10
120.517708
20
186.898056
30
0.0
10
120.035276
20
186.209915
30
0.0
10
120.068905
20
186.142000
30
0.0
10
120.279583
20
186.245417
30
0.0
10
121.170347
20
187.145000
30
0.0
10
121.417292
20
187.771181
30
0.0
10
121.417292
20
187.771181
30
0.0
0
LWPOLYLINE
100
AcDbPolyline
8
Calque_1
90
13
70
0
10
96.537639
20
187.312569
30
0.0
10
96.784583
20
187.250833
30
0.0
10
98.760139
20
186.721667
30
0.0
10
100.206320
20
186.323779
30
0.0
10
100.260069
20
186.125941
30
0.0
10
100.030139
20
185.813264
30
0.0
10
99.422325
20
185.419993
30
0.0
10
98.653161
20
185.408108
30
0.0
10
97.831653
20
185.755346
30
0.0
10
97.066806
20
186.439444
30
0.0
10
96.553354
20
187.107258
30
0.0
10
96.537639
20
187.312569
30
0.0
10
96.537639
20
187.312569
30
0.0
0
LWPOLYLINE
100
AcDbPolyline
8
Calque_1
90
10
70
0
10
113.462153
20
186.942153
30
0.0
10
113.515069
20
186.942153
30
0.0
10
112.721319
20
185.980833
30
0.0
10
111.911050
20
185.358147
30
0.0
10
111.204375
20
185.098889
30
0.0
10
110.079566
20
185.474369
30
0.0
10
109.669674
20
185.774311
30
0.0
10
109.625694
20
185.998472
30
0.0
10
113.462153
20
186.942153
30
0.0
10
113.462153
20
186.942153
30
0.0
0
LWPOLYLINE
100
AcDbPolyline
8
Calque_1
90
8
70
0
10
121.699514
20
186.730486
30
0.0
10
121.479028
20
186.510000
30
0.0
10
121.205625
20
185.804444
30
0.0
10
121.285900
20
185.729479
30
0.0
10
121.479028
20
185.945556
30
0.0
10
121.752431
20
186.651111
30
0.0
10
121.699514
20
186.730486
30
0.0
10
121.699514
20
186.730486
30
0.0
0
LWPOLYLINE
100
AcDbPolyline
8
Calque_1
90
27
70
0
10
76.050069
20
184.860764
30
0.0
10
76.728134
20
184.563524
30
0.0
10
77.963889
20
183.432014
30
0.0
10
79.496318
20
182.055444
30
0.0
10
80.030633
20
181.787187
30
0.0
10
80.539167
20
181.712222
30
0.0
10
81.459705
20
181.822064
30
0.0
10
82.409990
20
182.145510
30
0.0
10
83.368544
20
182.673440
30
0.0
10
84.313889
20
183.396736
30
0.0
10
85.048284
20
183.983620
30
0.0
10
85.354583
20
184.111111
30
0.0
10
85.127267
20
183.457132
30
0.0
10
84.561728
20
182.566004
30
0.0
10
83.832582
20
181.677933
30
0.0
10
83.114444
20
181.033125
30
0.0
10
82.155016
20
180.506058
30
0.0
10
81.262361
20
180.195278
30
0.0
10
80.520887
20
180.162753
30
0.0
10
79.730223
20
180.312587
30
0.0
10
78.150467
20
181.060772
30
0.0
10
76.821380
20
182.242721
30
0.0
10
76.344052
20
182.934759
30
0.0
10
76.041250
20
183.661319
30
0.0
10
75.890572
20
184.511742
30
0.0
10
76.050069
20
184.860764
30
0.0
10
76.050069
20
184.860764
30
0.0
0
LWPOLYLINE
100
AcDbPolyline
8
Calque_1
90
25
70
0
10
133.923264
20
184.816667
30
0.0
10
134.152040
20
184.607772
30
0.0
10
134.143754
20
184.061176
30
0.0
10
133.919389
20
183.297014
30
0.0
10
133.499931
20
182.435417
30
0.0
10
132.689503
20
181.430294
30
0.0
10
131.691944
20
180.645069
30
0.0
10
130.663370
20
180.234416
30
0.0
10
129.519792
20
180.039904
30
0.0
10
128.426005
20
180.073010
30
0.0
10
127.546806
20
180.345208
30
0.0
10
126.088558
20
181.495277
30
0.0
10
124.980347
20
182.894028
30
0.0
10
124.601453
20
183.981895
30
0.0
10
124.775843
20
183.988864
30
0.0
10
125.174375
20
183.573125
30
0.0
10
126.001500
20
182.823977
30
0.0
10
127.156924
20
182.132674
30
0.0
10
128.388226
20
181.625816
30
0.0
10
129.442986
20
181.430000
30
0.0
10
129.975282
20
181.500331
30
0.0
10
130.507589
20
181.757497
30
0.0
10
132.018264
20
183.123333
30
0.0
10
133.923264
20
184.816667
30
0.0
10
133.923264
20
184.816667
30
0.0
0
LWPOLYLINE
100
AcDbPolyline
8
Calque_1
90
14
70
0
10
85.698542
20
183.414375
30
0.0
10
86.262986
20
182.267847
30
0.0
10
86.682839
20
181.208222
30
0.0
10
86.602123
20
180.908842
30
0.0
10
86.333542
20
180.574514
30
0.0
10
85.942946
20
180.187719
30
0.0
10
85.642936
20
180.052284
30
0.0
10
85.348680
20
180.166940
30
0.0
10
84.975347
20
180.530417
30
0.0
10
84.645628
20
180.927270
30
0.0
10
84.547589
20
181.257712
30
0.0
10
85.098819
20
182.408958
30
0.0
10
85.698542
20
183.414375
30
0.0
10
85.698542
20
183.414375
30
0.0
0
LWPOLYLINE
100
AcDbPolyline
8
Calque_1
90
18
70
0
10
92.877569
20
183.202708
30
0.0
10
93.961789
20
183.125391
30
0.0
10
95.064792
20
182.849931
30
0.0
10
96.176042
20
182.479514
30
0.0
10
95.108889
20
181.932708
30
0.0
10
93.808362
20
181.430349
30
0.0
10
92.172014
20
180.989028
30
0.0
10
89.870139
20
180.600972
30
0.0
10
88.367689
20
181.001449
30
0.0
10
87.710299
20
181.348136
30
0.0
10
87.383056
20
181.676944
30
0.0
10
87.377748
20
181.908525
30
0.0
10
87.568264
20
181.879792
30
0.0
10
88.349254
20
181.970655
30
0.0
10
89.790764
20
182.461875
30
0.0
10
91.419860
20
183.003375
30
0.0
10
92.877569
20
183.202708
30
0.0
10
92.877569
20
183.202708
30
0.0
0
LWPOLYLINE
100
AcDbPolyline
8
Calque_1
90
12
70
0
10
124.230694
20
183.167431
30
0.0
10
124.874514
20
182.117917
30
0.0
10
125.315503
20
181.204042
30
0.0
10
125.236111
20
180.618611
30
0.0
10
124.863493
20
180.257805
30
0.0
10
124.381292
20
180.090016
30
0.0
10
123.892142
20
180.129198
30
0.0
10
123.498681
20
180.389306
30
0.0
10
123.343916
20
180.952999
30
0.0
10
123.692708
20
181.976806
30
0.0
10
124.230694
20
183.167431
30
0.0
10
124.230694
20
183.167431
30
0.0
0
LWPOLYLINE
100
AcDbPolyline
8
Calque_1
90
17
70
0
10
117.148681
20
182.982222
30
0.0
10
118.496102
20
182.780796
30
0.0
10
120.552986
20
182.029722
30
0.0
10
121.742162
20
181.670794
30
0.0
10
122.528542
20
181.632847
30
0.0
10
122.875130
20
181.703058
30
0.0
10
122.643194
20
181.341806
30
0.0
10
122.070559
20
180.928645
30
0.0
10
121.232083
20
180.592153
30
0.0
10
119.915607
20
180.355751
30
0.0
10
117.686667
20
180.768542
30
0.0
10
115.098726
20
181.539654
30
0.0
10
114.402395
20
181.923372
30
0.0
10
114.255903
20
182.241389
30
0.0
10
115.887500
20
182.797014
30
0.0
10
117.148681
20
182.982222
30
0.0
10
117.148681
20
182.982222
30
0.0
  0
ENDSEC
  0
SECTION
  2
OBJECTS
  0
DICTIONARY
  5
C
330
0
100
AcDbDictionary
  3
ACAD_GROUP
350
D
  3
ACAD_MLINESTYLE
350
17
  0
DICTIONARY
  5
D
330
C
100
AcDbDictionary
  0
DICTIONARY
  5
1A
330
C
100
AcDbDictionary
  0
DICTIONARY
  5
17
330
C
100
AcDbDictionary
  3
STANDARD
350
18
  0
DICTIONARY
  5
19
330
C
100
AcDbDictionary
  0
ENDSEC
  0
EOF
