999
Inkscape export via OpenSCAD DXF Export
  0
SECTION
  2
HEADER
  9
$ACADVER
  1
AC1014
  9
$HANDSEED
  5
FFFF
  9
$MEASUREMENT
 70
     1
  0
ENDSEC
  0
SECTION
  2
TABLES
  0
TABLE
  2
VPORT
  5
8
330
0
100
AcDbSymbolTable
 70
     4
  0
VPORT
  5
2E
330
8
100
AcDbSymbolTableRecord
100
AcDbViewportTableRecord
  2
*ACTIVE
 70
     0
 10
0.0
 20
0.0
 11
1.0
 21
1.0
 12
210.0
 22
148.5
 13
0.0
 23
0.0
 14
10.0
 24
10.0
 15
10.0
 25
10.0
 16
0.0
 26
0.0
 36
1.0
 17
0.0
 27
0.0
 37
0.0
 40
341.0
 41
1.24
 42
50.0
 43
0.0
 44
0.0
 50
0.0
 51
0.0
 71
     0
 72
   100
 73
     1
 74
     3
 75
     0
 76
     0
 77
     0
 78
     0
  0
ENDTAB
  0
TABLE
  2
LTYPE
  5
5
330
0
100
AcDbSymbolTable
 70
     1
  0
LTYPE
  5
14
330
5
100
AcDbSymbolTableRecord
100
AcDbLinetypeTableRecord
  2
BYBLOCK
 70
     0
  3

 72
    65
 73
     0
 40
0.0
  0
LTYPE
  5
15
330
5
100
AcDbSymbolTableRecord
100
AcDbLinetypeTableRecord
  2
BYLAYER
 70
     0
  3

 72
    65
 73
     0
 40
0.0
  0
LTYPE
  5
16
330
5
100
AcDbSymbolTableRecord
100
AcDbLinetypeTableRecord
  2
CONTINUOUS
 70
     0
  3
Solid line
 72
    65
 73
     0
 40
0.0
  0
ENDTAB
  0
TABLE
0
TABLE
2
LAYER
5
2
330
0
100
AcDbSymbolTable
70
1
0
LAYER
5
10
330
2
100
AcDbSymbolTableRecord
100
AcDbLayerTableRecord
2
Layer_1
70
0
62
7
6
CONTINUOUS
0
ENDTAB
0
ENDSEC
  0
ENDTAB
  0
TABLE
  2
STYLE
  5
3
330
0
100
AcDbSymbolTable
 70
     1
  0
STYLE
  5
11
330
3
100
AcDbSymbolTableRecord
100
AcDbTextStyleTableRecord
  2
STANDARD
 70
     0
 40
0.0
 41
1.0
 50
0.0
 71
     0
 42
2.5
  3
txt
  4

  0
ENDTAB
  0
TABLE
  2
VIEW
  5
6
330
0
100
AcDbSymbolTable
 70
     0
  0
ENDTAB
  0
TABLE
  2
UCS
  5
7
330
0
100
AcDbSymbolTable
 70
     0
  0
ENDTAB
  0
TABLE
  2
APPID
  5
9
330
0
100
AcDbSymbolTable
 70
     2
  0
APPID
  5
12
330
9
100
AcDbSymbolTableRecord
100
AcDbRegAppTableRecord
  2
ACAD
 70
     0
  0
ENDTAB
  0
TABLE
  2
DIMSTYLE
  5
A
330
0
100
AcDbSymbolTable
 70
     1
  0
DIMSTYLE
105
27
330
A
100
AcDbSymbolTableRecord
100
AcDbDimStyleTableRecord
  2
ISO-25
 70
     0
  3

  4

  5

  6

  7

 40
1.0
 41
2.5
 42
0.625
 43
3.75
 44
1.25
 45
0.0
 46
0.0
 47
0.0
 48
0.0
140
2.5
141
2.5
142
0.0
143
0.03937007874016
144
1.0
145
0.0
146
1.0
147
0.625
 71
     0
 72
     0
 73
     0
 74
     0
 75
     0
 76
     0
 77
     1
 78
     8
170
     0
171
     3
172
     1
173
     0
174
     0
175
     0
176
     0
177
     0
178
     0
270
     2
271
     2
272
     2
273
     2
274
     3
340
11
275
     0
280
     0
281
     0
282
     0
283
     0
284
     8
285
     0
286
     0
287
     3
288
     0
  0
ENDTAB
  0
TABLE
  2
BLOCK_RECORD
  5
1
330
0
100
AcDbSymbolTable
 70
     1
  0
BLOCK_RECORD
  5
1F
330
1
100
AcDbSymbolTableRecord
100
AcDbBlockTableRecord
  2
*MODEL_SPACE
  0
BLOCK_RECORD
  5
1B
330
1
100
AcDbSymbolTableRecord
100
AcDbBlockTableRecord
  2
*PAPER_SPACE
  0
ENDTAB
  0
ENDSEC
  0
SECTION
  2
BLOCKS
  0
BLOCK
  5
20
330
1F
100
AcDbEntity
  8
0
100
AcDbBlockBegin
  2
*MODEL_SPACE
 70
     0
 10
0.0
 20
0.0
 30
0.0
  3
*MODEL_SPACE
  1

  0
ENDBLK
  5
21
330
1F
100
AcDbEntity
  8
0
100
AcDbBlockEnd
  0
BLOCK
  5
1C
330
1B
100
AcDbEntity
 67
     1
  8
0
100
AcDbBlockBegin
  2
*PAPER_SPACE
  1

  0
ENDBLK
  5
1D
330
1B
100
AcDbEntity
 67
     1
  8
0
100
AcDbBlockEnd
  0
ENDSEC
  0
SECTION
  2
ENTITIES
0
DIMENSION
5
83
100
AcDbEntity
62
256
370
-1
6
ByLayer
1
total_width
3
Standard
70
0
71
5
72
1
41
1.0
100
AcDbAlignedDimension
13
0.282222
23
0.000000
33
0.0
14
84.662814
24
0.000000
34
0.0
50
0.000000
100
AcDbRotatedDimension
0
DIMENSION
5
83
100
AcDbEntity
62
256
370
-1
6
ByLayer
1
total_height
3
Standard
70
0
71
5
72
1
41
1.0
100
AcDbAlignedDimension
13
0.000000
23
0.363832
33
0.0
14
0.000000
24
32.118109
34
0.0
50
90.000000
100
AcDbRotatedDimension
0
DIMENSION
8
Layer_1
5
83
100
AcDbEntity
62
256
370
-1
6
ByLayer
1
Layer_1_width
3
Standard
70
0
71
5
72
1
41
1.0
100
AcDbAlignedDimension
13
0.282222
23
0.000000
33
0.0
14
84.662814
24
0.000000
34
0.0
50
0.000000
100
AcDbRotatedDimension
0
DIMENSION
8
Layer_1
5
83
100
AcDbEntity
62
256
370
-1
6
ByLayer
1
Layer_1_height
3
Standard
70
0
71
5
72
1
41
1.0
100
AcDbAlignedDimension
13
0.000000
23
0.363832
33
0.0
14
0.000000
24
32.118109
34
0.0
50
90.000000
100
AcDbRotatedDimension
0
LWPOLYLINE
100
AcDbPolyline
8
Layer_1
90
121
70
0
10
65.052222
20
0.467998
30
0.0
10
62.366854
20
0.758219
30
0.0
10
60.061396
20
1.185023
30
0.0
10
57.948859
20
1.792172
30
0.0
10
55.842250
20
2.623428
30
0.0
10
54.371210
20
3.392737
30
0.0
10
54.064544
20
3.722530
30
0.0
10
54.058883
20
4.049726
30
0.0
10
54.365551
20
4.399807
30
0.0
10
54.995875
20
4.798258
30
0.0
10
57.272792
20
5.842200
30
0.0
10
58.919414
20
6.409377
30
0.0
10
60.489856
20
6.728484
30
0.0
10
61.765151
20
6.771649
30
0.0
10
62.526333
20
6.510994
30
0.0
10
65.166742
20
5.770969
30
0.0
10
68.021163
20
5.447295
30
0.0
10
70.577067
20
5.633551
30
0.0
10
71.679272
20
5.906205
30
0.0
10
72.630285
20
6.292305
30
0.0
10
73.404585
20
6.787172
30
0.0
10
73.976651
20
7.386127
30
0.0
10
74.438437
20
8.346749
30
0.0
10
72.502649
20
7.998034
30
0.0
10
70.176712
20
7.630498
30
0.0
10
66.604444
20
7.528992
30
0.0
10
63.686200
20
7.615484
30
0.0
10
61.365846
20
7.887536
30
0.0
10
59.412051
20
8.386898
30
0.0
10
57.593484
20
9.155323
30
0.0
10
56.303333
20
9.802403
30
0.0
10
54.751111
20
9.257297
30
0.0
10
52.572193
20
8.630244
30
0.0
10
49.942872
20
8.091202
30
0.0
10
47.117039
20
7.684201
30
0.0
10
44.348589
20
7.453271
30
0.0
10
37.836055
20
7.424465
30
0.0
10
27.712358
20
7.598845
30
0.0
10
18.047600
20
7.882252
30
0.0
10
12.911879
20
8.180530
30
0.0
10
10.985882
20
8.628439
30
0.0
10
9.347611
20
9.220103
30
0.0
10
8.009754
20
9.949887
30
0.0
10
6.985000
20
10.812158
30
0.0
10
5.926667
20
11.947251
30
0.0
10
5.926667
20
17.121403
30
0.0
10
5.926667
20
22.295556
30
0.0
10
3.598333
20
22.304531
30
0.0
10
1.818092
20
22.380575
30
0.0
10
0.818412
20
22.695927
30
0.0
10
0.542649
20
22.992336
30
0.0
10
0.379665
20
23.407362
30
0.0
10
0.282222
20
24.671658
30
0.0
10
0.357103
20
25.767121
30
0.0
10
0.540340
20
26.120453
30
0.0
10
0.757198
20
26.111933
30
0.0
10
0.916117
20
26.315464
30
0.0
10
1.610559
20
26.615488
30
0.0
10
3.409666
20
26.811111
30
0.0
10
5.785556
20
26.952222
30
0.0
10
5.868334
20
29.158952
30
0.0
10
5.951112
20
31.365682
30
0.0
10
6.954294
20
31.784839
30
0.0
10
7.711421
20
31.988569
30
0.0
10
8.953811
20
32.103518
30
0.0
10
13.968667
20
32.118109
30
0.0
10
18.155712
20
32.020487
30
0.0
10
19.424535
20
31.898340
30
0.0
10
20.262050
20
31.675149
30
0.0
10
20.757127
20
31.311798
30
0.0
10
20.998636
20
30.769169
30
0.0
10
21.076425
20
28.989617
30
0.0
10
21.063586
20
26.952222
30
0.0
10
24.713460
20
26.795037
30
0.0
10
28.786667
20
26.448059
30
0.0
10
29.873222
20
26.426879
30
0.0
10
31.891111
20
26.642471
30
0.0
10
34.370130
20
26.905265
30
0.0
10
37.186662
20
27.046351
30
0.0
10
43.358686
20
26.984515
30
0.0
10
49.460021
20
26.499189
30
0.0
10
52.188192
20
26.110912
30
0.0
10
54.543506
20
25.632598
30
0.0
10
56.643234
20
25.214949
30
0.0
10
57.227586
20
25.217904
30
0.0
10
57.647950
20
25.348660
30
0.0
10
59.418136
20
26.019771
30
0.0
10
61.738079
20
26.571121
30
0.0
10
64.309122
20
26.946144
30
0.0
10
66.832607
20
27.088271
30
0.0
10
70.467770
20
26.812162
30
0.0
10
73.393698
20
26.219957
30
0.0
10
74.139357
20
26.098788
30
0.0
10
74.945920
20
26.374431
30
0.0
10
76.682877
20
26.683014
30
0.0
10
79.568706
20
26.825447
30
0.0
10
82.327096
20
26.779836
30
0.0
10
83.259654
20
26.679671
30
0.0
10
83.681734
20
26.524285
30
0.0
10
83.874678
20
26.363586
30
0.0
10
84.089638
20
26.380000
30
0.0
10
84.248368
20
26.392492
30
0.0
10
84.375940
20
26.180682
30
0.0
10
84.550166
20
24.888952
30
0.0
10
84.662814
20
17.466612
30
0.0
10
84.528695
20
9.185439
30
0.0
10
84.342793
20
7.553948
30
0.0
10
84.216095
20
7.297413
30
0.0
10
84.065361
20
7.387755
30
0.0
10
83.886117
20
7.457002
30
0.0
10
83.822500
20
6.914444
30
0.0
10
83.484508
20
5.863637
30
0.0
10
82.601472
20
4.656796
30
0.0
10
81.350057
20
3.490352
30
0.0
10
79.906927
20
2.560738
30
0.0
10
78.519463
20
1.959473
30
0.0
10
76.933931
20
1.446246
30
0.0
10
73.296581
20
0.701930
30
0.0
10
69.250729
20
0.363832
30
0.0
10
65.052222
20
0.467998
30
0.0
10
65.052222
20
0.467998
30
0.0
0
LWPOLYLINE
100
AcDbPolyline
8
Layer_1
90
68
70
0
10
73.686755
20
1.530937
30
0.0
10
76.833472
20
2.317144
30
0.0
10
79.344268
20
3.437023
30
0.0
10
80.358162
20
4.120310
30
0.0
10
81.209437
20
4.884879
30
0.0
10
81.896878
20
5.730019
30
0.0
10
82.419272
20
6.655017
30
0.0
10
82.728618
20
7.553796
30
0.0
10
82.887800
20
9.039711
30
0.0
10
82.906698
20
16.968345
30
0.0
10
82.832222
20
26.048231
30
0.0
10
79.657222
20
26.027242
30
0.0
10
76.200000
20
25.985349
30
0.0
10
76.000681
20
25.753659
30
0.0
10
75.917778
20
25.225972
30
0.0
10
75.891520
20
24.765019
30
0.0
10
75.624332
20
24.631621
30
0.0
10
73.236667
20
25.436086
30
0.0
10
72.197003
20
25.768929
30
0.0
10
71.059219
20
25.962796
30
0.0
10
67.027778
20
26.086758
30
0.0
10
62.910208
20
25.990317
30
0.0
10
61.676164
20
25.786440
30
0.0
10
60.423823
20
25.421567
30
0.0
10
58.362044
20
24.561446
30
0.0
10
56.779365
20
23.472803
30
0.0
10
55.634239
20
22.118427
30
0.0
10
54.885119
20
20.461110
30
0.0
10
54.711996
20
17.135224
30
0.0
10
54.748349
20
15.154097
30
0.0
10
54.869653
20
14.180725
30
0.0
10
55.033342
20
13.377329
30
0.0
10
55.142242
20
12.929429
30
0.0
10
55.445868
20
12.400957
30
0.0
10
56.498837
20
11.230148
30
0.0
10
57.915332
20
10.120613
30
0.0
10
59.418437
20
9.328059
30
0.0
10
60.940843
20
8.859235
30
0.0
10
62.650131
20
8.517000
30
0.0
10
66.392389
20
8.215103
30
0.0
10
70.171285
20
8.427977
30
0.0
10
71.926371
20
8.729206
30
0.0
10
73.512894
20
9.161231
30
0.0
10
75.782607
20
9.877778
30
0.0
10
75.909082
20
9.644935
30
0.0
10
75.906416
20
9.086035
30
0.0
10
75.591690
20
7.827837
30
0.0
10
75.068007
20
6.773333
30
0.0
10
74.579714
20
6.217069
30
0.0
10
73.676512
20
5.709114
30
0.0
10
72.395756
20
5.265740
30
0.0
10
70.774800
20
4.903217
30
0.0
10
68.777768
20
4.685615
30
0.0
10
66.711254
20
4.738634
30
0.0
10
64.535639
20
5.065825
30
0.0
10
62.211306
20
5.670740
30
0.0
10
60.435137
20
6.219343
30
0.0
10
58.933681
20
5.542783
30
0.0
10
56.388914
20
4.498516
30
0.0
10
55.694784
20
4.169723
30
0.0
10
55.490991
20
3.895573
30
0.0
10
56.632052
20
3.234194
30
0.0
10
58.984444
20
2.330340
30
0.0
10
62.132959
20
1.623482
30
0.0
10
66.069457
20
1.230890
30
0.0
10
70.139027
20
1.188172
30
0.0
10
73.686755
20
1.530937
30
0.0
10
73.686755
20
1.530937
30
0.0
0
LWPOLYLINE
100
AcDbPolyline
8
Layer_1
90
31
70
0
10
65.124003
20
12.287186
30
0.0
10
63.887550
20
12.880765
30
0.0
10
62.795669
20
13.705368
30
0.0
10
61.806667
20
14.694370
30
0.0
10
61.816065
20
17.295518
30
0.0
10
61.926856
20
19.519223
30
0.0
10
62.091824
20
20.109869
30
0.0
10
62.361084
20
20.538943
30
0.0
10
63.121285
20
21.179411
30
0.0
10
64.251326
20
21.758426
30
0.0
10
65.679756
20
22.246196
30
0.0
10
67.335123
20
22.612928
30
0.0
10
68.655560
20
22.745301
30
0.0
10
69.987823
20
22.711673
30
0.0
10
71.284942
20
22.527520
30
0.0
10
72.499945
20
22.208313
30
0.0
10
73.585863
20
21.769528
30
0.0
10
74.495724
20
21.226636
30
0.0
10
75.182557
20
20.595113
30
0.0
10
75.599392
20
19.890432
30
0.0
10
75.859804
20
18.618736
30
0.0
10
75.910320
20
17.061297
30
0.0
10
75.761389
20
15.544530
30
0.0
10
75.423460
20
14.394847
30
0.0
10
74.628268
20
13.316943
30
0.0
10
73.435610
20
12.577745
30
0.0
10
71.741455
20
12.134647
30
0.0
10
69.441768
20
11.945041
30
0.0
10
66.849696
20
11.979684
30
0.0
10
65.124011
20
12.287186
30
0.0
10
65.124003
20
12.287186
30
0.0
0
LWPOLYLINE
100
AcDbPolyline
8
Layer_1
90
27
70
0
10
72.468232
20
13.180334
30
0.0
10
73.477650
20
13.792362
30
0.0
10
74.101594
20
14.569481
30
0.0
10
74.418465
20
15.667995
30
0.0
10
74.506667
20
17.244208
30
0.0
10
74.375106
20
19.281768
30
0.0
10
74.089906
20
19.826235
30
0.0
10
73.551096
20
20.410090
30
0.0
10
72.685106
20
21.077455
30
0.0
10
71.634052
20
21.567005
30
0.0
10
70.451074
20
21.877161
30
0.0
10
69.189312
20
22.006343
30
0.0
10
67.901906
20
21.952969
30
0.0
10
66.641996
20
21.715461
30
0.0
10
65.462721
20
21.292237
30
0.0
10
64.417222
20
20.681717
30
0.0
10
63.500000
20
20.009052
30
0.0
10
63.500000
20
17.215556
30
0.0
10
63.500000
20
14.422059
30
0.0
10
64.420499
20
13.719960
30
0.0
10
65.162047
20
13.284708
30
0.0
10
66.084797
20
12.947457
30
0.0
10
68.262592
20
12.581127
30
0.0
10
70.531274
20
12.649307
30
0.0
10
71.567632
20
12.855194
30
0.0
10
72.468232
20
13.180334
30
0.0
10
72.468232
20
13.180334
30
0.0
0
LWPOLYLINE
100
AcDbPolyline
8
Layer_1
90
74
70
0
10
47.138514
20
8.480782
30
0.0
10
51.205938
20
9.209356
30
0.0
10
54.580528
20
10.144972
30
0.0
10
55.397722
20
10.459492
30
0.0
10
54.825206
20
11.085857
30
0.0
10
54.116379
20
12.016263
30
0.0
10
53.634617
20
13.033826
30
0.0
10
53.358303
20
14.200845
30
0.0
10
53.265818
20
15.579618
30
0.0
10
53.182378
20
16.994740
30
0.0
10
52.995816
20
17.677182
30
0.0
10
51.727387
20
18.090993
30
0.0
10
49.299374
20
18.453856
30
0.0
10
40.640000
20
19.063146
30
0.0
10
35.453953
20
19.482300
30
0.0
10
33.696754
20
19.759662
30
0.0
10
32.702966
20
20.056409
30
0.0
10
32.295694
20
20.465741
30
0.0
10
32.226975
20
21.108690
30
0.0
10
32.326232
20
21.499920
30
0.0
10
32.552538
20
21.806961
30
0.0
10
33.584444
20
22.349618
30
0.0
10
34.566962
20
22.584858
30
0.0
10
36.018357
20
22.747280
30
0.0
10
39.806285
20
22.857572
30
0.0
10
43.905238
20
22.688295
30
0.0
10
47.272222
20
22.247248
30
0.0
10
51.245219
20
21.530834
30
0.0
10
52.231810
20
21.563354
30
0.0
10
52.967574
20
21.825575
30
0.0
10
54.701234
20
23.165680
30
0.0
10
55.880000
20
24.427656
30
0.0
10
54.821667
20
24.705421
30
0.0
10
52.916667
20
25.135051
30
0.0
10
50.728378
20
25.542929
30
0.0
10
47.379986
20
25.896863
30
0.0
10
43.483822
20
26.145889
30
0.0
10
39.652222
20
26.239044
30
0.0
10
34.014072
20
26.038374
30
0.0
10
28.428225
20
25.233651
30
0.0
10
27.585928
20
25.158701
30
0.0
10
27.487599
20
25.271330
30
0.0
10
27.541196
20
25.503265
30
0.0
10
27.517098
20
25.749674
30
0.0
10
27.046934
20
25.889425
30
0.0
10
23.807417
20
25.968766
30
0.0
10
20.962547
20
26.032726
30
0.0
10
19.614444
20
26.180433
30
0.0
10
19.415125
20
27.031544
30
0.0
10
19.332222
20
28.786667
30
0.0
10
19.332222
20
31.185556
30
0.0
10
13.486777
20
31.261804
30
0.0
10
7.641332
20
31.338053
30
0.0
10
7.560110
20
28.721804
30
0.0
10
7.478889
20
26.105556
30
0.0
10
4.586111
20
26.025127
30
0.0
10
1.693333
20
25.944698
30
0.0
10
1.693333
20
24.543460
30
0.0
10
1.693333
20
23.142222
30
0.0
10
4.656667
20
23.142222
30
0.0
10
7.620000
20
23.142222
30
0.0
10
7.620000
20
17.484302
30
0.0
10
7.620000
20
11.826382
30
0.0
10
8.396111
20
11.105892
30
0.0
10
9.156301
20
10.478354
30
0.0
10
9.979063
20
9.993978
30
0.0
10
12.417778
20
9.162058
30
0.0
10
13.737069
20
8.904328
30
0.0
10
15.770721
20
8.724009
30
0.0
10
23.988889
20
8.476679
30
0.0
10
40.617436
20
8.246150
30
0.0
10
44.708952
20
8.305244
30
0.0
10
47.138514
20
8.480783
30
0.0
10
47.138514
20
8.480782
30
0.0
0
LWPOLYLINE
100
AcDbPolyline
8
Layer_1
90
37
70
0
10
37.435880
20
11.482639
30
0.0
10
34.858409
20
11.671386
30
0.0
10
28.942936
20
11.843759
30
0.0
10
21.854492
20
12.062599
30
0.0
10
20.608280
20
12.243524
30
0.0
10
20.061867
20
12.537088
30
0.0
10
19.735904
20
12.951513
30
0.0
10
19.559596
20
13.729810
30
0.0
10
19.473333
20
18.105963
30
0.0
10
19.473333
20
23.142222
30
0.0
10
21.590000
20
23.142222
30
0.0
10
23.548502
20
22.952386
30
0.0
10
23.715990
20
22.741203
30
0.0
10
23.283333
20
22.475719
30
0.0
10
22.957892
20
22.001224
30
0.0
10
22.860000
20
20.801386
30
0.0
10
22.931449
20
19.798408
30
0.0
10
23.215159
20
19.060593
30
0.0
10
23.815179
20
18.426406
30
0.0
10
24.835556
20
17.734314
30
0.0
10
26.968233
20
16.864948
30
0.0
10
30.220825
20
16.182489
30
0.0
10
34.590783
20
15.687330
30
0.0
10
40.075556
20
15.379864
30
0.0
10
43.682209
20
15.210063
30
0.0
10
46.075814
20
14.972887
30
0.0
10
47.585957
20
14.618385
30
0.0
10
48.542222
20
14.096600
30
0.0
10
49.247778
20
13.540447
30
0.0
10
48.486921
20
12.864659
30
0.0
10
47.509843
20
12.287453
30
0.0
10
46.229143
20
11.848683
30
0.0
10
44.178881
20
11.585371
30
0.0
10
41.307277
20
11.406511
30
0.0
10
38.698290
20
11.357226
30
0.0
10
37.435880
20
11.482639
30
0.0
10
37.435880
20
11.482639
30
0.0
0
LWPOLYLINE
100
AcDbPolyline
8
Layer_1
90
29
70
0
10
46.121735
20
12.728074
30
0.0
10
46.964736
20
13.088950
30
0.0
10
47.343936
20
13.409190
30
0.0
10
47.247557
20
13.692093
30
0.0
10
46.663816
20
13.940961
30
0.0
10
43.987131
20
14.349795
30
0.0
10
39.219638
20
14.662100
30
0.0
10
33.634934
20
14.991692
30
0.0
10
29.618409
20
15.420345
30
0.0
10
26.658430
20
16.023748
30
0.0
10
24.243362
20
16.877587
30
0.0
10
23.157240
20
17.491105
30
0.0
10
22.368300
20
18.174955
30
0.0
10
21.835879
20
18.693296
30
0.0
10
21.366498
20
18.908889
30
0.0
10
21.154073
20
18.803972
30
0.0
10
21.039602
20
18.401987
30
0.0
10
21.042252
20
16.183419
30
0.0
10
21.202965
20
14.168640
30
0.0
10
21.448592
20
13.151852
30
0.0
10
23.647629
20
12.883387
30
0.0
10
29.356995
20
12.684707
30
0.0
10
34.790038
20
12.505769
30
0.0
10
37.176874
20
12.301709
30
0.0
10
38.551950
20
12.154245
30
0.0
10
41.323168
20
12.215336
30
0.0
10
44.257455
20
12.426204
30
0.0
10
46.121735
20
12.728074
30
0.0
10
46.121735
20
12.728074
30
0.0
0
LWPOLYLINE
100
AcDbPolyline
8
Layer_1
90
24
70
0
10
53.283556
20
19.838264
30
0.0
10
53.283556
20
20.767638
30
0.0
10
51.547889
20
20.764506
30
0.0
10
49.493047
20
20.953268
30
0.0
10
46.990000
20
21.411497
30
0.0
10
45.097325
20
21.744614
30
0.0
10
42.937572
20
21.961819
30
0.0
10
38.480515
20
22.065530
30
0.0
10
34.946196
20
21.756701
30
0.0
10
33.939865
20
21.458230
30
0.0
10
33.699498
20
21.274844
30
0.0
10
33.661982
20
21.069400
30
0.0
10
33.842300
20
20.826143
30
0.0
10
34.230594
20
20.613157
30
0.0
10
35.735646
20
20.262198
30
0.0
10
38.386202
20
19.984918
30
0.0
10
42.391327
20
19.749711
30
0.0
10
49.953333
20
19.202755
30
0.0
10
52.112333
20
18.937777
30
0.0
10
52.777211
20
18.939135
30
0.0
10
53.126277
20
19.037569
30
0.0
10
53.261177
20
19.311229
30
0.0
10
53.283556
20
19.838263
30
0.0
10
53.283556
20
19.838264
30
0.0
  0
ENDSEC
  0
SECTION
  2
OBJECTS
  0
DICTIONARY
  5
C
330
0
100
AcDbDictionary
  3
ACAD_GROUP
350
D
  3
ACAD_MLINESTYLE
350
17
  0
DICTIONARY
  5
D
330
C
100
AcDbDictionary
  0
DICTIONARY
  5
1A
330
C
100
AcDbDictionary
  0
DICTIONARY
  5
17
330
C
100
AcDbDictionary
  3
STANDARD
350
18
  0
DICTIONARY
  5
19
330
C
100
AcDbDictionary
  0
ENDSEC
  0
EOF
