999
Inkscape export via OpenSCAD DXF Export
  0
SECTION
  2
HEADER
  9
$ACADVER
  1
AC1014
  9
$HANDSEED
  5
FFFF
  9
$MEASUREMENT
 70
     1
  0
ENDSEC
  0
SECTION
  2
TABLES
  0
TABLE
  2
VPORT
  5
8
330
0
100
AcDbSymbolTable
 70
     4
  0
VPORT
  5
2E
330
8
100
AcDbSymbolTableRecord
100
AcDbViewportTableRecord
  2
*ACTIVE
 70
     0
 10
0.0
 20
0.0
 11
1.0
 21
1.0
 12
210.0
 22
148.5
 13
0.0
 23
0.0
 14
10.0
 24
10.0
 15
10.0
 25
10.0
 16
0.0
 26
0.0
 36
1.0
 17
0.0
 27
0.0
 37
0.0
 40
341.0
 41
1.24
 42
50.0
 43
0.0
 44
0.0
 50
0.0
 51
0.0
 71
     0
 72
   100
 73
     1
 74
     3
 75
     0
 76
     0
 77
     0
 78
     0
  0
ENDTAB
  0
TABLE
  2
LTYPE
  5
5
330
0
100
AcDbSymbolTable
 70
     1
  0
LTYPE
  5
14
330
5
100
AcDbSymbolTableRecord
100
AcDbLinetypeTableRecord
  2
BYBLOCK
 70
     0
  3

 72
    65
 73
     0
 40
0.0
  0
LTYPE
  5
15
330
5
100
AcDbSymbolTableRecord
100
AcDbLinetypeTableRecord
  2
BYLAYER
 70
     0
  3

 72
    65
 73
     0
 40
0.0
  0
LTYPE
  5
16
330
5
100
AcDbSymbolTableRecord
100
AcDbLinetypeTableRecord
  2
CONTINUOUS
 70
     0
  3
Solid line
 72
    65
 73
     0
 40
0.0
  0
ENDTAB
  0
TABLE
0
TABLE
2
LAYER
5
2
330
0
100
AcDbSymbolTable
70
1
0
LAYER
5
10
330
2
100
AcDbSymbolTableRecord
100
AcDbLayerTableRecord
2
Layer_1
70
0
62
7
6
CONTINUOUS
0
ENDTAB
0
ENDSEC
  0
ENDTAB
  0
TABLE
  2
STYLE
  5
3
330
0
100
AcDbSymbolTable
 70
     1
  0
STYLE
  5
11
330
3
100
AcDbSymbolTableRecord
100
AcDbTextStyleTableRecord
  2
STANDARD
 70
     0
 40
0.0
 41
1.0
 50
0.0
 71
     0
 42
2.5
  3
txt
  4

  0
ENDTAB
  0
TABLE
  2
VIEW
  5
6
330
0
100
AcDbSymbolTable
 70
     0
  0
ENDTAB
  0
TABLE
  2
UCS
  5
7
330
0
100
AcDbSymbolTable
 70
     0
  0
ENDTAB
  0
TABLE
  2
APPID
  5
9
330
0
100
AcDbSymbolTable
 70
     2
  0
APPID
  5
12
330
9
100
AcDbSymbolTableRecord
100
AcDbRegAppTableRecord
  2
ACAD
 70
     0
  0
ENDTAB
  0
TABLE
  2
DIMSTYLE
  5
A
330
0
100
AcDbSymbolTable
 70
     1
  0
DIMSTYLE
105
27
330
A
100
AcDbSymbolTableRecord
100
AcDbDimStyleTableRecord
  2
ISO-25
 70
     0
  3

  4

  5

  6

  7

 40
1.0
 41
2.5
 42
0.625
 43
3.75
 44
1.25
 45
0.0
 46
0.0
 47
0.0
 48
0.0
140
2.5
141
2.5
142
0.0
143
0.03937007874016
144
1.0
145
0.0
146
1.0
147
0.625
 71
     0
 72
     0
 73
     0
 74
     0
 75
     0
 76
     0
 77
     1
 78
     8
170
     0
171
     3
172
     1
173
     0
174
     0
175
     0
176
     0
177
     0
178
     0
270
     2
271
     2
272
     2
273
     2
274
     3
340
11
275
     0
280
     0
281
     0
282
     0
283
     0
284
     8
285
     0
286
     0
287
     3
288
     0
  0
ENDTAB
  0
TABLE
  2
BLOCK_RECORD
  5
1
330
0
100
AcDbSymbolTable
 70
     1
  0
BLOCK_RECORD
  5
1F
330
1
100
AcDbSymbolTableRecord
100
AcDbBlockTableRecord
  2
*MODEL_SPACE
  0
BLOCK_RECORD
  5
1B
330
1
100
AcDbSymbolTableRecord
100
AcDbBlockTableRecord
  2
*PAPER_SPACE
  0
ENDTAB
  0
ENDSEC
  0
SECTION
  2
BLOCKS
  0
BLOCK
  5
20
330
1F
100
AcDbEntity
  8
0
100
AcDbBlockBegin
  2
*MODEL_SPACE
 70
     0
 10
0.0
 20
0.0
 30
0.0
  3
*MODEL_SPACE
  1

  0
ENDBLK
  5
21
330
1F
100
AcDbEntity
  8
0
100
AcDbBlockEnd
  0
BLOCK
  5
1C
330
1B
100
AcDbEntity
 67
     1
  8
0
100
AcDbBlockBegin
  2
*PAPER_SPACE
  1

  0
ENDBLK
  5
1D
330
1B
100
AcDbEntity
 67
     1
  8
0
100
AcDbBlockEnd
  0
ENDSEC
  0
SECTION
  2
ENTITIES
0
DIMENSION
5
83
100
AcDbEntity
62
256
370
-1
6
ByLayer
1
total_width
3
Standard
70
0
71
5
72
1
41
1.0
100
AcDbAlignedDimension
13
0.282222
23
0.000000
33
0.0
14
84.658721
24
0.000000
34
0.0
50
0.000000
100
AcDbRotatedDimension
0
DIMENSION
5
83
100
AcDbEntity
62
256
370
-1
6
ByLayer
1
total_height
3
Standard
70
0
71
5
72
1
41
1.0
100
AcDbAlignedDimension
13
0.000000
23
0.846850
33
0.0
14
0.000000
24
64.346667
34
0.0
50
90.000000
100
AcDbRotatedDimension
0
DIMENSION
8
Layer_1
5
83
100
AcDbEntity
62
256
370
-1
6
ByLayer
1
Layer_1_width
3
Standard
70
0
71
5
72
1
41
1.0
100
AcDbAlignedDimension
13
0.282222
23
0.000000
33
0.0
14
84.658721
24
0.000000
34
0.0
50
0.000000
100
AcDbRotatedDimension
0
DIMENSION
8
Layer_1
5
83
100
AcDbEntity
62
256
370
-1
6
ByLayer
1
Layer_1_height
3
Standard
70
0
71
5
72
1
41
1.0
100
AcDbAlignedDimension
13
0.000000
23
0.846850
33
0.0
14
0.000000
24
64.346667
34
0.0
50
90.000000
100
AcDbRotatedDimension
0
LWPOLYLINE
100
AcDbPolyline
8
Layer_1
90
180
70
0
10
63.093281
20
1.287602
30
0.0
10
62.489359
20
1.574150
30
0.0
10
61.806667
20
1.693333
30
0.0
10
61.123975
20
1.815051
30
0.0
10
60.520052
20
2.107692
30
0.0
10
59.598007
20
2.531025
30
0.0
10
58.875730
20
2.892475
30
0.0
10
57.643945
20
3.773744
30
0.0
10
55.109392
20
5.976815
30
0.0
10
54.413872
20
6.908069
30
0.0
10
54.021950
20
7.808587
30
0.0
10
53.967046
20
8.302084
30
0.0
10
54.066072
20
8.708351
30
0.0
10
54.933667
20
9.687283
30
0.0
10
57.952413
20
12.303067
30
0.0
10
59.788061
20
13.576215
30
0.0
10
60.540147
20
13.665006
30
0.0
10
61.491263
20
13.552486
30
0.0
10
62.307097
20
13.306491
30
0.0
10
62.653333
20
12.994852
30
0.0
10
63.178027
20
12.564202
30
0.0
10
64.439526
20
11.876840
30
0.0
10
66.272234
20
11.169319
30
0.0
10
68.260767
20
11.006667
30
0.0
10
70.431774
20
11.219876
30
0.0
10
71.294382
20
11.504729
30
0.0
10
72.030912
20
11.924718
30
0.0
10
72.658257
20
12.492068
30
0.0
10
73.193305
20
13.219009
30
0.0
10
74.054075
20
15.200568
30
0.0
10
74.328346
20
16.198951
30
0.0
10
74.366854
20
16.769638
30
0.0
10
74.164710
20
16.934622
30
0.0
10
73.717020
20
16.715895
30
0.0
10
72.818826
20
16.191865
30
0.0
10
71.750543
20
15.752844
30
0.0
10
69.247515
20
15.151640
30
0.0
10
66.495540
20
14.955901
30
0.0
10
63.782222
20
15.209243
30
0.0
10
61.243236
20
15.870135
30
0.0
10
60.320910
20
16.245496
30
0.0
10
59.765602
20
16.603732
30
0.0
10
59.130588
20
16.933333
30
0.0
10
58.585947
20
17.305729
30
0.0
10
57.705365
20
18.201064
30
0.0
10
56.802075
20
19.097066
30
0.0
10
56.202834
20
19.471064
30
0.0
10
55.630449
20
19.240638
30
0.0
10
54.791723
20
18.683599
30
0.0
10
52.986855
20
17.413056
30
0.0
10
52.421371
20
17.101273
30
0.0
10
52.211111
20
17.085996
30
0.0
10
51.152778
20
16.701307
30
0.0
10
48.687447
20
15.734242
30
0.0
10
45.611990
20
15.014314
30
0.0
10
42.212514
20
14.591995
30
0.0
10
38.775126
20
14.517757
30
0.0
10
35.116254
20
14.725150
30
0.0
10
33.639771
20
15.064695
30
0.0
10
25.163768
20
15.248393
30
0.0
10
19.165451
20
15.340095
30
0.0
10
16.779510
20
15.542791
30
0.0
10
16.589837
20
15.689930
30
0.0
10
16.368889
20
15.663333
30
0.0
10
16.155757
20
15.624090
30
0.0
10
15.984875
20
15.740823
30
0.0
10
15.578874
20
15.922360
30
0.0
10
14.800454
20
16.038917
30
0.0
10
13.763091
20
16.222831
30
0.0
10
12.734525
20
16.566312
30
0.0
10
11.571111
20
17.060762
30
0.0
10
10.245015
20
17.744104
30
0.0
10
8.775613
20
18.957446
30
0.0
10
7.535984
20
20.342893
30
0.0
10
6.899205
20
21.542550
30
0.0
10
6.387967
20
22.832396
30
0.0
10
6.111086
20
25.732728
30
0.0
10
5.926667
20
33.980174
30
0.0
10
5.785556
20
44.732222
30
0.0
10
3.386667
20
44.873333
30
0.0
10
1.337995
20
45.090017
30
0.0
10
1.008300
20
45.299703
30
0.0
10
0.897045
20
45.653630
30
0.0
10
0.755989
20
46.057481
30
0.0
10
0.544267
20
46.130863
30
0.0
10
0.354843
20
46.961571
30
0.0
10
0.282222
20
49.388889
30
0.0
10
0.355002
20
51.881943
30
0.0
10
0.443474
20
52.485353
30
0.0
10
0.564444
20
52.634444
30
0.0
10
0.763764
20
52.635612
30
0.0
10
0.846667
20
52.883355
30
0.0
10
1.034888
20
53.363867
30
0.0
10
1.630811
20
53.700876
30
0.0
10
2.681329
20
53.909934
30
0.0
10
4.233333
20
54.006593
30
0.0
10
5.785556
20
54.045556
30
0.0
10
5.926667
20
58.561111
30
0.0
10
6.066217
20
62.110811
30
0.0
10
6.299355
20
63.147641
30
0.0
10
6.791567
20
63.805628
30
0.0
10
7.655478
20
64.169647
30
0.0
10
9.003712
20
64.324576
30
0.0
10
13.603652
20
64.346667
30
0.0
10
20.026306
20
64.346667
30
0.0
10
20.564043
20
63.288333
30
0.0
10
20.841072
20
62.596592
30
0.0
10
20.998874
20
61.700428
30
0.0
10
21.063668
20
58.208251
30
0.0
10
21.111054
20
55.251246
30
0.0
10
21.307778
20
54.153997
30
0.0
10
24.130000
20
54.154730
30
0.0
10
25.874177
20
54.093631
30
0.0
10
27.235788
20
53.851673
30
0.0
10
28.255215
20
53.417385
30
0.0
10
28.972843
20
52.779298
30
0.0
10
29.336774
20
52.515256
30
0.0
10
29.841732
20
52.849853
30
0.0
10
30.406904
20
53.196020
30
0.0
10
31.005176
20
53.340000
30
0.0
10
32.662405
20
53.772613
30
0.0
10
33.446812
20
53.985849
30
0.0
10
34.739940
20
54.113680
30
0.0
10
39.992517
20
54.175844
30
0.0
10
44.714973
20
54.069366
30
0.0
10
47.203066
20
53.853325
30
0.0
10
49.388889
20
53.336092
30
0.0
10
51.849203
20
52.656055
30
0.0
10
54.822708
20
51.351144
30
0.0
10
56.785445
20
50.517778
30
0.0
10
57.955925
20
51.227588
30
0.0
10
60.107415
20
52.744721
30
0.0
10
61.703732
20
53.434803
30
0.0
10
63.074790
20
53.880433
30
0.0
10
64.517857
20
54.126443
30
0.0
10
66.825210
20
54.230191
30
0.0
10
68.938790
20
54.140514
30
0.0
10
70.715588
20
53.858733
30
0.0
10
72.183936
20
53.378191
30
0.0
10
73.372167
20
52.692234
30
0.0
10
74.042186
20
52.315816
30
0.0
10
74.546293
20
52.754409
30
0.0
10
75.271571
20
53.340000
30
0.0
10
75.854046
20
53.671379
30
0.0
10
76.981518
20
53.923093
30
0.0
10
79.614443
20
54.024157
30
0.0
10
82.636803
20
53.948161
30
0.0
10
83.202693
20
53.749608
30
0.0
10
83.572844
20
53.372495
30
0.0
10
83.956525
20
52.970504
30
0.0
10
84.135612
20
52.949162
30
0.0
10
84.215127
20
53.131933
30
0.0
10
84.291163
20
52.534264
30
0.0
10
84.429139
20
49.386481
30
0.0
10
84.623052
20
38.003258
30
0.0
10
84.658721
20
25.021487
30
0.0
10
84.477521
20
16.663165
30
0.0
10
84.284032
20
15.026402
30
0.0
10
84.180945
20
14.744103
30
0.0
10
84.075716
20
14.828720
30
0.0
10
83.981607
20
14.955155
30
0.0
10
83.909745
20
14.802874
30
0.0
10
83.838096
20
13.687778
30
0.0
10
83.696235
20
12.249032
30
0.0
10
83.385446
20
11.167793
30
0.0
10
82.885672
20
9.891011
30
0.0
10
82.219513
20
8.349647
30
0.0
10
80.852925
20
6.338332
30
0.0
10
79.222884
20
4.428813
30
0.0
10
77.766364
20
3.192836
30
0.0
10
75.683887
20
2.136835
30
0.0
10
74.302724
20
1.693333
30
0.0
10
73.204482
20
1.286307
30
0.0
10
72.562021
20
1.093837
30
0.0
10
71.382663
20
0.956452
30
0.0
10
68.131943
20
0.846850
30
0.0
10
64.889692
20
0.957330
30
0.0
10
63.720921
20
1.095047
30
0.0
10
63.093281
20
1.287718
30
0.0
10
63.093281
20
1.287602
30
0.0
0
LWPOLYLINE
100
AcDbPolyline
8
Layer_1
90
92
70
0
10
70.178103
20
2.350697
30
0.0
10
71.378705
20
2.538603
30
0.0
10
73.302631
20
2.866596
30
0.0
10
75.443569
20
3.753355
30
0.0
10
77.506503
20
5.045941
30
0.0
10
79.196418
20
6.591413
30
0.0
10
80.213129
20
8.025832
30
0.0
10
81.157951
20
9.846358
30
0.0
10
81.954634
20
11.884058
30
0.0
10
82.526926
20
13.970000
30
0.0
10
82.778720
20
15.729241
30
0.0
10
82.911384
20
18.844498
30
0.0
10
82.918506
20
34.290000
30
0.0
10
82.832222
20
52.352222
30
0.0
10
79.610458
20
52.432458
30
0.0
10
77.202783
20
52.411088
30
0.0
10
76.102537
20
52.226537
30
0.0
10
75.919809
20
51.599948
30
0.0
10
75.882319
20
50.495302
30
0.0
10
75.948258
20
49.050224
30
0.0
10
74.310240
20
50.283477
30
0.0
10
72.887963
20
51.274549
30
0.0
10
71.647744
20
51.962434
30
0.0
10
70.554929
20
52.363304
30
0.0
10
69.574859
20
52.493333
30
0.0
10
68.855523
20
52.558448
30
0.0
10
68.476314
20
52.715002
30
0.0
10
68.056570
20
52.838772
30
0.0
10
67.103344
20
52.844561
30
0.0
10
64.064444
20
52.522609
30
0.0
10
62.853845
20
52.245330
30
0.0
10
61.660006
20
51.790341
30
0.0
10
60.509265
20
51.178204
30
0.0
10
59.427958
20
50.429476
30
0.0
10
58.442423
20
49.564720
30
0.0
10
57.578996
20
48.604493
30
0.0
10
56.864014
20
47.569357
30
0.0
10
56.323814
20
46.479871
30
0.0
10
55.737929
20
45.014444
30
0.0
10
55.287028
20
43.473445
30
0.0
10
54.987439
20
41.381691
30
0.0
10
54.763433
20
34.713333
30
0.0
10
54.818170
20
29.855475
30
0.0
10
55.072891
20
26.616493
30
0.0
10
55.636437
20
24.250931
30
0.0
10
56.617650
20
22.013333
30
0.0
10
57.384775
20
20.897565
30
0.0
10
58.552224
20
19.604970
30
0.0
10
59.832677
20
18.425685
30
0.0
10
60.938811
20
17.649845
30
0.0
10
62.983966
20
16.891497
30
0.0
10
65.364774
20
16.425062
30
0.0
10
67.571493
20
16.314636
30
0.0
10
68.450274
20
16.412957
30
0.0
10
69.094381
20
16.624317
30
0.0
10
70.306785
20
16.933333
30
0.0
10
71.094902
20
17.095347
30
0.0
10
72.117752
20
17.513271
30
0.0
10
73.161921
20
18.084934
30
0.0
10
74.013994
20
18.708164
30
0.0
10
75.345375
20
19.707360
30
0.0
10
75.981729
20
20.082499
30
0.0
10
75.827633
20
18.014027
30
0.0
10
75.453834
20
14.659912
30
0.0
10
75.195393
20
13.653342
30
0.0
10
74.847614
20
12.875401
30
0.0
10
74.233665
20
11.989605
30
0.0
10
73.466503
20
11.194148
30
0.0
10
72.636780
20
10.569642
30
0.0
10
71.835151
20
10.196697
30
0.0
10
69.815950
20
9.597359
30
0.0
10
68.134067
20
9.379901
30
0.0
10
66.230698
20
9.631676
30
0.0
10
64.222752
20
10.324453
30
0.0
10
62.227138
20
11.430000
30
0.0
10
60.536667
20
12.558889
30
0.0
10
59.612050
20
11.658750
30
0.0
10
56.856579
20
9.414301
30
0.0
10
55.025725
20
8.069995
30
0.0
10
56.785899
20
6.436129
30
0.0
10
58.279940
20
5.154908
30
0.0
10
59.400259
20
4.368887
30
0.0
10
60.677778
20
3.694963
30
0.0
10
62.787169
20
2.924115
30
0.0
10
64.965010
20
2.538603
30
0.0
10
65.739095
20
2.477442
30
0.0
10
66.137412
20
2.328333
30
0.0
10
66.799658
20
2.185075
30
0.0
10
68.119551
20
2.143403
30
0.0
10
69.458546
20
2.199785
30
0.0
10
70.178103
20
2.350685
30
0.0
10
70.178103
20
2.350697
30
0.0
0
LWPOLYLINE
100
AcDbPolyline
8
Layer_1
90
40
70
0
10
66.221429
20
24.130000
30
0.0
10
65.796300
20
24.428979
30
0.0
10
65.368650
20
24.553333
30
0.0
10
64.708015
20
24.939655
30
0.0
10
63.828038
20
25.906050
30
0.0
10
62.956242
20
27.163662
30
0.0
10
62.320147
20
28.423636
30
0.0
10
62.077988
20
29.434748
30
0.0
10
61.903782
20
30.911983
30
0.0
10
61.760240
20
34.650572
30
0.0
10
61.891530
20
38.410909
30
0.0
10
62.299658
20
40.964497
30
0.0
10
62.905249
20
42.190389
30
0.0
10
63.769154
20
43.280550
30
0.0
10
64.829681
20
44.204298
30
0.0
10
66.025135
20
44.930949
30
0.0
10
67.293823
20
45.429821
30
0.0
10
68.574051
20
45.670231
30
0.0
10
69.804126
20
45.621496
30
0.0
10
70.922354
20
45.252934
30
0.0
10
71.896117
20
44.829600
30
0.0
10
72.110185
20
44.869094
30
0.0
10
72.412775
20
44.743568
30
0.0
10
73.448339
20
43.898596
30
0.0
10
74.506672
20
42.722722
30
0.0
10
74.888889
20
42.073334
30
0.0
10
75.226066
20
41.370831
30
0.0
10
75.505020
20
40.188103
30
0.0
10
75.862820
20
36.836445
30
0.0
10
75.911415
20
32.927300
30
0.0
10
75.599931
20
29.369611
30
0.0
10
75.133902
20
27.569988
30
0.0
10
74.193146
20
26.170997
30
0.0
10
73.024729
20
25.000077
30
0.0
10
71.816529
20
24.240282
30
0.0
10
70.431496
20
23.829762
30
0.0
10
68.732578
20
23.706667
30
0.0
10
67.034675
20
23.805835
30
0.0
10
66.221429
20
24.130000
30
0.0
10
66.221429
20
24.130000
30
0.0
0
LWPOLYLINE
100
AcDbPolyline
8
Layer_1
90
37
70
0
10
71.766080
20
25.838119
30
0.0
10
72.047788
20
26.126656
30
0.0
10
72.404024
20
26.246667
30
0.0
10
72.693099
20
26.332926
30
0.0
10
72.813333
20
26.540316
30
0.0
10
73.367161
20
27.598649
30
0.0
10
73.854527
20
28.449139
30
0.0
10
74.153367
20
29.599344
30
0.0
10
74.432589
20
34.369321
30
0.0
10
74.433386
20
38.124103
30
0.0
10
74.300666
20
39.169046
30
0.0
10
74.055501
20
40.013766
30
0.0
10
73.188838
20
41.791111
30
0.0
10
72.813333
20
42.497151
30
0.0
10
72.460997
20
42.867738
30
0.0
10
71.613889
20
43.392935
30
0.0
10
69.908435
20
43.960317
30
0.0
10
68.118282
20
43.984558
30
0.0
10
66.432692
20
43.491201
30
0.0
10
65.688252
20
43.058406
30
0.0
10
65.040925
20
42.505791
30
0.0
10
64.166642
20
41.481685
30
0.0
10
63.707339
20
40.289512
30
0.0
10
63.529598
20
38.253095
30
0.0
10
63.500000
20
34.696253
30
0.0
10
63.587668
20
29.866418
30
0.0
10
63.737533
20
28.790317
30
0.0
10
63.993889
20
28.130802
30
0.0
10
64.629529
20
27.229253
30
0.0
10
65.452261
20
26.383842
30
0.0
10
66.326004
20
25.715957
30
0.0
10
67.114674
20
25.346987
30
0.0
10
68.319002
20
25.226506
30
0.0
10
69.799399
20
25.300270
30
0.0
10
71.100284
20
25.520175
30
0.0
10
71.766080
20
25.838119
30
0.0
10
71.766080
20
25.838119
30
0.0
0
LWPOLYLINE
100
AcDbPolyline
8
Layer_1
90
123
70
0
10
45.861111
20
16.620964
30
0.0
10
48.443763
20
17.386006
30
0.0
10
49.670219
20
17.780000
30
0.0
10
50.756456
20
18.181196
30
0.0
10
51.928889
20
18.756709
30
0.0
10
52.916667
20
19.276159
30
0.0
10
54.271058
20
20.185086
30
0.0
10
54.993562
20
20.915648
30
0.0
10
55.156299
20
21.581618
30
0.0
10
54.831386
20
22.296769
30
0.0
10
54.222649
20
23.674318
30
0.0
10
53.728681
20
25.791940
30
0.0
10
53.389168
20
28.423498
30
0.0
10
53.243799
20
31.342852
30
0.0
10
53.156659
20
33.912157
30
0.0
10
52.904034
20
35.433339
30
0.0
10
52.684667
20
35.893048
30
0.0
10
52.386731
20
36.201324
30
0.0
10
51.505556
20
36.511038
30
0.0
10
49.812222
20
36.929853
30
0.0
10
46.150284
20
37.770086
30
0.0
10
41.910000
20
38.233056
30
0.0
10
38.100000
20
38.539270
30
0.0
10
35.784327
20
38.856716
30
0.0
10
34.749728
20
39.074116
30
0.0
10
34.126991
20
39.396384
30
0.0
10
33.471499
20
39.793333
30
0.0
10
32.968315
20
39.993082
30
0.0
10
32.555442
20
40.536358
30
0.0
10
32.276056
20
41.339204
30
0.0
10
32.173333
20
42.317665
30
0.0
10
32.203609
20
43.105055
30
0.0
10
32.354021
20
43.643338
30
0.0
10
32.713951
20
44.108203
30
0.0
10
33.372778
20
44.675336
30
0.0
10
34.387927
20
45.345124
30
0.0
10
35.559526
20
45.758389
30
0.0
10
37.101779
20
45.963977
30
0.0
10
39.228889
20
46.010733
30
0.0
10
42.295621
20
45.866112
30
0.0
10
44.950238
20
45.453490
30
0.0
10
47.343639
20
44.739180
30
0.0
10
49.626720
20
43.689495
30
0.0
10
50.879629
20
43.140072
30
0.0
10
51.686912
20
43.051662
30
0.0
10
53.133891
20
44.132747
30
0.0
10
53.869993
20
44.859373
30
0.0
10
54.186667
20
45.321558
30
0.0
10
54.782753
20
46.702427
30
0.0
10
55.659079
20
48.310271
30
0.0
10
55.796762
20
48.803318
30
0.0
10
55.301317
20
49.359215
30
0.0
10
54.635413
20
49.768307
30
0.0
10
54.005195
20
49.943944
30
0.0
10
53.534313
20
50.064554
30
0.0
10
53.251495
20
50.341345
30
0.0
10
52.911773
20
50.662442
30
0.0
10
52.304078
20
50.889573
30
0.0
10
49.388889
20
51.659623
30
0.0
10
47.117072
20
52.196151
30
0.0
10
44.628568
20
52.527201
30
0.0
10
41.684398
20
52.673784
30
0.0
10
38.045585
20
52.656912
30
0.0
10
34.149771
20
52.476658
30
0.0
10
33.092526
20
52.319880
30
0.0
10
32.428335
20
52.098722
30
0.0
10
31.177312
20
51.646667
30
0.0
10
29.245117
20
50.944670
30
0.0
10
27.808259
20
50.445744
30
0.0
10
27.629856
20
50.646092
30
0.0
10
27.645869
20
51.169606
30
0.0
10
27.567373
20
51.864898
30
0.0
10
26.979851
20
52.265656
30
0.0
10
25.626066
20
52.449321
30
0.0
10
23.248777
20
52.493333
30
0.0
10
19.473333
20
52.493333
30
0.0
10
19.473333
20
57.560545
30
0.0
10
19.473333
20
62.627757
30
0.0
10
18.556111
20
62.797448
30
0.0
10
12.700000
20
62.880792
30
0.0
10
7.761111
20
62.794444
30
0.0
10
7.620000
20
57.601568
30
0.0
10
7.478889
20
52.408692
30
0.0
10
4.989414
20
52.468945
30
0.0
10
3.043563
20
52.426277
30
0.0
10
2.096636
20
52.194487
30
0.0
10
1.908461
20
51.899749
30
0.0
10
1.783732
20
51.346611
30
0.0
10
1.693333
20
49.235645
30
0.0
10
1.693333
20
46.611515
30
0.0
10
2.552085
20
46.422901
30
0.0
10
5.162641
20
46.291828
30
0.0
10
7.267222
20
46.316906
30
0.0
10
7.438718
20
45.774530
30
0.0
10
7.547055
20
43.938897
30
0.0
10
7.620000
20
34.908386
30
0.0
10
7.696523
20
25.532073
30
0.0
10
7.822627
20
23.696773
30
0.0
10
8.034358
20
22.984497
30
0.0
10
8.457691
20
21.933922
30
0.0
10
8.588384
20
21.531137
30
0.0
10
8.890000
20
21.268727
30
0.0
10
9.313333
20
20.854249
30
0.0
10
9.880183
20
20.041979
30
0.0
10
10.689888
20
19.473333
30
0.0
10
11.288889
20
19.050000
30
0.0
10
11.682523
20
18.751021
30
0.0
10
12.135556
20
18.626667
30
0.0
10
12.579764
20
18.512945
30
0.0
10
12.952184
20
18.239528
30
0.0
10
13.530109
20
17.918177
30
0.0
10
14.468407
20
17.689209
30
0.0
10
15.956891
20
17.438759
30
0.0
10
16.933333
20
17.120260
30
0.0
10
25.400000
20
16.822697
30
0.0
10
33.370007
20
16.630692
30
0.0
10
34.903798
20
16.481865
30
0.0
10
35.480721
20
16.260019
30
0.0
10
36.982629
20
16.122115
30
0.0
10
40.105855
20
16.167339
30
0.0
10
43.511611
20
16.349139
30
0.0
10
45.861111
20
16.620964
30
0.0
10
45.861111
20
16.620964
30
0.0
0
LWPOLYLINE
100
AcDbPolyline
8
Layer_1
90
50
70
0
10
36.124444
20
23.272665
30
0.0
10
35.471846
20
23.462355
30
0.0
10
34.190379
20
23.587493
30
0.0
10
28.927778
20
23.691427
30
0.0
10
23.604880
20
23.791617
30
0.0
10
22.539335
20
23.922928
30
0.0
10
22.123331
20
24.135427
30
0.0
10
21.702048
20
24.430573
30
0.0
10
21.129177
20
24.553333
30
0.0
10
20.492859
20
24.769973
30
0.0
10
19.955953
20
25.470556
30
0.0
10
19.692920
20
26.252841
30
0.0
10
19.554484
20
27.843690
30
0.0
10
19.538997
20
36.396507
30
0.0
10
19.614444
20
46.405234
30
0.0
10
21.405336
20
46.415394
30
0.0
10
22.739564
20
46.385788
30
0.0
10
23.420459
20
46.226094
30
0.0
10
23.569946
20
45.858956
30
0.0
10
23.309947
20
45.207021
30
0.0
10
22.934345
20
43.713473
30
0.0
10
22.833371
20
41.599948
30
0.0
10
22.998646
20
39.425303
30
0.0
10
23.421789
20
37.748399
30
0.0
10
24.077847
20
36.643552
30
0.0
10
25.028618
20
35.462601
30
0.0
10
26.057154
20
34.446375
30
0.0
10
26.946507
20
33.835704
30
0.0
10
27.940000
20
33.344225
30
0.0
10
29.639598
20
32.546291
30
0.0
10
31.185556
20
32.076085
30
0.0
10
33.161111
20
31.660600
30
0.0
10
37.112222
20
31.213157
30
0.0
10
43.350631
20
30.595071
30
0.0
10
45.680629
20
30.196563
30
0.0
10
47.014917
20
29.805176
30
0.0
10
48.130983
20
29.029021
30
0.0
10
48.762128
20
28.104612
30
0.0
10
48.907153
20
27.035025
30
0.0
10
48.564862
20
25.823333
30
0.0
10
48.077548
20
25.133603
30
0.0
10
47.333071
20
24.445888
30
0.0
10
46.531725
20
23.917729
30
0.0
10
45.873803
20
23.706667
30
0.0
10
44.693927
20
23.285072
30
0.0
10
43.034883
20
22.960681
30
0.0
10
40.381157
20
22.849509
30
0.0
10
37.741446
20
22.953013
30
0.0
10
36.124444
20
23.272654
30
0.0
10
36.124444
20
23.272665
30
0.0
0
LWPOLYLINE
100
AcDbPolyline
8
Layer_1
90
42
70
0
10
45.054181
20
25.048805
30
0.0
10
46.761741
20
26.104839
30
0.0
10
47.242710
20
26.642893
30
0.0
10
47.413333
20
27.133036
30
0.0
10
47.136424
20
27.671718
30
0.0
10
46.404446
20
28.198348
30
0.0
10
45.365523
20
28.632557
30
0.0
10
44.167778
20
28.893979
30
0.0
10
41.572005
20
29.308244
30
0.0
10
38.044227
20
29.614856
30
0.0
10
34.987963
20
29.772703
30
0.0
10
32.314444
20
30.211186
30
0.0
10
30.430387
20
30.672675
30
0.0
10
28.669333
20
31.274779
30
0.0
10
27.058995
20
31.999316
30
0.0
10
25.627088
20
32.828102
30
0.0
10
24.401326
20
33.742956
30
0.0
10
23.409424
20
34.725694
30
0.0
10
22.679095
20
35.758134
30
0.0
10
22.238053
20
36.822092
30
0.0
10
21.870908
20
37.789417
30
0.0
10
21.673855
20
37.996587
30
0.0
10
21.458514
20
38.033887
30
0.0
10
21.235969
20
37.815786
30
0.0
10
21.113121
20
37.088263
30
0.0
10
21.085546
20
33.015482
30
0.0
10
21.156102
20
27.163889
30
0.0
10
21.291121
20
26.408850
30
0.0
10
21.881080
20
26.246667
30
0.0
10
22.433353
20
26.122313
30
0.0
10
22.757941
20
25.823333
30
0.0
10
23.065372
20
25.605993
30
0.0
10
23.985727
20
25.475360
30
0.0
10
28.887417
20
25.387272
30
0.0
10
33.722543
20
25.291650
30
0.0
10
34.994948
20
25.169748
30
0.0
10
35.701111
20
24.986858
30
0.0
10
37.534574
20
24.646989
30
0.0
10
40.359362
20
24.548361
30
0.0
10
43.193293
20
24.684468
30
0.0
10
45.054181
20
25.048805
30
0.0
10
45.054181
20
25.048805
30
0.0
0
LWPOLYLINE
100
AcDbPolyline
8
Layer_1
90
32
70
0
10
53.273822
20
39.891170
30
0.0
10
53.351007
20
41.816154
30
0.0
10
52.428281
20
41.604413
30
0.0
10
51.507149
20
41.451352
30
0.0
10
50.694734
20
41.502784
30
0.0
10
49.772684
20
41.802972
30
0.0
10
48.522647
20
42.396184
30
0.0
10
46.277630
20
43.443268
30
0.0
10
44.341072
20
44.061403
30
0.0
10
42.242418
20
44.357160
30
0.0
10
39.511111
20
44.437110
30
0.0
10
36.982906
20
44.347908
30
0.0
10
35.240659
20
44.044195
30
0.0
10
34.175369
20
43.492771
30
0.0
10
33.862520
20
43.113792
30
0.0
10
33.678035
20
42.660435
30
0.0
10
33.715501
20
41.912085
30
0.0
10
34.265370
20
41.287170
30
0.0
10
35.361158
20
40.762272
30
0.0
10
37.036381
20
40.313975
30
0.0
10
39.347721
20
39.961449
30
0.0
10
41.627778
20
39.806729
30
0.0
10
43.802653
20
39.678515
30
0.0
10
45.861111
20
39.389718
30
0.0
10
48.824444
20
38.910751
30
0.0
10
50.166738
20
38.572580
30
0.0
10
51.415835
20
38.100337
30
0.0
10
52.774432
20
37.917846
30
0.0
10
52.979293
20
38.036378
30
0.0
10
53.122235
20
38.370884
30
0.0
10
53.273822
20
39.891170
30
0.0
10
53.273822
20
39.891170
30
0.0
  0
ENDSEC
  0
SECTION
  2
OBJECTS
  0
DICTIONARY
  5
C
330
0
100
AcDbDictionary
  3
ACAD_GROUP
350
D
  3
ACAD_MLINESTYLE
350
17
  0
DICTIONARY
  5
D
330
C
100
AcDbDictionary
  0
DICTIONARY
  5
1A
330
C
100
AcDbDictionary
  0
DICTIONARY
  5
17
330
C
100
AcDbDictionary
  3
STANDARD
350
18
  0
DICTIONARY
  5
19
330
C
100
AcDbDictionary
  0
ENDSEC
  0
EOF
