999
Inkscape export via OpenSCAD DXF Export
  0
SECTION
  2
HEADER
  9
$ACADVER
  1
AC1014
  9
$HANDSEED
  5
FFFF
  9
$MEASUREMENT
 70
     1
  0
ENDSEC
  0
SECTION
  2
TABLES
  0
TABLE
  2
VPORT
  5
8
330
0
100
AcDbSymbolTable
 70
     4
  0
VPORT
  5
2E
330
8
100
AcDbSymbolTableRecord
100
AcDbViewportTableRecord
  2
*ACTIVE
 70
     0
 10
0.0
 20
0.0
 11
1.0
 21
1.0
 12
210.0
 22
148.5
 13
0.0
 23
0.0
 14
10.0
 24
10.0
 15
10.0
 25
10.0
 16
0.0
 26
0.0
 36
1.0
 17
0.0
 27
0.0
 37
0.0
 40
341.0
 41
1.24
 42
50.0
 43
0.0
 44
0.0
 50
0.0
 51
0.0
 71
     0
 72
   100
 73
     1
 74
     3
 75
     0
 76
     0
 77
     0
 78
     0
  0
ENDTAB
  0
TABLE
  2
LTYPE
  5
5
330
0
100
AcDbSymbolTable
 70
     1
  0
LTYPE
  5
14
330
5
100
AcDbSymbolTableRecord
100
AcDbLinetypeTableRecord
  2
BYBLOCK
 70
     0
  3

 72
    65
 73
     0
 40
0.0
  0
LTYPE
  5
15
330
5
100
AcDbSymbolTableRecord
100
AcDbLinetypeTableRecord
  2
BYLAYER
 70
     0
  3

 72
    65
 73
     0
 40
0.0
  0
LTYPE
  5
16
330
5
100
AcDbSymbolTableRecord
100
AcDbLinetypeTableRecord
  2
CONTINUOUS
 70
     0
  3
Solid line
 72
    65
 73
     0
 40
0.0
  0
ENDTAB
  0
TABLE
0
TABLE
2
LAYER
5
2
330
0
100
AcDbSymbolTable
70
1
0
LAYER
5
10
330
2
100
AcDbSymbolTableRecord
100
AcDbLayerTableRecord
2
Calque_1
70
0
62
7
6
CONTINUOUS
0
ENDTAB
0
ENDSEC
  0
ENDTAB
  0
TABLE
  2
STYLE
  5
3
330
0
100
AcDbSymbolTable
 70
     1
  0
STYLE
  5
11
330
3
100
AcDbSymbolTableRecord
100
AcDbTextStyleTableRecord
  2
STANDARD
 70
     0
 40
0.0
 41
1.0
 50
0.0
 71
     0
 42
2.5
  3
txt
  4

  0
ENDTAB
  0
TABLE
  2
VIEW
  5
6
330
0
100
AcDbSymbolTable
 70
     0
  0
ENDTAB
  0
TABLE
  2
UCS
  5
7
330
0
100
AcDbSymbolTable
 70
     0
  0
ENDTAB
  0
TABLE
  2
APPID
  5
9
330
0
100
AcDbSymbolTable
 70
     2
  0
APPID
  5
12
330
9
100
AcDbSymbolTableRecord
100
AcDbRegAppTableRecord
  2
ACAD
 70
     0
  0
ENDTAB
  0
TABLE
  2
DIMSTYLE
  5
A
330
0
100
AcDbSymbolTable
 70
     1
  0
DIMSTYLE
105
27
330
A
100
AcDbSymbolTableRecord
100
AcDbDimStyleTableRecord
  2
ISO-25
 70
     0
  3

  4

  5

  6

  7

 40
1.0
 41
2.5
 42
0.625
 43
3.75
 44
1.25
 45
0.0
 46
0.0
 47
0.0
 48
0.0
140
2.5
141
2.5
142
0.0
143
0.03937007874016
144
1.0
145
0.0
146
1.0
147
0.625
 71
     0
 72
     0
 73
     0
 74
     0
 75
     0
 76
     0
 77
     1
 78
     8
170
     0
171
     3
172
     1
173
     0
174
     0
175
     0
176
     0
177
     0
178
     0
270
     2
271
     2
272
     2
273
     2
274
     3
340
11
275
     0
280
     0
281
     0
282
     0
283
     0
284
     8
285
     0
286
     0
287
     3
288
     0
  0
ENDTAB
  0
TABLE
  2
BLOCK_RECORD
  5
1
330
0
100
AcDbSymbolTable
 70
     1
  0
BLOCK_RECORD
  5
1F
330
1
100
AcDbSymbolTableRecord
100
AcDbBlockTableRecord
  2
*MODEL_SPACE
  0
BLOCK_RECORD
  5
1B
330
1
100
AcDbSymbolTableRecord
100
AcDbBlockTableRecord
  2
*PAPER_SPACE
  0
ENDTAB
  0
ENDSEC
  0
SECTION
  2
BLOCKS
  0
BLOCK
  5
20
330
1F
100
AcDbEntity
  8
0
100
AcDbBlockBegin
  2
*MODEL_SPACE
 70
     0
 10
0.0
 20
0.0
 30
0.0
  3
*MODEL_SPACE
  1

  0
ENDBLK
  5
21
330
1F
100
AcDbEntity
  8
0
100
AcDbBlockEnd
  0
BLOCK
  5
1C
330
1B
100
AcDbEntity
 67
     1
  8
0
100
AcDbBlockBegin
  2
*PAPER_SPACE
  1

  0
ENDBLK
  5
1D
330
1B
100
AcDbEntity
 67
     1
  8
0
100
AcDbBlockEnd
  0
ENDSEC
  0
SECTION
  2
ENTITIES
0
DIMENSION
5
83
100
AcDbEntity
62
256
370
-1
6
ByLayer
1
total_width
3
Standard
70
0
71
5
72
1
41
1.0
100
AcDbAlignedDimension
13
0.075077
23
0.000000
33
0.0
14
175.987716
24
0.000000
34
0.0
50
0.000000
100
AcDbRotatedDimension
0
DIMENSION
5
83
100
AcDbEntity
62
256
370
-1
6
ByLayer
1
total_height
3
Standard
70
0
71
5
72
1
41
1.0
100
AcDbAlignedDimension
13
0.000000
23
0.110315
33
0.0
14
0.000000
24
62.667598
34
0.0
50
90.000000
100
AcDbRotatedDimension
0
DIMENSION
8
Calque_1
5
83
100
AcDbEntity
62
256
370
-1
6
ByLayer
1
Calque_1_width
3
Standard
70
0
71
5
72
1
41
1.0
100
AcDbAlignedDimension
13
0.075077
23
0.000000
33
0.0
14
175.987716
24
0.000000
34
0.0
50
0.000000
100
AcDbRotatedDimension
0
DIMENSION
8
Calque_1
5
83
100
AcDbEntity
62
256
370
-1
6
ByLayer
1
Calque_1_height
3
Standard
70
0
71
5
72
1
41
1.0
100
AcDbAlignedDimension
13
0.000000
23
0.110315
33
0.0
14
0.000000
24
62.667598
34
0.0
50
90.000000
100
AcDbRotatedDimension
0
LWPOLYLINE
100
AcDbPolyline
8
Calque_1
90
103
70
0
10
39.259868
20
62.667584
30
0.0
10
33.403757
20
62.658779
30
0.0
10
18.366605
20
62.588223
30
0.0
10
18.013827
20
61.459334
30
0.0
10
17.299452
20
59.060445
30
0.0
10
16.708549
20
57.226001
30
0.0
10
15.720771
20
54.121557
30
0.0
10
14.688896
20
51.228779
30
0.0
10
14.276666
20
51.066721
30
0.0
10
13.288870
20
50.945460
30
0.0
10
9.335494
20
50.805445
30
0.0
10
4.255494
20
50.734890
30
0.0
10
3.858619
20
49.464890
30
0.0
10
1.768410
20
42.691557
30
0.0
10
0.886466
20
40.081001
30
0.0
10
0.639522
20
39.022668
30
0.0
10
0.556619
20
38.623239
30
0.0
10
0.357299
20
38.458223
30
0.0
10
0.157980
20
38.333869
30
0.0
10
0.075077
20
38.034890
30
0.0
10
0.256147
20
37.816786
30
0.0
10
0.970239
20
37.688149
30
0.0
10
5.022785
20
37.611557
30
0.0
10
9.116176
20
37.529497
30
0.0
10
9.873599
20
37.392735
30
0.0
10
10.138063
20
37.161765
30
0.0
10
10.197644
20
36.782411
30
0.0
10
10.088016
20
36.108203
30
0.0
10
9.106188
20
32.813779
30
0.0
10
6.971883
20
25.520098
30
0.0
10
6.510527
20
23.371369
30
0.0
10
6.566188
20
22.362737
30
0.0
10
6.848410
20
21.286765
30
0.0
10
7.013314
20
20.590390
30
0.0
10
7.438083
20
19.641756
30
0.0
10
8.647577
20
17.803084
30
0.0
10
9.897677
20
16.636238
30
0.0
10
11.481712
20
15.490359
30
0.0
10
13.154599
20
14.524083
30
0.0
10
14.671258
20
13.896045
30
0.0
10
18.500282
20
12.835395
30
0.0
10
20.640233
20
12.516298
30
0.0
10
23.682890
20
12.303874
30
0.0
10
34.733553
20
12.096606
30
0.0
10
56.166743
20
12.008712
30
0.0
10
80.335073
20
11.870430
30
0.0
10
90.386188
20
11.700017
30
0.0
10
89.990047
20
10.393988
30
0.0
10
89.451327
20
9.204101
30
0.0
10
89.257299
20
8.348629
30
0.0
10
89.001535
20
7.193267
30
0.0
10
88.137230
20
4.591545
30
0.0
10
87.131813
20
1.434184
30
0.0
10
86.893033
20
0.583513
30
0.0
10
87.078896
20
0.252379
30
0.0
10
94.434924
20
0.127665
30
0.0
10
110.317321
20
0.110315
30
0.0
10
126.802050
20
0.186045
30
0.0
10
135.965077
20
0.340573
30
0.0
10
142.007979
20
0.925592
30
0.0
10
147.147183
20
1.857369
30
0.0
10
151.700368
20
3.210352
30
0.0
10
155.985216
20
5.058990
30
0.0
10
158.423639
20
6.400551
30
0.0
10
159.980424
20
7.537240
30
0.0
10
161.259243
20
8.692601
30
0.0
10
162.443658
20
9.880361
30
0.0
10
163.444589
20
11.203797
30
0.0
10
164.254636
20
12.651878
30
0.0
10
164.866396
20
14.213573
30
0.0
10
165.757160
20
16.868223
30
0.0
10
166.595007
20
19.549334
30
0.0
10
167.432855
20
22.230445
30
0.0
10
167.997299
20
24.064890
30
0.0
10
168.579382
20
25.899334
30
0.0
10
169.426049
20
28.580445
30
0.0
10
170.537299
20
32.249334
30
0.0
10
171.666188
20
35.918223
30
0.0
10
172.512855
20
38.599334
30
0.0
10
173.077299
20
40.433779
30
0.0
10
173.668202
20
42.188848
30
0.0
10
173.923966
20
43.247182
30
0.0
10
173.996511
20
43.651020
30
0.0
10
174.170910
20
43.820445
30
0.0
10
174.345320
20
44.031738
30
0.0
10
174.417855
20
44.543640
30
0.0
10
174.700077
20
45.884195
30
0.0
10
175.609157
20
48.187867
30
0.0
10
175.987716
20
50.170445
30
0.0
10
175.870431
20
50.356403
30
0.0
10
174.972495
20
50.497114
30
0.0
10
167.805066
20
50.672386
30
0.0
10
110.776743
20
50.805445
30
0.0
10
62.546058
20
50.929478
30
0.0
10
45.512855
20
51.149404
30
0.0
10
45.945007
20
52.763362
30
0.0
10
46.976882
20
56.097112
30
0.0
10
47.779452
20
58.637112
30
0.0
10
48.555676
20
61.168739
30
0.0
10
48.717957
20
62.064441
30
0.0
10
48.679035
20
62.500029
30
0.0
10
39.259868
20
62.667598
30
0.0
10
39.259868
20
62.667584
30
0.0
0
LWPOLYLINE
100
AcDbPolyline
8
Calque_1
90
134
70
0
10
32.680563
20
59.342654
30
0.0
10
38.753348
20
59.281598
30
0.0
10
41.279521
20
59.139806
30
0.0
10
39.586188
20
53.504181
30
0.0
10
37.892855
20
47.780362
30
0.0
10
39.947059
20
47.562352
30
0.0
10
46.077299
20
47.489320
30
0.0
10
54.261743
20
47.418765
30
0.0
10
53.697299
20
45.513765
30
0.0
10
53.132855
20
43.599945
30
0.0
10
54.817368
20
44.376056
30
0.0
10
56.787561
20
45.254516
30
0.0
10
58.943770
20
45.999313
30
0.0
10
61.252663
20
46.600555
30
0.0
10
63.680910
20
47.048348
30
0.0
10
66.813772
20
47.243758
30
0.0
10
72.620950
20
47.390158
30
0.0
10
88.433008
20
47.528583
30
0.0
10
103.466586
20
47.448940
30
0.0
10
108.300665
20
47.322753
30
0.0
10
110.071188
20
47.136542
30
0.0
10
109.445007
20
45.231542
30
0.0
10
108.955465
20
43.975893
30
0.0
10
108.483688
20
43.141334
30
0.0
10
108.193046
20
42.716914
30
0.0
10
108.730632
20
42.823834
30
0.0
10
110.423966
20
43.529390
30
0.0
10
112.747826
20
44.481685
30
0.0
10
115.697342
20
45.379125
30
0.0
10
119.052878
20
46.163086
30
0.0
10
122.594799
20
46.774945
30
0.0
10
124.959116
20
46.982807
30
0.0
10
129.145282
20
47.111538
30
0.0
10
146.901188
20
47.198279
30
0.0
10
162.948522
20
47.130308
30
0.0
10
168.279521
20
46.916056
30
0.0
10
167.898751
20
45.434837
30
0.0
10
167.362299
20
44.384876
30
0.0
10
167.212428
20
44.203031
30
0.0
10
167.150632
20
43.767515
30
0.0
10
166.865658
20
42.271665
30
0.0
10
166.268688
20
40.645431
30
0.0
10
166.021743
20
39.587098
30
0.0
10
165.765980
20
38.519945
30
0.0
10
164.884035
20
35.918209
30
0.0
10
163.763966
20
32.249320
30
0.0
10
162.652716
20
28.580431
30
0.0
10
161.806049
20
25.899320
30
0.0
10
161.259243
20
24.205987
30
0.0
10
158.948549
20
16.938765
30
0.0
10
158.683966
20
15.898070
30
0.0
10
158.601063
20
15.458676
30
0.0
10
158.401743
20
15.174876
30
0.0
10
158.202424
20
14.887037
30
0.0
10
158.119521
20
14.442865
30
0.0
10
157.922185
20
13.736380
30
0.0
10
157.398530
20
12.766274
30
0.0
10
155.782368
20
10.694587
30
0.0
10
154.392898
20
9.449286
30
0.0
10
152.778524
20
8.324570
30
0.0
10
150.936630
20
7.319299
30
0.0
10
148.864603
20
6.432333
30
0.0
10
146.559827
20
5.662532
30
0.0
10
144.019686
20
5.008757
30
0.0
10
141.241567
20
4.469868
30
0.0
10
138.222855
20
4.044726
30
0.0
10
138.222855
20
4.035977
30
0.0
10
130.870036
20
3.821731
30
0.0
10
115.292299
20
3.744921
30
0.0
10
94.901743
20
3.744921
30
0.0
10
94.901743
20
4.459310
30
0.0
10
95.067549
20
5.310351
30
0.0
10
95.466188
20
6.346643
30
0.0
10
96.030632
20
8.013532
30
0.0
10
96.348132
20
9.212976
30
0.0
10
96.674452
20
9.909698
30
0.0
10
115.327577
20
10.024365
30
0.0
10
126.728352
20
10.109011
30
0.0
10
132.823527
20
10.282556
30
0.0
10
135.788713
20
10.684194
30
0.0
10
137.799521
20
11.453115
30
0.0
10
138.982155
20
12.167801
30
0.0
10
140.073714
20
13.143557
30
0.0
10
140.874844
20
14.169269
30
0.0
10
141.186188
20
15.033821
30
0.0
10
141.152363
20
15.216532
30
0.0
10
140.955643
20
15.354851
30
0.0
10
139.502045
20
15.523008
30
0.0
10
128.353896
20
15.598266
30
0.0
10
117.542764
20
15.687492
30
0.0
10
112.417160
20
16.030418
30
0.0
10
108.311654
20
16.825307
30
0.0
10
106.652954
20
17.309701
30
0.0
10
105.449799
20
17.803127
30
0.0
10
103.650632
20
18.588057
30
0.0
10
102.195424
20
19.372988
30
0.0
10
101.936718
20
19.436450
30
0.0
10
101.569243
20
19.196599
30
0.0
10
100.903635
20
18.713823
30
0.0
10
99.872011
20
18.198980
30
0.0
10
96.984616
20
17.156705
30
0.0
10
93.454865
20
16.236999
30
0.0
10
89.830563
20
15.607085
30
0.0
10
78.567059
20
15.382762
30
0.0
10
56.683158
20
15.305521
30
0.0
10
34.787994
20
15.376861
30
0.0
10
23.490702
20
15.598280
30
0.0
10
20.100260
20
16.213156
30
0.0
10
17.389713
20
17.160207
30
0.0
10
16.286072
20
17.759775
30
0.0
10
15.348411
20
18.444159
30
0.0
10
14.575398
20
19.213949
30
0.0
10
13.965702
20
20.069738
30
0.0
10
13.544495
20
20.889585
30
0.0
10
13.278821
20
21.732530
30
0.0
10
13.181955
20
22.697476
30
0.0
10
13.267170
20
23.883326
30
0.0
10
14.036938
20
27.313352
30
0.0
10
15.694313
20
32.813835
30
0.0
10
18.137299
20
40.716057
30
0.0
10
13.295424
20
40.768974
30
0.0
10
8.109591
20
40.821891
30
0.0
10
8.002757
20
41.058019
30
0.0
10
8.072127
20
41.661293
30
0.0
10
8.788688
20
44.217377
30
0.0
10
9.811744
20
47.480571
30
0.0
10
15.041674
20
47.480571
30
0.0
10
20.271605
20
47.489377
30
0.0
10
21.938480
20
52.922154
30
0.0
10
23.843480
20
58.848821
30
0.0
10
24.206540
20
59.117626
30
0.0
10
25.380442
20
59.266107
30
0.0
10
32.680563
20
59.342710
30
0.0
10
32.680563
20
59.342654
30
0.0
0
LWPOLYLINE
100
AcDbPolyline
8
Calque_1
90
30
70
0
10
106.120077
20
41.686126
30
0.0
10
106.049521
20
41.659682
30
0.0
10
100.345105
20
41.448733
30
0.0
10
87.422855
20
41.280445
30
0.0
10
69.360632
20
41.139334
30
0.0
10
68.037716
20
40.363223
30
0.0
10
67.042253
20
39.681920
30
0.0
10
66.254747
20
38.952783
30
0.0
10
65.736954
20
38.245359
30
0.0
10
65.550632
20
37.629195
30
0.0
10
65.685569
20
37.055328
30
0.0
10
66.068478
20
36.478140
30
0.0
10
66.666510
20
35.934085
30
0.0
10
67.446813
20
35.459612
30
0.0
10
68.394854
20
35.165335
30
0.0
10
70.466903
20
34.981079
30
0.0
10
82.201743
20
34.736418
30
0.0
10
96.797924
20
34.348362
30
0.0
10
97.498176
20
34.097338
30
0.0
10
97.540756
20
33.909132
30
0.0
10
97.424105
20
33.625168
30
0.0
10
97.201337
20
33.132341
30
0.0
10
97.310846
20
33.147850
30
0.0
10
98.253132
20
34.436557
30
0.0
10
99.411762
20
36.009809
30
0.0
10
100.827216
20
37.519242
30
0.0
10
102.551947
20
39.015301
30
0.0
10
104.638410
20
40.548432
30
0.0
10
106.120077
20
41.686140
30
0.0
10
106.120077
20
41.686126
30
0.0
0
LWPOLYLINE
100
AcDbPolyline
8
Calque_1
90
44
70
0
10
45.609868
20
40.751265
30
0.0
10
42.805285
20
40.715987
30
0.0
10
35.573341
20
40.574876
30
0.0
10
33.350841
20
33.378209
30
0.0
10
31.775935
20
28.083676
30
0.0
10
31.119521
20
25.449529
30
0.0
10
31.209366
20
24.949543
30
0.0
10
31.476698
20
24.489930
30
0.0
10
32.530603
20
23.698341
30
0.0
10
34.254801
20
23.087815
30
0.0
10
36.622855
20
22.671404
30
0.0
10
45.270369
20
22.472490
30
0.0
10
61.540701
20
22.403786
30
0.0
10
77.655235
20
22.466689
30
0.0
10
85.835355
20
22.662598
30
0.0
10
87.283694
20
22.969400
30
0.0
10
88.377305
20
23.367104
30
0.0
10
89.139212
20
23.866756
30
0.0
10
89.592438
20
24.479404
30
0.0
10
89.761586
20
25.018238
30
0.0
10
89.773121
20
25.538886
30
0.0
10
89.336557
20
26.509852
30
0.0
10
88.309148
20
27.360767
30
0.0
10
86.717299
20
28.060098
30
0.0
10
82.552489
20
28.351043
30
0.0
10
72.182855
20
28.580445
30
0.0
10
60.856515
20
28.832264
30
0.0
10
58.280923
20
29.005606
30
0.0
10
56.828202
20
29.250723
30
0.0
10
54.997711
20
29.820029
30
0.0
10
53.347077
20
30.526250
30
0.0
10
51.896365
20
31.351893
30
0.0
10
50.665640
20
32.279459
30
0.0
10
49.674965
20
33.291455
30
0.0
10
48.944407
20
34.370384
30
0.0
10
48.494029
20
35.498749
30
0.0
10
48.343896
20
36.659057
30
0.0
10
48.484168
20
37.647440
30
0.0
10
48.827823
20
38.755168
30
0.0
10
49.273473
20
39.716629
30
0.0
10
49.719730
20
40.266209
30
0.0
10
50.028410
20
40.654265
30
0.0
10
45.609868
20
40.751279
30
0.0
10
45.609868
20
40.751265
30
0.0
0
LWPOLYLINE
100
AcDbPolyline
8
Calque_1
90
32
70
0
10
145.931049
20
40.486681
30
0.0
10
135.867564
20
40.388947
30
0.0
10
128.909521
20
40.116265
30
0.0
10
126.432690
20
39.540981
30
0.0
10
124.139824
20
38.735565
30
0.0
10
122.061107
20
37.722768
30
0.0
10
120.226720
20
36.525339
30
0.0
10
118.666845
20
35.166029
30
0.0
10
117.411665
20
33.667590
30
0.0
10
116.491362
20
32.052770
30
0.0
10
115.936118
20
30.344320
30
0.0
10
115.926538
20
29.313173
30
0.0
10
116.178698
20
28.031090
30
0.0
10
116.611635
20
26.794372
30
0.0
10
117.144382
20
25.899320
30
0.0
10
117.931053
20
25.159499
30
0.0
10
118.905611
20
24.494895
30
0.0
10
121.383056
20
23.403483
30
0.0
10
124.506060
20
22.649382
30
0.0
10
128.203966
20
22.256890
30
0.0
10
136.617716
20
22.203973
30
0.0
10
140.807125
20
22.239930
30
0.0
10
142.878810
20
22.469126
30
0.0
10
143.394488
20
22.743852
30
0.0
10
143.709514
20
23.172082
30
0.0
10
144.175980
20
24.629320
30
0.0
10
145.137299
20
27.733765
30
0.0
10
146.804174
20
33.095987
30
0.0
10
148.523966
20
38.581681
30
0.0
10
148.956118
20
40.380848
30
0.0
10
145.931049
20
40.486681
30
0.0
10
145.931049
20
40.486681
30
0.0
0
LWPOLYLINE
100
AcDbPolyline
8
Calque_1
90
7
70
0
10
96.162924
20
30.414876
30
0.0
10
96.083549
20
29.850431
30
0.0
10
96.129431
20
29.396445
30
0.0
10
96.224660
20
29.497654
30
0.0
10
96.215855
20
30.344320
30
0.0
10
96.162938
20
30.414876
30
0.0
10
96.162924
20
30.414876
30
0.0
0
LWPOLYLINE
100
AcDbPolyline
8
Calque_1
90
7
70
0
10
96.136480
20
27.398626
30
0.0
10
96.057105
20
27.001751
30
0.0
10
96.112185
20
26.710249
30
0.0
10
96.224674
20
26.834181
30
0.0
10
96.198230
20
27.372167
30
0.0
10
96.136494
20
27.398612
30
0.0
10
96.136480
20
27.398626
30
0.0
0
LWPOLYLINE
100
AcDbPolyline
8
Calque_1
90
7
70
0
10
96.418702
20
26.269737
30
0.0
10
96.339327
20
25.872862
30
0.0
10
96.394408
20
25.581360
30
0.0
10
96.506896
20
25.705292
30
0.0
10
96.480452
20
26.243279
30
0.0
10
96.418716
20
26.269723
30
0.0
10
96.418702
20
26.269737
30
0.0
0
LWPOLYLINE
100
AcDbPolyline
8
Calque_1
90
9
70
0
10
96.894952
20
24.479390
30
0.0
10
96.877313
20
24.435292
30
0.0
10
97.459396
20
23.394598
30
0.0
10
98.069986
20
22.721330
30
0.0
10
98.232417
20
22.638091
30
0.0
10
98.288424
20
22.733140
30
0.0
10
97.582869
20
23.782654
30
0.0
10
96.894952
20
24.479390
30
0.0
10
96.894952
20
24.479390
30
0.0
0
LWPOLYLINE
100
AcDbPolyline
8
Calque_1
90
8
70
0
10
98.323702
20
22.371542
30
0.0
10
98.863796
20
21.609067
30
0.0
10
99.840646
20
20.607654
30
0.0
10
100.176014
20
20.394207
30
0.0
10
100.209332
20
20.467643
30
0.0
10
99.417313
20
21.383765
30
0.0
10
98.323702
20
22.371542
30
0.0
10
98.323702
20
22.371542
30
0.0
0
LWPOLYLINE
100
AcDbPolyline
8
Calque_1
90
8
70
0
10
100.546202
20
20.395987
30
0.0
10
100.793146
20
20.043209
30
0.0
10
101.287035
20
19.549320
30
0.0
10
101.390504
20
19.591180
30
0.0
10
101.356404
20
19.710924
30
0.0
10
100.898980
20
20.149042
30
0.0
10
100.546202
20
20.395987
30
0.0
10
100.546202
20
20.395987
30
0.0
  0
ENDSEC
  0
SECTION
  2
OBJECTS
  0
DICTIONARY
  5
C
330
0
100
AcDbDictionary
  3
ACAD_GROUP
350
D
  3
ACAD_MLINESTYLE
350
17
  0
DICTIONARY
  5
D
330
C
100
AcDbDictionary
  0
DICTIONARY
  5
1A
330
C
100
AcDbDictionary
  0
DICTIONARY
  5
17
330
C
100
AcDbDictionary
  3
STANDARD
350
18
  0
DICTIONARY
  5
19
330
C
100
AcDbDictionary
  0
ENDSEC
  0
EOF
