999
Inkscape export via OpenSCAD DXF Export
  0
SECTION
  2
HEADER
  9
$ACADVER
  1
AC1014
  9
$HANDSEED
  5
FFFF
  9
$MEASUREMENT
 70
     1
  0
ENDSEC
  0
SECTION
  2
TABLES
  0
TABLE
  2
VPORT
  5
8
330
0
100
AcDbSymbolTable
 70
     4
  0
VPORT
  5
2E
330
8
100
AcDbSymbolTableRecord
100
AcDbViewportTableRecord
  2
*ACTIVE
 70
     0
 10
0.0
 20
0.0
 11
1.0
 21
1.0
 12
210.0
 22
148.5
 13
0.0
 23
0.0
 14
10.0
 24
10.0
 15
10.0
 25
10.0
 16
0.0
 26
0.0
 36
1.0
 17
0.0
 27
0.0
 37
0.0
 40
341.0
 41
1.24
 42
50.0
 43
0.0
 44
0.0
 50
0.0
 51
0.0
 71
     0
 72
   100
 73
     1
 74
     3
 75
     0
 76
     0
 77
     0
 78
     0
  0
ENDTAB
  0
TABLE
  2
LTYPE
  5
5
330
0
100
AcDbSymbolTable
 70
     1
  0
LTYPE
  5
14
330
5
100
AcDbSymbolTableRecord
100
AcDbLinetypeTableRecord
  2
BYBLOCK
 70
     0
  3

 72
    65
 73
     0
 40
0.0
  0
LTYPE
  5
15
330
5
100
AcDbSymbolTableRecord
100
AcDbLinetypeTableRecord
  2
BYLAYER
 70
     0
  3

 72
    65
 73
     0
 40
0.0
  0
LTYPE
  5
16
330
5
100
AcDbSymbolTableRecord
100
AcDbLinetypeTableRecord
  2
CONTINUOUS
 70
     0
  3
Solid line
 72
    65
 73
     0
 40
0.0
  0
ENDTAB
  0
TABLE
0
TABLE
2
LAYER
5
2
330
0
100
AcDbSymbolTable
70
1
0
LAYER
5
10
330
2
100
AcDbSymbolTableRecord
100
AcDbLayerTableRecord
2
Calque_1
70
0
62
7
6
CONTINUOUS
0
ENDTAB
0
ENDSEC
  0
ENDTAB
  0
TABLE
  2
STYLE
  5
3
330
0
100
AcDbSymbolTable
 70
     1
  0
STYLE
  5
11
330
3
100
AcDbSymbolTableRecord
100
AcDbTextStyleTableRecord
  2
STANDARD
 70
     0
 40
0.0
 41
1.0
 50
0.0
 71
     0
 42
2.5
  3
txt
  4

  0
ENDTAB
  0
TABLE
  2
VIEW
  5
6
330
0
100
AcDbSymbolTable
 70
     0
  0
ENDTAB
  0
TABLE
  2
UCS
  5
7
330
0
100
AcDbSymbolTable
 70
     0
  0
ENDTAB
  0
TABLE
  2
APPID
  5
9
330
0
100
AcDbSymbolTable
 70
     2
  0
APPID
  5
12
330
9
100
AcDbSymbolTableRecord
100
AcDbRegAppTableRecord
  2
ACAD
 70
     0
  0
ENDTAB
  0
TABLE
  2
DIMSTYLE
  5
A
330
0
100
AcDbSymbolTable
 70
     1
  0
DIMSTYLE
105
27
330
A
100
AcDbSymbolTableRecord
100
AcDbDimStyleTableRecord
  2
ISO-25
 70
     0
  3

  4

  5

  6

  7

 40
1.0
 41
2.5
 42
0.625
 43
3.75
 44
1.25
 45
0.0
 46
0.0
 47
0.0
 48
0.0
140
2.5
141
2.5
142
0.0
143
0.03937007874016
144
1.0
145
0.0
146
1.0
147
0.625
 71
     0
 72
     0
 73
     0
 74
     0
 75
     0
 76
     0
 77
     1
 78
     8
170
     0
171
     3
172
     1
173
     0
174
     0
175
     0
176
     0
177
     0
178
     0
270
     2
271
     2
272
     2
273
     2
274
     3
340
11
275
     0
280
     0
281
     0
282
     0
283
     0
284
     8
285
     0
286
     0
287
     3
288
     0
  0
ENDTAB
  0
TABLE
  2
BLOCK_RECORD
  5
1
330
0
100
AcDbSymbolTable
 70
     1
  0
BLOCK_RECORD
  5
1F
330
1
100
AcDbSymbolTableRecord
100
AcDbBlockTableRecord
  2
*MODEL_SPACE
  0
BLOCK_RECORD
  5
1B
330
1
100
AcDbSymbolTableRecord
100
AcDbBlockTableRecord
  2
*PAPER_SPACE
  0
ENDTAB
  0
ENDSEC
  0
SECTION
  2
BLOCKS
  0
BLOCK
  5
20
330
1F
100
AcDbEntity
  8
0
100
AcDbBlockBegin
  2
*MODEL_SPACE
 70
     0
 10
0.0
 20
0.0
 30
0.0
  3
*MODEL_SPACE
  1

  0
ENDBLK
  5
21
330
1F
100
AcDbEntity
  8
0
100
AcDbBlockEnd
  0
BLOCK
  5
1C
330
1B
100
AcDbEntity
 67
     1
  8
0
100
AcDbBlockBegin
  2
*PAPER_SPACE
  1

  0
ENDBLK
  5
1D
330
1B
100
AcDbEntity
 67
     1
  8
0
100
AcDbBlockEnd
  0
ENDSEC
  0
SECTION
  2
ENTITIES
0
DIMENSION
5
83
100
AcDbEntity
62
256
370
-1
6
ByLayer
1
total_width
3
Standard
70
0
71
5
72
1
41
1.0
100
AcDbAlignedDimension
13
-0.016478
23
0.000000
33
0.0
14
175.934314
24
0.000000
34
0.0
50
0.000000
100
AcDbRotatedDimension
0
DIMENSION
5
83
100
AcDbEntity
62
256
370
-1
6
ByLayer
1
total_height
3
Standard
70
0
71
5
72
1
41
1.0
100
AcDbAlignedDimension
13
0.000000
23
-0.100696
33
0.0
14
0.000000
24
87.952545
34
0.0
50
90.000000
100
AcDbRotatedDimension
0
DIMENSION
8
Calque_1
5
83
100
AcDbEntity
62
256
370
-1
6
ByLayer
1
Calque_1_width
3
Standard
70
0
71
5
72
1
41
1.0
100
AcDbAlignedDimension
13
-0.016478
23
0.000000
33
0.0
14
175.934314
24
0.000000
34
0.0
50
0.000000
100
AcDbRotatedDimension
0
DIMENSION
8
Calque_1
5
83
100
AcDbEntity
62
256
370
-1
6
ByLayer
1
Calque_1_height
3
Standard
70
0
71
5
72
1
41
1.0
100
AcDbAlignedDimension
13
0.000000
23
-0.100696
33
0.0
14
0.000000
24
87.952545
34
0.0
50
90.000000
100
AcDbRotatedDimension
0
LWPOLYLINE
100
AcDbPolyline
8
Calque_1
90
108
70
0
10
86.741051
20
0.675331
30
0.0
10
87.057910
20
1.874775
30
0.0
10
88.468101
20
8.224775
30
0.0
10
88.868431
20
9.621775
30
0.0
10
89.047333
20
10.127281
30
0.0
10
89.121745
20
10.966141
30
0.0
10
89.373871
20
12.532474
30
0.0
10
89.989438
20
14.649524
30
0.0
10
90.132206
20
15.714626
30
0.0
10
90.070886
20
16.278514
30
0.0
10
79.908669
20
16.482566
30
0.0
10
55.819164
20
16.630098
30
0.0
10
35.048243
20
16.710340
30
0.0
10
24.329622
20
16.876382
30
0.0
10
21.509214
20
17.036752
30
0.0
10
19.725029
20
17.272780
30
0.0
10
18.484782
20
17.602537
30
0.0
10
17.296189
20
18.044091
30
0.0
10
15.075686
20
18.940448
30
0.0
10
13.460110
20
19.770646
30
0.0
10
12.081703
20
20.757928
30
0.0
10
10.572709
20
22.125538
30
0.0
10
9.112773
20
23.837659
30
0.0
10
7.881152
20
25.847266
30
0.0
10
7.030346
20
27.859811
30
0.0
10
6.712855
20
29.580743
30
0.0
10
6.439232
20
31.062147
30
0.0
10
6.309466
20
32.013035
30
0.0
10
6.456535
20
33.408853
30
0.0
10
7.875432
20
40.680322
30
0.0
10
8.393567
20
43.079211
30
0.0
10
8.958012
20
45.619211
30
0.0
10
9.959360
20
50.631755
30
0.0
10
10.013243
20
51.874181
30
0.0
10
9.786738
20
52.417380
30
0.0
10
8.157539
20
52.585113
30
0.0
10
4.792079
20
52.639159
30
0.0
10
0.017395
20
52.785042
30
0.0
10
-0.016478
20
53.093487
30
0.0
10
0.144735
20
53.592415
30
0.0
10
0.793832
20
55.920322
30
0.0
10
1.685310
20
60.012545
30
0.0
10
2.520487
20
63.822545
30
0.0
10
3.048617
20
66.221434
30
0.0
10
3.632795
20
68.902545
30
0.0
10
4.231621
20
70.878100
30
0.0
10
5.862737
20
71.119262
30
0.0
10
9.477851
20
71.301434
30
0.0
10
14.473967
20
71.442545
30
0.0
10
14.798288
20
72.571434
30
0.0
10
15.728287
20
76.522545
30
0.0
10
16.585590
20
80.332545
30
0.0
10
17.727363
20
85.553656
30
0.0
10
18.164765
20
87.599767
30
0.0
10
18.908492
20
87.771561
30
0.0
10
21.354415
20
87.879865
30
0.0
10
33.357343
20
87.952545
30
0.0
10
44.135913
20
87.880091
30
0.0
10
48.603521
20
87.701607
30
0.0
10
48.462740
20
86.078829
30
0.0
10
47.932983
20
83.578100
30
0.0
10
46.221551
20
75.816989
30
0.0
10
45.596811
20
72.772754
30
0.0
10
45.457285
20
71.409598
30
0.0
10
109.948280
20
71.292295
30
0.0
10
175.209417
20
71.116011
30
0.0
10
175.934314
20
70.831496
30
0.0
10
175.912938
20
70.061493
30
0.0
10
175.577266
20
67.914767
30
0.0
10
175.172161
20
66.376656
30
0.0
10
174.917300
20
65.440880
30
0.0
10
174.633670
20
64.243248
30
0.0
10
174.305183
20
62.568468
30
0.0
10
174.212899
20
61.759944
30
0.0
10
174.054011
20
61.423656
30
0.0
10
173.863505
20
61.112770
30
0.0
10
173.695196
20
60.365322
30
0.0
10
173.267045
20
58.036989
30
0.0
10
172.698664
20
55.355878
30
0.0
10
172.137857
20
52.815878
30
0.0
10
171.530634
20
50.134767
30
0.0
10
170.936034
20
47.453656
30
0.0
10
169.846597
20
42.303100
30
0.0
10
168.984509
20
38.422545
30
0.0
10
168.159464
20
34.753656
30
0.0
10
167.020604
20
29.532545
30
0.0
10
166.326512
20
26.286989
30
0.0
10
165.603936
20
23.182545
30
0.0
10
165.016756
20
20.642545
30
0.0
10
164.342117
20
17.889564
30
0.0
10
163.462647
20
15.548733
30
0.0
10
162.271903
20
13.388632
30
0.0
10
160.663444
20
11.177836
30
0.0
10
157.880174
20
8.229361
30
0.0
10
156.511244
20
7.017173
30
0.0
10
155.628134
20
6.424056
30
0.0
10
154.879523
20
5.958813
30
0.0
10
150.729321
20
3.611260
30
0.0
10
148.691922
20
2.729766
30
0.0
10
146.139069
20
1.908822
30
0.0
10
143.073615
20
1.149234
30
0.0
10
139.498411
20
0.451811
30
0.0
10
137.168062
20
0.154667
30
0.0
10
133.122469
20
-0.008123
30
0.0
10
111.482480
20
-0.094487
30
0.0
10
86.570992
20
-0.100696
30
0.0
10
86.741051
20
0.675416
30
0.0
10
86.741051
20
0.675331
30
0.0
0
LWPOLYLINE
100
AcDbPolyline
8
Calque_1
90
138
70
0
10
137.103118
20
4.975551
30
0.0
10
139.784229
20
5.513664
30
0.0
10
143.075994
20
6.241769
30
0.0
10
146.280202
20
7.359595
30
0.0
10
149.227195
20
8.796677
30
0.0
10
151.747316
20
10.482553
30
0.0
10
153.924825
20
12.505233
30
0.0
10
155.161745
20
14.004291
30
0.0
10
155.240119
20
14.207869
30
0.0
10
155.428549
20
14.292553
30
0.0
10
155.921935
20
14.909580
30
0.0
10
156.733494
20
16.393077
30
0.0
10
157.802005
20
18.950896
30
0.0
10
158.443896
20
21.771434
30
0.0
10
158.828339
20
23.182545
30
0.0
10
159.546657
20
26.145878
30
0.0
10
160.243562
20
29.532545
30
0.0
10
161.074374
20
33.342545
30
0.0
10
161.922754
20
37.152545
30
0.0
10
162.470242
20
39.551434
30
0.0
10
164.180393
20
47.453656
30
0.0
10
165.367885
20
52.815878
30
0.0
10
166.418991
20
57.965669
30
0.0
10
166.864911
20
59.715669
30
0.0
10
167.068878
20
60.986434
30
0.0
10
167.155874
20
61.693860
30
0.0
10
167.312151
20
61.988100
30
0.0
10
167.500885
20
62.257534
30
0.0
10
167.665911
20
62.905322
30
0.0
10
168.017927
20
65.035090
30
0.0
10
168.221801
20
66.247635
30
0.0
10
146.522330
20
66.149410
30
0.0
10
132.624461
20
66.060029
30
0.0
10
124.986346
20
65.815319
30
0.0
10
122.599864
20
65.569297
30
0.0
10
120.680521
20
65.205943
30
0.0
10
116.779523
20
64.022564
30
0.0
10
113.245131
20
62.534002
30
0.0
10
110.570634
20
61.172774
30
0.0
10
108.877300
20
60.055468
30
0.0
10
107.325078
20
59.112380
30
0.0
10
108.055057
20
59.915240
30
0.0
10
108.724036
20
61.063076
30
0.0
10
109.257747
20
62.975878
30
0.0
10
109.901236
20
65.868656
30
0.0
10
110.072020
20
66.503656
30
0.0
10
88.892860
20
66.503656
30
0.0
10
76.155885
20
66.473677
30
0.0
10
68.604101
20
66.337092
30
0.0
10
64.410028
20
66.023926
30
0.0
10
61.746189
20
65.464203
30
0.0
10
59.874928
20
64.823363
30
0.0
10
57.888080
20
63.953297
30
0.0
10
56.017857
20
62.965836
30
0.0
10
54.496468
20
61.972809
30
0.0
10
53.439808
20
61.238279
30
0.0
10
53.004545
20
61.061737
30
0.0
10
53.561745
20
63.681434
30
0.0
10
54.118945
20
66.291989
30
0.0
10
51.681029
20
66.441479
30
0.0
10
45.809490
20
66.503656
30
0.0
10
39.227387
20
66.576089
30
0.0
10
37.940588
20
66.684362
30
0.0
10
37.624258
20
66.856434
30
0.0
10
41.143967
20
82.927301
30
0.0
10
38.594707
20
83.071786
30
0.0
10
32.465634
20
83.088289
30
0.0
10
23.787300
20
83.013656
30
0.0
10
21.970094
20
74.764687
30
0.0
10
20.152888
20
66.515718
30
0.0
10
14.914539
20
66.439131
30
0.0
10
9.676188
20
66.362545
30
0.0
10
8.676991
20
61.846989
30
0.0
10
7.677795
20
57.331434
30
0.0
10
12.839771
20
57.254649
30
0.0
10
16.485408
20
57.140075
30
0.0
10
18.001722
20
56.972427
30
0.0
10
15.552688
20
45.760322
30
0.0
10
13.533628
20
36.220848
30
0.0
10
13.184552
20
33.851467
30
0.0
10
13.094428
20
32.072545
30
0.0
10
13.217188
20
29.586293
30
0.0
10
13.817721
20
27.805342
30
0.0
10
15.057161
20
25.720136
30
0.0
10
15.816627
20
24.853519
30
0.0
10
16.688177
20
24.089693
30
0.0
10
18.824297
20
22.826820
30
0.0
10
21.579047
20
21.844323
30
0.0
10
23.341592
20
21.484895
30
0.0
10
27.351762
20
21.290005
30
0.0
10
54.267300
20
21.127261
30
0.0
10
73.603270
20
21.099210
30
0.0
10
84.583995
20
21.233852
30
0.0
10
90.196905
20
21.626036
30
0.0
10
91.924000
20
21.948346
30
0.0
10
93.429427
20
22.370611
30
0.0
10
95.615893
20
23.174687
30
0.0
10
97.811173
20
24.180913
30
0.0
10
99.715422
20
25.238349
30
0.0
10
101.028796
20
26.196057
30
0.0
10
101.705784
20
26.700525
30
0.0
10
102.084677
20
26.741533
30
0.0
10
103.382770
20
25.706073
30
0.0
10
104.797612
20
25.016989
30
0.0
10
105.087739
20
24.936515
30
0.0
10
105.208411
20
24.743036
30
0.0
10
105.610246
20
24.381322
30
0.0
10
106.585710
20
23.840426
30
0.0
10
108.877300
20
22.910488
30
0.0
10
110.147300
20
22.495133
30
0.0
10
111.890315
20
21.997295
30
0.0
10
114.731845
20
21.691813
30
0.0
10
119.637908
20
21.519056
30
0.0
10
127.574523
20
21.419395
30
0.0
10
141.050634
20
21.304971
30
0.0
10
141.050634
20
20.629565
30
0.0
10
140.693082
20
19.400055
30
0.0
10
139.849022
20
17.859780
30
0.0
10
138.861343
20
16.543476
30
0.0
10
138.420801
20
16.136418
30
0.0
10
138.072938
20
15.985878
30
0.0
10
137.784102
20
15.911791
30
0.0
10
137.663967
20
15.733667
30
0.0
10
137.104373
20
15.318745
30
0.0
10
135.758967
20
14.675331
30
0.0
10
133.853967
20
13.869220
30
0.0
10
115.791745
20
13.796914
30
0.0
10
97.141840
20
13.591739
30
0.0
10
96.720125
20
13.307831
30
0.0
10
96.346986
20
12.675416
30
0.0
10
95.797243
20
10.482553
30
0.0
10
95.221230
20
7.999336
30
0.0
10
94.766189
20
5.529892
30
0.0
10
94.766189
20
4.696998
30
0.0
10
115.438967
20
4.699820
30
0.0
10
130.759163
20
4.775508
30
0.0
10
137.103118
20
4.976821
30
0.0
10
137.103118
20
4.975551
30
0.0
0
LWPOLYLINE
100
AcDbPolyline
8
Calque_1
90
8
70
0
10
100.656856
20
27.768656
30
0.0
10
100.410633
20
28.121435
30
0.0
10
100.763411
20
27.875212
30
0.0
10
101.220475
20
27.436732
30
0.0
10
101.254326
20
27.316740
30
0.0
10
101.150745
20
27.274767
30
0.0
10
100.656856
20
27.768656
30
0.0
10
100.656856
20
27.768656
30
0.0
0
LWPOLYLINE
100
AcDbPolyline
8
Calque_1
90
8
70
0
10
98.993085
20
29.744211
30
0.0
10
98.407563
20
30.686815
30
0.0
10
98.852369
20
30.238100
30
0.0
10
99.814195
20
28.977839
30
0.0
10
100.035514
20
28.561648
30
0.0
10
100.010787
20
28.403656
30
0.0
10
98.993085
20
29.744211
30
0.0
10
98.993085
20
29.744211
30
0.0
0
LWPOLYLINE
100
AcDbPolyline
8
Calque_1
90
42
70
0
10
39.591745
20
31.267534
30
0.0
10
35.772163
20
31.682267
30
0.0
10
34.290465
20
32.039549
30
0.0
10
33.088197
20
32.499644
30
0.0
10
32.160886
20
33.064708
30
0.0
10
31.504060
20
33.736892
30
0.0
10
31.113245
20
34.518350
30
0.0
10
30.983967
20
35.411236
30
0.0
10
31.647189
20
39.173339
30
0.0
10
33.241745
20
46.713023
30
0.0
10
35.499523
20
57.066562
30
0.0
10
42.696189
20
57.190322
30
0.0
10
49.892856
20
57.102221
30
0.0
10
49.344066
20
55.878257
30
0.0
10
48.509089
20
53.517978
30
0.0
10
48.256452
20
51.174612
30
0.0
10
48.557617
20
48.902730
30
0.0
10
49.384050
20
46.756907
30
0.0
10
50.707215
20
44.791716
30
0.0
10
52.498576
20
43.061731
30
0.0
10
54.729598
20
41.621524
30
0.0
10
57.371745
20
40.525670
30
0.0
10
61.222267
20
40.204794
30
0.0
10
71.341745
20
39.974394
30
0.0
10
79.727330
20
39.808497
30
0.0
10
84.458596
20
39.517093
30
0.0
10
85.881658
20
39.272155
30
0.0
10
86.904499
20
38.933235
30
0.0
10
87.698239
20
38.479465
30
0.0
10
88.433997
20
37.889977
30
0.0
10
89.070059
20
37.187493
30
0.0
10
89.479152
20
36.409219
30
0.0
10
89.666729
20
35.588484
30
0.0
10
89.638243
20
34.758620
30
0.0
10
89.399147
20
33.952956
30
0.0
10
88.954894
20
33.204822
30
0.0
10
88.310937
20
32.547548
30
0.0
10
87.472729
20
32.014463
30
0.0
10
86.158411
20
31.366989
30
0.0
10
64.709523
20
31.225878
30
0.0
10
39.591745
20
31.267534
30
0.0
10
39.591745
20
31.267534
30
0.0
0
LWPOLYLINE
100
AcDbPolyline
8
Calque_1
90
37
70
0
10
124.258411
20
31.500889
30
0.0
10
122.472333
20
32.030481
30
0.0
10
120.925919
20
32.663504
30
0.0
10
119.605642
20
33.412690
30
0.0
10
118.497974
20
34.290772
30
0.0
10
117.589389
20
35.310483
30
0.0
10
116.866359
20
36.484554
30
0.0
10
116.315356
20
37.825719
30
0.0
10
115.922854
20
39.346710
30
0.0
10
115.723373
20
41.208272
30
0.0
10
115.898413
20
43.070905
30
0.0
10
116.478707
20
45.092653
30
0.0
10
117.494987
20
47.431561
30
0.0
10
118.504186
20
49.019385
30
0.0
10
119.984648
20
50.784915
30
0.0
10
121.669492
20
52.439766
30
0.0
10
123.291840
20
53.695551
30
0.0
10
126.325224
20
55.164964
30
0.0
10
129.836350
20
56.311285
30
0.0
10
133.448637
20
56.533546
30
0.0
10
139.834724
20
56.625346
30
0.0
10
145.960464
20
56.576312
30
0.0
10
148.791710
20
56.376075
30
0.0
10
148.697702
20
55.317741
30
0.0
10
148.113713
20
52.815878
30
0.0
10
146.937792
20
47.312545
30
0.0
10
146.373348
20
44.772545
30
0.0
10
145.808903
20
42.232545
30
0.0
10
145.244459
20
39.692545
30
0.0
10
144.719523
20
37.293656
30
0.0
10
143.573709
20
32.284211
30
0.0
10
143.235056
20
30.943656
30
0.0
10
134.734512
20
30.972993
30
0.0
10
127.445898
20
31.089480
30
0.0
10
125.591974
20
31.245599
30
0.0
10
124.258411
20
31.500889
30
0.0
10
124.258411
20
31.500889
30
0.0
0
LWPOLYLINE
100
AcDbPolyline
8
Calque_1
90
7
70
0
10
97.359419
20
32.509619
30
0.0
10
96.744502
20
34.126205
30
0.0
10
96.954625
20
33.922735
30
0.0
10
97.456077
20
32.948749
30
0.0
10
98.070995
20
31.332163
30
0.0
10
97.359419
20
32.509619
30
0.0
10
97.359419
20
32.509619
30
0.0
0
LWPOLYLINE
100
AcDbPolyline
8
Calque_1
90
7
70
0
10
96.221860
20
36.023656
30
0.0
10
96.263676
20
36.418326
30
0.0
10
96.364211
20
36.376434
30
0.0
10
96.364211
20
35.670878
30
0.0
10
96.263676
20
35.628986
30
0.0
10
96.221860
20
36.023656
30
0.0
10
96.221860
20
36.023656
30
0.0
0
LWPOLYLINE
100
AcDbPolyline
8
Calque_1
90
7
70
0
10
95.939638
20
37.716989
30
0.0
10
95.981454
20
38.111659
30
0.0
10
96.081988
20
38.069767
30
0.0
10
96.081988
20
37.364211
30
0.0
10
95.981454
20
37.322319
30
0.0
10
95.939638
20
37.716989
30
0.0
10
95.939638
20
37.716989
30
0.0
0
LWPOLYLINE
100
AcDbPolyline
8
Calque_1
90
7
70
0
10
95.960551
20
41.668100
30
0.0
10
95.998465
20
42.220638
30
0.0
10
96.089620
20
42.161989
30
0.0
10
96.089620
20
41.174211
30
0.0
10
95.998465
20
41.115562
30
0.0
10
95.960551
20
41.668100
30
0.0
10
95.960551
20
41.668100
30
0.0
0
LWPOLYLINE
100
AcDbPolyline
8
Calque_1
90
7
70
0
10
96.199579
20
43.196805
30
0.0
10
96.233933
20
43.528746
30
0.0
10
96.347808
20
43.567222
30
0.0
10
96.370075
20
43.026295
30
0.0
10
96.256115
20
42.903833
30
0.0
10
96.199568
20
43.196805
30
0.0
10
96.199579
20
43.196805
30
0.0
0
LWPOLYLINE
100
AcDbPolyline
8
Calque_1
90
7
70
0
10
96.764023
20
45.454583
30
0.0
10
96.798377
20
45.786524
30
0.0
10
96.912252
20
45.824999
30
0.0
10
96.934520
20
45.284072
30
0.0
10
96.820560
20
45.161611
30
0.0
10
96.764012
20
45.454583
30
0.0
10
96.764023
20
45.454583
30
0.0
0
LWPOLYLINE
100
AcDbPolyline
8
Calque_1
90
34
70
0
10
97.374659
20
47.153851
30
0.0
10
97.216123
20
47.639698
30
0.0
10
96.459520
20
47.967692
30
0.0
10
91.865471
20
48.207338
30
0.0
10
82.207298
20
48.408605
30
0.0
10
68.942853
20
48.582545
30
0.0
10
67.639023
20
49.349032
30
0.0
10
66.786167
20
49.948158
30
0.0
10
66.149013
20
50.610568
30
0.0
10
65.728603
20
51.327508
30
0.0
10
65.525983
20
52.090225
30
0.0
10
65.542197
20
52.889968
30
0.0
10
65.778288
20
53.717982
30
0.0
10
66.235302
20
54.565515
30
0.0
10
66.914282
20
55.423815
30
0.0
10
67.644934
20
56.224732
30
0.0
10
68.344384
20
56.816571
30
0.0
10
69.296959
20
57.230969
30
0.0
10
70.786988
20
57.499560
30
0.0
10
76.516713
20
57.725865
30
0.0
10
87.808175
20
57.748569
30
0.0
10
103.133218
20
57.830604
30
0.0
10
105.345595
20
58.008536
30
0.0
10
106.152620
20
58.350911
30
0.0
10
107.042853
20
58.947057
30
0.0
10
106.170451
20
58.139244
30
0.0
10
104.336006
20
56.479704
30
0.0
10
101.821742
20
53.798593
30
0.0
10
100.128409
20
51.828100
30
0.0
10
98.234226
20
48.441434
30
0.0
10
97.597195
20
47.306498
30
0.0
10
97.420013
20
47.086265
30
0.0
10
97.374659
20
47.153851
30
0.0
10
97.374659
20
47.153851
30
0.0
  0
ENDSEC
  0
SECTION
  2
OBJECTS
  0
DICTIONARY
  5
C
330
0
100
AcDbDictionary
  3
ACAD_GROUP
350
D
  3
ACAD_MLINESTYLE
350
17
  0
DICTIONARY
  5
D
330
C
100
AcDbDictionary
  0
DICTIONARY
  5
1A
330
C
100
AcDbDictionary
  0
DICTIONARY
  5
17
330
C
100
AcDbDictionary
  3
STANDARD
350
18
  0
DICTIONARY
  5
19
330
C
100
AcDbDictionary
  0
ENDSEC
  0
EOF
