999
Inkscape export via OpenSCAD DXF Export
  0
SECTION
  2
HEADER
  9
$ACADVER
  1
AC1014
  9
$HANDSEED
  5
FFFF
  9
$MEASUREMENT
 70
     1
  0
ENDSEC
  0
SECTION
  2
TABLES
  0
TABLE
  2
VPORT
  5
8
330
0
100
AcDbSymbolTable
 70
     4
  0
VPORT
  5
2E
330
8
100
AcDbSymbolTableRecord
100
AcDbViewportTableRecord
  2
*ACTIVE
 70
     0
 10
0.0
 20
0.0
 11
1.0
 21
1.0
 12
210.0
 22
148.5
 13
0.0
 23
0.0
 14
10.0
 24
10.0
 15
10.0
 25
10.0
 16
0.0
 26
0.0
 36
1.0
 17
0.0
 27
0.0
 37
0.0
 40
341.0
 41
1.24
 42
50.0
 43
0.0
 44
0.0
 50
0.0
 51
0.0
 71
     0
 72
   100
 73
     1
 74
     3
 75
     0
 76
     0
 77
     0
 78
     0
  0
ENDTAB
  0
TABLE
  2
LTYPE
  5
5
330
0
100
AcDbSymbolTable
 70
     1
  0
LTYPE
  5
14
330
5
100
AcDbSymbolTableRecord
100
AcDbLinetypeTableRecord
  2
BYBLOCK
 70
     0
  3

 72
    65
 73
     0
 40
0.0
  0
LTYPE
  5
15
330
5
100
AcDbSymbolTableRecord
100
AcDbLinetypeTableRecord
  2
BYLAYER
 70
     0
  3

 72
    65
 73
     0
 40
0.0
  0
LTYPE
  5
16
330
5
100
AcDbSymbolTableRecord
100
AcDbLinetypeTableRecord
  2
CONTINUOUS
 70
     0
  3
Solid line
 72
    65
 73
     0
 40
0.0
  0
ENDTAB
  0
TABLE
0
TABLE
2
LAYER
5
2
330
0
100
AcDbSymbolTable
70
1
0
LAYER
5
10
330
2
100
AcDbSymbolTableRecord
100
AcDbLayerTableRecord
2
Layer_1
70
0
62
7
6
CONTINUOUS
0
ENDTAB
0
ENDSEC
  0
ENDTAB
  0
TABLE
  2
STYLE
  5
3
330
0
100
AcDbSymbolTable
 70
     1
  0
STYLE
  5
11
330
3
100
AcDbSymbolTableRecord
100
AcDbTextStyleTableRecord
  2
STANDARD
 70
     0
 40
0.0
 41
1.0
 50
0.0
 71
     0
 42
2.5
  3
txt
  4

  0
ENDTAB
  0
TABLE
  2
VIEW
  5
6
330
0
100
AcDbSymbolTable
 70
     0
  0
ENDTAB
  0
TABLE
  2
UCS
  5
7
330
0
100
AcDbSymbolTable
 70
     0
  0
ENDTAB
  0
TABLE
  2
APPID
  5
9
330
0
100
AcDbSymbolTable
 70
     2
  0
APPID
  5
12
330
9
100
AcDbSymbolTableRecord
100
AcDbRegAppTableRecord
  2
ACAD
 70
     0
  0
ENDTAB
  0
TABLE
  2
DIMSTYLE
  5
A
330
0
100
AcDbSymbolTable
 70
     1
  0
DIMSTYLE
105
27
330
A
100
AcDbSymbolTableRecord
100
AcDbDimStyleTableRecord
  2
ISO-25
 70
     0
  3

  4

  5

  6

  7

 40
1.0
 41
2.5
 42
0.625
 43
3.75
 44
1.25
 45
0.0
 46
0.0
 47
0.0
 48
0.0
140
2.5
141
2.5
142
0.0
143
0.03937007874016
144
1.0
145
0.0
146
1.0
147
0.625
 71
     0
 72
     0
 73
     0
 74
     0
 75
     0
 76
     0
 77
     1
 78
     8
170
     0
171
     3
172
     1
173
     0
174
     0
175
     0
176
     0
177
     0
178
     0
270
     2
271
     2
272
     2
273
     2
274
     3
340
11
275
     0
280
     0
281
     0
282
     0
283
     0
284
     8
285
     0
286
     0
287
     3
288
     0
  0
ENDTAB
  0
TABLE
  2
BLOCK_RECORD
  5
1
330
0
100
AcDbSymbolTable
 70
     1
  0
BLOCK_RECORD
  5
1F
330
1
100
AcDbSymbolTableRecord
100
AcDbBlockTableRecord
  2
*MODEL_SPACE
  0
BLOCK_RECORD
  5
1B
330
1
100
AcDbSymbolTableRecord
100
AcDbBlockTableRecord
  2
*PAPER_SPACE
  0
ENDTAB
  0
ENDSEC
  0
SECTION
  2
BLOCKS
  0
BLOCK
  5
20
330
1F
100
AcDbEntity
  8
0
100
AcDbBlockBegin
  2
*MODEL_SPACE
 70
     0
 10
0.0
 20
0.0
 30
0.0
  3
*MODEL_SPACE
  1

  0
ENDBLK
  5
21
330
1F
100
AcDbEntity
  8
0
100
AcDbBlockEnd
  0
BLOCK
  5
1C
330
1B
100
AcDbEntity
 67
     1
  8
0
100
AcDbBlockBegin
  2
*PAPER_SPACE
  1

  0
ENDBLK
  5
1D
330
1B
100
AcDbEntity
 67
     1
  8
0
100
AcDbBlockEnd
  0
ENDSEC
  0
SECTION
  2
ENTITIES
0
DIMENSION
5
83
100
AcDbEntity
62
256
370
-1
6
ByLayer
1
total_width
3
Standard
70
0
71
5
72
1
41
1.0
100
AcDbAlignedDimension
13
1.693333
23
0.000000
33
0.0
14
82.973333
24
0.000000
34
0.0
50
0.000000
100
AcDbRotatedDimension
0
DIMENSION
5
83
100
AcDbEntity
62
256
370
-1
6
ByLayer
1
total_height
3
Standard
70
0
71
5
72
1
41
1.0
100
AcDbAlignedDimension
13
0.000000
23
2.566458
33
0.0
14
0.000000
24
62.653333
34
0.0
50
90.000000
100
AcDbRotatedDimension
0
DIMENSION
8
Layer_1
5
83
100
AcDbEntity
62
256
370
-1
6
ByLayer
1
Layer_1_width
3
Standard
70
0
71
5
72
1
41
1.0
100
AcDbAlignedDimension
13
1.693333
23
0.000000
33
0.0
14
82.973333
24
0.000000
34
0.0
50
0.000000
100
AcDbRotatedDimension
0
DIMENSION
8
Layer_1
5
83
100
AcDbEntity
62
256
370
-1
6
ByLayer
1
Layer_1_height
3
Standard
70
0
71
5
72
1
41
1.0
100
AcDbAlignedDimension
13
0.000000
23
2.566458
33
0.0
14
0.000000
24
62.653333
34
0.0
50
90.000000
100
AcDbRotatedDimension
0
LWPOLYLINE
100
AcDbPolyline
8
Layer_1
90
169
70
0
10
7.628819
20
62.653333
30
0.0
10
7.558264
20
57.502778
30
0.0
10
7.478889
20
52.361042
30
0.0
10
4.586111
20
52.369861
30
0.0
10
1.693333
20
52.378681
30
0.0
10
1.693333
20
49.397708
30
0.0
10
1.693333
20
46.425556
30
0.0
10
4.656667
20
46.513750
30
0.0
10
7.620000
20
46.601944
30
0.0
10
7.620000
20
35.207222
30
0.0
10
7.696592
20
25.816115
30
0.0
10
7.822748
20
23.978496
30
0.0
10
8.034514
20
23.265694
30
0.0
10
8.329791
20
22.724092
30
0.0
10
8.457847
20
22.189722
30
0.0
10
8.938701
20
21.356014
30
0.0
10
10.035326
20
20.161989
30
0.0
10
11.253819
20
19.091067
30
0.0
10
12.100278
20
18.626667
30
0.0
10
12.902847
20
18.317986
30
0.0
10
13.334687
20
18.031671
30
0.0
10
14.030173
20
17.785905
30
0.0
10
16.300442
20
17.406559
30
0.0
10
19.890368
20
17.161016
30
0.0
10
24.976667
20
17.030347
30
0.0
10
31.041141
20
16.860459
30
0.0
10
34.431111
20
16.598194
30
0.0
10
36.555899
20
16.321293
30
0.0
10
39.223985
20
16.191462
30
0.0
10
41.823968
20
16.220900
30
0.0
10
43.744444
20
16.421806
30
0.0
10
47.078194
20
16.986250
30
0.0
10
47.825215
20
17.141120
30
0.0
10
48.312917
20
17.418403
30
0.0
10
48.701294
20
17.674104
30
0.0
10
49.212500
20
17.780000
30
0.0
10
50.623611
20
18.203333
30
0.0
10
51.831875
20
18.626667
30
0.0
10
52.156460
20
18.743528
30
0.0
10
52.378681
20
19.023542
30
0.0
10
52.625237
20
19.351570
30
0.0
10
53.004861
20
19.587986
30
0.0
10
54.289408
20
20.277734
30
0.0
10
55.447847
20
21.387153
30
0.0
10
56.462083
20
22.295556
30
0.0
10
56.894753
20
21.901767
30
0.0
10
57.590972
20
20.955000
30
0.0
10
58.431667
20
19.915154
30
0.0
10
59.498958
20
18.884164
30
0.0
10
60.525069
20
18.094843
30
0.0
10
61.242222
20
17.780000
30
0.0
10
62.247639
20
17.321389
30
0.0
10
63.455875
20
16.952173
30
0.0
10
65.978264
20
16.827500
30
0.0
10
69.947792
20
16.928941
30
0.0
10
70.949172
20
17.118533
30
0.0
10
71.455139
20
17.418403
30
0.0
10
71.825373
20
17.674421
30
0.0
10
72.292986
20
17.780000
30
0.0
10
72.718966
20
17.904354
30
0.0
10
72.989722
20
18.203333
30
0.0
10
73.204387
20
18.502312
30
0.0
10
73.492431
20
18.626667
30
0.0
10
73.972997
20
18.875375
30
0.0
10
74.647778
20
19.473333
30
0.0
10
75.458565
20
20.206790
30
0.0
10
75.728636
20
20.320284
30
0.0
10
75.920184
20
20.252832
30
0.0
10
76.102788
20
19.538708
30
0.0
10
76.076528
20
17.991667
30
0.0
10
75.891020
20
15.629945
30
0.0
10
75.512083
20
14.252222
30
0.0
10
75.027014
20
12.955764
30
0.0
10
74.474988
20
12.042487
30
0.0
10
73.563984
20
11.120257
30
0.0
10
72.447429
20
10.319825
30
0.0
10
71.278750
20
9.771944
30
0.0
10
69.019575
20
9.322963
30
0.0
10
66.694205
20
9.418207
30
0.0
10
64.392304
20
10.043097
30
0.0
10
62.203542
20
11.183056
30
0.0
10
60.492569
20
12.135556
30
0.0
10
58.728681
20
10.724444
30
0.0
10
57.026528
20
9.313333
30
0.0
10
56.144583
20
8.581319
30
0.0
10
55.456667
20
7.840486
30
0.0
10
56.867778
20
6.588125
30
0.0
10
59.812906
20
4.327193
30
0.0
10
61.024422
20
3.637746
30
0.0
10
61.850764
20
3.377847
30
0.0
10
63.358889
20
2.972153
30
0.0
10
64.920276
20
2.676772
30
0.0
10
67.953819
20
2.566458
30
0.0
10
70.801458
20
2.649671
30
0.0
10
73.014546
20
2.998024
30
0.0
10
74.933000
20
3.699449
30
0.0
10
76.896736
20
4.841875
30
0.0
10
78.097731
20
5.782857
30
0.0
10
79.241391
20
6.908741
30
0.0
10
80.096874
20
7.966920
30
0.0
10
80.433333
20
8.704792
30
0.0
10
80.856667
20
9.313333
30
0.0
10
81.155646
20
9.706494
30
0.0
10
81.280000
20
10.160000
30
0.0
10
81.703333
20
11.465278
30
0.0
10
82.001636
20
12.472938
30
0.0
10
82.126667
20
13.758333
30
0.0
10
82.202521
20
14.737781
30
0.0
10
82.381169
20
15.198738
30
0.0
10
82.593520
20
15.080604
30
0.0
10
82.770486
20
14.322778
30
0.0
10
82.794263
20
14.535981
30
0.0
10
82.818210
20
15.503205
30
0.0
10
82.864025
20
19.395281
30
0.0
10
82.929236
20
32.878889
30
0.0
10
82.973333
20
52.352222
30
0.0
10
79.657222
20
52.325764
30
0.0
10
76.341111
20
52.299306
30
0.0
10
76.173542
20
51.479097
30
0.0
10
76.138264
20
49.882778
30
0.0
10
76.115670
20
49.304953
30
0.0
10
75.811609
20
49.107789
30
0.0
10
75.262976
20
49.291505
30
0.0
10
74.506667
20
49.856319
30
0.0
10
73.203970
20
50.848171
30
0.0
10
71.164097
20
51.928889
30
0.0
10
70.417548
20
52.236795
30
0.0
10
69.591268
20
52.416840
30
0.0
10
66.842569
20
52.510972
30
0.0
10
64.293580
20
52.397056
30
0.0
10
62.935556
20
52.070000
30
0.0
10
61.850764
20
51.646667
30
0.0
10
61.085338
20
51.318803
30
0.0
10
59.912393
20
50.537179
30
0.0
10
58.745109
20
49.604743
30
0.0
10
57.996667
20
48.824444
30
0.0
10
57.558372
20
48.266235
30
0.0
10
57.173622
20
48.020315
30
0.0
10
56.805724
20
48.077240
30
0.0
10
56.417986
20
48.427569
30
0.0
10
55.465486
20
49.133125
30
0.0
10
54.468889
20
49.635833
30
0.0
10
51.002847
20
51.188056
30
0.0
10
49.388889
20
51.646667
30
0.0
10
47.228125
20
52.070000
30
0.0
10
44.293738
20
52.363117
30
0.0
10
39.616810
20
52.504993
30
0.0
10
35.233196
20
52.471265
30
0.0
10
33.787586
20
52.380936
30
0.0
10
33.178750
20
52.237569
30
0.0
10
32.713889
20
51.996284
30
0.0
10
31.820556
20
51.778958
30
0.0
10
30.619071
20
51.439759
30
0.0
10
29.412847
20
50.905833
30
0.0
10
28.394563
20
50.397186
30
0.0
10
27.778956
20
50.279112
30
0.0
10
27.457742
20
50.571411
30
0.0
10
27.322639
20
51.293889
30
0.0
10
27.234444
20
52.352222
30
0.0
10
23.353889
20
52.352222
30
0.0
10
20.511426
20
52.428479
30
0.0
10
19.438056
20
52.634444
30
0.0
10
19.438056
20
57.335208
30
0.0
10
19.305764
20
62.203542
30
0.0
10
19.018225
20
62.437556
30
0.0
10
18.156805
20
62.573980
30
0.0
10
13.379097
20
62.653333
30
0.0
10
7.628819
20
62.653333
30
0.0
10
7.628819
20
62.653333
30
0.0
0
LWPOLYLINE
100
AcDbPolyline
8
Layer_1
90
64
70
0
10
56.515000
20
46.831250
30
0.0
10
56.661371
20
46.804338
30
0.0
10
56.689059
20
46.652035
30
0.0
10
56.347431
20
45.958125
30
0.0
10
55.738889
20
44.317708
30
0.0
10
55.289097
20
43.012431
30
0.0
10
55.089918
20
41.649828
30
0.0
10
54.998056
20
38.840833
30
0.0
10
54.921864
20
36.084264
30
0.0
10
54.759931
20
34.854444
30
0.0
10
54.498921
20
34.880263
30
0.0
10
54.186667
20
35.136667
30
0.0
10
53.780471
20
35.435004
30
0.0
10
53.295903
20
35.560000
30
0.0
10
52.869923
20
35.684354
30
0.0
10
52.599167
20
35.983333
30
0.0
10
52.265305
20
36.281995
30
0.0
10
51.690764
20
36.406667
30
0.0
10
50.936283
20
36.527531
30
0.0
10
50.173819
20
36.812361
30
0.0
10
49.277829
20
37.113404
30
0.0
10
48.198264
20
37.279792
30
0.0
10
46.284444
20
37.614931
30
0.0
10
42.051111
20
38.100000
30
0.0
10
37.817778
20
38.505694
30
0.0
10
35.771667
20
38.858472
30
0.0
10
34.732368
20
39.087787
30
0.0
10
34.113611
20
39.405278
30
0.0
10
33.452153
20
39.793333
30
0.0
10
32.981552
20
39.937026
30
0.0
10
32.594895
20
40.325681
30
0.0
10
32.118371
20
41.583343
30
0.0
10
32.112506
20
43.057250
30
0.0
10
32.314171
20
43.716211
30
0.0
10
32.667222
20
44.238333
30
0.0
10
33.986986
20
45.221299
30
0.0
10
35.789306
20
45.887569
30
0.0
10
37.404570
20
46.139030
30
0.0
10
39.476578
20
46.254137
30
0.0
10
41.431356
20
46.221238
30
0.0
10
42.694931
20
46.028681
30
0.0
10
44.467639
20
45.667083
30
0.0
10
45.220904
20
45.554470
30
0.0
10
45.614167
20
45.376042
30
0.0
10
45.787069
20
45.258365
30
0.0
10
46.002222
20
45.296667
30
0.0
10
46.227492
20
45.320682
30
0.0
10
46.425556
20
45.164375
30
0.0
10
46.741673
20
44.959696
30
0.0
10
47.254583
20
44.873333
30
0.0
10
47.819787
20
44.748979
30
0.0
10
48.260000
20
44.450000
30
0.0
10
48.653634
20
44.151021
30
0.0
10
49.106667
20
44.026667
30
0.0
10
49.559699
20
43.902312
30
0.0
10
49.953333
20
43.603333
30
0.0
10
50.479536
20
43.304354
30
0.0
10
51.249792
20
43.180000
30
0.0
10
51.808322
20
43.257708
30
0.0
10
52.403250
20
43.550382
30
0.0
10
54.248403
20
45.137917
30
0.0
10
55.661163
20
46.352441
30
0.0
10
56.515000
20
46.831250
30
0.0
10
56.515000
20
46.831250
30
0.0
0
LWPOLYLINE
100
AcDbPolyline
8
Layer_1
90
55
70
0
10
21.748750
20
46.566667
30
0.0
10
23.418706
20
46.473563
30
0.0
10
23.656458
20
46.283331
30
0.0
10
23.697847
20
45.931667
30
0.0
10
23.569791
20
45.322785
30
0.0
10
23.274514
20
44.749861
30
0.0
10
22.950532
20
43.507161
30
0.0
10
22.835727
20
41.472595
30
0.0
10
22.933700
20
39.491366
30
0.0
10
23.063605
20
38.784880
30
0.0
10
23.248056
20
38.408681
30
0.0
10
23.569135
20
37.954001
30
0.0
10
23.794861
20
37.315069
30
0.0
10
24.275457
20
36.437923
30
0.0
10
25.214513
20
35.290127
30
0.0
10
26.228673
20
34.292702
30
0.0
10
26.934583
20
33.866667
30
0.0
10
27.578403
20
33.549167
30
0.0
10
29.330621
20
32.766502
30
0.0
10
32.032222
20
32.023403
30
0.0
10
33.584444
20
31.705903
30
0.0
10
37.914792
20
31.326667
30
0.0
10
42.042292
20
30.912153
30
0.0
10
44.203056
20
30.585833
30
0.0
10
46.143308
20
30.173490
30
0.0
10
47.698473
20
29.405097
30
0.0
10
48.731832
20
28.375996
30
0.0
10
49.010110
20
27.793474
30
0.0
10
49.106667
20
27.181528
30
0.0
10
48.942352
20
26.288084
30
0.0
10
48.492104
20
25.420848
30
0.0
10
47.819971
20
24.671070
30
0.0
10
46.990000
20
24.130000
30
0.0
10
45.102639
20
23.265694
30
0.0
10
43.338467
20
22.991864
30
0.0
10
40.412991
20
22.906928
30
0.0
10
37.446679
20
23.007989
30
0.0
10
35.560000
20
23.292153
30
0.0
10
33.366138
20
23.589731
30
0.0
10
28.292778
20
23.689028
30
0.0
10
23.133118
20
23.778462
30
0.0
10
22.237020
20
23.909822
30
0.0
10
22.013333
20
24.130000
30
0.0
10
21.811948
20
24.445759
30
0.0
10
21.237222
20
24.562153
30
0.0
10
20.535375
20
24.748896
30
0.0
10
19.967222
20
25.250069
30
0.0
10
19.702044
20
25.906538
30
0.0
10
19.549098
20
27.432503
30
0.0
10
19.438056
20
35.930417
30
0.0
10
19.469397
20
43.088718
30
0.0
10
19.596806
20
46.249167
30
0.0
10
20.289097
20
46.476325
30
0.0
10
21.748750
20
46.566667
30
0.0
10
21.748750
20
46.566667
30
0.0
0
LWPOLYLINE
100
AcDbPolyline
8
Layer_1
90
50
70
0
10
68.271319
20
45.737639
30
0.0
10
70.155913
20
45.607997
30
0.0
10
71.772639
20
45.173194
30
0.0
10
72.873529
20
44.526653
30
0.0
10
73.860164
20
43.657487
30
0.0
10
74.709235
20
42.589265
30
0.0
10
75.397431
20
41.345556
30
0.0
10
75.741235
20
40.446554
30
0.0
10
75.943083
20
39.379307
30
0.0
10
76.102986
20
35.136667
30
0.0
10
76.010010
20
30.993017
30
0.0
10
75.822989
20
29.417687
30
0.0
10
75.524087
20
28.112969
30
0.0
10
75.099661
20
27.033575
30
0.0
10
74.536068
20
26.134215
30
0.0
10
73.819664
20
25.369601
30
0.0
10
72.936806
20
24.694444
30
0.0
10
71.456338
20
23.917272
30
0.0
10
69.832361
20
23.618472
30
0.0
10
67.123611
20
23.631254
30
0.0
10
66.254544
20
23.828714
30
0.0
10
65.748958
20
24.147639
30
0.0
10
65.390788
20
24.434548
30
0.0
10
65.008125
20
24.553333
30
0.0
10
64.681805
20
24.677687
30
0.0
10
64.452500
20
24.976667
30
0.0
10
64.222267
20
25.275646
30
0.0
10
63.896875
20
25.400000
30
0.0
10
63.617353
20
25.517353
30
0.0
10
63.500000
20
25.796875
30
0.0
10
63.375646
20
26.122267
30
0.0
10
63.076667
20
26.352500
30
0.0
10
62.777687
20
26.581332
30
0.0
10
62.653333
20
26.908125
30
0.0
10
62.230000
20
28.116389
30
0.0
10
62.023203
20
28.773100
30
0.0
10
61.893663
20
29.937977
30
0.0
10
61.806667
20
34.722153
30
0.0
10
61.897409
20
39.764633
30
0.0
10
62.067944
20
40.864083
30
0.0
10
62.371111
20
41.627778
30
0.0
10
63.069611
20
42.718384
30
0.0
10
63.965833
20
43.769211
30
0.0
10
64.847419
20
44.560711
30
0.0
10
65.502014
20
44.873333
30
0.0
10
65.937132
20
44.997687
30
0.0
10
66.322222
20
45.296667
30
0.0
10
67.033948
20
45.616996
30
0.0
10
68.271319
20
45.737639
30
0.0
10
68.271319
20
45.737639
30
0.0
  0
ENDSEC
  0
SECTION
  2
OBJECTS
  0
DICTIONARY
  5
C
330
0
100
AcDbDictionary
  3
ACAD_GROUP
350
D
  3
ACAD_MLINESTYLE
350
17
  0
DICTIONARY
  5
D
330
C
100
AcDbDictionary
  0
DICTIONARY
  5
1A
330
C
100
AcDbDictionary
  0
DICTIONARY
  5
17
330
C
100
AcDbDictionary
  3
STANDARD
350
18
  0
DICTIONARY
  5
19
330
C
100
AcDbDictionary
  0
ENDSEC
  0
EOF
