999
Inkscape export via OpenSCAD DXF Export
  0
SECTION
  2
HEADER
  9
$ACADVER
  1
AC1014
  9
$HANDSEED
  5
FFFF
  9
$MEASUREMENT
 70
     1
  0
ENDSEC
  0
SECTION
  2
TABLES
  0
TABLE
  2
VPORT
  5
8
330
0
100
AcDbSymbolTable
 70
     4
  0
VPORT
  5
2E
330
8
100
AcDbSymbolTableRecord
100
AcDbViewportTableRecord
  2
*ACTIVE
 70
     0
 10
0.0
 20
0.0
 11
1.0
 21
1.0
 12
210.0
 22
148.5
 13
0.0
 23
0.0
 14
10.0
 24
10.0
 15
10.0
 25
10.0
 16
0.0
 26
0.0
 36
1.0
 17
0.0
 27
0.0
 37
0.0
 40
341.0
 41
1.24
 42
50.0
 43
0.0
 44
0.0
 50
0.0
 51
0.0
 71
     0
 72
   100
 73
     1
 74
     3
 75
     0
 76
     0
 77
     0
 78
     0
  0
ENDTAB
  0
TABLE
  2
LTYPE
  5
5
330
0
100
AcDbSymbolTable
 70
     1
  0
LTYPE
  5
14
330
5
100
AcDbSymbolTableRecord
100
AcDbLinetypeTableRecord
  2
BYBLOCK
 70
     0
  3

 72
    65
 73
     0
 40
0.0
  0
LTYPE
  5
15
330
5
100
AcDbSymbolTableRecord
100
AcDbLinetypeTableRecord
  2
BYLAYER
 70
     0
  3

 72
    65
 73
     0
 40
0.0
  0
LTYPE
  5
16
330
5
100
AcDbSymbolTableRecord
100
AcDbLinetypeTableRecord
  2
CONTINUOUS
 70
     0
  3
Solid line
 72
    65
 73
     0
 40
0.0
  0
ENDTAB
  0
TABLE
0
TABLE
2
LAYER
5
2
330
0
100
AcDbSymbolTable
70
1
0
LAYER
5
10
330
2
100
AcDbSymbolTableRecord
100
AcDbLayerTableRecord
2
Layer_1
70
0
62
7
6
CONTINUOUS
0
ENDTAB
0
ENDSEC
  0
ENDTAB
  0
TABLE
  2
STYLE
  5
3
330
0
100
AcDbSymbolTable
 70
     1
  0
STYLE
  5
11
330
3
100
AcDbSymbolTableRecord
100
AcDbTextStyleTableRecord
  2
STANDARD
 70
     0
 40
0.0
 41
1.0
 50
0.0
 71
     0
 42
2.5
  3
txt
  4

  0
ENDTAB
  0
TABLE
  2
VIEW
  5
6
330
0
100
AcDbSymbolTable
 70
     0
  0
ENDTAB
  0
TABLE
  2
UCS
  5
7
330
0
100
AcDbSymbolTable
 70
     0
  0
ENDTAB
  0
TABLE
  2
APPID
  5
9
330
0
100
AcDbSymbolTable
 70
     2
  0
APPID
  5
12
330
9
100
AcDbSymbolTableRecord
100
AcDbRegAppTableRecord
  2
ACAD
 70
     0
  0
ENDTAB
  0
TABLE
  2
DIMSTYLE
  5
A
330
0
100
AcDbSymbolTable
 70
     1
  0
DIMSTYLE
105
27
330
A
100
AcDbSymbolTableRecord
100
AcDbDimStyleTableRecord
  2
ISO-25
 70
     0
  3

  4

  5

  6

  7

 40
1.0
 41
2.5
 42
0.625
 43
3.75
 44
1.25
 45
0.0
 46
0.0
 47
0.0
 48
0.0
140
2.5
141
2.5
142
0.0
143
0.03937007874016
144
1.0
145
0.0
146
1.0
147
0.625
 71
     0
 72
     0
 73
     0
 74
     0
 75
     0
 76
     0
 77
     1
 78
     8
170
     0
171
     3
172
     1
173
     0
174
     0
175
     0
176
     0
177
     0
178
     0
270
     2
271
     2
272
     2
273
     2
274
     3
340
11
275
     0
280
     0
281
     0
282
     0
283
     0
284
     8
285
     0
286
     0
287
     3
288
     0
  0
ENDTAB
  0
TABLE
  2
BLOCK_RECORD
  5
1
330
0
100
AcDbSymbolTable
 70
     1
  0
BLOCK_RECORD
  5
1F
330
1
100
AcDbSymbolTableRecord
100
AcDbBlockTableRecord
  2
*MODEL_SPACE
  0
BLOCK_RECORD
  5
1B
330
1
100
AcDbSymbolTableRecord
100
AcDbBlockTableRecord
  2
*PAPER_SPACE
  0
ENDTAB
  0
ENDSEC
  0
SECTION
  2
BLOCKS
  0
BLOCK
  5
20
330
1F
100
AcDbEntity
  8
0
100
AcDbBlockBegin
  2
*MODEL_SPACE
 70
     0
 10
0.0
 20
0.0
 30
0.0
  3
*MODEL_SPACE
  1

  0
ENDBLK
  5
21
330
1F
100
AcDbEntity
  8
0
100
AcDbBlockEnd
  0
BLOCK
  5
1C
330
1B
100
AcDbEntity
 67
     1
  8
0
100
AcDbBlockBegin
  2
*PAPER_SPACE
  1

  0
ENDBLK
  5
1D
330
1B
100
AcDbEntity
 67
     1
  8
0
100
AcDbBlockEnd
  0
ENDSEC
  0
SECTION
  2
ENTITIES
0
DIMENSION
5
83
100
AcDbEntity
62
256
370
-1
6
ByLayer
1
total_width
3
Standard
70
0
71
5
72
1
41
1.0
100
AcDbAlignedDimension
13
1.128889
23
0.000000
33
0.0
14
83.616411
24
0.000000
34
0.0
50
0.000000
100
AcDbRotatedDimension
0
DIMENSION
5
83
100
AcDbEntity
62
256
370
-1
6
ByLayer
1
total_height
3
Standard
70
0
71
5
72
1
41
1.0
100
AcDbAlignedDimension
13
0.000000
23
0.886398
33
0.0
14
0.000000
24
31.608889
34
0.0
50
90.000000
100
AcDbRotatedDimension
0
DIMENSION
8
Layer_1
5
83
100
AcDbEntity
62
256
370
-1
6
ByLayer
1
Layer_1_width
3
Standard
70
0
71
5
72
1
41
1.0
100
AcDbAlignedDimension
13
1.128889
23
0.000000
33
0.0
14
83.616411
24
0.000000
34
0.0
50
0.000000
100
AcDbRotatedDimension
0
DIMENSION
8
Layer_1
5
83
100
AcDbEntity
62
256
370
-1
6
ByLayer
1
Layer_1_height
3
Standard
70
0
71
5
72
1
41
1.0
100
AcDbAlignedDimension
13
0.000000
23
0.886398
33
0.0
14
0.000000
24
31.608889
34
0.0
50
90.000000
100
AcDbRotatedDimension
0
LWPOLYLINE
100
AcDbPolyline
8
Layer_1
90
123
70
0
10
62.088889
20
1.274631
30
0.0
10
59.450419
20
1.834451
30
0.0
10
57.296007
20
2.488918
30
0.0
10
55.795834
20
3.175582
30
0.0
10
55.344267
20
3.511471
30
0.0
10
55.120077
20
3.831991
30
0.0
10
55.137783
20
4.056525
30
0.0
10
55.518069
20
4.343414
30
0.0
10
58.367033
20
5.671006
30
0.0
10
60.430732
20
6.590884
30
0.0
10
62.459255
20
5.905997
30
0.0
10
64.803304
20
5.341795
30
0.0
10
68.306936
20
5.221111
30
0.0
10
71.141209
20
5.310722
30
0.0
10
73.028520
20
5.629357
30
0.0
10
74.212700
20
6.251717
30
0.0
10
74.937580
20
7.252503
30
0.0
10
75.264449
20
8.147095
30
0.0
10
75.209158
20
8.697055
30
0.0
10
74.751444
20
8.933440
30
0.0
10
73.871046
20
8.887310
30
0.0
10
71.309388
20
8.258392
30
0.0
10
69.359819
20
7.941759
30
0.0
10
65.664944
20
7.979343
30
0.0
10
62.824204
20
8.130362
30
0.0
10
60.911873
20
8.404137
30
0.0
10
59.446259
20
8.912148
30
0.0
10
57.945669
20
9.765878
30
0.0
10
56.483560
20
10.692411
30
0.0
10
55.123447
20
10.169509
30
0.0
10
51.509182
20
9.034461
30
0.0
10
46.904244
20
8.147076
30
0.0
10
44.669338
20
7.845916
30
0.0
10
42.226085
20
7.698235
30
0.0
10
32.737778
20
7.752565
30
0.0
10
22.622027
20
7.941421
30
0.0
10
16.673911
20
8.164973
30
0.0
10
13.395506
20
8.516603
30
0.0
10
11.288889
20
9.089692
30
0.0
10
8.621136
20
10.234606
30
0.0
10
7.801955
20
10.813237
30
0.0
10
7.178572
20
11.481725
30
0.0
10
6.528870
20
12.478137
30
0.0
10
6.522308
20
12.652927
30
0.0
10
6.741247
20
12.578719
30
0.0
10
6.898619
20
12.548116
30
0.0
10
7.022241
20
12.685774
30
0.0
10
7.173924
20
13.546865
30
0.0
10
7.134905
20
18.179100
30
0.0
10
6.972362
20
22.763677
30
0.0
10
4.050625
20
22.633733
30
0.0
10
1.128889
20
22.503790
30
0.0
10
1.128889
20
24.375228
30
0.0
10
1.128889
20
26.246667
30
0.0
10
4.134141
20
26.246667
30
0.0
10
7.139394
20
26.246667
30
0.0
10
6.972917
20
28.605664
30
0.0
10
6.926651
20
30.463514
30
0.0
10
7.128553
20
31.286775
30
0.0
10
8.797101
20
31.530577
30
0.0
10
13.310959
20
31.608889
30
0.0
10
17.181494
20
31.587563
30
0.0
10
18.326259
20
31.497891
30
0.0
10
19.061660
20
31.299533
30
0.0
10
19.475927
20
30.950479
30
0.0
10
19.657288
20
30.408718
30
0.0
10
19.674210
20
28.579037
30
0.0
10
19.824145
20
26.366225
30
0.0
10
20.909050
20
26.331661
30
0.0
10
23.262930
20
26.503067
30
0.0
10
25.286632
20
26.665060
30
0.0
10
26.558222
20
26.626617
30
0.0
10
27.409056
20
26.336432
30
0.0
10
28.170492
20
25.743198
30
0.0
10
28.584696
20
25.525809
30
0.0
10
29.028071
20
25.511994
30
0.0
10
31.328357
20
26.075375
30
0.0
10
33.694133
20
26.376775
30
0.0
10
36.886216
20
26.470246
30
0.0
10
41.665426
20
26.409843
30
0.0
10
46.863097
20
26.243360
30
0.0
10
50.450463
20
25.941381
30
0.0
10
53.073415
20
25.418071
30
0.0
10
55.377845
20
24.587600
30
0.0
10
56.388963
20
24.249124
30
0.0
10
56.878810
20
24.288960
30
0.0
10
57.282371
20
24.624126
30
0.0
10
58.053742
20
24.981550
30
0.0
10
60.425821
20
25.696216
30
0.0
10
63.446866
20
26.299043
30
0.0
10
66.568695
20
26.656117
30
0.0
10
68.473530
20
26.725520
30
0.0
10
70.022087
20
26.604775
30
0.0
10
71.654412
20
26.224582
30
0.0
10
73.810546
20
25.515642
30
0.0
10
75.114689
20
25.145635
30
0.0
10
75.312054
20
25.243409
30
0.0
10
75.353333
20
25.531181
30
0.0
10
75.513689
20
25.908967
30
0.0
10
75.899224
20
26.236736
30
0.0
10
77.140358
20
26.448434
30
0.0
10
79.262192
20
26.521207
30
0.0
10
81.436426
20
26.453986
30
0.0
10
82.834762
20
26.245700
30
0.0
10
83.579603
20
25.962512
30
0.0
10
83.393946
20
21.800700
30
0.0
10
83.343558
20
18.156747
30
0.0
10
83.483120
20
15.240000
30
0.0
10
83.616411
20
12.739040
30
0.0
10
83.539341
20
10.086378
30
0.0
10
83.195782
20
7.532677
30
0.0
10
82.878180
20
6.674757
30
0.0
10
82.370924
20
5.753320
30
0.0
10
81.477199
20
4.449553
30
0.0
10
80.662238
20
3.531334
30
0.0
10
79.830607
20
3.050458
30
0.0
10
78.471609
20
2.488551
30
0.0
10
75.212222
20
1.508009
30
0.0
10
72.269535
20
1.075830
30
0.0
10
68.737233
20
0.886398
30
0.0
10
65.161592
20
0.949427
30
0.0
10
62.088889
20
1.274631
30
0.0
10
62.088889
20
1.274631
30
0.0
0
LWPOLYLINE
100
AcDbPolyline
8
Layer_1
90
36
70
0
10
45.829909
20
11.991866
30
0.0
10
47.717371
20
12.627850
30
0.0
10
48.317663
20
13.009271
30
0.0
10
48.542222
20
13.358998
30
0.0
10
48.231337
20
13.793628
30
0.0
10
47.483889
20
14.269055
30
0.0
10
46.773887
20
14.519748
30
0.0
10
45.772619
20
14.691367
30
0.0
10
42.192222
20
14.878464
30
0.0
10
35.892356
20
15.252808
30
0.0
10
32.580295
20
15.522222
30
0.0
10
30.578926
20
15.732042
30
0.0
10
27.111869
20
16.572183
30
0.0
10
24.478210
20
17.497099
30
0.0
10
23.579107
20
18.038503
30
0.0
10
22.940640
20
18.655538
30
0.0
10
22.549424
20
19.365455
30
0.0
10
22.392073
20
20.185504
30
0.0
10
22.455200
20
21.132935
30
0.0
10
22.725420
20
22.225000
30
0.0
10
22.803156
20
22.579730
30
0.0
10
22.677156
20
22.769621
30
0.0
10
21.379054
20
22.860000
30
0.0
10
19.832277
20
22.860000
30
0.0
10
19.656675
20
21.578841
30
0.0
10
19.620781
20
18.114537
30
0.0
10
19.924650
20
14.180795
30
0.0
10
20.276115
20
13.320292
30
0.0
10
21.250174
20
12.628573
30
0.0
10
22.089843
20
12.272774
30
0.0
10
23.393943
20
12.062514
30
0.0
10
30.197778
20
11.827822
30
0.0
10
40.604015
20
11.739331
30
0.0
10
43.981904
20
11.824202
30
0.0
10
45.829909
20
11.991866
30
0.0
10
45.829909
20
11.991866
30
0.0
0
LWPOLYLINE
100
AcDbPolyline
8
Layer_1
90
31
70
0
10
72.610057
20
12.775823
30
0.0
10
74.052860
20
13.354091
30
0.0
10
74.534470
20
13.699700
30
0.0
10
74.883176
20
14.127784
30
0.0
10
75.262752
20
15.365849
30
0.0
10
75.353333
20
17.337231
30
0.0
10
75.236017
20
19.276769
30
0.0
10
75.049890
20
19.962214
30
0.0
10
74.743688
20
20.502999
30
0.0
10
74.291090
20
20.932792
30
0.0
10
73.665776
20
21.285261
30
0.0
10
71.791711
20
21.892895
30
0.0
10
69.956461
20
22.226952
30
0.0
10
68.144878
20
22.289950
30
0.0
10
66.471839
20
22.086517
30
0.0
10
65.052222
20
21.621284
30
0.0
10
63.782336
20
20.937758
30
0.0
10
62.970103
20
20.253942
30
0.0
10
62.500010
20
19.434416
30
0.0
10
62.256546
20
18.343757
30
0.0
10
62.146375
20
16.735938
30
0.0
10
62.285676
20
15.433057
30
0.0
10
62.677111
20
14.423528
30
0.0
10
63.323337
20
13.695761
30
0.0
10
64.265120
20
13.069026
30
0.0
10
65.257337
20
12.589707
30
0.0
10
66.306066
20
12.257202
30
0.0
10
67.417382
20
12.070909
30
0.0
10
69.852084
20
12.134553
30
0.0
10
72.610057
20
12.775823
30
0.0
10
72.610057
20
12.775823
30
0.0
0
LWPOLYLINE
100
AcDbPolyline
8
Layer_1
90
31
70
0
10
54.085482
20
18.201056
30
0.0
10
54.099792
20
18.846524
30
0.0
10
54.324204
20
19.935230
30
0.0
10
55.061767
20
22.083889
30
0.0
10
55.209895
20
22.434543
30
0.0
10
55.115368
20
22.543483
30
0.0
10
53.919100
20
22.020810
30
0.0
10
52.634331
20
21.486532
30
0.0
10
51.397347
20
21.272314
30
0.0
10
50.036205
20
21.370476
30
0.0
10
48.378962
20
21.773337
30
0.0
10
47.003655
20
22.131905
30
0.0
10
45.558698
20
22.331600
30
0.0
10
40.216667
20
22.436667
30
0.0
10
35.148618
20
22.348909
30
0.0
10
34.043281
20
22.194442
30
0.0
10
33.355226
20
21.926455
30
0.0
10
32.692192
20
21.433862
30
0.0
10
32.557256
20
20.960337
30
0.0
10
32.953235
20
20.495749
30
0.0
10
33.882948
20
20.029970
30
0.0
10
35.957775
20
19.594521
30
0.0
10
40.091837
20
19.339573
30
0.0
10
46.848889
20
18.895796
30
0.0
10
50.235556
20
18.619528
30
0.0
10
51.580521
20
18.492708
30
0.0
10
52.634444
20
18.213526
30
0.0
10
53.863495
20
17.817219
30
0.0
10
54.103274
20
17.911595
30
0.0
10
54.085482
20
18.201057
30
0.0
10
54.085482
20
18.201056
30
0.0
  0
ENDSEC
  0
SECTION
  2
OBJECTS
  0
DICTIONARY
  5
C
330
0
100
AcDbDictionary
  3
ACAD_GROUP
350
D
  3
ACAD_MLINESTYLE
350
17
  0
DICTIONARY
  5
D
330
C
100
AcDbDictionary
  0
DICTIONARY
  5
1A
330
C
100
AcDbDictionary
  0
DICTIONARY
  5
17
330
C
100
AcDbDictionary
  3
STANDARD
350
18
  0
DICTIONARY
  5
19
330
C
100
AcDbDictionary
  0
ENDSEC
  0
EOF
