999
Inkscape export via OpenSCAD DXF Export
  0
SECTION
  2
HEADER
  9
$ACADVER
  1
AC1014
  9
$HANDSEED
  5
FFFF
  9
$MEASUREMENT
 70
     1
  0
ENDSEC
  0
SECTION
  2
TABLES
  0
TABLE
  2
VPORT
  5
8
330
0
100
AcDbSymbolTable
 70
     4
  0
VPORT
  5
2E
330
8
100
AcDbSymbolTableRecord
100
AcDbViewportTableRecord
  2
*ACTIVE
 70
     0
 10
0.0
 20
0.0
 11
1.0
 21
1.0
 12
210.0
 22
148.5
 13
0.0
 23
0.0
 14
10.0
 24
10.0
 15
10.0
 25
10.0
 16
0.0
 26
0.0
 36
1.0
 17
0.0
 27
0.0
 37
0.0
 40
341.0
 41
1.24
 42
50.0
 43
0.0
 44
0.0
 50
0.0
 51
0.0
 71
     0
 72
   100
 73
     1
 74
     3
 75
     0
 76
     0
 77
     0
 78
     0
  0
ENDTAB
  0
TABLE
  2
LTYPE
  5
5
330
0
100
AcDbSymbolTable
 70
     1
  0
LTYPE
  5
14
330
5
100
AcDbSymbolTableRecord
100
AcDbLinetypeTableRecord
  2
BYBLOCK
 70
     0
  3

 72
    65
 73
     0
 40
0.0
  0
LTYPE
  5
15
330
5
100
AcDbSymbolTableRecord
100
AcDbLinetypeTableRecord
  2
BYLAYER
 70
     0
  3

 72
    65
 73
     0
 40
0.0
  0
LTYPE
  5
16
330
5
100
AcDbSymbolTableRecord
100
AcDbLinetypeTableRecord
  2
CONTINUOUS
 70
     0
  3
Solid line
 72
    65
 73
     0
 40
0.0
  0
ENDTAB
  0
TABLE
0
TABLE
2
LAYER
5
2
330
0
100
AcDbSymbolTable
70
1
0
LAYER
5
10
330
2
100
AcDbSymbolTableRecord
100
AcDbLayerTableRecord
2
Calque_1
70
0
62
7
6
CONTINUOUS
0
ENDTAB
0
ENDSEC
  0
ENDTAB
  0
TABLE
  2
STYLE
  5
3
330
0
100
AcDbSymbolTable
 70
     1
  0
STYLE
  5
11
330
3
100
AcDbSymbolTableRecord
100
AcDbTextStyleTableRecord
  2
STANDARD
 70
     0
 40
0.0
 41
1.0
 50
0.0
 71
     0
 42
2.5
  3
txt
  4

  0
ENDTAB
  0
TABLE
  2
VIEW
  5
6
330
0
100
AcDbSymbolTable
 70
     0
  0
ENDTAB
  0
TABLE
  2
UCS
  5
7
330
0
100
AcDbSymbolTable
 70
     0
  0
ENDTAB
  0
TABLE
  2
APPID
  5
9
330
0
100
AcDbSymbolTable
 70
     2
  0
APPID
  5
12
330
9
100
AcDbSymbolTableRecord
100
AcDbRegAppTableRecord
  2
ACAD
 70
     0
  0
ENDTAB
  0
TABLE
  2
DIMSTYLE
  5
A
330
0
100
AcDbSymbolTable
 70
     1
  0
DIMSTYLE
105
27
330
A
100
AcDbSymbolTableRecord
100
AcDbDimStyleTableRecord
  2
ISO-25
 70
     0
  3

  4

  5

  6

  7

 40
1.0
 41
2.5
 42
0.625
 43
3.75
 44
1.25
 45
0.0
 46
0.0
 47
0.0
 48
0.0
140
2.5
141
2.5
142
0.0
143
0.03937007874016
144
1.0
145
0.0
146
1.0
147
0.625
 71
     0
 72
     0
 73
     0
 74
     0
 75
     0
 76
     0
 77
     1
 78
     8
170
     0
171
     3
172
     1
173
     0
174
     0
175
     0
176
     0
177
     0
178
     0
270
     2
271
     2
272
     2
273
     2
274
     3
340
11
275
     0
280
     0
281
     0
282
     0
283
     0
284
     8
285
     0
286
     0
287
     3
288
     0
  0
ENDTAB
  0
TABLE
  2
BLOCK_RECORD
  5
1
330
0
100
AcDbSymbolTable
 70
     1
  0
BLOCK_RECORD
  5
1F
330
1
100
AcDbSymbolTableRecord
100
AcDbBlockTableRecord
  2
*MODEL_SPACE
  0
BLOCK_RECORD
  5
1B
330
1
100
AcDbSymbolTableRecord
100
AcDbBlockTableRecord
  2
*PAPER_SPACE
  0
ENDTAB
  0
ENDSEC
  0
SECTION
  2
BLOCKS
  0
BLOCK
  5
20
330
1F
100
AcDbEntity
  8
0
100
AcDbBlockBegin
  2
*MODEL_SPACE
 70
     0
 10
0.0
 20
0.0
 30
0.0
  3
*MODEL_SPACE
  1

  0
ENDBLK
  5
21
330
1F
100
AcDbEntity
  8
0
100
AcDbBlockEnd
  0
BLOCK
  5
1C
330
1B
100
AcDbEntity
 67
     1
  8
0
100
AcDbBlockBegin
  2
*PAPER_SPACE
  1

  0
ENDBLK
  5
1D
330
1B
100
AcDbEntity
 67
     1
  8
0
100
AcDbBlockEnd
  0
ENDSEC
  0
SECTION
  2
ENTITIES
0
DIMENSION
5
83
100
AcDbEntity
62
256
370
-1
6
ByLayer
1
total_width
3
Standard
70
0
71
5
72
1
41
1.0
100
AcDbAlignedDimension
13
0.121053
23
0.000000
33
0.0
14
176.031590
24
0.000000
34
0.0
50
0.000000
100
AcDbRotatedDimension
0
DIMENSION
5
83
100
AcDbEntity
62
256
370
-1
6
ByLayer
1
total_height
3
Standard
70
0
71
5
72
1
41
1.0
100
AcDbAlignedDimension
13
0.000000
23
0.107983
33
0.0
14
0.000000
24
62.653134
34
0.0
50
90.000000
100
AcDbRotatedDimension
0
DIMENSION
8
Calque_1
5
83
100
AcDbEntity
62
256
370
-1
6
ByLayer
1
Calque_1_width
3
Standard
70
0
71
5
72
1
41
1.0
100
AcDbAlignedDimension
13
0.121053
23
0.000000
33
0.0
14
176.031590
24
0.000000
34
0.0
50
0.000000
100
AcDbRotatedDimension
0
DIMENSION
8
Calque_1
5
83
100
AcDbEntity
62
256
370
-1
6
ByLayer
1
Calque_1_height
3
Standard
70
0
71
5
72
1
41
1.0
100
AcDbAlignedDimension
13
0.000000
23
0.107983
33
0.0
14
0.000000
24
62.653134
34
0.0
50
90.000000
100
AcDbRotatedDimension
0
LWPOLYLINE
100
AcDbPolyline
8
Calque_1
90
101
70
0
10
87.126372
20
0.251320
30
0.0
10
86.939128
20
0.580127
30
0.0
10
87.176528
20
1.428469
30
0.0
10
88.177838
20
4.583403
30
0.0
10
89.044904
20
7.190120
30
0.0
10
89.303276
20
8.342518
30
0.0
10
89.496694
20
9.198301
30
0.0
10
90.033359
20
10.386993
30
0.0
10
90.427914
20
11.691339
30
0.0
10
80.378924
20
11.863622
30
0.0
10
56.212717
20
12.006102
30
0.0
10
34.781504
20
12.096351
30
0.0
10
23.724524
20
12.304259
30
0.0
10
20.678625
20
12.516301
30
0.0
10
18.536990
20
12.834519
30
0.0
10
14.714114
20
13.891826
30
0.0
10
13.198251
20
14.519674
30
0.0
10
11.527116
20
15.485560
30
0.0
10
9.944833
20
16.631055
30
0.0
10
8.695529
20
17.797728
30
0.0
10
7.485047
20
19.635568
30
0.0
10
7.059598
20
20.583631
30
0.0
10
6.894386
20
21.279746
30
0.0
10
6.615198
20
22.357742
30
0.0
10
6.556637
20
23.365916
30
0.0
10
7.015096
20
25.514188
30
0.0
10
9.150815
20
32.805634
30
0.0
10
10.134821
20
36.102795
30
0.0
10
10.245948
20
36.778886
30
0.0
10
10.187048
20
37.159095
30
0.0
10
9.922119
20
37.389210
30
0.0
10
9.163675
20
37.524089
30
0.0
10
5.068798
20
37.603412
30
0.0
10
1.016233
20
37.680004
30
0.0
10
0.302128
20
37.808641
30
0.0
10
0.121053
20
38.026745
30
0.0
10
0.203956
20
38.325724
30
0.0
10
0.403275
20
38.450078
30
0.0
10
0.602595
20
38.617009
30
0.0
10
0.685497
20
39.018352
30
0.0
10
0.929493
20
40.076686
30
0.0
10
1.816605
20
42.683412
30
0.0
10
3.899749
20
49.456745
30
0.0
10
4.296926
20
50.726745
30
0.0
10
9.376288
20
50.803555
30
0.0
10
13.329451
20
50.943569
30
0.0
10
14.317100
20
51.064830
30
0.0
10
14.729264
20
51.226888
30
0.0
10
15.762891
20
54.113412
30
0.0
10
16.756477
20
57.217856
30
0.0
10
17.345357
20
59.052300
30
0.0
10
18.054561
20
61.451189
30
0.0
10
18.408457
20
62.580078
30
0.0
10
33.448696
20
62.653134
30
0.0
10
44.139647
20
62.635950
30
0.0
10
48.723084
20
62.492045
30
0.0
10
48.762771
20
62.056432
30
0.0
10
48.602172
20
61.160674
30
0.0
10
47.828395
20
58.628967
30
0.0
10
47.020009
20
56.088967
30
0.0
10
45.989697
20
52.762992
30
0.0
10
45.558829
20
51.140816
30
0.0
10
62.592033
20
50.921412
30
0.0
10
110.822720
20
50.797902
30
0.0
10
167.849991
20
50.664542
30
0.0
10
175.016698
20
50.489063
30
0.0
10
175.914396
20
50.348284
30
0.0
10
176.031590
20
50.162300
30
0.0
10
175.652834
20
48.182500
30
0.0
10
174.743556
20
45.881605
30
0.0
10
174.463845
20
44.541049
30
0.0
10
174.391300
20
44.026370
30
0.0
10
174.216901
20
43.812300
30
0.0
10
174.042491
20
43.645370
30
0.0
10
173.969957
20
43.244026
30
0.0
10
173.715223
20
42.185693
30
0.0
10
173.118605
20
40.425634
30
0.0
10
172.560257
20
38.591189
30
0.0
10
171.706619
20
35.910078
30
0.0
10
170.578577
20
32.241189
30
0.0
10
169.470742
20
28.572300
30
0.0
10
168.621817
20
25.891189
30
0.0
10
168.076197
20
24.197856
30
0.0
10
165.795672
20
16.860078
30
0.0
10
164.911809
20
14.210709
30
0.0
10
164.299800
20
12.648381
30
0.0
10
163.489190
20
11.198879
30
0.0
10
162.487688
20
9.874012
30
0.0
10
161.303005
20
8.685588
30
0.0
10
160.021659
20
7.537451
30
0.0
10
158.467958
20
6.399665
30
0.0
10
156.032637
20
5.057028
30
0.0
10
151.783906
20
3.222127
30
0.0
10
147.268439
20
1.875128
30
0.0
10
142.164953
20
0.939800
30
0.0
10
136.152165
20
0.339910
30
0.0
10
127.037579
20
0.184260
30
0.0
10
110.498370
20
0.107983
30
0.0
10
94.529610
20
0.125522
30
0.0
10
87.126372
20
0.251320
30
0.0
10
87.126372
20
0.251320
30
0.0
  0
ENDSEC
  0
SECTION
  2
OBJECTS
  0
DICTIONARY
  5
C
330
0
100
AcDbDictionary
  3
ACAD_GROUP
350
D
  3
ACAD_MLINESTYLE
350
17
  0
DICTIONARY
  5
D
330
C
100
AcDbDictionary
  0
DICTIONARY
  5
1A
330
C
100
AcDbDictionary
  0
DICTIONARY
  5
17
330
C
100
AcDbDictionary
  3
STANDARD
350
18
  0
DICTIONARY
  5
19
330
C
100
AcDbDictionary
  0
ENDSEC
  0
EOF
