999
Inkscape export via OpenSCAD DXF Export
  0
SECTION
  2
HEADER
  9
$ACADVER
  1
AC1014
  9
$HANDSEED
  5
FFFF
  9
$MEASUREMENT
 70
     1
  0
ENDSEC
  0
SECTION
  2
TABLES
  0
TABLE
  2
VPORT
  5
8
330
0
100
AcDbSymbolTable
 70
     4
  0
VPORT
  5
2E
330
8
100
AcDbSymbolTableRecord
100
AcDbViewportTableRecord
  2
*ACTIVE
 70
     0
 10
0.0
 20
0.0
 11
1.0
 21
1.0
 12
210.0
 22
148.5
 13
0.0
 23
0.0
 14
10.0
 24
10.0
 15
10.0
 25
10.0
 16
0.0
 26
0.0
 36
1.0
 17
0.0
 27
0.0
 37
0.0
 40
341.0
 41
1.24
 42
50.0
 43
0.0
 44
0.0
 50
0.0
 51
0.0
 71
     0
 72
   100
 73
     1
 74
     3
 75
     0
 76
     0
 77
     0
 78
     0
  0
ENDTAB
  0
TABLE
  2
LTYPE
  5
5
330
0
100
AcDbSymbolTable
 70
     1
  0
LTYPE
  5
14
330
5
100
AcDbSymbolTableRecord
100
AcDbLinetypeTableRecord
  2
BYBLOCK
 70
     0
  3

 72
    65
 73
     0
 40
0.0
  0
LTYPE
  5
15
330
5
100
AcDbSymbolTableRecord
100
AcDbLinetypeTableRecord
  2
BYLAYER
 70
     0
  3

 72
    65
 73
     0
 40
0.0
  0
LTYPE
  5
16
330
5
100
AcDbSymbolTableRecord
100
AcDbLinetypeTableRecord
  2
CONTINUOUS
 70
     0
  3
Solid line
 72
    65
 73
     0
 40
0.0
  0
ENDTAB
  0
TABLE
0
TABLE
2
LAYER
5
2
330
0
100
AcDbSymbolTable
70
1
0
LAYER
5
10
330
2
100
AcDbSymbolTableRecord
100
AcDbLayerTableRecord
2
Layer_1
70
0
62
7
6
CONTINUOUS
0
ENDTAB
0
ENDSEC
  0
ENDTAB
  0
TABLE
  2
STYLE
  5
3
330
0
100
AcDbSymbolTable
 70
     1
  0
STYLE
  5
11
330
3
100
AcDbSymbolTableRecord
100
AcDbTextStyleTableRecord
  2
STANDARD
 70
     0
 40
0.0
 41
1.0
 50
0.0
 71
     0
 42
2.5
  3
txt
  4

  0
ENDTAB
  0
TABLE
  2
VIEW
  5
6
330
0
100
AcDbSymbolTable
 70
     0
  0
ENDTAB
  0
TABLE
  2
UCS
  5
7
330
0
100
AcDbSymbolTable
 70
     0
  0
ENDTAB
  0
TABLE
  2
APPID
  5
9
330
0
100
AcDbSymbolTable
 70
     2
  0
APPID
  5
12
330
9
100
AcDbSymbolTableRecord
100
AcDbRegAppTableRecord
  2
ACAD
 70
     0
  0
ENDTAB
  0
TABLE
  2
DIMSTYLE
  5
A
330
0
100
AcDbSymbolTable
 70
     1
  0
DIMSTYLE
105
27
330
A
100
AcDbSymbolTableRecord
100
AcDbDimStyleTableRecord
  2
ISO-25
 70
     0
  3

  4

  5

  6

  7

 40
1.0
 41
2.5
 42
0.625
 43
3.75
 44
1.25
 45
0.0
 46
0.0
 47
0.0
 48
0.0
140
2.5
141
2.5
142
0.0
143
0.03937007874016
144
1.0
145
0.0
146
1.0
147
0.625
 71
     0
 72
     0
 73
     0
 74
     0
 75
     0
 76
     0
 77
     1
 78
     8
170
     0
171
     3
172
     1
173
     0
174
     0
175
     0
176
     0
177
     0
178
     0
270
     2
271
     2
272
     2
273
     2
274
     3
340
11
275
     0
280
     0
281
     0
282
     0
283
     0
284
     8
285
     0
286
     0
287
     3
288
     0
  0
ENDTAB
  0
TABLE
  2
BLOCK_RECORD
  5
1
330
0
100
AcDbSymbolTable
 70
     1
  0
BLOCK_RECORD
  5
1F
330
1
100
AcDbSymbolTableRecord
100
AcDbBlockTableRecord
  2
*MODEL_SPACE
  0
BLOCK_RECORD
  5
1B
330
1
100
AcDbSymbolTableRecord
100
AcDbBlockTableRecord
  2
*PAPER_SPACE
  0
ENDTAB
  0
ENDSEC
  0
SECTION
  2
BLOCKS
  0
BLOCK
  5
20
330
1F
100
AcDbEntity
  8
0
100
AcDbBlockBegin
  2
*MODEL_SPACE
 70
     0
 10
0.0
 20
0.0
 30
0.0
  3
*MODEL_SPACE
  1

  0
ENDBLK
  5
21
330
1F
100
AcDbEntity
  8
0
100
AcDbBlockEnd
  0
BLOCK
  5
1C
330
1B
100
AcDbEntity
 67
     1
  8
0
100
AcDbBlockBegin
  2
*PAPER_SPACE
  1

  0
ENDBLK
  5
1D
330
1B
100
AcDbEntity
 67
     1
  8
0
100
AcDbBlockEnd
  0
ENDSEC
  0
SECTION
  2
ENTITIES
0
DIMENSION
5
83
100
AcDbEntity
62
256
370
-1
6
ByLayer
1
total_width
3
Standard
70
0
71
5
72
1
41
1.0
100
AcDbAlignedDimension
13
0.346677
23
0.000000
33
0.0
14
176.321347
24
0.000000
34
0.0
50
0.000000
100
AcDbRotatedDimension
0
DIMENSION
5
83
100
AcDbEntity
62
256
370
-1
6
ByLayer
1
total_height
3
Standard
70
0
71
5
72
1
41
1.0
100
AcDbAlignedDimension
13
0.000000
23
0.364278
33
0.0
14
0.000000
24
125.299160
34
0.0
50
90.000000
100
AcDbRotatedDimension
0
DIMENSION
8
Layer_1
5
83
100
AcDbEntity
62
256
370
-1
6
ByLayer
1
Layer_1_width
3
Standard
70
0
71
5
72
1
41
1.0
100
AcDbAlignedDimension
13
0.346677
23
0.000000
33
0.0
14
176.321347
24
0.000000
34
0.0
50
0.000000
100
AcDbRotatedDimension
0
DIMENSION
8
Layer_1
5
83
100
AcDbEntity
62
256
370
-1
6
ByLayer
1
Layer_1_height
3
Standard
70
0
71
5
72
1
41
1.0
100
AcDbAlignedDimension
13
0.000000
23
0.364278
33
0.0
14
0.000000
24
125.299160
34
0.0
50
90.000000
100
AcDbRotatedDimension
0
LWPOLYLINE
100
AcDbPolyline
8
Layer_1
90
145
70
0
10
87.300861
20
0.489969
30
0.0
10
87.108690
20
0.978674
30
0.0
10
87.248142
20
2.118713
30
0.0
10
88.925606
20
12.558889
30
0.0
10
89.449509
20
16.086667
30
0.0
10
90.054591
20
19.896667
30
0.0
10
90.419603
20
22.860000
30
0.0
10
90.452222
20
23.847778
30
0.0
10
56.726667
20
23.992343
30
0.0
10
23.001112
20
24.136912
30
0.0
10
20.320001
20
25.074033
30
0.0
10
18.398832
20
25.811917
30
0.0
10
17.544816
20
26.270021
30
0.0
10
17.340204
20
26.452948
30
0.0
10
16.980372
20
26.529233
30
0.0
10
16.407295
20
26.736632
30
0.0
10
15.689993
20
27.234789
30
0.0
10
14.589569
20
27.940000
30
0.0
10
13.914841
20
28.433607
30
0.0
10
12.790399
20
29.566720
30
0.0
10
11.700625
20
30.817776
30
0.0
10
11.129902
20
31.665215
30
0.0
10
10.739665
20
32.173333
30
0.0
10
10.474941
20
32.422042
30
0.0
10
10.160001
20
33.020000
30
0.0
10
9.839473
20
33.617958
30
0.0
10
9.561317
20
33.866667
30
0.0
10
9.386178
20
34.032472
30
0.0
10
9.313334
20
34.431111
30
0.0
10
9.251157
20
34.830165
30
0.0
10
9.101667
20
34.996969
30
0.0
10
8.811941
20
35.517297
30
0.0
10
8.348108
20
36.830186
30
0.0
10
7.373807
20
40.357778
30
0.0
10
6.943932
20
43.114800
30
0.0
10
6.695909
20
46.002222
30
0.0
10
7.209018
20
51.170230
30
0.0
10
8.182238
20
58.137778
30
0.0
10
8.761268
20
61.736111
30
0.0
10
9.324290
20
65.405000
30
0.0
10
10.397537
20
72.789180
30
0.0
10
10.483939
20
74.111553
30
0.0
10
10.360683
20
74.662394
30
0.0
10
10.104857
20
74.888803
30
0.0
10
9.540455
20
75.019170
30
0.0
10
6.818633
20
75.068232
30
0.0
10
1.519793
20
75.081455
30
0.0
10
0.656416
20
75.229391
30
0.0
10
0.376976
20
75.513483
30
0.0
10
0.346677
20
76.006846
30
0.0
10
0.512208
20
76.571816
30
0.0
10
0.959025
20
78.457778
30
0.0
10
1.976549
20
85.405747
30
0.0
10
2.563631
20
88.900000
30
0.0
10
3.114952
20
92.568889
30
0.0
10
4.141874
20
99.716418
30
0.0
10
4.410989
20
100.862386
30
0.0
10
4.646489
20
101.151674
30
0.0
10
4.995227
20
101.339196
30
0.0
10
6.795844
20
101.523389
30
0.0
10
10.161716
20
101.600001
30
0.0
10
13.554310
20
101.678435
30
0.0
10
14.833369
20
101.909246
30
0.0
10
15.428522
20
104.802023
30
0.0
10
16.397956
20
110.913334
30
0.0
10
18.233379
20
123.190001
30
0.0
10
18.447476
20
124.291801
30
0.0
10
18.702585
20
124.959249
30
0.0
10
19.521221
20
125.133208
30
0.0
10
21.982723
20
125.240209
30
0.0
10
33.880414
20
125.299160
30
0.0
10
46.228563
20
125.210614
30
0.0
10
48.351866
20
125.079326
30
0.0
10
48.937071
20
124.855792
30
0.0
10
48.904424
20
123.313121
30
0.0
10
48.241009
20
118.956667
30
0.0
10
46.570869
20
108.091112
30
0.0
10
46.022480
20
104.422223
30
0.0
10
45.725675
20
102.093889
30
0.0
10
45.984304
20
101.938015
30
0.0
10
47.193057
20
101.818797
30
0.0
10
55.033883
20
101.670537
30
0.0
10
110.419442
20
101.596145
30
0.0
10
175.785947
20
101.413740
30
0.0
10
176.145887
20
101.282351
30
0.0
10
176.321347
20
101.064334
30
0.0
10
176.256524
20
99.935925
30
0.0
10
175.813858
20
96.802222
30
0.0
10
175.251305
20
92.940768
30
0.0
10
174.908631
20
91.553448
30
0.0
10
174.663154
20
89.507337
30
0.0
10
174.565840
20
88.281127
30
0.0
10
174.405005
20
87.771111
30
0.0
10
174.209425
20
87.294420
30
0.0
10
174.028577
20
86.148333
30
0.0
10
173.578630
20
82.691111
30
0.0
10
172.454031
20
75.282778
30
0.0
10
171.875024
20
71.684444
30
0.0
10
171.292828
20
68.015556
30
0.0
10
170.733943
20
64.346667
30
0.0
10
170.185218
20
60.677778
30
0.0
10
169.332569
20
55.174444
30
0.0
10
168.464340
20
49.671111
30
0.0
10
167.907629
20
46.002222
30
0.0
10
167.366383
20
42.474444
30
0.0
10
166.534589
20
37.253333
30
0.0
10
165.807641
20
32.737778
30
0.0
10
165.345785
20
29.774444
30
0.0
10
164.528190
20
25.271386
30
0.0
10
163.674380
20
22.154444
30
0.0
10
161.841675
20
18.024121
30
0.0
10
160.851198
20
16.136967
30
0.0
10
160.267055
20
15.287038
30
0.0
10
160.092578
20
15.097230
30
0.0
10
160.019997
20
14.772990
30
0.0
10
159.667219
20
13.984422
30
0.0
10
158.891108
20
12.967854
30
0.0
10
157.646674
20
11.524865
30
0.0
10
155.594770
20
9.448287
30
0.0
10
153.602118
20
7.582862
30
0.0
10
152.535436
20
6.773333
30
0.0
10
151.567272
20
6.035731
30
0.0
10
150.060520
20
4.958060
30
0.0
10
148.839961
20
4.515556
30
0.0
10
148.563768
20
4.432653
30
0.0
10
148.448886
20
4.233333
30
0.0
10
148.283081
20
4.034014
30
0.0
10
147.884442
20
3.951111
30
0.0
10
147.485803
20
3.877877
30
0.0
10
147.319997
20
3.701804
30
0.0
10
147.174917
20
3.477695
30
0.0
10
146.826108
20
3.288967
30
0.0
10
144.356664
20
2.416672
30
0.0
10
142.733445
20
1.913965
30
0.0
10
141.604997
20
1.700620
30
0.0
10
141.056869
20
1.631539
30
0.0
10
140.828886
20
1.475684
30
0.0
10
140.310744
20
1.206349
30
0.0
10
139.064997
20
0.864435
30
0.0
10
137.113693
20
0.665370
30
0.0
10
132.706195
20
0.529258
30
0.0
10
112.465553
20
0.370563
30
0.0
10
94.828758
20
0.364278
30
0.0
10
87.300861
20
0.489969
30
0.0
10
87.300861
20
0.489969
30
0.0
0
LWPOLYLINE
100
AcDbPolyline
8
Layer_1
90
164
70
0
10
138.429997
20
7.835590
30
0.0
10
140.405553
20
8.338970
30
0.0
10
142.448588
20
9.057157
30
0.0
10
143.873979
20
9.595556
30
0.0
10
144.902774
20
9.972824
30
0.0
10
145.624463
20
10.512778
30
0.0
10
145.791369
20
10.662267
30
0.0
10
146.191108
20
10.724444
30
0.0
10
146.589747
20
10.794040
30
0.0
10
146.755553
20
10.961364
30
0.0
10
146.956347
20
11.220179
30
0.0
10
147.439123
20
11.509736
30
0.0
10
148.732886
20
12.331150
30
0.0
10
151.553331
20
14.825322
30
0.0
10
152.850096
20
16.172996
30
0.0
10
153.979369
20
17.795000
30
0.0
10
154.952613
20
19.191111
30
0.0
10
155.810483
20
20.705924
30
0.0
10
156.805684
20
22.964053
30
0.0
10
158.052231
20
27.029034
30
0.0
10
158.769781
20
31.467778
30
0.0
10
159.162521
20
33.443333
30
0.0
10
159.872847
20
37.394444
30
0.0
10
160.569117
20
42.192222
30
0.0
10
161.229715
20
46.566667
30
0.0
10
161.829973
20
50.517778
30
0.0
10
163.423117
20
60.677778
30
0.0
10
163.981607
20
64.346667
30
0.0
10
164.529993
20
68.015556
30
0.0
10
165.097796
20
71.684444
30
0.0
10
166.734515
20
82.589029
30
0.0
10
167.172016
20
84.876643
30
0.0
10
167.392799
20
86.742614
30
0.0
10
167.489418
20
87.867630
30
0.0
10
167.648605
20
88.335556
30
0.0
10
167.845917
20
88.812247
30
0.0
10
168.034233
20
89.958333
30
0.0
10
168.387322
20
93.074487
30
0.0
10
168.558489
20
94.567860
30
0.0
10
147.144257
20
94.484557
30
0.0
10
128.134813
20
94.330200
30
0.0
10
125.115036
20
94.128255
30
0.0
10
123.472219
20
93.751948
30
0.0
10
120.508886
20
92.798003
30
0.0
10
119.238886
20
92.278482
30
0.0
10
116.036147
20
90.788540
30
0.0
10
113.735553
20
89.450847
30
0.0
10
112.606664
20
88.610319
30
0.0
10
111.027094
20
87.353916
30
0.0
10
108.241561
20
84.948889
30
0.0
10
107.945623
20
84.795617
30
0.0
10
108.362493
20
85.429304
30
0.0
10
108.711556
20
86.058268
30
0.0
10
109.022667
20
86.998439
30
0.0
10
109.679201
20
90.368193
30
0.0
10
110.341633
20
94.615000
30
0.0
10
104.094876
20
94.764490
30
0.0
10
89.065938
20
94.826667
30
0.0
10
75.239671
20
94.795923
30
0.0
10
67.700243
20
94.586285
30
0.0
10
65.479163
20
94.359346
30
0.0
10
63.859076
20
94.021642
30
0.0
10
62.516409
20
93.551159
30
0.0
10
61.127589
20
92.925883
30
0.0
10
59.150542
20
91.838983
30
0.0
10
57.121492
20
90.460244
30
0.0
10
55.362237
20
89.028406
30
0.0
10
54.194572
20
87.782214
30
0.0
10
53.441459
20
87.011132
30
0.0
10
53.895580
20
90.818535
30
0.0
10
54.468889
20
94.666709
30
0.0
10
46.192559
20
94.826667
30
0.0
10
37.916231
20
94.826667
30
0.0
10
39.692840
20
106.186112
30
0.0
10
41.478056
20
118.043523
30
0.0
10
41.441506
20
118.198602
30
0.0
10
41.270795
20
118.316433
30
0.0
10
40.196828
20
118.456470
30
0.0
10
32.808333
20
118.466856
30
0.0
10
24.130001
20
118.392223
30
0.0
10
22.313497
20
106.615479
30
0.0
10
20.496996
20
94.838734
30
0.0
10
15.259508
20
94.762145
30
0.0
10
10.022016
20
94.685556
30
0.0
10
9.153802
20
89.182222
30
0.0
10
8.111649
20
82.620556
30
0.0
10
7.937709
20
81.562222
30
0.0
10
13.141077
20
81.562222
30
0.0
10
16.815956
20
81.489100
30
0.0
10
18.344445
20
81.313297
30
0.0
10
15.892321
20
65.438297
30
0.0
10
13.860178
20
51.862709
30
0.0
10
13.519809
20
48.589093
30
0.0
10
13.437142
20
46.143333
30
0.0
10
13.521746
20
43.453906
30
0.0
10
13.807850
20
41.245407
30
0.0
10
14.336406
20
39.309520
30
0.0
10
15.148360
20
37.437926
30
0.0
10
16.141270
20
35.868365
30
0.0
10
17.441988
20
34.384806
30
0.0
10
18.918882
20
33.117607
30
0.0
10
20.440323
20
32.197125
30
0.0
10
21.599111
20
31.659993
30
0.0
10
22.779595
20
31.261124
30
0.0
10
24.458396
20
30.979977
30
0.0
10
27.112136
20
30.796008
30
0.0
10
37.250912
20
30.637447
30
0.0
10
57.008889
20
30.621111
30
0.0
10
84.335693
20
30.696882
30
0.0
10
88.811741
20
30.850484
30
0.0
10
90.593333
20
31.133576
30
0.0
10
92.776843
20
31.888349
30
0.0
10
95.038193
20
32.929154
30
0.0
10
97.216040
20
34.172956
30
0.0
10
99.149038
20
35.536719
30
0.0
10
101.511185
20
37.650728
30
0.0
10
101.961735
20
38.321248
30
0.0
10
101.965983
20
38.780994
30
0.0
10
102.280798
20
38.520969
30
0.0
10
103.283340
20
37.465000
30
0.0
10
104.418483
20
36.318913
30
0.0
10
105.052168
20
35.842222
30
0.0
10
105.853707
20
35.174868
30
0.0
10
106.475965
20
34.599367
30
0.0
10
107.234874
20
34.152851
30
0.0
10
107.839595
20
33.829526
30
0.0
10
108.091108
20
33.550205
30
0.0
10
108.256914
20
33.375068
30
0.0
10
108.655553
20
33.302222
30
0.0
10
109.054192
20
33.219319
30
0.0
10
109.219997
20
33.020000
30
0.0
10
109.345477
20
32.820681
30
0.0
10
109.647169
20
32.737778
30
0.0
10
110.564391
20
32.470612
30
0.0
10
111.581200
20
32.009218
30
0.0
10
112.831010
20
31.634499
30
0.0
10
116.393437
20
31.113713
30
0.0
10
121.979270
20
30.845501
30
0.0
10
130.316108
20
30.767113
30
0.0
10
141.393331
20
30.762231
30
0.0
10
141.393331
20
29.649999
30
0.0
10
141.310428
20
28.813247
30
0.0
10
141.111108
20
28.363342
30
0.0
10
140.911789
20
28.110224
30
0.0
10
140.828886
20
27.746599
30
0.0
10
139.956453
20
25.576030
30
0.0
10
138.812932
20
23.740475
30
0.0
10
137.408921
20
22.304150
30
0.0
10
135.673000
20
21.209488
30
0.0
10
133.533752
20
20.398921
30
0.0
10
132.099970
20
20.152935
30
0.0
10
129.153564
20
19.996860
30
0.0
10
114.401710
20
19.824765
30
0.0
10
96.864551
20
19.714427
30
0.0
10
96.664444
20
18.817773
30
0.0
10
96.227894
20
16.086675
30
0.0
10
95.672162
20
12.700008
30
0.0
10
95.148771
20
9.366151
30
0.0
10
95.075107
20
7.465644
30
0.0
10
101.821994
20
7.347285
30
0.0
10
116.447122
20
7.413440
30
0.0
10
131.224966
20
7.598185
30
0.0
10
138.429997
20
7.835598
30
0.0
10
138.429997
20
7.835590
30
0.0
0
LWPOLYLINE
100
AcDbPolyline
8
Layer_1
90
8
70
0
10
99.624442
20
41.910000
30
0.0
10
99.735355
20
42.333333
30
0.0
10
100.008715
20
41.910000
30
0.0
10
100.043154
20
41.611021
30
0.0
10
99.897802
20
41.486667
30
0.0
10
99.704744
20
41.611021
30
0.0
10
99.624442
20
41.910000
30
0.0
10
99.624442
20
41.910000
30
0.0
0
LWPOLYLINE
100
AcDbPolyline
8
Layer_1
90
53
70
0
10
127.564442
20
44.594080
30
0.0
10
125.645994
20
44.886213
30
0.0
10
124.036664
20
45.434888
30
0.0
10
122.554997
20
46.007980
30
0.0
10
121.907209
20
46.324441
30
0.0
10
121.637775
20
46.600906
30
0.0
10
121.547961
20
46.776043
30
0.0
10
121.332015
20
46.848889
30
0.0
10
120.901178
20
47.087166
30
0.0
10
120.206453
20
47.717385
30
0.0
10
118.533331
20
49.645971
30
0.0
10
117.900169
20
50.663427
30
0.0
10
117.345791
20
51.916131
30
0.0
10
116.514690
20
54.914530
30
0.0
10
116.122644
20
58.215657
30
0.0
10
116.252269
20
61.394004
30
0.0
10
116.966129
20
65.172213
30
0.0
10
118.011794
20
68.454247
30
0.0
10
119.471390
20
71.445750
30
0.0
10
121.427040
20
74.352367
30
0.0
10
123.539907
20
76.591404
30
0.0
10
124.606441
20
77.512934
30
0.0
10
125.236108
20
77.890432
30
0.0
10
125.485258
20
77.975420
30
0.0
10
125.588886
20
78.175556
30
0.0
10
125.670847
20
78.374875
30
0.0
10
125.867891
20
78.457778
30
0.0
10
126.688283
20
78.921336
30
0.0
10
127.637953
20
79.453829
30
0.0
10
129.160945
20
80.083118
30
0.0
10
130.418406
20
80.477483
30
0.0
10
131.964935
20
80.698076
30
0.0
10
139.276664
20
80.882944
30
0.0
10
148.406271
20
80.813399
30
0.0
10
149.184004
20
80.538042
30
0.0
10
149.241978
20
80.253152
30
0.0
10
149.156728
20
79.761681
30
0.0
10
148.698145
20
77.046667
30
0.0
10
148.181847
20
73.518889
30
0.0
10
147.636679
20
69.850000
30
0.0
10
146.448777
20
62.512222
30
0.0
10
145.908886
20
58.984444
30
0.0
10
145.344442
20
55.315556
30
0.0
10
144.763939
20
51.646667
30
0.0
10
144.245327
20
48.118889
30
0.0
10
143.758818
20
45.543200
30
0.0
10
143.515617
20
44.863287
30
0.0
10
143.254868
20
44.524876
30
0.0
10
140.983813
20
44.386504
30
0.0
10
136.184408
20
44.358209
30
0.0
10
130.997626
20
44.430548
30
0.0
10
127.564442
20
44.594080
30
0.0
10
127.564442
20
44.594080
30
0.0
0
LWPOLYLINE
100
AcDbPolyline
8
Layer_1
90
53
70
0
10
38.533417
20
44.905154
30
0.0
10
36.803916
20
45.235095
30
0.0
10
35.318180
20
45.683885
30
0.0
10
34.086944
20
46.247526
30
0.0
10
33.120940
20
46.922018
30
0.0
10
32.279835
20
47.780798
30
0.0
10
31.725359
20
48.660576
30
0.0
10
31.420105
20
49.642348
30
0.0
10
31.326667
20
50.807112
30
0.0
10
33.206337
20
64.358084
30
0.0
10
35.737704
20
80.645000
30
0.0
10
35.905039
20
81.562222
30
0.0
10
43.100492
20
81.562222
30
0.0
10
48.923337
20
81.489309
30
0.0
10
49.942980
20
81.370458
30
0.0
10
50.146218
20
81.172044
30
0.0
10
49.224367
20
78.184158
30
0.0
10
48.705760
20
75.141271
30
0.0
10
48.604235
20
72.177426
30
0.0
10
48.933631
20
69.426667
30
0.0
10
49.496794
20
67.385522
30
0.0
10
50.287730
20
65.467192
30
0.0
10
51.286997
20
63.694703
30
0.0
10
52.475155
20
62.091082
30
0.0
10
53.832765
20
60.679354
30
0.0
10
55.340384
20
59.482547
30
0.0
10
56.978574
20
58.523686
30
0.0
10
58.727893
20
57.825798
30
0.0
10
59.955821
20
57.537933
30
0.0
10
61.852776
20
57.376550
30
0.0
10
70.933477
20
57.288980
30
0.0
10
78.923069
20
57.202616
30
0.0
10
83.237047
20
56.992212
30
0.0
10
84.936049
20
56.623649
30
0.0
10
86.387387
20
56.108894
30
0.0
10
87.592021
20
55.446929
30
0.0
10
88.550914
20
54.636739
30
0.0
10
89.265027
20
53.677306
30
0.0
10
89.735322
20
52.567613
30
0.0
10
89.962759
20
51.306642
30
0.0
10
89.948300
20
49.893378
30
0.0
10
89.786443
20
48.835272
30
0.0
10
89.500431
20
47.915029
30
0.0
10
89.082319
20
47.124982
30
0.0
10
88.524164
20
46.457465
30
0.0
10
87.818022
20
45.904811
30
0.0
10
86.955949
20
45.459353
30
0.0
10
84.732235
20
44.859361
30
0.0
10
76.982447
20
44.678904
30
0.0
10
61.738546
20
44.631301
30
0.0
10
46.441786
20
44.709176
30
0.0
10
38.533417
20
44.905154
30
0.0
10
38.533417
20
44.905154
30
0.0
0
LWPOLYLINE
100
AcDbPolyline
8
Layer_1
90
7
70
0
10
98.107074
20
45.589800
30
0.0
10
97.950547
20
46.230834
30
0.0
10
98.247790
20
45.910500
30
0.0
10
98.415176
20
45.263328
30
0.0
10
98.270174
20
45.304732
30
0.0
10
98.107074
20
45.589800
30
0.0
10
98.107074
20
45.589800
30
0.0
0
LWPOLYLINE
100
AcDbPolyline
8
Layer_1
90
7
70
0
10
97.388948
20
47.530927
30
0.0
10
97.423302
20
47.862868
30
0.0
10
97.537177
20
47.901344
30
0.0
10
97.559444
20
47.360417
30
0.0
10
97.445484
20
47.237955
30
0.0
10
97.388937
20
47.530927
30
0.0
10
97.388948
20
47.530927
30
0.0
0
LWPOLYLINE
100
AcDbPolyline
8
Layer_1
90
7
70
0
10
97.106726
20
48.659816
30
0.0
10
97.141080
20
48.991757
30
0.0
10
97.254955
20
49.030232
30
0.0
10
97.277222
20
48.489306
30
0.0
10
97.163262
20
48.366844
30
0.0
10
97.106715
20
48.659816
30
0.0
10
97.106726
20
48.659816
30
0.0
0
LWPOLYLINE
100
AcDbPolyline
8
Layer_1
90
7
70
0
10
96.575019
20
51.787778
30
0.0
10
96.608920
20
52.283685
30
0.0
10
96.705121
20
52.287037
30
0.0
10
96.715591
20
51.440371
30
0.0
10
96.620636
20
51.336477
30
0.0
10
96.575033
20
51.787778
30
0.0
10
96.575019
20
51.787778
30
0.0
0
LWPOLYLINE
100
AcDbPolyline
8
Layer_1
90
7
70
0
10
96.292797
20
54.045556
30
0.0
10
96.326698
20
54.541463
30
0.0
10
96.422899
20
54.544815
30
0.0
10
96.433369
20
53.698148
30
0.0
10
96.338414
20
53.594254
30
0.0
10
96.292811
20
54.045556
30
0.0
10
96.292797
20
54.045556
30
0.0
0
LWPOLYLINE
100
AcDbPolyline
8
Layer_1
90
9
70
0
10
96.314641
20
59.548889
30
0.0
10
96.350569
20
60.259295
30
0.0
10
96.389459
20
60.330237
30
0.0
10
96.436948
20
60.183889
30
0.0
10
96.436948
20
58.913889
30
0.0
10
96.389459
20
58.767541
30
0.0
10
96.350569
20
58.838483
30
0.0
10
96.314641
20
59.548889
30
0.0
10
96.314641
20
59.548889
30
0.0
0
LWPOLYLINE
100
AcDbPolyline
8
Layer_1
90
7
70
0
10
96.542279
20
61.924260
30
0.0
10
96.576632
20
62.256201
30
0.0
10
96.690507
20
62.294677
30
0.0
10
96.712775
20
61.753750
30
0.0
10
96.598815
20
61.631288
30
0.0
10
96.542267
20
61.924260
30
0.0
10
96.542279
20
61.924260
30
0.0
0
LWPOLYLINE
100
AcDbPolyline
8
Layer_1
90
7
70
0
10
97.129005
20
64.911111
30
0.0
10
97.170820
20
65.305781
30
0.0
10
97.271355
20
65.263889
30
0.0
10
97.271355
20
64.558333
30
0.0
10
97.170820
20
64.516441
30
0.0
10
97.129005
20
64.911111
30
0.0
10
97.129005
20
64.911111
30
0.0
0
LWPOLYLINE
100
AcDbPolyline
8
Layer_1
90
7
70
0
10
97.671170
20
67.004260
30
0.0
10
97.705524
20
67.336201
30
0.0
10
97.819399
20
67.374677
30
0.0
10
97.841666
20
66.833750
30
0.0
10
97.727706
20
66.711288
30
0.0
10
97.671159
20
67.004260
30
0.0
10
97.671170
20
67.004260
30
0.0
0
LWPOLYLINE
100
AcDbPolyline
8
Layer_1
90
37
70
0
10
97.725896
20
68.051437
30
0.0
10
97.294305
20
68.353607
30
0.0
10
96.612405
20
68.596448
30
0.0
10
94.169170
20
68.927891
30
0.0
10
89.739177
20
69.093258
30
0.0
10
82.665409
20
69.140036
30
0.0
10
75.180465
20
69.181463
30
0.0
10
70.978974
20
69.392600
30
0.0
10
69.727721
20
69.605957
30
0.0
10
68.839168
20
69.914719
30
0.0
10
68.160594
20
70.336545
30
0.0
10
67.539277
20
70.889094
30
0.0
10
66.739465
20
71.937583
30
0.0
10
66.168931
20
73.240237
30
0.0
10
65.876248
20
74.644730
30
0.0
10
65.909989
20
75.998733
30
0.0
10
66.167008
20
77.016938
30
0.0
10
66.585514
20
78.048390
30
0.0
10
67.791211
20
80.001136
30
0.0
10
69.295539
20
81.557184
30
0.0
10
70.087332
20
82.092763
30
0.0
10
70.866954
20
82.416746
30
0.0
10
76.203280
20
82.601574
30
0.0
10
89.032664
20
82.622754
30
0.0
10
106.163135
20
82.550000
30
0.0
10
105.645455
20
81.941323
30
0.0
10
104.704442
20
80.715556
30
0.0
10
103.792441
20
79.489788
30
0.0
10
102.818333
20
78.166208
30
0.0
10
101.439582
20
75.635556
30
0.0
10
100.473253
20
73.942222
30
0.0
10
99.945551
20
72.806070
30
0.0
10
98.864107
20
69.851575
30
0.0
10
98.139641
20
67.940884
30
0.0
10
97.956593
20
67.842614
30
0.0
10
97.725896
20
68.051437
30
0.0
10
97.725896
20
68.051437
30
0.0
  0
ENDSEC
  0
SECTION
  2
OBJECTS
  0
DICTIONARY
  5
C
330
0
100
AcDbDictionary
  3
ACAD_GROUP
350
D
  3
ACAD_MLINESTYLE
350
17
  0
DICTIONARY
  5
D
330
C
100
AcDbDictionary
  0
DICTIONARY
  5
1A
330
C
100
AcDbDictionary
  0
DICTIONARY
  5
17
330
C
100
AcDbDictionary
  3
STANDARD
350
18
  0
DICTIONARY
  5
19
330
C
100
AcDbDictionary
  0
ENDSEC
  0
EOF
