999
Inkscape export via OpenSCAD DXF Export
  0
SECTION
  2
HEADER
  9
$ACADVER
  1
AC1014
  9
$HANDSEED
  5
FFFF
  9
$MEASUREMENT
 70
     1
  0
ENDSEC
  0
SECTION
  2
TABLES
  0
TABLE
  2
VPORT
  5
8
330
0
100
AcDbSymbolTable
 70
     4
  0
VPORT
  5
2E
330
8
100
AcDbSymbolTableRecord
100
AcDbViewportTableRecord
  2
*ACTIVE
 70
     0
 10
0.0
 20
0.0
 11
1.0
 21
1.0
 12
210.0
 22
148.5
 13
0.0
 23
0.0
 14
10.0
 24
10.0
 15
10.0
 25
10.0
 16
0.0
 26
0.0
 36
1.0
 17
0.0
 27
0.0
 37
0.0
 40
341.0
 41
1.24
 42
50.0
 43
0.0
 44
0.0
 50
0.0
 51
0.0
 71
     0
 72
   100
 73
     1
 74
     3
 75
     0
 76
     0
 77
     0
 78
     0
  0
ENDTAB
  0
TABLE
  2
LTYPE
  5
5
330
0
100
AcDbSymbolTable
 70
     1
  0
LTYPE
  5
14
330
5
100
AcDbSymbolTableRecord
100
AcDbLinetypeTableRecord
  2
BYBLOCK
 70
     0
  3

 72
    65
 73
     0
 40
0.0
  0
LTYPE
  5
15
330
5
100
AcDbSymbolTableRecord
100
AcDbLinetypeTableRecord
  2
BYLAYER
 70
     0
  3

 72
    65
 73
     0
 40
0.0
  0
LTYPE
  5
16
330
5
100
AcDbSymbolTableRecord
100
AcDbLinetypeTableRecord
  2
CONTINUOUS
 70
     0
  3
Solid line
 72
    65
 73
     0
 40
0.0
  0
ENDTAB
  0
TABLE
0
TABLE
2
LAYER
5
2
330
0
100
AcDbSymbolTable
70
1
0
LAYER
5
10
330
2
100
AcDbSymbolTableRecord
100
AcDbLayerTableRecord
2
Layer_1
70
0
62
7
6
CONTINUOUS
0
ENDTAB
0
ENDSEC
  0
ENDTAB
  0
TABLE
  2
STYLE
  5
3
330
0
100
AcDbSymbolTable
 70
     1
  0
STYLE
  5
11
330
3
100
AcDbSymbolTableRecord
100
AcDbTextStyleTableRecord
  2
STANDARD
 70
     0
 40
0.0
 41
1.0
 50
0.0
 71
     0
 42
2.5
  3
txt
  4

  0
ENDTAB
  0
TABLE
  2
VIEW
  5
6
330
0
100
AcDbSymbolTable
 70
     0
  0
ENDTAB
  0
TABLE
  2
UCS
  5
7
330
0
100
AcDbSymbolTable
 70
     0
  0
ENDTAB
  0
TABLE
  2
APPID
  5
9
330
0
100
AcDbSymbolTable
 70
     2
  0
APPID
  5
12
330
9
100
AcDbSymbolTableRecord
100
AcDbRegAppTableRecord
  2
ACAD
 70
     0
  0
ENDTAB
  0
TABLE
  2
DIMSTYLE
  5
A
330
0
100
AcDbSymbolTable
 70
     1
  0
DIMSTYLE
105
27
330
A
100
AcDbSymbolTableRecord
100
AcDbDimStyleTableRecord
  2
ISO-25
 70
     0
  3

  4

  5

  6

  7

 40
1.0
 41
2.5
 42
0.625
 43
3.75
 44
1.25
 45
0.0
 46
0.0
 47
0.0
 48
0.0
140
2.5
141
2.5
142
0.0
143
0.03937007874016
144
1.0
145
0.0
146
1.0
147
0.625
 71
     0
 72
     0
 73
     0
 74
     0
 75
     0
 76
     0
 77
     1
 78
     8
170
     0
171
     3
172
     1
173
     0
174
     0
175
     0
176
     0
177
     0
178
     0
270
     2
271
     2
272
     2
273
     2
274
     3
340
11
275
     0
280
     0
281
     0
282
     0
283
     0
284
     8
285
     0
286
     0
287
     3
288
     0
  0
ENDTAB
  0
TABLE
  2
BLOCK_RECORD
  5
1
330
0
100
AcDbSymbolTable
 70
     1
  0
BLOCK_RECORD
  5
1F
330
1
100
AcDbSymbolTableRecord
100
AcDbBlockTableRecord
  2
*MODEL_SPACE
  0
BLOCK_RECORD
  5
1B
330
1
100
AcDbSymbolTableRecord
100
AcDbBlockTableRecord
  2
*PAPER_SPACE
  0
ENDTAB
  0
ENDSEC
  0
SECTION
  2
BLOCKS
  0
BLOCK
  5
20
330
1F
100
AcDbEntity
  8
0
100
AcDbBlockBegin
  2
*MODEL_SPACE
 70
     0
 10
0.0
 20
0.0
 30
0.0
  3
*MODEL_SPACE
  1

  0
ENDBLK
  5
21
330
1F
100
AcDbEntity
  8
0
100
AcDbBlockEnd
  0
BLOCK
  5
1C
330
1B
100
AcDbEntity
 67
     1
  8
0
100
AcDbBlockBegin
  2
*PAPER_SPACE
  1

  0
ENDBLK
  5
1D
330
1B
100
AcDbEntity
 67
     1
  8
0
100
AcDbBlockEnd
  0
ENDSEC
  0
SECTION
  2
ENTITIES
0
DIMENSION
5
83
100
AcDbEntity
62
256
370
-1
6
ByLayer
1
total_width
3
Standard
70
0
71
5
72
1
41
1.0
100
AcDbAlignedDimension
13
0.282222
23
0.000000
33
0.0
14
51.364444
24
0.000000
34
0.0
50
0.000000
100
AcDbRotatedDimension
0
DIMENSION
5
83
100
AcDbEntity
62
256
370
-1
6
ByLayer
1
total_height
3
Standard
70
0
71
5
72
1
41
1.0
100
AcDbAlignedDimension
13
0.000000
23
0.282222
33
0.0
14
0.000000
24
69.426667
34
0.0
50
90.000000
100
AcDbRotatedDimension
0
DIMENSION
8
Layer_1
5
83
100
AcDbEntity
62
256
370
-1
6
ByLayer
1
Layer_1_width
3
Standard
70
0
71
5
72
1
41
1.0
100
AcDbAlignedDimension
13
0.282222
23
0.000000
33
0.0
14
51.364444
24
0.000000
34
0.0
50
0.000000
100
AcDbRotatedDimension
0
DIMENSION
8
Layer_1
5
83
100
AcDbEntity
62
256
370
-1
6
ByLayer
1
Layer_1_height
3
Standard
70
0
71
5
72
1
41
1.0
100
AcDbAlignedDimension
13
0.000000
23
0.282222
33
0.0
14
0.000000
24
69.426667
34
0.0
50
90.000000
100
AcDbRotatedDimension
0
LWPOLYLINE
100
AcDbPolyline
8
Layer_1
90
94
70
0
10
0.749297
20
0.798333
30
0.0
10
0.606024
20
1.134343
30
0.0
10
0.495284
20
1.988368
30
0.0
10
0.354842
20
6.460194
30
0.0
10
0.282222
20
34.927063
30
0.0
10
0.354640
20
63.123527
30
0.0
10
0.488424
20
67.738064
30
0.0
10
0.592328
20
68.643374
30
0.0
10
0.725714
20
68.983175
30
0.0
10
1.706988
20
69.219669
30
0.0
10
5.111625
20
69.353541
30
0.0
10
25.522785
20
69.426667
30
0.0
10
49.876363
20
69.426667
30
0.0
10
50.620405
20
68.682626
30
0.0
10
51.364444
20
67.938586
30
0.0
10
51.364444
20
61.627071
30
0.0
10
51.364444
20
55.315556
30
0.0
10
48.965556
20
55.315556
30
0.0
10
46.937084
20
55.402712
30
0.0
10
46.630608
20
55.572357
30
0.0
10
46.566667
20
55.880000
30
0.0
10
46.485087
20
56.193619
30
0.0
10
46.055139
20
56.362600
30
0.0
10
43.038889
20
56.444444
30
0.0
10
39.511111
20
56.444444
30
0.0
10
39.511111
20
55.456667
30
0.0
10
39.632063
20
54.638222
30
0.0
10
39.845620
20
54.501521
30
0.0
10
40.216667
20
54.468889
30
0.0
10
40.778345
20
54.330440
30
0.0
10
40.922222
20
53.789955
30
0.0
10
40.876233
20
53.404172
30
0.0
10
40.599677
20
53.198820
30
0.0
10
38.523333
20
53.085084
30
0.0
10
36.439519
20
53.152487
30
0.0
10
36.167632
20
53.353363
30
0.0
10
36.124444
20
53.743860
30
0.0
10
36.248799
20
54.351792
30
0.0
10
36.547778
20
54.851905
30
0.0
10
36.864505
20
55.585918
30
0.0
10
36.971111
20
56.932286
30
0.0
10
37.070507
20
58.202400
30
0.0
10
37.309778
20
58.928000
30
0.0
10
38.637264
20
59.185394
30
0.0
10
42.107556
20
59.266667
30
0.0
10
46.566667
20
59.266667
30
0.0
10
46.566667
20
62.512222
30
0.0
10
46.566667
20
65.757778
30
0.0
10
25.400000
20
65.757778
30
0.0
10
4.233333
20
65.757778
30
0.0
10
4.233333
20
34.995556
30
0.0
10
4.233333
20
4.233333
30
0.0
10
25.400000
20
4.233333
30
0.0
10
46.566667
20
4.233333
30
0.0
10
46.566667
20
6.773333
30
0.0
10
46.566667
20
9.313333
30
0.0
10
42.107556
20
9.313333
30
0.0
10
38.637264
20
9.394606
30
0.0
10
37.309778
20
9.652000
30
0.0
10
37.069009
20
10.398006
30
0.0
10
36.971111
20
11.738472
30
0.0
10
36.876909
20
13.133495
30
0.0
10
36.746071
20
13.481404
30
0.0
10
36.547778
20
13.648727
30
0.0
10
36.243310
20
14.005779
30
0.0
10
36.124444
20
14.666699
30
0.0
10
36.124444
20
15.522222
30
0.0
10
38.523333
20
15.522222
30
0.0
10
40.609935
20
15.431070
30
0.0
10
40.880080
20
15.222750
30
0.0
10
40.922222
20
14.822043
30
0.0
10
40.762725
20
14.240116
30
0.0
10
40.216667
20
13.944781
30
0.0
10
39.657977
20
13.634688
30
0.0
10
39.511111
20
12.951627
30
0.0
10
39.511111
20
12.135556
30
0.0
10
43.038889
20
12.135556
30
0.0
10
46.055139
20
12.217400
30
0.0
10
46.485087
20
12.386381
30
0.0
10
46.566667
20
12.700000
30
0.0
10
46.630608
20
13.007643
30
0.0
10
46.937084
20
13.177288
30
0.0
10
48.965556
20
13.264444
30
0.0
10
51.364444
20
13.264444
30
0.0
10
51.364444
20
7.598291
30
0.0
10
51.364444
20
1.932136
30
0.0
10
50.539486
20
1.107180
30
0.0
10
49.714531
20
0.282222
30
0.0
10
25.465450
20
0.282222
30
0.0
10
4.599334
20
0.355639
30
0.0
10
1.546003
20
0.509972
30
0.0
10
0.990409
20
0.634792
30
0.0
10
0.749297
20
0.798333
30
0.0
10
0.749297
20
0.798333
30
0.0
  0
ENDSEC
  0
SECTION
  2
OBJECTS
  0
DICTIONARY
  5
C
330
0
100
AcDbDictionary
  3
ACAD_GROUP
350
D
  3
ACAD_MLINESTYLE
350
17
  0
DICTIONARY
  5
D
330
C
100
AcDbDictionary
  0
DICTIONARY
  5
1A
330
C
100
AcDbDictionary
  0
DICTIONARY
  5
17
330
C
100
AcDbDictionary
  3
STANDARD
350
18
  0
DICTIONARY
  5
19
330
C
100
AcDbDictionary
  0
ENDSEC
  0
EOF
