999
Inkscape export via OpenSCAD DXF Export
  0
SECTION
  2
HEADER
  9
$ACADVER
  1
AC1014
  9
$HANDSEED
  5
FFFF
  9
$MEASUREMENT
 70
     1
  0
ENDSEC
  0
SECTION
  2
TABLES
  0
TABLE
  2
VPORT
  5
8
330
0
100
AcDbSymbolTable
 70
     4
  0
VPORT
  5
2E
330
8
100
AcDbSymbolTableRecord
100
AcDbViewportTableRecord
  2
*ACTIVE
 70
     0
 10
0.0
 20
0.0
 11
1.0
 21
1.0
 12
210.0
 22
148.5
 13
0.0
 23
0.0
 14
10.0
 24
10.0
 15
10.0
 25
10.0
 16
0.0
 26
0.0
 36
1.0
 17
0.0
 27
0.0
 37
0.0
 40
341.0
 41
1.24
 42
50.0
 43
0.0
 44
0.0
 50
0.0
 51
0.0
 71
     0
 72
   100
 73
     1
 74
     3
 75
     0
 76
     0
 77
     0
 78
     0
  0
ENDTAB
  0
TABLE
  2
LTYPE
  5
5
330
0
100
AcDbSymbolTable
 70
     1
  0
LTYPE
  5
14
330
5
100
AcDbSymbolTableRecord
100
AcDbLinetypeTableRecord
  2
BYBLOCK
 70
     0
  3

 72
    65
 73
     0
 40
0.0
  0
LTYPE
  5
15
330
5
100
AcDbSymbolTableRecord
100
AcDbLinetypeTableRecord
  2
BYLAYER
 70
     0
  3

 72
    65
 73
     0
 40
0.0
  0
LTYPE
  5
16
330
5
100
AcDbSymbolTableRecord
100
AcDbLinetypeTableRecord
  2
CONTINUOUS
 70
     0
  3
Solid line
 72
    65
 73
     0
 40
0.0
  0
ENDTAB
  0
TABLE
0
TABLE
2
LAYER
5
2
330
0
100
AcDbSymbolTable
70
1
0
LAYER
5
10
330
2
100
AcDbSymbolTableRecord
100
AcDbLayerTableRecord
2
Layer_1
70
0
62
7
6
CONTINUOUS
0
ENDTAB
0
ENDSEC
  0
ENDTAB
  0
TABLE
  2
STYLE
  5
3
330
0
100
AcDbSymbolTable
 70
     1
  0
STYLE
  5
11
330
3
100
AcDbSymbolTableRecord
100
AcDbTextStyleTableRecord
  2
STANDARD
 70
     0
 40
0.0
 41
1.0
 50
0.0
 71
     0
 42
2.5
  3
txt
  4

  0
ENDTAB
  0
TABLE
  2
VIEW
  5
6
330
0
100
AcDbSymbolTable
 70
     0
  0
ENDTAB
  0
TABLE
  2
UCS
  5
7
330
0
100
AcDbSymbolTable
 70
     0
  0
ENDTAB
  0
TABLE
  2
APPID
  5
9
330
0
100
AcDbSymbolTable
 70
     2
  0
APPID
  5
12
330
9
100
AcDbSymbolTableRecord
100
AcDbRegAppTableRecord
  2
ACAD
 70
     0
  0
ENDTAB
  0
TABLE
  2
DIMSTYLE
  5
A
330
0
100
AcDbSymbolTable
 70
     1
  0
DIMSTYLE
105
27
330
A
100
AcDbSymbolTableRecord
100
AcDbDimStyleTableRecord
  2
ISO-25
 70
     0
  3

  4

  5

  6

  7

 40
1.0
 41
2.5
 42
0.625
 43
3.75
 44
1.25
 45
0.0
 46
0.0
 47
0.0
 48
0.0
140
2.5
141
2.5
142
0.0
143
0.03937007874016
144
1.0
145
0.0
146
1.0
147
0.625
 71
     0
 72
     0
 73
     0
 74
     0
 75
     0
 76
     0
 77
     1
 78
     8
170
     0
171
     3
172
     1
173
     0
174
     0
175
     0
176
     0
177
     0
178
     0
270
     2
271
     2
272
     2
273
     2
274
     3
340
11
275
     0
280
     0
281
     0
282
     0
283
     0
284
     8
285
     0
286
     0
287
     3
288
     0
  0
ENDTAB
  0
TABLE
  2
BLOCK_RECORD
  5
1
330
0
100
AcDbSymbolTable
 70
     1
  0
BLOCK_RECORD
  5
1F
330
1
100
AcDbSymbolTableRecord
100
AcDbBlockTableRecord
  2
*MODEL_SPACE
  0
BLOCK_RECORD
  5
1B
330
1
100
AcDbSymbolTableRecord
100
AcDbBlockTableRecord
  2
*PAPER_SPACE
  0
ENDTAB
  0
ENDSEC
  0
SECTION
  2
BLOCKS
  0
BLOCK
  5
20
330
1F
100
AcDbEntity
  8
0
100
AcDbBlockBegin
  2
*MODEL_SPACE
 70
     0
 10
0.0
 20
0.0
 30
0.0
  3
*MODEL_SPACE
  1

  0
ENDBLK
  5
21
330
1F
100
AcDbEntity
  8
0
100
AcDbBlockEnd
  0
BLOCK
  5
1C
330
1B
100
AcDbEntity
 67
     1
  8
0
100
AcDbBlockBegin
  2
*PAPER_SPACE
  1

  0
ENDBLK
  5
1D
330
1B
100
AcDbEntity
 67
     1
  8
0
100
AcDbBlockEnd
  0
ENDSEC
  0
SECTION
  2
ENTITIES
0
DIMENSION
5
83
100
AcDbEntity
62
256
370
-1
6
ByLayer
1
total_width
3
Standard
70
0
71
5
72
1
41
1.0
100
AcDbAlignedDimension
13
6.373724
23
0.000000
33
0.0
14
30.480000
24
0.000000
34
0.0
50
0.000000
100
AcDbRotatedDimension
0
DIMENSION
5
83
100
AcDbEntity
62
256
370
-1
6
ByLayer
1
total_height
3
Standard
70
0
71
5
72
1
41
1.0
100
AcDbAlignedDimension
13
0.000000
23
2.257778
33
0.0
14
0.000000
24
46.002222
34
0.0
50
90.000000
100
AcDbRotatedDimension
0
DIMENSION
8
Layer_1
5
83
100
AcDbEntity
62
256
370
-1
6
ByLayer
1
Layer_1_width
3
Standard
70
0
71
5
72
1
41
1.0
100
AcDbAlignedDimension
13
6.373724
23
0.000000
33
0.0
14
30.480000
24
0.000000
34
0.0
50
0.000000
100
AcDbRotatedDimension
0
DIMENSION
8
Layer_1
5
83
100
AcDbEntity
62
256
370
-1
6
ByLayer
1
Layer_1_height
3
Standard
70
0
71
5
72
1
41
1.0
100
AcDbAlignedDimension
13
0.000000
23
2.257778
33
0.0
14
0.000000
24
46.002222
34
0.0
50
90.000000
100
AcDbRotatedDimension
0
LWPOLYLINE
100
AcDbPolyline
8
Layer_1
90
125
70
0
10
17.780000
20
3.119126
30
0.0
10
17.942128
20
3.868527
30
0.0
10
18.608950
20
4.269446
30
0.0
10
19.284215
20
4.685663
30
0.0
10
19.619152
20
5.383654
30
0.0
10
19.903709
20
6.030674
30
0.0
10
20.460017
20
6.208889
30
0.0
10
20.957465
20
6.114098
30
0.0
10
21.227194
20
5.886196
30
0.0
10
21.443074
20
5.704616
30
0.0
10
21.937714
20
5.886196
30
0.0
10
22.949322
20
6.114098
30
0.0
10
24.534780
20
6.208889
30
0.0
10
26.528889
20
6.208889
30
0.0
10
26.528889
20
7.196667
30
0.0
10
26.528889
20
8.184444
30
0.0
10
21.715497
20
8.184444
30
0.0
10
16.902106
20
8.184444
30
0.0
10
16.172306
20
6.561667
30
0.0
10
15.461302
20
5.096541
30
0.0
10
14.819454
20
4.316632
30
0.0
10
13.947726
20
4.006602
30
0.0
10
12.547082
20
3.951111
30
0.0
10
10.506090
20
3.951111
30
0.0
10
8.366246
20
6.349735
30
0.0
10
6.882256
20
8.170634
30
0.0
10
6.373724
20
9.132279
30
0.0
10
6.687183
20
9.515495
30
0.0
10
7.233938
20
9.897725
30
0.0
10
7.674237
20
10.070696
30
0.0
10
8.108384
20
9.944323
30
0.0
10
9.829525
20
8.235583
30
0.0
10
11.490328
20
6.609272
30
0.0
10
12.031246
20
6.288239
30
0.0
10
12.503864
20
6.200400
30
0.0
10
12.942727
20
6.259496
30
0.0
10
13.282180
20
6.488383
30
0.0
10
14.010187
20
7.831667
30
0.0
10
14.748823
20
9.399375
30
0.0
10
15.134922
20
9.865797
30
0.0
10
15.660076
20
10.167886
30
0.0
10
17.511162
20
10.420926
30
0.0
10
21.069297
20
10.442222
30
0.0
10
26.528889
20
10.442222
30
0.0
10
26.528889
20
23.988889
30
0.0
10
26.528889
20
37.535556
30
0.0
10
21.148113
20
37.535556
30
0.0
10
17.185627
20
37.616555
30
0.0
10
15.248506
20
37.813225
30
0.0
10
14.688344
20
38.549535
30
0.0
10
14.070139
20
39.929892
30
0.0
10
13.382391
20
41.491893
30
0.0
10
13.045838
20
41.713408
30
0.0
10
12.561413
20
41.745783
30
0.0
10
12.067361
20
41.651143
30
0.0
10
11.545188
20
41.344074
30
0.0
10
10.018889
20
39.786222
30
0.0
10
8.690741
20
38.413902
30
0.0
10
7.875408
20
37.833772
30
0.0
10
7.432176
20
37.967831
30
0.0
10
6.981586
20
38.323697
30
0.0
10
6.633059
20
38.788934
30
0.0
10
6.496019
20
39.251111
30
0.0
10
7.142581
20
40.218344
30
0.0
10
8.690176
20
41.980556
30
0.0
10
10.879426
20
44.308889
30
0.0
10
12.742934
20
44.308889
30
0.0
10
14.016694
20
44.261636
30
0.0
10
14.783140
20
43.969308
30
0.0
10
15.321436
20
43.206048
30
0.0
10
15.910750
20
41.746000
30
0.0
10
16.591505
20
39.934444
30
0.0
10
21.576746
20
39.857309
30
0.0
10
26.561986
20
39.780174
30
0.0
10
26.474882
20
40.986198
30
0.0
10
26.387778
20
42.192222
30
0.0
10
24.333725
20
42.234812
30
0.0
10
22.763340
20
42.364242
30
0.0
10
21.872149
20
42.615617
30
0.0
10
21.455693
20
42.792954
30
0.0
10
21.013265
20
42.502471
30
0.0
10
20.356286
20
42.051111
30
0.0
10
20.057500
20
42.164353
30
0.0
10
19.771855
20
42.451866
30
0.0
10
19.473333
20
43.236444
30
0.0
10
19.325762
20
43.609252
30
0.0
10
18.918819
20
43.744444
30
0.0
10
18.482442
20
43.879441
30
0.0
10
18.119688
20
44.243999
30
0.0
10
17.871795
20
44.777475
30
0.0
10
17.780000
20
45.419224
30
0.0
10
17.826159
20
45.725682
30
0.0
10
18.019254
20
45.902158
30
0.0
10
19.173946
20
46.002222
30
0.0
10
19.949920
20
45.964857
30
0.0
10
20.552515
20
45.808508
30
0.0
10
21.872222
20
44.873333
30
0.0
10
22.628800
20
44.256545
30
0.0
10
23.233528
20
43.917422
30
0.0
10
23.902728
20
43.774033
30
0.0
10
24.852720
20
43.744444
30
0.0
10
26.318653
20
43.850639
30
0.0
10
26.502431
20
44.102038
30
0.0
10
26.528889
20
44.591111
30
0.0
10
26.528889
20
45.437778
30
0.0
10
28.504444
20
45.437778
30
0.0
10
30.480000
20
45.437778
30
0.0
10
30.480000
20
24.271111
30
0.0
10
30.480000
20
3.104444
30
0.0
10
28.504444
20
3.104444
30
0.0
10
26.846389
20
3.195159
30
0.0
10
26.586215
20
3.365248
30
0.0
10
26.528889
20
3.668889
30
0.0
10
26.474185
20
3.970424
30
0.0
10
26.232366
20
4.140748
30
0.0
10
24.721147
20
4.233333
30
0.0
10
23.011708
20
4.078080
30
0.0
10
22.421887
20
3.780861
30
0.0
10
21.731111
20
3.245556
30
0.0
10
20.511751
20
2.438929
30
0.0
10
19.164409
20
2.257778
30
0.0
10
17.963957
20
2.372231
30
0.0
10
17.805721
20
2.628792
30
0.0
10
17.780000
20
3.119126
30
0.0
10
17.780000
20
3.119126
30
0.0
  0
ENDSEC
  0
SECTION
  2
OBJECTS
  0
DICTIONARY
  5
C
330
0
100
AcDbDictionary
  3
ACAD_GROUP
350
D
  3
ACAD_MLINESTYLE
350
17
  0
DICTIONARY
  5
D
330
C
100
AcDbDictionary
  0
DICTIONARY
  5
1A
330
C
100
AcDbDictionary
  0
DICTIONARY
  5
17
330
C
100
AcDbDictionary
  3
STANDARD
350
18
  0
DICTIONARY
  5
19
330
C
100
AcDbDictionary
  0
ENDSEC
  0
EOF
