999
Inkscape export via OpenSCAD DXF Export
  0
SECTION
  2
HEADER
  9
$ACADVER
  1
AC1014
  9
$HANDSEED
  5
FFFF
  9
$MEASUREMENT
 70
     1
  0
ENDSEC
  0
SECTION
  2
TABLES
  0
TABLE
  2
VPORT
  5
8
330
0
100
AcDbSymbolTable
 70
     4
  0
VPORT
  5
2E
330
8
100
AcDbSymbolTableRecord
100
AcDbViewportTableRecord
  2
*ACTIVE
 70
     0
 10
0.0
 20
0.0
 11
1.0
 21
1.0
 12
210.0
 22
148.5
 13
0.0
 23
0.0
 14
10.0
 24
10.0
 15
10.0
 25
10.0
 16
0.0
 26
0.0
 36
1.0
 17
0.0
 27
0.0
 37
0.0
 40
341.0
 41
1.24
 42
50.0
 43
0.0
 44
0.0
 50
0.0
 51
0.0
 71
     0
 72
   100
 73
     1
 74
     3
 75
     0
 76
     0
 77
     0
 78
     0
  0
ENDTAB
  0
TABLE
  2
LTYPE
  5
5
330
0
100
AcDbSymbolTable
 70
     1
  0
LTYPE
  5
14
330
5
100
AcDbSymbolTableRecord
100
AcDbLinetypeTableRecord
  2
BYBLOCK
 70
     0
  3

 72
    65
 73
     0
 40
0.0
  0
LTYPE
  5
15
330
5
100
AcDbSymbolTableRecord
100
AcDbLinetypeTableRecord
  2
BYLAYER
 70
     0
  3

 72
    65
 73
     0
 40
0.0
  0
LTYPE
  5
16
330
5
100
AcDbSymbolTableRecord
100
AcDbLinetypeTableRecord
  2
CONTINUOUS
 70
     0
  3
Solid line
 72
    65
 73
     0
 40
0.0
  0
ENDTAB
  0
TABLE
0
TABLE
2
LAYER
5
2
330
0
100
AcDbSymbolTable
70
1
0
LAYER
5
10
330
2
100
AcDbSymbolTableRecord
100
AcDbLayerTableRecord
2
Calque_1
70
0
62
7
6
CONTINUOUS
0
ENDTAB
0
ENDSEC
  0
ENDTAB
  0
TABLE
  2
STYLE
  5
3
330
0
100
AcDbSymbolTable
 70
     1
  0
STYLE
  5
11
330
3
100
AcDbSymbolTableRecord
100
AcDbTextStyleTableRecord
  2
STANDARD
 70
     0
 40
0.0
 41
1.0
 50
0.0
 71
     0
 42
2.5
  3
txt
  4

  0
ENDTAB
  0
TABLE
  2
VIEW
  5
6
330
0
100
AcDbSymbolTable
 70
     0
  0
ENDTAB
  0
TABLE
  2
UCS
  5
7
330
0
100
AcDbSymbolTable
 70
     0
  0
ENDTAB
  0
TABLE
  2
APPID
  5
9
330
0
100
AcDbSymbolTable
 70
     2
  0
APPID
  5
12
330
9
100
AcDbSymbolTableRecord
100
AcDbRegAppTableRecord
  2
ACAD
 70
     0
  0
ENDTAB
  0
TABLE
  2
DIMSTYLE
  5
A
330
0
100
AcDbSymbolTable
 70
     1
  0
DIMSTYLE
105
27
330
A
100
AcDbSymbolTableRecord
100
AcDbDimStyleTableRecord
  2
ISO-25
 70
     0
  3

  4

  5

  6

  7

 40
1.0
 41
2.5
 42
0.625
 43
3.75
 44
1.25
 45
0.0
 46
0.0
 47
0.0
 48
0.0
140
2.5
141
2.5
142
0.0
143
0.03937007874016
144
1.0
145
0.0
146
1.0
147
0.625
 71
     0
 72
     0
 73
     0
 74
     0
 75
     0
 76
     0
 77
     1
 78
     8
170
     0
171
     3
172
     1
173
     0
174
     0
175
     0
176
     0
177
     0
178
     0
270
     2
271
     2
272
     2
273
     2
274
     3
340
11
275
     0
280
     0
281
     0
282
     0
283
     0
284
     8
285
     0
286
     0
287
     3
288
     0
  0
ENDTAB
  0
TABLE
  2
BLOCK_RECORD
  5
1
330
0
100
AcDbSymbolTable
 70
     1
  0
BLOCK_RECORD
  5
1F
330
1
100
AcDbSymbolTableRecord
100
AcDbBlockTableRecord
  2
*MODEL_SPACE
  0
BLOCK_RECORD
  5
1B
330
1
100
AcDbSymbolTableRecord
100
AcDbBlockTableRecord
  2
*PAPER_SPACE
  0
ENDTAB
  0
ENDSEC
  0
SECTION
  2
BLOCKS
  0
BLOCK
  5
20
330
1F
100
AcDbEntity
  8
0
100
AcDbBlockBegin
  2
*MODEL_SPACE
 70
     0
 10
0.0
 20
0.0
 30
0.0
  3
*MODEL_SPACE
  1

  0
ENDBLK
  5
21
330
1F
100
AcDbEntity
  8
0
100
AcDbBlockEnd
  0
BLOCK
  5
1C
330
1B
100
AcDbEntity
 67
     1
  8
0
100
AcDbBlockBegin
  2
*PAPER_SPACE
  1

  0
ENDBLK
  5
1D
330
1B
100
AcDbEntity
 67
     1
  8
0
100
AcDbBlockEnd
  0
ENDSEC
  0
SECTION
  2
ENTITIES
0
DIMENSION
5
83
100
AcDbEntity
62
256
370
-1
6
ByLayer
1
total_width
3
Standard
70
0
71
5
72
1
41
1.0
100
AcDbAlignedDimension
13
183.445893
23
0.000000
33
0.0
14
194.845926
24
0.000000
34
0.0
50
0.000000
100
AcDbRotatedDimension
0
DIMENSION
5
83
100
AcDbEntity
62
256
370
-1
6
ByLayer
1
total_height
3
Standard
70
0
71
5
72
1
41
1.0
100
AcDbAlignedDimension
13
0.000000
23
155.683918
33
0.0
14
0.000000
24
185.081527
34
0.0
50
90.000000
100
AcDbRotatedDimension
0
DIMENSION
8
Calque_1
5
83
100
AcDbEntity
62
256
370
-1
6
ByLayer
1
Calque_1_width
3
Standard
70
0
71
5
72
1
41
1.0
100
AcDbAlignedDimension
13
183.445893
23
0.000000
33
0.0
14
194.845926
24
0.000000
34
0.0
50
0.000000
100
AcDbRotatedDimension
0
DIMENSION
8
Calque_1
5
83
100
AcDbEntity
62
256
370
-1
6
ByLayer
1
Calque_1_height
3
Standard
70
0
71
5
72
1
41
1.0
100
AcDbAlignedDimension
13
0.000000
23
155.683918
33
0.0
14
0.000000
24
185.081527
34
0.0
50
90.000000
100
AcDbRotatedDimension
0
LWPOLYLINE
100
AcDbPolyline
8
Calque_1
90
78
70
0
10
187.982685
20
156.115211
30
0.0
10
187.495135
20
156.859304
30
0.0
10
188.489421
20
156.859304
30
0.0
10
189.054776
20
156.880523
30
0.0
10
189.351006
20
157.009962
30
0.0
10
189.465013
20
157.346294
30
0.0
10
189.483704
20
157.988193
30
0.0
10
189.483704
20
159.117082
30
0.0
10
188.068317
20
159.117082
30
0.0
10
186.623908
20
159.308349
30
0.0
10
185.104984
20
159.990690
30
0.0
10
183.676393
20
160.965875
30
0.0
10
183.638358
20
161.289881
30
0.0
10
183.958075
20
161.638577
30
0.0
10
184.218770
20
161.768362
30
0.0
10
184.568437
20
161.755648
30
0.0
10
185.783135
20
161.249802
30
0.0
10
186.637615
20
160.865215
30
0.0
10
187.486231
20
160.647366
30
0.0
10
190.320989
20
160.528193
30
0.0
10
193.434815
20
160.528193
30
0.0
10
193.434815
20
170.405971
30
0.0
10
193.434815
20
180.283749
30
0.0
10
190.239534
20
180.283749
30
0.0
10
187.326742
20
180.170187
30
0.0
10
186.625977
20
179.920075
30
0.0
10
185.935645
20
179.444934
30
0.0
10
185.116017
20
178.895846
30
0.0
10
184.478682
20
178.643863
30
0.0
10
183.978629
20
178.680459
30
0.0
10
183.570846
20
178.997112
30
0.0
10
183.445893
20
179.228995
30
0.0
10
183.506691
20
179.456105
30
0.0
10
184.312399
20
180.081517
30
0.0
10
186.350657
20
181.195243
30
0.0
10
187.122581
20
181.372712
30
0.0
10
188.054039
20
181.412638
30
0.0
10
189.483704
20
181.412638
30
0.0
10
189.483704
20
182.523645
30
0.0
10
189.350663
20
183.482733
30
0.0
10
189.082177
20
183.647129
30
0.0
10
188.588215
20
183.723089
30
0.0
10
187.928451
20
183.869100
30
0.0
10
187.599701
20
184.095956
30
0.0
10
187.714663
20
184.432850
30
0.0
10
188.111707
20
184.757570
30
0.0
10
188.574455
20
184.941985
30
0.0
10
188.886527
20
184.857964
30
0.0
10
189.624815
20
184.474128
30
0.0
10
189.956867
20
184.354717
30
0.0
10
190.148764
20
184.057137
30
0.0
10
190.300370
20
182.329860
30
0.0
10
190.330370
20
181.412638
30
0.0
10
191.992826
20
181.412638
30
0.0
10
193.464741
20
181.528846
30
0.0
10
193.695458
20
181.801341
30
0.0
10
193.813879
20
182.329860
30
0.0
10
194.253955
20
184.502581
30
0.0
10
194.425521
20
184.950412
30
0.0
10
194.595736
20
185.081527
30
0.0
10
194.774168
20
180.872351
30
0.0
10
194.845926
20
170.405971
30
0.0
10
194.783732
20
160.041360
30
0.0
10
194.634203
20
155.730415
30
0.0
10
194.325738
20
156.227832
30
0.0
10
193.881423
20
157.423749
30
0.0
10
193.340366
20
159.117082
30
0.0
10
191.835368
20
159.117082
30
0.0
10
190.330370
20
159.117082
30
0.0
10
190.297872
20
158.058749
30
0.0
10
190.315596
20
156.506527
30
0.0
10
190.171367
20
156.120418
30
0.0
10
189.524948
20
156.012638
30
0.0
10
188.899662
20
155.918414
30
0.0
10
188.577141
20
155.691878
30
0.0
10
188.358410
20
155.683918
30
0.0
10
187.982671
20
156.115211
30
0.0
10
187.982685
20
156.115211
30
0.0
  0
ENDSEC
  0
SECTION
  2
OBJECTS
  0
DICTIONARY
  5
C
330
0
100
AcDbDictionary
  3
ACAD_GROUP
350
D
  3
ACAD_MLINESTYLE
350
17
  0
DICTIONARY
  5
D
330
C
100
AcDbDictionary
  0
DICTIONARY
  5
1A
330
C
100
AcDbDictionary
  0
DICTIONARY
  5
17
330
C
100
AcDbDictionary
  3
STANDARD
350
18
  0
DICTIONARY
  5
19
330
C
100
AcDbDictionary
  0
ENDSEC
  0
EOF
