999
Inkscape export via OpenSCAD DXF Export
  0
SECTION
  2
HEADER
  9
$ACADVER
  1
AC1014
  9
$HANDSEED
  5
FFFF
  9
$MEASUREMENT
 70
     1
  0
ENDSEC
  0
SECTION
  2
TABLES
  0
TABLE
  2
VPORT
  5
8
330
0
100
AcDbSymbolTable
 70
     4
  0
VPORT
  5
2E
330
8
100
AcDbSymbolTableRecord
100
AcDbViewportTableRecord
  2
*ACTIVE
 70
     0
 10
0.0
 20
0.0
 11
1.0
 21
1.0
 12
210.0
 22
148.5
 13
0.0
 23
0.0
 14
10.0
 24
10.0
 15
10.0
 25
10.0
 16
0.0
 26
0.0
 36
1.0
 17
0.0
 27
0.0
 37
0.0
 40
341.0
 41
1.24
 42
50.0
 43
0.0
 44
0.0
 50
0.0
 51
0.0
 71
     0
 72
   100
 73
     1
 74
     3
 75
     0
 76
     0
 77
     0
 78
     0
  0
ENDTAB
  0
TABLE
  2
LTYPE
  5
5
330
0
100
AcDbSymbolTable
 70
     1
  0
LTYPE
  5
14
330
5
100
AcDbSymbolTableRecord
100
AcDbLinetypeTableRecord
  2
BYBLOCK
 70
     0
  3

 72
    65
 73
     0
 40
0.0
  0
LTYPE
  5
15
330
5
100
AcDbSymbolTableRecord
100
AcDbLinetypeTableRecord
  2
BYLAYER
 70
     0
  3

 72
    65
 73
     0
 40
0.0
  0
LTYPE
  5
16
330
5
100
AcDbSymbolTableRecord
100
AcDbLinetypeTableRecord
  2
CONTINUOUS
 70
     0
  3
Solid line
 72
    65
 73
     0
 40
0.0
  0
ENDTAB
  0
TABLE
0
TABLE
2
LAYER
5
2
330
0
100
AcDbSymbolTable
70
1
0
LAYER
5
10
330
2
100
AcDbSymbolTableRecord
100
AcDbLayerTableRecord
2
Calque_1
70
0
62
7
6
CONTINUOUS
0
ENDTAB
0
ENDSEC
  0
ENDTAB
  0
TABLE
  2
STYLE
  5
3
330
0
100
AcDbSymbolTable
 70
     1
  0
STYLE
  5
11
330
3
100
AcDbSymbolTableRecord
100
AcDbTextStyleTableRecord
  2
STANDARD
 70
     0
 40
0.0
 41
1.0
 50
0.0
 71
     0
 42
2.5
  3
txt
  4

  0
ENDTAB
  0
TABLE
  2
VIEW
  5
6
330
0
100
AcDbSymbolTable
 70
     0
  0
ENDTAB
  0
TABLE
  2
UCS
  5
7
330
0
100
AcDbSymbolTable
 70
     0
  0
ENDTAB
  0
TABLE
  2
APPID
  5
9
330
0
100
AcDbSymbolTable
 70
     2
  0
APPID
  5
12
330
9
100
AcDbSymbolTableRecord
100
AcDbRegAppTableRecord
  2
ACAD
 70
     0
  0
ENDTAB
  0
TABLE
  2
DIMSTYLE
  5
A
330
0
100
AcDbSymbolTable
 70
     1
  0
DIMSTYLE
105
27
330
A
100
AcDbSymbolTableRecord
100
AcDbDimStyleTableRecord
  2
ISO-25
 70
     0
  3

  4

  5

  6

  7

 40
1.0
 41
2.5
 42
0.625
 43
3.75
 44
1.25
 45
0.0
 46
0.0
 47
0.0
 48
0.0
140
2.5
141
2.5
142
0.0
143
0.03937007874016
144
1.0
145
0.0
146
1.0
147
0.625
 71
     0
 72
     0
 73
     0
 74
     0
 75
     0
 76
     0
 77
     1
 78
     8
170
     0
171
     3
172
     1
173
     0
174
     0
175
     0
176
     0
177
     0
178
     0
270
     2
271
     2
272
     2
273
     2
274
     3
340
11
275
     0
280
     0
281
     0
282
     0
283
     0
284
     8
285
     0
286
     0
287
     3
288
     0
  0
ENDTAB
  0
TABLE
  2
BLOCK_RECORD
  5
1
330
0
100
AcDbSymbolTable
 70
     1
  0
BLOCK_RECORD
  5
1F
330
1
100
AcDbSymbolTableRecord
100
AcDbBlockTableRecord
  2
*MODEL_SPACE
  0
BLOCK_RECORD
  5
1B
330
1
100
AcDbSymbolTableRecord
100
AcDbBlockTableRecord
  2
*PAPER_SPACE
  0
ENDTAB
  0
ENDSEC
  0
SECTION
  2
BLOCKS
  0
BLOCK
  5
20
330
1F
100
AcDbEntity
  8
0
100
AcDbBlockBegin
  2
*MODEL_SPACE
 70
     0
 10
0.0
 20
0.0
 30
0.0
  3
*MODEL_SPACE
  1

  0
ENDBLK
  5
21
330
1F
100
AcDbEntity
  8
0
100
AcDbBlockEnd
  0
BLOCK
  5
1C
330
1B
100
AcDbEntity
 67
     1
  8
0
100
AcDbBlockBegin
  2
*PAPER_SPACE
  1

  0
ENDBLK
  5
1D
330
1B
100
AcDbEntity
 67
     1
  8
0
100
AcDbBlockEnd
  0
ENDSEC
  0
SECTION
  2
ENTITIES
0
DIMENSION
5
83
100
AcDbEntity
62
256
370
-1
6
ByLayer
1
total_width
3
Standard
70
0
71
5
72
1
41
1.0
100
AcDbAlignedDimension
13
157.115312
23
0.000000
33
0.0
14
194.650876
24
0.000000
34
0.0
50
0.000000
100
AcDbRotatedDimension
0
DIMENSION
5
83
100
AcDbEntity
62
256
370
-1
6
ByLayer
1
total_height
3
Standard
70
0
71
5
72
1
41
1.0
100
AcDbAlignedDimension
13
0.000000
23
148.651568
33
0.0
14
0.000000
24
191.831568
34
0.0
50
90.000000
100
AcDbRotatedDimension
0
DIMENSION
8
Calque_1
5
83
100
AcDbEntity
62
256
370
-1
6
ByLayer
1
Calque_1_width
3
Standard
70
0
71
5
72
1
41
1.0
100
AcDbAlignedDimension
13
157.115312
23
0.000000
33
0.0
14
194.650876
24
0.000000
34
0.0
50
0.000000
100
AcDbRotatedDimension
0
DIMENSION
8
Calque_1
5
83
100
AcDbEntity
62
256
370
-1
6
ByLayer
1
Calque_1_height
3
Standard
70
0
71
5
72
1
41
1.0
100
AcDbAlignedDimension
13
0.000000
23
148.651568
33
0.0
14
0.000000
24
191.831568
34
0.0
50
90.000000
100
AcDbRotatedDimension
0
LWPOLYLINE
100
AcDbPolyline
8
Calque_1
90
94
70
0
10
157.115321
20
170.241568
30
0.0
10
157.115321
20
191.831568
30
0.0
10
175.883099
20
191.831568
30
0.0
10
194.650876
20
191.831568
30
0.0
10
194.650876
20
188.586013
30
0.0
10
194.650876
20
185.340457
30
0.0
10
192.000361
20
185.340457
30
0.0
10
189.686972
20
185.433878
30
0.0
10
189.327376
20
185.638703
30
0.0
10
189.177481
20
186.027202
30
0.0
10
188.940689
20
186.509441
30
0.0
10
188.546200
20
186.831610
30
0.0
10
188.051922
20
186.964086
30
0.0
10
187.515765
20
186.877247
30
0.0
10
187.036693
20
186.466331
30
0.0
10
186.641849
20
185.733989
30
0.0
10
186.401353
20
184.857756
30
0.0
10
186.385324
20
184.015161
30
0.0
10
186.492079
20
183.533066
30
0.0
10
186.673379
20
183.249019
30
0.0
10
187.552211
20
183.027383
30
0.0
10
188.358908
20
182.841921
30
0.0
10
188.674711
20
182.433605
30
0.0
10
188.670695
20
182.165873
30
0.0
10
188.458714
20
182.023895
30
0.0
10
186.983726
20
182.010271
30
0.0
10
185.196432
20
182.094901
30
0.0
10
185.111867
20
184.048743
30
0.0
10
185.128477
20
185.482360
30
0.0
10
185.323296
20
186.602557
30
0.0
10
185.705909
20
187.441864
30
0.0
10
186.285900
20
188.032809
30
0.0
10
187.075219
20
188.369963
30
0.0
10
188.003050
20
188.427663
30
0.0
10
188.964106
20
188.214570
30
0.0
10
189.853099
20
187.739346
30
0.0
10
190.802923
20
187.230028
30
0.0
10
191.742373
20
187.033790
30
0.0
10
192.675321
20
187.033790
30
0.0
10
192.675321
20
188.727124
30
0.0
10
192.675321
20
190.420457
30
0.0
10
175.600876
20
190.420457
30
0.0
10
158.526432
20
190.420457
30
0.0
10
158.526432
20
170.241568
30
0.0
10
158.526432
20
150.062679
30
0.0
10
175.741988
20
150.062679
30
0.0
10
190.573602
20
150.135391
30
0.0
10
192.601552
20
150.292152
30
0.0
10
192.898544
20
150.419846
30
0.0
10
192.957543
20
150.587734
30
0.0
10
192.778072
20
152.422178
30
0.0
10
192.495530
20
153.544322
30
0.0
10
192.204602
20
153.702269
30
0.0
10
191.698378
20
153.731568
30
0.0
10
190.857978
20
153.553764
30
0.0
10
190.135321
20
153.026013
30
0.0
10
189.315506
20
152.456338
30
0.0
10
187.994547
20
152.320457
30
0.0
10
186.647461
20
152.465537
30
0.0
10
186.227311
20
152.722099
30
0.0
10
185.803280
20
153.168199
30
0.0
10
185.425228
20
153.688941
30
0.0
10
185.208950
20
154.252628
30
0.0
10
185.084994
20
156.272643
30
0.0
10
185.080027
20
158.529346
30
0.0
10
186.761001
20
158.529346
30
0.0
10
188.091260
20
158.441022
30
0.0
10
188.362990
20
158.310919
30
0.0
10
188.441979
20
158.106013
30
0.0
10
188.206793
20
157.783473
30
0.0
10
187.454201
20
157.682679
30
0.0
10
186.674171
20
157.575838
30
0.0
10
186.466424
20
157.174679
30
0.0
10
186.159611
20
156.359867
30
0.0
10
185.993908
20
156.080002
30
0.0
10
186.159611
20
155.863432
30
0.0
10
186.376297
20
155.581449
30
0.0
10
186.466424
20
155.169764
30
0.0
10
186.570518
20
154.712019
30
0.0
10
186.846450
20
154.322568
30
0.0
10
187.695739
20
153.816156
30
0.0
10
188.578102
20
153.785749
30
0.0
10
188.895377
20
153.991304
30
0.0
10
189.057351
20
154.366568
30
0.0
10
189.170400
20
154.721767
30
0.0
10
189.531472
20
154.921618
30
0.0
10
191.899201
20
155.082343
30
0.0
10
194.650868
20
155.163118
30
0.0
10
194.650868
20
151.907343
30
0.0
10
194.650868
20
148.651568
30
0.0
10
175.883090
20
148.651568
30
0.0
10
157.115312
20
148.651568
30
0.0
10
157.115312
20
170.241568
30
0.0
10
157.115321
20
170.241568
30
0.0
  0
ENDSEC
  0
SECTION
  2
OBJECTS
  0
DICTIONARY
  5
C
330
0
100
AcDbDictionary
  3
ACAD_GROUP
350
D
  3
ACAD_MLINESTYLE
350
17
  0
DICTIONARY
  5
D
330
C
100
AcDbDictionary
  0
DICTIONARY
  5
1A
330
C
100
AcDbDictionary
  0
DICTIONARY
  5
17
330
C
100
AcDbDictionary
  3
STANDARD
350
18
  0
DICTIONARY
  5
19
330
C
100
AcDbDictionary
  0
ENDSEC
  0
EOF
