solid OpenSCAD_Model
  facet normal -1 0 0
    outer loop
      vertex 0 2 0
      vertex 0 2 2
      vertex 0 38 0
    endloop
  endfacet
  facet normal -1 0 0
    outer loop
      vertex 0 38 0
      vertex 0 2 2
      vertex 0 38 2
    endloop
  endfacet
  facet normal 0 -1 0
    outer loop
      vertex 0 2 2
      vertex 0 2 0
      vertex 0.198062 2 0
    endloop
  endfacet
  facet normal 0 -1 0
    outer loop
      vertex 0.198062 2 2
      vertex 0 2 2
      vertex 0.198062 2 0
    endloop
  endfacet
  facet normal 0 0 -1
    outer loop
      vertex 0 2 0
      vertex 0 38 0
      vertex 0.198062 2 0
    endloop
  endfacet
  facet normal 0 0 -1
    outer loop
      vertex 0.198062 2 0
      vertex 0 38 0
      vertex 0.198062 38 0
    endloop
  endfacet
  facet normal 0 0 -1
    outer loop
      vertex 0.198062 38 0
      vertex 0.198062 38.8678 0
      vertex 1.55496 39.9499 0
    endloop
  endfacet
  facet normal 0 0 -1
    outer loop
      vertex 0.198062 38 0
      vertex 1.55496 39.9499 0
      vertex 0.198062 2 0
    endloop
  endfacet
  facet normal 0 0 -1
    outer loop
      vertex 1.7 36 0
      vertex 1.55496 39.9499 0
      vertex 2 39.8483 0
    endloop
  endfacet
  facet normal 0 0 -1
    outer loop
      vertex 2 39.8483 0
      vertex 2 40 0
      vertex 38 40 0
    endloop
  endfacet
  facet normal 0 0 -1
    outer loop
      vertex 37.6263 34.3737 0
      vertex 23.1287 15.7593 0
      vertex 23.1094 15.7732 0
    endloop
  endfacet
  facet normal 0 0 -1
    outer loop
      vertex 37.6263 37.6263 0
      vertex 39.247 39.5637 0
      vertex 40 38 0
    endloop
  endfacet
  facet normal 0 0 -1
    outer loop
      vertex 37.6067 16.2576 0
      vertex 40 38 0
      vertex 40 2 0
    endloop
  endfacet
  facet normal 0 0 -1
    outer loop
      vertex 36 1.7 0
      vertex 40 2 0
      vertex 39.247 0.436337 0
    endloop
  endfacet
  facet normal 0 0 -1
    outer loop
      vertex 1.55496 0.050144 0
      vertex 0.198062 2 0
      vertex 2 0.151722 0
    endloop
  endfacet
  facet normal 0 0 -1
    outer loop
      vertex 2.05008 20.4765 0
      vertex 2.37365 34.3737 0
      vertex 2.39334 23.7424 0
    endloop
  endfacet
  facet normal 0 0 -1
    outer loop
      vertex 7.95565 6.62339 0
      vertex 4 6.3 0
      vertex 5.82236 8.99265 0
    endloop
  endfacet
  facet normal 0 0 -1
    outer loop
      vertex 38 0 0
      vertex 2 0 0
      vertex 2 0.151722 0
    endloop
  endfacet
  facet normal 0 0 -1
    outer loop
      vertex 5.19814 9.83479 0
      vertex 4 6.3 0
      vertex 3.55618 12.6787 0
    endloop
  endfacet
  facet normal 0 0 -1
    outer loop
      vertex 7.95565 6.62339 0
      vertex 5.62635 5.62635 0
      vertex 4 6.3 0
    endloop
  endfacet
  facet normal 0 0 -1
    outer loop
      vertex 6.3 36 0
      vertex 13.9125 36.8852 0
      vertex 11 35.5885 0
    endloop
  endfacet
  facet normal 0 0 -1
    outer loop
      vertex 1.7 36 0
      vertex 2 39.8483 0
      vertex 2.37365 37.6263 0
    endloop
  endfacet
  facet normal 0 0 -1
    outer loop
      vertex 2.37365 34.3737 0
      vertex 2.05008 20.4765 0
      vertex 0.198062 2 0
    endloop
  endfacet
  facet normal 0 0 -1
    outer loop
      vertex 29 35.5885 0
      vertex 34.3737 37.6263 0
      vertex 33.7 36 0
    endloop
  endfacet
  facet normal 0 0 -1
    outer loop
      vertex 38 0 0
      vertex 2 0.151722 0
      vertex 4 1.7 0
    endloop
  endfacet
  facet normal 0 0 -1
    outer loop
      vertex 14 20.2482 0
      vertex 15 18.3349 0
      vertex 15 16.6741 0
    endloop
  endfacet
  facet normal 0 0 -1
    outer loop
      vertex 20.0385 14.7302 0
      vertex 16.9336 15.714 0
      vertex 16.941 15.7366 0
    endloop
  endfacet
  facet normal 0 0 -1
    outer loop
      vertex 37.6263 2.37365 0
      vertex 40 2 0
      vertex 36 1.7 0
    endloop
  endfacet
  facet normal 0 0 -1
    outer loop
      vertex 4 1.7 0
      vertex 0.198062 2 0
      vertex 2.37365 2.37365 0
    endloop
  endfacet
  facet normal 0 0 -1
    outer loop
      vertex 2.39334 16.2576 0
      vertex 4 6.3 0
      vertex 2.37365 5.62635 0
    endloop
  endfacet
  facet normal 0 0 -1
    outer loop
      vertex 2.06009 19.4283 0
      vertex 2.37365 5.62635 0
      vertex 1.7 4 0
    endloop
  endfacet
  facet normal 0 0 -1
    outer loop
      vertex 0.198062 2 0
      vertex 1.55496 39.9499 0
      vertex 1.7 36 0
    endloop
  endfacet
  facet normal 0 0 -1
    outer loop
      vertex 2.05008 20.4765 0
      vertex 1.7 4 0
      vertex 0.198062 2 0
    endloop
  endfacet
  facet normal 0 0 -1
    outer loop
      vertex 13.9125 36.8852 0
      vertex 6.3 36 0
      vertex 14.9063 37.2186 0
    endloop
  endfacet
  facet normal 0 0 -1
    outer loop
      vertex 25 23.3259 0
      vertex 22.0902 25.6296 0
      vertex 13.9125 36.8852 0
    endloop
  endfacet
  facet normal 0 0 -1
    outer loop
      vertex 34.3737 37.6263 0
      vertex 38 40 0
      vertex 36 38.3 0
    endloop
  endfacet
  facet normal 0 0 -1
    outer loop
      vertex 19.9615 25.2698 0
      vertex 22.0902 25.6296 0
      vertex 23.0664 24.286 0
    endloop
  endfacet
  facet normal 0 0 -1
    outer loop
      vertex 2 39.8483 0
      vertex 38 40 0
      vertex 5.62635 37.6263 0
    endloop
  endfacet
  facet normal 0 0 -1
    outer loop
      vertex 2 39.8483 0
      vertex 5.62635 37.6263 0
      vertex 4 38.3 0
    endloop
  endfacet
  facet normal 0 0 -1
    outer loop
      vertex 2.39334 23.7424 0
      vertex 2.37365 34.3737 0
      vertex 3.55618 27.3213 0
    endloop
  endfacet
  facet normal 0 0 -1
    outer loop
      vertex 3.55618 27.3213 0
      vertex 4 33.7 0
      vertex 5.15026 30.0823 0
    endloop
  endfacet
  facet normal 0 0 -1
    outer loop
      vertex 2.37365 34.3737 0
      vertex 0.198062 2 0
      vertex 1.7 36 0
    endloop
  endfacet
  facet normal 0 0 -1
    outer loop
      vertex 25 37.2385 0
      vertex 38 40 0
      vertex 26 36.9241 0
    endloop
  endfacet
  facet normal 0 0 -1
    outer loop
      vertex 5.75828 30.9362 0
      vertex 18.382 25.783 0
      vertex 5.15026 30.0823 0
    endloop
  endfacet
  facet normal 0 0 -1
    outer loop
      vertex 2.37365 34.3737 0
      vertex 4 33.7 0
      vertex 3.55618 27.3213 0
    endloop
  endfacet
  facet normal 0 0 -1
    outer loop
      vertex 3.55618 12.6787 0
      vertex 4 6.3 0
      vertex 2.39334 16.2576 0
    endloop
  endfacet
  facet normal 0 0 -1
    outer loop
      vertex 7.95565 33.3766 0
      vertex 4 33.7 0
      vertex 5.62635 34.3737 0
    endloop
  endfacet
  facet normal 0 0 -1
    outer loop
      vertex 2.05008 20.4765 0
      vertex 2.06009 19.4283 0
      vertex 1.7 4 0
    endloop
  endfacet
  facet normal 0 0 -1
    outer loop
      vertex 7.95565 33.3766 0
      vertex 5.62635 34.3737 0
      vertex 11 35.5885 0
    endloop
  endfacet
  facet normal 0 0 -1
    outer loop
      vertex 37.6263 5.62635 0
      vertex 40 2 0
      vertex 38.3 4 0
    endloop
  endfacet
  facet normal 0 0 -1
    outer loop
      vertex 2.39334 16.2576 0
      vertex 2.37365 5.62635 0
      vertex 2.06009 19.4283 0
    endloop
  endfacet
  facet normal 0 0 -1
    outer loop
      vertex 2.06009 19.4283 0
      vertex 2.05008 20.4765 0
      vertex 18.382 25.783 0
    endloop
  endfacet
  facet normal 0 0 -1
    outer loop
      vertex 2.06009 19.4283 0
      vertex 18.382 25.783 0
      vertex 15.2918 23.7275 0
    endloop
  endfacet
  facet normal 0 0 -1
    outer loop
      vertex 25 23.3259 0
      vertex 23.0664 24.286 0
      vertex 22.0902 25.6296 0
    endloop
  endfacet
  facet normal 0 0 -1
    outer loop
      vertex 22.0902 25.6296 0
      vertex 18.382 25.783 0
      vertex 5.75828 30.9362 0
    endloop
  endfacet
  facet normal 0 0 -1
    outer loop
      vertex 4 33.7 0
      vertex 5.75828 30.9362 0
      vertex 5.15026 30.0823 0
    endloop
  endfacet
  facet normal 0 0 -1
    outer loop
      vertex 2.37365 37.6263 0
      vertex 2 39.8483 0
      vertex 4 38.3 0
    endloop
  endfacet
  facet normal 0 0 -1
    outer loop
      vertex 18.1185 37.9014 0
      vertex 38 40 0
      vertex 21.8815 37.9014 0
    endloop
  endfacet
  facet normal 0 0 -1
    outer loop
      vertex 5.19814 9.83479 0
      vertex 5.82236 8.99265 0
      vertex 4 6.3 0
    endloop
  endfacet
  facet normal 0 0 -1
    outer loop
      vertex 19.9615 25.2698 0
      vertex 23.0664 24.286 0
      vertex 23.059 24.2634 0
    endloop
  endfacet
  facet normal 0 0 -1
    outer loop
      vertex 38.3 36 0
      vertex 40 38 0
      vertex 37.6263 34.3737 0
    endloop
  endfacet
  facet normal 0 0 -1
    outer loop
      vertex 5.62635 2.37365 0
      vertex 11 4.41154 0
      vertex 14 3.07586 0
    endloop
  endfacet
  facet normal 0 0 -1
    outer loop
      vertex 18.1185 2.09861 0
      vertex 5.62635 2.37365 0
      vertex 15 2.76146 0
    endloop
  endfacet
  facet normal 0 0 -1
    outer loop
      vertex 5.19814 9.83479 0
      vertex 14 20.2482 0
      vertex 5.82236 8.99265 0
    endloop
  endfacet
  facet normal 0 0 -1
    outer loop
      vertex 5.62635 37.6263 0
      vertex 38 40 0
      vertex 18.1185 37.9014 0
    endloop
  endfacet
  facet normal 0 0 -1
    outer loop
      vertex 5.62635 37.6263 0
      vertex 18.1185 37.9014 0
      vertex 6.3 36 0
    endloop
  endfacet
  facet normal 0 0 -1
    outer loop
      vertex 37.6263 34.3737 0
      vertex 26 19.7518 0
      vertex 34.1776 31.0073 0
    endloop
  endfacet
  facet normal 0 0 -1
    outer loop
      vertex 18.1185 37.9014 0
      vertex 14.9063 37.2186 0
      vertex 6.3 36 0
    endloop
  endfacet
  facet normal 0 0 -1
    outer loop
      vertex 37.6263 34.3737 0
      vertex 34.1776 31.0073 0
      vertex 36 33.7 0
    endloop
  endfacet
  facet normal 0 0 -1
    outer loop
      vertex 5.75828 30.9362 0
      vertex 4 33.7 0
      vertex 7.95565 33.3766 0
    endloop
  endfacet
  facet normal 0 0 -1
    outer loop
      vertex 15 18.3349 0
      vertex 14 20.2482 0
      vertex 15 21.5918 0
    endloop
  endfacet
  facet normal 0 0 -1
    outer loop
      vertex 5.19814 9.83479 0
      vertex 14.9762 21.5918 0
      vertex 14 20.2482 0
    endloop
  endfacet
  facet normal 0 0 -1
    outer loop
      vertex 14.9762 21.5918 0
      vertex 15 21.5918 0
      vertex 14 20.2482 0
    endloop
  endfacet
  facet normal 0 0 -1
    outer loop
      vertex 16.8713 24.2407 0
      vertex 19.9615 25.2698 0
      vertex 19.9689 25.2472 0
    endloop
  endfacet
  facet normal 0 0 -1
    outer loop
      vertex 23.0664 24.286 0
      vertex 25 23.3259 0
      vertex 24.9808 21.6511 0
    endloop
  endfacet
  facet normal 0 0 -1
    outer loop
      vertex 15 16.6741 0
      vertex 16.9336 15.714 0
      vertex 17.9098 14.3704 0
    endloop
  endfacet
  facet normal 0 0 -1
    outer loop
      vertex 20.0385 14.7302 0
      vertex 17.9098 14.3704 0
      vertex 16.9336 15.714 0
    endloop
  endfacet
  facet normal 0 0 -1
    outer loop
      vertex 34.2417 9.06381 0
      vertex 34.3737 5.62635 0
      vertex 32.0444 6.62339 0
    endloop
  endfacet
  facet normal 0 0 -1
    outer loop
      vertex 36.4438 27.3213 0
      vertex 40 38 0
      vertex 37.6067 23.7424 0
    endloop
  endfacet
  facet normal 0 0 -1
    outer loop
      vertex 25 21.6651 0
      vertex 24.9808 21.6511 0
      vertex 25 23.3259 0
    endloop
  endfacet
  facet normal 0 0 -1
    outer loop
      vertex 37.6263 34.3737 0
      vertex 25.0238 18.4082 0
      vertex 25 18.4082 0
    endloop
  endfacet
  facet normal 0 0 -1
    outer loop
      vertex 33.7 4 0
      vertex 32.0444 6.62339 0
      vertex 34.3737 5.62635 0
    endloop
  endfacet
  facet normal 0 0 -1
    outer loop
      vertex 38.3 4 0
      vertex 40 2 0
      vertex 37.6263 2.37365 0
    endloop
  endfacet
  facet normal 0 0 -1
    outer loop
      vertex 37.6263 34.3737 0
      vertex 34.8019 30.1652 0
      vertex 23.1287 15.7593 0
    endloop
  endfacet
  facet normal 0 0 -1
    outer loop
      vertex 29 35.5885 0
      vertex 33.7 36 0
      vertex 32.0444 33.3766 0
    endloop
  endfacet
  facet normal 0 0 -1
    outer loop
      vertex 18.382 25.783 0
      vertex 22.0902 25.6296 0
      vertex 19.9615 25.2698 0
    endloop
  endfacet
  facet normal 0 0 -1
    outer loop
      vertex 16.8713 24.2407 0
      vertex 18.382 25.783 0
      vertex 19.9615 25.2698 0
    endloop
  endfacet
  facet normal 0 0 -1
    outer loop
      vertex 34.2417 9.06381 0
      vertex 36 6.3 0
      vertex 34.3737 5.62635 0
    endloop
  endfacet
  facet normal 0 0 -1
    outer loop
      vertex 15.2918 23.7275 0
      vertex 18.382 25.783 0
      vertex 16.8713 24.2407 0
    endloop
  endfacet
  facet normal 0 0 -1
    outer loop
      vertex 15.2918 23.7275 0
      vertex 16.8713 24.2407 0
      vertex 5.19814 9.83479 0
    endloop
  endfacet
  facet normal 0 0 -1
    outer loop
      vertex 15 2.76146 0
      vertex 14 3.07586 0
      vertex 15 16.6741 0
    endloop
  endfacet
  facet normal 0 0 -1
    outer loop
      vertex 16.8713 24.2407 0
      vertex 16.8906 24.2268 0
      vertex 5.19814 9.83479 0
    endloop
  endfacet
  facet normal 0 0 -1
    outer loop
      vertex 37.6263 34.3737 0
      vertex 23.1094 15.7732 0
      vertex 25.0238 18.4082 0
    endloop
  endfacet
  facet normal 0 0 -1
    outer loop
      vertex 5.62635 2.37365 0
      vertex 14 3.07586 0
      vertex 15 2.76146 0
    endloop
  endfacet
  facet normal 0 0 -1
    outer loop
      vertex 17.9098 14.3704 0
      vertex 21.618 14.217 0
      vertex 34.2417 9.06381 0
    endloop
  endfacet
  facet normal 0 0 -1
    outer loop
      vertex 5.62635 2.37365 0
      vertex 38 0 0
      vertex 4 1.7 0
    endloop
  endfacet
  facet normal 0 0 -1
    outer loop
      vertex 5.62635 2.37365 0
      vertex 38 0.151722 0
      vertex 38 0 0
    endloop
  endfacet
  facet normal 0 0 -1
    outer loop
      vertex 11 4.41154 0
      vertex 6.3 4 0
      vertex 7.95565 6.62339 0
    endloop
  endfacet
  facet normal 0 0 -1
    outer loop
      vertex 34.8497 9.91772 0
      vertex 34.2417 9.06381 0
      vertex 21.618 14.217 0
    endloop
  endfacet
  facet normal 0 0 -1
    outer loop
      vertex 16.9336 15.714 0
      vertex 15 16.6741 0
      vertex 15.0192 18.3489 0
    endloop
  endfacet
  facet normal 0 0 -1
    outer loop
      vertex 36 1.7 0
      vertex 18.1185 2.09861 0
      vertex 21.8815 2.09861 0
    endloop
  endfacet
  facet normal 0 0 -1
    outer loop
      vertex 34.3737 2.37365 0
      vertex 26.0875 3.1148 0
      vertex 29 4.41154 0
    endloop
  endfacet
  facet normal 0 0 -1
    outer loop
      vertex 20.0385 14.7302 0
      vertex 23.1287 15.7593 0
      vertex 21.618 14.217 0
    endloop
  endfacet
  facet normal 0 0 -1
    outer loop
      vertex 37.6067 23.7424 0
      vertex 40 38 0
      vertex 37.9399 20.5717 0
    endloop
  endfacet
  facet normal 0 0 -1
    outer loop
      vertex 36 38.3 0
      vertex 38 39.8483 0
      vertex 39.247 39.5637 0
    endloop
  endfacet
  facet normal 0 0 -1
    outer loop
      vertex 37.6263 5.62635 0
      vertex 34.8497 9.91772 0
      vertex 40 2 0
    endloop
  endfacet
  facet normal 0 0 -1
    outer loop
      vertex 34.8497 9.91772 0
      vertex 36.4438 12.6787 0
      vertex 40 2 0
    endloop
  endfacet
  facet normal 0 0 -1
    outer loop
      vertex 37.9499 19.5235 0
      vertex 40 38 0
      vertex 37.6067 16.2576 0
    endloop
  endfacet
  facet normal 0 0 -1
    outer loop
      vertex 36.4438 12.6787 0
      vertex 37.6067 16.2576 0
      vertex 40 2 0
    endloop
  endfacet
  facet normal 0 0 -1
    outer loop
      vertex 37.9399 20.5717 0
      vertex 40 38 0
      vertex 37.9499 19.5235 0
    endloop
  endfacet
  facet normal 0 0 -1
    outer loop
      vertex 26 19.7518 0
      vertex 25 23.3259 0
      vertex 25 37.2385 0
    endloop
  endfacet
  facet normal 0 0 -1
    outer loop
      vertex 23.1287 15.7593 0
      vertex 34.8019 30.1652 0
      vertex 24.7082 16.2725 0
    endloop
  endfacet
  facet normal 0 0 -1
    outer loop
      vertex 32.0444 33.3766 0
      vertex 36 33.7 0
      vertex 34.1776 31.0073 0
    endloop
  endfacet
  facet normal 0 0 -1
    outer loop
      vertex 32.0444 33.3766 0
      vertex 34.3737 34.3737 0
      vertex 36 33.7 0
    endloop
  endfacet
  facet normal 0 0 -1
    outer loop
      vertex 36 38.3 0
      vertex 39.247 39.5637 0
      vertex 37.6263 37.6263 0
    endloop
  endfacet
  facet normal 0 0 -1
    outer loop
      vertex 37.6263 34.3737 0
      vertex 40 38 0
      vertex 36.4438 27.3213 0
    endloop
  endfacet
  facet normal 0 0 -1
    outer loop
      vertex 26 19.7518 0
      vertex 25 37.2385 0
      vertex 26 36.9241 0
    endloop
  endfacet
  facet normal 0 0 -1
    outer loop
      vertex 25 21.6651 0
      vertex 26 19.7518 0
      vertex 25 18.4082 0
    endloop
  endfacet
  facet normal 0 0 -1
    outer loop
      vertex 26 36.9241 0
      vertex 38 40 0
      vertex 29 35.5885 0
    endloop
  endfacet
  facet normal 0 0 -1
    outer loop
      vertex 29 4.41154 0
      vertex 32.0444 6.62339 0
      vertex 33.7 4 0
    endloop
  endfacet
  facet normal 0 0 -1
    outer loop
      vertex 37.6263 34.3737 0
      vertex 25 18.4082 0
      vertex 26 19.7518 0
    endloop
  endfacet
  facet normal 0 0 -1
    outer loop
      vertex 25.0937 2.78137 0
      vertex 26.0875 3.1148 0
      vertex 34.3737 2.37365 0
    endloop
  endfacet
  facet normal 0 0 -1
    outer loop
      vertex 5.62635 2.37365 0
      vertex 39.247 0.436337 0
      vertex 38 0.151722 0
    endloop
  endfacet
  facet normal 0 0 -1
    outer loop
      vertex 5.62635 2.37365 0
      vertex 36 1.7 0
      vertex 39.247 0.436337 0
    endloop
  endfacet
  facet normal 0 0 -1
    outer loop
      vertex 34.3737 34.3737 0
      vertex 32.0444 33.3766 0
      vertex 33.7 36 0
    endloop
  endfacet
  facet normal 0 0 -1
    outer loop
      vertex 21.618 14.217 0
      vertex 37.9399 20.5717 0
      vertex 37.9499 19.5235 0
    endloop
  endfacet
  facet normal 0 0 -1
    outer loop
      vertex 34.2417 9.06381 0
      vertex 34.8497 9.91772 0
      vertex 37.6263 5.62635 0
    endloop
  endfacet
  facet normal 0 0 -1
    outer loop
      vertex 36 6.3 0
      vertex 34.2417 9.06381 0
      vertex 37.6263 5.62635 0
    endloop
  endfacet
  facet normal 0 0 -1
    outer loop
      vertex 37.9399 20.5717 0
      vertex 21.618 14.217 0
      vertex 24.7082 16.2725 0
    endloop
  endfacet
  facet normal 0 0 -1
    outer loop
      vertex 26 19.7518 0
      vertex 25 21.6651 0
      vertex 25 23.3259 0
    endloop
  endfacet
  facet normal 0 0 -1
    outer loop
      vertex 5.62635 5.62635 0
      vertex 7.95565 6.62339 0
      vertex 6.3 4 0
    endloop
  endfacet
  facet normal 0 0 -1
    outer loop
      vertex 11 4.41154 0
      vertex 5.62635 2.37365 0
      vertex 6.3 4 0
    endloop
  endfacet
  facet normal 0 0 -1
    outer loop
      vertex 15 18.3349 0
      vertex 15.0192 18.3489 0
      vertex 15 16.6741 0
    endloop
  endfacet
  facet normal 0 0 -1
    outer loop
      vertex 37.6263 37.6263 0
      vertex 40 38 0
      vertex 38.3 36 0
    endloop
  endfacet
  facet normal 0 0 -1
    outer loop
      vertex 34.8019 30.1652 0
      vertex 37.6263 34.3737 0
      vertex 36.4438 27.3213 0
    endloop
  endfacet
  facet normal 0 0 -1
    outer loop
      vertex 34.3737 2.37365 0
      vertex 29 4.41154 0
      vertex 33.7 4 0
    endloop
  endfacet
  facet normal 0 0 -1
    outer loop
      vertex 36 38.3 0
      vertex 38 40 0
      vertex 38 39.8483 0
    endloop
  endfacet
  facet normal 0 0 -1
    outer loop
      vertex 21.8815 37.9014 0
      vertex 38 40 0
      vertex 25 37.2385 0
    endloop
  endfacet
  facet normal 0 0 -1
    outer loop
      vertex 29 35.5885 0
      vertex 38 40 0
      vertex 34.3737 37.6263 0
    endloop
  endfacet
  facet normal 0 0 -1
    outer loop
      vertex 5.62635 2.37365 0
      vertex 18.1185 2.09861 0
      vertex 36 1.7 0
    endloop
  endfacet
  facet normal 0 0 -1
    outer loop
      vertex 0.198062 2 0
      vertex 4 1.7 0
      vertex 2 0.151722 0
    endloop
  endfacet
  facet normal 0 0 -1
    outer loop
      vertex 2.37365 2.37365 0
      vertex 0.198062 2 0
      vertex 1.7 4 0
    endloop
  endfacet
  facet normal 0 0 -1
    outer loop
      vertex 0.198062 2 0
      vertex 1.55496 0.050144 0
      vertex 0.198062 1.13223 0
    endloop
  endfacet
  facet normal 0 0 -1
    outer loop
      vertex 6.3 36 0
      vertex 11 35.5885 0
      vertex 5.62635 34.3737 0
    endloop
  endfacet
  facet normal 0 0 -1
    outer loop
      vertex 25 23.3259 0
      vertex 13.9125 36.8852 0
      vertex 14.9063 37.2186 0
    endloop
  endfacet
  facet normal 0 0 -1
    outer loop
      vertex 14.9762 21.5918 0
      vertex 5.19814 9.83479 0
      vertex 16.8906 24.2268 0
    endloop
  endfacet
  facet normal 0 0 -1
    outer loop
      vertex 17.9098 14.3704 0
      vertex 20.0385 14.7302 0
      vertex 21.618 14.217 0
    endloop
  endfacet
  facet normal 0 0 -1
    outer loop
      vertex 23.1287 15.7593 0
      vertex 20.0385 14.7302 0
      vertex 20.0311 14.7528 0
    endloop
  endfacet
  facet normal 0 0 -1
    outer loop
      vertex 26.0875 3.1148 0
      vertex 15 16.6741 0
      vertex 17.9098 14.3704 0
    endloop
  endfacet
  facet normal 0 0 -1
    outer loop
      vertex 36 1.7 0
      vertex 21.8815 2.09861 0
      vertex 25.0937 2.78137 0
    endloop
  endfacet
  facet normal 0 0 -1
    outer loop
      vertex 36 1.7 0
      vertex 25.0937 2.78137 0
      vertex 34.3737 2.37365 0
    endloop
  endfacet
  facet normal 0 0 -1
    outer loop
      vertex 21.618 14.217 0
      vertex 23.1287 15.7593 0
      vertex 24.7082 16.2725 0
    endloop
  endfacet
  facet normal 0 0 -1
    outer loop
      vertex 15 16.6741 0
      vertex 26.0875 3.1148 0
      vertex 25.0937 2.78137 0
    endloop
  endfacet
  facet normal 0 0 -1
    outer loop
      vertex 14 20.2482 0
      vertex 15 16.6741 0
      vertex 14 3.07586 0
    endloop
  endfacet
  facet normal 0 1 0
    outer loop
      vertex 0 38 0
      vertex 0 38 2
      vertex 0.198062 38 0
    endloop
  endfacet
  facet normal 0 1 0
    outer loop
      vertex 0.198062 38 0
      vertex 0 38 2
      vertex 0.198062 38 2
    endloop
  endfacet
  facet normal 0 0 1
    outer loop
      vertex 5.43769 30.5801 2
      vertex 7.95565 33.3766 2
      vertex 5.62635 34.3737 2
    endloop
  endfacet
  facet normal 0 0 1
    outer loop
      vertex 0 38 2
      vertex 0 2 2
      vertex 0.198062 2 2
    endloop
  endfacet
  facet normal 0 0 1
    outer loop
      vertex 1.55496 0.050144 2
      vertex 0 38 2
      vertex 0.198062 2 2
    endloop
  endfacet
  facet normal 0 0 1
    outer loop
      vertex 0.198062 1.13223 2
      vertex 1.55496 0.050144 2
      vertex 0.198062 2 2
    endloop
  endfacet
  facet normal 0 0 1
    outer loop
      vertex 37.6263 5.62635 2
      vertex 38.3 4 2
      vertex 40 2 2
    endloop
  endfacet
  facet normal 0 0 1
    outer loop
      vertex 2 0 2
      vertex 38 0 2
      vertex 2 0.151722 2
    endloop
  endfacet
  facet normal 0 0 1
    outer loop
      vertex 5.43769 30.5801 2
      vertex 5.62635 34.3737 2
      vertex 4 33.7 2
    endloop
  endfacet
  facet normal 0 0 1
    outer loop
      vertex 4 38.3 2
      vertex 5.62635 37.6263 2
      vertex 18.1185 37.9014 2
    endloop
  endfacet
  facet normal 0 0 1
    outer loop
      vertex 2.37365 2.37365 2
      vertex 1.7 4 2
      vertex 2 0.151722 2
    endloop
  endfacet
  facet normal 0 0 1
    outer loop
      vertex 0.198062 38.8678 2
      vertex 2 39.8483 2
      vertex 1.55496 39.9499 2
    endloop
  endfacet
  facet normal 0 0 1
    outer loop
      vertex 3.55618 12.6787 2
      vertex 2.39334 16.2576 2
      vertex 4 6.3 2
    endloop
  endfacet
  facet normal 0 0 1
    outer loop
      vertex 38 40 2
      vertex 2 40 2
      vertex 2 39.8483 2
    endloop
  endfacet
  facet normal 0 0 1
    outer loop
      vertex 36 38.3 2
      vertex 37.6263 37.6263 2
      vertex 40 38 2
    endloop
  endfacet
  facet normal 0 0 1
    outer loop
      vertex 1.7 4 2
      vertex 2.37365 5.62635 2
      vertex 0 38 2
    endloop
  endfacet
  facet normal 0 0 1
    outer loop
      vertex 36 1.7 2
      vertex 34.3737 2.37365 2
      vertex 38 0 2
    endloop
  endfacet
  facet normal 0 0 1
    outer loop
      vertex 1.55496 0.050144 2
      vertex 1.7 4 2
      vertex 0 38 2
    endloop
  endfacet
  facet normal 0 0 1
    outer loop
      vertex 1.55496 0.050144 2
      vertex 2 0.151722 2
      vertex 1.7 4 2
    endloop
  endfacet
  facet normal 0 0 1
    outer loop
      vertex 5.62635 2.37365 2
      vertex 4 1.7 2
      vertex 38 0 2
    endloop
  endfacet
  facet normal 0 0 1
    outer loop
      vertex 21.8815 2.09861 2
      vertex 18.1185 2.09861 2
      vertex 38 0 2
    endloop
  endfacet
  facet normal 0 0 1
    outer loop
      vertex 14.4377 2.88098 2
      vertex 11 4.41154 2
      vertex 6.3 4 2
    endloop
  endfacet
  facet normal 0 0 1
    outer loop
      vertex 7.95565 33.3766 2
      vertex 5.62635 37.6263 2
      vertex 6.3 36 2
    endloop
  endfacet
  facet normal 0 0 1
    outer loop
      vertex 2 0.151722 2
      vertex 4 1.7 2
      vertex 2.37365 2.37365 2
    endloop
  endfacet
  facet normal 0 0 1
    outer loop
      vertex 2 0.151722 2
      vertex 38 0 2
      vertex 4 1.7 2
    endloop
  endfacet
  facet normal 0 0 1
    outer loop
      vertex 2.39334 23.7424 2
      vertex 2.37365 34.3737 2
      vertex 0 38 2
    endloop
  endfacet
  facet normal 0 0 1
    outer loop
      vertex 2.37365 34.3737 2
      vertex 1.7 36 2
      vertex 0 38 2
    endloop
  endfacet
  facet normal 0 0 1
    outer loop
      vertex 2 20 2
      vertex 2.39334 23.7424 2
      vertex 0 38 2
    endloop
  endfacet
  facet normal 0 0 1
    outer loop
      vertex 4 38.3 2
      vertex 36 38.3 2
      vertex 39.247 39.5637 2
    endloop
  endfacet
  facet normal 0 0 1
    outer loop
      vertex 5.62635 5.62635 2
      vertex 6.3 4 2
      vertex 11 4.41154 2
    endloop
  endfacet
  facet normal 0 0 1
    outer loop
      vertex 38 40 2
      vertex 2 39.8483 2
      vertex 4 38.3 2
    endloop
  endfacet
  facet normal 0 0 1
    outer loop
      vertex 7.95565 33.3766 2
      vertex 11 35.5885 2
      vertex 5.62635 37.6263 2
    endloop
  endfacet
  facet normal 0 0 1
    outer loop
      vertex 14.4377 37.119 2
      vertex 18.1185 37.9014 2
      vertex 5.62635 37.6263 2
    endloop
  endfacet
  facet normal 0 0 1
    outer loop
      vertex 34.5623 9.41986 2
      vertex 32.0444 6.62339 2
      vertex 34.3737 5.62635 2
    endloop
  endfacet
  facet normal 0 0 1
    outer loop
      vertex 2.37365 5.62635 2
      vertex 2.39334 16.2576 2
      vertex 0 38 2
    endloop
  endfacet
  facet normal 0 0 1
    outer loop
      vertex 2.37365 5.62635 2
      vertex 4 6.3 2
      vertex 2.39334 16.2576 2
    endloop
  endfacet
  facet normal 0 0 1
    outer loop
      vertex 2.39334 16.2576 2
      vertex 2 20 2
      vertex 0 38 2
    endloop
  endfacet
  facet normal 0 0 1
    outer loop
      vertex 33.7 36 2
      vertex 34.3737 37.6263 2
      vertex 25.5623 37.119 2
    endloop
  endfacet
  facet normal 0 0 1
    outer loop
      vertex 2.39334 23.7424 2
      vertex 3.55618 27.3213 2
      vertex 2.37365 34.3737 2
    endloop
  endfacet
  facet normal 0 0 1
    outer loop
      vertex 33.7 4 2
      vertex 34.3737 5.62635 2
      vertex 32.0444 6.62339 2
    endloop
  endfacet
  facet normal 0 0 1
    outer loop
      vertex 3.55618 27.3213 2
      vertex 5.43769 30.5801 2
      vertex 2.37365 34.3737 2
    endloop
  endfacet
  facet normal 0 0 1
    outer loop
      vertex 34.3737 37.6263 2
      vertex 21.8815 37.9014 2
      vertex 25.5623 37.119 2
    endloop
  endfacet
  facet normal 0 0 1
    outer loop
      vertex 38 20 2
      vertex 37.6067 16.2576 2
      vertex 40 2 2
    endloop
  endfacet
  facet normal 0 0 1
    outer loop
      vertex 11 35.5885 2
      vertex 14.4377 37.119 2
      vertex 5.62635 37.6263 2
    endloop
  endfacet
  facet normal 0 0 1
    outer loop
      vertex 34.5623 9.41986 2
      vertex 34.3737 5.62635 2
      vertex 36 6.3 2
    endloop
  endfacet
  facet normal 0 0 1
    outer loop
      vertex 37.6263 37.6263 2
      vertex 38.3 36 2
      vertex 40 38 2
    endloop
  endfacet
  facet normal 0 0 1
    outer loop
      vertex 6.3 36 2
      vertex 5.62635 34.3737 2
      vertex 7.95565 33.3766 2
    endloop
  endfacet
  facet normal 0 0 1
    outer loop
      vertex 37.6263 2.37365 2
      vertex 38 0 2
      vertex 38 0.151722 2
    endloop
  endfacet
  facet normal 0 0 1
    outer loop
      vertex 34.3737 37.6263 2
      vertex 4 38.3 2
      vertex 21.8815 37.9014 2
    endloop
  endfacet
  facet normal 0 0 1
    outer loop
      vertex 37.6263 2.37365 2
      vertex 38 0.151722 2
      vertex 39.247 0.436337 2
    endloop
  endfacet
  facet normal 0 0 1
    outer loop
      vertex 37.6067 23.7424 2
      vertex 40 38 2
      vertex 36.4438 27.3213 2
    endloop
  endfacet
  facet normal 0 0 1
    outer loop
      vertex 40 2 2
      vertex 40 38 2
      vertex 37.6067 23.7424 2
    endloop
  endfacet
  facet normal 0 0 1
    outer loop
      vertex 40 2 2
      vertex 37.6067 23.7424 2
      vertex 38 20 2
    endloop
  endfacet
  facet normal 0 0 1
    outer loop
      vertex 38.3 4 2
      vertex 37.6263 2.37365 2
      vertex 40 2 2
    endloop
  endfacet
  facet normal 0 0 1
    outer loop
      vertex 32.0444 6.62339 2
      vertex 29 4.41154 2
      vertex 34.3737 2.37365 2
    endloop
  endfacet
  facet normal 0 0 1
    outer loop
      vertex 37.6263 5.62635 2
      vertex 36.4438 12.6787 2
      vertex 34.5623 9.41986 2
    endloop
  endfacet
  facet normal 0 0 1
    outer loop
      vertex 5.43769 30.5801 2
      vertex 4 33.7 2
      vertex 2.37365 34.3737 2
    endloop
  endfacet
  facet normal 0 0 1
    outer loop
      vertex 25.5623 2.88098 2
      vertex 38 0 2
      vertex 29 4.41154 2
    endloop
  endfacet
  facet normal 0 0 1
    outer loop
      vertex 5.43769 9.41986 2
      vertex 3.55618 12.6787 2
      vertex 4 6.3 2
    endloop
  endfacet
  facet normal 0 0 1
    outer loop
      vertex 11 4.41154 2
      vertex 4 6.3 2
      vertex 5.62635 5.62635 2
    endloop
  endfacet
  facet normal 0 0 1
    outer loop
      vertex 5.62635 2.37365 2
      vertex 18.1185 2.09861 2
      vertex 6.3 4 2
    endloop
  endfacet
  facet normal 0 0 1
    outer loop
      vertex 5.62635 2.37365 2
      vertex 38 0 2
      vertex 18.1185 2.09861 2
    endloop
  endfacet
  facet normal 0 0 1
    outer loop
      vertex 18.1185 2.09861 2
      vertex 14.4377 2.88098 2
      vertex 6.3 4 2
    endloop
  endfacet
  facet normal 0 0 1
    outer loop
      vertex 33.7 36 2
      vertex 25.5623 37.119 2
      vertex 29 35.5885 2
    endloop
  endfacet
  facet normal 0 0 1
    outer loop
      vertex 4 6.3 2
      vertex 7.95565 6.62339 2
      vertex 5.43769 9.41986 2
    endloop
  endfacet
  facet normal 0 0 1
    outer loop
      vertex 36 6.3 2
      vertex 37.6263 5.62635 2
      vertex 34.5623 9.41986 2
    endloop
  endfacet
  facet normal 0 0 1
    outer loop
      vertex 37.6263 2.37365 2
      vertex 36 1.7 2
      vertex 38 0 2
    endloop
  endfacet
  facet normal 0 0 1
    outer loop
      vertex 29 4.41154 2
      vertex 38 0 2
      vertex 34.3737 2.37365 2
    endloop
  endfacet
  facet normal 0 0 1
    outer loop
      vertex 11 4.41154 2
      vertex 7.95565 6.62339 2
      vertex 4 6.3 2
    endloop
  endfacet
  facet normal 0 0 1
    outer loop
      vertex 38.3 36 2
      vertex 37.6263 34.3737 2
      vertex 40 38 2
    endloop
  endfacet
  facet normal 0 0 1
    outer loop
      vertex 2.37365 37.6263 2
      vertex 4 38.3 2
      vertex 0.198062 38 2
    endloop
  endfacet
  facet normal 0 0 1
    outer loop
      vertex 40 2 2
      vertex 36.4438 12.6787 2
      vertex 37.6263 5.62635 2
    endloop
  endfacet
  facet normal 0 0 1
    outer loop
      vertex 32.0444 6.62339 2
      vertex 34.3737 2.37365 2
      vertex 33.7 4 2
    endloop
  endfacet
  facet normal 0 0 1
    outer loop
      vertex 34.3737 37.6263 2
      vertex 36 38.3 2
      vertex 4 38.3 2
    endloop
  endfacet
  facet normal 0 0 1
    outer loop
      vertex 39.247 0.436337 2
      vertex 40 2 2
      vertex 37.6263 2.37365 2
    endloop
  endfacet
  facet normal 0 0 1
    outer loop
      vertex 25.5623 2.88098 2
      vertex 21.8815 2.09861 2
      vertex 38 0 2
    endloop
  endfacet
  facet normal 0 0 1
    outer loop
      vertex 34.3737 34.3737 2
      vertex 33.7 36 2
      vertex 32.0444 33.3766 2
    endloop
  endfacet
  facet normal 0 0 1
    outer loop
      vertex 34.5623 30.5801 2
      vertex 34.3737 34.3737 2
      vertex 32.0444 33.3766 2
    endloop
  endfacet
  facet normal 0 0 1
    outer loop
      vertex 32.0444 33.3766 2
      vertex 33.7 36 2
      vertex 29 35.5885 2
    endloop
  endfacet
  facet normal 0 0 1
    outer loop
      vertex 37.6067 16.2576 2
      vertex 36.4438 12.6787 2
      vertex 40 2 2
    endloop
  endfacet
  facet normal 0 0 1
    outer loop
      vertex 40 38 2
      vertex 39.247 39.5637 2
      vertex 36 38.3 2
    endloop
  endfacet
  facet normal 0 0 1
    outer loop
      vertex 21.8815 37.9014 2
      vertex 4 38.3 2
      vertex 18.1185 37.9014 2
    endloop
  endfacet
  facet normal 0 0 1
    outer loop
      vertex 37.6263 34.3737 2
      vertex 36 33.7 2
      vertex 34.5623 30.5801 2
    endloop
  endfacet
  facet normal 0 0 1
    outer loop
      vertex 36.4438 27.3213 2
      vertex 37.6263 34.3737 2
      vertex 34.5623 30.5801 2
    endloop
  endfacet
  facet normal 0 0 1
    outer loop
      vertex 36.4438 27.3213 2
      vertex 40 38 2
      vertex 37.6263 34.3737 2
    endloop
  endfacet
  facet normal 0 0 1
    outer loop
      vertex 34.5623 30.5801 2
      vertex 36 33.7 2
      vertex 34.3737 34.3737 2
    endloop
  endfacet
  facet normal 0 0 1
    outer loop
      vertex 0.198062 38.8678 2
      vertex 4 38.3 2
      vertex 2 39.8483 2
    endloop
  endfacet
  facet normal 0 0 1
    outer loop
      vertex 4 38.3 2
      vertex 38 39.8483 2
      vertex 38 40 2
    endloop
  endfacet
  facet normal 0 0 1
    outer loop
      vertex 4 38.3 2
      vertex 39.247 39.5637 2
      vertex 38 39.8483 2
    endloop
  endfacet
  facet normal 0 0 1
    outer loop
      vertex 0.198062 38.8678 2
      vertex 0.198062 38 2
      vertex 4 38.3 2
    endloop
  endfacet
  facet normal 0 0 1
    outer loop
      vertex 1.7 36 2
      vertex 0.198062 38 2
      vertex 0 38 2
    endloop
  endfacet
  facet normal 0 0 1
    outer loop
      vertex 1.7 36 2
      vertex 2.37365 37.6263 2
      vertex 0.198062 38 2
    endloop
  endfacet
  facet normal -1 0 0
    outer loop
      vertex 0.198062 1.13223 0
      vertex 0.198062 1.13223 2
      vertex 0.198062 2 0
    endloop
  endfacet
  facet normal -1 0 0
    outer loop
      vertex 0.198062 2 0
      vertex 0.198062 1.13223 2
      vertex 0.198062 2 2
    endloop
  endfacet
  facet normal -0.62349 -0.781831 0
    outer loop
      vertex 0.198062 1.13223 2
      vertex 0.198062 1.13223 0
      vertex 1.55496 0.050144 0
    endloop
  endfacet
  facet normal -0.62349 -0.781831 0
    outer loop
      vertex 1.55496 0.050144 2
      vertex 0.198062 1.13223 2
      vertex 1.55496 0.050144 0
    endloop
  endfacet
  facet normal 0.222521 -0.974928 0
    outer loop
      vertex 1.55496 0.050144 2
      vertex 1.55496 0.050144 0
      vertex 2 0.151722 0
    endloop
  endfacet
  facet normal 0.222521 -0.974928 0
    outer loop
      vertex 2 0.151722 2
      vertex 1.55496 0.050144 2
      vertex 2 0.151722 0
    endloop
  endfacet
  facet normal -1 0 0
    outer loop
      vertex 2 0 0
      vertex 2 0 2
      vertex 2 0.151722 0
    endloop
  endfacet
  facet normal -1 0 0
    outer loop
      vertex 2 0.151722 0
      vertex 2 0 2
      vertex 2 0.151722 2
    endloop
  endfacet
  facet normal 0 -1 0
    outer loop
      vertex 2 0 2
      vertex 2 0 0
      vertex 38 0 0
    endloop
  endfacet
  facet normal 0 -1 0
    outer loop
      vertex 38 0 2
      vertex 2 0 2
      vertex 38 0 0
    endloop
  endfacet
  facet normal 1 0 0
    outer loop
      vertex 38 0 2
      vertex 38 0 0
      vertex 38 0.151722 0
    endloop
  endfacet
  facet normal 1 0 0
    outer loop
      vertex 38 0.151722 2
      vertex 38 0 2
      vertex 38 0.151722 0
    endloop
  endfacet
  facet normal 0.222521 -0.974928 0
    outer loop
      vertex 38 0.151722 2
      vertex 38 0.151722 0
      vertex 39.247 0.436337 0
    endloop
  endfacet
  facet normal 0.222521 -0.974928 0
    outer loop
      vertex 39.247 0.436337 2
      vertex 38 0.151722 2
      vertex 39.247 0.436337 0
    endloop
  endfacet
  facet normal 0.900969 -0.433884 0
    outer loop
      vertex 39.247 0.436337 2
      vertex 39.247 0.436337 0
      vertex 40 2 0
    endloop
  endfacet
  facet normal 0.900969 -0.433884 0
    outer loop
      vertex 40 2 2
      vertex 39.247 0.436337 2
      vertex 40 2 0
    endloop
  endfacet
  facet normal 1 0 0
    outer loop
      vertex 40 2 2
      vertex 40 2 0
      vertex 40 38 0
    endloop
  endfacet
  facet normal 1 0 0
    outer loop
      vertex 40 38 2
      vertex 40 2 2
      vertex 40 38 0
    endloop
  endfacet
  facet normal 0.900969 0.433884 0
    outer loop
      vertex 40 38 0
      vertex 39.247 39.5637 0
      vertex 39.247 39.5637 2
    endloop
  endfacet
  facet normal 0.900969 0.433884 0
    outer loop
      vertex 40 38 2
      vertex 40 38 0
      vertex 39.247 39.5637 2
    endloop
  endfacet
  facet normal 0.222521 0.974928 0
    outer loop
      vertex 38 39.8483 0
      vertex 38 39.8483 2
      vertex 39.247 39.5637 0
    endloop
  endfacet
  facet normal 0.222521 0.974928 0
    outer loop
      vertex 39.247 39.5637 0
      vertex 38 39.8483 2
      vertex 39.247 39.5637 2
    endloop
  endfacet
  facet normal 1 0 0
    outer loop
      vertex 38 39.8483 2
      vertex 38 39.8483 0
      vertex 38 40 0
    endloop
  endfacet
  facet normal 1 0 0
    outer loop
      vertex 38 40 2
      vertex 38 39.8483 2
      vertex 38 40 0
    endloop
  endfacet
  facet normal 0 1 0
    outer loop
      vertex 2 40 0
      vertex 2 40 2
      vertex 38 40 0
    endloop
  endfacet
  facet normal 0 1 0
    outer loop
      vertex 38 40 0
      vertex 2 40 2
      vertex 38 40 2
    endloop
  endfacet
  facet normal -1 0 0
    outer loop
      vertex 2 39.8483 0
      vertex 2 39.8483 2
      vertex 2 40 0
    endloop
  endfacet
  facet normal -1 0 0
    outer loop
      vertex 2 40 0
      vertex 2 39.8483 2
      vertex 2 40 2
    endloop
  endfacet
  facet normal 0.222521 0.974928 0
    outer loop
      vertex 1.55496 39.9499 0
      vertex 1.55496 39.9499 2
      vertex 2 39.8483 0
    endloop
  endfacet
  facet normal 0.222521 0.974928 0
    outer loop
      vertex 2 39.8483 0
      vertex 1.55496 39.9499 2
      vertex 2 39.8483 2
    endloop
  endfacet
  facet normal -0.62349 0.781831 0
    outer loop
      vertex 0.198062 38.8678 0
      vertex 0.198062 38.8678 2
      vertex 1.55496 39.9499 0
    endloop
  endfacet
  facet normal -0.62349 0.781831 0
    outer loop
      vertex 1.55496 39.9499 0
      vertex 0.198062 38.8678 2
      vertex 1.55496 39.9499 2
    endloop
  endfacet
  facet normal -1 0 0
    outer loop
      vertex 0.198062 38 0
      vertex 0.198062 38 2
      vertex 0.198062 38.8678 0
    endloop
  endfacet
  facet normal -1 0 0
    outer loop
      vertex 0.198062 38.8678 0
      vertex 0.198062 38 2
      vertex 0.198062 38.8678 2
    endloop
  endfacet
  facet normal 0.92388 -0.382683 0
    outer loop
      vertex 2.37365 5.62635 0
      vertex 2.37365 5.62635 2
      vertex 1.7 4 2
    endloop
  endfacet
  facet normal 0.92388 -0.382683 0
    outer loop
      vertex 1.7 4 0
      vertex 2.37365 5.62635 0
      vertex 1.7 4 2
    endloop
  endfacet
  facet normal 0.92388 0.382683 0
    outer loop
      vertex 1.7 4 2
      vertex 2.37365 2.37365 2
      vertex 2.37365 2.37365 0
    endloop
  endfacet
  facet normal 0.92388 0.382683 0
    outer loop
      vertex 1.7 4 0
      vertex 1.7 4 2
      vertex 2.37365 2.37365 0
    endloop
  endfacet
  facet normal 0.382683 -0.92388 0
    outer loop
      vertex 4 6.3 0
      vertex 4 6.3 2
      vertex 2.37365 5.62635 2
    endloop
  endfacet
  facet normal 0.382683 -0.92388 0
    outer loop
      vertex 2.37365 5.62635 0
      vertex 4 6.3 0
      vertex 2.37365 5.62635 2
    endloop
  endfacet
  facet normal -0.382683 -0.92388 0
    outer loop
      vertex 5.62635 5.62635 0
      vertex 5.62635 5.62635 2
      vertex 4 6.3 2
    endloop
  endfacet
  facet normal -0.382683 -0.92388 0
    outer loop
      vertex 4 6.3 0
      vertex 5.62635 5.62635 0
      vertex 4 6.3 2
    endloop
  endfacet
  facet normal -0.92388 -0.382683 0
    outer loop
      vertex 6.3 4 2
      vertex 5.62635 5.62635 2
      vertex 6.3 4 0
    endloop
  endfacet
  facet normal -0.92388 -0.382683 0
    outer loop
      vertex 6.3 4 0
      vertex 5.62635 5.62635 2
      vertex 5.62635 5.62635 0
    endloop
  endfacet
  facet normal -0.92388 0.382683 0
    outer loop
      vertex 6.3 4 2
      vertex 6.3 4 0
      vertex 5.62635 2.37365 2
    endloop
  endfacet
  facet normal -0.92388 0.382683 0
    outer loop
      vertex 5.62635 2.37365 2
      vertex 6.3 4 0
      vertex 5.62635 2.37365 0
    endloop
  endfacet
  facet normal -0.382683 0.92388 0
    outer loop
      vertex 5.62635 2.37365 2
      vertex 5.62635 2.37365 0
      vertex 4 1.7 2
    endloop
  endfacet
  facet normal -0.382683 0.92388 0
    outer loop
      vertex 4 1.7 2
      vertex 5.62635 2.37365 0
      vertex 4 1.7 0
    endloop
  endfacet
  facet normal 0.382683 0.92388 0
    outer loop
      vertex 4 1.7 2
      vertex 4 1.7 0
      vertex 2.37365 2.37365 2
    endloop
  endfacet
  facet normal 0.382683 0.92388 0
    outer loop
      vertex 2.37365 2.37365 2
      vertex 4 1.7 0
      vertex 2.37365 2.37365 0
    endloop
  endfacet
  facet normal 0.92388 -0.382683 0
    outer loop
      vertex 2.37365 37.6263 0
      vertex 2.37365 37.6263 2
      vertex 1.7 36 2
    endloop
  endfacet
  facet normal 0.92388 -0.382683 0
    outer loop
      vertex 1.7 36 0
      vertex 2.37365 37.6263 0
      vertex 1.7 36 2
    endloop
  endfacet
  facet normal 0.92388 0.382683 0
    outer loop
      vertex 1.7 36 2
      vertex 2.37365 34.3737 2
      vertex 2.37365 34.3737 0
    endloop
  endfacet
  facet normal 0.92388 0.382683 0
    outer loop
      vertex 1.7 36 0
      vertex 1.7 36 2
      vertex 2.37365 34.3737 0
    endloop
  endfacet
  facet normal 0.382683 -0.92388 0
    outer loop
      vertex 4 38.3 0
      vertex 4 38.3 2
      vertex 2.37365 37.6263 2
    endloop
  endfacet
  facet normal 0.382683 -0.92388 0
    outer loop
      vertex 2.37365 37.6263 0
      vertex 4 38.3 0
      vertex 2.37365 37.6263 2
    endloop
  endfacet
  facet normal -0.382683 -0.92388 0
    outer loop
      vertex 5.62635 37.6263 0
      vertex 5.62635 37.6263 2
      vertex 4 38.3 2
    endloop
  endfacet
  facet normal -0.382683 -0.92388 0
    outer loop
      vertex 4 38.3 0
      vertex 5.62635 37.6263 0
      vertex 4 38.3 2
    endloop
  endfacet
  facet normal -0.92388 -0.382683 0
    outer loop
      vertex 6.3 36 2
      vertex 5.62635 37.6263 2
      vertex 6.3 36 0
    endloop
  endfacet
  facet normal -0.92388 -0.382683 0
    outer loop
      vertex 6.3 36 0
      vertex 5.62635 37.6263 2
      vertex 5.62635 37.6263 0
    endloop
  endfacet
  facet normal -0.92388 0.382683 0
    outer loop
      vertex 6.3 36 2
      vertex 6.3 36 0
      vertex 5.62635 34.3737 2
    endloop
  endfacet
  facet normal -0.92388 0.382683 0
    outer loop
      vertex 5.62635 34.3737 2
      vertex 6.3 36 0
      vertex 5.62635 34.3737 0
    endloop
  endfacet
  facet normal -0.382683 0.92388 0
    outer loop
      vertex 5.62635 34.3737 2
      vertex 5.62635 34.3737 0
      vertex 4 33.7 2
    endloop
  endfacet
  facet normal -0.382683 0.92388 0
    outer loop
      vertex 4 33.7 2
      vertex 5.62635 34.3737 0
      vertex 4 33.7 0
    endloop
  endfacet
  facet normal 0.382683 0.92388 0
    outer loop
      vertex 4 33.7 2
      vertex 4 33.7 0
      vertex 2.37365 34.3737 2
    endloop
  endfacet
  facet normal 0.382683 0.92388 0
    outer loop
      vertex 2.37365 34.3737 2
      vertex 4 33.7 0
      vertex 2.37365 34.3737 0
    endloop
  endfacet
  facet normal 0.951057 -0.309017 0
    outer loop
      vertex 3.55618 27.3213 0
      vertex 3.55618 27.3213 2
      vertex 2.39334 23.7424 2
    endloop
  endfacet
  facet normal 0.951057 -0.309017 0
    outer loop
      vertex 2.39334 23.7424 0
      vertex 3.55618 27.3213 0
      vertex 2.39334 23.7424 2
    endloop
  endfacet
  facet normal 0.994522 -0.104528 0
    outer loop
      vertex 2.05008 20.4765 1
      vertex 2.05008 20.4765 0
      vertex 2.39334 23.7424 0
    endloop
  endfacet
  facet normal 0.994522 -0.104528 0
    outer loop
      vertex 2 20 2
      vertex 2.05008 20.4765 1
      vertex 2.39334 23.7424 2
    endloop
  endfacet
  facet normal 0.994522 -0.104528 0
    outer loop
      vertex 2.39334 23.7424 2
      vertex 2.05008 20.4765 1
      vertex 2.39334 23.7424 0
    endloop
  endfacet
  facet normal 0.994522 -0.104528 0
    outer loop
      vertex 2 20 1
      vertex 2.05008 20.4765 1
      vertex 2 20 2
    endloop
  endfacet
  facet normal 0.866025 -0.5 0
    outer loop
      vertex 5.43769 30.5801 2
      vertex 5.15026 30.0823 1
      vertex 5.43769 30.5801 1
    endloop
  endfacet
  facet normal 0.866025 -0.5 0
    outer loop
      vertex 3.55618 27.3213 2
      vertex 5.15026 30.0823 1
      vertex 5.43769 30.5801 2
    endloop
  endfacet
  facet normal 0.866025 -0.5 0
    outer loop
      vertex 5.15026 30.0823 0
      vertex 5.15026 30.0823 1
      vertex 3.55618 27.3213 2
    endloop
  endfacet
  facet normal 0.866025 -0.5 0
    outer loop
      vertex 3.55618 27.3213 0
      vertex 5.15026 30.0823 0
      vertex 3.55618 27.3213 2
    endloop
  endfacet
  facet normal -0.309017 -0.951057 0
    outer loop
      vertex 5.15026 30.0823 1
      vertex 5.15026 30.0823 0
      vertex 18.382 25.783 0
    endloop
  endfacet
  facet normal -0.309017 -0.951057 0
    outer loop
      vertex 18.382 25.783 1
      vertex 5.15026 30.0823 1
      vertex 18.382 25.783 0
    endloop
  endfacet
  facet normal -0.309017 0.951057 0
    outer loop
      vertex 2.05008 20.4765 0
      vertex 2.05008 20.4765 1
      vertex 18.382 25.783 0
    endloop
  endfacet
  facet normal -0.309017 0.951057 0
    outer loop
      vertex 18.382 25.783 0
      vertex 2.05008 20.4765 1
      vertex 18.382 25.783 1
    endloop
  endfacet
  facet normal 0.994522 0.104528 0
    outer loop
      vertex 2 20 2
      vertex 2.39334 16.2576 2
      vertex 2.39334 16.2576 0
    endloop
  endfacet
  facet normal 0.994522 0.104528 0
    outer loop
      vertex 2.06009 19.4283 1
      vertex 2 20 2
      vertex 2.39334 16.2576 0
    endloop
  endfacet
  facet normal 0.994522 0.104528 0
    outer loop
      vertex 2.06009 19.4283 0
      vertex 2.06009 19.4283 1
      vertex 2.39334 16.2576 0
    endloop
  endfacet
  facet normal 0.994522 0.104528 0
    outer loop
      vertex 2.06009 19.4283 1
      vertex 2 20 1
      vertex 2 20 2
    endloop
  endfacet
  facet normal 0.309017 -0.951057 0
    outer loop
      vertex 2.06009 19.4283 1
      vertex 2.06009 19.4283 0
      vertex 15.2918 23.7275 0
    endloop
  endfacet
  facet normal 0.309017 -0.951057 0
    outer loop
      vertex 15.2918 23.7275 1
      vertex 2.06009 19.4283 1
      vertex 15.2918 23.7275 0
    endloop
  endfacet
  facet normal -0.809017 0.587785 0
    outer loop
      vertex 5.19814 9.83479 0
      vertex 5.19814 9.83479 1
      vertex 15.2918 23.7275 0
    endloop
  endfacet
  facet normal -0.809017 0.587785 0
    outer loop
      vertex 15.2918 23.7275 0
      vertex 5.19814 9.83479 1
      vertex 15.2918 23.7275 1
    endloop
  endfacet
  facet normal 0.866025 0.5 0
    outer loop
      vertex 3.55618 12.6787 2
      vertex 5.43769 9.41986 2
      vertex 5.43769 9.41986 1
    endloop
  endfacet
  facet normal 0.866025 0.5 0
    outer loop
      vertex 5.19814 9.83479 0
      vertex 3.55618 12.6787 2
      vertex 5.19814 9.83479 1
    endloop
  endfacet
  facet normal 0.866025 0.5 0
    outer loop
      vertex 5.19814 9.83479 1
      vertex 3.55618 12.6787 2
      vertex 5.43769 9.41986 1
    endloop
  endfacet
  facet normal 0.866025 0.5 0
    outer loop
      vertex 3.55618 12.6787 0
      vertex 3.55618 12.6787 2
      vertex 5.19814 9.83479 0
    endloop
  endfacet
  facet normal 0.951057 0.309017 0
    outer loop
      vertex 2.39334 16.2576 2
      vertex 3.55618 12.6787 2
      vertex 3.55618 12.6787 0
    endloop
  endfacet
  facet normal 0.951057 0.309017 0
    outer loop
      vertex 2.39334 16.2576 0
      vertex 2.39334 16.2576 2
      vertex 3.55618 12.6787 0
    endloop
  endfacet
  facet normal 0.587785 -0.809017 0
    outer loop
      vertex 11 35.5885 0
      vertex 11 35.5885 2
      vertex 7.95565 33.3766 2
    endloop
  endfacet
  facet normal 0.587785 -0.809017 0
    outer loop
      vertex 7.95565 33.3766 0
      vertex 11 35.5885 0
      vertex 7.95565 33.3766 2
    endloop
  endfacet
  facet normal 0.743145 -0.669131 0
    outer loop
      vertex 5.75828 30.9362 1
      vertex 5.75828 30.9362 0
      vertex 7.95565 33.3766 0
    endloop
  endfacet
  facet normal 0.743145 -0.669131 0
    outer loop
      vertex 5.43769 30.5801 2
      vertex 5.75828 30.9362 1
      vertex 7.95565 33.3766 2
    endloop
  endfacet
  facet normal 0.743145 -0.669131 0
    outer loop
      vertex 7.95565 33.3766 2
      vertex 5.75828 30.9362 1
      vertex 7.95565 33.3766 0
    endloop
  endfacet
  facet normal 0.743145 -0.669131 0
    outer loop
      vertex 5.43769 30.5801 1
      vertex 5.75828 30.9362 1
      vertex 5.43769 30.5801 2
    endloop
  endfacet
  facet normal 0.406737 -0.913545 0
    outer loop
      vertex 14.4377 37.119 2
      vertex 13.9125 36.8852 1
      vertex 14.4377 37.119 1
    endloop
  endfacet
  facet normal 0.406737 -0.913545 0
    outer loop
      vertex 11 35.5885 2
      vertex 13.9125 36.8852 1
      vertex 14.4377 37.119 2
    endloop
  endfacet
  facet normal 0.406737 -0.913545 0
    outer loop
      vertex 13.9125 36.8852 0
      vertex 13.9125 36.8852 1
      vertex 11 35.5885 2
    endloop
  endfacet
  facet normal 0.406737 -0.913545 0
    outer loop
      vertex 11 35.5885 0
      vertex 13.9125 36.8852 0
      vertex 11 35.5885 2
    endloop
  endfacet
  facet normal -0.809017 -0.587785 0
    outer loop
      vertex 13.9125 36.8852 0
      vertex 22.0902 25.6296 0
      vertex 13.9125 36.8852 1
    endloop
  endfacet
  facet normal -0.809017 -0.587785 0
    outer loop
      vertex 13.9125 36.8852 1
      vertex 22.0902 25.6296 0
      vertex 22.0902 25.6296 1
    endloop
  endfacet
  facet normal 0.309017 0.951057 0
    outer loop
      vertex 5.75828 30.9362 0
      vertex 5.75828 30.9362 1
      vertex 22.0902 25.6296 0
    endloop
  endfacet
  facet normal 0.309017 0.951057 0
    outer loop
      vertex 22.0902 25.6296 0
      vertex 5.75828 30.9362 1
      vertex 22.0902 25.6296 1
    endloop
  endfacet
  facet normal 0.743145 0.669131 0
    outer loop
      vertex 5.43769 9.41986 2
      vertex 7.95565 6.62339 2
      vertex 7.95565 6.62339 0
    endloop
  endfacet
  facet normal 0.743145 0.669131 0
    outer loop
      vertex 5.82236 8.99265 1
      vertex 5.43769 9.41986 2
      vertex 7.95565 6.62339 0
    endloop
  endfacet
  facet normal 0.743145 0.669131 0
    outer loop
      vertex 5.82236 8.99265 0
      vertex 5.82236 8.99265 1
      vertex 7.95565 6.62339 0
    endloop
  endfacet
  facet normal 0.743145 0.669131 0
    outer loop
      vertex 5.82236 8.99265 1
      vertex 5.43769 9.41986 1
      vertex 5.43769 9.41986 2
    endloop
  endfacet
  facet normal 0.809017 -0.587785 0
    outer loop
      vertex 5.82236 8.99265 1
      vertex 5.82236 8.99265 0
      vertex 14 20.2482 0
    endloop
  endfacet
  facet normal 0.809017 -0.587785 0
    outer loop
      vertex 14 20.2482 1
      vertex 5.82236 8.99265 1
      vertex 14 20.2482 0
    endloop
  endfacet
  facet normal -1 1.22461e-16 0
    outer loop
      vertex 14 3.07586 0
      vertex 14 3.07586 1
      vertex 14 20.2482 0
    endloop
  endfacet
  facet normal -1 1.22461e-16 0
    outer loop
      vertex 14 20.2482 0
      vertex 14 3.07586 1
      vertex 14 20.2482 1
    endloop
  endfacet
  facet normal 0.406737 0.913545 0
    outer loop
      vertex 14.4377 2.88098 2
      vertex 14.4377 2.88098 1
      vertex 11 4.41154 2
    endloop
  endfacet
  facet normal 0.406737 0.913545 0
    outer loop
      vertex 11 4.41154 2
      vertex 14.4377 2.88098 1
      vertex 14 3.07586 1
    endloop
  endfacet
  facet normal 0.406737 0.913545 0
    outer loop
      vertex 11 4.41154 2
      vertex 14 3.07586 1
      vertex 14 3.07586 0
    endloop
  endfacet
  facet normal 0.406737 0.913545 0
    outer loop
      vertex 11 4.41154 2
      vertex 14 3.07586 0
      vertex 11 4.41154 0
    endloop
  endfacet
  facet normal 0.587785 0.809017 0
    outer loop
      vertex 11 4.41154 2
      vertex 11 4.41154 0
      vertex 7.95565 6.62339 2
    endloop
  endfacet
  facet normal 0.587785 0.809017 0
    outer loop
      vertex 7.95565 6.62339 2
      vertex 11 4.41154 0
      vertex 7.95565 6.62339 0
    endloop
  endfacet
  facet normal 0 -1 0
    outer loop
      vertex 21.8815 37.9014 0
      vertex 21.8815 37.9014 2
      vertex 18.1185 37.9014 2
    endloop
  endfacet
  facet normal 0 -1 0
    outer loop
      vertex 18.1185 37.9014 0
      vertex 21.8815 37.9014 0
      vertex 18.1185 37.9014 2
    endloop
  endfacet
  facet normal 0.207912 -0.978148 0
    outer loop
      vertex 14.9063 37.2186 1
      vertex 14.9063 37.2186 0
      vertex 18.1185 37.9014 0
    endloop
  endfacet
  facet normal 0.207912 -0.978148 0
    outer loop
      vertex 14.4377 37.119 2
      vertex 14.9063 37.2186 1
      vertex 18.1185 37.9014 2
    endloop
  endfacet
  facet normal 0.207912 -0.978148 0
    outer loop
      vertex 18.1185 37.9014 2
      vertex 14.9063 37.2186 1
      vertex 18.1185 37.9014 0
    endloop
  endfacet
  facet normal 0.207912 -0.978148 0
    outer loop
      vertex 14.4377 37.119 1
      vertex 14.9063 37.2186 1
      vertex 14.4377 37.119 2
    endloop
  endfacet
  facet normal -0.207912 -0.978148 0
    outer loop
      vertex 25.5623 37.119 2
      vertex 25 37.2385 1
      vertex 25.5623 37.119 1
    endloop
  endfacet
  facet normal -0.207912 -0.978148 0
    outer loop
      vertex 21.8815 37.9014 2
      vertex 25 37.2385 1
      vertex 25.5623 37.119 2
    endloop
  endfacet
  facet normal -0.207912 -0.978148 0
    outer loop
      vertex 25 37.2385 0
      vertex 25 37.2385 1
      vertex 21.8815 37.9014 2
    endloop
  endfacet
  facet normal -0.207912 -0.978148 0
    outer loop
      vertex 21.8815 37.9014 0
      vertex 25 37.2385 0
      vertex 21.8815 37.9014 2
    endloop
  endfacet
  facet normal -1 0 0
    outer loop
      vertex 25 23.3259 0
      vertex 25 23.3259 1
      vertex 25 37.2385 0
    endloop
  endfacet
  facet normal -1 0 0
    outer loop
      vertex 25 37.2385 0
      vertex 25 23.3259 1
      vertex 25 37.2385 1
    endloop
  endfacet
  facet normal 0.809017 0.587785 0
    outer loop
      vertex 25 23.3259 0
      vertex 14.9063 37.2186 0
      vertex 14.9063 37.2186 1
    endloop
  endfacet
  facet normal 0.809017 0.587785 0
    outer loop
      vertex 25 23.3259 1
      vertex 25 23.3259 0
      vertex 14.9063 37.2186 1
    endloop
  endfacet
  facet normal 0.809017 -0.587785 0
    outer loop
      vertex 14.9762 21.5918 1
      vertex 14.9762 21.5918 0
      vertex 16.8906 24.2268 0
    endloop
  endfacet
  facet normal 0.809017 -0.587785 0
    outer loop
      vertex 16.8906 24.2268 1
      vertex 14.9762 21.5918 1
      vertex 16.8906 24.2268 0
    endloop
  endfacet
  facet normal 1.22461e-16 1 0
    outer loop
      vertex 14.9762 21.5918 0
      vertex 14.9762 21.5918 1
      vertex 15 21.5918 0
    endloop
  endfacet
  facet normal 1.22461e-16 1 0
    outer loop
      vertex 15 21.5918 0
      vertex 14.9762 21.5918 1
      vertex 15 21.5918 1
    endloop
  endfacet
  facet normal 0.587785 0.809017 0
    outer loop
      vertex 16.8713 24.2407 0
      vertex 16.8713 24.2407 1
      vertex 16.8906 24.2268 0
    endloop
  endfacet
  facet normal 0.587785 0.809017 0
    outer loop
      vertex 16.8906 24.2268 0
      vertex 16.8713 24.2407 1
      vertex 16.8906 24.2268 1
    endloop
  endfacet
  facet normal 0.309017 -0.951057 0
    outer loop
      vertex 16.8713 24.2407 1
      vertex 16.8713 24.2407 0
      vertex 19.9689 25.2472 0
    endloop
  endfacet
  facet normal 0.309017 -0.951057 0
    outer loop
      vertex 19.9689 25.2472 1
      vertex 16.8713 24.2407 1
      vertex 19.9689 25.2472 0
    endloop
  endfacet
  facet normal 0.951057 0.309017 0
    outer loop
      vertex 19.9689 25.2472 0
      vertex 19.9615 25.2698 0
      vertex 19.9615 25.2698 1
    endloop
  endfacet
  facet normal 0.951057 0.309017 0
    outer loop
      vertex 19.9689 25.2472 1
      vertex 19.9689 25.2472 0
      vertex 19.9615 25.2698 1
    endloop
  endfacet
  facet normal -0.309017 -0.951057 0
    outer loop
      vertex 19.9615 25.2698 1
      vertex 19.9615 25.2698 0
      vertex 23.059 24.2634 0
    endloop
  endfacet
  facet normal -0.309017 -0.951057 0
    outer loop
      vertex 23.059 24.2634 1
      vertex 19.9615 25.2698 1
      vertex 23.059 24.2634 0
    endloop
  endfacet
  facet normal 0.951057 -0.309017 0
    outer loop
      vertex 23.059 24.2634 1
      vertex 23.059 24.2634 0
      vertex 23.0664 24.286 0
    endloop
  endfacet
  facet normal 0.951057 -0.309017 0
    outer loop
      vertex 23.0664 24.286 1
      vertex 23.059 24.2634 1
      vertex 23.0664 24.286 0
    endloop
  endfacet
  facet normal -0.809017 -0.587785 0
    outer loop
      vertex 23.0664 24.286 0
      vertex 24.9808 21.6511 0
      vertex 23.0664 24.286 1
    endloop
  endfacet
  facet normal -0.809017 -0.587785 0
    outer loop
      vertex 23.0664 24.286 1
      vertex 24.9808 21.6511 0
      vertex 24.9808 21.6511 1
    endloop
  endfacet
  facet normal 0.587785 -0.809017 0
    outer loop
      vertex 24.9808 21.6511 1
      vertex 24.9808 21.6511 0
      vertex 25 21.6651 0
    endloop
  endfacet
  facet normal 0.587785 -0.809017 0
    outer loop
      vertex 25 21.6651 1
      vertex 24.9808 21.6511 1
      vertex 25 21.6651 0
    endloop
  endfacet
  facet normal -1 0 0
    outer loop
      vertex 25 18.4082 0
      vertex 25 18.4082 1
      vertex 25 21.6651 0
    endloop
  endfacet
  facet normal -1 0 0
    outer loop
      vertex 25 21.6651 0
      vertex 25 18.4082 1
      vertex 25 21.6651 1
    endloop
  endfacet
  facet normal 0 -1 0
    outer loop
      vertex 25 18.4082 1
      vertex 25 18.4082 0
      vertex 25.0238 18.4082 0
    endloop
  endfacet
  facet normal 0 -1 0
    outer loop
      vertex 25.0238 18.4082 1
      vertex 25 18.4082 1
      vertex 25.0238 18.4082 0
    endloop
  endfacet
  facet normal -0.809017 0.587785 0
    outer loop
      vertex 23.1094 15.7732 0
      vertex 23.1094 15.7732 1
      vertex 25.0238 18.4082 0
    endloop
  endfacet
  facet normal -0.809017 0.587785 0
    outer loop
      vertex 25.0238 18.4082 0
      vertex 23.1094 15.7732 1
      vertex 25.0238 18.4082 1
    endloop
  endfacet
  facet normal -0.587785 -0.809017 0
    outer loop
      vertex 23.1094 15.7732 1
      vertex 23.1094 15.7732 0
      vertex 23.1287 15.7593 0
    endloop
  endfacet
  facet normal -0.587785 -0.809017 0
    outer loop
      vertex 23.1287 15.7593 1
      vertex 23.1094 15.7732 1
      vertex 23.1287 15.7593 0
    endloop
  endfacet
  facet normal -0.309017 0.951057 0
    outer loop
      vertex 20.0311 14.7528 0
      vertex 20.0311 14.7528 1
      vertex 23.1287 15.7593 0
    endloop
  endfacet
  facet normal -0.309017 0.951057 0
    outer loop
      vertex 23.1287 15.7593 0
      vertex 20.0311 14.7528 1
      vertex 23.1287 15.7593 1
    endloop
  endfacet
  facet normal -0.951057 -0.309017 0
    outer loop
      vertex 20.0311 14.7528 0
      vertex 20.0385 14.7302 0
      vertex 20.0311 14.7528 1
    endloop
  endfacet
  facet normal -0.951057 -0.309017 0
    outer loop
      vertex 20.0311 14.7528 1
      vertex 20.0385 14.7302 0
      vertex 20.0385 14.7302 1
    endloop
  endfacet
  facet normal 0.309017 0.951057 0
    outer loop
      vertex 16.941 15.7366 0
      vertex 16.941 15.7366 1
      vertex 20.0385 14.7302 0
    endloop
  endfacet
  facet normal 0.309017 0.951057 0
    outer loop
      vertex 20.0385 14.7302 0
      vertex 16.941 15.7366 1
      vertex 20.0385 14.7302 1
    endloop
  endfacet
  facet normal -0.951057 0.309017 0
    outer loop
      vertex 16.9336 15.714 0
      vertex 16.9336 15.714 1
      vertex 16.941 15.7366 0
    endloop
  endfacet
  facet normal -0.951057 0.309017 0
    outer loop
      vertex 16.941 15.7366 0
      vertex 16.9336 15.714 1
      vertex 16.941 15.7366 1
    endloop
  endfacet
  facet normal 0.809017 0.587785 0
    outer loop
      vertex 16.9336 15.714 0
      vertex 15.0192 18.3489 0
      vertex 15.0192 18.3489 1
    endloop
  endfacet
  facet normal 0.809017 0.587785 0
    outer loop
      vertex 16.9336 15.714 1
      vertex 16.9336 15.714 0
      vertex 15.0192 18.3489 1
    endloop
  endfacet
  facet normal -0.587785 0.809017 0
    outer loop
      vertex 15 18.3349 0
      vertex 15 18.3349 1
      vertex 15.0192 18.3489 0
    endloop
  endfacet
  facet normal -0.587785 0.809017 0
    outer loop
      vertex 15.0192 18.3489 0
      vertex 15 18.3349 1
      vertex 15.0192 18.3489 1
    endloop
  endfacet
  facet normal 1 -1.22461e-16 0
    outer loop
      vertex 15 18.3349 1
      vertex 15 18.3349 0
      vertex 15 21.5918 0
    endloop
  endfacet
  facet normal 1 -1.22461e-16 0
    outer loop
      vertex 15 21.5918 1
      vertex 15 18.3349 1
      vertex 15 21.5918 0
    endloop
  endfacet
  facet normal 1 -1.22461e-16 0
    outer loop
      vertex 15 2.76146 1
      vertex 15 2.76146 0
      vertex 15 16.6741 0
    endloop
  endfacet
  facet normal 1 -1.22461e-16 0
    outer loop
      vertex 15 16.6741 1
      vertex 15 2.76146 1
      vertex 15 16.6741 0
    endloop
  endfacet
  facet normal -0.809017 -0.587785 0
    outer loop
      vertex 15 16.6741 0
      vertex 25.0937 2.78137 0
      vertex 15 16.6741 1
    endloop
  endfacet
  facet normal -0.809017 -0.587785 0
    outer loop
      vertex 15 16.6741 1
      vertex 25.0937 2.78137 0
      vertex 25.0937 2.78137 1
    endloop
  endfacet
  facet normal -0.207912 0.978148 0
    outer loop
      vertex 25.5623 2.88098 2
      vertex 25.5623 2.88098 1
      vertex 21.8815 2.09861 2
    endloop
  endfacet
  facet normal -0.207912 0.978148 0
    outer loop
      vertex 21.8815 2.09861 2
      vertex 25.5623 2.88098 1
      vertex 25.0937 2.78137 1
    endloop
  endfacet
  facet normal -0.207912 0.978148 0
    outer loop
      vertex 21.8815 2.09861 2
      vertex 25.0937 2.78137 1
      vertex 25.0937 2.78137 0
    endloop
  endfacet
  facet normal -0.207912 0.978148 0
    outer loop
      vertex 21.8815 2.09861 2
      vertex 25.0937 2.78137 0
      vertex 21.8815 2.09861 0
    endloop
  endfacet
  facet normal 0 1 0
    outer loop
      vertex 21.8815 2.09861 2
      vertex 21.8815 2.09861 0
      vertex 18.1185 2.09861 2
    endloop
  endfacet
  facet normal 0 1 0
    outer loop
      vertex 18.1185 2.09861 2
      vertex 21.8815 2.09861 0
      vertex 18.1185 2.09861 0
    endloop
  endfacet
  facet normal 0.207912 0.978148 0
    outer loop
      vertex 18.1185 2.09861 2
      vertex 18.1185 2.09861 0
      vertex 14.4377 2.88098 2
    endloop
  endfacet
  facet normal 0.207912 0.978148 0
    outer loop
      vertex 15 2.76146 1
      vertex 18.1185 2.09861 0
      vertex 15 2.76146 0
    endloop
  endfacet
  facet normal 0.207912 0.978148 0
    outer loop
      vertex 14.4377 2.88098 2
      vertex 18.1185 2.09861 0
      vertex 15 2.76146 1
    endloop
  endfacet
  facet normal 0.207912 0.978148 0
    outer loop
      vertex 14.4377 2.88098 1
      vertex 14.4377 2.88098 2
      vertex 15 2.76146 1
    endloop
  endfacet
  facet normal -0.309017 -0.951057 0
    outer loop
      vertex 17.9098 14.3704 1
      vertex 17.9098 14.3704 0
      vertex 34.2417 9.06381 0
    endloop
  endfacet
  facet normal -0.309017 -0.951057 0
    outer loop
      vertex 34.2417 9.06381 1
      vertex 17.9098 14.3704 1
      vertex 34.2417 9.06381 0
    endloop
  endfacet
  facet normal 0.809017 0.587785 0
    outer loop
      vertex 26.0875 3.1148 0
      vertex 17.9098 14.3704 0
      vertex 17.9098 14.3704 1
    endloop
  endfacet
  facet normal 0.809017 0.587785 0
    outer loop
      vertex 26.0875 3.1148 1
      vertex 26.0875 3.1148 0
      vertex 17.9098 14.3704 1
    endloop
  endfacet
  facet normal -0.743145 0.669131 0
    outer loop
      vertex 34.5623 9.41986 2
      vertex 34.5623 9.41986 1
      vertex 32.0444 6.62339 2
    endloop
  endfacet
  facet normal -0.743145 0.669131 0
    outer loop
      vertex 32.0444 6.62339 2
      vertex 34.5623 9.41986 1
      vertex 34.2417 9.06381 1
    endloop
  endfacet
  facet normal -0.743145 0.669131 0
    outer loop
      vertex 32.0444 6.62339 2
      vertex 34.2417 9.06381 1
      vertex 34.2417 9.06381 0
    endloop
  endfacet
  facet normal -0.743145 0.669131 0
    outer loop
      vertex 32.0444 6.62339 2
      vertex 34.2417 9.06381 0
      vertex 32.0444 6.62339 0
    endloop
  endfacet
  facet normal -0.587785 0.809017 0
    outer loop
      vertex 32.0444 6.62339 2
      vertex 32.0444 6.62339 0
      vertex 29 4.41154 2
    endloop
  endfacet
  facet normal -0.587785 0.809017 0
    outer loop
      vertex 29 4.41154 2
      vertex 32.0444 6.62339 0
      vertex 29 4.41154 0
    endloop
  endfacet
  facet normal -0.406737 0.913545 0
    outer loop
      vertex 29 4.41154 2
      vertex 29 4.41154 0
      vertex 25.5623 2.88098 2
    endloop
  endfacet
  facet normal -0.406737 0.913545 0
    outer loop
      vertex 26.0875 3.1148 1
      vertex 29 4.41154 0
      vertex 26.0875 3.1148 0
    endloop
  endfacet
  facet normal -0.406737 0.913545 0
    outer loop
      vertex 25.5623 2.88098 2
      vertex 29 4.41154 0
      vertex 26.0875 3.1148 1
    endloop
  endfacet
  facet normal -0.406737 0.913545 0
    outer loop
      vertex 25.5623 2.88098 1
      vertex 25.5623 2.88098 2
      vertex 26.0875 3.1148 1
    endloop
  endfacet
  facet normal 0.309017 -0.951057 0
    outer loop
      vertex 21.618 14.217 1
      vertex 21.618 14.217 0
      vertex 37.9499 19.5235 0
    endloop
  endfacet
  facet normal 0.309017 -0.951057 0
    outer loop
      vertex 37.9499 19.5235 1
      vertex 21.618 14.217 1
      vertex 37.9499 19.5235 0
    endloop
  endfacet
  facet normal 0.309017 0.951057 0
    outer loop
      vertex 21.618 14.217 0
      vertex 21.618 14.217 1
      vertex 34.8497 9.91772 0
    endloop
  endfacet
  facet normal 0.309017 0.951057 0
    outer loop
      vertex 34.8497 9.91772 0
      vertex 21.618 14.217 1
      vertex 34.8497 9.91772 1
    endloop
  endfacet
  facet normal -0.994522 0.104528 0
    outer loop
      vertex 38 20 2
      vertex 38 20 1
      vertex 37.6067 16.2576 2
    endloop
  endfacet
  facet normal -0.994522 0.104528 0
    outer loop
      vertex 37.6067 16.2576 2
      vertex 38 20 1
      vertex 37.9499 19.5235 1
    endloop
  endfacet
  facet normal -0.994522 0.104528 0
    outer loop
      vertex 37.6067 16.2576 2
      vertex 37.9499 19.5235 1
      vertex 37.9499 19.5235 0
    endloop
  endfacet
  facet normal -0.994522 0.104528 0
    outer loop
      vertex 37.6067 16.2576 2
      vertex 37.9499 19.5235 0
      vertex 37.6067 16.2576 0
    endloop
  endfacet
  facet normal -0.951057 0.309017 0
    outer loop
      vertex 37.6067 16.2576 2
      vertex 37.6067 16.2576 0
      vertex 36.4438 12.6787 2
    endloop
  endfacet
  facet normal -0.951057 0.309017 0
    outer loop
      vertex 36.4438 12.6787 2
      vertex 37.6067 16.2576 0
      vertex 36.4438 12.6787 0
    endloop
  endfacet
  facet normal -0.866025 0.5 0
    outer loop
      vertex 36.4438 12.6787 2
      vertex 36.4438 12.6787 0
      vertex 34.5623 9.41986 2
    endloop
  endfacet
  facet normal -0.866025 0.5 0
    outer loop
      vertex 34.8497 9.91772 1
      vertex 36.4438 12.6787 0
      vertex 34.8497 9.91772 0
    endloop
  endfacet
  facet normal -0.866025 0.5 0
    outer loop
      vertex 34.5623 9.41986 2
      vertex 36.4438 12.6787 0
      vertex 34.8497 9.91772 1
    endloop
  endfacet
  facet normal -0.866025 0.5 0
    outer loop
      vertex 34.5623 9.41986 1
      vertex 34.5623 9.41986 2
      vertex 34.8497 9.91772 1
    endloop
  endfacet
  facet normal 0.809017 -0.587785 0
    outer loop
      vertex 24.7082 16.2725 1
      vertex 24.7082 16.2725 0
      vertex 34.8019 30.1652 0
    endloop
  endfacet
  facet normal 0.809017 -0.587785 0
    outer loop
      vertex 34.8019 30.1652 1
      vertex 24.7082 16.2725 1
      vertex 34.8019 30.1652 0
    endloop
  endfacet
  facet normal -0.866025 -0.5 0
    outer loop
      vertex 34.8019 30.1652 0
      vertex 36.4438 27.3213 0
      vertex 34.8019 30.1652 1
    endloop
  endfacet
  facet normal -0.866025 -0.5 0
    outer loop
      vertex 34.8019 30.1652 1
      vertex 36.4438 27.3213 0
      vertex 36.4438 27.3213 2
    endloop
  endfacet
  facet normal -0.866025 -0.5 0
    outer loop
      vertex 34.8019 30.1652 1
      vertex 36.4438 27.3213 2
      vertex 34.5623 30.5801 2
    endloop
  endfacet
  facet normal -0.866025 -0.5 0
    outer loop
      vertex 34.8019 30.1652 1
      vertex 34.5623 30.5801 2
      vertex 34.5623 30.5801 1
    endloop
  endfacet
  facet normal -0.951057 -0.309017 0
    outer loop
      vertex 37.6067 23.7424 2
      vertex 36.4438 27.3213 2
      vertex 37.6067 23.7424 0
    endloop
  endfacet
  facet normal -0.951057 -0.309017 0
    outer loop
      vertex 37.6067 23.7424 0
      vertex 36.4438 27.3213 2
      vertex 36.4438 27.3213 0
    endloop
  endfacet
  facet normal -0.994522 -0.104528 0
    outer loop
      vertex 37.9399 20.5717 1
      vertex 38 20 1
      vertex 38 20 2
    endloop
  endfacet
  facet normal -0.994522 -0.104528 0
    outer loop
      vertex 37.9399 20.5717 1
      vertex 38 20 2
      vertex 37.6067 23.7424 2
    endloop
  endfacet
  facet normal -0.994522 -0.104528 0
    outer loop
      vertex 37.9399 20.5717 1
      vertex 37.6067 23.7424 2
      vertex 37.9399 20.5717 0
    endloop
  endfacet
  facet normal -0.994522 -0.104528 0
    outer loop
      vertex 37.6067 23.7424 2
      vertex 37.6067 23.7424 0
      vertex 37.9399 20.5717 0
    endloop
  endfacet
  facet normal -0.309017 0.951057 0
    outer loop
      vertex 24.7082 16.2725 0
      vertex 24.7082 16.2725 1
      vertex 37.9399 20.5717 0
    endloop
  endfacet
  facet normal -0.309017 0.951057 0
    outer loop
      vertex 37.9399 20.5717 0
      vertex 24.7082 16.2725 1
      vertex 37.9399 20.5717 1
    endloop
  endfacet
  facet normal 1 0 0
    outer loop
      vertex 26 19.7518 1
      vertex 26 19.7518 0
      vertex 26 36.9241 0
    endloop
  endfacet
  facet normal 1 0 0
    outer loop
      vertex 26 36.9241 1
      vertex 26 19.7518 1
      vertex 26 36.9241 0
    endloop
  endfacet
  facet normal -0.406737 -0.913545 0
    outer loop
      vertex 26 36.9241 1
      vertex 26 36.9241 0
      vertex 29 35.5885 0
    endloop
  endfacet
  facet normal -0.406737 -0.913545 0
    outer loop
      vertex 25.5623 37.119 2
      vertex 26 36.9241 1
      vertex 29 35.5885 2
    endloop
  endfacet
  facet normal -0.406737 -0.913545 0
    outer loop
      vertex 29 35.5885 2
      vertex 26 36.9241 1
      vertex 29 35.5885 0
    endloop
  endfacet
  facet normal -0.406737 -0.913545 0
    outer loop
      vertex 25.5623 37.119 1
      vertex 26 36.9241 1
      vertex 25.5623 37.119 2
    endloop
  endfacet
  facet normal -0.587785 -0.809017 0
    outer loop
      vertex 32.0444 33.3766 0
      vertex 32.0444 33.3766 2
      vertex 29 35.5885 2
    endloop
  endfacet
  facet normal -0.587785 -0.809017 0
    outer loop
      vertex 29 35.5885 0
      vertex 32.0444 33.3766 0
      vertex 29 35.5885 2
    endloop
  endfacet
  facet normal -0.743145 -0.669131 0
    outer loop
      vertex 34.1776 31.0073 1
      vertex 34.5623 30.5801 1
      vertex 34.5623 30.5801 2
    endloop
  endfacet
  facet normal -0.743145 -0.669131 0
    outer loop
      vertex 34.1776 31.0073 1
      vertex 34.5623 30.5801 2
      vertex 32.0444 33.3766 2
    endloop
  endfacet
  facet normal -0.743145 -0.669131 0
    outer loop
      vertex 34.1776 31.0073 1
      vertex 32.0444 33.3766 2
      vertex 34.1776 31.0073 0
    endloop
  endfacet
  facet normal -0.743145 -0.669131 0
    outer loop
      vertex 32.0444 33.3766 2
      vertex 32.0444 33.3766 0
      vertex 34.1776 31.0073 0
    endloop
  endfacet
  facet normal -0.809017 0.587785 0
    outer loop
      vertex 26 19.7518 0
      vertex 26 19.7518 1
      vertex 34.1776 31.0073 0
    endloop
  endfacet
  facet normal -0.809017 0.587785 0
    outer loop
      vertex 34.1776 31.0073 0
      vertex 26 19.7518 1
      vertex 34.1776 31.0073 1
    endloop
  endfacet
  facet normal 0.92388 -0.382683 0
    outer loop
      vertex 34.3737 5.62635 0
      vertex 34.3737 5.62635 2
      vertex 33.7 4 2
    endloop
  endfacet
  facet normal 0.92388 -0.382683 0
    outer loop
      vertex 33.7 4 0
      vertex 34.3737 5.62635 0
      vertex 33.7 4 2
    endloop
  endfacet
  facet normal 0.92388 0.382683 0
    outer loop
      vertex 33.7 4 2
      vertex 34.3737 2.37365 2
      vertex 34.3737 2.37365 0
    endloop
  endfacet
  facet normal 0.92388 0.382683 0
    outer loop
      vertex 33.7 4 0
      vertex 33.7 4 2
      vertex 34.3737 2.37365 0
    endloop
  endfacet
  facet normal 0.382683 -0.92388 0
    outer loop
      vertex 36 6.3 0
      vertex 36 6.3 2
      vertex 34.3737 5.62635 2
    endloop
  endfacet
  facet normal 0.382683 -0.92388 0
    outer loop
      vertex 34.3737 5.62635 0
      vertex 36 6.3 0
      vertex 34.3737 5.62635 2
    endloop
  endfacet
  facet normal -0.382683 -0.92388 0
    outer loop
      vertex 37.6263 5.62635 0
      vertex 37.6263 5.62635 2
      vertex 36 6.3 2
    endloop
  endfacet
  facet normal -0.382683 -0.92388 0
    outer loop
      vertex 36 6.3 0
      vertex 37.6263 5.62635 0
      vertex 36 6.3 2
    endloop
  endfacet
  facet normal -0.92388 -0.382683 0
    outer loop
      vertex 38.3 4 2
      vertex 37.6263 5.62635 2
      vertex 38.3 4 0
    endloop
  endfacet
  facet normal -0.92388 -0.382683 0
    outer loop
      vertex 38.3 4 0
      vertex 37.6263 5.62635 2
      vertex 37.6263 5.62635 0
    endloop
  endfacet
  facet normal -0.92388 0.382683 0
    outer loop
      vertex 38.3 4 2
      vertex 38.3 4 0
      vertex 37.6263 2.37365 2
    endloop
  endfacet
  facet normal -0.92388 0.382683 0
    outer loop
      vertex 37.6263 2.37365 2
      vertex 38.3 4 0
      vertex 37.6263 2.37365 0
    endloop
  endfacet
  facet normal -0.382683 0.92388 0
    outer loop
      vertex 37.6263 2.37365 2
      vertex 37.6263 2.37365 0
      vertex 36 1.7 2
    endloop
  endfacet
  facet normal -0.382683 0.92388 0
    outer loop
      vertex 36 1.7 2
      vertex 37.6263 2.37365 0
      vertex 36 1.7 0
    endloop
  endfacet
  facet normal 0.382683 0.92388 0
    outer loop
      vertex 36 1.7 2
      vertex 36 1.7 0
      vertex 34.3737 2.37365 2
    endloop
  endfacet
  facet normal 0.382683 0.92388 0
    outer loop
      vertex 34.3737 2.37365 2
      vertex 36 1.7 0
      vertex 34.3737 2.37365 0
    endloop
  endfacet
  facet normal 0.92388 -0.382683 0
    outer loop
      vertex 34.3737 37.6263 0
      vertex 34.3737 37.6263 2
      vertex 33.7 36 2
    endloop
  endfacet
  facet normal 0.92388 -0.382683 0
    outer loop
      vertex 33.7 36 0
      vertex 34.3737 37.6263 0
      vertex 33.7 36 2
    endloop
  endfacet
  facet normal 0.92388 0.382683 0
    outer loop
      vertex 33.7 36 2
      vertex 34.3737 34.3737 2
      vertex 34.3737 34.3737 0
    endloop
  endfacet
  facet normal 0.92388 0.382683 0
    outer loop
      vertex 33.7 36 0
      vertex 33.7 36 2
      vertex 34.3737 34.3737 0
    endloop
  endfacet
  facet normal 0.382683 -0.92388 0
    outer loop
      vertex 36 38.3 0
      vertex 36 38.3 2
      vertex 34.3737 37.6263 2
    endloop
  endfacet
  facet normal 0.382683 -0.92388 0
    outer loop
      vertex 34.3737 37.6263 0
      vertex 36 38.3 0
      vertex 34.3737 37.6263 2
    endloop
  endfacet
  facet normal -0.382683 -0.92388 0
    outer loop
      vertex 37.6263 37.6263 0
      vertex 37.6263 37.6263 2
      vertex 36 38.3 2
    endloop
  endfacet
  facet normal -0.382683 -0.92388 0
    outer loop
      vertex 36 38.3 0
      vertex 37.6263 37.6263 0
      vertex 36 38.3 2
    endloop
  endfacet
  facet normal -0.92388 -0.382683 0
    outer loop
      vertex 38.3 36 2
      vertex 37.6263 37.6263 2
      vertex 38.3 36 0
    endloop
  endfacet
  facet normal -0.92388 -0.382683 0
    outer loop
      vertex 38.3 36 0
      vertex 37.6263 37.6263 2
      vertex 37.6263 37.6263 0
    endloop
  endfacet
  facet normal -0.92388 0.382683 0
    outer loop
      vertex 38.3 36 2
      vertex 38.3 36 0
      vertex 37.6263 34.3737 2
    endloop
  endfacet
  facet normal -0.92388 0.382683 0
    outer loop
      vertex 37.6263 34.3737 2
      vertex 38.3 36 0
      vertex 37.6263 34.3737 0
    endloop
  endfacet
  facet normal -0.382683 0.92388 0
    outer loop
      vertex 37.6263 34.3737 2
      vertex 37.6263 34.3737 0
      vertex 36 33.7 2
    endloop
  endfacet
  facet normal -0.382683 0.92388 0
    outer loop
      vertex 36 33.7 2
      vertex 37.6263 34.3737 0
      vertex 36 33.7 0
    endloop
  endfacet
  facet normal 0.382683 0.92388 0
    outer loop
      vertex 36 33.7 2
      vertex 36 33.7 0
      vertex 34.3737 34.3737 2
    endloop
  endfacet
  facet normal 0.382683 0.92388 0
    outer loop
      vertex 34.3737 34.3737 2
      vertex 36 33.7 0
      vertex 34.3737 34.3737 0
    endloop
  endfacet
  facet normal 0 0 1
    outer loop
      vertex 2.05008 20.4765 1
      vertex 2 20 1
      vertex 2.06009 19.4283 1
    endloop
  endfacet
  facet normal 0 0 1
    outer loop
      vertex 19.9615 25.2698 1
      vertex 2.05008 20.4765 1
      vertex 15.2918 23.7275 1
    endloop
  endfacet
  facet normal 0 0 1
    outer loop
      vertex 15.2918 23.7275 1
      vertex 2.05008 20.4765 1
      vertex 2.06009 19.4283 1
    endloop
  endfacet
  facet normal 0 0 1
    outer loop
      vertex 5.43769 9.41986 1
      vertex 15.2918 23.7275 1
      vertex 5.19814 9.83479 1
    endloop
  endfacet
  facet normal 0 0 1
    outer loop
      vertex 5.82236 8.99265 1
      vertex 15.2918 23.7275 1
      vertex 5.43769 9.41986 1
    endloop
  endfacet
  facet normal 0 0 1
    outer loop
      vertex 14 20.2482 1
      vertex 15.2918 23.7275 1
      vertex 5.82236 8.99265 1
    endloop
  endfacet
  facet normal 0 0 1
    outer loop
      vertex 14.9762 21.5918 1
      vertex 15.2918 23.7275 1
      vertex 14 20.2482 1
    endloop
  endfacet
  facet normal 0 0 1
    outer loop
      vertex 25 21.6651 1
      vertex 25 18.4082 1
      vertex 26 19.7518 1
    endloop
  endfacet
  facet normal 0 0 1
    outer loop
      vertex 17.9098 14.3704 1
      vertex 21.618 14.217 1
      vertex 20.0385 14.7302 1
    endloop
  endfacet
  facet normal 0 0 1
    outer loop
      vertex 14.4377 2.88098 1
      vertex 15 16.6741 1
      vertex 14 3.07586 1
    endloop
  endfacet
  facet normal 0 0 1
    outer loop
      vertex 20.0385 14.7302 1
      vertex 21.618 14.217 1
      vertex 20.0311 14.7528 1
    endloop
  endfacet
  facet normal 0 0 1
    outer loop
      vertex 34.8497 9.91772 1
      vertex 21.618 14.217 1
      vertex 34.2417 9.06381 1
    endloop
  endfacet
  facet normal 0 0 1
    outer loop
      vertex 23.1287 15.7593 1
      vertex 20.0311 14.7528 1
      vertex 21.618 14.217 1
    endloop
  endfacet
  facet normal 0 0 1
    outer loop
      vertex 24.7082 16.2725 1
      vertex 26 19.7518 1
      vertex 25.0238 18.4082 1
    endloop
  endfacet
  facet normal 0 0 1
    outer loop
      vertex 19.9615 25.2698 1
      vertex 18.382 25.783 1
      vertex 2.05008 20.4765 1
    endloop
  endfacet
  facet normal 0 0 1
    outer loop
      vertex 37.9399 20.5717 1
      vertex 37.9499 19.5235 1
      vertex 38 20 1
    endloop
  endfacet
  facet normal 0 0 1
    outer loop
      vertex 24.7082 16.2725 1
      vertex 34.8019 30.1652 1
      vertex 26 19.7518 1
    endloop
  endfacet
  facet normal 0 0 1
    outer loop
      vertex 22.0902 25.6296 1
      vertex 18.382 25.783 1
      vertex 19.9615 25.2698 1
    endloop
  endfacet
  facet normal 0 0 1
    outer loop
      vertex 16.8713 24.2407 1
      vertex 19.9615 25.2698 1
      vertex 15.2918 23.7275 1
    endloop
  endfacet
  facet normal 0 0 1
    outer loop
      vertex 20.0385 14.7302 1
      vertex 16.941 15.7366 1
      vertex 17.9098 14.3704 1
    endloop
  endfacet
  facet normal 0 0 1
    outer loop
      vertex 5.15026 30.0823 1
      vertex 18.382 25.783 1
      vertex 5.75828 30.9362 1
    endloop
  endfacet
  facet normal 0 0 1
    outer loop
      vertex 25.0238 18.4082 1
      vertex 23.1094 15.7732 1
      vertex 24.7082 16.2725 1
    endloop
  endfacet
  facet normal 0 0 1
    outer loop
      vertex 25 23.3259 1
      vertex 14.9063 37.2186 1
      vertex 22.0902 25.6296 1
    endloop
  endfacet
  facet normal 0 0 1
    outer loop
      vertex 5.15026 30.0823 1
      vertex 5.75828 30.9362 1
      vertex 5.43769 30.5801 1
    endloop
  endfacet
  facet normal 0 0 1
    outer loop
      vertex 19.9615 25.2698 1
      vertex 23.059 24.2634 1
      vertex 22.0902 25.6296 1
    endloop
  endfacet
  facet normal 0 0 1
    outer loop
      vertex 22.0902 25.6296 1
      vertex 5.75828 30.9362 1
      vertex 18.382 25.783 1
    endloop
  endfacet
  facet normal 0 0 1
    outer loop
      vertex 15 18.3349 1
      vertex 15 21.5918 1
      vertex 14 3.07586 1
    endloop
  endfacet
  facet normal 0 0 1
    outer loop
      vertex 13.9125 36.8852 1
      vertex 14.9063 37.2186 1
      vertex 14.4377 37.119 1
    endloop
  endfacet
  facet normal 0 0 1
    outer loop
      vertex 14 3.07586 1
      vertex 15 21.5918 1
      vertex 14 20.2482 1
    endloop
  endfacet
  facet normal 0 0 1
    outer loop
      vertex 15 21.5918 1
      vertex 14.9762 21.5918 1
      vertex 14 20.2482 1
    endloop
  endfacet
  facet normal 0 0 1
    outer loop
      vertex 16.8713 24.2407 1
      vertex 15.2918 23.7275 1
      vertex 16.8906 24.2268 1
    endloop
  endfacet
  facet normal 0 0 1
    outer loop
      vertex 26 19.7518 1
      vertex 26 36.9241 1
      vertex 25 23.3259 1
    endloop
  endfacet
  facet normal 0 0 1
    outer loop
      vertex 22.0902 25.6296 1
      vertex 23.0664 24.286 1
      vertex 25 23.3259 1
    endloop
  endfacet
  facet normal 0 0 1
    outer loop
      vertex 22.0902 25.6296 1
      vertex 23.059 24.2634 1
      vertex 23.0664 24.286 1
    endloop
  endfacet
  facet normal 0 0 1
    outer loop
      vertex 23.0664 24.286 1
      vertex 24.9808 21.6511 1
      vertex 25 21.6651 1
    endloop
  endfacet
  facet normal 0 0 1
    outer loop
      vertex 26 19.7518 1
      vertex 25 23.3259 1
      vertex 25 21.6651 1
    endloop
  endfacet
  facet normal 0 0 1
    outer loop
      vertex 23.0664 24.286 1
      vertex 25 21.6651 1
      vertex 25 23.3259 1
    endloop
  endfacet
  facet normal 0 0 1
    outer loop
      vertex 19.9689 25.2472 1
      vertex 19.9615 25.2698 1
      vertex 16.8713 24.2407 1
    endloop
  endfacet
  facet normal 0 0 1
    outer loop
      vertex 26 19.7518 1
      vertex 25 18.4082 1
      vertex 25.0238 18.4082 1
    endloop
  endfacet
  facet normal 0 0 1
    outer loop
      vertex 24.7082 16.2725 1
      vertex 23.1287 15.7593 1
      vertex 21.618 14.217 1
    endloop
  endfacet
  facet normal 0 0 1
    outer loop
      vertex 24.7082 16.2725 1
      vertex 23.1094 15.7732 1
      vertex 23.1287 15.7593 1
    endloop
  endfacet
  facet normal 0 0 1
    outer loop
      vertex 37.9399 20.5717 1
      vertex 24.7082 16.2725 1
      vertex 37.9499 19.5235 1
    endloop
  endfacet
  facet normal 0 0 1
    outer loop
      vertex 34.8497 9.91772 1
      vertex 34.2417 9.06381 1
      vertex 34.5623 9.41986 1
    endloop
  endfacet
  facet normal 0 0 1
    outer loop
      vertex 26.0875 3.1148 1
      vertex 25.0937 2.78137 1
      vertex 25.5623 2.88098 1
    endloop
  endfacet
  facet normal 0 0 1
    outer loop
      vertex 26.0875 3.1148 1
      vertex 17.9098 14.3704 1
      vertex 25.0937 2.78137 1
    endloop
  endfacet
  facet normal 0 0 1
    outer loop
      vertex 15 16.6741 1
      vertex 15.0192 18.3489 1
      vertex 14 3.07586 1
    endloop
  endfacet
  facet normal 0 0 1
    outer loop
      vertex 15.0192 18.3489 1
      vertex 15 18.3349 1
      vertex 14 3.07586 1
    endloop
  endfacet
  facet normal 0 0 1
    outer loop
      vertex 17.9098 14.3704 1
      vertex 34.2417 9.06381 1
      vertex 21.618 14.217 1
    endloop
  endfacet
  facet normal 0 0 1
    outer loop
      vertex 15 2.76146 1
      vertex 15 16.6741 1
      vertex 14.4377 2.88098 1
    endloop
  endfacet
  facet normal 0 0 1
    outer loop
      vertex 16.9336 15.714 1
      vertex 17.9098 14.3704 1
      vertex 16.941 15.7366 1
    endloop
  endfacet
  facet normal 0 0 1
    outer loop
      vertex 15 16.6741 1
      vertex 17.9098 14.3704 1
      vertex 16.9336 15.714 1
    endloop
  endfacet
  facet normal 0 0 1
    outer loop
      vertex 15 16.6741 1
      vertex 25.0937 2.78137 1
      vertex 17.9098 14.3704 1
    endloop
  endfacet
  facet normal 0 0 1
    outer loop
      vertex 21.618 14.217 1
      vertex 37.9499 19.5235 1
      vertex 24.7082 16.2725 1
    endloop
  endfacet
  facet normal 0 0 1
    outer loop
      vertex 13.9125 36.8852 1
      vertex 22.0902 25.6296 1
      vertex 14.9063 37.2186 1
    endloop
  endfacet
  facet normal 0 0 1
    outer loop
      vertex 25 37.2385 1
      vertex 26 36.9241 1
      vertex 25.5623 37.119 1
    endloop
  endfacet
  facet normal 0 0 1
    outer loop
      vertex 25 37.2385 1
      vertex 25 23.3259 1
      vertex 26 36.9241 1
    endloop
  endfacet
  facet normal 0 0 1
    outer loop
      vertex 34.1776 31.0073 1
      vertex 34.8019 30.1652 1
      vertex 34.5623 30.5801 1
    endloop
  endfacet
  facet normal 0 0 1
    outer loop
      vertex 34.1776 31.0073 1
      vertex 26 19.7518 1
      vertex 34.8019 30.1652 1
    endloop
  endfacet
  facet normal 0 0 1
    outer loop
      vertex 16.9336 15.714 1
      vertex 15.0192 18.3489 1
      vertex 15 16.6741 1
    endloop
  endfacet
  facet normal 0 0 1
    outer loop
      vertex 14.9762 21.5918 1
      vertex 16.8906 24.2268 1
      vertex 15.2918 23.7275 1
    endloop
  endfacet
endsolid OpenSCAD_Model
