solid Halloween Best Costume
facet normal 0.0 0.0 -1.0
outer loop
vertex 891.207775209515 44.4282175271785 0.0
vertex 899.368731172155 36.2672615645387 0.0
vertex 891.207775209515 15.4332681610618 0.0
endloop
endfacet
facet normal 0.0 0.0 -1.0
outer loop
vertex 899.368731172155 36.2672615645387 0.0
vertex 891.207775209515 44.4282175271785 0.0
vertex 961.207775209515 44.4282175271785 0.0
endloop
endfacet
facet normal 0.0 0.0 -1.0
outer loop
vertex 891.207775209515 15.4332681610618 0.0
vertex 899.368731172155 36.2672615645387 0.0
vertex 891.207775209515 -105.81028836876 0.0
endloop
endfacet
facet normal 0.0 0.0 -1.0
outer loop
vertex 899.368731172155 36.2672615645387 0.0
vertex 961.207775209515 44.4282175271785 0.0
vertex 953.046819246876 36.2672615645387 0.0
endloop
endfacet
facet normal 0.0 0.0 -1.0
outer loop
vertex 953.046819246876 36.2672615645387 0.0
vertex 961.207775209515 44.4282175271785 0.0
vertex 953.046819246876 23.5942241237016 0.0
endloop
endfacet
facet normal 0.0 0.0 -1.0
outer loop
vertex 891.207775209515 -105.81028836876 0.0
vertex 899.368731172155 23.5942241237016 0.0
vertex 908.090442052339 -112.803317944084 0.0
endloop
endfacet
facet normal 0.0 0.0 -1.0
outer loop
vertex 899.368731172155 23.5942241237016 0.0
vertex 891.207775209515 -105.81028836876 0.0
vertex 899.368731172155 36.2672615645387 0.0
endloop
endfacet
facet normal 0.0 0.0 -1.0
outer loop
vertex 908.090442052339 -112.803317944084 0.0
vertex 899.368731172155 23.5942241237016 0.0
vertex 953.046819246876 23.5942241237016 0.0
endloop
endfacet
facet normal 0.0 0.0 -1.0
outer loop
vertex 908.090442052339 -112.803317944084 0.0
vertex 953.046819246876 23.5942241237016 0.0
vertex 926.207775209515 -115.188510103849 0.0
endloop
endfacet
facet normal 0.0 0.0 -1.0
outer loop
vertex 926.207775209515 -115.188510103849 0.0
vertex 953.046819246876 23.5942241237016 0.0
vertex 944.325108366692 -112.803317944084 0.0
endloop
endfacet
facet normal 0.0 0.0 -1.0
outer loop
vertex 944.325108366692 -112.803317944084 0.0
vertex 953.046819246876 23.5942241237016 0.0
vertex 961.207775209515 -105.81028836876 0.0
endloop
endfacet
facet normal 0.0 0.0 -1.0
outer loop
vertex 961.207775209515 -105.81028836876 0.0
vertex 953.046819246876 23.5942241237016 0.0
vertex 961.207775209515 44.4282175271785 0.0
endloop
endfacet
facet normal 0.0 0.0 -1.0
outer loop
vertex 961.207775209515 -105.81028836876 0.0
vertex 961.207775209515 44.4282175271785 0.0
vertex 961.207775209515 15.4332681610618 0.0
endloop
endfacet
facet normal 0.0 0.0 -1.0
outer loop
vertex 961.207775209515 -105.81028836876 0.0
vertex 961.207775209515 15.4332681610618 0.0
vertex 975.705249892574 4.3089645792094 0.0
endloop
endfacet
facet normal 0.0 0.0 -1.0
outer loop
vertex 961.207775209515 -105.81028836876 0.0
vertex 975.705249892574 4.3089645792094 0.0
vertex 975.705249892574 -94.6859847869073 0.0
endloop
endfacet
facet normal 0.0 0.0 -1.0
outer loop
vertex 975.705249892574 -94.6859847869073 0.0
vertex 975.705249892574 4.3089645792094 0.0
vertex 986.829553474426 -10.188510103849 0.0
endloop
endfacet
facet normal 0.0 0.0 -1.0
outer loop
vertex 975.705249892574 -94.6859847869073 0.0
vertex 986.829553474426 -10.188510103849 0.0
vertex 986.829553474426 -80.1885101038489 0.0
endloop
endfacet
facet normal 0.0 0.0 -1.0
outer loop
vertex 986.829553474426 -80.1885101038489 0.0
vertex 986.829553474426 -10.188510103849 0.0
vertex 993.82258304975 -63.3058432610254 0.0
endloop
endfacet
facet normal 0.0 0.0 -1.0
outer loop
vertex 993.82258304975 -63.3058432610254 0.0
vertex 986.829553474426 -10.188510103849 0.0
vertex 993.82258304975 -27.0711769466725 0.0
endloop
endfacet
facet normal 0.0 0.0 -1.0
outer loop
vertex 993.82258304975 -63.3058432610254 0.0
vertex 993.82258304975 -27.0711769466725 0.0
vertex 996.207775209515 -45.1885101038489 0.0
endloop
endfacet
facet normal 0.0 0.0 -1.0
outer loop
vertex 858.592967369281 -27.0711769466724 0.0
vertex 858.592967369281 -63.3058432610254 0.0
vertex 856.207775209515 -45.1885101038489 0.0
endloop
endfacet
facet normal 0.0 0.0 -1.0
outer loop
vertex 858.592967369281 -63.3058432610254 0.0
vertex 858.592967369281 -27.0711769466724 0.0
vertex 865.585996944605 -10.1885101038489 0.0
endloop
endfacet
facet normal 0.0 0.0 -1.0
outer loop
vertex 858.592967369281 -63.3058432610254 0.0
vertex 865.585996944605 -10.1885101038489 0.0
vertex 865.585996944605 -80.1885101038489 0.0
endloop
endfacet
facet normal 0.0 0.0 -1.0
outer loop
vertex 865.585996944605 -80.1885101038489 0.0
vertex 865.585996944605 -10.1885101038489 0.0
vertex 876.710300526457 -94.6859847869072 0.0
endloop
endfacet
facet normal 0.0 0.0 -1.0
outer loop
vertex 876.710300526457 -94.6859847869072 0.0
vertex 865.585996944605 -10.1885101038489 0.0
vertex 876.710300526457 4.30896457920941 0.0
endloop
endfacet
facet normal 0.0 0.0 -1.0
outer loop
vertex 876.710300526457 -94.6859847869072 0.0
vertex 876.710300526457 4.30896457920941 0.0
vertex 891.207775209515 15.4332681610618 0.0
endloop
endfacet
facet normal 0.0 0.0 -1.0
outer loop
vertex 876.710300526457 -94.6859847869072 0.0
vertex 891.207775209515 15.4332681610618 0.0
vertex 891.207775209515 -105.81028836876 0.0
endloop
endfacet
facet normal -0.707106781186549 0.707106781186546 0.0
outer loop
vertex 876.710300526457 4.30896457920941 5.0
vertex 891.207775209515 15.4332681610618 0.0
vertex 876.710300526457 4.30896457920941 0.0
endloop
endfacet
facet normal -0.608761429008719 0.793353340291236 0.0
outer loop
vertex 891.207775209515 15.4332681610618 0.0
vertex 876.710300526457 4.30896457920941 5.0
vertex 891.207775209515 15.4332681610618 5.0
endloop
endfacet
facet normal 1.0 0.0 0.0
outer loop
vertex 961.207775209515 44.4282175271785 0.0
vertex 961.207775209515 15.4332681610618 5.0
vertex 961.207775209515 15.4332681610618 0.0
endloop
endfacet
facet normal 1.0 0.0 0.0
outer loop
vertex 961.207775209515 15.4332681610618 5.0
vertex 961.207775209515 44.4282175271785 0.0
vertex 961.207775209515 44.4282175271785 5.0
endloop
endfacet
facet normal 0.608761429008719 0.793353340291236 0.0
outer loop
vertex 961.207775209515 15.4332681610618 5.0
vertex 975.705249892574 4.3089645792094 0.0
vertex 961.207775209515 15.4332681610618 0.0
endloop
endfacet
facet normal 0.707106781186546 0.707106781186549 0.0
outer loop
vertex 975.705249892574 4.3089645792094 0.0
vertex 961.207775209515 15.4332681610618 5.0
vertex 975.705249892574 4.3089645792094 5.0
endloop
endfacet
facet normal 0.707106781186546 0.707106781186549 0.0
outer loop
vertex 975.705249892574 4.3089645792094 0.0
vertex 986.829553474426 -10.188510103849 5.0
vertex 986.829553474426 -10.188510103849 0.0
endloop
endfacet
facet normal 0.866025403784438 0.5 0.0
outer loop
vertex 986.829553474426 -10.188510103849 5.0
vertex 975.705249892574 4.3089645792094 0.0
vertex 975.705249892574 4.3089645792094 5.0
endloop
endfacet
facet normal 0.866025403784438 0.5 0.0
outer loop
vertex 986.829553474426 -10.188510103849 0.0
vertex 993.82258304975 -27.0711769466725 5.0
vertex 993.82258304975 -27.0711769466725 0.0
endloop
endfacet
facet normal 0.965925826289069 0.258819045102518 0.0
outer loop
vertex 993.82258304975 -27.0711769466725 5.0
vertex 986.829553474426 -10.188510103849 0.0
vertex 986.829553474426 -10.188510103849 5.0
endloop
endfacet
facet normal 0.965925826289069 0.258819045102518 0.0
outer loop
vertex 993.82258304975 -27.0711769466725 0.0
vertex 996.207775209515 -45.1885101038489 5.0
vertex 996.207775209515 -45.1885101038489 0.0
endloop
endfacet
facet normal 1.0 2.13866637495526e-16 0.0
outer loop
vertex 996.207775209515 -45.1885101038489 5.0
vertex 993.82258304975 -27.0711769466725 0.0
vertex 993.82258304975 -27.0711769466725 5.0
endloop
endfacet
facet normal 1.0 2.13866637495526e-16 0.0
outer loop
vertex 996.207775209515 -45.1885101038489 0.0
vertex 993.82258304975 -63.3058432610254 5.0
vertex 993.82258304975 -63.3058432610254 0.0
endloop
endfacet
facet normal 0.965925826289068 -0.258819045102522 0.0
outer loop
vertex 993.82258304975 -63.3058432610254 5.0
vertex 996.207775209515 -45.1885101038489 0.0
vertex 996.207775209515 -45.1885101038489 5.0
endloop
endfacet
facet normal 0.965925826289068 -0.258819045102522 0.0
outer loop
vertex 993.82258304975 -63.3058432610254 0.0
vertex 986.829553474426 -80.1885101038489 5.0
vertex 986.829553474426 -80.1885101038489 0.0
endloop
endfacet
facet normal 0.866025403784438 -0.500000000000001 0.0
outer loop
vertex 986.829553474426 -80.1885101038489 5.0
vertex 993.82258304975 -63.3058432610254 0.0
vertex 993.82258304975 -63.3058432610254 5.0
endloop
endfacet
facet normal 0.866025403784438 -0.500000000000001 0.0
outer loop
vertex 986.829553474426 -80.1885101038489 0.0
vertex 975.705249892574 -94.6859847869073 5.0
vertex 975.705249892574 -94.6859847869073 0.0
endloop
endfacet
facet normal 0.707106781186548 -0.707106781186547 0.0
outer loop
vertex 975.705249892574 -94.6859847869073 5.0
vertex 986.829553474426 -80.1885101038489 0.0
vertex 986.829553474426 -80.1885101038489 5.0
endloop
endfacet
facet normal 0.707106781186548 -0.707106781186547 0.0
outer loop
vertex 975.705249892574 -94.6859847869073 5.0
vertex 961.207775209515 -105.81028836876 0.0
vertex 975.705249892574 -94.6859847869073 0.0
endloop
endfacet
facet normal 0.5 -0.866025403784439 0.0
outer loop
vertex 961.207775209515 -105.81028836876 0.0
vertex 975.705249892574 -94.6859847869073 5.0
vertex 961.207775209515 -105.81028836876 5.0
endloop
endfacet
facet normal 0.5 -0.866025403784439 0.0
outer loop
vertex 961.207775209515 -105.81028836876 5.0
vertex 944.325108366692 -112.803317944084 0.0
vertex 961.207775209515 -105.81028836876 0.0
endloop
endfacet
facet normal 0.258819045102521 -0.965925826289068 0.0
outer loop
vertex 944.325108366692 -112.803317944084 0.0
vertex 961.207775209515 -105.81028836876 5.0
vertex 944.325108366692 -112.803317944084 5.0
endloop
endfacet
facet normal 0.258819045102521 -0.965925826289068 0.0
outer loop
vertex 944.325108366692 -112.803317944084 5.0
vertex 926.207775209515 -115.188510103849 0.0
vertex 944.325108366692 -112.803317944084 0.0
endloop
endfacet
facet normal -6.3268880259093e-16 -1.0 0.0
outer loop
vertex 926.207775209515 -115.188510103849 0.0
vertex 944.325108366692 -112.803317944084 5.0
vertex 926.207775209515 -115.188510103849 5.0
endloop
endfacet
facet normal -6.3268880259093e-16 -1.0 0.0
outer loop
vertex 926.207775209515 -115.188510103849 5.0
vertex 908.090442052339 -112.803317944084 0.0
vertex 926.207775209515 -115.188510103849 0.0
endloop
endfacet
facet normal -0.258819045102522 -0.965925826289068 0.0
outer loop
vertex 908.090442052339 -112.803317944084 0.0
vertex 926.207775209515 -115.188510103849 5.0
vertex 908.090442052339 -112.803317944084 5.0
endloop
endfacet
facet normal -0.258819045102522 -0.965925826289068 0.0
outer loop
vertex 908.090442052339 -112.803317944084 5.0
vertex 891.207775209515 -105.81028836876 0.0
vertex 908.090442052339 -112.803317944084 0.0
endloop
endfacet
facet normal -0.5 -0.866025403784439 0.0
outer loop
vertex 891.207775209515 -105.81028836876 0.0
vertex 908.090442052339 -112.803317944084 5.0
vertex 891.207775209515 -105.81028836876 5.0
endloop
endfacet
facet normal -0.5 -0.866025403784439 0.0
outer loop
vertex 891.207775209515 -105.81028836876 5.0
vertex 876.710300526457 -94.6859847869072 0.0
vertex 891.207775209515 -105.81028836876 0.0
endloop
endfacet
facet normal -0.707106781186546 -0.707106781186549 0.0
outer loop
vertex 876.710300526457 -94.6859847869072 0.0
vertex 891.207775209515 -105.81028836876 5.0
vertex 876.710300526457 -94.6859847869072 5.0
endloop
endfacet
facet normal -0.866025403784438 -0.5 0.0
outer loop
vertex 865.585996944605 -80.1885101038489 5.0
vertex 876.710300526457 -94.6859847869072 0.0
vertex 876.710300526457 -94.6859847869072 5.0
endloop
endfacet
facet normal -0.707106781186546 -0.707106781186549 0.0
outer loop
vertex 876.710300526457 -94.6859847869072 0.0
vertex 865.585996944605 -80.1885101038489 5.0
vertex 865.585996944605 -80.1885101038489 0.0
endloop
endfacet
facet normal -0.965925826289069 -0.258819045102518 0.0
outer loop
vertex 858.592967369281 -63.3058432610254 5.0
vertex 865.585996944605 -80.1885101038489 0.0
vertex 865.585996944605 -80.1885101038489 5.0
endloop
endfacet
facet normal -0.866025403784438 -0.5 0.0
outer loop
vertex 865.585996944605 -80.1885101038489 0.0
vertex 858.592967369281 -63.3058432610254 5.0
vertex 858.592967369281 -63.3058432610254 0.0
endloop
endfacet
facet normal -1.0 -4.45555494782345e-17 0.0
outer loop
vertex 856.207775209515 -45.1885101038489 5.0
vertex 858.592967369281 -63.3058432610254 0.0
vertex 858.592967369281 -63.3058432610254 5.0
endloop
endfacet
facet normal -0.965925826289069 -0.258819045102518 0.0
outer loop
vertex 858.592967369281 -63.3058432610254 0.0
vertex 856.207775209515 -45.1885101038489 5.0
vertex 856.207775209515 -45.1885101038489 0.0
endloop
endfacet
facet normal -0.965925826289068 0.258819045102522 0.0
outer loop
vertex 858.592967369281 -27.0711769466724 5.0
vertex 856.207775209515 -45.1885101038489 0.0
vertex 856.207775209515 -45.1885101038489 5.0
endloop
endfacet
facet normal -1.0 -4.45555494782345e-17 0.0
outer loop
vertex 856.207775209515 -45.1885101038489 0.0
vertex 858.592967369281 -27.0711769466724 5.0
vertex 858.592967369281 -27.0711769466724 0.0
endloop
endfacet
facet normal -0.866025403784438 0.500000000000001 0.0
outer loop
vertex 865.585996944605 -10.1885101038489 5.0
vertex 858.592967369281 -27.0711769466724 0.0
vertex 858.592967369281 -27.0711769466724 5.0
endloop
endfacet
facet normal -0.965925826289068 0.258819045102522 0.0
outer loop
vertex 858.592967369281 -27.0711769466724 0.0
vertex 865.585996944605 -10.1885101038489 5.0
vertex 865.585996944605 -10.1885101038489 0.0
endloop
endfacet
facet normal -0.707106781186549 0.707106781186546 0.0
outer loop
vertex 876.710300526457 4.30896457920941 5.0
vertex 865.585996944605 -10.1885101038489 0.0
vertex 865.585996944605 -10.1885101038489 5.0
endloop
endfacet
facet normal -0.866025403784438 0.500000000000001 0.0
outer loop
vertex 865.585996944605 -10.1885101038489 0.0
vertex 876.710300526457 4.30896457920941 5.0
vertex 876.710300526457 4.30896457920941 0.0
endloop
endfacet
facet normal 3.15208672703374e-16 1.0 -0.0
outer loop
vertex 899.368731172155 23.5942241237016 5.0
vertex 953.046819246876 23.5942241237016 0.0
vertex 899.368731172155 23.5942241237016 0.0
endloop
endfacet
facet normal 3.15208672703374e-16 1.0 -0.0
outer loop
vertex 953.046819246876 23.5942241237016 0.0
vertex 899.368731172155 23.5942241237016 5.0
vertex 953.046819246876 23.5942241237016 5.0
endloop
endfacet
facet normal -1.54129539221344e-49 5.84561482193734e-34 1.0
outer loop
vertex 865.031087147264 -57.4837464876667 4.0
vertex 867.0795910363 -25.248153126644 4.0
vertex 863.933390903187 -41.2311044805008 4.0
endloop
endfacet
facet normal -1.54129539221344e-49 5.84561482193734e-34 1.0
outer loop
vertex 867.0795910363 -25.248153126644 4.0
vertex 865.031087147264 -57.4837464876667 4.0
vertex 870.297873583526 -72.8984884541143 4.0
endloop
endfacet
facet normal -1.54129539221344e-49 5.84561482193734e-34 1.0
outer loop
vertex 867.0795910363 -25.248153126644 4.0
vertex 870.297873583526 -72.8984884541143 4.0
vertex 874.255279206874 -10.6241041477858 4.0
endloop
endfacet
facet normal -1.54129539221344e-49 5.84561482193734e-34 1.0
outer loop
vertex 874.255279206874 -10.6241041477858 4.0
vertex 870.297873583526 -72.8984884541143 4.0
vertex 879.374827420118 -86.4248411888957 4.0
endloop
endfacet
facet normal -1.54129539221344e-49 5.84561482193734e-34 1.0
outer loop
vertex 874.255279206874 -10.6241041477858 4.0
vertex 879.374827420118 -86.4248411888957 4.0
vertex 884.971444124469 1.6444376855483 4.0
endloop
endfacet
facet normal -1.54129539221344e-49 5.84561482193734e-34 1.0
outer loop
vertex 884.971444124469 1.6444376855483 4.0
vertex 879.374827420118 -86.4248411888957 4.0
vertex 891.643369253452 -97.1410061064903 4.0
endloop
endfacet
facet normal -1.54129539221344e-49 5.84561482193734e-34 1.0
outer loop
vertex 884.971444124469 1.6444376855483 4.0
vertex 891.643369253452 -97.1410061064903 4.0
vertex 898.49779685925 10.7213915221406 4.0
endloop
endfacet
facet normal -1.54129539221344e-49 5.84561482193734e-34 1.0
outer loop
vertex 898.49779685925 10.7213915221406 4.0
vertex 891.643369253452 -97.1410061064903 4.0
vertex 906.26741823231 -104.316694277064 4.0
endloop
endfacet
facet normal -1.54129539221344e-49 5.84561482193734e-34 1.0
outer loop
vertex 898.49779685925 10.7213915221406 4.0
vertex 906.26741823231 -104.316694277064 4.0
vertex 913.912538825698 15.9881779584027 4.0
endloop
endfacet
facet normal -1.54129539221344e-49 5.84561482193734e-34 1.0
outer loop
vertex 913.912538825698 15.9881779584027 4.0
vertex 906.26741823231 -104.316694277064 4.0
vertex 922.250369586167 -107.462894410177 4.0
endloop
endfacet
facet normal -1.54129539221344e-49 5.84561482193734e-34 1.0
outer loop
vertex 913.912538825698 15.9881779584027 4.0
vertex 922.250369586167 -107.462894410177 4.0
vertex 926.207775209515 16.8185927791195 4.0
endloop
endfacet
facet normal -1.54129539221344e-49 5.84561482193734e-34 1.0
outer loop
vertex 926.207775209515 16.8185927791195 4.0
vertex 922.250369586167 -107.462894410177 4.0
vertex 926.207775209515 -107.195612986817 4.0
endloop
endfacet
facet normal -1.54129539221344e-49 5.84561482193734e-34 1.0
outer loop
vertex 926.207775209515 16.8185927791195 4.0
vertex 926.207775209515 -107.195612986817 4.0
vertex 938.503011593333 -106.365198166101 4.0
endloop
endfacet
facet normal -1.54129539221344e-49 5.84561482193734e-34 1.0
outer loop
vertex 926.207775209515 16.8185927791195 4.0
vertex 938.503011593333 -106.365198166101 4.0
vertex 930.165180832863 17.0858742024796 4.0
endloop
endfacet
facet normal -1.54129539221344e-49 5.84561482193734e-34 1.0
outer loop
vertex 930.165180832863 17.0858742024796 4.0
vertex 938.503011593333 -106.365198166101 4.0
vertex 946.14813218672 13.9396740693661 4.0
endloop
endfacet
facet normal -1.54129539221344e-49 5.84561482193734e-34 1.0
outer loop
vertex 946.14813218672 13.9396740693661 4.0
vertex 938.503011593333 -106.365198166101 4.0
vertex 953.917753559781 -101.098411729838 4.0
endloop
endfacet
facet normal -1.54129539221344e-49 5.84561482193734e-34 1.0
outer loop
vertex 946.14813218672 13.9396740693661 4.0
vertex 953.917753559781 -101.098411729838 4.0
vertex 960.772181165579 6.76398589879247 4.0
endloop
endfacet
facet normal -1.54129539221344e-49 5.84561482193734e-34 1.0
outer loop
vertex 960.772181165579 6.76398589879247 4.0
vertex 953.917753559781 -101.098411729838 4.0
vertex 967.444106294562 -92.0214578932462 4.0
endloop
endfacet
facet normal -1.54129539221344e-49 5.84561482193734e-34 1.0
outer loop
vertex 960.772181165579 6.76398589879247 4.0
vertex 967.444106294562 -92.0214578932462 4.0
vertex 973.040722998913 -3.95217901880216 4.0
endloop
endfacet
facet normal -1.54129539221344e-49 5.84561482193734e-34 1.0
outer loop
vertex 973.040722998913 -3.95217901880216 4.0
vertex 967.444106294562 -92.0214578932462 4.0
vertex 978.160271212157 -79.752916059912 4.0
endloop
endfacet
facet normal -1.54129539221344e-49 5.84561482193734e-34 1.0
outer loop
vertex 973.040722998913 -3.95217901880216 4.0
vertex 978.160271212157 -79.752916059912 4.0
vertex 982.117676835505 -17.4785317535835 4.0
endloop
endfacet
facet normal -1.54129539221344e-49 5.84561482193734e-34 1.0
outer loop
vertex 982.117676835505 -17.4785317535835 4.0
vertex 978.160271212157 -79.752916059912 4.0
vertex 985.33595938273 -65.1288670810538 4.0
endloop
endfacet
facet normal -1.54129539221344e-49 5.84561482193734e-34 1.0
outer loop
vertex 982.117676835505 -17.4785317535835 4.0
vertex 985.33595938273 -65.1288670810538 4.0
vertex 987.384463271767 -32.8932737200311 4.0
endloop
endfacet
facet normal -1.54129539221344e-49 5.84561482193734e-34 1.0
outer loop
vertex 987.384463271767 -32.8932737200311 4.0
vertex 985.33595938273 -65.1288670810538 4.0
vertex 988.482159515844 -49.145915727197 4.0
endloop
endfacet
facet normal -1.0 0.0 0.0
outer loop
vertex 953.046819246876 36.2672615645387 5.0
vertex 953.046819246876 23.5942241237016 0.0
vertex 953.046819246876 23.5942241237016 5.0
endloop
endfacet
facet normal -1.0 0.0 0.0
outer loop
vertex 953.046819246876 23.5942241237016 0.0
vertex 953.046819246876 36.2672615645387 5.0
vertex 953.046819246876 36.2672615645387 0.0
endloop
endfacet
facet normal 0.0 -1.0 0.0
outer loop
vertex 953.046819246876 36.2672615645387 5.0
vertex 899.368731172155 36.2672615645387 0.0
vertex 953.046819246876 36.2672615645387 0.0
endloop
endfacet
facet normal 0.0 -1.0 0.0
outer loop
vertex 899.368731172155 36.2672615645387 0.0
vertex 953.046819246876 36.2672615645387 5.0
vertex 899.368731172155 36.2672615645387 5.0
endloop
endfacet
facet normal 1.0 -0.0 -0.0
outer loop
vertex 899.368731172155 36.2672615645387 0.0
vertex 899.368731172155 23.5942241237016 5.0
vertex 899.368731172155 23.5942241237016 0.0
endloop
endfacet
facet normal 1.0 -0.0 -0.0
outer loop
vertex 899.368731172155 23.5942241237016 5.0
vertex 899.368731172155 36.2672615645387 0.0
vertex 899.368731172155 36.2672615645387 5.0
endloop
endfacet
facet normal 0.0673860382486049 -0.997726977609184 1.82616165113642e-33
outer loop
vertex 926.207775209515 16.8185927791195 5.0
vertex 913.912538825698 15.9881779584027 4.0
vertex 926.207775209515 16.8185927791195 4.0
endloop
endfacet
facet normal 0.197039044612465 -0.980395642023263 1.34129851441829e-33
outer loop
vertex 913.912538825698 15.9881779584027 4.0
vertex 926.207775209515 16.8185927791195 5.0
vertex 913.912538825698 15.9881779584027 5.0
endloop
endfacet
facet normal -0.0634199619126302 -0.997986927986034 2.27977865569595e-33
outer loop
vertex 930.165180832863 17.0858742024796 5.0
vertex 926.207775209515 16.8185927791195 4.0
vertex 930.165180832863 17.0858742024796 4.0
endloop
endfacet
facet normal 0.0673860382486045 -0.997726977609184 1.82616165113642e-33
outer loop
vertex 926.207775209515 16.8185927791195 4.0
vertex 930.165180832863 17.0858742024796 5.0
vertex 926.207775209515 16.8185927791195 5.0
endloop
endfacet
facet normal -0.319557002839822 -0.947567054057933 3.06289564910029e-33
outer loop
vertex 946.14813218672 13.9396740693661 5.0
vertex 930.165180832863 17.0858742024796 4.0
vertex 946.14813218672 13.9396740693661 4.0
endloop
endfacet
facet normal -0.0634199619126302 -0.997986927986034 2.27977865569595e-33
outer loop
vertex 930.165180832863 17.0858742024796 4.0
vertex 946.14813218672 13.9396740693661 5.0
vertex 930.165180832863 17.0858742024796 5.0
endloop
endfacet
facet normal -0.553916762116395 -0.832572051324382 3.63728136569283e-33
outer loop
vertex 960.772181165579 6.76398589879247 5.0
vertex 946.14813218672 13.9396740693661 4.0
vertex 960.772181165579 6.76398589879247 4.0
endloop
endfacet
facet normal -0.319557002839822 -0.947567054057933 3.06289564910029e-33
outer loop
vertex 946.14813218672 13.9396740693661 4.0
vertex 960.772181165579 6.76398589879247 5.0
vertex 946.14813218672 13.9396740693661 5.0
endloop
endfacet
facet normal -0.750528009445468 -0.660838639183442 3.96379236810507e-33
outer loop
vertex 973.040722998913 -3.95217901880216 5.0
vertex 960.772181165579 6.76398589879247 4.0
vertex 973.040722998913 -3.95217901880216 4.0
endloop
endfacet
facet normal -0.553916762116395 -0.832572051324382 3.63728136569283e-33
outer loop
vertex 960.772181165579 6.76398589879247 4.0
vertex 973.040722998913 -3.95217901880216 5.0
vertex 960.772181165579 6.76398589879247 5.0
endloop
endfacet
facet normal -0.750528009445468 -0.660838639183442 3.96379236810507e-33
outer loop
vertex 973.040722998913 -3.95217901880216 5.0
vertex 982.117676835505 -17.4785317535835 4.0
vertex 982.117676835505 -17.4785317535835 5.0
endloop
endfacet
facet normal -0.895992013237012 -0.444070165869636 4.02017747110755e-33
outer loop
vertex 982.117676835505 -17.4785317535835 4.0
vertex 973.040722998913 -3.95217901880216 5.0
vertex 973.040722998913 -3.95217901880216 4.0
endloop
endfacet
facet normal -0.895992013237012 -0.444070165869636 4.02017747110755e-33
outer loop
vertex 982.117676835505 -17.4785317535835 5.0
vertex 987.384463271767 -32.8932737200311 4.0
vertex 987.384463271767 -32.8932737200311 5.0
endloop
endfacet
facet normal -0.980395642023264 -0.197039044612464 3.80259412311145e-33
outer loop
vertex 987.384463271767 -32.8932737200311 4.0
vertex 982.117676835505 -17.4785317535835 5.0
vertex 982.117676835505 -17.4785317535835 4.0
endloop
endfacet
facet normal -0.980395642023264 -0.197039044612464 3.80259412311145e-33
outer loop
vertex 987.384463271767 -32.8932737200311 5.0
vertex 988.482159515844 -49.145915727197 4.0
vertex 988.482159515844 -49.145915727197 5.0
endloop
endfacet
facet normal -0.997986927986034 0.0634199619126291 3.32587026970921e-33
outer loop
vertex 988.482159515844 -49.145915727197 4.0
vertex 987.384463271767 -32.8932737200311 5.0
vertex 987.384463271767 -32.8932737200311 4.0
endloop
endfacet
facet normal -0.997986927986034 0.0634199619126291 3.32587026970921e-33
outer loop
vertex 988.482159515844 -49.145915727197 5.0
vertex 985.33595938273 -65.1288670810538 4.0
vertex 985.33595938273 -65.1288670810538 5.0
endloop
endfacet
facet normal -0.947567054057933 0.319557002839822 2.62249385368678e-33
outer loop
vertex 985.33595938273 -65.1288670810538 4.0
vertex 988.482159515844 -49.145915727197 5.0
vertex 988.482159515844 -49.145915727197 4.0
endloop
endfacet
facet normal -0.947567054057933 0.319557002839822 2.62249385368678e-33
outer loop
vertex 985.33595938273 -65.1288670810538 5.0
vertex 978.160271212157 -79.752916059912 4.0
vertex 978.160271212157 -79.752916059912 5.0
endloop
endfacet
facet normal -0.83257205132438 0.553916762116397 1.7403988154116e-33
outer loop
vertex 978.160271212157 -79.752916059912 4.0
vertex 985.33595938273 -65.1288670810538 5.0
vertex 985.33595938273 -65.1288670810538 4.0
endloop
endfacet
facet normal -0.83257205132438 0.553916762116397 1.7403988154116e-33
outer loop
vertex 978.160271212157 -79.752916059912 5.0
vertex 967.444106294562 -92.0214578932462 4.0
vertex 967.444106294562 -92.0214578932462 5.0
endloop
endfacet
facet normal -0.66083863918344 0.750528009445469 7.39698474011146e-34
outer loop
vertex 967.444106294562 -92.0214578932462 4.0
vertex 978.160271212157 -79.752916059912 5.0
vertex 978.160271212157 -79.752916059912 4.0
endloop
endfacet
facet normal -0.444070165869637 0.895992013237011 -3.11411095983628e-34
outer loop
vertex 953.917753559781 -101.098411729838 5.0
vertex 967.444106294562 -92.0214578932462 4.0
vertex 953.917753559781 -101.098411729838 4.0
endloop
endfacet
facet normal -0.66083863918344 0.750528009445469 7.39698474011146e-34
outer loop
vertex 967.444106294562 -92.0214578932462 4.0
vertex 953.917753559781 -101.098411729838 5.0
vertex 967.444106294562 -92.0214578932462 5.0
endloop
endfacet
facet normal -0.197039044612465 0.980395642023264 -1.34129851441829e-33
outer loop
vertex 938.503011593333 -106.365198166101 5.0
vertex 953.917753559781 -101.098411729838 4.0
vertex 938.503011593333 -106.365198166101 4.0
endloop
endfacet
facet normal -0.444070165869637 0.895992013237011 -3.11411095983628e-34
outer loop
vertex 953.917753559781 -101.098411729838 4.0
vertex 938.503011593333 -106.365198166101 5.0
vertex 953.917753559781 -101.098411729838 5.0
endloop
endfacet
facet normal -0.067386038248604 0.997726977609184 -1.82616165113643e-33
outer loop
vertex 926.207775209515 -107.195612986817 5.0
vertex 938.503011593333 -106.365198166101 4.0
vertex 926.207775209515 -107.195612986817 4.0
endloop
endfacet
facet normal -0.197039044612465 0.980395642023264 -1.34129851441829e-33
outer loop
vertex 938.503011593333 -106.365198166101 4.0
vertex 926.207775209515 -107.195612986817 5.0
vertex 938.503011593333 -106.365198166101 5.0
endloop
endfacet
facet normal 0.0634199619126313 0.997986927986034 -2.27977865569596e-33
outer loop
vertex 922.250369586167 -107.462894410177 5.0
vertex 926.207775209515 -107.195612986817 4.0
vertex 922.250369586167 -107.462894410177 4.0
endloop
endfacet
facet normal -0.0673860382486017 0.997726977609184 -1.82616165113643e-33
outer loop
vertex 926.207775209515 -107.195612986817 4.0
vertex 922.250369586167 -107.462894410177 5.0
vertex 926.207775209515 -107.195612986817 5.0
endloop
endfacet
facet normal 0.319557002839821 0.947567054057933 -3.06289564910029e-33
outer loop
vertex 906.26741823231 -104.316694277064 5.0
vertex 922.250369586167 -107.462894410177 4.0
vertex 906.26741823231 -104.316694277064 4.0
endloop
endfacet
facet normal 0.0634199619126313 0.997986927986034 -2.27977865569596e-33
outer loop
vertex 922.250369586167 -107.462894410177 4.0
vertex 906.26741823231 -104.316694277064 5.0
vertex 922.250369586167 -107.462894410177 5.0
endloop
endfacet
facet normal 0.553916762116395 0.832572051324382 -3.63728136569283e-33
outer loop
vertex 891.643369253452 -97.1410061064903 5.0
vertex 906.26741823231 -104.316694277064 4.0
vertex 891.643369253452 -97.1410061064903 4.0
endloop
endfacet
facet normal 0.319557002839821 0.947567054057933 -3.06289564910029e-33
outer loop
vertex 906.26741823231 -104.316694277064 4.0
vertex 891.643369253452 -97.1410061064903 5.0
vertex 906.26741823231 -104.316694277064 5.0
endloop
endfacet
facet normal 0.750528009445471 0.660838639183439 -3.96379236810507e-33
outer loop
vertex 879.374827420118 -86.4248411888957 5.0
vertex 891.643369253452 -97.1410061064903 4.0
vertex 879.374827420118 -86.4248411888957 4.0
endloop
endfacet
facet normal 0.553916762116395 0.832572051324382 -3.63728136569283e-33
outer loop
vertex 891.643369253452 -97.1410061064903 4.0
vertex 879.374827420118 -86.4248411888957 5.0
vertex 891.643369253452 -97.1410061064903 5.0
endloop
endfacet
facet normal 0.895992013237012 0.444070165869636 -4.02017747110755e-33
outer loop
vertex 870.297873583526 -72.8984884541143 4.0
vertex 879.374827420118 -86.4248411888957 5.0
vertex 879.374827420118 -86.4248411888957 4.0
endloop
endfacet
facet normal 0.750528009445471 0.660838639183439 -3.96379236810507e-33
outer loop
vertex 879.374827420118 -86.4248411888957 5.0
vertex 870.297873583526 -72.8984884541143 4.0
vertex 870.297873583526 -72.8984884541143 5.0
endloop
endfacet
facet normal 0.980395642023263 0.19703904461247 -3.80259412311145e-33
outer loop
vertex 865.031087147264 -57.4837464876667 4.0
vertex 870.297873583526 -72.8984884541143 5.0
vertex 870.297873583526 -72.8984884541143 4.0
endloop
endfacet
facet normal 0.895992013237012 0.444070165869636 -4.02017747110755e-33
outer loop
vertex 870.297873583526 -72.8984884541143 5.0
vertex 865.031087147264 -57.4837464876667 4.0
vertex 865.031087147264 -57.4837464876667 5.0
endloop
endfacet
facet normal 0.997986927986034 -0.0634199619126289 -3.32587026970921e-33
outer loop
vertex 863.933390903187 -41.2311044805008 4.0
vertex 865.031087147264 -57.4837464876667 5.0
vertex 865.031087147264 -57.4837464876667 4.0
endloop
endfacet
facet normal 0.980395642023263 0.19703904461247 -3.80259412311145e-33
outer loop
vertex 865.031087147264 -57.4837464876667 5.0
vertex 863.933390903187 -41.2311044805008 4.0
vertex 863.933390903187 -41.2311044805008 5.0
endloop
endfacet
facet normal 0.947567054057933 -0.319557002839822 -2.62249385368678e-33
outer loop
vertex 867.0795910363 -25.248153126644 4.0
vertex 863.933390903187 -41.2311044805008 5.0
vertex 863.933390903187 -41.2311044805008 4.0
endloop
endfacet
facet normal 0.997986927986034 -0.0634199619126289 -3.32587026970921e-33
outer loop
vertex 863.933390903187 -41.2311044805008 5.0
vertex 867.0795910363 -25.248153126644 4.0
vertex 867.0795910363 -25.248153126644 5.0
endloop
endfacet
facet normal 0.83257205132438 -0.553916762116397 -1.74039881541159e-33
outer loop
vertex 874.255279206874 -10.6241041477858 4.0
vertex 867.0795910363 -25.248153126644 5.0
vertex 867.0795910363 -25.248153126644 4.0
endloop
endfacet
facet normal 0.947567054057933 -0.319557002839822 -2.62249385368678e-33
outer loop
vertex 867.0795910363 -25.248153126644 5.0
vertex 874.255279206874 -10.6241041477858 4.0
vertex 874.255279206874 -10.6241041477858 5.0
endloop
endfacet
facet normal 0.660838639183441 -0.750528009445469 -7.39698474011148e-34
outer loop
vertex 884.971444124469 1.6444376855483 4.0
vertex 874.255279206874 -10.6241041477858 5.0
vertex 874.255279206874 -10.6241041477858 4.0
endloop
endfacet
facet normal 0.83257205132438 -0.553916762116397 -1.74039881541159e-33
outer loop
vertex 874.255279206874 -10.6241041477858 5.0
vertex 884.971444124469 1.6444376855483 4.0
vertex 884.971444124469 1.6444376855483 5.0
endloop
endfacet
facet normal 0.444070165869638 -0.895992013237011 3.11411095983627e-34
outer loop
vertex 898.49779685925 10.7213915221406 5.0
vertex 884.971444124469 1.6444376855483 4.0
vertex 898.49779685925 10.7213915221406 4.0
endloop
endfacet
facet normal 0.660838639183441 -0.750528009445469 -7.39698474011148e-34
outer loop
vertex 884.971444124469 1.6444376855483 4.0
vertex 898.49779685925 10.7213915221406 5.0
vertex 884.971444124469 1.6444376855483 5.0
endloop
endfacet
facet normal 0.197039044612465 -0.980395642023263 1.34129851441829e-33
outer loop
vertex 913.912538825698 15.9881779584027 5.0
vertex 898.49779685925 10.7213915221406 4.0
vertex 913.912538825698 15.9881779584027 4.0
endloop
endfacet
facet normal 0.444070165869638 -0.895992013237011 3.11411095983627e-34
outer loop
vertex 898.49779685925 10.7213915221406 4.0
vertex 913.912538825698 15.9881779584027 5.0
vertex 898.49779685925 10.7213915221406 5.0
endloop
endfacet
facet normal -0.0 1.0 0.0
outer loop
vertex 891.207775209515 44.4282175271785 5.0
vertex 961.207775209515 44.4282175271785 0.0
vertex 891.207775209515 44.4282175271785 0.0
endloop
endfacet
facet normal -0.0 1.0 0.0
outer loop
vertex 961.207775209515 44.4282175271785 0.0
vertex 891.207775209515 44.4282175271785 5.0
vertex 961.207775209515 44.4282175271785 5.0
endloop
endfacet
facet normal -1.0 0.0 0.0
outer loop
vertex 891.207775209515 44.4282175271785 5.0
vertex 891.207775209515 15.4332681610618 0.0
vertex 891.207775209515 15.4332681610618 5.0
endloop
endfacet
facet normal -1.0 0.0 0.0
outer loop
vertex 891.207775209515 15.4332681610618 0.0
vertex 891.207775209515 44.4282175271785 5.0
vertex 891.207775209515 44.4282175271785 0.0
endloop
endfacet
facet normal 3.46375852886064e-33 2.06426273125483e-33 1.0
outer loop
vertex 913.912538825698 15.9881779584027 5.0
vertex 899.368731172155 23.5942241237016 5.0
vertex 898.49779685925 10.7213915221406 5.0
endloop
endfacet
facet normal 3.46375852886064e-33 2.06426273125483e-33 1.0
outer loop
vertex 899.368731172155 23.5942241237016 5.0
vertex 913.912538825698 15.9881779584027 5.0
vertex 953.046819246876 23.5942241237016 5.0
endloop
endfacet
facet normal 3.46375852886064e-33 2.06426273125483e-33 1.0
outer loop
vertex 953.046819246876 23.5942241237016 5.0
vertex 913.912538825698 15.9881779584027 5.0
vertex 926.207775209515 16.8185927791195 5.0
endloop
endfacet
facet normal 3.46375852886064e-33 2.06426273125483e-33 1.0
outer loop
vertex 953.046819246876 23.5942241237016 5.0
vertex 926.207775209515 16.8185927791195 5.0
vertex 930.165180832863 17.0858742024796 5.0
endloop
endfacet
facet normal 3.46375852886064e-33 2.06426273125483e-33 1.0
outer loop
vertex 953.046819246876 23.5942241237016 5.0
vertex 930.165180832863 17.0858742024796 5.0
vertex 946.14813218672 13.9396740693661 5.0
endloop
endfacet
facet normal 3.46375852886064e-33 2.06426273125483e-33 1.0
outer loop
vertex 953.046819246876 23.5942241237016 5.0
vertex 946.14813218672 13.9396740693661 5.0
vertex 960.772181165579 6.76398589879247 5.0
endloop
endfacet
facet normal 3.46375852886064e-33 2.06426273125483e-33 1.0
outer loop
vertex 953.046819246876 23.5942241237016 5.0
vertex 960.772181165579 6.76398589879247 5.0
vertex 953.046819246876 36.2672615645387 5.0
endloop
endfacet
facet normal 3.46375852886064e-33 2.06426273125483e-33 1.0
outer loop
vertex 858.592967369281 -63.3058432610254 5.0
vertex 858.592967369281 -27.0711769466724 5.0
vertex 856.207775209515 -45.1885101038489 5.0
endloop
endfacet
facet normal 3.46375852886064e-33 2.06426273125483e-33 1.0
outer loop
vertex 858.592967369281 -27.0711769466724 5.0
vertex 858.592967369281 -63.3058432610254 5.0
vertex 865.585996944605 -80.1885101038489 5.0
endloop
endfacet
facet normal 3.46375852886064e-33 2.06426273125483e-33 1.0
outer loop
vertex 858.592967369281 -27.0711769466724 5.0
vertex 865.585996944605 -80.1885101038489 5.0
vertex 863.933390903187 -41.2311044805008 5.0
endloop
endfacet
facet normal 3.46375852886064e-33 2.06426273125483e-33 1.0
outer loop
vertex 863.933390903187 -41.2311044805008 5.0
vertex 865.585996944605 -80.1885101038489 5.0
vertex 865.031087147264 -57.4837464876667 5.0
endloop
endfacet
facet normal 3.46375852886064e-33 2.06426273125483e-33 1.0
outer loop
vertex 865.031087147264 -57.4837464876667 5.0
vertex 865.585996944605 -80.1885101038489 5.0
vertex 870.297873583526 -72.8984884541143 5.0
endloop
endfacet
facet normal 3.46375852886064e-33 2.06426273125483e-33 1.0
outer loop
vertex 870.297873583526 -72.8984884541143 5.0
vertex 865.585996944605 -80.1885101038489 5.0
vertex 876.710300526457 -94.6859847869072 5.0
endloop
endfacet
facet normal 3.46375852886064e-33 2.06426273125483e-33 1.0
outer loop
vertex 870.297873583526 -72.8984884541143 5.0
vertex 876.710300526457 -94.6859847869072 5.0
vertex 879.374827420118 -86.4248411888957 5.0
endloop
endfacet
facet normal 3.46375852886064e-33 2.06426273125483e-33 1.0
outer loop
vertex 879.374827420118 -86.4248411888957 5.0
vertex 876.710300526457 -94.6859847869072 5.0
vertex 891.207775209515 -105.81028836876 5.0
endloop
endfacet
facet normal 3.46375852886064e-33 2.06426273125483e-33 1.0
outer loop
vertex 879.374827420118 -86.4248411888957 5.0
vertex 891.207775209515 -105.81028836876 5.0
vertex 891.643369253452 -97.1410061064903 5.0
endloop
endfacet
facet normal 3.46375852886064e-33 2.06426273125483e-33 1.0
outer loop
vertex 891.643369253452 -97.1410061064903 5.0
vertex 891.207775209515 -105.81028836876 5.0
vertex 908.090442052339 -112.803317944084 5.0
endloop
endfacet
facet normal 3.46375852886064e-33 2.06426273125483e-33 1.0
outer loop
vertex 891.643369253452 -97.1410061064903 5.0
vertex 908.090442052339 -112.803317944084 5.0
vertex 906.26741823231 -104.316694277064 5.0
endloop
endfacet
facet normal 3.46375852886064e-33 2.06426273125483e-33 1.0
outer loop
vertex 906.26741823231 -104.316694277064 5.0
vertex 908.090442052339 -112.803317944084 5.0
vertex 922.250369586167 -107.462894410177 5.0
endloop
endfacet
facet normal 3.46375852886064e-33 2.06426273125483e-33 1.0
outer loop
vertex 922.250369586167 -107.462894410177 5.0
vertex 908.090442052339 -112.803317944084 5.0
vertex 926.207775209515 -115.188510103849 5.0
endloop
endfacet
facet normal 3.46375852886064e-33 2.06426273125483e-33 1.0
outer loop
vertex 922.250369586167 -107.462894410177 5.0
vertex 926.207775209515 -115.188510103849 5.0
vertex 926.207775209515 -107.195612986817 5.0
endloop
endfacet
facet normal 3.46375852886064e-33 2.06426273125483e-33 1.0
outer loop
vertex 926.207775209515 -107.195612986817 5.0
vertex 926.207775209515 -115.188510103849 5.0
vertex 944.325108366692 -112.803317944084 5.0
endloop
endfacet
facet normal 3.46375852886064e-33 2.06426273125483e-33 1.0
outer loop
vertex 926.207775209515 -107.195612986817 5.0
vertex 944.325108366692 -112.803317944084 5.0
vertex 938.503011593333 -106.365198166101 5.0
endloop
endfacet
facet normal 3.46375852886064e-33 2.06426273125483e-33 1.0
outer loop
vertex 938.503011593333 -106.365198166101 5.0
vertex 944.325108366692 -112.803317944084 5.0
vertex 953.917753559781 -101.098411729838 5.0
endloop
endfacet
facet normal 3.46375852886064e-33 2.06426273125483e-33 1.0
outer loop
vertex 953.917753559781 -101.098411729838 5.0
vertex 944.325108366692 -112.803317944084 5.0
vertex 961.207775209515 -105.81028836876 5.0
endloop
endfacet
facet normal 3.46375852886064e-33 2.06426273125483e-33 1.0
outer loop
vertex 953.917753559781 -101.098411729838 5.0
vertex 961.207775209515 -105.81028836876 5.0
vertex 967.444106294562 -92.0214578932462 5.0
endloop
endfacet
facet normal 3.46375852886064e-33 2.06426273125483e-33 1.0
outer loop
vertex 967.444106294562 -92.0214578932462 5.0
vertex 961.207775209515 -105.81028836876 5.0
vertex 975.705249892574 -94.6859847869073 5.0
endloop
endfacet
facet normal 3.46375852886064e-33 2.06426273125483e-33 1.0
outer loop
vertex 967.444106294562 -92.0214578932462 5.0
vertex 975.705249892574 -94.6859847869073 5.0
vertex 978.160271212157 -79.752916059912 5.0
endloop
endfacet
facet normal 3.46375852886064e-33 2.06426273125483e-33 1.0
outer loop
vertex 978.160271212157 -79.752916059912 5.0
vertex 975.705249892574 -94.6859847869073 5.0
vertex 986.829553474426 -80.1885101038489 5.0
endloop
endfacet
facet normal 3.46375852886064e-33 2.06426273125483e-33 1.0
outer loop
vertex 978.160271212157 -79.752916059912 5.0
vertex 986.829553474426 -80.1885101038489 5.0
vertex 985.33595938273 -65.1288670810538 5.0
endloop
endfacet
facet normal 3.46375852886064e-33 2.06426273125483e-33 1.0
outer loop
vertex 985.33595938273 -65.1288670810538 5.0
vertex 986.829553474426 -80.1885101038489 5.0
vertex 988.482159515844 -49.145915727197 5.0
endloop
endfacet
facet normal 3.46375852886064e-33 2.06426273125483e-33 1.0
outer loop
vertex 988.482159515844 -49.145915727197 5.0
vertex 986.829553474426 -80.1885101038489 5.0
vertex 993.82258304975 -63.3058432610254 5.0
endloop
endfacet
facet normal 3.46375852886064e-33 2.06426273125483e-33 1.0
outer loop
vertex 973.040722998913 -3.95217901880216 5.0
vertex 961.207775209515 15.4332681610618 5.0
vertex 960.772181165579 6.76398589879247 5.0
endloop
endfacet
facet normal 3.46375852886064e-33 2.06426273125483e-33 1.0
outer loop
vertex 961.207775209515 15.4332681610618 5.0
vertex 973.040722998913 -3.95217901880216 5.0
vertex 975.705249892574 4.3089645792094 5.0
endloop
endfacet
facet normal 3.46375852886064e-33 2.06426273125483e-33 1.0
outer loop
vertex 975.705249892574 4.3089645792094 5.0
vertex 973.040722998913 -3.95217901880216 5.0
vertex 982.117676835505 -17.4785317535835 5.0
endloop
endfacet
facet normal 3.46375852886064e-33 2.06426273125483e-33 1.0
outer loop
vertex 975.705249892574 4.3089645792094 5.0
vertex 982.117676835505 -17.4785317535835 5.0
vertex 986.829553474426 -10.188510103849 5.0
endloop
endfacet
facet normal 3.46375852886064e-33 2.06426273125483e-33 1.0
outer loop
vertex 986.829553474426 -10.188510103849 5.0
vertex 982.117676835505 -17.4785317535835 5.0
vertex 987.384463271767 -32.8932737200311 5.0
endloop
endfacet
facet normal 3.46375852886064e-33 2.06426273125483e-33 1.0
outer loop
vertex 986.829553474426 -10.188510103849 5.0
vertex 987.384463271767 -32.8932737200311 5.0
vertex 993.82258304975 -27.0711769466725 5.0
endloop
endfacet
facet normal 3.46375852886064e-33 2.06426273125483e-33 1.0
outer loop
vertex 993.82258304975 -27.0711769466725 5.0
vertex 987.384463271767 -32.8932737200311 5.0
vertex 988.482159515844 -49.145915727197 5.0
endloop
endfacet
facet normal 3.46375852886064e-33 2.06426273125483e-33 1.0
outer loop
vertex 993.82258304975 -27.0711769466725 5.0
vertex 988.482159515844 -49.145915727197 5.0
vertex 993.82258304975 -63.3058432610254 5.0
endloop
endfacet
facet normal 3.46375852886064e-33 2.06426273125483e-33 1.0
outer loop
vertex 993.82258304975 -27.0711769466725 5.0
vertex 993.82258304975 -63.3058432610254 5.0
vertex 996.207775209515 -45.1885101038489 5.0
endloop
endfacet
facet normal 3.46375852886064e-33 2.06426273125483e-33 1.0
outer loop
vertex 863.933390903187 -41.2311044805008 5.0
vertex 865.585996944605 -10.1885101038489 5.0
vertex 858.592967369281 -27.0711769466724 5.0
endloop
endfacet
facet normal 3.46375852886064e-33 2.06426273125483e-33 1.0
outer loop
vertex 865.585996944605 -10.1885101038489 5.0
vertex 863.933390903187 -41.2311044805008 5.0
vertex 867.0795910363 -25.248153126644 5.0
endloop
endfacet
facet normal 3.46375852886064e-33 2.06426273125483e-33 1.0
outer loop
vertex 865.585996944605 -10.1885101038489 5.0
vertex 867.0795910363 -25.248153126644 5.0
vertex 876.710300526457 4.30896457920941 5.0
endloop
endfacet
facet normal 3.46375852886064e-33 2.06426273125483e-33 1.0
outer loop
vertex 876.710300526457 4.30896457920941 5.0
vertex 867.0795910363 -25.248153126644 5.0
vertex 874.255279206874 -10.6241041477858 5.0
endloop
endfacet
facet normal 3.46375852886064e-33 2.06426273125483e-33 1.0
outer loop
vertex 876.710300526457 4.30896457920941 5.0
vertex 874.255279206874 -10.6241041477858 5.0
vertex 884.971444124469 1.6444376855483 5.0
endloop
endfacet
facet normal 3.46375852886064e-33 2.06426273125483e-33 1.0
outer loop
vertex 876.710300526457 4.30896457920941 5.0
vertex 884.971444124469 1.6444376855483 5.0
vertex 891.207775209515 15.4332681610618 5.0
endloop
endfacet
facet normal 3.46375852886064e-33 2.06426273125483e-33 1.0
outer loop
vertex 891.207775209515 15.4332681610618 5.0
vertex 884.971444124469 1.6444376855483 5.0
vertex 898.49779685925 10.7213915221406 5.0
endloop
endfacet
facet normal 3.46375852886064e-33 2.06426273125483e-33 1.0
outer loop
vertex 891.207775209515 15.4332681610618 5.0
vertex 898.49779685925 10.7213915221406 5.0
vertex 891.207775209515 44.4282175271785 5.0
endloop
endfacet
facet normal 3.46375852886064e-33 2.06426273125483e-33 1.0
outer loop
vertex 891.207775209515 44.4282175271785 5.0
vertex 898.49779685925 10.7213915221406 5.0
vertex 899.368731172155 36.2672615645387 5.0
endloop
endfacet
facet normal 3.46375852886064e-33 2.06426273125483e-33 1.0
outer loop
vertex 891.207775209515 44.4282175271785 5.0
vertex 899.368731172155 36.2672615645387 5.0
vertex 961.207775209515 44.4282175271785 5.0
endloop
endfacet
facet normal 3.46375852886064e-33 2.06426273125483e-33 1.0
outer loop
vertex 899.368731172155 36.2672615645387 5.0
vertex 898.49779685925 10.7213915221406 5.0
vertex 899.368731172155 23.5942241237016 5.0
endloop
endfacet
facet normal 3.46375852886064e-33 2.06426273125483e-33 1.0
outer loop
vertex 961.207775209515 44.4282175271785 5.0
vertex 899.368731172155 36.2672615645387 5.0
vertex 953.046819246876 36.2672615645387 5.0
endloop
endfacet
facet normal 3.46375852886064e-33 2.06426273125483e-33 1.0
outer loop
vertex 961.207775209515 44.4282175271785 5.0
vertex 953.046819246876 36.2672615645387 5.0
vertex 960.772181165579 6.76398589879247 5.0
endloop
endfacet
facet normal 3.46375852886064e-33 2.06426273125483e-33 1.0
outer loop
vertex 961.207775209515 44.4282175271785 5.0
vertex 960.772181165579 6.76398589879247 5.0
vertex 961.207775209515 15.4332681610618 5.0
endloop
endfacet
endsolid Halloween Best Costume
