999
Inkscape export via OpenSCAD DXF Export
  0
SECTION
  2
HEADER
  9
$ACADVER
  1
AC1014
  9
$HANDSEED
  5
FFFF
  9
$MEASUREMENT
 70
     1
  0
ENDSEC
  0
SECTION
  2
TABLES
  0
TABLE
  2
VPORT
  5
8
330
0
100
AcDbSymbolTable
 70
     4
  0
VPORT
  5
2E
330
8
100
AcDbSymbolTableRecord
100
AcDbViewportTableRecord
  2
*ACTIVE
 70
     0
 10
0.0
 20
0.0
 11
1.0
 21
1.0
 12
210.0
 22
148.5
 13
0.0
 23
0.0
 14
10.0
 24
10.0
 15
10.0
 25
10.0
 16
0.0
 26
0.0
 36
1.0
 17
0.0
 27
0.0
 37
0.0
 40
341.0
 41
1.24
 42
50.0
 43
0.0
 44
0.0
 50
0.0
 51
0.0
 71
     0
 72
   100
 73
     1
 74
     3
 75
     0
 76
     0
 77
     0
 78
     0
  0
ENDTAB
  0
TABLE
  2
LTYPE
  5
5
330
0
100
AcDbSymbolTable
 70
     1
  0
LTYPE
  5
14
330
5
100
AcDbSymbolTableRecord
100
AcDbLinetypeTableRecord
  2
BYBLOCK
 70
     0
  3

 72
    65
 73
     0
 40
0.0
  0
LTYPE
  5
15
330
5
100
AcDbSymbolTableRecord
100
AcDbLinetypeTableRecord
  2
BYLAYER
 70
     0
  3

 72
    65
 73
     0
 40
0.0
  0
LTYPE
  5
16
330
5
100
AcDbSymbolTableRecord
100
AcDbLinetypeTableRecord
  2
CONTINUOUS
 70
     0
  3
Solid line
 72
    65
 73
     0
 40
0.0
  0
ENDTAB
  0
TABLE
0
TABLE
2
LAYER
5
2
330
0
100
AcDbSymbolTable
70
1
0
LAYER
5
10
330
2
100
AcDbSymbolTableRecord
100
AcDbLayerTableRecord
2
Calque_1
70
0
62
7
6
CONTINUOUS
0
ENDTAB
0
ENDSEC
  0
ENDTAB
  0
TABLE
  2
STYLE
  5
3
330
0
100
AcDbSymbolTable
 70
     1
  0
STYLE
  5
11
330
3
100
AcDbSymbolTableRecord
100
AcDbTextStyleTableRecord
  2
STANDARD
 70
     0
 40
0.0
 41
1.0
 50
0.0
 71
     0
 42
2.5
  3
txt
  4

  0
ENDTAB
  0
TABLE
  2
VIEW
  5
6
330
0
100
AcDbSymbolTable
 70
     0
  0
ENDTAB
  0
TABLE
  2
UCS
  5
7
330
0
100
AcDbSymbolTable
 70
     0
  0
ENDTAB
  0
TABLE
  2
APPID
  5
9
330
0
100
AcDbSymbolTable
 70
     2
  0
APPID
  5
12
330
9
100
AcDbSymbolTableRecord
100
AcDbRegAppTableRecord
  2
ACAD
 70
     0
  0
ENDTAB
  0
TABLE
  2
DIMSTYLE
  5
A
330
0
100
AcDbSymbolTable
 70
     1
  0
DIMSTYLE
105
27
330
A
100
AcDbSymbolTableRecord
100
AcDbDimStyleTableRecord
  2
ISO-25
 70
     0
  3

  4

  5

  6

  7

 40
1.0
 41
2.5
 42
0.625
 43
3.75
 44
1.25
 45
0.0
 46
0.0
 47
0.0
 48
0.0
140
2.5
141
2.5
142
0.0
143
0.03937007874016
144
1.0
145
0.0
146
1.0
147
0.625
 71
     0
 72
     0
 73
     0
 74
     0
 75
     0
 76
     0
 77
     1
 78
     8
170
     0
171
     3
172
     1
173
     0
174
     0
175
     0
176
     0
177
     0
178
     0
270
     2
271
     2
272
     2
273
     2
274
     3
340
11
275
     0
280
     0
281
     0
282
     0
283
     0
284
     8
285
     0
286
     0
287
     3
288
     0
  0
ENDTAB
  0
TABLE
  2
BLOCK_RECORD
  5
1
330
0
100
AcDbSymbolTable
 70
     1
  0
BLOCK_RECORD
  5
1F
330
1
100
AcDbSymbolTableRecord
100
AcDbBlockTableRecord
  2
*MODEL_SPACE
  0
BLOCK_RECORD
  5
1B
330
1
100
AcDbSymbolTableRecord
100
AcDbBlockTableRecord
  2
*PAPER_SPACE
  0
ENDTAB
  0
ENDSEC
  0
SECTION
  2
BLOCKS
  0
BLOCK
  5
20
330
1F
100
AcDbEntity
  8
0
100
AcDbBlockBegin
  2
*MODEL_SPACE
 70
     0
 10
0.0
 20
0.0
 30
0.0
  3
*MODEL_SPACE
  1

  0
ENDBLK
  5
21
330
1F
100
AcDbEntity
  8
0
100
AcDbBlockEnd
  0
BLOCK
  5
1C
330
1B
100
AcDbEntity
 67
     1
  8
0
100
AcDbBlockBegin
  2
*PAPER_SPACE
  1

  0
ENDBLK
  5
1D
330
1B
100
AcDbEntity
 67
     1
  8
0
100
AcDbBlockEnd
  0
ENDSEC
  0
SECTION
  2
ENTITIES
0
DIMENSION
5
83
100
AcDbEntity
62
256
370
-1
6
ByLayer
1
total_width
3
Standard
70
0
71
5
72
1
41
1.0
100
AcDbAlignedDimension
13
23.384126
23
0.000000
33
0.0
14
68.166316
24
0.000000
34
0.0
50
0.000000
100
AcDbRotatedDimension
0
DIMENSION
5
83
100
AcDbEntity
62
256
370
-1
6
ByLayer
1
total_height
3
Standard
70
0
71
5
72
1
41
1.0
100
AcDbAlignedDimension
13
0.000000
23
15.950464
33
0.0
14
0.000000
24
69.791919
34
0.0
50
90.000000
100
AcDbRotatedDimension
0
DIMENSION
8
Calque_1
5
83
100
AcDbEntity
62
256
370
-1
6
ByLayer
1
Calque_1_width
3
Standard
70
0
71
5
72
1
41
1.0
100
AcDbAlignedDimension
13
23.384126
23
0.000000
33
0.0
14
68.166316
24
0.000000
34
0.0
50
0.000000
100
AcDbRotatedDimension
0
DIMENSION
8
Calque_1
5
83
100
AcDbEntity
62
256
370
-1
6
ByLayer
1
Calque_1_height
3
Standard
70
0
71
5
72
1
41
1.0
100
AcDbAlignedDimension
13
0.000000
23
15.950464
33
0.0
14
0.000000
24
69.791919
34
0.0
50
90.000000
100
AcDbRotatedDimension
0
LWPOLYLINE
100
AcDbPolyline
8
Calque_1
90
116
70
0
10
42.677681
20
16.451008
30
0.0
10
41.479534
20
17.158946
30
0.0
10
40.308870
20
18.105579
30
0.0
10
39.302679
20
19.164687
30
0.0
10
38.597953
20
20.210048
30
0.0
10
37.992250
20
21.080540
30
0.0
10
37.652326
20
21.243647
30
0.0
10
37.207280
20
21.287631
30
0.0
10
36.577059
20
21.393705
30
0.0
10
36.366348
20
21.710965
30
0.0
10
36.204604
20
22.012811
30
0.0
10
35.833815
20
22.124551
30
0.0
10
35.425646
20
22.040158
30
0.0
10
35.151763
20
21.753606
30
0.0
10
34.891554
20
21.566916
30
0.0
10
34.229159
20
21.414708
30
0.0
10
31.453463
20
21.175550
30
0.0
10
28.874311
20
21.112917
30
0.0
10
27.205614
20
21.325800
30
0.0
10
26.170487
20
21.894208
30
0.0
10
25.492046
20
22.898146
30
0.0
10
25.134266
20
24.217924
30
0.0
10
25.102469
20
25.744343
30
0.0
10
25.372085
20
27.172160
30
0.0
10
25.918540
20
28.196129
30
0.0
10
26.686727
20
28.777145
30
0.0
10
27.678955
20
29.185831
30
0.0
10
28.773746
20
29.386707
30
0.0
10
29.849620
20
29.344291
30
0.0
10
31.382709
20
29.071288
30
0.0
10
32.136126
20
28.801169
30
0.0
10
32.401814
20
28.318197
30
0.0
10
32.471716
20
27.406632
30
0.0
10
32.556348
20
25.944298
30
0.0
10
32.954036
20
27.567076
30
0.0
10
33.351724
20
29.189853
30
0.0
10
35.691679
20
29.189853
30
0.0
10
37.640526
20
29.095732
30
0.0
10
38.080113
20
28.945061
30
0.0
10
38.319298
20
28.695965
30
0.0
10
38.565592
20
28.352680
30
0.0
10
38.615544
20
28.724159
30
0.0
10
41.049710
20
35.074159
30
0.0
10
43.606999
20
41.221210
30
0.0
10
43.425502
20
41.549551
30
0.0
10
42.804193
20
41.890807
30
0.0
10
41.869682
20
42.241271
30
0.0
10
42.575237
20
42.460764
30
0.0
10
46.155881
20
42.708388
30
0.0
10
49.030969
20
42.736526
30
0.0
10
49.015023
20
41.580544
30
0.0
10
48.887661
20
40.602814
30
0.0
10
48.642901
20
40.501350
30
0.0
10
48.186046
20
40.543885
30
0.0
10
47.611850
20
40.556938
30
0.0
10
47.373024
20
40.420765
30
0.0
10
47.688248
20
39.282667
30
0.0
10
48.470321
20
37.440580
30
0.0
10
49.473837
20
35.424723
30
0.0
10
50.453394
20
33.765316
30
0.0
10
51.587793
20
31.922066
30
0.0
10
52.353938
20
30.378650
30
0.0
10
52.810958
20
29.279509
30
0.0
10
53.190950
20
28.720391
30
0.0
10
53.596576
20
28.614376
30
0.0
10
54.130496
20
28.874546
30
0.0
10
55.167025
20
29.230895
30
0.0
10
56.568600
20
29.340195
30
0.0
10
57.975275
20
29.205677
30
0.0
10
59.027102
20
28.830576
30
0.0
10
59.653864
20
28.496980
30
0.0
10
59.763315
20
28.555791
30
0.0
10
59.790801
20
28.760021
30
0.0
10
59.877403
20
28.972401
30
0.0
10
60.187125
20
29.104023
30
0.0
10
61.775450
20
29.189859
30
0.0
10
63.481750
20
29.087655
30
0.0
10
63.820337
20
28.896286
30
0.0
10
64.015341
20
28.554859
30
0.0
10
64.270580
20
27.919859
30
0.0
10
64.288472
20
28.554859
30
0.0
10
64.343062
20
28.901286
30
0.0
10
64.564283
20
29.092100
30
0.0
10
65.999682
20
29.189859
30
0.0
10
67.693015
20
29.189859
30
0.0
10
67.693015
20
25.238748
30
0.0
10
67.693015
20
21.287637
30
0.0
10
65.909774
20
21.287637
30
0.0
10
64.307210
20
21.412545
30
0.0
10
63.963549
20
21.686127
30
0.0
10
63.670045
20
22.204859
30
0.0
10
63.213559
20
23.122081
30
0.0
10
63.195496
20
22.204859
30
0.0
10
63.177434
20
21.287637
30
0.0
10
61.484101
20
21.287637
30
0.0
10
60.117115
20
21.377654
30
0.0
10
59.860231
20
21.520271
30
0.0
10
59.790767
20
21.754712
30
0.0
10
59.690369
20
22.051991
30
0.0
10
59.196692
20
21.684156
30
0.0
10
58.133110
20
21.252682
30
0.0
10
56.552931
20
21.104601
30
0.0
10
54.973961
20
21.241711
30
0.0
10
53.914006
20
21.665812
30
0.0
10
53.580963
20
21.944394
30
0.0
10
53.378187
20
21.982978
30
0.0
10
53.056835
20
21.158797
30
0.0
10
52.558171
20
19.823138
30
0.0
10
51.854197
20
18.623451
30
0.0
10
50.986267
20
17.617756
30
0.0
10
49.995737
20
16.864075
30
0.0
10
48.353544
20
16.240828
30
0.0
10
46.342465
20
15.950464
30
0.0
10
44.328502
20
16.013642
30
0.0
10
42.677659
20
16.451020
30
0.0
10
42.677681
20
16.451008
30
0.0
0
LWPOLYLINE
100
AcDbPolyline
8
Calque_1
90
28
70
0
10
47.400868
20
17.942654
30
0.0
10
48.436768
20
18.404508
30
0.0
10
49.409167
20
19.060071
30
0.0
10
50.336348
20
19.853581
30
0.0
10
49.245114
20
19.865039
30
0.0
10
48.341525
20
19.982732
30
0.0
10
48.243561
20
20.196123
30
0.0
10
48.288756
20
20.582064
30
0.0
10
48.348850
20
21.034138
30
0.0
10
48.134350
20
21.253518
30
0.0
10
45.873233
20
21.289511
30
0.0
10
44.373717
20
21.353846
30
0.0
10
43.544899
20
21.584876
30
0.0
10
43.234283
20
21.768719
30
0.0
10
43.139682
20
21.604406
30
0.0
10
42.751278
20
21.373845
30
0.0
10
41.712614
20
21.287628
30
0.0
10
40.285549
20
21.287628
30
0.0
10
40.795392
20
20.424088
30
0.0
10
41.365763
20
19.611286
30
0.0
10
42.031471
20
18.933679
30
0.0
10
42.781321
20
18.395473
30
0.0
10
43.604117
20
18.000874
30
0.0
10
44.488664
20
17.754086
30
0.0
10
45.423768
20
17.659316
30
0.0
10
46.398235
20
17.720770
30
0.0
10
47.400868
20
17.942652
30
0.0
10
47.400868
20
17.942654
30
0.0
0
LWPOLYLINE
100
AcDbPolyline
8
Calque_1
90
125
70
0
10
51.040120
20
21.002076
30
0.0
10
51.457070
20
21.449780
30
0.0
10
52.037827
20
21.738227
30
0.0
10
52.395082
20
21.868157
30
0.0
10
52.607229
20
22.077797
30
0.0
10
52.735237
20
22.984704
30
0.0
10
52.735237
20
24.056144
30
0.0
10
51.609049
20
23.905090
30
0.0
10
50.746201
20
23.883738
30
0.0
10
50.127703
20
24.083033
30
0.0
10
49.755314
20
24.501878
30
0.0
10
49.630793
20
25.139174
30
0.0
10
49.786149
20
25.670154
30
0.0
10
50.227345
20
26.028571
30
0.0
10
50.917070
20
26.197043
30
0.0
10
51.818015
20
26.158189
30
0.0
10
52.735237
20
26.021345
30
0.0
10
52.735237
20
27.291333
30
0.0
10
52.735237
20
28.561319
30
0.0
10
51.451352
20
28.753851
30
0.0
10
50.279255
20
28.833746
30
0.0
10
49.264130
20
28.755545
30
0.0
10
48.486833
20
28.472847
30
0.0
10
47.788435
20
28.016219
30
0.0
10
47.281789
20
27.478756
30
0.0
10
47.079747
20
26.953556
30
0.0
10
47.045405
20
26.849931
30
0.0
10
46.960057
20
26.896516
30
0.0
10
46.687796
20
27.383846
30
0.0
10
46.278430
20
28.055663
30
0.0
10
45.829093
20
28.442179
30
0.0
10
42.552154
20
28.625409
30
0.0
10
39.753015
20
28.625409
30
0.0
10
39.728434
20
25.168187
30
0.0
10
39.703852
20
21.710965
30
0.0
10
39.019821
20
24.109853
30
0.0
10
38.045746
20
27.567076
30
0.0
10
37.755697
20
28.625409
30
0.0
10
35.798904
20
28.625409
30
0.0
10
33.842111
20
28.625409
30
0.0
10
33.384606
20
27.002631
30
0.0
10
32.549711
20
24.109853
30
0.0
10
32.172323
20
22.839853
30
0.0
10
32.152652
20
24.039298
30
0.0
10
32.133009
20
25.238742
30
0.0
10
30.863009
20
25.238742
30
0.0
10
29.769399
20
25.121150
30
0.0
10
29.619468
20
24.868326
30
0.0
10
29.593009
20
24.392076
30
0.0
10
29.478160
20
23.728351
30
0.0
10
29.061481
20
23.545409
30
0.0
10
28.662546
20
23.704355
30
0.0
10
28.393685
20
24.127512
30
0.0
10
28.284456
20
24.734354
30
0.0
10
28.364417
20
25.444358
30
0.0
10
28.641088
20
25.925503
30
0.0
10
29.170680
20
26.229721
30
0.0
10
29.929490
20
26.349215
30
0.0
10
30.893814
20
26.276191
30
0.0
10
31.881753
20
26.115872
30
0.0
10
31.795714
20
27.300085
30
0.0
10
31.709676
20
28.484298
30
0.0
10
30.217327
20
28.737437
30
0.0
10
29.135215
20
28.855496
30
0.0
10
28.201257
20
28.816696
30
0.0
10
27.414258
20
28.620123
30
0.0
10
26.773026
20
28.264866
30
0.0
10
26.276368
20
27.750012
30
0.0
10
25.923089
20
27.074649
30
0.0
10
25.711997
20
26.237863
30
0.0
10
25.641898
20
25.238742
30
0.0
10
25.752482
20
24.034536
30
0.0
10
26.068798
20
23.033550
30
0.0
10
26.567692
20
22.285463
30
0.0
10
27.226011
20
21.839951
30
0.0
10
28.164242
20
21.640755
30
0.0
10
29.361559
20
21.579138
30
0.0
10
30.510823
20
21.653438
30
0.0
10
31.304896
20
21.861993
30
0.0
10
31.718952
20
22.013034
30
0.0
10
31.850787
20
21.861993
30
0.0
10
32.262130
20
21.655005
30
0.0
10
33.261898
20
21.569842
30
0.0
10
34.426065
20
21.668620
30
0.0
10
34.624502
20
21.839718
30
0.0
10
34.673009
20
22.134287
30
0.0
10
34.715315
20
22.416430
30
0.0
10
34.870340
20
22.588908
30
0.0
10
35.687209
20
22.698731
30
0.0
10
36.517031
20
22.578640
30
0.0
10
36.849013
20
22.134287
30
0.0
10
37.006010
20
21.828230
30
0.0
10
37.411128
20
21.658410
30
0.0
10
39.785925
20
21.569842
30
0.0
10
42.575232
20
21.569853
30
0.0
10
42.586238
20
22.769298
30
0.0
10
42.597245
20
23.968742
30
0.0
10
43.320445
20
22.769298
30
0.0
10
43.760899
20
22.085655
30
0.0
10
44.151699
20
21.728482
30
0.0
10
44.692727
20
21.591857
30
0.0
10
45.583867
20
21.569853
30
0.0
10
46.545988
20
21.594410
30
0.0
10
46.893835
20
21.786460
30
0.0
10
46.653620
20
22.323569
30
0.0
10
45.851555
20
23.383306
30
0.0
10
45.272787
20
24.267392
30
0.0
10
45.240753
20
24.499266
30
0.0
10
45.369748
20
24.618028
30
0.0
10
46.247287
20
25.241920
30
0.0
10
46.529052
20
25.490598
30
0.0
10
46.698823
20
25.479768
30
0.0
10
46.920666
20
24.409861
30
0.0
10
47.149623
20
23.448868
30
0.0
10
47.548059
20
22.660084
30
0.0
10
48.096220
20
22.072239
30
0.0
10
48.774350
20
21.714063
30
0.0
10
49.179737
20
21.461269
30
0.0
10
49.056188
20
20.986458
30
0.0
10
48.929083
20
20.694134
30
0.0
10
48.972260
20
20.529631
30
0.0
10
49.752027
20
20.440965
30
0.0
10
50.577974
20
20.573050
30
0.0
10
51.040103
20
21.002076
30
0.0
10
51.040120
20
21.002076
30
0.0
0
LWPOLYLINE
100
AcDbPolyline
8
Calque_1
90
11
70
0
10
35.265591
20
25.027076
30
0.0
10
35.505315
20
26.394404
30
0.0
10
35.686613
20
26.782678
30
0.0
10
35.847446
20
26.788120
30
0.0
10
36.200958
20
25.450409
30
0.0
10
36.263757
20
24.568650
30
0.0
10
36.115253
20
24.425218
30
0.0
10
35.814691
20
24.392076
30
0.0
10
35.375438
20
24.536809
30
0.0
10
35.265591
20
25.027076
30
0.0
10
35.265591
20
25.027076
30
0.0
0
LWPOLYLINE
100
AcDbPolyline
8
Calque_1
90
12
70
0
10
42.575237
20
26.226520
30
0.0
10
42.634471
20
26.676408
30
0.0
10
42.827939
20
26.890397
30
0.0
10
43.179289
20
26.877206
30
0.0
10
43.712170
20
26.645550
30
0.0
10
44.061115
20
26.309620
30
0.0
10
44.072030
20
25.940846
30
0.0
10
43.787622
20
25.643277
30
0.0
10
43.250598
20
25.520965
30
0.0
10
42.713329
20
25.665231
30
0.0
10
42.575237
20
26.226520
30
0.0
10
42.575237
20
26.226520
30
0.0
0
LWPOLYLINE
100
AcDbPolyline
8
Calque_1
90
8
70
0
10
43.704126
20
26.243171
30
0.0
10
43.421904
20
26.367631
30
0.0
10
43.222585
20
26.279835
30
0.0
10
43.139682
20
26.068752
30
0.0
10
43.222585
20
25.908907
30
0.0
10
43.421904
20
25.944298
30
0.0
10
43.704126
20
26.243177
30
0.0
10
43.704126
20
26.243171
30
0.0
0
LWPOLYLINE
100
AcDbPolyline
8
Calque_1
90
24
70
0
10
58.493914
20
21.891175
30
0.0
10
59.142583
20
22.392232
30
0.0
10
59.640740
20
23.201537
30
0.0
10
59.960259
20
24.255020
30
0.0
10
60.073015
20
25.488608
30
0.0
10
59.917172
20
26.824375
30
0.0
10
59.254731
20
27.838988
30
0.0
10
58.757234
20
28.344321
30
0.0
10
58.277934
20
28.619628
30
0.0
10
56.551110
20
28.760664
30
0.0
10
54.821546
20
28.630360
30
0.0
10
54.342741
20
28.354950
30
0.0
10
53.841616
20
27.844844
30
0.0
10
53.178285
20
26.836748
30
0.0
10
53.017460
20
25.558627
30
0.0
10
53.105387
20
24.292741
30
0.0
10
53.366140
20
23.269439
30
0.0
10
53.795175
20
22.500529
30
0.0
10
54.387948
20
21.997815
30
0.0
10
55.273988
20
21.712141
30
0.0
10
56.415850
20
21.594931
30
0.0
10
57.570253
20
21.652505
30
0.0
10
58.493914
20
21.891180
30
0.0
10
58.493914
20
21.891175
30
0.0
0
LWPOLYLINE
100
AcDbPolyline
8
Calque_1
90
13
70
0
10
55.854981
20
23.950302
30
0.0
10
55.644039
20
24.511110
30
0.0
10
55.608759
20
25.290858
30
0.0
10
55.824769
20
26.070503
30
0.0
10
56.545237
20
26.226515
30
0.0
10
57.265706
20
26.070503
30
0.0
10
57.481716
20
25.290858
30
0.0
10
57.461006
20
24.608732
30
0.0
10
57.278587
20
24.054223
30
0.0
10
56.963613
20
23.681669
30
0.0
10
56.545237
20
23.545409
30
0.0
10
55.854981
20
23.950308
30
0.0
10
55.854981
20
23.950302
30
0.0
0
LWPOLYLINE
100
AcDbPolyline
8
Calque_1
90
10
70
0
10
56.916760
20
25.048835
30
0.0
10
56.881593
20
25.626490
30
0.0
10
56.563982
20
25.803187
30
0.0
10
56.228303
20
25.593750
30
0.0
10
56.121904
20
24.933003
30
0.0
10
56.227809
20
24.341064
30
0.0
10
56.470556
20
24.173984
30
0.0
10
56.737690
20
24.415372
30
0.0
10
56.916760
20
25.048841
30
0.0
10
56.916760
20
25.048835
30
0.0
0
LWPOLYLINE
100
AcDbPolyline
8
Calque_1
90
22
70
0
10
62.617759
20
23.757070
30
0.0
10
62.622501
20
25.944292
30
0.0
10
63.538580
20
23.827626
30
0.0
10
64.454662
20
21.710959
30
0.0
10
65.791613
20
21.624940
30
0.0
10
67.128568
20
21.538922
30
0.0
10
67.128568
20
25.082163
30
0.0
10
67.128568
20
28.625403
30
0.0
10
65.999679
20
28.625403
30
0.0
10
64.870790
20
28.625403
30
0.0
10
64.852220
20
27.002626
30
0.0
10
64.833650
20
25.379848
30
0.0
10
64.110785
20
27.002626
30
0.0
10
63.387918
20
28.625403
30
0.0
10
61.871581
20
28.625403
30
0.0
10
60.355243
20
28.625403
30
0.0
10
60.355243
20
25.097626
30
0.0
10
60.355243
20
21.569848
30
0.0
10
61.484132
20
21.569848
30
0.0
10
62.613021
20
21.569848
30
0.0
10
62.617762
20
23.757070
30
0.0
10
62.617759
20
23.757070
30
0.0
0
LWPOLYLINE
100
AcDbPolyline
8
Calque_1
90
9
70
0
10
46.295866
20
24.171003
30
0.0
10
46.052943
20
24.334426
30
0.0
10
45.961904
20
24.213336
30
0.0
10
46.152327
20
23.740384
30
0.0
10
46.322974
20
23.640369
30
0.0
10
46.484015
20
23.691225
30
0.0
10
46.488899
20
23.892307
30
0.0
10
46.295866
20
24.171003
30
0.0
10
46.295866
20
24.171003
30
0.0
0
LWPOLYLINE
100
AcDbPolyline
8
Calque_1
90
12
70
0
10
30.386449
20
25.605580
30
0.0
10
31.709682
20
25.719705
30
0.0
10
30.298571
20
25.690891
30
0.0
10
29.100705
20
25.557792
30
0.0
10
28.912522
20
25.342090
30
0.0
10
28.860225
20
24.956520
30
0.0
10
28.860034
20
24.502816
30
0.0
10
28.948103
20
24.871210
30
0.0
10
29.059098
20
25.189116
30
0.0
10
29.292540
20
25.395382
30
0.0
10
30.386449
20
25.605580
30
0.0
10
30.386449
20
25.605580
30
0.0
0
LWPOLYLINE
100
AcDbPolyline
8
Calque_1
90
12
70
0
10
52.170793
20
24.620357
30
0.0
10
51.799360
20
25.356601
30
0.0
10
51.365486
20
25.700833
30
0.0
10
50.881406
20
25.742928
30
0.0
10
50.468004
20
25.508757
30
0.0
10
50.246164
20
25.024191
30
0.0
10
50.232129
20
24.691932
30
0.0
10
50.344395
20
24.500586
30
0.0
10
51.163387
20
24.392076
30
0.0
10
51.874867
20
24.459133
30
0.0
10
52.170793
20
24.620357
30
0.0
10
52.170793
20
24.620357
30
0.0
0
LWPOLYLINE
100
AcDbPolyline
8
Calque_1
90
18
70
0
10
49.342091
20
29.286407
30
0.0
10
50.785931
20
29.613187
30
0.0
10
48.750784
20
33.140965
30
0.0
10
47.088715
20
36.202053
30
0.0
10
45.950539
20
38.607792
30
0.0
10
45.185440
20
40.546845
30
0.0
10
44.166838
20
37.902237
30
0.0
10
42.056739
20
32.294298
30
0.0
10
40.965244
20
29.330965
30
0.0
10
43.393019
20
29.176016
30
0.0
10
46.043820
20
28.852617
30
0.0
10
46.628525
20
28.602304
30
0.0
10
46.808571
20
28.269250
30
0.0
10
46.968617
20
28.205204
30
0.0
10
47.353409
20
28.466555
30
0.0
10
48.162331
20
28.910779
30
0.0
10
49.342091
20
29.286407
30
0.0
10
49.342091
20
29.286407
30
0.0
0
LWPOLYLINE
100
AcDbPolyline
8
Calque_1
90
20
70
0
10
31.985921
20
40.186840
30
0.0
10
31.936268
20
40.719015
30
0.0
10
31.582410
20
41.565665
30
0.0
10
31.098551
20
42.381150
30
0.0
10
30.658895
20
42.819829
30
0.0
10
30.628867
20
42.922294
30
0.0
10
30.813473
20
43.101209
30
0.0
10
31.691106
20
43.587618
30
0.0
10
32.821446
20
43.973501
30
0.0
10
33.712188
20
43.993064
30
0.0
10
34.369177
20
43.645065
30
0.0
10
34.798260
20
42.928265
30
0.0
10
34.927646
20
42.251896
30
0.0
10
34.761114
20
41.676442
30
0.0
10
34.257578
20
41.133318
30
0.0
10
33.375956
20
40.553940
30
0.0
10
32.135755
20
39.952811
30
0.0
10
31.922891
20
39.964995
30
0.0
10
31.985921
20
40.186840
30
0.0
10
31.985921
20
40.186840
30
0.0
0
LWPOLYLINE
100
AcDbPolyline
8
Calque_1
90
15
70
0
10
34.108571
20
41.836988
30
0.0
10
33.972593
20
42.423328
30
0.0
10
33.628426
20
42.988751
30
0.0
10
33.171717
20
43.414842
30
0.0
10
32.698111
20
43.583187
30
0.0
10
32.247775
20
43.516781
30
0.0
10
32.065938
20
43.270588
30
0.0
10
32.142626
20
42.774145
30
0.0
10
32.467860
20
41.956991
30
0.0
10
33.006778
20
41.010570
30
0.0
10
33.248023
20
40.933773
30
0.0
10
33.556296
20
41.049701
30
0.0
10
33.946339
20
41.402888
30
0.0
10
34.108571
20
41.836988
30
0.0
10
34.108571
20
41.836988
30
0.0
0
LWPOLYLINE
100
AcDbPolyline
8
Calque_1
90
40
70
0
10
57.885793
20
40.551852
30
0.0
10
56.767062
20
41.291127
30
0.0
10
56.682810
20
41.521935
30
0.0
10
56.961323
20
41.607631
30
0.0
10
57.326599
20
41.881985
30
0.0
10
57.702496
20
42.530136
30
0.0
10
57.969241
20
43.289721
30
0.0
10
58.007064
20
43.898375
30
0.0
10
57.975221
20
44.429853
30
0.0
10
60.874995
20
43.116095
30
0.0
10
60.671910
20
42.546020
30
0.0
10
60.419012
20
42.191024
30
0.0
10
60.363820
20
42.514925
30
0.0
10
60.195436
20
42.943595
30
0.0
10
59.802643
20
43.294623
30
0.0
10
59.301251
20
43.422180
30
0.0
10
58.955212
20
43.039457
30
0.0
10
58.835672
20
42.632385
30
0.0
10
58.918941
20
42.335107
30
0.0
10
59.158685
20
42.208437
30
0.0
10
59.508571
20
42.313187
30
0.0
10
59.704505
20
42.372051
30
0.0
10
59.776993
20
42.256444
30
0.0
10
59.543524
20
41.654522
30
0.0
10
59.318188
20
41.441182
30
0.0
10
59.133370
20
41.725078
30
0.0
10
58.921516
20
42.066310
30
0.0
10
58.674071
20
42.150255
30
0.0
10
58.429780
20
41.983440
30
0.0
10
58.227389
20
41.572396
30
0.0
10
58.193048
20
41.087183
30
0.0
10
58.409384
20
40.745230
30
0.0
10
58.835499
20
40.578895
30
0.0
10
59.430497
20
40.620534
30
0.0
10
59.887728
20
40.644392
30
0.0
10
59.894191
20
40.341122
30
0.0
10
59.694865
20
40.037152
30
0.0
10
59.355081
20
39.964508
30
0.0
10
57.885793
20
40.551852
30
0.0
10
57.885793
20
40.551852
30
0.0
0
LWPOLYLINE
100
AcDbPolyline
8
Calque_1
90
43
70
0
10
25.515864
20
40.785351
30
0.0
10
25.362705
20
41.289651
30
0.0
10
24.783481
20
42.033438
30
0.0
10
24.096889
20
42.669342
30
0.0
10
23.621630
20
42.849993
30
0.0
10
23.453893
20
42.820247
30
0.0
10
23.384126
20
42.954853
30
0.0
10
24.515376
20
44.115593
30
0.0
10
25.223566
20
44.610622
30
0.0
10
25.755507
20
44.824790
30
0.0
10
26.090126
20
44.754597
30
0.0
10
26.206348
20
44.396543
30
0.0
10
26.125159
20
44.247400
30
0.0
10
25.929959
20
44.285138
30
0.0
10
25.557568
20
44.310946
30
0.0
10
25.050367
20
44.133131
30
0.0
10
24.616885
20
43.792823
30
0.0
10
24.876341
20
43.381130
30
0.0
10
25.254381
20
43.152469
30
0.0
10
25.601085
20
43.150971
30
0.0
10
25.801109
20
43.337580
30
0.0
10
25.739106
20
43.673244
30
0.0
10
25.781989
20
43.750691
30
0.0
10
26.157836
20
43.468890
30
0.0
10
26.740704
20
42.873848
30
0.0
10
26.376007
20
42.905729
30
0.0
10
26.017576
20
42.940834
30
0.0
10
25.822305
20
42.773980
30
0.0
10
25.826070
20
42.489688
30
0.0
10
26.064751
20
42.172479
30
0.0
10
26.523765
20
41.950166
30
0.0
10
26.931550
20
42.026513
30
0.0
10
27.223557
20
42.363402
30
0.0
10
27.335237
20
42.922716
30
0.0
10
27.392773
20
43.504568
30
0.0
10
27.741281
20
43.143239
30
0.0
10
27.929709
20
42.817105
30
0.0
10
27.899670
20
42.517682
30
0.0
10
26.965169
20
41.549110
30
0.0
10
25.665253
20
40.553885
30
0.0
10
25.419980
20
40.502178
30
0.0
10
25.515864
20
40.785351
30
0.0
10
25.515864
20
40.785351
30
0.0
0
LWPOLYLINE
100
AcDbPolyline
8
Calque_1
90
31
70
0
10
64.588571
20
41.748742
30
0.0
10
64.171998
20
42.293417
30
0.0
10
64.186040
20
42.416016
30
0.0
10
64.342902
20
42.454298
30
0.0
10
64.963803
20
42.749760
30
0.0
10
65.697374
20
43.418017
30
0.0
10
66.241213
20
44.131880
30
0.0
10
66.347482
20
44.403666
30
0.0
10
66.292916
20
44.564157
30
0.0
10
65.939417
20
44.655095
30
0.0
10
65.539250
20
44.595780
30
0.0
10
65.254755
20
44.566484
30
0.0
10
65.217627
20
44.764800
30
0.0
10
65.428436
20
45.096259
30
0.0
10
65.779159
20
45.119601
30
0.0
10
67.128571
20
44.171019
30
0.0
10
68.077549
20
43.213735
30
0.0
10
68.166316
20
42.931728
30
0.0
10
68.045793
20
42.704279
30
0.0
10
67.762033
20
42.503008
30
0.0
10
67.693015
20
42.804530
30
0.0
10
67.612176
20
43.181572
30
0.0
10
67.417817
20
43.437735
30
0.0
10
66.953301
20
43.277443
30
0.0
10
66.299211
20
42.670981
30
0.0
10
65.743621
20
41.937454
30
0.0
10
65.574601
20
41.395965
30
0.0
10
65.606525
20
41.102094
30
0.0
10
65.424550
20
41.073051
30
0.0
10
64.588571
20
41.748742
30
0.0
10
64.588571
20
41.748742
30
0.0
0
LWPOLYLINE
100
AcDbPolyline
8
Calque_1
90
38
70
0
10
35.910407
20
41.837092
30
0.0
10
36.007575
20
42.392341
30
0.0
10
35.907067
20
43.200977
30
0.0
10
35.661853
20
44.014478
30
0.0
10
35.324898
20
44.584319
30
0.0
10
35.099396
20
44.965327
30
0.0
10
35.570569
20
45.240071
30
0.0
10
37.365147
20
45.718930
30
0.0
10
37.890599
20
45.675306
30
0.0
10
38.152482
20
45.441756
30
0.0
10
38.122404
20
45.132028
30
0.0
10
37.516940
20
45.173402
30
0.0
10
36.947818
20
45.217271
30
0.0
10
36.605360
20
45.092281
30
0.0
10
36.511626
20
44.818596
30
0.0
10
36.688677
20
44.416377
30
0.0
10
36.943243
20
44.170509
30
0.0
10
37.116907
20
44.359298
30
0.0
10
37.314137
20
44.646174
30
0.0
10
37.530756
20
44.695477
30
0.0
10
37.705588
20
44.525988
30
0.0
10
37.777460
20
44.156490
30
0.0
10
37.671830
20
43.772383
30
0.0
10
37.329291
20
43.772880
30
0.0
10
36.996897
20
43.769229
30
0.0
10
36.976513
20
43.292238
30
0.0
10
37.141581
20
42.778650
30
0.0
10
37.431383
20
42.552039
30
0.0
10
37.825234
20
42.617288
30
0.0
10
38.302444
20
42.979282
30
0.0
10
38.789561
20
43.358240
30
0.0
10
39.025638
20
43.114949
30
0.0
10
39.188571
20
42.605832
30
0.0
10
37.954907
20
42.210667
30
0.0
10
36.215278
20
41.705867
30
0.0
10
35.882539
20
41.638997
30
0.0
10
35.910407
20
41.837092
30
0.0
10
35.910407
20
41.837092
30
0.0
0
LWPOLYLINE
100
AcDbPolyline
8
Calque_1
90
19
70
0
10
53.370237
20
42.241714
30
0.0
10
52.495689
20
42.731562
30
0.0
10
52.438535
20
42.935332
30
0.0
10
52.713351
20
43.018742
30
0.0
10
53.022632
20
43.323976
30
0.0
10
53.302597
20
44.044572
30
0.0
10
53.469603
20
44.887872
30
0.0
10
53.440005
20
45.561220
30
0.0
10
53.257258
20
46.137004
30
0.0
10
54.721715
20
45.580555
30
0.0
10
56.256919
20
44.938647
30
0.0
10
56.772230
20
43.910196
30
0.0
10
56.795108
20
43.406901
30
0.0
10
56.654028
20
42.948187
30
0.0
10
56.152749
20
42.279161
30
0.0
10
55.488017
20
41.949091
30
0.0
10
54.585343
20
41.941950
30
0.0
10
53.370237
20
42.241714
30
0.0
10
53.370237
20
42.241714
30
0.0
0
LWPOLYLINE
100
AcDbPolyline
8
Calque_1
90
13
70
0
10
55.501015
20
42.792965
30
0.0
10
55.786144
20
43.320069
30
0.0
10
55.831535
20
43.971545
30
0.0
10
55.654175
20
44.584625
30
0.0
10
55.271049
20
44.996539
30
0.0
10
54.801250
20
45.155984
30
0.0
10
54.590352
20
44.935912
30
0.0
10
54.171204
20
43.611629
30
0.0
10
53.864126
20
42.553296
30
0.0
10
54.077759
20
42.440726
30
0.0
10
54.570221
20
42.464881
30
0.0
10
55.501015
20
42.792965
30
0.0
10
55.501015
20
42.792965
30
0.0
0
LWPOLYLINE
100
AcDbPolyline
8
Calque_1
90
41
70
0
10
28.326196
20
43.306112
30
0.0
10
28.277985
20
43.836138
30
0.0
10
27.876264
20
44.591347
30
0.0
10
27.322543
20
45.269443
30
0.0
10
26.818331
20
45.568132
30
0.0
10
26.569633
20
45.683241
30
0.0
10
27.000068
20
46.121516
30
0.0
10
27.398493
20
46.423591
30
0.0
10
27.751070
20
46.522940
30
0.0
10
29.064833
20
46.108901
30
0.0
10
29.884147
20
45.821693
30
0.0
10
30.238371
20
45.814517
30
0.0
10
30.152988
20
46.115193
30
0.0
10
29.653481
20
46.751540
30
0.0
10
29.286358
20
47.051260
30
0.0
10
28.990852
20
47.087662
30
0.0
10
28.818171
20
47.055427
30
0.0
10
28.746348
20
47.190128
30
0.0
10
28.949626
20
47.461835
30
0.0
10
29.438354
20
47.759003
30
0.0
10
29.966824
20
47.936526
30
0.0
10
29.978562
20
47.678717
30
0.0
10
30.125504
20
47.029936
30
0.0
10
30.691957
20
46.025611
30
0.0
10
31.220728
20
45.103835
30
0.0
10
31.277594
20
44.817091
30
0.0
10
31.191047
20
44.642656
30
0.0
10
30.572506
20
44.619349
30
0.0
10
29.334697
20
45.011186
30
0.0
10
27.899682
20
45.406560
30
0.0
10
28.056695
20
44.986302
30
0.0
10
28.429802
20
44.476473
30
0.0
10
28.872102
20
44.046403
30
0.0
10
29.236695
20
43.865418
30
0.0
10
29.510757
20
43.782921
30
0.0
10
29.310793
20
43.442084
30
0.0
10
28.952909
20
43.158654
30
0.0
10
28.566849
20
43.027340
30
0.0
10
28.306612
20
43.069407
30
0.0
10
28.326196
20
43.306121
30
0.0
10
28.326196
20
43.306112
30
0.0
0
LWPOLYLINE
100
AcDbPolyline
8
Calque_1
90
26
70
0
10
42.361725
20
43.371520
30
0.0
10
41.474765
20
44.923742
30
0.0
10
40.946012
20
45.776677
30
0.0
10
40.523391
20
46.143024
30
0.0
10
40.431554
20
46.233464
30
0.0
10
40.753856
20
46.406909
30
0.0
10
41.815783
20
46.667797
30
0.0
10
42.126623
20
46.601342
30
0.0
10
42.157026
20
46.413698
30
0.0
10
42.177103
20
45.950187
30
0.0
10
42.463116
20
45.220462
30
0.0
10
42.938505
20
44.301160
30
0.0
10
43.195723
20
44.996482
30
0.0
10
43.325299
20
46.179902
30
0.0
10
43.377139
20
46.586330
30
0.0
10
43.754384
20
46.844694
30
0.0
10
44.182300
20
46.911174
30
0.0
10
44.473575
20
46.839896
30
0.0
10
44.557996
20
46.674999
30
0.0
10
44.365350
20
46.460620
30
0.0
10
43.996670
20
45.845276
30
0.0
10
43.545873
20
44.641520
30
0.0
10
42.936196
20
43.152248
30
0.0
10
42.675136
20
43.081110
30
0.0
10
42.361725
20
43.371520
30
0.0
10
42.361725
20
43.371520
30
0.0
0
LWPOLYLINE
100
AcDbPolyline
8
Calque_1
90
33
70
0
10
48.131535
20
43.222583
30
0.0
10
47.554543
20
43.396557
30
0.0
10
47.673415
20
43.746198
30
0.0
10
47.881613
20
44.407757
30
0.0
10
47.880005
20
45.492965
30
0.0
10
47.751015
20
46.835383
30
0.0
10
49.181853
20
46.690950
30
0.0
10
50.347195
20
46.463438
30
0.0
10
50.595936
20
46.268361
30
0.0
10
50.701358
20
45.982076
30
0.0
10
50.703763
20
45.657922
30
0.0
10
50.563187
20
45.732371
30
0.0
10
49.701348
20
46.245279
30
0.0
10
49.187129
20
46.289032
30
0.0
10
49.066348
20
45.829789
30
0.0
10
49.166900
20
45.400473
30
0.0
10
49.489682
20
45.378580
30
0.0
10
49.816782
20
45.341142
30
0.0
10
49.913015
20
44.824172
30
0.0
10
49.842459
20
44.291915
30
0.0
10
49.469523
20
44.550805
30
0.0
10
48.904246
20
44.955325
30
0.0
10
48.784126
20
44.318937
30
0.0
10
48.916023
20
43.778591
30
0.0
10
49.256846
20
43.484449
30
0.0
10
49.724290
20
43.468125
30
0.0
10
50.236052
20
43.761235
30
0.0
10
50.683355
20
44.077386
30
0.0
10
50.759682
20
43.626928
30
0.0
10
50.641737
20
43.252714
30
0.0
10
50.226149
20
43.070086
30
0.0
10
48.131535
20
43.222583
30
0.0
10
48.131535
20
43.222583
30
0.0
0
LWPOLYLINE
100
AcDbPolyline
8
Calque_1
90
24
70
0
10
45.341015
20
43.639631
30
0.0
10
45.578240
20
44.243967
30
0.0
10
45.672216
20
45.175572
30
0.0
10
45.614703
20
46.030651
30
0.0
10
45.397460
20
46.405409
30
0.0
10
45.198140
20
46.488312
30
0.0
10
45.115237
20
46.687631
30
0.0
10
45.405397
20
46.886951
30
0.0
10
46.103015
20
46.969853
30
0.0
10
46.800633
20
46.886951
30
0.0
10
47.090793
20
46.687631
30
0.0
10
47.007890
20
46.488312
30
0.0
10
46.808571
20
46.405409
30
0.0
10
46.582946
20
45.973593
30
0.0
10
46.527540
20
45.010772
30
0.0
10
46.630289
20
44.015885
30
0.0
10
46.879126
20
43.487875
30
0.0
10
46.928140
20
43.430846
30
0.0
10
46.800810
20
43.380796
30
0.0
10
46.117126
20
43.323246
30
0.0
10
45.305150
20
43.376163
30
0.0
10
45.229229
20
43.476635
30
0.0
10
45.341015
20
43.639631
30
0.0
10
45.341015
20
43.639631
30
0.0
0
LWPOLYLINE
100
AcDbPolyline
8
Calque_1
90
36
70
0
10
62.236720
20
43.489114
30
0.0
10
62.047515
20
45.394114
30
0.0
10
62.046386
20
47.110965
30
0.0
10
61.466089
20
46.159119
30
0.0
10
61.100071
20
45.372694
30
0.0
10
61.034953
20
44.818564
30
0.0
10
61.086810
20
44.545612
30
0.0
10
60.970904
20
44.455365
30
0.0
10
60.284608
20
44.822712
30
0.0
10
59.801994
20
45.380147
30
0.0
10
59.823301
20
45.509563
30
0.0
10
60.062277
20
45.424216
30
0.0
10
60.491333
20
45.648309
30
0.0
10
61.071906
20
46.383950
30
0.0
10
61.540904
20
47.233725
30
0.0
10
61.635231
20
47.800222
30
0.0
10
61.563781
20
48.022630
30
0.0
10
61.699061
20
48.077169
30
0.0
10
62.401275
20
47.705866
30
0.0
10
62.785086
20
47.072201
30
0.0
10
62.901441
20
45.809844
30
0.0
10
62.907791
20
44.288734
30
0.0
10
63.468036
20
44.994289
30
0.0
10
63.829783
20
45.636229
30
0.0
10
63.912795
20
46.188837
30
0.0
10
63.921543
20
46.527970
30
0.0
10
64.318334
20
46.398986
30
0.0
10
65.001233
20
45.842753
30
0.0
10
65.056563
20
45.650656
30
0.0
10
64.848523
20
45.622296
30
0.0
10
64.362359
20
45.324728
30
0.0
10
63.680001
20
44.500401
30
0.0
10
62.789049
20
43.412648
30
0.0
10
62.500936
20
43.326637
30
0.0
10
62.236723
20
43.489105
30
0.0
10
62.236720
20
43.489114
30
0.0
0
LWPOLYLINE
100
AcDbPolyline
8
Calque_1
90
39
70
0
10
57.868261
20
46.054353
30
0.0
10
56.729924
20
46.673526
30
0.0
10
56.639448
20
46.874522
30
0.0
10
56.800730
20
47.067031
30
0.0
10
57.238671
20
47.607636
30
0.0
10
57.643616
20
48.410765
30
0.0
10
57.895586
20
49.187814
30
0.0
10
57.874603
20
49.650177
30
0.0
10
57.935373
20
49.743760
30
0.0
10
58.400990
20
49.638962
30
0.0
10
59.861348
20
49.043518
30
0.0
10
60.592155
20
48.458865
30
0.0
10
60.595598
20
48.195763
30
0.0
10
60.355237
20
47.957631
30
0.0
10
60.155918
20
47.954824
30
0.0
10
60.073015
20
48.193002
30
0.0
10
59.949015
20
48.512652
30
0.0
10
59.646152
20
48.754130
30
0.0
10
59.268131
20
48.863934
30
0.0
10
58.918658
20
48.788558
30
0.0
10
58.661904
20
48.204181
30
0.0
10
58.796665
20
47.922343
30
0.0
10
59.229405
20
47.958602
30
0.0
10
59.657258
20
47.993478
30
0.0
10
59.441740
20
47.359216
30
0.0
10
59.144282
20
46.855216
30
0.0
10
58.994658
20
47.057004
30
0.0
10
58.786814
20
47.452775
30
0.0
10
58.477590
20
47.539985
30
0.0
10
58.215332
20
47.346278
30
0.0
10
58.148387
20
46.899298
30
0.0
10
58.384608
20
46.401861
30
0.0
10
59.014682
20
46.275423
30
0.0
10
59.728020
20
46.171109
30
0.0
10
59.746759
20
45.985917
30
0.0
10
59.574805
20
45.674953
30
0.0
10
59.052043
20
45.610436
30
0.0
10
57.868261
20
46.054353
30
0.0
10
57.868261
20
46.054353
30
0.0
0
LWPOLYLINE
100
AcDbPolyline
8
Calque_1
90
28
70
0
10
32.867123
20
45.954714
30
0.0
10
32.795946
20
46.603990
30
0.0
10
32.419110
20
47.510975
30
0.0
10
31.938937
20
48.279998
30
0.0
10
31.557750
20
48.515387
30
0.0
10
31.286348
20
47.940975
30
0.0
10
31.203446
20
47.653759
30
0.0
10
31.004126
20
47.534298
30
0.0
10
30.804807
20
47.684848
30
0.0
10
30.721904
20
48.046811
30
0.0
10
31.082040
20
48.584475
30
0.0
10
32.209026
20
49.175700
30
0.0
10
33.792778
20
49.750337
30
0.0
10
34.056730
20
49.673595
30
0.0
10
34.206962
20
49.378304
30
0.0
10
34.160930
20
49.083127
30
0.0
10
33.516677
20
49.134343
30
0.0
10
32.667617
20
49.304156
30
0.0
10
33.297932
20
48.006775
30
0.0
10
33.873208
20
47.062408
30
0.0
10
34.371187
20
46.613760
30
0.0
10
34.513132
20
46.542338
30
0.0
10
34.485003
20
46.424227
30
0.0
10
33.910919
20
46.038435
30
0.0
10
32.904314
20
45.586807
30
0.0
10
32.793385
20
45.670632
30
0.0
10
32.867123
20
45.954714
30
0.0
10
32.867123
20
45.954714
30
0.0
0
LWPOLYLINE
100
AcDbPolyline
8
Calque_1
90
70
70
0
10
35.657206
20
47.246270
30
0.0
10
35.676561
20
47.791608
30
0.0
10
35.484476
20
48.650333
30
0.0
10
35.192096
20
49.443479
30
0.0
10
34.910564
20
49.792076
30
0.0
10
34.673015
20
50.020430
30
0.0
10
35.103333
20
50.321435
30
0.0
10
36.066141
20
50.689639
30
0.0
10
37.069225
20
50.964127
30
0.0
10
37.620369
20
50.983982
30
0.0
10
37.777460
20
50.416038
30
0.0
10
37.695585
20
50.159930
30
0.0
10
37.389898
20
50.326833
30
0.0
10
36.990222
20
50.500046
30
0.0
10
36.563101
20
50.466138
30
0.0
10
36.222937
20
50.260781
30
0.0
10
36.084126
20
49.919649
30
0.0
10
36.172882
20
49.557873
30
0.0
10
36.383044
20
49.373712
30
0.0
10
36.630453
20
49.396792
30
0.0
10
36.830951
20
49.656739
30
0.0
10
37.021406
20
49.953143
30
0.0
10
37.247968
20
49.745184
30
0.0
10
37.454037
20
49.314246
30
0.0
10
37.466882
20
49.004492
30
0.0
10
37.295756
20
48.843447
30
0.0
10
36.949913
20
48.858634
30
0.0
10
36.542522
20
48.856466
30
0.0
10
36.559496
20
48.408879
30
0.0
10
36.821028
20
47.975201
30
0.0
10
37.240042
20
47.837763
30
0.0
10
37.725106
20
47.994604
30
0.0
10
38.184791
20
48.443762
30
0.0
10
38.537008
20
48.851984
30
0.0
10
38.624126
20
48.593729
30
0.0
10
38.734934
20
48.278674
30
0.0
10
39.065965
20
48.286008
30
0.0
10
39.273214
20
48.421656
30
0.0
10
39.378315
20
48.658492
30
0.0
10
39.316279
20
49.617705
30
0.0
10
38.868491
20
51.098161
30
0.0
10
38.848125
20
51.358784
30
0.0
10
39.202172
20
51.568719
30
0.0
10
40.820207
20
51.763779
30
0.0
10
41.468745
20
51.662554
30
0.0
10
41.866569
20
51.387516
30
0.0
10
41.974175
20
50.991148
30
0.0
10
41.752057
20
50.525930
30
0.0
10
41.634257
20
50.303911
30
0.0
10
41.671851
20
50.070099
30
0.0
10
42.284238
20
49.419435
30
0.0
10
42.942849
20
48.770171
30
0.0
10
42.856378
20
48.629659
30
0.0
10
42.520404
20
48.504671
30
0.0
10
41.908206
20
48.510763
30
0.0
10
41.311048
20
49.050317
30
0.0
10
40.548883
20
49.757229
30
0.0
10
40.373194
20
49.645858
30
0.0
10
40.317460
20
49.227631
30
0.0
10
40.400362
20
48.828992
30
0.0
10
40.599682
20
48.663187
30
0.0
10
40.799001
20
48.580284
30
0.0
10
40.881904
20
48.380965
30
0.0
10
40.653921
20
48.179607
30
0.0
10
40.105793
20
48.091803
30
0.0
10
37.663095
20
47.527358
30
0.0
10
35.864614
20
47.002001
30
0.0
10
35.602944
20
47.033667
30
0.0
10
35.657206
20
47.246270
30
0.0
10
35.657206
20
47.246270
30
0.0
0
LWPOLYLINE
100
AcDbPolyline
8
Calque_1
90
10
70
0
10
40.830977
20
50.687191
30
0.0
10
40.658497
20
51.164866
30
0.0
10
40.390311
20
51.404670
30
0.0
10
40.143523
20
51.361817
30
0.0
10
40.035237
20
50.991520
30
0.0
10
40.199656
20
50.313256
30
0.0
10
40.666348
20
50.074298
30
0.0
10
40.819818
20
50.254335
30
0.0
10
40.830977
20
50.687191
30
0.0
10
40.830977
20
50.687191
30
0.0
0
LWPOLYLINE
100
AcDbPolyline
8
Calque_1
90
47
70
0
10
54.737271
20
47.277177
30
0.0
10
54.249295
20
47.561374
30
0.0
10
54.497105
20
47.894286
30
0.0
10
54.866685
20
48.345600
30
0.0
10
55.138899
20
48.945409
30
0.0
10
55.206857
20
49.267453
30
0.0
10
55.124519
20
49.318840
30
0.0
10
54.344666
20
48.522076
30
0.0
10
53.347555
20
47.393187
30
0.0
10
53.134582
20
48.945409
30
0.0
10
52.919065
20
50.135725
30
0.0
10
52.823356
20
50.076500
30
0.0
10
52.691784
20
49.650965
30
0.0
10
52.605621
20
48.348204
30
0.0
10
52.573487
20
48.013717
30
0.0
10
52.036703
20
48.028325
30
0.0
10
51.362557
20
48.302991
30
0.0
10
51.453664
20
48.514979
30
0.0
10
51.818015
20
48.820991
30
0.0
10
52.193067
20
49.395879
30
0.0
10
52.311904
20
50.431603
30
0.0
10
52.411738
20
51.477811
30
0.0
10
52.622655
20
51.571435
30
0.0
10
53.017460
20
51.494014
30
0.0
10
53.600213
20
51.137520
30
0.0
10
53.810608
20
50.267290
30
0.0
10
53.912518
20
49.605612
30
0.0
10
54.086639
20
49.288334
30
0.0
10
54.347146
20
49.305677
30
0.0
10
54.708213
20
49.647857
30
0.0
10
55.027083
20
49.899797
30
0.0
10
55.303982
20
49.915421
30
0.0
10
55.429063
20
49.936264
30
0.0
10
55.382922
20
50.200750
30
0.0
10
55.383359
20
50.531040
30
0.0
10
55.738931
20
50.634422
30
0.0
10
56.683120
20
50.357374
30
0.0
10
56.926243
20
50.167781
30
0.0
10
56.767781
20
50.078619
30
0.0
10
56.441301
20
49.733813
30
0.0
10
56.127761
20
48.936653
30
0.0
10
55.930559
20
48.031723
30
0.0
10
55.953093
20
47.363607
30
0.0
10
55.973926
20
47.105152
30
0.0
10
55.777866
20
47.004569
30
0.0
10
54.737271
20
47.277177
30
0.0
10
54.737271
20
47.277177
30
0.0
0
LWPOLYLINE
100
AcDbPolyline
8
Calque_1
90
41
70
0
10
48.413757
20
48.584805
30
0.0
10
47.868399
20
48.754230
30
0.0
10
47.881340
20
49.036409
30
0.0
10
48.150242
20
49.677269
30
0.0
10
48.327628
20
50.592337
30
0.0
10
48.367289
20
51.412247
30
0.0
10
48.223018
20
51.767631
30
0.0
10
47.937460
20
52.000975
30
0.0
10
48.129352
20
52.117012
30
0.0
10
48.654960
20
52.134584
30
0.0
10
50.406904
20
51.888067
30
0.0
10
50.860415
20
51.655442
30
0.0
10
51.037583
20
51.268366
30
0.0
10
50.979433
20
50.992656
30
0.0
10
50.825916
20
51.094593
30
0.0
10
49.983571
20
51.607501
30
0.0
10
49.476582
20
51.657579
30
0.0
10
49.348571
20
51.269241
30
0.0
10
49.402049
20
50.813671
30
0.0
10
49.553692
20
50.555942
30
0.0
10
49.790310
20
50.506489
30
0.0
10
50.098714
20
50.675747
30
0.0
10
50.343677
20
50.826534
30
0.0
10
50.441590
20
50.751716
30
0.0
10
50.195237
20
49.933187
30
0.0
10
50.018109
20
49.638176
30
0.0
10
49.932852
20
49.721520
30
0.0
10
49.794484
20
49.970669
30
0.0
10
49.489682
20
50.074298
30
0.0
10
49.175686
20
49.911211
30
0.0
10
49.076993
20
49.536083
30
0.0
10
49.190415
20
49.120111
30
0.0
10
49.512768
20
48.834493
30
0.0
10
50.089932
20
48.694880
30
0.0
10
50.598414
20
49.106679
30
0.0
10
50.971348
20
49.386610
30
0.0
10
51.041904
20
48.965568
30
0.0
10
50.920292
20
48.606716
30
0.0
10
50.498594
20
48.431876
30
0.0
10
48.413757
20
48.584805
30
0.0
10
48.413757
20
48.584805
30
0.0
0
LWPOLYLINE
100
AcDbPolyline
8
Calque_1
90
29
70
0
10
43.659690
20
50.215025
30
0.0
10
43.651055
20
51.363926
30
0.0
10
43.448024
20
51.767631
30
0.0
10
43.230257
20
51.850534
30
0.0
10
43.139682
20
52.049853
30
0.0
10
43.496951
20
52.235530
30
0.0
10
44.337422
20
52.324635
30
0.0
10
45.314084
20
52.304079
30
0.0
10
46.079932
20
52.160770
30
0.0
10
46.381482
20
51.841371
30
0.0
10
46.517005
20
51.327239
30
0.0
10
46.466666
20
50.849365
30
0.0
10
46.210629
20
50.638742
30
0.0
10
46.208966
20
50.348583
30
0.0
10
46.648325
20
49.650965
30
0.0
10
47.401740
20
48.663187
30
0.0
10
46.742672
20
48.663187
30
0.0
10
46.109926
20
48.891151
30
0.0
10
45.530445
20
49.580409
30
0.0
10
45.039635
20
50.280274
30
0.0
10
44.880459
20
49.823992
30
0.0
10
44.922956
20
49.277951
30
0.0
10
45.161101
20
48.911091
30
0.0
10
45.262018
20
48.806958
30
0.0
10
45.192984
20
48.731204
30
0.0
10
44.550793
20
48.667124
30
0.0
10
43.563015
20
48.662411
30
0.0
10
43.659690
20
50.215017
30
0.0
10
43.659690
20
50.215025
30
0.0
0
LWPOLYLINE
100
AcDbPolyline
8
Calque_1
90
10
70
0
10
45.538571
20
51.203187
30
0.0
10
45.434942
20
51.503488
30
0.0
10
45.185793
20
51.697076
30
0.0
10
44.930707
20
51.612771
30
0.0
10
44.833015
20
51.203187
30
0.0
10
44.930707
20
50.793603
30
0.0
10
45.185793
20
50.709298
30
0.0
10
45.434942
20
50.902885
30
0.0
10
45.538571
20
51.203187
30
0.0
10
45.538571
20
51.203187
30
0.0
0
LWPOLYLINE
100
AcDbPolyline
8
Calque_1
90
65
70
0
10
42.293015
20
53.596389
30
0.0
10
42.375918
20
54.325734
30
0.0
10
42.575237
20
54.730965
30
0.0
10
42.774557
20
55.129267
30
0.0
10
42.857460
20
55.841952
30
0.0
10
42.926407
20
56.505905
30
0.0
10
43.168303
20
56.969764
30
0.0
10
43.635728
20
57.291786
30
0.0
10
44.381262
20
57.530225
30
0.0
10
45.199512
20
57.726203
30
0.0
10
45.035303
20
61.201524
30
0.0
10
44.799656
20
64.004748
30
0.0
10
44.445705
20
65.694948
30
0.0
10
43.866245
20
66.630272
30
0.0
10
43.024291
20
67.305092
30
0.0
10
41.931538
20
67.712864
30
0.0
10
40.599682
20
67.847045
30
0.0
10
39.133452
20
67.698989
30
0.0
10
37.840939
20
67.269107
30
0.0
10
36.734943
20
66.563463
30
0.0
10
35.828264
20
65.588121
30
0.0
10
34.959054
20
64.096336
30
0.0
10
34.133155
20
62.162189
30
0.0
10
33.444758
20
60.038108
30
0.0
10
32.988055
20
57.976520
30
0.0
10
32.465049
20
55.066820
30
0.0
10
32.272770
20
54.662883
30
0.0
10
32.021083
20
54.589853
30
0.0
10
31.648658
20
54.712334
30
0.0
10
31.291640
20
55.006811
30
0.0
10
31.146153
20
55.458065
30
0.0
10
31.154114
20
56.220743
30
0.0
10
31.565511
20
58.425041
30
0.0
10
32.396087
20
61.109041
30
0.0
10
33.516096
20
63.762076
30
0.0
10
35.248824
20
66.817382
30
0.0
10
36.087152
20
67.896552
30
0.0
10
36.948533
20
68.709223
30
0.0
10
37.864273
20
69.279763
30
0.0
10
38.865678
20
69.632539
30
0.0
10
39.984057
20
69.791919
30
0.0
10
41.250715
20
69.782271
30
0.0
10
42.944366
20
69.517225
30
0.0
10
44.414732
20
68.979925
30
0.0
10
45.564810
20
68.218449
30
0.0
10
46.297593
20
67.280876
30
0.0
10
46.712942
20
65.491992
30
0.0
10
46.970809
20
61.627169
30
0.0
10
47.167221
20
56.952260
30
0.0
10
48.163652
20
56.406058
30
0.0
10
48.972651
20
55.877038
30
0.0
10
49.456581
20
55.371658
30
0.0
10
49.590276
20
54.928566
30
0.0
10
49.348571
20
54.586408
30
0.0
10
48.643015
20
54.206387
30
0.0
10
48.532861
20
54.024557
30
0.0
10
48.713571
20
53.722020
30
0.0
10
49.040480
20
53.223989
30
0.0
10
48.983364
20
53.052527
30
0.0
10
48.752104
20
52.923601
30
0.0
10
47.685862
20
52.765874
30
0.0
10
45.679174
20
52.695823
30
0.0
10
42.293015
20
52.636238
30
0.0
10
42.293015
20
53.596389
30
0.0
10
42.293015
20
53.596389
30
0.0
  0
ENDSEC
  0
SECTION
  2
OBJECTS
  0
DICTIONARY
  5
C
330
0
100
AcDbDictionary
  3
ACAD_GROUP
350
D
  3
ACAD_MLINESTYLE
350
17
  0
DICTIONARY
  5
D
330
C
100
AcDbDictionary
  0
DICTIONARY
  5
1A
330
C
100
AcDbDictionary
  0
DICTIONARY
  5
17
330
C
100
AcDbDictionary
  3
STANDARD
350
18
  0
DICTIONARY
  5
19
330
C
100
AcDbDictionary
  0
ENDSEC
  0
EOF
