999
Inkscape export via OpenSCAD DXF Export
  0
SECTION
  2
HEADER
  9
$ACADVER
  1
AC1014
  9
$HANDSEED
  5
FFFF
  9
$MEASUREMENT
 70
     1
  0
ENDSEC
  0
SECTION
  2
TABLES
  0
TABLE
  2
VPORT
  5
8
330
0
100
AcDbSymbolTable
 70
     4
  0
VPORT
  5
2E
330
8
100
AcDbSymbolTableRecord
100
AcDbViewportTableRecord
  2
*ACTIVE
 70
     0
 10
0.0
 20
0.0
 11
1.0
 21
1.0
 12
210.0
 22
148.5
 13
0.0
 23
0.0
 14
10.0
 24
10.0
 15
10.0
 25
10.0
 16
0.0
 26
0.0
 36
1.0
 17
0.0
 27
0.0
 37
0.0
 40
341.0
 41
1.24
 42
50.0
 43
0.0
 44
0.0
 50
0.0
 51
0.0
 71
     0
 72
   100
 73
     1
 74
     3
 75
     0
 76
     0
 77
     0
 78
     0
  0
ENDTAB
  0
TABLE
  2
LTYPE
  5
5
330
0
100
AcDbSymbolTable
 70
     1
  0
LTYPE
  5
14
330
5
100
AcDbSymbolTableRecord
100
AcDbLinetypeTableRecord
  2
BYBLOCK
 70
     0
  3

 72
    65
 73
     0
 40
0.0
  0
LTYPE
  5
15
330
5
100
AcDbSymbolTableRecord
100
AcDbLinetypeTableRecord
  2
BYLAYER
 70
     0
  3

 72
    65
 73
     0
 40
0.0
  0
LTYPE
  5
16
330
5
100
AcDbSymbolTableRecord
100
AcDbLinetypeTableRecord
  2
CONTINUOUS
 70
     0
  3
Solid line
 72
    65
 73
     0
 40
0.0
  0
ENDTAB
  0
TABLE
0
TABLE
2
LAYER
5
2
330
0
100
AcDbSymbolTable
70
1
0
LAYER
5
10
330
2
100
AcDbSymbolTableRecord
100
AcDbLayerTableRecord
2
Calque_1
70
0
62
7
6
CONTINUOUS
0
ENDTAB
0
ENDSEC
  0
ENDTAB
  0
TABLE
  2
STYLE
  5
3
330
0
100
AcDbSymbolTable
 70
     1
  0
STYLE
  5
11
330
3
100
AcDbSymbolTableRecord
100
AcDbTextStyleTableRecord
  2
STANDARD
 70
     0
 40
0.0
 41
1.0
 50
0.0
 71
     0
 42
2.5
  3
txt
  4

  0
ENDTAB
  0
TABLE
  2
VIEW
  5
6
330
0
100
AcDbSymbolTable
 70
     0
  0
ENDTAB
  0
TABLE
  2
UCS
  5
7
330
0
100
AcDbSymbolTable
 70
     0
  0
ENDTAB
  0
TABLE
  2
APPID
  5
9
330
0
100
AcDbSymbolTable
 70
     2
  0
APPID
  5
12
330
9
100
AcDbSymbolTableRecord
100
AcDbRegAppTableRecord
  2
ACAD
 70
     0
  0
ENDTAB
  0
TABLE
  2
DIMSTYLE
  5
A
330
0
100
AcDbSymbolTable
 70
     1
  0
DIMSTYLE
105
27
330
A
100
AcDbSymbolTableRecord
100
AcDbDimStyleTableRecord
  2
ISO-25
 70
     0
  3

  4

  5

  6

  7

 40
1.0
 41
2.5
 42
0.625
 43
3.75
 44
1.25
 45
0.0
 46
0.0
 47
0.0
 48
0.0
140
2.5
141
2.5
142
0.0
143
0.03937007874016
144
1.0
145
0.0
146
1.0
147
0.625
 71
     0
 72
     0
 73
     0
 74
     0
 75
     0
 76
     0
 77
     1
 78
     8
170
     0
171
     3
172
     1
173
     0
174
     0
175
     0
176
     0
177
     0
178
     0
270
     2
271
     2
272
     2
273
     2
274
     3
340
11
275
     0
280
     0
281
     0
282
     0
283
     0
284
     8
285
     0
286
     0
287
     3
288
     0
  0
ENDTAB
  0
TABLE
  2
BLOCK_RECORD
  5
1
330
0
100
AcDbSymbolTable
 70
     1
  0
BLOCK_RECORD
  5
1F
330
1
100
AcDbSymbolTableRecord
100
AcDbBlockTableRecord
  2
*MODEL_SPACE
  0
BLOCK_RECORD
  5
1B
330
1
100
AcDbSymbolTableRecord
100
AcDbBlockTableRecord
  2
*PAPER_SPACE
  0
ENDTAB
  0
ENDSEC
  0
SECTION
  2
BLOCKS
  0
BLOCK
  5
20
330
1F
100
AcDbEntity
  8
0
100
AcDbBlockBegin
  2
*MODEL_SPACE
 70
     0
 10
0.0
 20
0.0
 30
0.0
  3
*MODEL_SPACE
  1

  0
ENDBLK
  5
21
330
1F
100
AcDbEntity
  8
0
100
AcDbBlockEnd
  0
BLOCK
  5
1C
330
1B
100
AcDbEntity
 67
     1
  8
0
100
AcDbBlockBegin
  2
*PAPER_SPACE
  1

  0
ENDBLK
  5
1D
330
1B
100
AcDbEntity
 67
     1
  8
0
100
AcDbBlockEnd
  0
ENDSEC
  0
SECTION
  2
ENTITIES
0
DIMENSION
5
83
100
AcDbEntity
62
256
370
-1
6
ByLayer
1
total_width
3
Standard
70
0
71
5
72
1
41
1.0
100
AcDbAlignedDimension
13
84.519860
23
0.000000
33
0.0
14
127.094196
24
0.000000
34
0.0
50
0.000000
100
AcDbRotatedDimension
0
DIMENSION
5
83
100
AcDbEntity
62
256
370
-1
6
ByLayer
1
total_height
3
Standard
70
0
71
5
72
1
41
1.0
100
AcDbAlignedDimension
13
0.000000
23
119.766698
33
0.0
14
0.000000
24
173.809482
34
0.0
50
90.000000
100
AcDbRotatedDimension
0
DIMENSION
8
Calque_1
5
83
100
AcDbEntity
62
256
370
-1
6
ByLayer
1
Calque_1_width
3
Standard
70
0
71
5
72
1
41
1.0
100
AcDbAlignedDimension
13
84.519860
23
0.000000
33
0.0
14
127.094196
24
0.000000
34
0.0
50
0.000000
100
AcDbRotatedDimension
0
DIMENSION
8
Calque_1
5
83
100
AcDbEntity
62
256
370
-1
6
ByLayer
1
Calque_1_height
3
Standard
70
0
71
5
72
1
41
1.0
100
AcDbAlignedDimension
13
0.000000
23
119.766698
33
0.0
14
0.000000
24
173.809482
34
0.0
50
90.000000
100
AcDbRotatedDimension
0
LWPOLYLINE
100
AcDbPolyline
8
Calque_1
90
215
70
0
10
111.439731
20
120.273057
30
0.0
10
111.153294
20
121.346936
30
0.0
10
111.136323
20
122.927062
30
0.0
10
111.378073
20
124.846133
30
0.0
10
111.867798
20
126.936848
30
0.0
10
112.557394
20
129.538917
30
0.0
10
112.485121
20
129.746809
30
0.0
10
112.170159
20
129.529074
30
0.0
10
111.475326
20
128.802176
30
0.0
10
110.916280
20
127.879735
30
0.0
10
110.483687
20
126.742358
30
0.0
10
110.168210
20
125.370651
30
0.0
10
109.841312
20
123.887412
30
0.0
10
109.449985
20
122.806151
30
0.0
10
109.002703
20
122.144478
30
0.0
10
108.507939
20
121.920007
30
0.0
10
108.287726
20
121.999664
30
0.0
10
108.150063
20
122.224249
30
0.0
10
108.112283
20
123.021875
30
0.0
10
108.374387
20
124.140238
30
0.0
10
108.916160
20
125.406690
30
0.0
10
109.562978
20
126.938241
30
0.0
10
109.525412
20
128.328128
30
0.0
10
109.380727
20
129.172369
30
0.0
10
109.305790
20
129.339692
30
0.0
10
109.202219
20
129.306799
30
0.0
10
108.098074
20
126.717785
30
0.0
10
107.348570
20
125.026842
30
0.0
10
106.525917
20
123.527862
30
0.0
10
105.671756
20
122.288838
30
0.0
10
104.827728
20
121.377768
30
0.0
10
104.075589
20
120.793128
30
0.0
10
103.491822
20
120.555666
30
0.0
10
102.980743
20
120.653148
30
0.0
10
102.446667
20
121.073340
30
0.0
10
102.138888
20
121.516475
30
0.0
10
101.964120
20
122.069705
30
0.0
10
101.987125
20
123.367313
30
0.0
10
102.462691
20
124.687895
30
0.0
10
103.337828
20
125.753177
30
0.0
10
103.790595
20
126.283943
30
0.0
10
103.913672
20
126.799282
30
0.0
10
103.968010
20
127.525668
30
0.0
10
104.241179
20
128.563171
30
0.0
10
104.479393
20
129.550746
30
0.0
10
104.444734
20
129.775417
30
0.0
10
104.318825
20
129.823334
30
0.0
10
103.827029
20
129.396868
30
0.0
10
103.071557
20
128.287285
30
0.0
10
102.344659
20
127.253360
30
0.0
10
101.676171
20
126.648058
30
0.0
10
101.111060
20
126.498878
30
0.0
10
100.694287
20
126.833318
30
0.0
10
100.534107
20
127.066034
30
0.0
10
100.361075
20
127.130364
30
0.0
10
99.709800
20
126.724349
30
0.0
10
98.778649
20
126.180157
30
0.0
10
98.563770
20
126.261761
30
0.0
10
98.495556
20
126.576674
30
0.0
10
98.426576
20
126.895332
30
0.0
10
98.229295
20
126.976652
30
0.0
10
97.507778
20
126.435563
30
0.0
10
96.946103
20
125.982062
30
0.0
10
96.447987
20
125.869011
30
0.0
10
96.091710
20
126.086813
30
0.0
10
95.955556
20
126.625868
30
0.0
10
95.955556
20
127.380620
30
0.0
10
95.264359
20
126.731275
30
0.0
10
94.699843
20
126.346793
30
0.0
10
94.197105
20
126.256496
30
0.0
10
93.834779
20
126.450918
30
0.0
10
93.691501
20
126.920595
30
0.0
10
93.592534
20
127.209051
30
0.0
10
93.173973
20
126.758611
30
0.0
10
92.654681
20
126.305003
30
0.0
10
92.121917
20
126.205114
30
0.0
10
91.744559
20
126.502035
30
0.0
10
91.645292
20
127.154167
30
0.0
10
91.822250
20
128.122577
30
0.0
10
92.273566
20
129.368334
30
0.0
10
92.809348
20
130.415212
30
0.0
10
93.100248
20
130.628210
30
0.0
10
93.085517
20
130.080874
30
0.0
10
92.704406
20
128.846748
30
0.0
10
92.273585
20
127.455454
30
0.0
10
92.306084
20
126.846896
30
0.0
10
92.668573
20
126.805695
30
0.0
10
93.073668
20
127.129171
30
0.0
10
94.095965
20
128.970144
30
0.0
10
95.147576
20
130.833917
30
0.0
10
95.326025
20
130.893948
30
0.0
10
95.332826
20
130.653405
30
0.0
10
94.701193
20
128.626208
30
0.0
10
94.384255
20
127.419356
30
0.0
10
94.380403
20
126.791764
30
0.0
10
94.567950
20
126.757974
30
0.0
10
94.833255
20
126.919429
30
0.0
10
95.524300
20
127.725152
30
0.0
10
96.307865
20
129.003092
30
0.0
10
97.038279
20
130.547410
30
0.0
10
97.879380
20
132.612546
30
0.0
10
97.009757
20
132.699056
30
0.0
10
96.362287
20
132.861624
30
0.0
10
96.026772
20
133.131005
30
0.0
10
96.014253
20
133.282462
30
0.0
10
96.122157
20
133.338976
30
0.0
10
96.787044
20
133.171897
30
0.0
10
97.442839
20
133.036532
30
0.0
10
97.964609
20
133.139781
30
0.0
10
98.362025
20
133.486376
30
0.0
10
98.644755
20
134.081050
30
0.0
10
98.860638
20
134.498482
30
0.0
10
99.082393
20
134.606864
30
0.0
10
99.221546
20
134.424364
30
0.0
10
99.189622
20
133.969152
30
0.0
10
99.126630
20
133.617650
30
0.0
10
99.201788
20
133.436520
30
0.0
10
99.997579
20
133.431693
30
0.0
10
100.736698
20
133.425804
30
0.0
10
101.149765
20
133.252423
30
0.0
10
101.100936
20
133.051333
30
0.0
10
100.689210
20
132.994915
30
0.0
10
99.526964
20
133.011580
30
0.0
10
98.812393
20
132.770265
30
0.0
10
98.287215
20
132.076072
30
0.0
10
97.693147
20
130.734100
30
0.0
10
96.630458
20
127.548746
30
0.0
10
96.561511
20
126.698596
30
0.0
10
96.652112
20
126.505776
30
0.0
10
96.829705
20
126.485553
30
0.0
10
97.263927
20
126.853970
30
0.0
10
97.909445
20
127.676241
30
0.0
10
99.421589
20
130.105784
30
0.0
10
99.857139
20
130.783260
30
0.0
10
100.051363
20
130.847833
30
0.0
10
99.983187
20
130.368795
30
0.0
10
99.631537
20
129.415443
30
0.0
10
99.227889
20
128.258935
30
0.0
10
99.060000
20
127.350747
30
0.0
10
99.060000
20
126.619394
30
0.0
10
99.744849
20
127.262776
30
0.0
10
100.410040
20
128.164394
30
0.0
10
101.047626
20
129.428639
30
0.0
10
101.557314
20
130.503889
30
0.0
10
101.915000
20
130.951118
30
0.0
10
102.093676
20
130.936742
30
0.0
10
102.123568
20
130.765564
30
0.0
10
101.600000
20
129.184497
30
0.0
10
101.068293
20
127.378911
30
0.0
10
101.140788
20
127.073831
30
0.0
10
101.425491
20
127.000007
30
0.0
10
101.998641
20
127.412227
30
0.0
10
102.691059
20
128.344724
30
0.0
10
103.215045
20
129.341248
30
0.0
10
103.282897
20
129.945555
30
0.0
10
103.066580
20
130.267538
30
0.0
10
103.044809
20
130.633932
30
0.0
10
103.611872
20
131.638741
30
0.0
10
104.105822
20
132.104307
30
0.0
10
104.454875
20
132.147994
30
0.0
10
104.589383
20
131.811915
30
0.0
10
104.439695
20
131.138186
30
0.0
10
104.313335
20
130.612051
30
0.0
10
104.422012
20
130.395672
30
0.0
10
104.724828
20
130.500168
30
0.0
10
105.180884
20
130.936660
30
0.0
10
105.678427
20
131.385359
30
0.0
10
105.808387
20
131.384750
30
0.0
10
105.858594
20
131.245174
30
0.0
10
105.718120
20
130.582140
30
0.0
10
105.253742
20
129.462294
30
0.0
10
104.574953
20
127.762291
30
0.0
10
104.451378
20
126.834214
30
0.0
10
104.587091
20
126.697326
30
0.0
10
104.848762
20
126.798633
30
0.0
10
105.732845
20
127.776118
30
0.0
10
106.769532
20
129.116674
30
0.0
10
106.883217
20
129.211902
30
0.0
10
106.886569
20
129.141984
30
0.0
10
106.635493
20
128.636434
30
0.0
10
105.614730
20
127.070563
30
0.0
10
105.216588
20
126.422774
30
0.0
10
105.235392
20
126.153340
30
0.0
10
105.458369
20
126.080800
30
0.0
10
105.551111
20
125.906396
30
0.0
10
105.341107
20
125.731991
30
0.0
10
104.836203
20
125.659451
30
0.0
10
103.872180
20
125.363775
30
0.0
10
103.091961
20
124.579789
30
0.0
10
102.599025
20
123.462057
30
0.0
10
102.496846
20
122.165140
30
0.0
10
102.704775
20
121.388873
30
0.0
10
103.253235
20
121.120277
30
0.0
10
103.795142
20
121.180686
30
0.0
10
104.373679
20
121.508122
30
0.0
10
105.633302
20
122.953177
30
0.0
10
107.017427
20
125.433648
30
0.0
10
108.511377
20
128.927740
30
0.0
10
109.206235
20
130.525974
30
0.0
10
109.589395
20
131.038392
30
0.0
10
109.945108
20
129.311207
30
0.0
10
110.139630
20
127.844836
30
0.0
10
111.925512
20
129.739315
30
0.0
10
113.233877
20
131.030208
30
0.0
10
113.871680
20
131.473511
30
0.0
10
113.821579
20
130.979345
30
0.0
10
113.476044
20
130.016319
30
0.0
10
112.514174
20
127.411110
30
0.0
10
111.887673
20
124.924311
30
0.0
10
111.626230
20
122.713009
30
0.0
10
111.759534
20
120.934292
30
0.0
10
111.900356
20
119.766698
30
0.0
10
111.743874
20
119.807841
30
0.0
10
111.439731
20
120.273057
30
0.0
10
111.439731
20
120.273057
30
0.0
0
LWPOLYLINE
100
AcDbPolyline
8
Calque_1
90
10
70
0
10
109.068746
20
122.978340
30
0.0
10
109.491247
20
124.730364
30
0.0
10
109.567662
20
125.475746
30
0.0
10
109.490964
20
125.723050
30
0.0
10
108.851196
20
124.337442
30
0.0
10
108.373333
20
122.716399
30
0.0
10
108.454757
20
122.506932
30
0.0
10
108.648414
20
122.499832
30
0.0
10
109.068746
20
122.978340
30
0.0
10
109.068746
20
122.978340
30
0.0
0
LWPOLYLINE
100
AcDbPolyline
8
Calque_1
90
9
70
0
10
104.135679
20
131.320553
30
0.0
10
104.078812
20
131.735633
30
0.0
10
103.857778
20
131.515563
30
0.0
10
103.588286
20
130.729892
30
0.0
10
103.655659
20
130.510249
30
0.0
10
103.857778
20
130.527785
30
0.0
10
104.055828
20
130.832610
30
0.0
10
104.135679
20
131.320553
30
0.0
10
104.135679
20
131.320553
30
0.0
0
LWPOLYLINE
100
AcDbPolyline
8
Calque_1
90
107
70
0
10
114.864444
20
121.963749
30
0.0
10
114.788200
20
122.413087
30
0.0
10
114.348333
20
122.104860
30
0.0
10
113.798635
20
121.726023
30
0.0
10
113.365349
20
121.652702
30
0.0
10
113.058142
20
121.837987
30
0.0
10
112.886676
20
122.234971
30
0.0
10
112.989628
20
123.476395
30
0.0
10
113.283375
20
124.227018
30
0.0
10
113.751521
20
125.001701
30
0.0
10
114.593894
20
125.940946
30
0.0
10
114.960263
20
126.101126
30
0.0
10
115.374468
20
126.112779
30
0.0
10
116.029108
20
126.129176
30
0.0
10
116.535352
20
126.280591
30
0.0
10
116.807873
20
126.365794
30
0.0
10
116.715227
20
125.987969
30
0.0
10
115.886412
20
123.817434
30
0.0
10
115.521360
20
122.486194
30
0.0
10
115.615936
20
121.965957
30
0.0
10
116.166008
20
122.228425
30
0.0
10
116.874911
20
122.984098
30
0.0
10
117.426076
20
123.887959
30
0.0
10
117.752321
20
124.800900
30
0.0
10
117.786463
20
125.583807
30
0.0
10
117.770201
20
126.378885
30
0.0
10
118.116931
20
127.007666
30
0.0
10
118.601196
20
127.449464
30
0.0
10
118.915518
20
127.522963
30
0.0
10
119.054129
20
127.230947
30
0.0
10
119.011260
20
126.576200
30
0.0
10
118.960299
20
125.791157
30
0.0
10
119.096547
20
125.745464
30
0.0
10
119.373069
20
125.867410
30
0.0
10
120.022321
20
126.502884
30
0.0
10
120.181000
20
126.689823
30
0.0
10
120.384065
20
126.639341
30
0.0
10
120.326411
20
126.028797
30
0.0
10
119.858257
20
124.869201
30
0.0
10
119.140539
20
122.943347
30
0.0
10
119.130395
20
122.396805
30
0.0
10
119.366442
20
122.202229
30
0.0
10
119.803268
20
122.563802
30
0.0
10
120.475884
20
123.435107
30
0.0
10
121.629658
20
125.426432
30
0.0
10
121.909801
20
125.939811
30
0.0
10
122.195237
20
126.153340
30
0.0
10
122.406746
20
126.127513
30
0.0
10
122.434621
20
125.933853
30
0.0
10
121.778889
20
124.345967
30
0.0
10
121.115687
20
122.505544
30
0.0
10
121.114782
20
122.063772
30
0.0
10
121.330469
20
121.920007
30
0.0
10
121.756508
20
122.188674
30
0.0
10
122.378692
20
122.874435
30
0.0
10
123.630453
20
124.775788
30
0.0
10
124.162810
20
125.593090
30
0.0
10
124.788553
20
126.229379
30
0.0
10
125.392307
20
126.591012
30
0.0
10
125.858699
20
126.584344
30
0.0
10
126.077725
20
126.308647
30
0.0
10
126.126739
20
125.902601
30
0.0
10
125.820572
20
124.905488
30
0.0
10
125.151885
20
124.005052
30
0.0
10
124.747749
20
123.719853
30
0.0
10
124.332365
20
123.613340
30
0.0
10
124.009792
20
123.428820
30
0.0
10
123.895556
20
122.907785
30
0.0
10
124.098741
20
122.297139
30
0.0
10
124.617158
20
122.167291
30
0.0
10
125.314096
20
122.495884
30
0.0
10
126.052845
20
123.260563
30
0.0
10
127.094196
20
124.572765
30
0.0
10
127.074507
20
124.400043
30
0.0
10
126.704801
20
123.681376
30
0.0
10
126.043442
20
122.703749
30
0.0
10
125.377702
20
122.041154
30
0.0
10
124.694316
20
121.733843
30
0.0
10
124.077794
20
121.704011
30
0.0
10
123.612310
20
121.935935
30
0.0
10
123.382038
20
122.413896
30
0.0
10
123.192080
20
123.048896
30
0.0
10
122.245642
20
122.202229
30
0.0
10
121.601813
20
121.627935
30
0.0
10
121.136948
20
121.398402
30
0.0
10
120.803755
20
121.506430
30
0.0
10
120.554942
20
121.944817
30
0.0
10
120.311902
20
122.365203
30
0.0
10
119.965035
20
122.085928
30
0.0
10
119.546708
20
121.769427
30
0.0
10
119.063222
20
121.637785
30
0.0
10
118.680384
20
121.856630
30
0.0
10
118.529571
20
122.445553
30
0.0
10
118.615345
20
123.303136
30
0.0
10
118.942265
20
124.327961
30
0.0
10
119.208249
20
125.134404
30
0.0
10
119.143743
20
125.272657
30
0.0
10
118.947994
20
125.306674
30
0.0
10
118.499708
20
124.986133
30
0.0
10
117.988105
20
124.215470
30
0.0
10
116.978585
20
122.626094
30
0.0
10
115.962765
20
121.606614
30
0.0
10
115.526885
20
121.364211
30
0.0
10
115.178700
20
121.328632
30
0.0
10
114.947968
20
121.521328
30
0.0
10
114.864444
20
121.963749
30
0.0
10
114.864444
20
121.963749
30
0.0
0
LWPOLYLINE
100
AcDbPolyline
8
Calque_1
90
14
70
0
10
114.802011
20
123.336111
30
0.0
10
115.464609
20
124.538972
30
0.0
10
115.693610
20
125.421337
30
0.0
10
115.644454
20
125.679726
30
0.0
10
115.485629
20
125.782862
30
0.0
10
114.837281
20
125.423203
30
0.0
10
113.861046
20
124.123280
30
0.0
10
113.562977
20
123.403908
30
0.0
10
113.453333
20
122.757171
30
0.0
10
113.553677
20
122.338055
30
0.0
10
113.833306
20
122.304026
30
0.0
10
114.260119
20
122.641305
30
0.0
10
114.802011
20
123.336111
30
0.0
10
114.802011
20
123.336111
30
0.0
0
LWPOLYLINE
100
AcDbPolyline
8
Calque_1
90
11
70
0
10
125.588889
20
125.638090
30
0.0
10
125.521702
20
126.039806
30
0.0
10
125.332480
20
126.118924
30
0.0
10
124.661961
20
125.333685
30
0.0
10
124.281077
20
124.580803
30
0.0
10
124.198120
20
124.156170
30
0.0
10
124.402427
20
124.101876
30
0.0
10
124.883333
20
124.460007
30
0.0
10
125.381632
20
125.079489
30
0.0
10
125.588889
20
125.638090
30
0.0
10
125.588889
20
125.638090
30
0.0
0
LWPOLYLINE
100
AcDbPolyline
8
Calque_1
90
11
70
0
10
118.650893
20
126.334846
30
0.0
10
118.733261
20
126.727284
30
0.0
10
118.659105
20
126.950794
30
0.0
10
118.478142
20
126.960022
30
0.0
10
118.240088
20
126.709612
30
0.0
10
117.984724
20
126.092471
30
0.0
10
118.041278
20
125.927923
30
0.0
10
118.220925
20
125.871118
30
0.0
10
118.451192
20
126.007338
30
0.0
10
118.650901
20
126.334846
30
0.0
10
118.650893
20
126.334846
30
0.0
0
LWPOLYLINE
100
AcDbPolyline
8
Calque_1
90
46
70
0
10
84.695157
20
124.849011
30
0.0
10
84.519860
20
125.234797
30
0.0
10
84.554160
20
125.678115
30
0.0
10
85.147727
20
126.628154
30
0.0
10
86.268201
20
127.480739
30
0.0
10
87.707927
20
128.017483
30
0.0
10
88.354588
20
128.275121
30
0.0
10
88.701872
20
128.653062
30
0.0
10
89.058087
20
129.659559
30
0.0
10
89.141528
20
130.057830
30
0.0
10
88.807885
20
130.021193
30
0.0
10
88.474302
20
129.967900
30
0.0
10
88.335556
20
130.094291
30
0.0
10
88.489607
20
130.322816
30
0.0
10
88.859987
20
130.515085
30
0.0
10
89.377957
20
130.959938
30
0.0
10
89.886855
20
131.795739
30
0.0
10
90.849057
20
133.302223
30
0.0
10
91.266932
20
133.686797
30
0.0
10
91.393567
20
133.710041
30
0.0
10
91.440000
20
133.591304
30
0.0
10
91.172498
20
133.053674
30
0.0
10
90.449400
20
131.694305
30
0.0
10
89.993800
20
130.603045
30
0.0
10
91.003938
20
130.720974
30
0.0
10
91.718146
20
130.728101
30
0.0
10
91.916888
20
130.542232
30
0.0
10
91.556377
20
130.307730
30
0.0
10
90.826093
20
130.160529
30
0.0
10
89.954468
20
129.918680
30
0.0
10
89.532660
20
129.098580
30
0.0
10
89.378093
20
128.240852
30
0.0
10
89.771974
20
127.833130
30
0.0
10
90.152739
20
127.546447
30
0.0
10
90.311111
20
127.262369
30
0.0
10
90.172156
20
127.126354
30
0.0
10
89.765220
20
127.272303
30
0.0
10
89.318209
20
127.489849
30
0.0
10
89.020652
20
127.487997
30
0.0
10
88.317586
20
126.547602
30
0.0
10
87.414002
20
125.453187
30
0.0
10
86.384392
20
124.746823
30
0.0
10
85.415773
20
124.516201
30
0.0
10
85.012776
20
124.606697
30
0.0
10
84.695157
20
124.849014
30
0.0
10
84.695157
20
124.849011
30
0.0
0
LWPOLYLINE
100
AcDbPolyline
8
Calque_1
90
13
70
0
10
86.864642
20
125.518340
30
0.0
10
87.916145
20
126.788340
30
0.0
10
88.256305
20
127.456813
30
0.0
10
87.845305
20
127.564451
30
0.0
10
87.103442
20
127.364531
30
0.0
10
86.285695
20
126.871772
30
0.0
10
85.606936
20
126.246678
30
0.0
10
85.282038
20
125.649754
30
0.0
10
85.364783
20
125.196972
30
0.0
10
85.719308
20
125.018897
30
0.0
10
86.250850
20
125.123397
30
0.0
10
86.864642
20
125.518340
30
0.0
10
86.864642
20
125.518340
30
0.0
0
LWPOLYLINE
100
AcDbPolyline
8
Calque_1
90
11
70
0
10
122.484444
20
127.406684
30
0.0
10
122.765823
20
127.974545
30
0.0
10
123.006582
20
128.109115
30
0.0
10
123.215420
20
128.056438
30
0.0
10
123.263859
20
127.808328
30
0.0
10
123.157045
20
127.454407
30
0.0
10
122.959681
20
127.137394
30
0.0
10
122.736472
20
127.000007
30
0.0
10
122.558478
20
127.119468
30
0.0
10
122.484444
20
127.406684
30
0.0
10
122.484444
20
127.406684
30
0.0
0
LWPOLYLINE
100
AcDbPolyline
8
Calque_1
90
11
70
0
10
125.939527
20
128.043374
30
0.0
10
126.534359
20
128.523659
30
0.0
10
126.895643
20
128.609549
30
0.0
10
126.887681
20
128.286602
30
0.0
10
126.562857
20
127.843175
30
0.0
10
126.086045
20
127.451105
30
0.0
10
125.622118
20
127.282229
30
0.0
10
125.456185
20
127.322754
30
0.0
10
125.449857
20
127.453724
30
0.0
10
125.939527
20
128.043374
30
0.0
10
125.939527
20
128.043374
30
0.0
0
LWPOLYLINE
100
AcDbPolyline
8
Calque_1
90
32
70
0
10
86.642222
20
132.089936
30
0.0
10
86.761107
20
132.886505
30
0.0
10
87.095626
20
133.601987
30
0.0
10
87.612577
20
134.185722
30
0.0
10
88.278758
20
134.587046
30
0.0
10
89.662916
20
134.783984
30
0.0
10
91.920464
20
134.827254
30
0.0
10
94.232928
20
134.701881
30
0.0
10
94.510444
20
134.568693
30
0.0
10
94.393712
20
134.351667
30
0.0
10
93.918507
20
134.092970
30
0.0
10
93.104094
20
133.982356
30
0.0
10
90.153397
20
134.194074
30
0.0
10
89.160704
20
134.299683
30
0.0
10
88.565351
20
134.259829
30
0.0
10
88.143741
20
134.011052
30
0.0
10
87.672277
20
133.489893
30
0.0
10
87.158654
20
132.749424
30
0.0
10
87.006712
20
132.256145
30
0.0
10
87.234106
20
131.956387
30
0.0
10
87.605208
20
131.877144
30
0.0
10
88.064202
20
132.014506
30
0.0
10
88.555271
20
132.364566
30
0.0
10
89.048521
20
132.734889
30
0.0
10
89.182222
20
132.530338
30
0.0
10
88.999415
20
132.094629
30
0.0
10
88.536632
20
131.674681
30
0.0
10
87.922334
20
131.358312
30
0.0
10
87.284981
20
131.233340
30
0.0
10
86.765721
20
131.397925
30
0.0
10
86.642222
20
132.089936
30
0.0
10
86.642222
20
132.089936
30
0.0
0
LWPOLYLINE
100
AcDbPolyline
8
Calque_1
90
48
70
0
10
89.192151
20
136.294787
30
0.0
10
88.900000
20
137.724451
30
0.0
10
88.992039
20
138.792068
30
0.0
10
89.149082
20
139.140088
30
0.0
10
89.417467
20
139.386839
30
0.0
10
90.400247
20
139.644305
30
0.0
10
92.164343
20
139.700007
30
0.0
10
94.300676
20
139.784954
30
0.0
10
94.791325
20
139.906676
30
0.0
10
94.995969
20
140.095042
30
0.0
10
94.963413
20
141.133748
30
0.0
10
94.672269
20
143.076336
30
0.0
10
94.366880
20
145.322361
30
0.0
10
94.321136
20
147.228394
30
0.0
10
94.529536
20
148.680855
30
0.0
10
94.986579
20
149.566160
30
0.0
10
95.998719
20
150.043984
30
0.0
10
98.072222
20
150.401069
30
0.0
10
100.476442
20
150.661239
30
0.0
10
101.825297
20
150.673418
30
0.0
10
102.508573
20
150.384532
30
0.0
10
102.916056
20
149.741505
30
0.0
10
103.154747
20
149.092868
30
0.0
10
103.236753
20
148.215266
30
0.0
10
102.936545
20
144.192858
30
0.0
10
102.496787
20
139.609380
30
0.0
10
103.193892
20
138.505095
30
0.0
10
103.699193
20
137.471338
30
0.0
10
103.639329
20
136.645406
30
0.0
10
103.280884
20
135.969006
30
0.0
10
102.831250
20
135.849294
30
0.0
10
102.276254
20
136.290809
30
0.0
10
101.601722
20
137.298093
30
0.0
10
100.698142
20
138.877386
30
0.0
10
100.950020
20
141.424512
30
0.0
10
101.028977
20
144.078513
30
0.0
10
99.222450
20
144.016779
30
0.0
10
97.588846
20
143.848177
30
0.0
10
97.757897
20
142.832425
30
0.0
10
98.426379
20
138.113271
30
0.0
10
98.383170
20
137.108098
30
0.0
10
98.117891
20
136.484559
30
0.0
10
97.635867
20
135.748896
30
0.0
10
93.560082
20
135.748896
30
0.0
10
90.073876
20
135.833959
30
0.0
10
89.461709
20
135.998123
30
0.0
10
89.192142
20
136.294787
30
0.0
10
89.192151
20
136.294787
30
0.0
0
LWPOLYLINE
100
AcDbPolyline
8
Calque_1
90
62
70
0
10
116.734401
20
136.181458
30
0.0
10
116.557778
20
142.121979
30
0.0
10
116.557778
20
147.602229
30
0.0
10
115.570000
20
147.602229
30
0.0
10
114.582222
20
147.697087
30
0.0
10
115.567621
20
154.802060
30
0.0
10
116.432485
20
161.932706
30
0.0
10
116.330627
20
161.868623
30
0.0
10
116.179167
20
161.222806
30
0.0
10
115.442893
20
156.673819
30
0.0
10
114.752464
20
153.040620
30
0.0
10
114.454243
20
152.947026
30
0.0
10
114.120856
20
153.108328
30
0.0
10
113.850396
20
153.443825
30
0.0
10
113.740952
20
153.872815
30
0.0
10
114.009981
20
156.363227
30
0.0
10
114.612311
20
160.300103
30
0.0
10
115.271156
20
164.006106
30
0.0
10
115.709731
20
165.803900
30
0.0
10
116.061942
20
166.015291
30
0.0
10
116.659230
20
166.161661
30
0.0
10
118.265609
20
166.263667
30
0.0
10
119.882003
20
166.118565
30
0.0
10
120.491812
20
165.956053
30
0.0
10
120.861551
20
165.735007
30
0.0
10
121.345513
20
164.043242
30
0.0
10
121.979698
20
160.642976
30
0.0
10
122.531088
20
156.931900
30
0.0
10
122.766667
20
154.307702
30
0.0
10
122.694653
20
153.625310
30
0.0
10
122.504236
20
153.168650
30
0.0
10
122.233849
20
152.990657
30
0.0
10
121.921925
20
153.144264
30
0.0
10
120.987256
20
157.762229
30
0.0
10
120.481993
20
160.633528
30
0.0
10
120.321771
20
161.337213
30
0.0
10
120.275271
20
161.453927
30
0.0
10
120.255182
20
161.394028
30
0.0
10
121.073333
20
154.798896
30
0.0
10
121.920000
20
148.274319
30
0.0
10
121.760562
20
147.728792
30
0.0
10
121.073333
20
147.602229
30
0.0
10
120.226667
20
147.602229
30
0.0
10
120.226667
20
142.152837
30
0.0
10
120.143537
20
137.665961
30
0.0
10
120.014083
20
136.659335
30
0.0
10
119.803333
20
136.155615
30
0.0
10
119.380000
20
135.748895
30
0.0
10
118.956667
20
136.155615
30
0.0
10
118.745917
20
136.659335
30
0.0
10
118.616463
20
137.665961
30
0.0
10
118.533333
20
142.152837
30
0.0
10
118.459198
20
146.141113
30
0.0
10
118.256837
20
147.602229
30
0.0
10
118.034510
20
146.018802
30
0.0
10
117.904060
20
141.749798
30
0.0
10
117.762542
20
136.881521
30
0.0
10
117.613317
20
136.047482
30
0.0
10
117.369401
20
135.809277
30
0.0
10
116.993788
20
135.882268
30
0.0
10
116.734401
20
136.181458
30
0.0
10
116.734401
20
136.181458
30
0.0
0
LWPOLYLINE
100
AcDbPolyline
8
Calque_1
90
34
70
0
10
106.438627
20
138.708899
30
0.0
10
105.458775
20
139.879811
30
0.0
10
104.637191
20
141.319455
30
0.0
10
103.798364
20
143.729098
30
0.0
10
103.690478
20
144.494058
30
0.0
10
103.833425
20
144.780007
30
0.0
10
104.063218
20
144.469122
30
0.0
10
104.273401
20
143.721674
30
0.0
10
104.633522
20
142.539823
30
0.0
10
105.242690
20
141.266647
30
0.0
10
105.988667
20
140.103898
30
0.0
10
106.759214
20
139.253328
30
0.0
10
107.465616
20
138.819235
30
0.0
10
108.254460
20
138.602551
30
0.0
10
109.054413
20
138.612556
30
0.0
10
109.794144
20
138.858530
30
0.0
10
110.314148
20
139.274388
30
0.0
10
110.828054
20
139.954043
30
0.0
10
111.815086
20
142.044358
30
0.0
10
112.710267
20
145.008700
30
0.0
10
113.468624
20
148.726295
30
0.0
10
114.177583
20
152.371663
30
0.0
10
114.299564
20
152.160041
30
0.0
10
114.260956
20
151.200174
30
0.0
10
113.748682
20
147.559718
30
0.0
10
113.146875
20
144.637110
30
0.0
10
112.437874
20
142.211557
30
0.0
10
111.630711
20
140.293999
30
0.0
10
110.734420
20
138.895370
30
0.0
10
109.758033
20
138.026609
30
0.0
10
108.710583
20
137.698652
30
0.0
10
107.601103
20
137.922437
30
0.0
10
106.438627
20
138.708899
30
0.0
10
106.438627
20
138.708899
30
0.0
0
LWPOLYLINE
100
AcDbPolyline
8
Calque_1
90
22
70
0
10
105.191162
20
144.709968
30
0.0
10
104.527250
20
145.766440
30
0.0
10
104.199087
20
147.041166
30
0.0
10
104.217922
20
148.437018
30
0.0
10
104.595007
20
149.856869
30
0.0
10
104.947520
20
150.525476
30
0.0
10
105.363008
20
150.969874
30
0.0
10
105.817471
20
151.194928
30
0.0
10
106.286915
20
151.205500
30
0.0
10
106.747342
20
151.006455
30
0.0
10
107.174755
20
150.602657
30
0.0
10
107.545157
20
149.998969
30
0.0
10
107.834551
20
149.200256
30
0.0
10
108.011099
20
148.093461
30
0.0
10
107.970709
20
147.020071
30
0.0
10
107.749427
20
146.041313
30
0.0
10
107.383296
20
145.218415
30
0.0
10
106.908359
20
144.612603
30
0.0
10
106.360662
20
144.285107
30
0.0
10
105.776249
20
144.297153
30
0.0
10
105.191162
20
144.709968
30
0.0
10
105.191162
20
144.709968
30
0.0
0
LWPOLYLINE
100
AcDbPolyline
8
Calque_1
90
9
70
0
10
103.672304
20
147.743340
30
0.0
10
103.705501
20
148.983367
30
0.0
10
103.740344
20
149.084679
30
0.0
10
103.782566
20
148.794215
30
0.0
10
103.780590
20
146.536437
30
0.0
10
103.737924
20
146.306554
30
0.0
10
103.703265
20
146.457478
30
0.0
10
103.672191
20
147.743340
30
0.0
10
103.672304
20
147.743340
30
0.0
0
LWPOLYLINE
100
AcDbPolyline
8
Calque_1
90
23
70
0
10
117.344571
20
167.274806
30
0.0
10
116.958797
20
167.845420
30
0.0
10
116.675581
20
168.550196
30
0.0
10
116.421294
20
170.188836
30
0.0
10
116.590654
20
171.843938
30
0.0
10
116.836995
20
172.569290
30
0.0
10
117.192600
20
173.168712
30
0.0
10
117.691758
20
173.630990
30
0.0
10
118.208566
20
173.809482
30
0.0
10
118.717069
20
173.728756
30
0.0
10
119.191316
20
173.413379
30
0.0
10
119.605352
20
172.887917
30
0.0
10
119.933225
20
172.176939
30
0.0
10
120.148981
20
171.305011
30
0.0
10
120.226667
20
170.296700
30
0.0
10
120.149435
20
169.407156
30
0.0
10
119.936140
20
168.605966
30
0.0
10
119.211754
20
167.384404
30
0.0
10
118.755861
20
167.021907
30
0.0
10
118.274300
20
166.863517
30
0.0
10
117.794670
20
166.938170
30
0.0
10
117.344571
20
167.274806
30
0.0
10
117.344571
20
167.274806
30
0.0
  0
ENDSEC
  0
SECTION
  2
OBJECTS
  0
DICTIONARY
  5
C
330
0
100
AcDbDictionary
  3
ACAD_GROUP
350
D
  3
ACAD_MLINESTYLE
350
17
  0
DICTIONARY
  5
D
330
C
100
AcDbDictionary
  0
DICTIONARY
  5
1A
330
C
100
AcDbDictionary
  0
DICTIONARY
  5
17
330
C
100
AcDbDictionary
  3
STANDARD
350
18
  0
DICTIONARY
  5
19
330
C
100
AcDbDictionary
  0
ENDSEC
  0
EOF
