solid OpenSCAD_Model
  facet normal -1 0 0
    outer loop
      vertex -25 -15 -25
      vertex -25 -15 25
      vertex -25 15 -25
    endloop
  endfacet
  facet normal -1 0 0
    outer loop
      vertex -25 15 -25
      vertex -25 -15 25
      vertex -25 15 25
    endloop
  endfacet
  facet normal 0 -1 0
    outer loop
      vertex -25 -15 25
      vertex -25 -15 -25
      vertex 25 -15 -25
    endloop
  endfacet
  facet normal 0 -1 0
    outer loop
      vertex 25 -15 25
      vertex -25 -15 25
      vertex 25 -15 -25
    endloop
  endfacet
  facet normal 0 0 -1
    outer loop
      vertex 24.5 14.5 -25
      vertex -25 15 -25
      vertex 25 15 -25
    endloop
  endfacet
  facet normal 0 0 -1
    outer loop
      vertex -25 -15 -25
      vertex -25 15 -25
      vertex -24.5 -10.5 -25
    endloop
  endfacet
  facet normal 0 0 -1
    outer loop
      vertex -24.5 10 -25
      vertex -24.5 10.8536 -25
      vertex -24.1464 10.5 -25
    endloop
  endfacet
  facet normal 0 0 -1
    outer loop
      vertex -25 -15 -25
      vertex -24.5 -10.5 -25
      vertex -24.5 -14.5 -25
    endloop
  endfacet
  facet normal 0 0 -1
    outer loop
      vertex -25 -15 -25
      vertex -24.5 -14.5 -25
      vertex 25 -15 -25
    endloop
  endfacet
  facet normal 0 0 -1
    outer loop
      vertex -24.5 -14.5 -25
      vertex -20.5 -14.5 -25
      vertex 25 -15 -25
    endloop
  endfacet
  facet normal 0 0 -1
    outer loop
      vertex -23.0303 12.3232 -25
      vertex -24.1464 10.5 -25
      vertex -24.5 10.8536 -25
    endloop
  endfacet
  facet normal 0 0 -1
    outer loop
      vertex -24.5 -10.5 -25
      vertex -25 15 -25
      vertex -24.5 -10 -25
    endloop
  endfacet
  facet normal 0 0 -1
    outer loop
      vertex -25 15 -25
      vertex -24.5 10 -25
      vertex -24.5 -10 -25
    endloop
  endfacet
  facet normal 0 0 -1
    outer loop
      vertex -24.5 -10.5 -25
      vertex -24.5 -10 -25
      vertex -20.5 -10.5 -25
    endloop
  endfacet
  facet normal 0 0 -1
    outer loop
      vertex -20.5 -14.5 -25
      vertex -20 -14.5 -25
      vertex 25 -15 -25
    endloop
  endfacet
  facet normal 0 0 -1
    outer loop
      vertex 24.5 14.5 -25
      vertex 25 15 -25
      vertex 24.5 -10 -25
    endloop
  endfacet
  facet normal 0 0 -1
    outer loop
      vertex -23.0303 12.3232 -25
      vertex -25 15 -25
      vertex -22.6768 12.6768 -25
    endloop
  endfacet
  facet normal 0 0 -1
    outer loop
      vertex 20.8536 -10.5 -25
      vertex 20 -10 -25
      vertex 24.5 -10 -25
    endloop
  endfacet
  facet normal 0 0 -1
    outer loop
      vertex 25 -15 -25
      vertex 24.5 -10 -25
      vertex 25 15 -25
    endloop
  endfacet
  facet normal 0 0 -1
    outer loop
      vertex -20 14.5 -25
      vertex -25 15 -25
      vertex 24.5 14.5 -25
    endloop
  endfacet
  facet normal 0 0 -1
    outer loop
      vertex -20.8536 14.5 -25
      vertex -25 15 -25
      vertex -20 14.5 -25
    endloop
  endfacet
  facet normal 0 0 -1
    outer loop
      vertex 20 -10 -25
      vertex 20.5 -10.8536 -25
      vertex 20.5 -14.1464 -25
    endloop
  endfacet
  facet normal 0 0 -1
    outer loop
      vertex 24.1464 -14.5 -25
      vertex 25 -15 -25
      vertex 20.8536 -14.5 -25
    endloop
  endfacet
  facet normal 0 0 -1
    outer loop
      vertex -24.5 10 -25
      vertex -25 15 -25
      vertex -24.5 10.8536 -25
    endloop
  endfacet
  facet normal 0 0 -1
    outer loop
      vertex -20 -10 -25
      vertex -20.5 -10.5 -25
      vertex -24.5 -10 -25
    endloop
  endfacet
  facet normal 0 0 -1
    outer loop
      vertex 20.8536 -14.5 -25
      vertex 25 -15 -25
      vertex 20 -14.5 -25
    endloop
  endfacet
  facet normal 0 0 -1
    outer loop
      vertex 20.5 -14.1464 -25
      vertex 20.8536 -14.5 -25
      vertex 20 -14.5 -25
    endloop
  endfacet
  facet normal 0 0 -1
    outer loop
      vertex -22.6768 12.6768 -25
      vertex -25 15 -25
      vertex -24.5 14.5 -25
    endloop
  endfacet
  facet normal 0 0 -1
    outer loop
      vertex -24.1464 10.5 -25
      vertex -23.0303 12.3232 -25
      vertex -22.6768 12.6768 -25
    endloop
  endfacet
  facet normal 0 0 -1
    outer loop
      vertex -20.5 14.1464 -25
      vertex -20 10 -25
      vertex -20.5 10.5 -25
    endloop
  endfacet
  facet normal 0 0 -1
    outer loop
      vertex 22.1464 -12.5 -25
      vertex 22.5 -12.8536 -25
      vertex 20.5 -14.1464 -25
    endloop
  endfacet
  facet normal 0 0 -1
    outer loop
      vertex -24.1464 10.5 -25
      vertex -22.6768 12.6768 -25
      vertex -20.8536 14.5 -25
    endloop
  endfacet
  facet normal 0 0 -1
    outer loop
      vertex -24.1464 10.5 -25
      vertex -20.8536 14.5 -25
      vertex -20.5 14.1464 -25
    endloop
  endfacet
  facet normal 0 0 -1
    outer loop
      vertex 25 -15 -25
      vertex 20.5 -10.8536 -25
      vertex 20 -10 -25
    endloop
  endfacet
  facet normal 0 0 -1
    outer loop
      vertex 20.8536 -10.5 -25
      vertex 24.5 -10 -25
      vertex 24.1464 -10.5 -25
    endloop
  endfacet
  facet normal 0 0 -1
    outer loop
      vertex -20.5 14.1464 -25
      vertex -20.8536 14.5 -25
      vertex -20 14.5 -25
    endloop
  endfacet
  facet normal 0 0 -1
    outer loop
      vertex 25 -15 -25
      vertex 22.1464 -12.5 -25
      vertex 20.5 -10.8536 -25
    endloop
  endfacet
  facet normal 0 0 -1
    outer loop
      vertex -20 10 -25
      vertex -20.5 14.1464 -25
      vertex -20 14.5 -25
    endloop
  endfacet
  facet normal 0 0 -1
    outer loop
      vertex 25 -15 -25
      vertex 22.5 -12.8536 -25
      vertex 22.1464 -12.5 -25
    endloop
  endfacet
  facet normal 0 0 -1
    outer loop
      vertex -20.5 10.5 -25
      vertex -20 10 -25
      vertex -24.1464 10.5 -25
    endloop
  endfacet
  facet normal 0 0 -1
    outer loop
      vertex 25 -15 -25
      vertex 20 -10 -25
      vertex 20.8536 -10.5 -25
    endloop
  endfacet
  facet normal 0 0 -1
    outer loop
      vertex 22.8536 -12.5 -25
      vertex 24.1464 -10.5 -25
      vertex 24.5 -10.8536 -25
    endloop
  endfacet
  facet normal 0 0 -1
    outer loop
      vertex 25 -15 -25
      vertex 20.8536 -10.5 -25
      vertex 22.5 -12.1464 -25
    endloop
  endfacet
  facet normal 0 0 -1
    outer loop
      vertex 24.5 -10.8536 -25
      vertex 25 -15 -25
      vertex 24.5 -14.1464 -25
    endloop
  endfacet
  facet normal 0 0 -1
    outer loop
      vertex 22.8536 -12.5 -25
      vertex 22.5 -12.1464 -25
      vertex 24.1464 -10.5 -25
    endloop
  endfacet
  facet normal 0 0 -1
    outer loop
      vertex 24.5 -10.8536 -25
      vertex 24.1464 -10.5 -25
      vertex 24.5 -10 -25
    endloop
  endfacet
  facet normal 0 0 -1
    outer loop
      vertex 25 -15 -25
      vertex 22.5 -12.1464 -25
      vertex 22.8536 -12.5 -25
    endloop
  endfacet
  facet normal 0 0 -1
    outer loop
      vertex 25 -15 -25
      vertex 22.8536 -12.5 -25
      vertex 24.5 -14.1464 -25
    endloop
  endfacet
  facet normal 0 0 -1
    outer loop
      vertex 25 -15 -25
      vertex 24.5 -10.8536 -25
      vertex 24.5 -10 -25
    endloop
  endfacet
  facet normal 0 0 -1
    outer loop
      vertex 22.5 -12.8536 -25
      vertex 25 -15 -25
      vertex 24.1464 -14.5 -25
    endloop
  endfacet
  facet normal 0 0 -1
    outer loop
      vertex -20.5 -10.5 -25
      vertex -20 -14.5 -25
      vertex -20.5 -14.5 -25
    endloop
  endfacet
  facet normal 0 0 -1
    outer loop
      vertex -24.5 14.5 -25
      vertex -25 15 -25
      vertex -20.8536 14.5 -25
    endloop
  endfacet
  facet normal 0 0 -1
    outer loop
      vertex 20.8536 -14.5 -25
      vertex 20.5 -14.1464 -25
      vertex 22.5 -12.8536 -25
    endloop
  endfacet
  facet normal 0 0 -1
    outer loop
      vertex -24.5 10 -25
      vertex -24.1464 10.5 -25
      vertex -20 10 -25
    endloop
  endfacet
  facet normal 0 0 -1
    outer loop
      vertex -20 -14.5 -25
      vertex -20.5 -10.5 -25
      vertex -20 -10 -25
    endloop
  endfacet
  facet normal 0 0 -1
    outer loop
      vertex 20 -14.5 -25
      vertex 25 -15 -25
      vertex -20 -14.5 -25
    endloop
  endfacet
  facet normal 0 0 -1
    outer loop
      vertex 20 -10 -25
      vertex 20.5 -14.1464 -25
      vertex 20 -14.5 -25
    endloop
  endfacet
  facet normal 0 0 -1
    outer loop
      vertex -24.5 10.8536 -25
      vertex -25 15 -25
      vertex -24.5 13.7929 -25
    endloop
  endfacet
  facet normal 0 0 -1
    outer loop
      vertex -23.0303 12.3232 -25
      vertex -24.5 13.7929 -25
      vertex -25 15 -25
    endloop
  endfacet
  facet normal 0 1 0
    outer loop
      vertex -25 15 -25
      vertex -25 15 25
      vertex 25 15 -25
    endloop
  endfacet
  facet normal 0 1 0
    outer loop
      vertex 25 15 -25
      vertex -25 15 25
      vertex 25 15 25
    endloop
  endfacet
  facet normal 0 0 1
    outer loop
      vertex -24.5 -14.5 25
      vertex -25 -15 25
      vertex 25 -15 25
    endloop
  endfacet
  facet normal 0 0 1
    outer loop
      vertex -20.5 -14.5 25
      vertex -24.5 -14.5 25
      vertex 25 -15 25
    endloop
  endfacet
  facet normal 0 0 1
    outer loop
      vertex -25 15 25
      vertex -25 -15 25
      vertex -24.5 -14.5 25
    endloop
  endfacet
  facet normal 0 0 1
    outer loop
      vertex -24.5 10 25
      vertex -20.5 10.5 25
      vertex -24.5 10.5 25
    endloop
  endfacet
  facet normal 0 0 1
    outer loop
      vertex -25 15 25
      vertex -24.5 -14.5 25
      vertex -24.5 -10.5 25
    endloop
  endfacet
  facet normal 0 0 1
    outer loop
      vertex -20 -14.5 25
      vertex -20 -10 25
      vertex -20.5 -10.5 25
    endloop
  endfacet
  facet normal 0 0 1
    outer loop
      vertex -24.5 -10 25
      vertex -24.5 -10.5 25
      vertex -20.5 -10.5 25
    endloop
  endfacet
  facet normal 0 0 1
    outer loop
      vertex -20 -14.5 25
      vertex -20.5 -14.5 25
      vertex 25 -15 25
    endloop
  endfacet
  facet normal 0 0 1
    outer loop
      vertex -25 15 25
      vertex -24.5 -10.5 25
      vertex -24.5 -10 25
    endloop
  endfacet
  facet normal 0 0 1
    outer loop
      vertex -24.5 10 25
      vertex -20 10 25
      vertex -20.5 10.5 25
    endloop
  endfacet
  facet normal 0 0 1
    outer loop
      vertex -25 15 25
      vertex -24.5 -10 25
      vertex -24.5 10 25
    endloop
  endfacet
  facet normal 0 0 1
    outer loop
      vertex 20 -10 25
      vertex 20.5 -14.5 25
      vertex 20.5 -10.5 25
    endloop
  endfacet
  facet normal 0 0 1
    outer loop
      vertex 20 -10 25
      vertex 20 -14.5 25
      vertex 20.5 -14.5 25
    endloop
  endfacet
  facet normal 0 0 1
    outer loop
      vertex 25 15 25
      vertex -25 15 25
      vertex -20 14.5 25
    endloop
  endfacet
  facet normal 0 0 1
    outer loop
      vertex 25 15 25
      vertex 24.5 14.5 25
      vertex 25 -15 25
    endloop
  endfacet
  facet normal 0 0 1
    outer loop
      vertex 25 15 25
      vertex -20 14.5 25
      vertex 24.5 14.5 25
    endloop
  endfacet
  facet normal 0 0 1
    outer loop
      vertex 24.5 14.5 25
      vertex 24.5 -10 25
      vertex 25 -15 25
    endloop
  endfacet
  facet normal 0 0 1
    outer loop
      vertex 20.5 -14.5 25
      vertex 20 -14.5 25
      vertex 25 -15 25
    endloop
  endfacet
  facet normal 0 0 1
    outer loop
      vertex -24.5 10.5 25
      vertex -24.5 14.5 25
      vertex -25 15 25
    endloop
  endfacet
  facet normal 0 0 1
    outer loop
      vertex -25 15 25
      vertex -24.5 10 25
      vertex -24.5 10.5 25
    endloop
  endfacet
  facet normal 0 0 1
    outer loop
      vertex 24.5 -14.5 25
      vertex 20.5 -14.5 25
      vertex 25 -15 25
    endloop
  endfacet
  facet normal 0 0 1
    outer loop
      vertex -20 10 25
      vertex -20.5 14.5 25
      vertex -20.5 10.5 25
    endloop
  endfacet
  facet normal 0 0 1
    outer loop
      vertex -20 14.5 25
      vertex -25 15 25
      vertex -20.5 14.5 25
    endloop
  endfacet
  facet normal 0 0 1
    outer loop
      vertex -20 10 25
      vertex -20 14.5 25
      vertex -20.5 14.5 25
    endloop
  endfacet
  facet normal 0 0 1
    outer loop
      vertex 20 -14.5 25
      vertex -20 -14.5 25
      vertex 25 -15 25
    endloop
  endfacet
  facet normal 0 0 1
    outer loop
      vertex 24.5 -10 25
      vertex 20 -10 25
      vertex 20.5 -10.5 25
    endloop
  endfacet
  facet normal 0 0 1
    outer loop
      vertex 24.5 -10 25
      vertex 24.5 -10.5 25
      vertex 25 -15 25
    endloop
  endfacet
  facet normal 0 0 1
    outer loop
      vertex 24.5 -10 25
      vertex 20.5 -10.5 25
      vertex 24.5 -10.5 25
    endloop
  endfacet
  facet normal 0 0 1
    outer loop
      vertex 24.5 -10.5 25
      vertex 24.5 -14.5 25
      vertex 25 -15 25
    endloop
  endfacet
  facet normal 0 0 1
    outer loop
      vertex -20.5 -10.5 25
      vertex -20.5 -14.5 25
      vertex -20 -14.5 25
    endloop
  endfacet
  facet normal 0 0 1
    outer loop
      vertex -24.5 14.5 25
      vertex -20.5 14.5 25
      vertex -25 15 25
    endloop
  endfacet
  facet normal 0 0 1
    outer loop
      vertex -20 -10 25
      vertex -24.5 -10 25
      vertex -20.5 -10.5 25
    endloop
  endfacet
  facet normal 1 0 0
    outer loop
      vertex 25 -15 25
      vertex 25 -15 -25
      vertex 25 15 -25
    endloop
  endfacet
  facet normal 1 0 0
    outer loop
      vertex 25 15 25
      vertex 25 -15 25
      vertex 25 15 -25
    endloop
  endfacet
  facet normal 1 0 0
    outer loop
      vertex -24.5 -10.5 -25
      vertex -24.5 -10.5 25
      vertex -24.5 -14.5 25
    endloop
  endfacet
  facet normal 1 0 0
    outer loop
      vertex -24.5 -14.5 -25
      vertex -24.5 -10.5 -25
      vertex -24.5 -14.5 25
    endloop
  endfacet
  facet normal 0 -1 0
    outer loop
      vertex -20.5 -10.5 -25
      vertex -20.5 -10.5 25
      vertex -24.5 -10.5 25
    endloop
  endfacet
  facet normal 0 -1 0
    outer loop
      vertex -24.5 -10.5 -25
      vertex -20.5 -10.5 -25
      vertex -24.5 -10.5 25
    endloop
  endfacet
  facet normal -1 0 0
    outer loop
      vertex -20.5 -10.5 25
      vertex -20.5 -10.5 -25
      vertex -20.5 -14.5 25
    endloop
  endfacet
  facet normal -1 0 0
    outer loop
      vertex -20.5 -14.5 25
      vertex -20.5 -10.5 -25
      vertex -20.5 -14.5 -25
    endloop
  endfacet
  facet normal 0 1 0
    outer loop
      vertex -20.5 -14.5 25
      vertex -20.5 -14.5 -25
      vertex -24.5 -14.5 25
    endloop
  endfacet
  facet normal 0 1 0
    outer loop
      vertex -24.5 -14.5 25
      vertex -20.5 -14.5 -25
      vertex -24.5 -14.5 -25
    endloop
  endfacet
  facet normal 1 0 0
    outer loop
      vertex -24.5 10 -25
      vertex -24.5 10 25
      vertex -24.5 -10 25
    endloop
  endfacet
  facet normal 1 0 0
    outer loop
      vertex -24.5 -10 -25
      vertex -24.5 10 -25
      vertex -24.5 -10 25
    endloop
  endfacet
  facet normal 0 -1 0
    outer loop
      vertex -24.5 10 25
      vertex -24.5 10 -25
      vertex -20 10 -25
    endloop
  endfacet
  facet normal 0 -1 0
    outer loop
      vertex -20 10 25
      vertex -24.5 10 25
      vertex -20 10 -25
    endloop
  endfacet
  facet normal 1 0 0
    outer loop
      vertex -20 10 25
      vertex -20 10 -25
      vertex -20 14.5 -25
    endloop
  endfacet
  facet normal 1 0 0
    outer loop
      vertex -20 14.5 25
      vertex -20 10 25
      vertex -20 14.5 -25
    endloop
  endfacet
  facet normal 0 -1 0
    outer loop
      vertex 24.5 14.5 -25
      vertex 24.5 14.5 25
      vertex -20 14.5 25
    endloop
  endfacet
  facet normal 0 -1 0
    outer loop
      vertex -20 14.5 -25
      vertex 24.5 14.5 -25
      vertex -20 14.5 25
    endloop
  endfacet
  facet normal -1 0 0
    outer loop
      vertex 24.5 14.5 25
      vertex 24.5 14.5 -25
      vertex 24.5 -10 25
    endloop
  endfacet
  facet normal -1 0 0
    outer loop
      vertex 24.5 -10 25
      vertex 24.5 14.5 -25
      vertex 24.5 -10 -25
    endloop
  endfacet
  facet normal 0 1 0
    outer loop
      vertex 20 -10 -25
      vertex 20 -10 25
      vertex 24.5 -10 -25
    endloop
  endfacet
  facet normal 0 1 0
    outer loop
      vertex 24.5 -10 -25
      vertex 20 -10 25
      vertex 24.5 -10 25
    endloop
  endfacet
  facet normal -1 0 0
    outer loop
      vertex 20 -14.5 -25
      vertex 20 -14.5 25
      vertex 20 -10 -25
    endloop
  endfacet
  facet normal -1 0 0
    outer loop
      vertex 20 -10 -25
      vertex 20 -14.5 25
      vertex 20 -10 25
    endloop
  endfacet
  facet normal 0 1 0
    outer loop
      vertex 20 -14.5 25
      vertex 20 -14.5 -25
      vertex -20 -14.5 25
    endloop
  endfacet
  facet normal 0 1 0
    outer loop
      vertex -20 -14.5 25
      vertex 20 -14.5 -25
      vertex -20 -14.5 -25
    endloop
  endfacet
  facet normal 1 0 0
    outer loop
      vertex -20 -14.5 25
      vertex -20 -14.5 -25
      vertex -20 -10 -25
    endloop
  endfacet
  facet normal 1 0 0
    outer loop
      vertex -20 -10 25
      vertex -20 -14.5 25
      vertex -20 -10 -25
    endloop
  endfacet
  facet normal 0 1 0
    outer loop
      vertex -24.5 -10 -25
      vertex -24.5 -10 25
      vertex -20 -10 -25
    endloop
  endfacet
  facet normal 0 1 0
    outer loop
      vertex -20 -10 -25
      vertex -24.5 -10 25
      vertex -20 -10 25
    endloop
  endfacet
  facet normal 1 0 0
    outer loop
      vertex -24.5 10.8536 -20
      vertex -24.5 10.8536 -25
      vertex -24.5 13.7929 -25
    endloop
  endfacet
  facet normal 1 0 0
    outer loop
      vertex -24.5 14.5 25
      vertex -24.5 10.8536 -20
      vertex -24.5 13.7929 -20
    endloop
  endfacet
  facet normal 1 0 0
    outer loop
      vertex -24.5 13.7929 -20
      vertex -24.5 10.8536 -20
      vertex -24.5 13.7929 -25
    endloop
  endfacet
  facet normal 1 0 0
    outer loop
      vertex -24.5 14.5 25
      vertex -24.5 13.7929 -20
      vertex -24.5 14.5 -20
    endloop
  endfacet
  facet normal 1 0 0
    outer loop
      vertex -24.5 10.5 25
      vertex -24.5 10.8536 -20
      vertex -24.5 14.5 25
    endloop
  endfacet
  facet normal 1 0 0
    outer loop
      vertex -24.5 10.5 -20
      vertex -24.5 10.8536 -20
      vertex -24.5 10.5 25
    endloop
  endfacet
  facet normal -0.707107 -0.707107 0
    outer loop
      vertex -24.5 13.7929 -25
      vertex -23.0303 12.3232 -25
      vertex -24.5 13.7929 -20
    endloop
  endfacet
  facet normal -0.707107 -0.707107 0
    outer loop
      vertex -24.5 13.7929 -20
      vertex -23.0303 12.3232 -25
      vertex -23.0303 12.3232 -20
    endloop
  endfacet
  facet normal -0.707107 0.707107 0
    outer loop
      vertex -24.5 10.8536 -25
      vertex -24.5 10.8536 -20
      vertex -23.0303 12.3232 -25
    endloop
  endfacet
  facet normal -0.707107 0.707107 0
    outer loop
      vertex -23.0303 12.3232 -25
      vertex -24.5 10.8536 -20
      vertex -23.0303 12.3232 -20
    endloop
  endfacet
  facet normal 0 -1 0
    outer loop
      vertex -24.5 14.5 -20
      vertex -24.5 14.5 -25
      vertex -20.8536 14.5 -25
    endloop
  endfacet
  facet normal 0 -1 0
    outer loop
      vertex -20.5 14.5 25
      vertex -24.5 14.5 -20
      vertex -20.8536 14.5 -20
    endloop
  endfacet
  facet normal 0 -1 0
    outer loop
      vertex -20.8536 14.5 -20
      vertex -24.5 14.5 -20
      vertex -20.8536 14.5 -25
    endloop
  endfacet
  facet normal 0 -1 0
    outer loop
      vertex -20.5 14.5 25
      vertex -20.8536 14.5 -20
      vertex -20.5 14.5 -20
    endloop
  endfacet
  facet normal 0 -1 0
    outer loop
      vertex -24.5 14.5 25
      vertex -24.5 14.5 -20
      vertex -20.5 14.5 25
    endloop
  endfacet
  facet normal 0.707107 0.707107 0
    outer loop
      vertex -22.6768 12.6768 -25
      vertex -24.5 14.5 -25
      vertex -24.5 14.5 -20
    endloop
  endfacet
  facet normal 0.707107 0.707107 0
    outer loop
      vertex -22.6768 12.6768 -20
      vertex -22.6768 12.6768 -25
      vertex -24.5 14.5 -20
    endloop
  endfacet
  facet normal -0.707107 0.707107 0
    outer loop
      vertex -22.6768 12.6768 -25
      vertex -22.6768 12.6768 -20
      vertex -20.8536 14.5 -25
    endloop
  endfacet
  facet normal -0.707107 0.707107 0
    outer loop
      vertex -20.8536 14.5 -25
      vertex -22.6768 12.6768 -20
      vertex -20.8536 14.5 -20
    endloop
  endfacet
  facet normal 0.707107 -0.707107 0
    outer loop
      vertex -24.1464 10.5 -20
      vertex -24.1464 10.5 -25
      vertex -20.5 14.1464 -25
    endloop
  endfacet
  facet normal 0.707107 -0.707107 0
    outer loop
      vertex -20.5 14.1464 -20
      vertex -24.1464 10.5 -20
      vertex -20.5 14.1464 -25
    endloop
  endfacet
  facet normal 0 1 0
    outer loop
      vertex -20.5 10.5 25
      vertex -20.5 10.5 -25
      vertex -24.5 10.5 25
    endloop
  endfacet
  facet normal 0 1 0
    outer loop
      vertex -24.1464 10.5 -20
      vertex -20.5 10.5 -25
      vertex -24.1464 10.5 -25
    endloop
  endfacet
  facet normal 0 1 0
    outer loop
      vertex -24.5 10.5 25
      vertex -20.5 10.5 -25
      vertex -24.1464 10.5 -20
    endloop
  endfacet
  facet normal 0 1 0
    outer loop
      vertex -24.5 10.5 -20
      vertex -24.5 10.5 25
      vertex -24.1464 10.5 -20
    endloop
  endfacet
  facet normal -1 0 0
    outer loop
      vertex -20.5 14.5 25
      vertex -20.5 14.5 -20
      vertex -20.5 10.5 25
    endloop
  endfacet
  facet normal -1 0 0
    outer loop
      vertex -20.5 10.5 25
      vertex -20.5 14.5 -20
      vertex -20.5 14.1464 -20
    endloop
  endfacet
  facet normal -1 0 0
    outer loop
      vertex -20.5 10.5 25
      vertex -20.5 14.1464 -20
      vertex -20.5 14.1464 -25
    endloop
  endfacet
  facet normal -1 0 0
    outer loop
      vertex -20.5 10.5 25
      vertex -20.5 14.1464 -25
      vertex -20.5 10.5 -25
    endloop
  endfacet
  facet normal 1 0 0
    outer loop
      vertex 20.5 -14.1464 -20
      vertex 20.5 -14.1464 -25
      vertex 20.5 -10.8536 -25
    endloop
  endfacet
  facet normal 1 0 0
    outer loop
      vertex 20.5 -10.5 25
      vertex 20.5 -14.1464 -20
      vertex 20.5 -10.8536 -20
    endloop
  endfacet
  facet normal 1 0 0
    outer loop
      vertex 20.5 -10.8536 -20
      vertex 20.5 -14.1464 -20
      vertex 20.5 -10.8536 -25
    endloop
  endfacet
  facet normal 1 0 0
    outer loop
      vertex 20.5 -10.5 25
      vertex 20.5 -10.8536 -20
      vertex 20.5 -10.5 -20
    endloop
  endfacet
  facet normal 1 0 0
    outer loop
      vertex 20.5 -14.5 25
      vertex 20.5 -14.1464 -20
      vertex 20.5 -10.5 25
    endloop
  endfacet
  facet normal 1 0 0
    outer loop
      vertex 20.5 -14.5 -20
      vertex 20.5 -14.1464 -20
      vertex 20.5 -14.5 25
    endloop
  endfacet
  facet normal -0.707107 -0.707107 0
    outer loop
      vertex 20.5 -10.8536 -25
      vertex 22.1464 -12.5 -25
      vertex 20.5 -10.8536 -20
    endloop
  endfacet
  facet normal -0.707107 -0.707107 0
    outer loop
      vertex 20.5 -10.8536 -20
      vertex 22.1464 -12.5 -25
      vertex 22.1464 -12.5 -20
    endloop
  endfacet
  facet normal -0.707107 0.707107 0
    outer loop
      vertex 20.5 -14.1464 -25
      vertex 20.5 -14.1464 -20
      vertex 22.1464 -12.5 -25
    endloop
  endfacet
  facet normal -0.707107 0.707107 0
    outer loop
      vertex 22.1464 -12.5 -25
      vertex 20.5 -14.1464 -20
      vertex 22.1464 -12.5 -20
    endloop
  endfacet
  facet normal 0.707107 -0.707107 0
    outer loop
      vertex 20.8536 -14.5 -20
      vertex 20.8536 -14.5 -25
      vertex 22.5 -12.8536 -25
    endloop
  endfacet
  facet normal 0.707107 -0.707107 0
    outer loop
      vertex 22.5 -12.8536 -20
      vertex 20.8536 -14.5 -20
      vertex 22.5 -12.8536 -25
    endloop
  endfacet
  facet normal -0.707107 -0.707107 0
    outer loop
      vertex 22.5 -12.8536 -25
      vertex 24.1464 -14.5 -25
      vertex 22.5 -12.8536 -20
    endloop
  endfacet
  facet normal -0.707107 -0.707107 0
    outer loop
      vertex 22.5 -12.8536 -20
      vertex 24.1464 -14.5 -25
      vertex 24.1464 -14.5 -20
    endloop
  endfacet
  facet normal 0 1 0
    outer loop
      vertex 24.5 -14.5 25
      vertex 24.5 -14.5 -20
      vertex 20.5 -14.5 25
    endloop
  endfacet
  facet normal 0 1 0
    outer loop
      vertex 20.5 -14.5 25
      vertex 24.5 -14.5 -20
      vertex 24.1464 -14.5 -20
    endloop
  endfacet
  facet normal 0 1 0
    outer loop
      vertex 20.5 -14.5 25
      vertex 24.1464 -14.5 -20
      vertex 24.1464 -14.5 -25
    endloop
  endfacet
  facet normal 0 1 0
    outer loop
      vertex 20.8536 -14.5 -20
      vertex 24.1464 -14.5 -25
      vertex 20.8536 -14.5 -25
    endloop
  endfacet
  facet normal 0 1 0
    outer loop
      vertex 20.5 -14.5 25
      vertex 24.1464 -14.5 -25
      vertex 20.8536 -14.5 -20
    endloop
  endfacet
  facet normal 0 1 0
    outer loop
      vertex 20.5 -14.5 -20
      vertex 20.5 -14.5 25
      vertex 20.8536 -14.5 -20
    endloop
  endfacet
  facet normal 0.707107 0.707107 0
    outer loop
      vertex 22.5 -12.1464 -25
      vertex 20.8536 -10.5 -25
      vertex 20.8536 -10.5 -20
    endloop
  endfacet
  facet normal 0.707107 0.707107 0
    outer loop
      vertex 22.5 -12.1464 -20
      vertex 22.5 -12.1464 -25
      vertex 20.8536 -10.5 -20
    endloop
  endfacet
  facet normal 0 -1 0
    outer loop
      vertex 20.8536 -10.5 -20
      vertex 20.8536 -10.5 -25
      vertex 24.1464 -10.5 -25
    endloop
  endfacet
  facet normal 0 -1 0
    outer loop
      vertex 24.5 -10.5 25
      vertex 20.8536 -10.5 -20
      vertex 24.1464 -10.5 -20
    endloop
  endfacet
  facet normal 0 -1 0
    outer loop
      vertex 24.1464 -10.5 -20
      vertex 20.8536 -10.5 -20
      vertex 24.1464 -10.5 -25
    endloop
  endfacet
  facet normal 0 -1 0
    outer loop
      vertex 24.5 -10.5 25
      vertex 24.1464 -10.5 -20
      vertex 24.5 -10.5 -20
    endloop
  endfacet
  facet normal 0 -1 0
    outer loop
      vertex 20.5 -10.5 25
      vertex 20.8536 -10.5 -20
      vertex 24.5 -10.5 25
    endloop
  endfacet
  facet normal 0 -1 0
    outer loop
      vertex 20.5 -10.5 -20
      vertex 20.8536 -10.5 -20
      vertex 20.5 -10.5 25
    endloop
  endfacet
  facet normal -0.707107 0.707107 0
    outer loop
      vertex 22.5 -12.1464 -25
      vertex 22.5 -12.1464 -20
      vertex 24.1464 -10.5 -25
    endloop
  endfacet
  facet normal -0.707107 0.707107 0
    outer loop
      vertex 24.1464 -10.5 -25
      vertex 22.5 -12.1464 -20
      vertex 24.1464 -10.5 -20
    endloop
  endfacet
  facet normal 0.707107 -0.707107 0
    outer loop
      vertex 22.8536 -12.5 -20
      vertex 22.8536 -12.5 -25
      vertex 24.5 -10.8536 -25
    endloop
  endfacet
  facet normal 0.707107 -0.707107 0
    outer loop
      vertex 24.5 -10.8536 -20
      vertex 22.8536 -12.5 -20
      vertex 24.5 -10.8536 -25
    endloop
  endfacet
  facet normal 0.707107 0.707107 0
    outer loop
      vertex 24.5 -14.1464 -25
      vertex 22.8536 -12.5 -25
      vertex 22.8536 -12.5 -20
    endloop
  endfacet
  facet normal 0.707107 0.707107 0
    outer loop
      vertex 24.5 -14.1464 -20
      vertex 24.5 -14.1464 -25
      vertex 22.8536 -12.5 -20
    endloop
  endfacet
  facet normal -1 0 0
    outer loop
      vertex 24.5 -10.5 25
      vertex 24.5 -10.5 -20
      vertex 24.5 -14.5 25
    endloop
  endfacet
  facet normal -1 0 0
    outer loop
      vertex 24.5 -14.5 25
      vertex 24.5 -10.5 -20
      vertex 24.5 -10.8536 -20
    endloop
  endfacet
  facet normal -1 0 0
    outer loop
      vertex 24.5 -14.5 25
      vertex 24.5 -10.8536 -20
      vertex 24.5 -10.8536 -25
    endloop
  endfacet
  facet normal -1 0 0
    outer loop
      vertex 24.5 -14.1464 -20
      vertex 24.5 -10.8536 -25
      vertex 24.5 -14.1464 -25
    endloop
  endfacet
  facet normal -1 0 0
    outer loop
      vertex 24.5 -14.5 25
      vertex 24.5 -10.8536 -25
      vertex 24.5 -14.1464 -20
    endloop
  endfacet
  facet normal -1 0 0
    outer loop
      vertex 24.5 -14.5 -20
      vertex 24.5 -14.5 25
      vertex 24.5 -14.1464 -20
    endloop
  endfacet
  facet normal 0 0 1
    outer loop
      vertex -24.5 10.8536 -20
      vertex -24.5 10.5 -20
      vertex -24.1464 10.5 -20
    endloop
  endfacet
  facet normal 0 0 1
    outer loop
      vertex -20.5 14.5 -20
      vertex -24.5 10.8536 -20
      vertex -20.5 14.1464 -20
    endloop
  endfacet
  facet normal 0 0 1
    outer loop
      vertex -20.5 14.1464 -20
      vertex -24.5 10.8536 -20
      vertex -24.1464 10.5 -20
    endloop
  endfacet
  facet normal 0 0 1
    outer loop
      vertex -22.6768 12.6768 -20
      vertex -23.0303 12.3232 -20
      vertex -20.5 14.5 -20
    endloop
  endfacet
  facet normal 0 0 1
    outer loop
      vertex -23.0303 12.3232 -20
      vertex -24.5 10.8536 -20
      vertex -20.5 14.5 -20
    endloop
  endfacet
  facet normal 0 0 1
    outer loop
      vertex -20.8536 14.5 -20
      vertex -22.6768 12.6768 -20
      vertex -20.5 14.5 -20
    endloop
  endfacet
  facet normal 0 0 1
    outer loop
      vertex -24.5 14.5 -20
      vertex -23.0303 12.3232 -20
      vertex -22.6768 12.6768 -20
    endloop
  endfacet
  facet normal 0 0 1
    outer loop
      vertex -24.5 13.7929 -20
      vertex -23.0303 12.3232 -20
      vertex -24.5 14.5 -20
    endloop
  endfacet
  facet normal 0 0 1
    outer loop
      vertex 20.5 -14.1464 -20
      vertex 20.5 -14.5 -20
      vertex 20.8536 -14.5 -20
    endloop
  endfacet
  facet normal 0 0 1
    outer loop
      vertex 22.8536 -12.5 -20
      vertex 20.5 -14.1464 -20
      vertex 22.5 -12.8536 -20
    endloop
  endfacet
  facet normal 0 0 1
    outer loop
      vertex 22.5 -12.8536 -20
      vertex 20.5 -14.1464 -20
      vertex 20.8536 -14.5 -20
    endloop
  endfacet
  facet normal 0 0 1
    outer loop
      vertex 24.5 -14.5 -20
      vertex 22.5 -12.8536 -20
      vertex 24.1464 -14.5 -20
    endloop
  endfacet
  facet normal 0 0 1
    outer loop
      vertex 24.5 -14.1464 -20
      vertex 22.5 -12.8536 -20
      vertex 24.5 -14.5 -20
    endloop
  endfacet
  facet normal 0 0 1
    outer loop
      vertex 22.8536 -12.5 -20
      vertex 22.5 -12.8536 -20
      vertex 24.5 -14.1464 -20
    endloop
  endfacet
  facet normal 0 0 1
    outer loop
      vertex 24.5 -10.8536 -20
      vertex 20.5 -14.1464 -20
      vertex 22.8536 -12.5 -20
    endloop
  endfacet
  facet normal 0 0 1
    outer loop
      vertex 24.5 -10.5 -20
      vertex 20.5 -14.1464 -20
      vertex 24.5 -10.8536 -20
    endloop
  endfacet
  facet normal 0 0 1
    outer loop
      vertex 22.5 -12.1464 -20
      vertex 22.1464 -12.5 -20
      vertex 24.5 -10.5 -20
    endloop
  endfacet
  facet normal 0 0 1
    outer loop
      vertex 22.1464 -12.5 -20
      vertex 20.5 -14.1464 -20
      vertex 24.5 -10.5 -20
    endloop
  endfacet
  facet normal 0 0 1
    outer loop
      vertex 24.1464 -10.5 -20
      vertex 22.5 -12.1464 -20
      vertex 24.5 -10.5 -20
    endloop
  endfacet
  facet normal 0 0 1
    outer loop
      vertex 20.8536 -10.5 -20
      vertex 20.5 -10.5 -20
      vertex 20.5 -10.8536 -20
    endloop
  endfacet
  facet normal 0 0 1
    outer loop
      vertex 20.8536 -10.5 -20
      vertex 22.1464 -12.5 -20
      vertex 22.5 -12.1464 -20
    endloop
  endfacet
  facet normal 0 0 1
    outer loop
      vertex 20.5 -10.8536 -20
      vertex 22.1464 -12.5 -20
      vertex 20.8536 -10.5 -20
    endloop
  endfacet
endsolid OpenSCAD_Model
