solid OpenSCAD_Model
  facet normal 0.866024 0 0.500003
    outer loop
      vertex 0.247812 3 1.2622
      vertex 0.886321 0 0.156282
      vertex 0.886321 3 0.156282
    endloop
  endfacet
  facet normal 0.866024 -0 0.500003
    outer loop
      vertex 0.247812 -3 1.2622
      vertex 0.886321 0 0.156282
      vertex 0.247812 3 1.2622
    endloop
  endfacet
  facet normal 0.866024 0 0.500003
    outer loop
      vertex 0.886321 0 0.156282
      vertex 0.247812 -3 1.2622
      vertex 0.886321 -3 0.156282
    endloop
  endfacet
  facet normal 0 1 -0
    outer loop
      vertex 1.86888e-15 3 -3.46876e-16
      vertex 1.15673e-16 3 -6.56014e-16
      vertex 0.886321 3 0.156282
    endloop
  endfacet
  facet normal 0.173648 0 -0.984808
    outer loop
      vertex 0.886321 -3 0.156282
      vertex 0 0 0
      vertex 0.886321 0 0.156282
    endloop
  endfacet
  facet normal 0.173648 -2.22045e-16 -0.984808
    outer loop
      vertex 0 0 0
      vertex 0.886321 -3 0.156282
      vertex -1.15673e-16 -3 6.56014e-16
    endloop
  endfacet
  facet normal 0 1 0
    outer loop
      vertex 1.15673e-16 3 -6.56014e-16
      vertex 0.247812 3 1.2622
      vertex 0.886321 3 0.156282
    endloop
  endfacet
  facet normal 0 1 0
    outer loop
      vertex 0.247812 3 1.2622
      vertex 1.15673e-16 3 -6.56014e-16
      vertex -0.208377 3 1.18177
    endloop
  endfacet
  facet normal -0.173648 0 0.984808
    outer loop
      vertex -0.208377 3 1.18177
      vertex 0.247812 -3 1.2622
      vertex 0.247812 3 1.2622
    endloop
  endfacet
  facet normal -0.173648 0 0.984808
    outer loop
      vertex 0.247812 -3 1.2622
      vertex -0.208377 3 1.18177
      vertex -0.208377 -3 1.18177
    endloop
  endfacet
  facet normal 0 -1 0
    outer loop
      vertex -1.15673e-16 -3 6.56014e-16
      vertex 0.247812 -3 1.2622
      vertex -0.208377 -3 1.18177
    endloop
  endfacet
  facet normal 0 -1 -0
    outer loop
      vertex 0.247812 -3 1.2622
      vertex -1.15673e-16 -3 6.56014e-16
      vertex 0.886321 -3 0.156282
    endloop
  endfacet
  facet normal 0 1 0
    outer loop
      vertex 5.81036 3 1.02452
      vertex 3.39919 3 1.81788
      vertex 5.17185 3 2.13045
    endloop
  endfacet
  facet normal 0 1 0
    outer loop
      vertex 3.39919 3 1.81788
      vertex 5.81036 3 1.02452
      vertex 3.17745 3 0.560271
    endloop
  endfacet
  facet normal 0.866024 0 0.500003
    outer loop
      vertex 5.17185 3 2.13045
      vertex 5.81036 0 1.02452
      vertex 5.81036 3 1.02452
    endloop
  endfacet
  facet normal 0.866024 -0 0.500003
    outer loop
      vertex 5.17185 -3 2.13045
      vertex 5.81036 0 1.02452
      vertex 5.17185 3 2.13045
    endloop
  endfacet
  facet normal 0.866024 0 0.500003
    outer loop
      vertex 5.81036 0 1.02452
      vertex 5.17185 -3 2.13045
      vertex 5.81036 -3 1.02452
    endloop
  endfacet
  facet normal -0.984809 0 0.17364
    outer loop
      vertex 3.17745 0 0.560271
      vertex 3.39919 3 1.81788
      vertex 3.17745 3 0.560271
    endloop
  endfacet
  facet normal -0.984809 0 0.17364
    outer loop
      vertex 3.39919 -3 1.81788
      vertex 3.17745 0 0.560271
      vertex 3.17745 -3 0.560271
    endloop
  endfacet
  facet normal -0.984809 0 0.17364
    outer loop
      vertex 3.17745 0 0.560271
      vertex 3.39919 -3 1.81788
      vertex 3.39919 3 1.81788
    endloop
  endfacet
  facet normal 0.173648 0 -0.984808
    outer loop
      vertex 3.17745 -3 0.560271
      vertex 5.81036 0 1.02452
      vertex 5.81036 -3 1.02452
    endloop
  endfacet
  facet normal 0.173648 0 -0.984808
    outer loop
      vertex 5.81036 0 1.02452
      vertex 3.17745 -3 0.560271
      vertex 3.17745 0 0.560271
    endloop
  endfacet
  facet normal 0 -1 0
    outer loop
      vertex 3.39919 -3 1.81788
      vertex 5.81036 -3 1.02452
      vertex 5.17185 -3 2.13045
    endloop
  endfacet
  facet normal -0 -1 0
    outer loop
      vertex 5.81036 -3 1.02452
      vertex 3.39919 -3 1.81788
      vertex 3.17745 -3 0.560271
    endloop
  endfacet
  facet normal -0.173648 0 0.984808
    outer loop
      vertex 3.39919 3 1.81788
      vertex 5.17185 -3 2.13045
      vertex 5.17185 3 2.13045
    endloop
  endfacet
  facet normal -0.173648 0 0.984808
    outer loop
      vertex 5.17185 -3 2.13045
      vertex 3.39919 3 1.81788
      vertex 3.39919 -3 1.81788
    endloop
  endfacet
  facet normal 0 1 0
    outer loop
      vertex 9.00114 3 1.58714
      vertex 8.32323 3 2.68612
      vertex 8.79276 3 2.76891
    endloop
  endfacet
  facet normal 0 1 0
    outer loop
      vertex 8.32323 3 2.68612
      vertex 9.00114 3 1.58714
      vertex 8.10149 3 1.42851
    endloop
  endfacet
  facet normal -0.984809 0 0.17364
    outer loop
      vertex 8.10149 0 1.42851
      vertex 8.32323 3 2.68612
      vertex 8.10149 3 1.42851
    endloop
  endfacet
  facet normal -0.984809 0 0.17364
    outer loop
      vertex 8.32323 -3 2.68612
      vertex 8.10149 0 1.42851
      vertex 8.10149 -3 1.42851
    endloop
  endfacet
  facet normal -0.984809 0 0.17364
    outer loop
      vertex 8.10149 0 1.42851
      vertex 8.32323 -3 2.68612
      vertex 8.32323 3 2.68612
    endloop
  endfacet
  facet normal -0.173649 0 0.984808
    outer loop
      vertex 8.32323 3 2.68612
      vertex 8.79276 -3 2.76891
      vertex 8.79276 3 2.76891
    endloop
  endfacet
  facet normal -0.173649 0 0.984808
    outer loop
      vertex 8.79276 -3 2.76891
      vertex 8.32323 3 2.68612
      vertex 8.32323 -3 2.68612
    endloop
  endfacet
  facet normal 0.173648 0 -0.984808
    outer loop
      vertex 8.10149 -3 1.42851
      vertex 9.00114 0 1.58714
      vertex 9.00114 -3 1.58714
    endloop
  endfacet
  facet normal 0.173648 0 -0.984808
    outer loop
      vertex 9.00114 0 1.58714
      vertex 8.10149 -3 1.42851
      vertex 8.10149 0 1.42851
    endloop
  endfacet
  facet normal 0 -1 0
    outer loop
      vertex 8.32323 -3 2.68612
      vertex 9.00114 -3 1.58714
      vertex 8.79276 -3 2.76891
    endloop
  endfacet
  facet normal -0 -1 0
    outer loop
      vertex 9.00114 -3 1.58714
      vertex 8.32323 -3 2.68612
      vertex 8.10149 -3 1.42851
    endloop
  endfacet
  facet normal 4.84222e-08 1 -2.74616e-07
    outer loop
      vertex 9.59502 3 -1.7809
      vertex 3.17745 3 0.560271
      vertex 5.81036 3 1.02452
    endloop
  endfacet
  facet normal 4.84222e-08 1 -2.74616e-07
    outer loop
      vertex 3.17745 3 0.560271
      vertex 9.59502 3 -1.7809
      vertex 0.886321 3 0.156282
    endloop
  endfacet
  facet normal 5.52013e-08 1 -3.13062e-07
    outer loop
      vertex 9.52209 3 -1.36728
      vertex 8.10149 3 1.42851
      vertex 9.00114 3 1.58714
    endloop
  endfacet
  facet normal 5.52013e-08 1 -3.13062e-07
    outer loop
      vertex 9.52209 3 -1.36728
      vertex 5.81036 3 1.02452
      vertex 8.10149 3 1.42851
    endloop
  endfacet
  facet normal 2.89871e-07 1 5.11117e-08
    outer loop
      vertex 9.59502 3 -1.7809
      vertex 5.81036 3 1.02452
      vertex 9.52209 3 -1.36728
    endloop
  endfacet
  facet normal 4.84222e-08 1 -2.74616e-07
    outer loop
      vertex 0.886321 3 0.156282
      vertex 9.59502 3 -1.7809
      vertex 1.86888e-15 3 -3.46876e-16
    endloop
  endfacet
  facet normal 9.20027e-08 1 -5.21773e-07
    outer loop
      vertex 1.86888e-15 3 -3.46876e-16
      vertex 0.312565 3 -1.77264
      vertex 1.15673e-16 3 -6.56014e-16
    endloop
  endfacet
  facet normal -4.78494e-10 1 -5.3808e-07
    outer loop
      vertex 0.312565 3 -1.77264
      vertex 1.86888e-15 3 -3.46876e-16
      vertex 9.59502 3 -1.7809
    endloop
  endfacet
  facet normal -0.173648 0 0.984808
    outer loop
      vertex 3.17745 3 0.560271
      vertex 0.886321 3 0.156282
      vertex 3.17745 0 0.560271
    endloop
  endfacet
  facet normal -0.173648 0 0.984808
    outer loop
      vertex 8.10149 3 1.42851
      vertex 5.81036 3 1.02452
      vertex 8.10149 0 1.42851
    endloop
  endfacet
  facet normal -0.173648 0 0.984808
    outer loop
      vertex 8.10149 0 1.42851
      vertex 9.00114 -3 1.58714
      vertex 9.00114 0 1.58714
    endloop
  endfacet
  facet normal -0.173648 0 0.984808
    outer loop
      vertex 5.81036 0 1.02452
      vertex 8.10149 0 1.42851
      vertex 5.81036 3 1.02452
    endloop
  endfacet
  facet normal -0.173648 3.43463e-09 0.984808
    outer loop
      vertex 8.10149 0 1.42851
      vertex 5.81036 0 1.02452
      vertex 9.00114 -3 1.58714
    endloop
  endfacet
  facet normal -0.173648 4.52095e-08 0.984808
    outer loop
      vertex 3.17745 0 0.560271
      vertex 9.00114 -3 1.58714
      vertex 5.81036 0 1.02452
    endloop
  endfacet
  facet normal -0.173648 0 0.984808
    outer loop
      vertex 0.886321 0 0.156282
      vertex 3.17745 0 0.560271
      vertex 0.886321 3 0.156282
    endloop
  endfacet
  facet normal -0.173648 4.90582e-09 0.984808
    outer loop
      vertex 0 -3 0
      vertex 3.17745 0 0.560271
      vertex 0.886321 0 0.156282
    endloop
  endfacet
  facet normal -0.173648 0 0.984808
    outer loop
      vertex 0 -3 0
      vertex 0.886321 0 0.156282
      vertex 0 0 0
    endloop
  endfacet
  facet normal -0.173648 -1.4758e-08 0.984808
    outer loop
      vertex 3.17745 0 0.560271
      vertex 0 -3 0
      vertex 9.00114 -3 1.58714
    endloop
  endfacet
  facet normal 0 -1 0
    outer loop
      vertex 0.312564 -3 -1.77264
      vertex 9.00114 -3 1.58714
      vertex 0 -3 0
    endloop
  endfacet
  facet normal 0 -1 -0
    outer loop
      vertex 9.00114 -3 1.58714
      vertex 0.312564 -3 -1.77264
      vertex 9.52209 -3 -1.36728
    endloop
  endfacet
  facet normal 0 -1 -0
    outer loop
      vertex 9.52209 -3 -1.36728
      vertex 0.312564 -3 -1.77264
      vertex 9.59502 -3 -1.7809
    endloop
  endfacet
  facet normal -0.984808 1.74892e-09 -0.173648
    outer loop
      vertex 0.312564 -3 -1.77264
      vertex 0 0 0
      vertex 0.312565 3 -1.77264
    endloop
  endfacet
  facet normal -0.984808 -0 -0.173648
    outer loop
      vertex 0 0 0
      vertex 0.312564 -3 -1.77264
      vertex 0 -3 0
    endloop
  endfacet
  facet normal -0.984808 -1.0682e-24 -0.173648
    outer loop
      vertex 0 0 0
      vertex 1.15673e-16 3 -6.56014e-16
      vertex 0.312565 3 -1.77264
    endloop
  endfacet
  facet normal -0.984808 -4.00575e-25 -0.173648
    outer loop
      vertex 1.15673e-16 3 -6.56014e-16
      vertex 0 0 0
      vertex -0.208377 3 1.18177
    endloop
  endfacet
  facet normal -0.984808 0 -0.173648
    outer loop
      vertex -0.208377 -3 1.18177
      vertex 0 0 0
      vertex -1.15673e-16 -3 6.56014e-16
    endloop
  endfacet
  facet normal -0.984808 0 -0.173648
    outer loop
      vertex 0 0 0
      vertex -0.208377 -3 1.18177
      vertex -0.208377 3 1.18177
    endloop
  endfacet
  facet normal -0.000889261 -1.39077e-07 -1
    outer loop
      vertex 9.59502 -3 -1.7809
      vertex 0.312565 3 -1.77264
      vertex 9.59502 3 -1.7809
    endloop
  endfacet
  facet normal -0.000889274 -1.58919e-07 -1
    outer loop
      vertex 0.312565 3 -1.77264
      vertex 9.59502 -3 -1.7809
      vertex 0.312564 -3 -1.77264
    endloop
  endfacet
  facet normal 0.984808 -0 0.173647
    outer loop
      vertex 9.52209 -3 -1.36728
      vertex 9.59502 3 -1.7809
      vertex 9.52209 3 -1.36728
    endloop
  endfacet
  facet normal 0.984808 2.41504e-08 0.173647
    outer loop
      vertex 9.59502 3 -1.7809
      vertex 9.52209 -3 -1.36728
      vertex 9.59502 -3 -1.7809
    endloop
  endfacet
  facet normal 0.984808 -0 0.173649
    outer loop
      vertex 9.00114 -3 1.58714
      vertex 9.00114 3 1.58714
      vertex 8.79276 3 2.76891
    endloop
  endfacet
  facet normal 0.984808 0 0.173649
    outer loop
      vertex 9.00114 -3 1.58714
      vertex 8.79276 3 2.76891
      vertex 8.79276 -3 2.76891
    endloop
  endfacet
  facet normal 0.984808 0 0.173648
    outer loop
      vertex 9.00114 3 1.58714
      vertex 9.00114 -3 1.58714
      vertex 9.52209 3 -1.36728
    endloop
  endfacet
  facet normal 0.984808 0 0.173648
    outer loop
      vertex 9.52209 3 -1.36728
      vertex 9.00114 -3 1.58714
      vertex 9.52209 -3 -1.36728
    endloop
  endfacet
endsolid OpenSCAD_Model
