solid OpenSCAD_Model
  facet normal 0.866024 0 0.500003
    outer loop
      vertex 2.85465 3 1.72186
      vertex 3.49316 0 0.615939
      vertex 3.49316 3 0.615939
    endloop
  endfacet
  facet normal 0.866024 -0 0.500003
    outer loop
      vertex 2.85465 -3 1.72186
      vertex 3.49316 0 0.615939
      vertex 2.85465 3 1.72186
    endloop
  endfacet
  facet normal 0.866024 0 0.500003
    outer loop
      vertex 3.49316 0 0.615939
      vertex 2.85465 -3 1.72186
      vertex 3.49316 -3 0.615939
    endloop
  endfacet
  facet normal -0.984809 0 0.17364
    outer loop
      vertex 0.860258 0 0.151687
      vertex 1.082 3 1.40929
      vertex 0.860258 3 0.151687
    endloop
  endfacet
  facet normal -0.984809 0 0.17364
    outer loop
      vertex 1.082 -3 1.40929
      vertex 0.860258 0 0.151687
      vertex 0.860258 -3 0.151687
    endloop
  endfacet
  facet normal -0.984809 0 0.17364
    outer loop
      vertex 0.860258 0 0.151687
      vertex 1.082 -3 1.40929
      vertex 1.082 3 1.40929
    endloop
  endfacet
  facet normal 0.173648 0 -0.984808
    outer loop
      vertex 0.860258 -3 0.151687
      vertex 3.49316 0 0.615939
      vertex 3.49316 -3 0.615939
    endloop
  endfacet
  facet normal 0.173648 0 -0.984808
    outer loop
      vertex 3.49316 0 0.615939
      vertex 0.860258 -3 0.151687
      vertex 0.860258 0 0.151687
    endloop
  endfacet
  facet normal 0 1 0
    outer loop
      vertex 3.49316 3 0.615939
      vertex 1.082 3 1.40929
      vertex 2.85465 3 1.72186
    endloop
  endfacet
  facet normal 0 1 0
    outer loop
      vertex 1.082 3 1.40929
      vertex 3.49316 3 0.615939
      vertex 0.860258 3 0.151687
    endloop
  endfacet
  facet normal -0.173648 0 0.984808
    outer loop
      vertex 1.082 3 1.40929
      vertex 2.85465 -3 1.72186
      vertex 2.85465 3 1.72186
    endloop
  endfacet
  facet normal -0.173648 0 0.984808
    outer loop
      vertex 2.85465 -3 1.72186
      vertex 1.082 3 1.40929
      vertex 1.082 -3 1.40929
    endloop
  endfacet
  facet normal 0 -1 0
    outer loop
      vertex 1.082 -3 1.40929
      vertex 3.49316 -3 0.615939
      vertex 2.85465 -3 1.72186
    endloop
  endfacet
  facet normal -0 -1 0
    outer loop
      vertex 3.49316 -3 0.615939
      vertex 1.082 -3 1.40929
      vertex 0.860258 -3 0.151687
    endloop
  endfacet
  facet normal 0 1 0
    outer loop
      vertex 8.4172 3 1.48418
      vertex 6.00604 3 2.27753
      vertex 7.77869 3 2.5901
    endloop
  endfacet
  facet normal 0 1 0
    outer loop
      vertex 6.00604 3 2.27753
      vertex 8.4172 3 1.48418
      vertex 5.7843 3 1.01993
    endloop
  endfacet
  facet normal 0.866024 0 0.500003
    outer loop
      vertex 7.77869 3 2.5901
      vertex 8.4172 0 1.48418
      vertex 8.4172 3 1.48418
    endloop
  endfacet
  facet normal 0.866024 -0 0.500003
    outer loop
      vertex 7.77869 -3 2.5901
      vertex 8.4172 0 1.48418
      vertex 7.77869 3 2.5901
    endloop
  endfacet
  facet normal 0.866024 0 0.500003
    outer loop
      vertex 8.4172 0 1.48418
      vertex 7.77869 -3 2.5901
      vertex 8.4172 -3 1.48418
    endloop
  endfacet
  facet normal -0.984809 0 0.17364
    outer loop
      vertex 5.7843 0 1.01993
      vertex 6.00604 3 2.27753
      vertex 5.7843 3 1.01993
    endloop
  endfacet
  facet normal -0.984809 0 0.17364
    outer loop
      vertex 6.00604 -3 2.27753
      vertex 5.7843 0 1.01993
      vertex 5.7843 -3 1.01993
    endloop
  endfacet
  facet normal -0.984809 0 0.17364
    outer loop
      vertex 5.7843 0 1.01993
      vertex 6.00604 -3 2.27753
      vertex 6.00604 3 2.27753
    endloop
  endfacet
  facet normal 0.173648 0 -0.984808
    outer loop
      vertex 5.7843 -3 1.01993
      vertex 8.4172 0 1.48418
      vertex 8.4172 -3 1.48418
    endloop
  endfacet
  facet normal 0.173648 0 -0.984808
    outer loop
      vertex 8.4172 0 1.48418
      vertex 5.7843 -3 1.01993
      vertex 5.7843 0 1.01993
    endloop
  endfacet
  facet normal 0 -1 0
    outer loop
      vertex 6.00604 -3 2.27753
      vertex 8.4172 -3 1.48418
      vertex 7.77869 -3 2.5901
    endloop
  endfacet
  facet normal -0 -1 0
    outer loop
      vertex 8.4172 -3 1.48418
      vertex 6.00604 -3 2.27753
      vertex 5.7843 -3 1.01993
    endloop
  endfacet
  facet normal -0.173648 0 0.984808
    outer loop
      vertex 6.00604 3 2.27753
      vertex 7.77869 -3 2.5901
      vertex 7.77869 3 2.5901
    endloop
  endfacet
  facet normal -0.173648 0 0.984808
    outer loop
      vertex 7.77869 -3 2.5901
      vertex 6.00604 3 2.27753
      vertex 6.00604 -3 2.27753
    endloop
  endfacet
  facet normal 5.52013e-08 1 -3.13062e-07
    outer loop
      vertex 9.52209 3 -1.36728
      vertex 8.4172 3 1.48418
      vertex 9.00114 3 1.58714
    endloop
  endfacet
  facet normal 4.84222e-08 1 -2.74616e-07
    outer loop
      vertex 9.59502 3 -1.7809
      vertex 3.49316 3 0.615939
      vertex 5.7843 3 1.01993
    endloop
  endfacet
  facet normal 4.84222e-08 1 -2.74616e-07
    outer loop
      vertex 3.49316 3 0.615939
      vertex 9.59502 3 -1.7809
      vertex 0.860258 3 0.151687
    endloop
  endfacet
  facet normal 5.52013e-08 1 -3.13062e-07
    outer loop
      vertex 8.4172 3 1.48418
      vertex 9.52209 3 -1.36728
      vertex 5.7843 3 1.01993
    endloop
  endfacet
  facet normal 2.87523e-07 1 5.06976e-08
    outer loop
      vertex 9.59502 3 -1.7809
      vertex 5.7843 3 1.01993
      vertex 9.52209 3 -1.36728
    endloop
  endfacet
  facet normal 4.84222e-08 1 -2.74616e-07
    outer loop
      vertex 0.860258 3 0.151687
      vertex 9.59502 3 -1.7809
      vertex 0 3 0
    endloop
  endfacet
  facet normal -4.78494e-10 1 -5.3808e-07
    outer loop
      vertex 9.59502 3 -1.7809
      vertex 0.312565 3 -1.77264
      vertex 0 3 0
    endloop
  endfacet
  facet normal -0.173648 0 0.984808
    outer loop
      vertex 0.860258 3 0.151687
      vertex 0 3 0
      vertex 0.860258 0 0.151687
    endloop
  endfacet
  facet normal -0.173648 0 0.984808
    outer loop
      vertex 5.7843 3 1.01993
      vertex 3.49316 3 0.615939
      vertex 5.7843 0 1.01993
    endloop
  endfacet
  facet normal -0.173648 0 0.984808
    outer loop
      vertex 8.4172 0 1.48418
      vertex 9.00114 3 1.58714
      vertex 8.4172 3 1.48418
    endloop
  endfacet
  facet normal -0.173648 0 0.984808
    outer loop
      vertex 9.00114 3 1.58714
      vertex 8.4172 0 1.48418
      vertex 9.00114 -3 1.58714
    endloop
  endfacet
  facet normal -0.173648 -7.43933e-09 0.984808
    outer loop
      vertex 5.7843 0 1.01993
      vertex 9.00114 -3 1.58714
      vertex 8.4172 0 1.48418
    endloop
  endfacet
  facet normal -0.173648 0 0.984808
    outer loop
      vertex 3.49316 0 0.615939
      vertex 5.7843 0 1.01993
      vertex 3.49316 3 0.615939
    endloop
  endfacet
  facet normal -0.173648 1.76326e-08 0.984808
    outer loop
      vertex 3.49316 0 0.615939
      vertex 9.00114 -3 1.58714
      vertex 5.7843 0 1.01993
    endloop
  endfacet
  facet normal -0.173648 -2.51427e-10 0.984808
    outer loop
      vertex 0 -3 0
      vertex 3.49316 0 0.615939
      vertex 0.860258 0 0.151687
    endloop
  endfacet
  facet normal -0.173648 -1.48086e-10 0.984808
    outer loop
      vertex 3.49316 0 0.615939
      vertex 0 -3 0
      vertex 9.00114 -3 1.58714
    endloop
  endfacet
  facet normal -0.173648 0 0.984808
    outer loop
      vertex 0 -3 0
      vertex 0.860258 0 0.151687
      vertex 0 3 0
    endloop
  endfacet
  facet normal 0 -1 0
    outer loop
      vertex 0.312564 -3 -1.77264
      vertex 9.00114 -3 1.58714
      vertex 0 -3 0
    endloop
  endfacet
  facet normal 0 -1 -0
    outer loop
      vertex 9.00114 -3 1.58714
      vertex 0.312564 -3 -1.77264
      vertex 9.52209 -3 -1.36728
    endloop
  endfacet
  facet normal 0 -1 -0
    outer loop
      vertex 9.52209 -3 -1.36728
      vertex 0.312564 -3 -1.77264
      vertex 9.59502 -3 -1.7809
    endloop
  endfacet
  facet normal -0.984808 1.74892e-09 -0.173648
    outer loop
      vertex 0.312564 -3 -1.77264
      vertex 0 3 0
      vertex 0.312565 3 -1.77264
    endloop
  endfacet
  facet normal -0.984808 -0 -0.173648
    outer loop
      vertex 0 3 0
      vertex 0.312564 -3 -1.77264
      vertex 0 -3 0
    endloop
  endfacet
  facet normal -0.000889261 -1.39077e-07 -1
    outer loop
      vertex 9.59502 -3 -1.7809
      vertex 0.312565 3 -1.77264
      vertex 9.59502 3 -1.7809
    endloop
  endfacet
  facet normal -0.000889274 -1.58919e-07 -1
    outer loop
      vertex 0.312565 3 -1.77264
      vertex 9.59502 -3 -1.7809
      vertex 0.312564 -3 -1.77264
    endloop
  endfacet
  facet normal 0.984808 -0 0.173648
    outer loop
      vertex 9.00114 -3 1.58714
      vertex 9.52209 3 -1.36728
      vertex 9.00114 3 1.58714
    endloop
  endfacet
  facet normal 0.984808 0 0.173648
    outer loop
      vertex 9.52209 3 -1.36728
      vertex 9.00114 -3 1.58714
      vertex 9.52209 -3 -1.36728
    endloop
  endfacet
  facet normal 0.984808 -0 0.173647
    outer loop
      vertex 9.52209 -3 -1.36728
      vertex 9.59502 3 -1.7809
      vertex 9.52209 3 -1.36728
    endloop
  endfacet
  facet normal 0.984808 2.41504e-08 0.173647
    outer loop
      vertex 9.59502 3 -1.7809
      vertex 9.52209 -3 -1.36728
      vertex 9.59502 -3 -1.7809
    endloop
  endfacet
endsolid OpenSCAD_Model
