solid OpenSCAD_Model
  facet normal -1 0 0
    outer loop
      vertex -59 -96.5 -24.5
      vertex -59 -96.5 8.83333
      vertex -59 -29.5 -24.5
    endloop
  endfacet
  facet normal -1 0 0
    outer loop
      vertex -59 -29.5 -24.5
      vertex -59 -96.5 8.83333
      vertex -59 -29.5 8.83333
    endloop
  endfacet
  facet normal 0 -1 0
    outer loop
      vertex -59 -96.5 8.83333
      vertex -59 -96.5 -24.5
      vertex 59 -96.5 -24.5
    endloop
  endfacet
  facet normal 0 -1 0
    outer loop
      vertex 59 -96.5 8.83333
      vertex -59 -96.5 8.83333
      vertex 59 -96.5 -24.5
    endloop
  endfacet
  facet normal 0 0 -1
    outer loop
      vertex -59 -96.5 -24.5
      vertex -59 -29.5 -24.5
      vertex 59 -96.5 -24.5
    endloop
  endfacet
  facet normal 0 0 -1
    outer loop
      vertex 59 -96.5 -24.5
      vertex -59 -29.5 -24.5
      vertex 59 -29.5 -24.5
    endloop
  endfacet
  facet normal 0 1 0
    outer loop
      vertex -59 -29.5 -24.5
      vertex -59 -29.5 8.83333
      vertex 59 -29.5 -24.5
    endloop
  endfacet
  facet normal 0 1 0
    outer loop
      vertex 59 -29.5 -24.5
      vertex -59 -29.5 8.83333
      vertex 59 -29.5 8.83333
    endloop
  endfacet
  facet normal 0 1.22465e-16 1
    outer loop
      vertex 58 -30.5 8.83333
      vertex 59 -29.5 8.83333
      vertex -59 -29.5 8.83333
    endloop
  endfacet
  facet normal 0 1.22465e-16 1
    outer loop
      vertex -59 -96.5 8.83333
      vertex -58 -30.5 8.83333
      vertex -59 -29.5 8.83333
    endloop
  endfacet
  facet normal 0 1.22465e-16 1
    outer loop
      vertex 59 -96.5 8.83333
      vertex 59 -29.5 8.83333
      vertex 58 -30.5 8.83333
    endloop
  endfacet
  facet normal 0 1.22465e-16 1
    outer loop
      vertex 58 -95.5 8.83333
      vertex -58 -95.5 8.83333
      vertex 59 -96.5 8.83333
    endloop
  endfacet
  facet normal 0 1.22465e-16 1
    outer loop
      vertex 59 -96.5 8.83333
      vertex 58 -30.5 8.83333
      vertex 58 -95.5 8.83333
    endloop
  endfacet
  facet normal 0 1.22465e-16 1
    outer loop
      vertex -59 -96.5 8.83333
      vertex -58 -95.5 8.83333
      vertex -58 -30.5 8.83333
    endloop
  endfacet
  facet normal 0 1.22465e-16 1
    outer loop
      vertex -59 -96.5 8.83333
      vertex 59 -96.5 8.83333
      vertex -58 -95.5 8.83333
    endloop
  endfacet
  facet normal 0 1.22465e-16 1
    outer loop
      vertex -58 -30.5 8.83333
      vertex 58 -30.5 8.83333
      vertex -59 -29.5 8.83333
    endloop
  endfacet
  facet normal 1 0 0
    outer loop
      vertex 59 -96.5 8.83333
      vertex 59 -96.5 -24.5
      vertex 59 -29.5 -24.5
    endloop
  endfacet
  facet normal 1 0 0
    outer loop
      vertex 59 -29.5 8.83333
      vertex 59 -96.5 8.83333
      vertex 59 -29.5 -24.5
    endloop
  endfacet
  facet normal -1 0 0
    outer loop
      vertex -58 -95.5 8.83333
      vertex -58 -95.5 24.5
      vertex -58 -30.5 8.83333
    endloop
  endfacet
  facet normal -1 0 0
    outer loop
      vertex -58 -30.5 8.83333
      vertex -58 -95.5 24.5
      vertex -58 -30.5 24.5
    endloop
  endfacet
  facet normal 0 1 -1.22465e-16
    outer loop
      vertex -58 -30.5 8.83333
      vertex -58 -30.5 24.5
      vertex 58 -30.5 8.83333
    endloop
  endfacet
  facet normal 0 1 -1.22465e-16
    outer loop
      vertex 58 -30.5 8.83333
      vertex -58 -30.5 24.5
      vertex 58 -30.5 24.5
    endloop
  endfacet
  facet normal 0 -1 1.22465e-16
    outer loop
      vertex -58 -95.5 24.5
      vertex -58 -95.5 8.83333
      vertex 58 -95.5 8.83333
    endloop
  endfacet
  facet normal 0 -1 1.22465e-16
    outer loop
      vertex 58 -95.5 24.5
      vertex -58 -95.5 24.5
      vertex 58 -95.5 8.83333
    endloop
  endfacet
  facet normal 1 0 0
    outer loop
      vertex 58 -95.5 24.5
      vertex 58 -95.5 8.83333
      vertex 58 -30.5 8.83333
    endloop
  endfacet
  facet normal 1 0 0
    outer loop
      vertex 58 -30.5 24.5
      vertex 58 -95.5 24.5
      vertex 58 -30.5 8.83333
    endloop
  endfacet
  facet normal 0 0 1
    outer loop
      vertex -57 -94.5 24.5
      vertex -58 -95.5 24.5
      vertex 58 -95.5 24.5
    endloop
  endfacet
  facet normal 0 0 1
    outer loop
      vertex -58 -30.5 24.5
      vertex -58 -95.5 24.5
      vertex -57 -94.5 24.5
    endloop
  endfacet
  facet normal 0 0 1
    outer loop
      vertex -57 -31.5 24.5
      vertex 57 -31.5 24.5
      vertex -58 -30.5 24.5
    endloop
  endfacet
  facet normal 0 0 1
    outer loop
      vertex -58 -30.5 24.5
      vertex -57 -94.5 24.5
      vertex -57 -31.5 24.5
    endloop
  endfacet
  facet normal 0 0 1
    outer loop
      vertex 58 -30.5 24.5
      vertex 57 -31.5 24.5
      vertex 58 -95.5 24.5
    endloop
  endfacet
  facet normal 0 0 1
    outer loop
      vertex 58 -30.5 24.5
      vertex -58 -30.5 24.5
      vertex 57 -31.5 24.5
    endloop
  endfacet
  facet normal 0 0 1
    outer loop
      vertex 57 -31.5 24.5
      vertex 57 -94.5 24.5
      vertex 58 -95.5 24.5
    endloop
  endfacet
  facet normal 0 0 1
    outer loop
      vertex 57 -94.5 24.5
      vertex -57 -94.5 24.5
      vertex 58 -95.5 24.5
    endloop
  endfacet
  facet normal 1 0 0
    outer loop
      vertex -57 -31.5 -22.55
      vertex -57 -31.5 24.5
      vertex -57 -94.5 24.5
    endloop
  endfacet
  facet normal 1 0 0
    outer loop
      vertex -57 -94.5 -22.55
      vertex -57 -31.5 -22.55
      vertex -57 -94.5 24.5
    endloop
  endfacet
  facet normal 0 1 0
    outer loop
      vertex 57 -94.5 24.5
      vertex 57 -94.5 -22.55
      vertex -57 -94.5 24.5
    endloop
  endfacet
  facet normal 0 1 0
    outer loop
      vertex -57 -94.5 24.5
      vertex 57 -94.5 -22.55
      vertex -57 -94.5 -22.55
    endloop
  endfacet
  facet normal -1 0 0
    outer loop
      vertex 57 -31.5 24.5
      vertex 57 -31.5 -22.55
      vertex 57 -94.5 24.5
    endloop
  endfacet
  facet normal -1 0 0
    outer loop
      vertex 57 -94.5 24.5
      vertex 57 -31.5 -22.55
      vertex 57 -94.5 -22.55
    endloop
  endfacet
  facet normal 0 -1 0
    outer loop
      vertex 57 -31.5 -22.55
      vertex 57 -31.5 24.5
      vertex -57 -31.5 24.5
    endloop
  endfacet
  facet normal 0 -1 0
    outer loop
      vertex -57 -31.5 -22.55
      vertex 57 -31.5 -22.55
      vertex -57 -31.5 24.5
    endloop
  endfacet
  facet normal 0 0 1
    outer loop
      vertex 57 -94.5 -22.55
      vertex 57 -31.5 -22.55
      vertex -57 -31.5 -22.55
    endloop
  endfacet
  facet normal 0 0 1
    outer loop
      vertex -57 -94.5 -22.55
      vertex 57 -94.5 -22.55
      vertex -57 -31.5 -22.55
    endloop
  endfacet
endsolid OpenSCAD_Model
