solid OpenSCAD_Model
  facet normal -1 0 0
    outer loop
      vertex -59.5 -97 -24.75
      vertex -59.5 -97 8.58333
      vertex -59.5 -29 -24.75
    endloop
  endfacet
  facet normal -1 0 0
    outer loop
      vertex -59.5 -29 -24.75
      vertex -59.5 -97 8.58333
      vertex -59.5 -29 8.58333
    endloop
  endfacet
  facet normal 0 -1 0
    outer loop
      vertex -59.5 -97 8.58333
      vertex -59.5 -97 -24.75
      vertex 59.5 -97 -24.75
    endloop
  endfacet
  facet normal 0 -1 0
    outer loop
      vertex 59.5 -97 8.58333
      vertex -59.5 -97 8.58333
      vertex 59.5 -97 -24.75
    endloop
  endfacet
  facet normal 0 0 -1
    outer loop
      vertex -59.5 -97 -24.75
      vertex -59.5 -29 -24.75
      vertex 59.5 -97 -24.75
    endloop
  endfacet
  facet normal 0 0 -1
    outer loop
      vertex 59.5 -97 -24.75
      vertex -59.5 -29 -24.75
      vertex 59.5 -29 -24.75
    endloop
  endfacet
  facet normal 0 1 0
    outer loop
      vertex -59.5 -29 -24.75
      vertex -59.5 -29 8.58333
      vertex 59.5 -29 -24.75
    endloop
  endfacet
  facet normal 0 1 0
    outer loop
      vertex 59.5 -29 -24.75
      vertex -59.5 -29 8.58333
      vertex 59.5 -29 8.58333
    endloop
  endfacet
  facet normal 0 1.22465e-16 1
    outer loop
      vertex 57.75 -30.75 8.58333
      vertex 59.5 -29 8.58333
      vertex -59.5 -29 8.58333
    endloop
  endfacet
  facet normal 0 1.22465e-16 1
    outer loop
      vertex -59.5 -97 8.58333
      vertex -57.75 -30.75 8.58333
      vertex -59.5 -29 8.58333
    endloop
  endfacet
  facet normal 0 1.22465e-16 1
    outer loop
      vertex 59.5 -97 8.58333
      vertex 59.5 -29 8.58333
      vertex 57.75 -30.75 8.58333
    endloop
  endfacet
  facet normal 0 1.22465e-16 1
    outer loop
      vertex 57.75 -95.25 8.58333
      vertex -57.75 -95.25 8.58333
      vertex 59.5 -97 8.58333
    endloop
  endfacet
  facet normal 0 1.22465e-16 1
    outer loop
      vertex 59.5 -97 8.58333
      vertex 57.75 -30.75 8.58333
      vertex 57.75 -95.25 8.58333
    endloop
  endfacet
  facet normal 0 1.22465e-16 1
    outer loop
      vertex -59.5 -97 8.58333
      vertex -57.75 -95.25 8.58333
      vertex -57.75 -30.75 8.58333
    endloop
  endfacet
  facet normal 0 1.22465e-16 1
    outer loop
      vertex -59.5 -97 8.58333
      vertex 59.5 -97 8.58333
      vertex -57.75 -95.25 8.58333
    endloop
  endfacet
  facet normal 0 1.22465e-16 1
    outer loop
      vertex -57.75 -30.75 8.58333
      vertex 57.75 -30.75 8.58333
      vertex -59.5 -29 8.58333
    endloop
  endfacet
  facet normal 1 0 0
    outer loop
      vertex 59.5 -97 8.58333
      vertex 59.5 -97 -24.75
      vertex 59.5 -29 -24.75
    endloop
  endfacet
  facet normal 1 0 0
    outer loop
      vertex 59.5 -29 8.58333
      vertex 59.5 -97 8.58333
      vertex 59.5 -29 -24.75
    endloop
  endfacet
  facet normal -1 0 0
    outer loop
      vertex -57.75 -95.25 8.58333
      vertex -57.75 -95.25 24.75
      vertex -57.75 -30.75 8.58333
    endloop
  endfacet
  facet normal -1 0 0
    outer loop
      vertex -57.75 -30.75 8.58333
      vertex -57.75 -95.25 24.75
      vertex -57.75 -30.75 24.75
    endloop
  endfacet
  facet normal 0 1 -1.22465e-16
    outer loop
      vertex -57.75 -30.75 8.58333
      vertex -57.75 -30.75 24.75
      vertex 57.75 -30.75 8.58333
    endloop
  endfacet
  facet normal 0 1 -1.22465e-16
    outer loop
      vertex 57.75 -30.75 8.58333
      vertex -57.75 -30.75 24.75
      vertex 57.75 -30.75 24.75
    endloop
  endfacet
  facet normal 0 -1 1.22465e-16
    outer loop
      vertex -57.75 -95.25 24.75
      vertex -57.75 -95.25 8.58333
      vertex 57.75 -95.25 8.58333
    endloop
  endfacet
  facet normal 0 -1 1.22465e-16
    outer loop
      vertex 57.75 -95.25 24.75
      vertex -57.75 -95.25 24.75
      vertex 57.75 -95.25 8.58333
    endloop
  endfacet
  facet normal 1 0 0
    outer loop
      vertex 57.75 -95.25 24.75
      vertex 57.75 -95.25 8.58333
      vertex 57.75 -30.75 8.58333
    endloop
  endfacet
  facet normal 1 0 0
    outer loop
      vertex 57.75 -30.75 24.75
      vertex 57.75 -95.25 24.75
      vertex 57.75 -30.75 8.58333
    endloop
  endfacet
  facet normal 0 0 1
    outer loop
      vertex -57.5 -95 24.75
      vertex -57.75 -95.25 24.75
      vertex 57.75 -95.25 24.75
    endloop
  endfacet
  facet normal 0 0 1
    outer loop
      vertex -57.75 -30.75 24.75
      vertex -57.75 -95.25 24.75
      vertex -57.5 -95 24.75
    endloop
  endfacet
  facet normal 0 0 1
    outer loop
      vertex -57.5 -31 24.75
      vertex 57.5 -31 24.75
      vertex -57.75 -30.75 24.75
    endloop
  endfacet
  facet normal 0 0 1
    outer loop
      vertex -57.75 -30.75 24.75
      vertex -57.5 -95 24.75
      vertex -57.5 -31 24.75
    endloop
  endfacet
  facet normal 0 0 1
    outer loop
      vertex 57.75 -30.75 24.75
      vertex 57.5 -31 24.75
      vertex 57.75 -95.25 24.75
    endloop
  endfacet
  facet normal 0 0 1
    outer loop
      vertex 57.75 -30.75 24.75
      vertex -57.75 -30.75 24.75
      vertex 57.5 -31 24.75
    endloop
  endfacet
  facet normal 0 0 1
    outer loop
      vertex 57.5 -31 24.75
      vertex 57.5 -95 24.75
      vertex 57.75 -95.25 24.75
    endloop
  endfacet
  facet normal 0 0 1
    outer loop
      vertex 57.5 -95 24.75
      vertex -57.5 -95 24.75
      vertex 57.75 -95.25 24.75
    endloop
  endfacet
  facet normal 1 0 0
    outer loop
      vertex -57.5 -31 -22.755
      vertex -57.5 -31 24.75
      vertex -57.5 -95 24.75
    endloop
  endfacet
  facet normal 1 0 0
    outer loop
      vertex -57.5 -95 -22.755
      vertex -57.5 -31 -22.755
      vertex -57.5 -95 24.75
    endloop
  endfacet
  facet normal 0 1 0
    outer loop
      vertex 57.5 -95 24.75
      vertex 57.5 -95 -22.755
      vertex -57.5 -95 24.75
    endloop
  endfacet
  facet normal 0 1 0
    outer loop
      vertex -57.5 -95 24.75
      vertex 57.5 -95 -22.755
      vertex -57.5 -95 -22.755
    endloop
  endfacet
  facet normal -1 0 0
    outer loop
      vertex 57.5 -31 24.75
      vertex 57.5 -31 -22.755
      vertex 57.5 -95 24.75
    endloop
  endfacet
  facet normal -1 0 0
    outer loop
      vertex 57.5 -95 24.75
      vertex 57.5 -31 -22.755
      vertex 57.5 -95 -22.755
    endloop
  endfacet
  facet normal 0 -1 0
    outer loop
      vertex 57.5 -31 -22.755
      vertex 57.5 -31 24.75
      vertex -57.5 -31 24.75
    endloop
  endfacet
  facet normal 0 -1 0
    outer loop
      vertex -57.5 -31 -22.755
      vertex 57.5 -31 -22.755
      vertex -57.5 -31 24.75
    endloop
  endfacet
  facet normal 0 0 1
    outer loop
      vertex 57.5 -95 -22.755
      vertex 57.5 -31 -22.755
      vertex -57.5 -31 -22.755
    endloop
  endfacet
  facet normal 0 0 1
    outer loop
      vertex -57.5 -95 -22.755
      vertex 57.5 -95 -22.755
      vertex -57.5 -31 -22.755
    endloop
  endfacet
endsolid OpenSCAD_Model
