solid OpenSCAD_Model
  facet normal -1 0 0
    outer loop
      vertex -61 -100 -0.75
      vertex -61 -100 0.75
      vertex -61 -28 -0.75
    endloop
  endfacet
  facet normal -1 0 0
    outer loop
      vertex -61 -28 -0.75
      vertex -61 -100 0.75
      vertex -61 -28 0.75
    endloop
  endfacet
  facet normal 0 -1 0
    outer loop
      vertex -61 -100 0.75
      vertex -61 -100 -0.75
      vertex 61 -100 -0.75
    endloop
  endfacet
  facet normal 0 -1 0
    outer loop
      vertex 61 -100 0.75
      vertex -61 -100 0.75
      vertex 61 -100 -0.75
    endloop
  endfacet
  facet normal 0 0 -1
    outer loop
      vertex -61 -100 -0.75
      vertex -61 -28 -0.75
      vertex 61 -100 -0.75
    endloop
  endfacet
  facet normal 0 0 -1
    outer loop
      vertex 61 -100 -0.75
      vertex -61 -28 -0.75
      vertex 61 -28 -0.75
    endloop
  endfacet
  facet normal 0 1 0
    outer loop
      vertex -61 -28 -0.75
      vertex -61 -28 0.75
      vertex 61 -28 -0.75
    endloop
  endfacet
  facet normal 0 1 0
    outer loop
      vertex 61 -28 -0.75
      vertex -61 -28 0.75
      vertex 61 -28 0.75
    endloop
  endfacet
  facet normal 0 0 1
    outer loop
      vertex -59 -98 0.75
      vertex -61 -100 0.75
      vertex 61 -100 0.75
    endloop
  endfacet
  facet normal 0 0 1
    outer loop
      vertex -14.375 -98 0.75
      vertex -59 -98 0.75
      vertex 61 -100 0.75
    endloop
  endfacet
  facet normal 0 0 1
    outer loop
      vertex -61 -28 0.75
      vertex -61 -100 0.75
      vertex -59 -98 0.75
    endloop
  endfacet
  facet normal 0 0 1
    outer loop
      vertex -61 -28 0.75
      vertex -59 -98 0.75
      vertex -59 -72.5 0.75
    endloop
  endfacet
  facet normal 0 0 1
    outer loop
      vertex 57.5 -96.5 0.75
      vertex 14.375 -31.5 0.75
      vertex 1.5 -32 0.75
    endloop
  endfacet
  facet normal 0 0 1
    outer loop
      vertex -59 -55.5 0.75
      vertex -59 -72.5 0.75
      vertex -57.5 -72.5 0.75
    endloop
  endfacet
  facet normal 0 0 1
    outer loop
      vertex -59 -55.5 0.75
      vertex -59 -30 0.75
      vertex -61 -28 0.75
    endloop
  endfacet
  facet normal 0 0 1
    outer loop
      vertex -61 -28 0.75
      vertex -59 -72.5 0.75
      vertex -59 -55.5 0.75
    endloop
  endfacet
  facet normal 0 0 1
    outer loop
      vertex 1.5 -30.5 0.75
      vertex 1.5 -32 0.75
      vertex 14.375 -30 0.75
    endloop
  endfacet
  facet normal 0 0 1
    outer loop
      vertex 61 -28 0.75
      vertex -61 -28 0.75
      vertex -14.375 -30 0.75
    endloop
  endfacet
  facet normal 0 0 1
    outer loop
      vertex -59 -30 0.75
      vertex -14.375 -30 0.75
      vertex -61 -28 0.75
    endloop
  endfacet
  facet normal 0 0 1
    outer loop
      vertex 57.5 -96.5 0.75
      vertex 57.5 -72.5 0.75
      vertex 14.375 -31.5 0.75
    endloop
  endfacet
  facet normal 0 0 1
    outer loop
      vertex -1.5 -30.5 0.75
      vertex -14.375 -30 0.75
      vertex -1.5 -32 0.75
    endloop
  endfacet
  facet normal 0 0 1
    outer loop
      vertex 61 -28 0.75
      vertex -14.375 -30 0.75
      vertex -1.5 -30.5 0.75
    endloop
  endfacet
  facet normal 0 0 1
    outer loop
      vertex 61 -28 0.75
      vertex -1.5 -30.5 0.75
      vertex 1.5 -30.5 0.75
    endloop
  endfacet
  facet normal 0 0 1
    outer loop
      vertex 57.5 -72.5 0.75
      vertex 59 -72.5 0.75
      vertex 57.5 -55.5 0.75
    endloop
  endfacet
  facet normal 0 0 1
    outer loop
      vertex 14.375 -31.5 0.75
      vertex 14.375 -30 0.75
      vertex 1.5 -32 0.75
    endloop
  endfacet
  facet normal 0 0 1
    outer loop
      vertex 1.5 -97.5 0.75
      vertex -1.5 -97.5 0.75
      vertex 61 -100 0.75
    endloop
  endfacet
  facet normal 0 0 1
    outer loop
      vertex -57.5 -55.5 0.75
      vertex -59 -55.5 0.75
      vertex -57.5 -72.5 0.75
    endloop
  endfacet
  facet normal 0 0 1
    outer loop
      vertex 14.375 -96.5 0.75
      vertex -57.5 -31.5 0.75
      vertex -57.5 -55.5 0.75
    endloop
  endfacet
  facet normal 0 0 1
    outer loop
      vertex -1.5 -97.5 0.75
      vertex -14.375 -98 0.75
      vertex 61 -100 0.75
    endloop
  endfacet
  facet normal 0 0 1
    outer loop
      vertex 14.375 -96.5 0.75
      vertex 57.5 -96.5 0.75
      vertex -14.375 -30 0.75
    endloop
  endfacet
  facet normal 0 0 1
    outer loop
      vertex -14.375 -96.5 0.75
      vertex -14.375 -98 0.75
      vertex -1.5 -97.5 0.75
    endloop
  endfacet
  facet normal 0 0 1
    outer loop
      vertex 14.375 -98 0.75
      vertex 1.5 -97.5 0.75
      vertex 61 -100 0.75
    endloop
  endfacet
  facet normal 0 0 1
    outer loop
      vertex 14.375 -96.5 0.75
      vertex -14.375 -31.5 0.75
      vertex -57.5 -31.5 0.75
    endloop
  endfacet
  facet normal 0 0 1
    outer loop
      vertex 14.375 -30 0.75
      vertex 59 -30 0.75
      vertex 61 -28 0.75
    endloop
  endfacet
  facet normal 0 0 1
    outer loop
      vertex 57.5 -55.5 0.75
      vertex 57.5 -31.5 0.75
      vertex 14.375 -31.5 0.75
    endloop
  endfacet
  facet normal 0 0 1
    outer loop
      vertex 61 -28 0.75
      vertex 1.5 -30.5 0.75
      vertex 14.375 -30 0.75
    endloop
  endfacet
  facet normal 0 0 1
    outer loop
      vertex 61 -28 0.75
      vertex 59 -30 0.75
      vertex 61 -100 0.75
    endloop
  endfacet
  facet normal 0 0 1
    outer loop
      vertex 59 -30 0.75
      vertex 59 -55.5 0.75
      vertex 61 -100 0.75
    endloop
  endfacet
  facet normal 0 0 1
    outer loop
      vertex 14.375 -98 0.75
      vertex 14.375 -96.5 0.75
      vertex 1.5 -96 0.75
    endloop
  endfacet
  facet normal 0 0 1
    outer loop
      vertex 14.375 -96.5 0.75
      vertex -57.5 -55.5 0.75
      vertex -57.5 -72.5 0.75
    endloop
  endfacet
  facet normal 0 0 1
    outer loop
      vertex 1.5 -96 0.75
      vertex 1.5 -97.5 0.75
      vertex 14.375 -98 0.75
    endloop
  endfacet
  facet normal 0 0 1
    outer loop
      vertex 14.375 -96.5 0.75
      vertex -14.375 -30 0.75
      vertex -14.375 -31.5 0.75
    endloop
  endfacet
  facet normal 0 0 1
    outer loop
      vertex -1.5 -97.5 0.75
      vertex -1.5 -96 0.75
      vertex -14.375 -96.5 0.75
    endloop
  endfacet
  facet normal 0 0 1
    outer loop
      vertex -1.5 -32 0.75
      vertex -14.375 -30 0.75
      vertex 57.5 -96.5 0.75
    endloop
  endfacet
  facet normal 0 0 1
    outer loop
      vertex 59 -72.5 0.75
      vertex 59 -98 0.75
      vertex 61 -100 0.75
    endloop
  endfacet
  facet normal 0 0 1
    outer loop
      vertex 57.5 -55.5 0.75
      vertex 14.375 -31.5 0.75
      vertex 57.5 -72.5 0.75
    endloop
  endfacet
  facet normal 0 0 1
    outer loop
      vertex 59 -55.5 0.75
      vertex 59 -72.5 0.75
      vertex 61 -100 0.75
    endloop
  endfacet
  facet normal 0 0 1
    outer loop
      vertex 59 -55.5 0.75
      vertex 57.5 -55.5 0.75
      vertex 59 -72.5 0.75
    endloop
  endfacet
  facet normal 0 0 1
    outer loop
      vertex 57.5 -96.5 0.75
      vertex 1.5 -32 0.75
      vertex -1.5 -32 0.75
    endloop
  endfacet
  facet normal 0 0 1
    outer loop
      vertex -57.5 -72.5 0.75
      vertex 1.5 -96 0.75
      vertex 14.375 -96.5 0.75
    endloop
  endfacet
  facet normal 0 0 1
    outer loop
      vertex -57.5 -72.5 0.75
      vertex -1.5 -96 0.75
      vertex 1.5 -96 0.75
    endloop
  endfacet
  facet normal 0 0 1
    outer loop
      vertex -57.5 -72.5 0.75
      vertex -14.375 -96.5 0.75
      vertex -1.5 -96 0.75
    endloop
  endfacet
  facet normal 0 0 1
    outer loop
      vertex -57.5 -72.5 0.75
      vertex -57.5 -96.5 0.75
      vertex -14.375 -96.5 0.75
    endloop
  endfacet
  facet normal 0 0 1
    outer loop
      vertex 59 -98 0.75
      vertex 14.375 -98 0.75
      vertex 61 -100 0.75
    endloop
  endfacet
  facet normal 1 0 0
    outer loop
      vertex 61 -100 0.75
      vertex 61 -100 -0.75
      vertex 61 -28 -0.75
    endloop
  endfacet
  facet normal 1 0 0
    outer loop
      vertex 61 -28 0.75
      vertex 61 -100 0.75
      vertex 61 -28 -0.75
    endloop
  endfacet
  facet normal -1 0 0
    outer loop
      vertex -59 -98 0.75
      vertex -59 -98 47.75
      vertex -59 -72.5 0.75
    endloop
  endfacet
  facet normal -1 0 0
    outer loop
      vertex -59 -72.5 0.75
      vertex -59 -98 47.75
      vertex -59 -89.5 47.75
    endloop
  endfacet
  facet normal 0 -1 0
    outer loop
      vertex -59 -98 47.75
      vertex -59 -98 0.75
      vertex -14.375 -98 0.75
    endloop
  endfacet
  facet normal 0 -1 0
    outer loop
      vertex -43.125 -98 47.75
      vertex -59 -98 47.75
      vertex -14.375 -98 0.75
    endloop
  endfacet
  facet normal 0.853057 -1.15867e-016 0.521817
    outer loop
      vertex -14.375 -98 0.75
      vertex -14.375 -96.5 0.75
      vertex -43.125 -96.5 47.75
    endloop
  endfacet
  facet normal 0.853057 -1.15867e-016 0.521817
    outer loop
      vertex -43.125 -98 47.75
      vertex -14.375 -98 0.75
      vertex -43.125 -96.5 47.75
    endloop
  endfacet
  facet normal 0 1 0
    outer loop
      vertex -43.125 -96.5 47.75
      vertex -14.375 -96.5 0.75
      vertex -57.5 -96.5 47.75
    endloop
  endfacet
  facet normal 0 1 0
    outer loop
      vertex -57.5 -96.5 47.75
      vertex -14.375 -96.5 0.75
      vertex -57.5 -96.5 0.75
    endloop
  endfacet
  facet normal 1 0 0
    outer loop
      vertex -57.5 -72.5 0.75
      vertex -57.5 -89.5 47.75
      vertex -57.5 -96.5 47.75
    endloop
  endfacet
  facet normal 1 0 0
    outer loop
      vertex -57.5 -96.5 0.75
      vertex -57.5 -72.5 0.75
      vertex -57.5 -96.5 47.75
    endloop
  endfacet
  facet normal 2.84331e-016 0.940376 0.340136
    outer loop
      vertex -57.5 -72.5 0.75
      vertex -59 -72.5 0.75
      vertex -57.5 -89.5 47.75
    endloop
  endfacet
  facet normal 2.84331e-016 0.940376 0.340136
    outer loop
      vertex -57.5 -89.5 47.75
      vertex -59 -72.5 0.75
      vertex -59 -89.5 47.75
    endloop
  endfacet
  facet normal -1 0 0
    outer loop
      vertex -59 -55.5 0.75
      vertex -59 -38.5 47.75
      vertex -59 -30 0.75
    endloop
  endfacet
  facet normal -1 0 0
    outer loop
      vertex -59 -30 0.75
      vertex -59 -38.5 47.75
      vertex -59 -30 47.75
    endloop
  endfacet
  facet normal -1.3328e-016 -0.940376 0.340136
    outer loop
      vertex -57.5 -55.5 0.75
      vertex -57.5 -38.5 47.75
      vertex -59 -38.5 47.75
    endloop
  endfacet
  facet normal -1.3328e-016 -0.940376 0.340136
    outer loop
      vertex -59 -55.5 0.75
      vertex -57.5 -55.5 0.75
      vertex -59 -38.5 47.75
    endloop
  endfacet
  facet normal 1 0 0
    outer loop
      vertex -57.5 -31.5 0.75
      vertex -57.5 -31.5 47.75
      vertex -57.5 -38.5 47.75
    endloop
  endfacet
  facet normal 1 0 0
    outer loop
      vertex -57.5 -55.5 0.75
      vertex -57.5 -31.5 0.75
      vertex -57.5 -38.5 47.75
    endloop
  endfacet
  facet normal 0 -1 0
    outer loop
      vertex -14.375 -31.5 0.75
      vertex -43.125 -31.5 47.75
      vertex -57.5 -31.5 47.75
    endloop
  endfacet
  facet normal 0 -1 0
    outer loop
      vertex -57.5 -31.5 0.75
      vertex -14.375 -31.5 0.75
      vertex -57.5 -31.5 47.75
    endloop
  endfacet
  facet normal 0.853057 -1.15867e-016 0.521817
    outer loop
      vertex -14.375 -31.5 0.75
      vertex -14.375 -30 0.75
      vertex -43.125 -30 47.75
    endloop
  endfacet
  facet normal 0.853057 -1.15867e-016 0.521817
    outer loop
      vertex -43.125 -31.5 47.75
      vertex -14.375 -31.5 0.75
      vertex -43.125 -30 47.75
    endloop
  endfacet
  facet normal 0 1 0
    outer loop
      vertex -59 -30 0.75
      vertex -59 -30 47.75
      vertex -14.375 -30 0.75
    endloop
  endfacet
  facet normal 0 1 0
    outer loop
      vertex -14.375 -30 0.75
      vertex -59 -30 47.75
      vertex -43.125 -30 47.75
    endloop
  endfacet
  facet normal -1.22461e-016 -1 0
    outer loop
      vertex -1.5 -32 4.5
      vertex -1.5 -32 0.75
      vertex 1.5 -32 0.75
    endloop
  endfacet
  facet normal -1.22461e-016 -1 0
    outer loop
      vertex 1.5 -32 4.5
      vertex -1.5 -32 4.5
      vertex 1.5 -32 0.75
    endloop
  endfacet
  facet normal -1 1.22461e-016 0
    outer loop
      vertex -1.5 -32 0.75
      vertex -1.5 -32 4.5
      vertex -1.5 -30.5 0.75
    endloop
  endfacet
  facet normal -1 1.22461e-016 0
    outer loop
      vertex -1.5 -30.5 3
      vertex -1.5 -32 4.5
      vertex -1.5 -30.5 4.5
    endloop
  endfacet
  facet normal -1 1.22461e-016 0
    outer loop
      vertex -1.5 -30.5 0.75
      vertex -1.5 -32 4.5
      vertex -1.5 -30.5 3
    endloop
  endfacet
  facet normal 1 -1.22461e-016 0
    outer loop
      vertex 1.5 -32 4.5
      vertex 1.5 -32 0.75
      vertex 1.5 -30.5 0.75
    endloop
  endfacet
  facet normal 1 -1.22461e-016 0
    outer loop
      vertex 1.5 -30.5 4.5
      vertex 1.5 -32 4.5
      vertex 1.5 -30.5 0.75
    endloop
  endfacet
  facet normal 1.22461e-016 1 0
    outer loop
      vertex -1.5 -30.5 0.75
      vertex -0.75 -30.5 1.70096
      vertex 1.5 -30.5 0.75
    endloop
  endfacet
  facet normal 1.22461e-016 1 0
    outer loop
      vertex -1.5 -30.5 0.75
      vertex -1.5 -30.5 3
      vertex -0.75 -30.5 1.70096
    endloop
  endfacet
  facet normal 1.22461e-016 1 0
    outer loop
      vertex -0.75 -30.5 4.29904
      vertex -1.5 -30.5 3
      vertex -1.5 -30.5 4.5
    endloop
  endfacet
  facet normal 1.22461e-016 1 0
    outer loop
      vertex 1.5 -30.5 0.75
      vertex 0.606763 -30.5 1.70096
      vertex 1.21352 -30.5 3
    endloop
  endfacet
  facet normal 1.22461e-016 1 0
    outer loop
      vertex 1.21352 -30.5 3
      vertex 1.5 -30.5 4.5
      vertex 1.5 -30.5 0.75
    endloop
  endfacet
  facet normal 1.22461e-016 1 0
    outer loop
      vertex 0.606763 -30.5 4.29904
      vertex -0.75 -30.5 4.29904
      vertex -1.5 -30.5 4.5
    endloop
  endfacet
  facet normal 1.22461e-016 1 0
    outer loop
      vertex 0.606763 -30.5 4.29904
      vertex -1.5 -30.5 4.5
      vertex 1.5 -30.5 4.5
    endloop
  endfacet
  facet normal 1.22461e-016 1 0
    outer loop
      vertex 0.606763 -30.5 4.29904
      vertex 1.5 -30.5 4.5
      vertex 1.21352 -30.5 3
    endloop
  endfacet
  facet normal 1.22461e-016 1 0
    outer loop
      vertex 0.606763 -30.5 1.70096
      vertex 1.5 -30.5 0.75
      vertex -0.75 -30.5 1.70096
    endloop
  endfacet
  facet normal -1 0 0
    outer loop
      vertex -1.5 -97.5 0.75
      vertex -1.5 -97.5 4.5
      vertex -1.5 -96 0.75
    endloop
  endfacet
  facet normal -1 0 0
    outer loop
      vertex -1.5 -96 0.75
      vertex -1.5 -97.5 4.5
      vertex -1.5 -96 4.5
    endloop
  endfacet
  facet normal 0 -1 0
    outer loop
      vertex -0.606763 -97.5 1.70096
      vertex -1.5 -97.5 0.75
      vertex 1.5 -97.5 0.75
    endloop
  endfacet
  facet normal 0 -1 0
    outer loop
      vertex 1.5 -97.5 3
      vertex 0.75 -97.5 1.70096
      vertex 1.5 -97.5 0.75
    endloop
  endfacet
  facet normal 0 -1 0
    outer loop
      vertex -1.21352 -97.5 3
      vertex -1.5 -97.5 0.75
      vertex -0.606763 -97.5 1.70096
    endloop
  endfacet
  facet normal 0 -1 0
    outer loop
      vertex -1.5 -97.5 4.5
      vertex -1.5 -97.5 0.75
      vertex -1.21352 -97.5 3
    endloop
  endfacet
  facet normal 0 -1 0
    outer loop
      vertex 1.5 -97.5 4.5
      vertex 0.75 -97.5 4.29904
      vertex 1.5 -97.5 3
    endloop
  endfacet
  facet normal 0 -1 0
    outer loop
      vertex 0.75 -97.5 4.29904
      vertex -1.5 -97.5 4.5
      vertex -0.606763 -97.5 4.29904
    endloop
  endfacet
  facet normal 0 -1 0
    outer loop
      vertex 1.5 -97.5 4.5
      vertex -1.5 -97.5 4.5
      vertex 0.75 -97.5 4.29904
    endloop
  endfacet
  facet normal 0 -1 0
    outer loop
      vertex 0.75 -97.5 1.70096
      vertex -0.606763 -97.5 1.70096
      vertex 1.5 -97.5 0.75
    endloop
  endfacet
  facet normal 0 -1 0
    outer loop
      vertex -1.21352 -97.5 3
      vertex -0.606763 -97.5 4.29904
      vertex -1.5 -97.5 4.5
    endloop
  endfacet
  facet normal 1 0 0
    outer loop
      vertex 1.5 -97.5 3
      vertex 1.5 -97.5 0.75
      vertex 1.5 -96 0.75
    endloop
  endfacet
  facet normal 1 0 0
    outer loop
      vertex 1.5 -97.5 4.5
      vertex 1.5 -97.5 3
      vertex 1.5 -96 4.5
    endloop
  endfacet
  facet normal 1 0 0
    outer loop
      vertex 1.5 -96 4.5
      vertex 1.5 -97.5 3
      vertex 1.5 -96 0.75
    endloop
  endfacet
  facet normal 0 1 0
    outer loop
      vertex -1.5 -96 0.75
      vertex -1.5 -96 4.5
      vertex 1.5 -96 0.75
    endloop
  endfacet
  facet normal 0 1 0
    outer loop
      vertex 1.5 -96 0.75
      vertex -1.5 -96 4.5
      vertex 1.5 -96 4.5
    endloop
  endfacet
  facet normal -0.853057 -1.15867e-016 0.521817
    outer loop
      vertex 43.125 -31.5 47.75
      vertex 43.125 -30 47.75
      vertex 14.375 -31.5 0.75
    endloop
  endfacet
  facet normal -0.853057 -1.15867e-016 0.521817
    outer loop
      vertex 14.375 -31.5 0.75
      vertex 43.125 -30 47.75
      vertex 14.375 -30 0.75
    endloop
  endfacet
  facet normal 0 -1 0
    outer loop
      vertex 57.5 -31.5 0.75
      vertex 57.5 -31.5 47.75
      vertex 43.125 -31.5 47.75
    endloop
  endfacet
  facet normal 0 -1 0
    outer loop
      vertex 14.375 -31.5 0.75
      vertex 57.5 -31.5 0.75
      vertex 43.125 -31.5 47.75
    endloop
  endfacet
  facet normal -1 0 0
    outer loop
      vertex 57.5 -31.5 47.75
      vertex 57.5 -31.5 0.75
      vertex 57.5 -38.5 47.75
    endloop
  endfacet
  facet normal -1 0 0
    outer loop
      vertex 57.5 -38.5 47.75
      vertex 57.5 -31.5 0.75
      vertex 57.5 -55.5 0.75
    endloop
  endfacet
  facet normal -1.3328e-016 -0.940376 0.340136
    outer loop
      vertex 59 -55.5 0.75
      vertex 59 -38.5 47.75
      vertex 57.5 -38.5 47.75
    endloop
  endfacet
  facet normal -1.3328e-016 -0.940376 0.340136
    outer loop
      vertex 57.5 -55.5 0.75
      vertex 59 -55.5 0.75
      vertex 57.5 -38.5 47.75
    endloop
  endfacet
  facet normal 1 0 0
    outer loop
      vertex 59 -38.5 47.75
      vertex 59 -55.5 0.75
      vertex 59 -30 0.75
    endloop
  endfacet
  facet normal 1 0 0
    outer loop
      vertex 59 -30 47.75
      vertex 59 -38.5 47.75
      vertex 59 -30 0.75
    endloop
  endfacet
  facet normal 0 1 0
    outer loop
      vertex 14.375 -30 0.75
      vertex 43.125 -30 47.75
      vertex 59 -30 0.75
    endloop
  endfacet
  facet normal 0 1 0
    outer loop
      vertex 59 -30 0.75
      vertex 43.125 -30 47.75
      vertex 59 -30 47.75
    endloop
  endfacet
  facet normal -0.853057 -1.15867e-016 0.521817
    outer loop
      vertex 43.125 -98 47.75
      vertex 43.125 -96.5 47.75
      vertex 14.375 -98 0.75
    endloop
  endfacet
  facet normal -0.853057 -1.15867e-016 0.521817
    outer loop
      vertex 14.375 -98 0.75
      vertex 43.125 -96.5 47.75
      vertex 14.375 -96.5 0.75
    endloop
  endfacet
  facet normal 0 -1 0
    outer loop
      vertex 43.125 -98 47.75
      vertex 14.375 -98 0.75
      vertex 59 -98 0.75
    endloop
  endfacet
  facet normal 0 -1 0
    outer loop
      vertex 59 -98 47.75
      vertex 43.125 -98 47.75
      vertex 59 -98 0.75
    endloop
  endfacet
  facet normal 1 0 0
    outer loop
      vertex 59 -98 47.75
      vertex 59 -98 0.75
      vertex 59 -72.5 0.75
    endloop
  endfacet
  facet normal 1 0 0
    outer loop
      vertex 59 -89.5 47.75
      vertex 59 -98 47.75
      vertex 59 -72.5 0.75
    endloop
  endfacet
  facet normal 2.84331e-016 0.940376 0.340136
    outer loop
      vertex 59 -72.5 0.75
      vertex 57.5 -72.5 0.75
      vertex 59 -89.5 47.75
    endloop
  endfacet
  facet normal 2.84331e-016 0.940376 0.340136
    outer loop
      vertex 59 -89.5 47.75
      vertex 57.5 -72.5 0.75
      vertex 57.5 -89.5 47.75
    endloop
  endfacet
  facet normal -1 0 0
    outer loop
      vertex 57.5 -89.5 47.75
      vertex 57.5 -72.5 0.75
      vertex 57.5 -96.5 47.75
    endloop
  endfacet
  facet normal -1 0 0
    outer loop
      vertex 57.5 -96.5 47.75
      vertex 57.5 -72.5 0.75
      vertex 57.5 -96.5 0.75
    endloop
  endfacet
  facet normal 0 1 0
    outer loop
      vertex 57.5 -96.5 47.75
      vertex 57.5 -96.5 0.75
      vertex 43.125 -96.5 47.75
    endloop
  endfacet
  facet normal 0 1 0
    outer loop
      vertex 43.125 -96.5 47.75
      vertex 57.5 -96.5 0.75
      vertex 14.375 -96.5 0.75
    endloop
  endfacet
  facet normal 0 0 1
    outer loop
      vertex -57.5 -96.5 47.75
      vertex -59 -98 47.75
      vertex -43.125 -98 47.75
    endloop
  endfacet
  facet normal 0 0 1
    outer loop
      vertex -57.5 -96.5 47.75
      vertex -57.5 -89.5 47.75
      vertex -59 -89.5 47.75
    endloop
  endfacet
  facet normal 0 0 1
    outer loop
      vertex -59 -89.5 47.75
      vertex -59 -98 47.75
      vertex -57.5 -96.5 47.75
    endloop
  endfacet
  facet normal 0 0 1
    outer loop
      vertex -43.125 -96.5 47.75
      vertex -57.5 -96.5 47.75
      vertex -43.125 -98 47.75
    endloop
  endfacet
  facet normal 0 0 1
    outer loop
      vertex -59 -30 47.75
      vertex -59 -38.5 47.75
      vertex -57.5 -38.5 47.75
    endloop
  endfacet
  facet normal 0 0 1
    outer loop
      vertex -43.125 -31.5 47.75
      vertex -59 -30 47.75
      vertex -57.5 -31.5 47.75
    endloop
  endfacet
  facet normal 0 0 1
    outer loop
      vertex -57.5 -31.5 47.75
      vertex -59 -30 47.75
      vertex -57.5 -38.5 47.75
    endloop
  endfacet
  facet normal 0 0 1
    outer loop
      vertex -43.125 -30 47.75
      vertex -59 -30 47.75
      vertex -43.125 -31.5 47.75
    endloop
  endfacet
  facet normal 0 0 1
    outer loop
      vertex -1.5 -30.5 4.5
      vertex -1.5 -32 4.5
      vertex 1.5 -32 4.5
    endloop
  endfacet
  facet normal 0 0 1
    outer loop
      vertex 1.5 -30.5 4.5
      vertex -1.5 -30.5 4.5
      vertex 1.5 -32 4.5
    endloop
  endfacet
  facet normal -0.733 0.532556 0.423197
    outer loop
      vertex -0.463525 -29.0734 3
      vertex -1.5 -30.5 3
      vertex -0.231763 -29.7867 4.29904
    endloop
  endfacet
  facet normal -0.733 0.532555 0.423198
    outer loop
      vertex -0.231763 -29.7867 4.29904
      vertex -1.5 -30.5 3
      vertex -0.75 -30.5 4.29904
    endloop
  endfacet
  facet normal -0.733 0.532556 -0.423198
    outer loop
      vertex -0.75 -30.5 1.70096
      vertex -1.5 -30.5 3
      vertex -0.463525 -29.0734 3
    endloop
  endfacet
  facet normal 0 0 1
    outer loop
      vertex -0.231763 -29.7867 4.29904
      vertex -0.75 -30.5 4.29904
      vertex 0.606763 -30.5 4.29904
    endloop
  endfacet
  facet normal 0 0 1
    outer loop
      vertex 0.606763 -30.0592 4.29904
      vertex -0.231763 -29.7867 4.29904
      vertex 0.606763 -30.5 4.29904
    endloop
  endfacet
  facet normal 0.906038 -1.10954e-016 0.423197
    outer loop
      vertex 0.606763 -30.0592 4.29904
      vertex 0.606763 -30.5 4.29904
      vertex 1.21352 -30.5 3
    endloop
  endfacet
  facet normal 0.906038 -1.10954e-016 0.423197
    outer loop
      vertex 1.21352 -29.6183 3
      vertex 0.606763 -30.0592 4.29904
      vertex 1.21352 -30.5 3
    endloop
  endfacet
  facet normal 0.906038 -1.10954e-016 -0.423197
    outer loop
      vertex 1.21352 -30.5 3
      vertex 0.606763 -30.5 1.70096
      vertex 0.606763 -30.0592 1.70096
    endloop
  endfacet
  facet normal 0.906038 -1.10954e-016 -0.423197
    outer loop
      vertex 1.21352 -29.6183 3
      vertex 1.21352 -30.5 3
      vertex 0.606763 -30.0592 1.70096
    endloop
  endfacet
  facet normal 0 0 -1
    outer loop
      vertex -0.75 -30.5 1.70096
      vertex -0.231763 -29.7867 1.70096
      vertex 0.606763 -30.5 1.70096
    endloop
  endfacet
  facet normal 0 0 -1
    outer loop
      vertex 0.606763 -30.5 1.70096
      vertex -0.231763 -29.7867 1.70096
      vertex 0.606763 -30.0592 1.70096
    endloop
  endfacet
  facet normal -0.733 0.532555 -0.423197
    outer loop
      vertex -0.231763 -29.7867 1.70096
      vertex -0.75 -30.5 1.70096
      vertex -0.463525 -29.0734 3
    endloop
  endfacet
  facet normal 0 0 1
    outer loop
      vertex -1.5 -96 4.5
      vertex -1.5 -97.5 4.5
      vertex 1.5 -97.5 4.5
    endloop
  endfacet
  facet normal 0 0 1
    outer loop
      vertex 1.5 -96 4.5
      vertex -1.5 -96 4.5
      vertex 1.5 -97.5 4.5
    endloop
  endfacet
  facet normal 0.733 -0.532556 0.423197
    outer loop
      vertex 1.5 -97.5 3
      vertex 0.231763 -98.2133 4.29904
      vertex 0.463525 -98.9266 3
    endloop
  endfacet
  facet normal 0.733 -0.532555 0.423198
    outer loop
      vertex 0.75 -97.5 4.29904
      vertex 0.231763 -98.2133 4.29904
      vertex 1.5 -97.5 3
    endloop
  endfacet
  facet normal 0.733 -0.532556 -0.423198
    outer loop
      vertex 1.5 -97.5 3
      vertex 0.463525 -98.9266 3
      vertex 0.75 -97.5 1.70096
    endloop
  endfacet
  facet normal 0 0 1
    outer loop
      vertex -0.606763 -97.5 4.29904
      vertex -0.606763 -97.9408 4.29904
      vertex 0.231763 -98.2133 4.29904
    endloop
  endfacet
  facet normal 0 0 1
    outer loop
      vertex 0.75 -97.5 4.29904
      vertex -0.606763 -97.5 4.29904
      vertex 0.231763 -98.2133 4.29904
    endloop
  endfacet
  facet normal -0.906038 0 0.423197
    outer loop
      vertex -1.21352 -98.3817 3
      vertex -0.606763 -97.9408 4.29904
      vertex -1.21352 -97.5 3
    endloop
  endfacet
  facet normal -0.906038 0 0.423197
    outer loop
      vertex -1.21352 -97.5 3
      vertex -0.606763 -97.9408 4.29904
      vertex -0.606763 -97.5 4.29904
    endloop
  endfacet
  facet normal -0.906038 0 -0.423197
    outer loop
      vertex -1.21352 -98.3817 3
      vertex -1.21352 -97.5 3
      vertex -0.606763 -97.9408 1.70096
    endloop
  endfacet
  facet normal -0.906038 0 -0.423197
    outer loop
      vertex -0.606763 -97.9408 1.70096
      vertex -1.21352 -97.5 3
      vertex -0.606763 -97.5 1.70096
    endloop
  endfacet
  facet normal 0 0 -1
    outer loop
      vertex -0.606763 -97.9408 1.70096
      vertex -0.606763 -97.5 1.70096
      vertex 0.231763 -98.2133 1.70096
    endloop
  endfacet
  facet normal 0 0 -1
    outer loop
      vertex 0.231763 -98.2133 1.70096
      vertex -0.606763 -97.5 1.70096
      vertex 0.75 -97.5 1.70096
    endloop
  endfacet
  facet normal 0.733 -0.532555 -0.423197
    outer loop
      vertex 0.463525 -98.9266 3
      vertex 0.231763 -98.2133 1.70096
      vertex 0.75 -97.5 1.70096
    endloop
  endfacet
  facet normal 0 0 1
    outer loop
      vertex 59 -30 47.75
      vertex 43.125 -30 47.75
      vertex 43.125 -31.5 47.75
    endloop
  endfacet
  facet normal 0 0 1
    outer loop
      vertex 57.5 -38.5 47.75
      vertex 59 -30 47.75
      vertex 57.5 -31.5 47.75
    endloop
  endfacet
  facet normal 0 0 1
    outer loop
      vertex 57.5 -31.5 47.75
      vertex 59 -30 47.75
      vertex 43.125 -31.5 47.75
    endloop
  endfacet
  facet normal 0 0 1
    outer loop
      vertex 59 -38.5 47.75
      vertex 59 -30 47.75
      vertex 57.5 -38.5 47.75
    endloop
  endfacet
  facet normal 0 0 1
    outer loop
      vertex 57.5 -96.5 47.75
      vertex 43.125 -96.5 47.75
      vertex 43.125 -98 47.75
    endloop
  endfacet
  facet normal 0 0 1
    outer loop
      vertex 59 -89.5 47.75
      vertex 57.5 -96.5 47.75
      vertex 59 -98 47.75
    endloop
  endfacet
  facet normal 0 0 1
    outer loop
      vertex 59 -98 47.75
      vertex 57.5 -96.5 47.75
      vertex 43.125 -98 47.75
    endloop
  endfacet
  facet normal 0 0 1
    outer loop
      vertex 57.5 -89.5 47.75
      vertex 57.5 -96.5 47.75
      vertex 59 -89.5 47.75
    endloop
  endfacet
  facet normal 0.279981 0.861693 -0.423198
    outer loop
      vertex -0.231763 -29.7867 1.70096
      vertex -0.463525 -29.0734 3
      vertex 1.21352 -29.6183 3
    endloop
  endfacet
  facet normal 0.279981 0.861693 0.423198
    outer loop
      vertex 1.21352 -29.6183 3
      vertex -0.463525 -29.0734 3
      vertex 0.606763 -30.0592 4.29904
    endloop
  endfacet
  facet normal 0.27998 0.861693 0.423198
    outer loop
      vertex 0.606763 -30.0592 4.29904
      vertex -0.463525 -29.0734 3
      vertex -0.231763 -29.7867 4.29904
    endloop
  endfacet
  facet normal 0.27998 0.861693 -0.423197
    outer loop
      vertex 0.606763 -30.0592 1.70096
      vertex -0.231763 -29.7867 1.70096
      vertex 1.21352 -29.6183 3
    endloop
  endfacet
  facet normal -0.279981 -0.861693 -0.423198
    outer loop
      vertex 0.463525 -98.9266 3
      vertex -1.21352 -98.3817 3
      vertex 0.231763 -98.2133 1.70096
    endloop
  endfacet
  facet normal -0.279981 -0.861693 0.423198
    outer loop
      vertex -0.606763 -97.9408 4.29904
      vertex -1.21352 -98.3817 3
      vertex 0.463525 -98.9266 3
    endloop
  endfacet
  facet normal -0.27998 -0.861693 0.423198
    outer loop
      vertex 0.231763 -98.2133 4.29904
      vertex -0.606763 -97.9408 4.29904
      vertex 0.463525 -98.9266 3
    endloop
  endfacet
  facet normal -0.27998 -0.861693 -0.423197
    outer loop
      vertex 0.231763 -98.2133 1.70096
      vertex -1.21352 -98.3817 3
      vertex -0.606763 -97.9408 1.70096
    endloop
  endfacet
endsolid OpenSCAD_Model
