solid OpenSCAD_Model
  facet normal -1 0 0
    outer loop
      vertex -59.05 29.45 -8.83333
      vertex -59.05 29.45 8.83333
      vertex -59.05 96.55 -8.83333
    endloop
  endfacet
  facet normal -1 0 0
    outer loop
      vertex -59.05 96.55 -8.83333
      vertex -59.05 29.45 8.83333
      vertex -59.05 96.55 8.83333
    endloop
  endfacet
  facet normal 0 -1 0
    outer loop
      vertex -59.05 29.45 8.83333
      vertex -59.05 29.45 -8.83333
      vertex 59.05 29.45 -8.83333
    endloop
  endfacet
  facet normal 0 -1 0
    outer loop
      vertex 59.05 29.45 8.83333
      vertex -59.05 29.45 8.83333
      vertex 59.05 29.45 -8.83333
    endloop
  endfacet
  facet normal 0 0 -1
    outer loop
      vertex -59.05 29.45 -8.83333
      vertex -59.05 96.55 -8.83333
      vertex 59.05 29.45 -8.83333
    endloop
  endfacet
  facet normal 0 0 -1
    outer loop
      vertex 59.05 29.45 -8.83333
      vertex -59.05 96.55 -8.83333
      vertex 59.05 96.55 -8.83333
    endloop
  endfacet
  facet normal 0 1 0
    outer loop
      vertex -59.05 96.55 -8.83333
      vertex -59.05 96.55 8.83333
      vertex 59.05 96.55 -8.83333
    endloop
  endfacet
  facet normal 0 1 0
    outer loop
      vertex 59.05 96.55 -8.83333
      vertex -59.05 96.55 8.83333
      vertex 59.05 96.55 8.83333
    endloop
  endfacet
  facet normal 0 0 1
    outer loop
      vertex -58 30.5 8.83333
      vertex -59.05 29.45 8.83333
      vertex 59.05 29.45 8.83333
    endloop
  endfacet
  facet normal 0 0 1
    outer loop
      vertex -59.05 96.55 8.83333
      vertex -59.05 29.45 8.83333
      vertex -58 30.5 8.83333
    endloop
  endfacet
  facet normal 0 0 1
    outer loop
      vertex -58 95.5 8.83333
      vertex 58 95.5 8.83333
      vertex -59.05 96.55 8.83333
    endloop
  endfacet
  facet normal 0 0 1
    outer loop
      vertex -59.05 96.55 8.83333
      vertex -58 30.5 8.83333
      vertex -58 95.5 8.83333
    endloop
  endfacet
  facet normal 0 0 1
    outer loop
      vertex 59.05 96.55 8.83333
      vertex 58 95.5 8.83333
      vertex 59.05 29.45 8.83333
    endloop
  endfacet
  facet normal 0 0 1
    outer loop
      vertex 59.05 96.55 8.83333
      vertex -59.05 96.55 8.83333
      vertex 58 95.5 8.83333
    endloop
  endfacet
  facet normal 0 0 1
    outer loop
      vertex 58 95.5 8.83333
      vertex 58 30.5 8.83333
      vertex 59.05 29.45 8.83333
    endloop
  endfacet
  facet normal 0 0 1
    outer loop
      vertex 58 30.5 8.83333
      vertex -58 30.5 8.83333
      vertex 59.05 29.45 8.83333
    endloop
  endfacet
  facet normal 1 0 0
    outer loop
      vertex 59.05 29.45 8.83333
      vertex 59.05 29.45 -8.83333
      vertex 59.05 96.55 -8.83333
    endloop
  endfacet
  facet normal 1 0 0
    outer loop
      vertex 59.05 96.55 8.83333
      vertex 59.05 29.45 8.83333
      vertex 59.05 96.55 -8.83333
    endloop
  endfacet
  facet normal 1 0 0
    outer loop
      vertex -58 95.5 -6.88333
      vertex -58 95.5 8.83333
      vertex -58 30.5 8.83333
    endloop
  endfacet
  facet normal 1 0 0
    outer loop
      vertex -58 30.5 -6.88333
      vertex -58 95.5 -6.88333
      vertex -58 30.5 8.83333
    endloop
  endfacet
  facet normal 0 1 0
    outer loop
      vertex 58 30.5 8.83333
      vertex 58 30.5 -6.88333
      vertex -58 30.5 8.83333
    endloop
  endfacet
  facet normal 0 1 0
    outer loop
      vertex -58 30.5 8.83333
      vertex 58 30.5 -6.88333
      vertex -58 30.5 -6.88333
    endloop
  endfacet
  facet normal -1 0 0
    outer loop
      vertex 58 95.5 8.83333
      vertex 58 95.5 -6.88333
      vertex 58 30.5 8.83333
    endloop
  endfacet
  facet normal -1 0 0
    outer loop
      vertex 58 30.5 8.83333
      vertex 58 95.5 -6.88333
      vertex 58 30.5 -6.88333
    endloop
  endfacet
  facet normal 0 -1 0
    outer loop
      vertex 58 95.5 -6.88333
      vertex 58 95.5 8.83333
      vertex -58 95.5 8.83333
    endloop
  endfacet
  facet normal 0 -1 0
    outer loop
      vertex -58 95.5 -6.88333
      vertex 58 95.5 -6.88333
      vertex -58 95.5 8.83333
    endloop
  endfacet
  facet normal 0 0 1
    outer loop
      vertex 58 30.5 -6.88333
      vertex 58 95.5 -6.88333
      vertex -58 95.5 -6.88333
    endloop
  endfacet
  facet normal 0 0 1
    outer loop
      vertex -58 30.5 -6.88333
      vertex 58 30.5 -6.88333
      vertex -58 95.5 -6.88333
    endloop
  endfacet
endsolid OpenSCAD_Model
