999
Inkscape export via OpenSCAD DXF Export
  0
SECTION
  2
HEADER
  9
$ACADVER
  1
AC1014
  9
$HANDSEED
  5
FFFF
  9
$MEASUREMENT
 70
     1
  0
ENDSEC
  0
SECTION
  2
TABLES
  0
TABLE
  2
VPORT
  5
8
330
0
100
AcDbSymbolTable
 70
     4
  0
VPORT
  5
2E
330
8
100
AcDbSymbolTableRecord
100
AcDbViewportTableRecord
  2
*ACTIVE
 70
     0
 10
0.0
 20
0.0
 11
1.0
 21
1.0
 12
210.0
 22
148.5
 13
0.0
 23
0.0
 14
10.0
 24
10.0
 15
10.0
 25
10.0
 16
0.0
 26
0.0
 36
1.0
 17
0.0
 27
0.0
 37
0.0
 40
341.0
 41
1.24
 42
50.0
 43
0.0
 44
0.0
 50
0.0
 51
0.0
 71
     0
 72
   100
 73
     1
 74
     3
 75
     0
 76
     0
 77
     0
 78
     0
  0
ENDTAB
  0
TABLE
  2
LTYPE
  5
5
330
0
100
AcDbSymbolTable
 70
     1
  0
LTYPE
  5
14
330
5
100
AcDbSymbolTableRecord
100
AcDbLinetypeTableRecord
  2
BYBLOCK
 70
     0
  3

 72
    65
 73
     0
 40
0.0
  0
LTYPE
  5
15
330
5
100
AcDbSymbolTableRecord
100
AcDbLinetypeTableRecord
  2
BYLAYER
 70
     0
  3

 72
    65
 73
     0
 40
0.0
  0
LTYPE
  5
16
330
5
100
AcDbSymbolTableRecord
100
AcDbLinetypeTableRecord
  2
CONTINUOUS
 70
     0
  3
Solid line
 72
    65
 73
     0
 40
0.0
  0
ENDTAB
  0
TABLE
0
TABLE
2
LAYER
5
2
330
0
100
AcDbSymbolTable
70
1
0
LAYER
5
10
330
2
100
AcDbSymbolTableRecord
100
AcDbLayerTableRecord
2
Layer_1
70
0
62
7
6
CONTINUOUS
0
ENDTAB
0
ENDSEC
  0
ENDTAB
  0
TABLE
  2
STYLE
  5
3
330
0
100
AcDbSymbolTable
 70
     1
  0
STYLE
  5
11
330
3
100
AcDbSymbolTableRecord
100
AcDbTextStyleTableRecord
  2
STANDARD
 70
     0
 40
0.0
 41
1.0
 50
0.0
 71
     0
 42
2.5
  3
txt
  4

  0
ENDTAB
  0
TABLE
  2
VIEW
  5
6
330
0
100
AcDbSymbolTable
 70
     0
  0
ENDTAB
  0
TABLE
  2
UCS
  5
7
330
0
100
AcDbSymbolTable
 70
     0
  0
ENDTAB
  0
TABLE
  2
APPID
  5
9
330
0
100
AcDbSymbolTable
 70
     2
  0
APPID
  5
12
330
9
100
AcDbSymbolTableRecord
100
AcDbRegAppTableRecord
  2
ACAD
 70
     0
  0
ENDTAB
  0
TABLE
  2
DIMSTYLE
  5
A
330
0
100
AcDbSymbolTable
 70
     1
  0
DIMSTYLE
105
27
330
A
100
AcDbSymbolTableRecord
100
AcDbDimStyleTableRecord
  2
ISO-25
 70
     0
  3

  4

  5

  6

  7

 40
1.0
 41
2.5
 42
0.625
 43
3.75
 44
1.25
 45
0.0
 46
0.0
 47
0.0
 48
0.0
140
2.5
141
2.5
142
0.0
143
0.03937007874016
144
1.0
145
0.0
146
1.0
147
0.625
 71
     0
 72
     0
 73
     0
 74
     0
 75
     0
 76
     0
 77
     1
 78
     8
170
     0
171
     3
172
     1
173
     0
174
     0
175
     0
176
     0
177
     0
178
     0
270
     2
271
     2
272
     2
273
     2
274
     3
340
11
275
     0
280
     0
281
     0
282
     0
283
     0
284
     8
285
     0
286
     0
287
     3
288
     0
  0
ENDTAB
  0
TABLE
  2
BLOCK_RECORD
  5
1
330
0
100
AcDbSymbolTable
 70
     1
  0
BLOCK_RECORD
  5
1F
330
1
100
AcDbSymbolTableRecord
100
AcDbBlockTableRecord
  2
*MODEL_SPACE
  0
BLOCK_RECORD
  5
1B
330
1
100
AcDbSymbolTableRecord
100
AcDbBlockTableRecord
  2
*PAPER_SPACE
  0
ENDTAB
  0
ENDSEC
  0
SECTION
  2
BLOCKS
  0
BLOCK
  5
20
330
1F
100
AcDbEntity
  8
0
100
AcDbBlockBegin
  2
*MODEL_SPACE
 70
     0
 10
0.0
 20
0.0
 30
0.0
  3
*MODEL_SPACE
  1

  0
ENDBLK
  5
21
330
1F
100
AcDbEntity
  8
0
100
AcDbBlockEnd
  0
BLOCK
  5
1C
330
1B
100
AcDbEntity
 67
     1
  8
0
100
AcDbBlockBegin
  2
*PAPER_SPACE
  1

  0
ENDBLK
  5
1D
330
1B
100
AcDbEntity
 67
     1
  8
0
100
AcDbBlockEnd
  0
ENDSEC
  0
SECTION
  2
ENTITIES
0
DIMENSION
5
83
100
AcDbEntity
62
256
370
-1
6
ByLayer
1
total_width
3
Standard
70
0
71
5
72
1
41
1.0
100
AcDbAlignedDimension
13
0.491736
23
0.000000
33
0.0
14
150.505811
24
0.000000
34
0.0
50
0.000000
100
AcDbRotatedDimension
0
DIMENSION
5
83
100
AcDbEntity
62
256
370
-1
6
ByLayer
1
total_height
3
Standard
70
0
71
5
72
1
41
1.0
100
AcDbAlignedDimension
13
0.000000
23
1.479375
33
0.0
14
0.000000
24
68.942071
34
0.0
50
90.000000
100
AcDbRotatedDimension
0
DIMENSION
8
Layer_1
5
83
100
AcDbEntity
62
256
370
-1
6
ByLayer
1
Layer_1_width
3
Standard
70
0
71
5
72
1
41
1.0
100
AcDbAlignedDimension
13
0.491736
23
0.000000
33
0.0
14
150.505811
24
0.000000
34
0.0
50
0.000000
100
AcDbRotatedDimension
0
DIMENSION
8
Layer_1
5
83
100
AcDbEntity
62
256
370
-1
6
ByLayer
1
Layer_1_height
3
Standard
70
0
71
5
72
1
41
1.0
100
AcDbAlignedDimension
13
0.000000
23
1.479375
33
0.0
14
0.000000
24
68.942071
34
0.0
50
90.000000
100
AcDbRotatedDimension
0
LWPOLYLINE
100
AcDbPolyline
8
Layer_1
90
13
70
0
10
111.219451
20
1.886100
30
0.0
10
109.503588
20
3.337828
30
0.0
10
108.493283
20
4.412770
30
0.0
10
108.893057
20
6.176659
30
0.0
10
109.271838
20
7.419246
30
0.0
10
109.621139
20
7.929790
30
0.0
10
110.290847
20
7.513763
30
0.0
10
111.439960
20
6.528649
30
0.0
10
112.930469
20
5.138268
30
0.0
10
112.590622
20
3.293852
30
0.0
10
112.087891
20
1.479375
30
0.0
10
111.219451
20
1.886100
30
0.0
10
111.219451
20
1.886100
30
0.0
0
LWPOLYLINE
100
AcDbPolyline
8
Layer_1
90
357
70
0
10
106.078985
20
6.231410
30
0.0
10
104.115633
20
7.721450
30
0.0
10
103.983120
20
7.889954
30
0.0
10
103.985832
20
8.301178
30
0.0
10
104.426625
20
10.076665
30
0.0
10
105.439811
20
13.947558
30
0.0
10
105.791347
20
15.580123
30
0.0
10
104.969333
20
16.005203
30
0.0
10
104.397040
20
16.234428
30
0.0
10
103.965949
20
16.265665
30
0.0
10
103.694079
20
16.102303
30
0.0
10
103.599451
20
15.747729
30
0.0
10
102.915230
20
13.321246
30
0.0
10
101.774481
20
10.121313
30
0.0
10
101.318026
20
9.307080
30
0.0
10
101.098595
20
9.230757
30
0.0
10
100.826093
20
9.325508
30
0.0
10
100.359650
20
9.446587
30
0.0
10
99.943999
20
9.359962
30
0.0
10
99.371239
20
9.343099
30
0.0
10
98.424247
20
9.624325
30
0.0
10
97.320880
20
10.120988
30
0.0
10
96.278996
20
10.750434
30
0.0
10
95.846128
20
11.104859
30
0.0
10
95.632793
20
11.540968
30
0.0
10
95.640296
20
13.691726
30
0.0
10
95.766103
20
16.088639
30
0.0
10
94.709423
20
16.530151
30
0.0
10
93.511331
20
16.899160
30
0.0
10
92.599618
20
16.798874
30
0.0
10
91.822343
20
16.163076
30
0.0
10
91.027566
20
14.925548
30
0.0
10
90.538705
20
14.344731
30
0.0
10
89.923445
20
14.149437
30
0.0
10
89.379776
20
14.004835
30
0.0
10
89.072401
20
13.608293
30
0.0
10
88.933682
20
13.316492
30
0.0
10
88.639105
20
13.236872
30
0.0
10
86.813771
20
13.768798
30
0.0
10
85.036271
20
14.496141
30
0.0
10
84.701543
20
14.848719
30
0.0
10
84.538162
20
15.329718
30
0.0
10
84.461060
20
16.461211
30
0.0
10
84.540702
20
17.974982
30
0.0
10
84.731964
20
19.760977
30
0.0
10
83.652930
20
20.029867
30
0.0
10
81.972537
20
20.434433
30
0.0
10
81.612910
20
20.413928
30
0.0
10
81.229002
20
20.106680
30
0.0
10
79.996981
20
18.186674
30
0.0
10
78.699539
20
16.163506
30
0.0
10
78.286680
20
15.927701
30
0.0
10
77.791493
20
15.968094
30
0.0
10
75.582687
20
16.531692
30
0.0
10
75.008413
20
16.797896
30
0.0
10
74.812785
20
17.044585
30
0.0
10
78.668733
20
23.102573
30
0.0
10
82.408178
20
28.940667
30
0.0
10
81.377931
20
29.196631
30
0.0
10
80.551823
20
29.432291
30
0.0
10
79.651030
20
29.859234
30
0.0
10
78.802952
20
30.406494
30
0.0
10
78.134989
20
31.003102
30
0.0
10
76.548856
20
33.696848
30
0.0
10
72.187839
20
41.877770
30
0.0
10
71.132311
20
43.500547
30
0.0
10
70.958773
20
42.566891
30
0.0
10
70.821738
20
40.368845
30
0.0
10
70.808997
20
35.797115
30
0.0
10
70.920559
20
34.443681
30
0.0
10
72.090559
20
34.605629
30
0.0
10
73.128907
20
34.668401
30
0.0
10
73.710389
20
34.470773
30
0.0
10
73.884571
20
33.966717
30
0.0
10
73.701018
20
33.110210
30
0.0
10
73.313134
20
32.080819
30
0.0
10
72.836715
20
31.482431
30
0.0
10
72.005428
20
31.119193
30
0.0
10
70.552939
20
30.795256
30
0.0
10
68.225961
20
30.330871
30
0.0
10
67.593238
20
28.096266
30
0.0
10
65.940621
20
22.192770
30
0.0
10
65.076208
20
19.464737
30
0.0
10
64.448600
20
18.169647
30
0.0
10
63.696352
20
17.921908
30
0.0
10
62.550740
20
17.823716
30
0.0
10
58.239626
20
17.613506
30
0.0
10
55.354243
20
17.394992
30
0.0
10
55.518360
20
18.417881
30
0.0
10
55.551332
20
19.230550
30
0.0
10
55.340369
20
19.652203
30
0.0
10
54.486426
20
19.696788
30
0.0
10
52.913740
20
19.507070
30
0.0
10
51.735704
20
19.280657
30
0.0
10
50.998937
20
19.024418
30
0.0
10
50.468471
20
18.614912
30
0.0
10
49.909338
20
17.928697
30
0.0
10
48.997041
20
16.949554
30
0.0
10
48.583186
20
16.755944
30
0.0
10
48.107507
20
16.698163
30
0.0
10
46.991975
20
16.626068
30
0.0
10
46.141175
20
16.421712
30
0.0
10
45.502803
20
16.065400
30
0.0
10
45.024559
20
15.537437
30
0.0
10
44.552751
20
14.957455
30
0.0
10
44.191674
20
14.717231
30
0.0
10
41.792785
20
16.527947
30
0.0
10
39.993218
20
17.932630
30
0.0
10
39.550366
20
18.094247
30
0.0
10
39.252785
20
17.986908
30
0.0
10
32.503878
20
12.265358
30
0.0
10
31.672421
20
11.689387
30
0.0
10
31.143070
20
11.563248
30
0.0
10
30.859321
20
12.883270
30
0.0
10
30.628141
20
16.145956
30
0.0
10
30.427425
20
20.534466
30
0.0
10
32.550162
20
21.857507
30
0.0
10
35.029115
20
23.180548
30
0.0
10
35.190911
20
23.068795
30
0.0
10
35.271552
20
22.691968
30
0.0
10
35.208983
20
20.893684
30
0.0
10
35.140960
20
19.137071
30
0.0
10
35.218936
20
18.852507
30
0.0
10
35.378819
20
18.877712
30
0.0
10
39.359694
20
21.839944
30
0.0
10
40.504793
20
22.551209
30
0.0
10
41.033124
20
22.713146
30
0.0
10
42.242757
20
21.859991
30
0.0
10
43.257447
20
21.204992
30
0.0
10
44.892084
20
23.674437
30
0.0
10
46.321053
20
25.967240
30
0.0
10
47.357775
20
27.343761
30
0.0
10
48.341533
20
28.174674
30
0.0
10
49.611610
20
28.830654
30
0.0
10
51.421521
20
29.585874
30
0.0
10
51.903593
20
29.662059
30
0.0
10
52.116395
20
29.489158
30
0.0
10
52.069411
20
29.031066
30
0.0
10
51.772131
20
28.251681
30
0.0
10
50.464630
20
25.584621
30
0.0
10
49.240665
20
23.081686
30
0.0
10
48.976832
20
22.175988
30
0.0
10
49.744467
20
22.832200
30
0.0
10
51.614908
20
25.014992
30
0.0
10
53.109882
20
26.658244
30
0.0
10
54.423033
20
27.727433
30
0.0
10
55.701747
20
28.316879
30
0.0
10
57.093412
20
28.520898
30
0.0
10
57.670068
20
28.446602
30
0.0
10
58.098235
20
27.978937
30
0.0
10
58.541339
20
26.811132
30
0.0
10
59.162809
20
24.636411
30
0.0
10
59.739223
20
22.736621
30
0.0
10
59.968776
20
22.274784
30
0.0
10
60.189448
20
22.142956
30
0.0
10
60.423905
20
22.344615
30
0.0
10
60.694811
20
22.883238
30
0.0
10
61.436639
20
24.985286
30
0.0
10
62.716212
20
28.319860
30
0.0
10
63.241674
20
29.623365
30
0.0
10
62.764983
20
29.692283
30
0.0
10
61.618896
20
29.497906
30
0.0
10
60.061680
20
29.168038
30
0.0
10
59.195603
20
29.143305
30
0.0
10
58.804396
20
29.476820
30
0.0
10
58.671790
20
30.221699
30
0.0
10
58.585007
20
31.336183
30
0.0
10
57.225469
20
30.645032
30
0.0
10
55.698639
20
30.090861
30
0.0
10
54.261810
20
29.937617
30
0.0
10
53.160832
20
30.176959
30
0.0
10
52.813116
20
30.441244
30
0.0
10
52.641556
20
30.800548
30
0.0
10
52.307408
20
33.049923
30
0.0
10
52.167779
20
35.033881
30
0.0
10
52.413941
20
42.035715
30
0.0
10
52.939394
20
48.580547
30
0.0
10
53.230297
20
51.684991
30
0.0
10
53.525620
20
54.415223
30
0.0
10
53.756540
20
55.362842
30
0.0
10
54.084937
20
56.102948
30
0.0
10
54.542288
20
56.688653
30
0.0
10
55.160070
20
57.173072
30
0.0
10
57.002844
20
58.050504
30
0.0
10
59.593567
20
59.093110
30
0.0
10
60.341083
20
59.259068
30
0.0
10
61.077188
20
59.180604
30
0.0
10
61.710284
20
58.882885
30
0.0
10
62.148774
20
58.391076
30
0.0
10
62.526619
20
57.470440
30
0.0
10
62.704660
20
56.404764
30
0.0
10
62.693423
20
55.040675
30
0.0
10
62.503439
20
53.224804
30
0.0
10
62.117266
20
48.298324
30
0.0
10
61.829431
20
44.347214
30
0.0
10
61.269770
20
38.088533
30
0.0
10
60.799523
20
33.188470
30
0.0
10
60.737954
20
32.948018
30
0.0
10
60.818299
20
32.832815
30
0.0
10
61.576526
20
32.918454
30
0.0
10
62.619083
20
33.197777
30
0.0
10
62.860558
20
34.356100
30
0.0
10
63.064204
20
37.432770
30
0.0
10
63.302802
20
40.172089
30
0.0
10
63.693040
20
42.794992
30
0.0
10
64.082295
20
45.934248
30
0.0
10
64.227608
20
50.414991
30
0.0
10
64.341159
20
54.412391
30
0.0
10
64.616378
20
56.143016
30
0.0
10
65.377785
20
56.982866
30
0.0
10
66.667696
20
58.031374
30
0.0
10
67.997630
20
58.926196
30
0.0
10
68.879105
20
59.304991
30
0.0
10
69.562715
20
59.098285
30
0.0
10
70.360038
20
58.452796
30
0.0
10
71.308660
20
57.330467
30
0.0
10
72.446168
20
55.693241
30
0.0
10
74.995320
20
52.060622
30
0.0
10
76.630603
20
49.520622
30
0.0
10
77.724381
20
47.609442
30
0.0
10
77.954938
20
47.348271
30
0.0
10
78.117780
20
47.377166
30
0.0
10
78.456917
20
48.597219
30
0.0
10
79.448809
20
52.910874
30
0.0
10
80.319118
20
55.629414
30
0.0
10
80.778742
20
56.556777
30
0.0
10
81.292047
20
57.284875
30
0.0
10
82.591800
20
58.409295
30
0.0
10
84.930900
20
59.815794
30
0.0
10
85.816987
20
60.133441
30
0.0
10
86.079364
20
60.000514
30
0.0
10
86.385843
20
59.654890
30
0.0
10
86.818541
20
58.797412
30
0.0
10
87.064148
20
57.562781
30
0.0
10
87.115639
20
56.016730
30
0.0
10
86.965993
20
54.224991
30
0.0
10
86.674833
20
49.541129
30
0.0
10
86.563256
20
47.429179
30
0.0
10
86.262498
20
46.154464
30
0.0
10
85.935567
20
44.953940
30
0.0
10
85.716327
20
43.218325
30
0.0
10
85.287132
20
38.598224
30
0.0
10
85.131323
20
36.597016
30
0.0
10
85.159235
20
35.301070
30
0.0
10
85.401504
20
34.688410
30
0.0
10
85.954514
20
34.749359
30
0.0
10
86.589801
20
34.829497
30
0.0
10
87.467782
20
34.775275
30
0.0
10
88.300928
20
34.621624
30
0.0
10
88.801710
20
34.403476
30
0.0
10
89.132128
20
26.970462
30
0.0
10
89.347229
20
19.652770
30
0.0
10
90.650037
20
21.649332
30
0.0
10
93.821452
20
27.002199
30
0.0
10
94.942480
20
29.180478
30
0.0
10
95.300250
20
30.193463
30
0.0
10
93.651110
20
31.303482
30
0.0
10
92.438268
20
32.148076
30
0.0
10
91.182426
20
33.268441
30
0.0
10
90.113398
20
34.438197
30
0.0
10
89.460999
20
35.430965
30
0.0
10
88.689809
20
36.868326
30
0.0
10
88.066050
20
38.222812
30
0.0
10
87.573708
20
39.921387
30
0.0
10
87.252713
20
41.788973
30
0.0
10
87.142997
20
43.650492
30
0.0
10
87.394736
20
46.496170
30
0.0
10
88.132699
20
49.089238
30
0.0
10
89.376981
20
51.480225
30
0.0
10
91.147674
20
53.719661
30
0.0
10
93.292847
20
55.657998
30
0.0
10
95.659345
20
57.092076
30
0.0
10
98.330687
20
58.061745
30
0.0
10
101.390394
20
58.606857
30
0.0
10
102.991333
20
58.775705
30
0.0
10
103.180738
20
59.896776
30
0.0
10
103.233238
20
60.834008
30
0.0
10
103.029947
20
61.427754
30
0.0
10
102.840036
20
61.918843
30
0.0
10
102.862129
20
62.524455
30
0.0
10
102.938983
20
63.141966
30
0.0
10
102.851029
20
63.643301
30
0.0
10
102.616971
20
63.979791
30
0.0
10
102.255515
20
64.102769
30
0.0
10
101.973163
20
64.190997
30
0.0
10
102.285710
20
64.618880
30
0.0
10
102.615582
20
65.109640
30
0.0
10
102.752785
20
65.564800
30
0.0
10
102.996079
20
66.108631
30
0.0
10
103.581022
20
66.812578
30
0.0
10
104.883873
20
67.981797
30
0.0
10
105.246336
20
68.140443
30
0.0
10
105.556507
20
68.107084
30
0.0
10
105.929740
20
68.145875
30
0.0
10
106.275759
20
68.422917
30
0.0
10
106.684143
20
68.652736
30
0.0
10
107.441265
20
68.815646
30
0.0
10
109.504641
20
68.942071
30
0.0
10
111.471721
20
68.804854
30
0.0
10
112.108474
20
68.638212
30
0.0
10
112.348340
20
68.406658
30
0.0
10
112.410163
20
68.154552
30
0.0
10
112.579052
20
68.067869
30
0.0
10
113.138562
20
68.392547
30
0.0
10
113.406673
20
68.531306
30
0.0
10
113.477229
20
68.110325
30
0.0
10
113.595890
20
67.663473
30
0.0
10
113.900562
20
67.489436
30
0.0
10
114.211007
20
67.301288
30
0.0
10
114.323896
20
66.783880
30
0.0
10
114.391167
20
66.285582
30
0.0
10
114.552902
20
66.078325
30
0.0
10
115.340658
20
65.557771
30
0.0
10
115.757483
20
64.899182
30
0.0
10
115.787562
20
63.864438
30
0.0
10
115.634379
20
63.036162
30
0.0
10
115.423140
20
62.691658
30
0.0
10
115.244757
20
62.253995
30
0.0
10
115.170562
20
61.201739
30
0.0
10
115.054012
20
59.935464
30
0.0
10
114.606118
20
59.304992
30
0.0
10
114.207479
20
58.864243
30
0.0
10
114.041674
20
58.375863
30
0.0
10
113.904089
20
57.773573
30
0.0
10
113.517991
20
57.349555
30
0.0
10
112.923364
20
57.130048
30
0.0
10
112.160191
20
57.141288
30
0.0
10
111.296407
20
57.163613
30
0.0
10
110.735468
20
56.885769
30
0.0
10
110.539534
20
56.644512
30
0.0
10
110.522747
20
56.433898
30
0.0
10
111.120854
20
55.851741
30
0.0
10
112.707304
20
54.486880
30
0.0
10
114.078348
20
52.979118
30
0.0
10
115.251340
20
51.306762
30
0.0
10
116.243633
20
49.448120
30
0.0
10
117.086079
20
47.199579
30
0.0
10
117.370222
20
44.532485
30
0.0
10
117.374047
20
42.075464
30
0.0
10
117.155567
20
40.158043
30
0.0
10
116.360211
20
37.753375
30
0.0
10
115.039729
20
35.402815
30
0.0
10
113.187304
20
33.096355
30
0.0
10
110.796118
20
30.823989
30
0.0
10
110.081743
20
30.117771
30
0.0
10
109.949451
20
29.764468
30
0.0
10
110.553899
20
29.464761
30
0.0
10
110.905866
20
28.971516
30
0.0
10
111.086732
20
28.072019
30
0.0
10
111.177877
20
26.553555
30
0.0
10
111.126598
20
23.975689
30
0.0
10
110.830947
20
21.392529
30
0.0
10
110.092044
20
16.548326
30
0.0
10
108.890698
20
9.511747
30
0.0
10
107.850703
20
4.847181
30
0.0
10
106.078985
20
6.231410
30
0.0
10
106.078985
20
6.231410
30
0.0
0
LWPOLYLINE
100
AcDbPolyline
8
Layer_1
90
10
70
0
10
100.472373
20
21.628326
30
0.0
10
101.440274
20
26.022791
30
0.0
10
101.807131
20
28.159481
30
0.0
10
100.544641
20
28.613470
30
0.0
10
99.282151
20
29.067458
30
0.0
10
99.463962
20
25.912338
30
0.0
10
99.647056
20
20.946288
30
0.0
10
99.759832
20
19.252954
30
0.0
10
100.472373
20
21.628326
30
0.0
10
100.472373
20
21.628326
30
0.0
0
LWPOLYLINE
100
AcDbPolyline
8
Layer_1
90
13
70
0
10
96.257353
20
21.416659
30
0.0
10
96.184907
20
22.423980
30
0.0
10
95.981409
20
22.846314
30
0.0
10
95.651680
20
22.681333
30
0.0
10
95.200541
20
21.926708
30
0.0
10
94.763472
20
20.852529
30
0.0
10
94.830001
20
20.653377
30
0.0
10
95.074777
20
20.550451
30
0.0
10
95.710085
20
20.418545
30
0.0
10
96.067616
20
20.481344
30
0.0
10
96.224372
20
20.795249
30
0.0
10
96.257353
20
21.416659
30
0.0
10
96.257353
20
21.416659
30
0.0
0
LWPOLYLINE
100
AcDbPolyline
8
Layer_1
90
14
70
0
10
107.115968
20
25.327048
30
0.0
10
107.402647
20
29.063515
30
0.0
10
106.474901
20
28.977793
30
0.0
10
105.990843
20
28.820181
30
0.0
10
105.690793
20
28.432950
30
0.0
10
105.184719
20
25.864408
30
0.0
10
104.728340
20
22.501922
30
0.0
10
104.960090
20
22.080084
30
0.0
10
105.494642
20
21.673706
30
0.0
10
106.090945
20
21.422878
30
0.0
10
106.507952
20
21.467685
30
0.0
10
106.780356
20
22.692251
30
0.0
10
107.115968
20
25.327048
30
0.0
10
107.115968
20
25.327048
30
0.0
0
LWPOLYLINE
100
AcDbPolyline
8
Layer_1
90
10
70
0
10
54.720817
20
22.012196
30
0.0
10
54.948546
20
22.385580
30
0.0
10
54.890710
20
23.040190
30
0.0
10
54.662689
20
23.645249
30
0.0
10
54.289221
20
23.295644
30
0.0
10
53.541993
20
22.096108
30
0.0
10
53.569236
20
21.845793
30
0.0
10
53.847856
20
21.773758
30
0.0
10
54.720817
20
22.012196
30
0.0
10
54.720817
20
22.012196
30
0.0
0
LWPOLYLINE
100
AcDbPolyline
8
Layer_1
90
11
70
0
10
85.462364
20
25.864402
30
0.0
10
85.528610
20
27.554992
30
0.0
10
84.715502
20
26.002770
30
0.0
10
84.269744
20
25.023251
30
0.0
10
84.161029
20
24.402012
30
0.0
10
84.393871
20
24.105676
30
0.0
10
84.972785
20
24.100866
30
0.0
10
85.174036
20
24.223889
30
0.0
10
85.316262
20
24.535570
30
0.0
10
85.462364
20
25.864402
30
0.0
10
85.462364
20
25.864402
30
0.0
0
LWPOLYLINE
100
AcDbPolyline
8
Layer_1
90
43
70
0
10
97.054334
20
34.163852
30
0.0
10
101.482785
20
37.017317
30
0.0
10
103.941359
20
38.567089
30
0.0
10
105.096654
20
39.442274
30
0.0
10
105.549093
20
39.843092
30
0.0
10
106.317819
20
40.252371
30
0.0
10
107.043037
20
40.682648
30
0.0
10
107.219504
20
41.143501
30
0.0
10
107.045619
20
41.521903
30
0.0
10
106.776834
20
41.725855
30
0.0
10
106.529927
20
41.712254
30
0.0
10
106.421674
20
41.437997
30
0.0
10
104.958661
20
40.269514
30
0.0
10
101.271118
20
37.957258
30
0.0
10
95.979451
20
34.830089
30
0.0
10
94.935091
20
36.131245
30
0.0
10
93.481040
20
38.595839
30
0.0
10
92.531724
20
40.741352
30
0.0
10
91.608111
20
43.193247
30
0.0
10
90.935069
20
45.308327
30
0.0
10
90.737464
20
46.443394
30
0.0
10
91.126799
20
46.983646
30
0.0
10
92.000891
20
47.783978
30
0.0
10
94.652886
20
49.782111
30
0.0
10
97.592528
20
51.672243
30
0.0
10
99.718896
20
52.688825
30
0.0
10
100.267024
20
52.941314
30
0.0
10
100.495007
20
53.286827
30
0.0
10
100.328162
20
53.549754
30
0.0
10
99.739815
20
53.441677
30
0.0
10
96.771751
20
51.918951
30
0.0
10
93.449649
20
49.829964
30
0.0
10
90.270598
20
47.394175
30
0.0
10
89.500637
20
46.746103
30
0.0
10
90.482265
20
44.511784
30
0.0
10
91.463896
20
41.905768
30
0.0
10
92.072478
20
40.091750
30
0.0
10
93.454984
20
37.200311
30
0.0
10
94.946556
20
34.520296
30
0.0
10
95.525473
20
33.662336
30
0.0
10
95.882333
20
33.340548
30
0.0
10
97.054334
20
34.163852
30
0.0
10
97.054334
20
34.163852
30
0.0
0
LWPOLYLINE
100
AcDbPolyline
8
Layer_1
90
29
70
0
10
101.482785
20
38.489865
30
0.0
10
104.351884
20
40.162695
30
0.0
10
105.620342
20
41.064813
30
0.0
10
105.798144
20
41.385606
30
0.0
10
105.748363
20
41.704223
30
0.0
10
105.196155
20
42.588933
30
0.0
10
103.597834
20
45.334992
30
0.0
10
102.098314
20
48.016102
30
0.0
10
100.630476
20
50.785894
30
0.0
10
99.799083
20
52.212543
30
0.0
10
99.547347
20
52.313257
30
0.0
10
99.283449
20
52.126449
30
0.0
10
98.530751
20
51.684991
30
0.0
10
98.263404
20
51.561113
30
0.0
10
98.057688
20
51.263279
30
0.0
10
97.869031
20
51.011406
30
0.0
10
97.642697
20
50.998031
30
0.0
10
96.921373
20
50.800884
30
0.0
10
95.569405
20
50.015616
30
0.0
10
93.951920
20
48.878596
30
0.0
10
92.434046
20
47.626189
30
0.0
10
90.854547
20
46.181659
30
0.0
10
92.162071
20
42.941352
30
0.0
10
94.194338
20
38.296136
30
0.0
10
95.618616
20
35.818970
30
0.0
10
95.890785
20
35.510524
30
0.0
10
96.467661
20
35.629131
30
0.0
10
101.482785
20
38.489865
30
0.0
10
101.482785
20
38.489865
30
0.0
0
LWPOLYLINE
100
AcDbPolyline
8
Layer_1
90
42
70
0
10
94.725453
20
38.765567
30
0.0
10
94.399865
20
39.321888
30
0.0
10
94.326388
20
39.789554
30
0.0
10
94.518999
20
40.281105
30
0.0
10
94.991674
20
40.909079
30
0.0
10
95.656472
20
41.879367
30
0.0
10
95.539377
20
42.047546
30
0.0
10
95.132785
20
42.089436
30
0.0
10
94.734146
20
42.172339
30
0.0
10
94.568340
20
42.371659
30
0.0
10
94.941403
20
42.570978
30
0.0
10
95.838340
20
42.653881
30
0.0
10
96.735278
20
42.582253
30
0.0
10
97.108340
20
42.410041
30
0.0
10
95.979451
20
41.383881
30
0.0
10
95.034418
20
40.444491
30
0.0
10
94.847801
20
39.993409
30
0.0
10
94.845826
20
39.580689
30
0.0
10
95.024024
20
39.225799
30
0.0
10
95.377926
20
38.948205
30
0.0
10
95.903062
20
38.767373
30
0.0
10
96.594964
20
38.702770
30
0.0
10
97.287898
20
38.763402
30
0.0
10
97.687087
20
39.064362
30
0.0
10
97.899534
20
39.784248
30
0.0
10
98.032248
20
41.101659
30
0.0
10
98.150988
20
41.910253
30
0.0
10
98.375445
20
41.666103
30
0.0
10
99.140202
20
40.554554
30
0.0
10
99.535652
20
40.049223
30
0.0
10
99.625489
20
39.751546
30
0.0
10
99.423328
20
39.703439
30
0.0
10
98.942785
20
39.946817
30
0.0
10
98.325588
20
40.230486
30
0.0
10
98.237229
20
39.445026
30
0.0
10
98.159986
20
38.781064
30
0.0
10
97.866029
20
38.382974
30
0.0
10
97.262013
20
38.189234
30
0.0
10
96.254595
20
38.138326
30
0.0
10
95.309568
20
38.277933
30
0.0
10
94.725453
20
38.765567
30
0.0
10
94.725453
20
38.765567
30
0.0
0
LWPOLYLINE
100
AcDbPolyline
8
Layer_1
90
8
70
0
10
98.971007
20
41.976547
30
0.0
10
98.929498
20
42.593556
30
0.0
10
99.082802
20
42.553421
30
0.0
10
99.253229
20
42.258769
30
0.0
10
99.294738
20
41.641759
30
0.0
10
99.141433
20
41.681895
30
0.0
10
98.971007
20
41.976547
30
0.0
10
98.971007
20
41.976547
30
0.0
0
LWPOLYLINE
100
AcDbPolyline
8
Layer_1
90
11
70
0
10
99.745729
20
42.242719
30
0.0
10
99.678285
20
42.629251
30
0.0
10
99.777129
20
42.860363
30
0.0
10
99.979793
20
42.883401
30
0.0
10
100.223808
20
42.645708
30
0.0
10
100.477851
20
42.021594
30
0.0
10
100.406847
20
41.861404
30
0.0
10
100.203940
20
41.807214
30
0.0
10
99.949272
20
41.935144
30
0.0
10
99.745741
20
42.242719
30
0.0
10
99.745729
20
42.242719
30
0.0
0
LWPOLYLINE
100
AcDbPolyline
8
Layer_1
90
79
70
0
10
99.630320
20
44.746107
30
0.0
10
98.784565
20
46.040547
30
0.0
10
98.539654
20
45.856180
30
0.0
10
98.430459
20
45.439113
30
0.0
10
98.472793
20
44.993399
30
0.0
10
98.682469
20
44.723089
30
0.0
10
98.965977
20
44.494270
30
0.0
10
99.083896
20
44.160445
30
0.0
10
99.018094
20
43.969459
30
0.0
10
98.796712
20
43.857804
30
0.0
10
97.743340
20
43.837862
30
0.0
10
96.578625
20
44.040609
30
0.0
10
96.392644
20
44.324918
30
0.0
10
96.314347
20
44.841103
30
0.0
10
96.322534
20
45.475629
30
0.0
10
96.477971
20
45.727000
30
0.0
10
96.739069
20
45.584361
30
0.0
10
97.064240
20
45.036855
30
0.0
10
97.378950
20
44.578336
30
0.0
10
97.673984
20
44.489067
30
0.0
10
97.893051
20
44.737432
30
0.0
10
97.939475
20
45.066799
30
0.0
10
97.819059
20
45.423384
30
0.0
10
97.537603
20
45.753403
30
0.0
10
97.278071
20
46.138468
30
0.0
10
97.396492
20
46.616072
30
0.0
10
97.623887
20
47.108381
30
0.0
10
97.604498
20
47.314013
30
0.0
10
96.722252
20
46.910232
30
0.0
10
95.381696
20
46.323825
30
0.0
10
95.307102
20
46.371074
30
0.0
10
95.392318
20
46.498961
30
0.0
10
95.965549
20
46.918575
30
0.0
10
96.939427
20
47.512269
30
0.0
10
96.280199
20
47.865076
30
0.0
10
95.891956
20
48.162042
30
0.0
10
95.884244
20
48.380593
30
0.0
10
96.190573
20
48.419344
30
0.0
10
96.557372
20
48.284024
30
0.0
10
97.167924
20
48.031539
30
0.0
10
97.333110
20
48.084542
30
0.0
10
97.390562
20
48.257498
30
0.0
10
97.121128
20
48.521642
30
0.0
10
96.473340
20
48.817729
30
0.0
10
95.556118
20
49.136565
30
0.0
10
96.508618
20
48.999667
30
0.0
10
98.272507
20
48.862769
30
0.0
10
98.845550
20
48.774973
30
0.0
10
99.083896
20
48.563891
30
0.0
10
99.006721
20
48.400504
30
0.0
10
98.821175
20
48.427383
30
0.0
10
98.519718
20
48.483451
30
0.0
10
98.384303
20
48.237440
30
0.0
10
98.426100
20
47.773986
30
0.0
10
98.656275
20
47.177725
30
0.0
10
99.032298
20
46.562338
30
0.0
10
99.330618
20
46.374289
30
0.0
10
99.590766
20
46.617479
30
0.0
10
99.852271
20
47.295813
30
0.0
10
100.011898
20
48.113719
30
0.0
10
99.914531
20
48.292563
30
0.0
10
99.687956
20
48.391962
30
0.0
10
99.563286
20
48.489425
30
0.0
10
99.954080
20
48.547809
30
0.0
10
100.848259
20
48.415443
30
0.0
10
100.895202
20
47.992807
30
0.0
10
100.688798
20
47.290533
30
0.0
10
100.321896
20
46.543363
30
0.0
10
99.887346
20
45.986045
30
0.0
10
99.484657
20
45.532594
30
0.0
10
99.885935
20
45.217774
30
0.0
10
100.315638
20
44.883260
30
0.0
10
100.591312
20
44.464936
30
0.0
10
100.676883
20
44.046372
30
0.0
10
100.536279
20
43.711136
30
0.0
10
100.383442
20
43.695562
30
0.0
10
100.171575
20
43.874210
30
0.0
10
99.630337
20
44.746107
30
0.0
10
99.630320
20
44.746107
30
0.0
0
LWPOLYLINE
100
AcDbPolyline
8
Layer_1
90
10
70
0
10
98.519451
20
46.306113
30
0.0
10
98.218965
20
46.750305
30
0.0
10
97.969737
20
46.849153
30
0.0
10
97.766858
20
46.793138
30
0.0
10
97.710845
20
46.590260
30
0.0
10
97.809694
20
46.341033
30
0.0
10
98.253886
20
46.040547
30
0.0
10
98.441442
20
46.118557
30
0.0
10
98.519451
20
46.306113
30
0.0
10
98.519451
20
46.306113
30
0.0
0
LWPOLYLINE
100
AcDbPolyline
8
Layer_1
90
9
70
0
10
94.806016
20
45.081556
30
0.0
10
95.316310
20
45.346450
30
0.0
10
95.636752
20
45.348431
30
0.0
10
95.646897
20
45.142069
30
0.0
10
95.405587
20
44.908407
30
0.0
10
94.576098
20
44.633757
30
0.0
10
94.434630
20
44.747334
30
0.0
10
94.806016
20
45.081556
30
0.0
10
94.806016
20
45.081556
30
0.0
0
LWPOLYLINE
100
AcDbPolyline
8
Layer_1
90
16
70
0
10
106.420618
20
42.301103
30
0.0
10
105.812717
20
43.500547
30
0.0
10
102.053607
20
50.066616
30
0.0
10
101.286352
20
51.120547
30
0.0
10
101.181237
20
51.231619
30
0.0
10
101.222262
20
51.498664
30
0.0
10
101.196611
20
51.872045
30
0.0
10
100.931184
20
52.238776
30
0.0
10
100.546588
20
52.437334
30
0.0
10
100.555890
20
52.056057
30
0.0
10
101.785073
20
49.460006
30
0.0
10
105.124102
20
43.608933
30
0.0
10
106.080593
20
42.305387
30
0.0
10
106.334279
20
42.130621
30
0.0
10
106.420618
20
42.301103
30
0.0
10
106.420618
20
42.301103
30
0.0
0
LWPOLYLINE
100
AcDbPolyline
8
Layer_1
90
65
70
0
10
110.773710
20
60.674110
30
0.0
10
110.866314
20
61.102406
30
0.0
10
111.120436
20
61.280547
30
0.0
10
111.348688
20
61.425311
30
0.0
10
111.164613
20
61.993758
30
0.0
10
110.981101
20
62.624553
30
0.0
10
111.170652
20
63.037980
30
0.0
10
111.431923
20
63.377889
30
0.0
10
111.484959
20
63.631475
30
0.0
10
111.340121
20
63.756052
30
0.0
10
111.007773
20
63.708938
30
0.0
10
110.654995
20
63.616451
30
0.0
10
111.007773
20
63.921523
30
0.0
10
111.354787
20
64.281010
30
0.0
10
111.484971
20
64.612257
30
0.0
10
111.394198
20
64.855116
30
0.0
10
111.078340
20
64.949435
30
0.0
10
110.779361
20
64.860767
30
0.0
10
110.655007
20
64.647584
30
0.0
10
110.468476
20
64.460911
30
0.0
10
110.020007
20
64.435978
30
0.0
10
109.693879
20
64.520704
30
0.0
10
109.509958
20
64.699731
30
0.0
10
109.447124
20
65.584495
30
0.0
10
109.421356
20
66.267683
30
0.0
10
109.281942
20
66.609309
30
0.0
10
109.083314
20
66.561985
30
0.0
10
108.879900
20
66.078324
30
0.0
10
108.615088
20
65.674041
30
0.0
10
108.171623
20
65.513880
30
0.0
10
107.814379
20
65.425752
30
0.0
10
107.527887
20
65.182876
30
0.0
10
107.268340
20
64.361909
30
0.0
10
107.832785
20
63.538324
30
0.0
10
108.191443
20
63.091472
30
0.0
10
107.973896
20
62.973880
30
0.0
10
107.677386
20
62.886546
30
0.0
10
107.558591
20
62.692362
30
0.0
10
107.629809
20
62.493050
30
0.0
10
107.903340
20
62.390335
30
0.0
10
107.965958
20
62.286884
30
0.0
10
107.621118
20
62.064985
30
0.0
10
107.156927
20
61.662927
30
0.0
10
106.986118
20
61.096308
30
0.0
10
107.054789
20
60.658848
30
0.0
10
107.224083
20
60.454965
30
0.0
10
107.438919
20
60.506502
30
0.0
10
107.644215
20
60.835306
30
0.0
10
107.913936
20
61.087004
30
0.0
10
108.379966
20
61.084613
30
0.0
10
108.824685
20
61.075759
30
0.0
10
108.961674
20
61.388742
30
0.0
10
108.878771
20
61.710968
30
0.0
10
108.679451
20
61.844991
30
0.0
10
108.480132
20
61.920693
30
0.0
10
108.397229
20
62.102698
30
0.0
10
108.645937
20
62.190827
30
0.0
10
109.243896
20
62.040824
30
0.0
10
109.933339
20
61.604283
30
0.0
10
110.090562
20
60.771821
30
0.0
10
110.178221
20
60.088784
30
0.0
10
110.443340
20
59.945036
30
0.0
10
110.685907
20
60.209789
30
0.0
10
110.773710
20
60.674110
30
0.0
10
110.773710
20
60.674110
30
0.0
0
LWPOLYLINE
100
AcDbPolyline
8
Layer_1
90
7
70
0
10
108.419511
20
63.938139
30
0.0
10
108.453864
20
64.270081
30
0.0
10
108.567739
20
64.308556
30
0.0
10
108.590007
20
63.767630
30
0.0
10
108.476047
20
63.645168
30
0.0
10
108.419499
20
63.938139
30
0.0
10
108.419511
20
63.938139
30
0.0
0
LWPOLYLINE
100
AcDbPolyline
8
Layer_1
90
12
70
0
10
106.327600
20
64.282393
30
0.0
10
106.252592
20
64.554172
30
0.0
10
106.072254
20
64.667213
30
0.0
10
105.721239
20
64.533772
30
0.0
10
105.380212
20
64.217959
30
0.0
10
105.153833
20
63.846536
30
0.0
10
105.146763
20
63.546269
30
0.0
10
105.427856
20
63.432843
30
0.0
10
105.823037
20
63.582976
30
0.0
10
106.175290
20
63.898787
30
0.0
10
106.327600
20
64.282393
30
0.0
10
106.327600
20
64.282393
30
0.0
0
LWPOLYLINE
100
AcDbPolyline
8
Layer_1
90
9
70
0
10
110.372785
20
65.090547
30
0.0
10
110.298751
20
65.389526
30
0.0
10
110.120757
20
65.513880
30
0.0
10
109.706280
20
65.090547
30
0.0
10
109.700465
20
64.782179
30
0.0
10
109.958307
20
64.667213
30
0.0
10
110.251032
20
64.791567
30
0.0
10
110.372785
20
65.090547
30
0.0
10
110.372785
20
65.090547
30
0.0
0
LWPOLYLINE
100
AcDbPolyline
8
Layer_1
90
17
70
0
10
111.295177
20
7.908310
30
0.0
10
109.536459
20
9.507677
30
0.0
10
111.250027
20
18.531335
30
0.0
10
113.101936
20
28.135367
30
0.0
10
113.331524
20
28.796156
30
0.0
10
113.478776
20
28.384523
30
0.0
10
114.065934
20
27.817554
30
0.0
10
115.423930
20
27.281508
30
0.0
10
116.807528
20
26.746473
30
0.0
10
117.072965
20
26.485487
30
0.0
10
117.146118
20
26.169476
30
0.0
10
116.562066
20
22.563643
30
0.0
10
115.252838
20
15.883882
30
0.0
10
113.882826
20
9.395579
30
0.0
10
113.116422
20
6.364122
30
0.0
10
111.295177
20
7.908310
30
0.0
10
111.295177
20
7.908310
30
0.0
0
LWPOLYLINE
100
AcDbPolyline
8
Layer_1
90
18
70
0
10
72.469338
20
23.673762
30
0.0
10
68.855889
20
23.762081
30
0.0
10
68.941561
20
25.090620
30
0.0
10
69.010762
20
25.853191
30
0.0
10
69.164127
20
26.272701
30
0.0
10
69.509847
20
26.486422
30
0.0
10
70.156118
20
26.631629
30
0.0
10
71.927503
20
26.731856
30
0.0
10
74.601118
20
26.674470
30
0.0
10
77.489405
20
26.437916
30
0.0
10
77.860423
20
26.214228
30
0.0
10
77.917229
20
25.816458
30
0.0
10
77.786116
20
25.012662
30
0.0
10
77.455277
20
24.256370
30
0.0
10
77.018463
20
23.707034
30
0.0
10
76.569426
20
23.524106
30
0.0
10
72.469338
20
23.673762
30
0.0
10
72.469338
20
23.673762
30
0.0
0
LWPOLYLINE
100
AcDbPolyline
8
Layer_1
90
57
70
0
10
122.001740
20
29.077364
30
0.0
10
120.089082
20
30.020247
30
0.0
10
118.507049
20
31.304018
30
0.0
10
117.496575
20
32.681368
30
0.0
10
117.280964
20
33.327849
30
0.0
10
117.298594
20
33.904984
30
0.0
10
117.575135
20
37.009437
30
0.0
10
117.806150
20
39.698485
30
0.0
10
118.241877
20
42.794992
30
0.0
10
119.014184
20
48.933324
30
0.0
10
119.204986
20
51.684991
30
0.0
10
118.219293
20
51.684991
30
0.0
10
117.365661
20
51.829271
30
0.0
10
116.739438
20
52.252367
30
0.0
10
116.353939
20
52.939666
30
0.0
10
116.222481
20
53.876555
30
0.0
10
116.304438
20
54.652048
30
0.0
10
116.540038
20
55.418729
30
0.0
10
117.410545
20
56.851608
30
0.0
10
118.710753
20
58.027093
30
0.0
10
120.317412
20
58.797087
30
0.0
10
122.166983
20
59.066938
30
0.0
10
124.727230
20
59.113467
30
0.0
10
127.361267
20
58.950903
30
0.0
10
129.432208
20
58.593474
30
0.0
10
132.271191
20
57.510330
30
0.0
10
134.512627
20
56.092228
30
0.0
10
135.373736
20
55.286566
30
0.0
10
136.042825
20
54.431961
30
0.0
10
136.505681
20
53.540013
30
0.0
10
136.748094
20
52.622322
30
0.0
10
136.762462
20
51.433635
30
0.0
10
136.436156
20
50.380621
30
0.0
10
135.741151
20
49.407689
30
0.0
10
134.649422
20
48.459247
30
0.0
10
133.524030
20
47.632392
30
0.0
10
135.100167
20
46.739070
30
0.0
10
137.059132
20
45.413130
30
0.0
10
138.554799
20
43.925192
30
0.0
10
139.572284
20
42.293729
30
0.0
10
140.096703
20
40.537215
30
0.0
10
140.140416
20
39.538615
30
0.0
10
140.033624
20
38.460606
30
0.0
10
139.815919
20
37.546275
30
0.0
10
139.526893
20
37.038706
30
0.0
10
138.948324
20
36.092725
30
0.0
10
138.356374
20
35.083983
30
0.0
10
137.470270
20
34.024321
30
0.0
10
135.043448
20
31.919028
30
0.0
10
132.123554
20
30.110422
30
0.0
10
130.621109
20
29.421620
30
0.0
10
129.166281
20
28.932082
30
0.0
10
127.438060
20
28.637756
30
0.0
10
125.493133
20
28.567406
30
0.0
10
123.593644
20
28.715714
30
0.0
10
122.001740
20
29.077364
30
0.0
10
122.001740
20
29.077364
30
0.0
0
LWPOLYLINE
100
AcDbPolyline
8
Layer_1
90
21
70
0
10
131.419846
20
35.286544
30
0.0
10
132.041138
20
35.648340
30
0.0
10
132.511882
20
36.089290
30
0.0
10
133.031790
20
37.152078
30
0.0
10
133.039704
20
38.361769
30
0.0
10
132.595757
20
39.605224
30
0.0
10
131.760085
20
40.769302
30
0.0
10
130.592822
20
41.740864
30
0.0
10
129.154102
20
42.406770
30
0.0
10
127.504060
20
42.653881
30
0.0
10
126.986993
20
42.553220
30
0.0
10
126.664309
20
42.195351
30
0.0
10
126.497149
20
41.496445
30
0.0
10
126.446658
20
40.372671
30
0.0
10
126.440957
20
38.561659
30
0.0
10
126.700590
20
34.822215
30
0.0
10
127.383173
20
34.700089
30
0.0
10
128.775060
20
34.773942
30
0.0
10
130.309528
20
34.988013
30
0.0
10
131.419854
20
35.286544
30
0.0
10
131.419846
20
35.286544
30
0.0
0
LWPOLYLINE
100
AcDbPolyline
8
Layer_1
90
14
70
0
10
129.070007
20
49.927669
30
0.0
10
129.549122
20
50.575857
30
0.0
10
129.489084
20
51.171218
30
0.0
10
128.909658
20
51.679633
30
0.0
10
127.830614
20
52.066979
30
0.0
10
127.419392
20
52.136918
30
0.0
10
127.179549
20
52.056690
30
0.0
10
126.958973
20
51.188797
30
0.0
10
127.000055
20
50.023102
30
0.0
10
127.414079
20
49.395381
30
0.0
10
127.738213
20
49.296839
30
0.0
10
128.128308
20
49.349086
30
0.0
10
129.070007
20
49.927669
30
0.0
10
129.070007
20
49.927669
30
0.0
0
LWPOLYLINE
100
AcDbPolyline
8
Layer_1
90
181
70
0
10
11.389402
20
29.247524
30
0.0
10
9.994551
20
29.616347
30
0.0
10
9.109402
20
30.045762
30
0.0
10
8.186115
20
30.526448
30
0.0
10
5.386115
20
31.891007
30
0.0
10
3.990450
20
32.709278
30
0.0
10
3.137080
20
33.379599
30
0.0
10
2.497491
20
34.238455
30
0.0
10
1.743168
20
35.622329
30
0.0
10
0.732728
20
37.846282
30
0.0
10
0.544721
20
38.681327
30
0.0
10
0.491736
20
39.573118
30
0.0
10
0.604553
20
40.820722
30
0.0
10
0.947812
20
41.866164
30
0.0
10
1.509815
20
42.702571
30
0.0
10
2.278866
20
43.323076
30
0.0
10
3.243269
20
43.720806
30
0.0
10
4.391328
20
43.888891
30
0.0
10
5.711347
20
43.820462
30
0.0
10
7.191629
20
43.508647
30
0.0
10
8.446593
20
43.037254
30
0.0
10
9.275462
20
42.386403
30
0.0
10
9.773682
20
41.441313
30
0.0
10
10.036697
20
40.087203
30
0.0
10
10.296391
20
38.624578
30
0.0
10
10.639021
20
37.646618
30
0.0
10
11.409036
20
36.889381
30
0.0
10
12.590716
20
36.233857
30
0.0
10
13.971587
20
35.772641
30
0.0
10
15.339178
20
35.598326
30
0.0
10
16.412034
20
35.668257
30
0.0
10
17.080950
20
35.915841
30
0.0
10
17.424603
20
36.397759
30
0.0
10
17.521670
20
37.170696
30
0.0
10
17.242528
20
38.150752
30
0.0
10
16.444823
20
39.262824
30
0.0
10
15.188139
20
40.440502
30
0.0
10
13.532061
20
41.617375
30
0.0
10
10.223493
20
43.828925
30
0.0
10
7.824794
20
45.770066
30
0.0
10
6.140604
20
47.622307
30
0.0
10
4.975561
20
49.567157
30
0.0
10
4.527694
20
50.720901
30
0.0
10
4.280904
20
51.864277
30
0.0
10
4.235328
20
52.997895
30
0.0
10
4.391107
20
54.122364
30
0.0
10
4.748382
20
55.238296
30
0.0
10
5.307290
20
56.346300
30
0.0
10
6.067973
20
57.446988
30
0.0
10
7.030570
20
58.540969
30
0.0
10
7.941831
20
59.357017
30
0.0
10
8.972691
20
60.065916
30
0.0
10
11.330325
20
61.141407
30
0.0
10
13.977703
20
61.725735
30
0.0
10
16.789058
20
61.777190
30
0.0
10
18.387875
20
61.487253
30
0.0
10
19.892294
20
60.900932
30
0.0
10
21.272449
20
60.049480
30
0.0
10
22.498474
20
58.964149
30
0.0
10
23.540501
20
57.676192
30
0.0
10
24.368664
20
56.216861
30
0.0
10
24.953097
20
54.617409
30
0.0
10
25.263932
20
52.909087
30
0.0
10
25.326235
20
51.113934
30
0.0
10
25.164006
20
50.678737
30
0.0
10
24.832660
20
50.309496
30
0.0
10
23.929881
20
49.807763
30
0.0
10
22.630779
20
49.413312
30
0.0
10
19.663023
20
48.798750
30
0.0
10
18.853440
20
48.644790
30
0.0
10
18.351020
20
48.663405
30
0.0
10
17.956030
20
48.914659
30
0.0
10
17.468740
20
49.458616
30
0.0
10
16.820152
20
50.490064
30
0.0
10
16.817763
20
51.826102
30
0.0
10
16.813077
20
53.208736
30
0.0
10
16.330933
20
54.507213
30
0.0
10
15.711227
20
55.460470
30
0.0
10
15.073452
20
55.859653
30
0.0
10
14.374775
20
55.712852
30
0.0
10
13.572363
20
55.028154
30
0.0
10
12.932782
20
54.073018
30
0.0
10
12.706916
20
53.077972
30
0.0
10
12.895251
20
52.068889
30
0.0
10
13.498271
20
51.071645
30
0.0
10
14.855500
20
49.671862
30
0.0
10
17.843136
20
47.593976
30
0.0
10
20.673665
20
45.527454
30
0.0
10
23.037504
20
43.447693
30
0.0
10
24.845834
20
41.441671
30
0.0
10
26.009837
20
39.596370
30
0.0
10
27.144782
20
37.224933
30
0.0
10
27.399448
20
36.260673
30
0.0
10
27.438755
20
35.965077
30
0.0
10
27.533261
20
35.920285
30
0.0
10
27.950730
20
38.886987
30
0.0
10
28.383569
20
44.578763
30
0.0
10
28.736936
20
47.914323
30
0.0
10
29.370584
20
51.689113
30
0.0
10
30.099600
20
54.948585
30
0.0
10
30.739072
20
56.738190
30
0.0
10
31.648252
20
57.517540
30
0.0
10
33.146695
20
58.447758
30
0.0
10
34.703823
20
59.231268
30
0.0
10
35.789057
20
59.570492
30
0.0
10
36.382859
20
59.375590
30
0.0
10
36.917946
20
58.822506
30
0.0
10
37.177652
20
58.253203
30
0.0
10
37.329493
20
57.327139
30
0.0
10
37.418340
20
53.177950
30
0.0
10
37.494176
20
49.311088
30
0.0
10
37.606405
20
48.525524
30
0.0
10
37.783671
20
48.298212
30
0.0
10
39.957299
20
48.752553
30
0.0
10
41.765595
20
49.206782
30
0.0
10
42.045755
20
50.657553
30
0.0
10
42.505198
20
53.660547
30
0.0
10
42.865251
20
55.892510
30
0.0
10
43.459265
20
57.317004
30
0.0
10
43.912953
20
57.825435
30
0.0
10
44.507866
20
58.250779
30
0.0
10
46.231680
20
59.010584
30
0.0
10
47.568941
20
59.407388
30
0.0
10
48.595560
20
59.458820
30
0.0
10
49.462192
20
59.143914
30
0.0
10
50.319491
20
58.441705
30
0.0
10
50.789251
20
57.929087
30
0.0
10
51.017799
20
57.444221
30
0.0
10
50.979152
20
55.563380
30
0.0
10
50.701871
20
51.210779
30
0.0
10
50.437172
20
48.639784
30
0.0
10
50.320753
20
43.187332
30
0.0
10
50.315705
20
32.819479
30
0.0
10
50.063522
20
31.467210
30
0.0
10
49.532611
20
30.921889
30
0.0
10
48.540237
20
30.235022
30
0.0
10
47.403379
20
29.656109
30
0.0
10
46.286795
20
29.256682
30
0.0
10
45.355242
20
29.108270
30
0.0
10
44.522754
20
29.253518
30
0.0
10
43.648742
20
29.631534
30
0.0
10
42.885283
20
30.158272
30
0.0
10
42.384452
20
30.749683
30
0.0
10
41.902429
20
32.051939
30
0.0
10
41.555293
20
33.922396
30
0.0
10
41.338657
20
36.394837
30
0.0
10
41.248135
20
39.503045
30
0.0
10
41.228351
20
41.855542
30
0.0
10
39.467945
20
41.678778
30
0.0
10
38.046958
20
41.437504
30
0.0
10
37.102601
20
41.105644
30
0.0
10
36.784834
20
40.853047
30
0.0
10
36.636084
20
40.554705
30
0.0
10
36.752126
20
39.353244
30
0.0
10
36.868439
20
37.291659
30
0.0
10
36.683704
20
34.892770
30
0.0
10
36.587995
20
33.695164
30
0.0
10
36.314648
20
32.778881
30
0.0
10
35.768278
20
31.939638
30
0.0
10
34.853496
20
30.973152
30
0.0
10
34.052106
20
30.302465
30
0.0
10
33.193314
20
29.830342
30
0.0
10
32.170731
20
29.512091
30
0.0
10
30.877967
20
29.303015
30
0.0
10
29.821851
20
29.312892
30
0.0
10
29.140542
20
29.771924
30
0.0
10
28.675545
20
30.567038
30
0.0
10
28.183534
20
31.767362
30
0.0
10
27.848557
20
32.862123
30
0.0
10
27.854661
20
33.340548
30
0.0
10
27.833918
20
33.604767
30
0.0
10
27.338270
20
33.384781
30
0.0
10
26.375916
20
32.484845
30
0.0
10
25.010628
20
31.289929
30
0.0
10
23.488669
20
30.515029
30
0.0
10
20.942861
20
29.487944
30
0.0
10
19.294318
20
29.149518
30
0.0
10
16.654773
20
28.984111
30
0.0
10
13.770910
20
29.010517
30
0.0
10
11.389413
20
29.247524
30
0.0
10
11.389402
20
29.247524
30
0.0
0
LWPOLYLINE
100
AcDbPolyline
8
Layer_1
90
30
70
0
10
143.262285
20
29.101378
30
0.0
10
142.423226
20
29.480098
30
0.0
10
141.751401
20
30.272649
30
0.0
10
141.261744
20
31.453660
30
0.0
10
140.969184
20
32.997761
30
0.0
10
140.821919
20
34.791069
30
0.0
10
140.810749
20
36.837073
30
0.0
10
141.270033
20
44.488325
30
0.0
10
141.832748
20
52.005117
30
0.0
10
142.354302
20
55.777265
30
0.0
10
142.713063
20
56.689214
30
0.0
10
143.197637
20
57.181143
30
0.0
10
143.853392
20
57.425098
30
0.0
10
144.725695
20
57.593126
30
0.0
10
147.293451
20
58.204707
30
0.0
10
148.158579
20
58.359318
30
0.0
10
148.781677
20
58.010856
30
0.0
10
149.226918
20
57.448630
30
0.0
10
149.593517
20
56.642617
30
0.0
10
150.087864
20
54.323612
30
0.0
10
150.258861
20
51.102597
30
0.0
10
150.100654
20
47.028325
30
0.0
10
149.200691
20
35.840202
30
0.0
10
148.587818
20
30.760345
30
0.0
10
148.353709
20
30.449377
30
0.0
10
147.867040
20
30.127744
30
0.0
10
146.394521
20
29.533013
30
0.0
10
144.687268
20
29.137207
30
0.0
10
143.262285
20
29.101378
30
0.0
10
143.262285
20
29.101378
30
0.0
0
LWPOLYLINE
100
AcDbPolyline
8
Layer_1
90
24
70
0
10
55.692229
20
60.982354
30
0.0
10
55.234549
20
61.611828
30
0.0
10
55.025871
20
62.279318
30
0.0
10
54.976296
20
63.467769
30
0.0
10
55.176886
20
65.455245
30
0.0
10
55.449708
20
66.591476
30
0.0
10
56.023940
20
67.293431
30
0.0
10
57.152845
20
67.730487
30
0.0
10
59.089688
20
68.072022
30
0.0
10
61.324746
20
68.296174
30
0.0
10
61.852797
20
68.166103
30
0.0
10
62.335243
20
67.850937
30
0.0
10
62.765962
20
67.474519
30
0.0
10
62.985841
20
67.015064
30
0.0
10
63.028093
20
64.818425
30
0.0
10
62.895427
20
62.933564
30
0.0
10
62.678237
20
61.846872
30
0.0
10
62.170621
20
61.439113
30
0.0
10
61.148956
20
61.068407
30
0.0
10
57.879451
20
60.525177
30
0.0
10
56.493817
20
60.515736
30
0.0
10
56.076102
20
60.677815
30
0.0
10
55.692229
20
60.982354
30
0.0
10
55.692229
20
60.982354
30
0.0
0
LWPOLYLINE
100
AcDbPolyline
8
Layer_1
90
23
70
0
10
143.449229
20
61.336991
30
0.0
10
143.259817
20
61.760968
30
0.0
10
143.163486
20
62.485885
30
0.0
10
143.211981
20
64.425964
30
0.0
10
143.518542
20
66.332080
30
0.0
10
143.744793
20
67.014542
30
0.0
10
144.006996
20
67.379082
30
0.0
10
146.412669
20
68.083115
30
0.0
10
148.944683
20
68.618324
30
0.0
10
149.417005
20
68.428803
30
0.0
10
149.990288
20
67.973145
30
0.0
10
150.344740
20
67.562990
30
0.0
10
150.505811
20
67.099699
30
0.0
10
150.370467
20
65.080367
30
0.0
10
150.053225
20
63.303813
30
0.0
10
149.641901
20
62.375575
30
0.0
10
148.825726
20
61.952283
30
0.0
10
147.419600
20
61.501975
30
0.0
10
145.861818
20
61.144154
30
0.0
10
144.590671
20
60.998324
30
0.0
10
143.924228
20
61.097808
30
0.0
10
143.449229
20
61.336991
30
0.0
10
143.449229
20
61.336991
30
0.0
  0
ENDSEC
  0
SECTION
  2
OBJECTS
  0
DICTIONARY
  5
C
330
0
100
AcDbDictionary
  3
ACAD_GROUP
350
D
  3
ACAD_MLINESTYLE
350
17
  0
DICTIONARY
  5
D
330
C
100
AcDbDictionary
  0
DICTIONARY
  5
1A
330
C
100
AcDbDictionary
  0
DICTIONARY
  5
17
330
C
100
AcDbDictionary
  3
STANDARD
350
18
  0
DICTIONARY
  5
19
330
C
100
AcDbDictionary
  0
ENDSEC
  0
EOF
